G75*
%MOIN*%
%OFA0B0*%
%FSLAX25Y25*%
%IPPOS*%
%LPD*%
%AMOC8*
5,1,8,0,0,1.08239X$1,22.5*
%
%ADD10C,0.00000*%
D10*
X0012281Y0021236D02*
X0012335Y0021486D01*
X0042866Y0120663D01*
X0061486Y0123323D02*
X0061488Y0123464D01*
X0061494Y0123605D01*
X0061504Y0123745D01*
X0061518Y0123885D01*
X0061536Y0124025D01*
X0061557Y0124164D01*
X0061583Y0124303D01*
X0061612Y0124441D01*
X0061646Y0124577D01*
X0061683Y0124713D01*
X0061724Y0124848D01*
X0061769Y0124982D01*
X0061818Y0125114D01*
X0061870Y0125245D01*
X0061926Y0125374D01*
X0061986Y0125501D01*
X0062049Y0125627D01*
X0062115Y0125751D01*
X0062186Y0125874D01*
X0062259Y0125994D01*
X0062336Y0126112D01*
X0062416Y0126228D01*
X0062500Y0126341D01*
X0062586Y0126452D01*
X0062676Y0126561D01*
X0062769Y0126667D01*
X0062864Y0126770D01*
X0062963Y0126871D01*
X0063064Y0126969D01*
X0063168Y0127064D01*
X0063275Y0127156D01*
X0063384Y0127245D01*
X0063496Y0127330D01*
X0063610Y0127413D01*
X0063726Y0127493D01*
X0063845Y0127569D01*
X0063966Y0127641D01*
X0064088Y0127711D01*
X0064213Y0127776D01*
X0064339Y0127839D01*
X0064467Y0127897D01*
X0064597Y0127952D01*
X0064728Y0128004D01*
X0064861Y0128051D01*
X0064995Y0128095D01*
X0065130Y0128136D01*
X0065266Y0128172D01*
X0065403Y0128204D01*
X0065541Y0128233D01*
X0065679Y0128258D01*
X0065819Y0128278D01*
X0065959Y0128295D01*
X0066099Y0128308D01*
X0066240Y0128317D01*
X0066380Y0128322D01*
X0066521Y0128323D01*
X0066662Y0128320D01*
X0066803Y0128313D01*
X0066943Y0128302D01*
X0067083Y0128287D01*
X0067223Y0128268D01*
X0067362Y0128246D01*
X0067500Y0128219D01*
X0067638Y0128189D01*
X0067774Y0128154D01*
X0067910Y0128116D01*
X0068044Y0128074D01*
X0068178Y0128028D01*
X0068310Y0127979D01*
X0068440Y0127925D01*
X0068569Y0127868D01*
X0068696Y0127808D01*
X0068822Y0127744D01*
X0068945Y0127676D01*
X0069067Y0127605D01*
X0069187Y0127531D01*
X0069304Y0127453D01*
X0069419Y0127372D01*
X0069532Y0127288D01*
X0069643Y0127201D01*
X0069751Y0127110D01*
X0069856Y0127017D01*
X0069959Y0126920D01*
X0070059Y0126821D01*
X0070156Y0126719D01*
X0070250Y0126614D01*
X0070341Y0126507D01*
X0070429Y0126397D01*
X0070514Y0126285D01*
X0070596Y0126170D01*
X0070675Y0126053D01*
X0070750Y0125934D01*
X0070822Y0125813D01*
X0070890Y0125690D01*
X0070955Y0125565D01*
X0071017Y0125438D01*
X0071074Y0125309D01*
X0071129Y0125179D01*
X0071179Y0125048D01*
X0071226Y0124915D01*
X0071269Y0124781D01*
X0071308Y0124645D01*
X0071343Y0124509D01*
X0071375Y0124372D01*
X0071402Y0124234D01*
X0071426Y0124095D01*
X0071446Y0123955D01*
X0071462Y0123815D01*
X0071474Y0123675D01*
X0071482Y0123534D01*
X0071486Y0123393D01*
X0071486Y0123253D01*
X0071482Y0123112D01*
X0071474Y0122971D01*
X0071462Y0122831D01*
X0071446Y0122691D01*
X0071426Y0122551D01*
X0071402Y0122412D01*
X0071375Y0122274D01*
X0071343Y0122137D01*
X0071308Y0122001D01*
X0071269Y0121865D01*
X0071226Y0121731D01*
X0071179Y0121598D01*
X0071129Y0121467D01*
X0071074Y0121337D01*
X0071017Y0121208D01*
X0070955Y0121081D01*
X0070890Y0120956D01*
X0070822Y0120833D01*
X0070750Y0120712D01*
X0070675Y0120593D01*
X0070596Y0120476D01*
X0070514Y0120361D01*
X0070429Y0120249D01*
X0070341Y0120139D01*
X0070250Y0120032D01*
X0070156Y0119927D01*
X0070059Y0119825D01*
X0069959Y0119726D01*
X0069856Y0119629D01*
X0069751Y0119536D01*
X0069643Y0119445D01*
X0069532Y0119358D01*
X0069419Y0119274D01*
X0069304Y0119193D01*
X0069187Y0119115D01*
X0069067Y0119041D01*
X0068945Y0118970D01*
X0068822Y0118902D01*
X0068696Y0118838D01*
X0068569Y0118778D01*
X0068440Y0118721D01*
X0068310Y0118667D01*
X0068178Y0118618D01*
X0068044Y0118572D01*
X0067910Y0118530D01*
X0067774Y0118492D01*
X0067638Y0118457D01*
X0067500Y0118427D01*
X0067362Y0118400D01*
X0067223Y0118378D01*
X0067083Y0118359D01*
X0066943Y0118344D01*
X0066803Y0118333D01*
X0066662Y0118326D01*
X0066521Y0118323D01*
X0066380Y0118324D01*
X0066240Y0118329D01*
X0066099Y0118338D01*
X0065959Y0118351D01*
X0065819Y0118368D01*
X0065679Y0118388D01*
X0065541Y0118413D01*
X0065403Y0118442D01*
X0065266Y0118474D01*
X0065130Y0118510D01*
X0064995Y0118551D01*
X0064861Y0118595D01*
X0064728Y0118642D01*
X0064597Y0118694D01*
X0064467Y0118749D01*
X0064339Y0118807D01*
X0064213Y0118870D01*
X0064088Y0118935D01*
X0063966Y0119005D01*
X0063845Y0119077D01*
X0063726Y0119153D01*
X0063610Y0119233D01*
X0063496Y0119316D01*
X0063384Y0119401D01*
X0063275Y0119490D01*
X0063168Y0119582D01*
X0063064Y0119677D01*
X0062963Y0119775D01*
X0062864Y0119876D01*
X0062769Y0119979D01*
X0062676Y0120085D01*
X0062586Y0120194D01*
X0062500Y0120305D01*
X0062416Y0120418D01*
X0062336Y0120534D01*
X0062259Y0120652D01*
X0062186Y0120772D01*
X0062115Y0120895D01*
X0062049Y0121019D01*
X0061986Y0121145D01*
X0061926Y0121272D01*
X0061870Y0121401D01*
X0061818Y0121532D01*
X0061769Y0121664D01*
X0061724Y0121798D01*
X0061683Y0121933D01*
X0061646Y0122069D01*
X0061612Y0122205D01*
X0061583Y0122343D01*
X0061557Y0122482D01*
X0061536Y0122621D01*
X0061518Y0122761D01*
X0061504Y0122901D01*
X0061494Y0123041D01*
X0061488Y0123182D01*
X0061486Y0123323D01*
X0069360Y0077063D02*
X0069365Y0077498D01*
X0069381Y0077932D01*
X0069408Y0078366D01*
X0069445Y0078800D01*
X0069493Y0079232D01*
X0069552Y0079663D01*
X0069621Y0080092D01*
X0069700Y0080519D01*
X0069790Y0080945D01*
X0069891Y0081368D01*
X0070002Y0081788D01*
X0070123Y0082206D01*
X0070254Y0082620D01*
X0070396Y0083032D01*
X0070547Y0083439D01*
X0070709Y0083843D01*
X0070880Y0084243D01*
X0071061Y0084638D01*
X0071252Y0085029D01*
X0071452Y0085415D01*
X0071662Y0085796D01*
X0071881Y0086171D01*
X0072109Y0086542D01*
X0072346Y0086906D01*
X0072592Y0087265D01*
X0072847Y0087617D01*
X0073110Y0087963D01*
X0073382Y0088303D01*
X0073662Y0088635D01*
X0073950Y0088961D01*
X0074246Y0089280D01*
X0074549Y0089591D01*
X0074860Y0089894D01*
X0075179Y0090190D01*
X0075505Y0090478D01*
X0075837Y0090758D01*
X0076177Y0091030D01*
X0076523Y0091293D01*
X0076875Y0091548D01*
X0077234Y0091794D01*
X0077598Y0092031D01*
X0077969Y0092259D01*
X0078344Y0092478D01*
X0078725Y0092688D01*
X0079111Y0092888D01*
X0079502Y0093079D01*
X0079897Y0093260D01*
X0080297Y0093431D01*
X0080701Y0093593D01*
X0081108Y0093744D01*
X0081520Y0093886D01*
X0081934Y0094017D01*
X0082352Y0094138D01*
X0082772Y0094249D01*
X0083195Y0094350D01*
X0083621Y0094440D01*
X0084048Y0094519D01*
X0084477Y0094588D01*
X0084908Y0094647D01*
X0085340Y0094695D01*
X0085774Y0094732D01*
X0086208Y0094759D01*
X0086642Y0094775D01*
X0087077Y0094780D01*
X0087512Y0094775D01*
X0087946Y0094759D01*
X0088380Y0094732D01*
X0088814Y0094695D01*
X0089246Y0094647D01*
X0089677Y0094588D01*
X0090106Y0094519D01*
X0090533Y0094440D01*
X0090959Y0094350D01*
X0091382Y0094249D01*
X0091802Y0094138D01*
X0092220Y0094017D01*
X0092634Y0093886D01*
X0093046Y0093744D01*
X0093453Y0093593D01*
X0093857Y0093431D01*
X0094257Y0093260D01*
X0094652Y0093079D01*
X0095043Y0092888D01*
X0095429Y0092688D01*
X0095810Y0092478D01*
X0096185Y0092259D01*
X0096556Y0092031D01*
X0096920Y0091794D01*
X0097279Y0091548D01*
X0097631Y0091293D01*
X0097977Y0091030D01*
X0098317Y0090758D01*
X0098649Y0090478D01*
X0098975Y0090190D01*
X0099294Y0089894D01*
X0099605Y0089591D01*
X0099908Y0089280D01*
X0100204Y0088961D01*
X0100492Y0088635D01*
X0100772Y0088303D01*
X0101044Y0087963D01*
X0101307Y0087617D01*
X0101562Y0087265D01*
X0101808Y0086906D01*
X0102045Y0086542D01*
X0102273Y0086171D01*
X0102492Y0085796D01*
X0102702Y0085415D01*
X0102902Y0085029D01*
X0103093Y0084638D01*
X0103274Y0084243D01*
X0103445Y0083843D01*
X0103607Y0083439D01*
X0103758Y0083032D01*
X0103900Y0082620D01*
X0104031Y0082206D01*
X0104152Y0081788D01*
X0104263Y0081368D01*
X0104364Y0080945D01*
X0104454Y0080519D01*
X0104533Y0080092D01*
X0104602Y0079663D01*
X0104661Y0079232D01*
X0104709Y0078800D01*
X0104746Y0078366D01*
X0104773Y0077932D01*
X0104789Y0077498D01*
X0104794Y0077063D01*
X0104789Y0076628D01*
X0104773Y0076194D01*
X0104746Y0075760D01*
X0104709Y0075326D01*
X0104661Y0074894D01*
X0104602Y0074463D01*
X0104533Y0074034D01*
X0104454Y0073607D01*
X0104364Y0073181D01*
X0104263Y0072758D01*
X0104152Y0072338D01*
X0104031Y0071920D01*
X0103900Y0071506D01*
X0103758Y0071094D01*
X0103607Y0070687D01*
X0103445Y0070283D01*
X0103274Y0069883D01*
X0103093Y0069488D01*
X0102902Y0069097D01*
X0102702Y0068711D01*
X0102492Y0068330D01*
X0102273Y0067955D01*
X0102045Y0067584D01*
X0101808Y0067220D01*
X0101562Y0066861D01*
X0101307Y0066509D01*
X0101044Y0066163D01*
X0100772Y0065823D01*
X0100492Y0065491D01*
X0100204Y0065165D01*
X0099908Y0064846D01*
X0099605Y0064535D01*
X0099294Y0064232D01*
X0098975Y0063936D01*
X0098649Y0063648D01*
X0098317Y0063368D01*
X0097977Y0063096D01*
X0097631Y0062833D01*
X0097279Y0062578D01*
X0096920Y0062332D01*
X0096556Y0062095D01*
X0096185Y0061867D01*
X0095810Y0061648D01*
X0095429Y0061438D01*
X0095043Y0061238D01*
X0094652Y0061047D01*
X0094257Y0060866D01*
X0093857Y0060695D01*
X0093453Y0060533D01*
X0093046Y0060382D01*
X0092634Y0060240D01*
X0092220Y0060109D01*
X0091802Y0059988D01*
X0091382Y0059877D01*
X0090959Y0059776D01*
X0090533Y0059686D01*
X0090106Y0059607D01*
X0089677Y0059538D01*
X0089246Y0059479D01*
X0088814Y0059431D01*
X0088380Y0059394D01*
X0087946Y0059367D01*
X0087512Y0059351D01*
X0087077Y0059346D01*
X0086642Y0059351D01*
X0086208Y0059367D01*
X0085774Y0059394D01*
X0085340Y0059431D01*
X0084908Y0059479D01*
X0084477Y0059538D01*
X0084048Y0059607D01*
X0083621Y0059686D01*
X0083195Y0059776D01*
X0082772Y0059877D01*
X0082352Y0059988D01*
X0081934Y0060109D01*
X0081520Y0060240D01*
X0081108Y0060382D01*
X0080701Y0060533D01*
X0080297Y0060695D01*
X0079897Y0060866D01*
X0079502Y0061047D01*
X0079111Y0061238D01*
X0078725Y0061438D01*
X0078344Y0061648D01*
X0077969Y0061867D01*
X0077598Y0062095D01*
X0077234Y0062332D01*
X0076875Y0062578D01*
X0076523Y0062833D01*
X0076177Y0063096D01*
X0075837Y0063368D01*
X0075505Y0063648D01*
X0075179Y0063936D01*
X0074860Y0064232D01*
X0074549Y0064535D01*
X0074246Y0064846D01*
X0073950Y0065165D01*
X0073662Y0065491D01*
X0073382Y0065823D01*
X0073110Y0066163D01*
X0072847Y0066509D01*
X0072592Y0066861D01*
X0072346Y0067220D01*
X0072109Y0067584D01*
X0071881Y0067955D01*
X0071662Y0068330D01*
X0071452Y0068711D01*
X0071252Y0069097D01*
X0071061Y0069488D01*
X0070880Y0069883D01*
X0070709Y0070283D01*
X0070547Y0070687D01*
X0070396Y0071094D01*
X0070254Y0071506D01*
X0070123Y0071920D01*
X0070002Y0072338D01*
X0069891Y0072758D01*
X0069790Y0073181D01*
X0069700Y0073607D01*
X0069621Y0074034D01*
X0069552Y0074463D01*
X0069493Y0074894D01*
X0069445Y0075326D01*
X0069408Y0075760D01*
X0069381Y0076194D01*
X0069365Y0076628D01*
X0069360Y0077063D01*
X0012281Y0021236D02*
X0097754Y0001000D01*
X0278817Y0001197D01*
X0341809Y0024701D01*
X0341835Y0024701D01*
X0328202Y0069509D01*
X0285545Y0123343D02*
X0285547Y0123484D01*
X0285553Y0123625D01*
X0285563Y0123765D01*
X0285577Y0123905D01*
X0285595Y0124045D01*
X0285616Y0124184D01*
X0285642Y0124323D01*
X0285671Y0124461D01*
X0285705Y0124597D01*
X0285742Y0124733D01*
X0285783Y0124868D01*
X0285828Y0125002D01*
X0285877Y0125134D01*
X0285929Y0125265D01*
X0285985Y0125394D01*
X0286045Y0125521D01*
X0286108Y0125647D01*
X0286174Y0125771D01*
X0286245Y0125894D01*
X0286318Y0126014D01*
X0286395Y0126132D01*
X0286475Y0126248D01*
X0286559Y0126361D01*
X0286645Y0126472D01*
X0286735Y0126581D01*
X0286828Y0126687D01*
X0286923Y0126790D01*
X0287022Y0126891D01*
X0287123Y0126989D01*
X0287227Y0127084D01*
X0287334Y0127176D01*
X0287443Y0127265D01*
X0287555Y0127350D01*
X0287669Y0127433D01*
X0287785Y0127513D01*
X0287904Y0127589D01*
X0288025Y0127661D01*
X0288147Y0127731D01*
X0288272Y0127796D01*
X0288398Y0127859D01*
X0288526Y0127917D01*
X0288656Y0127972D01*
X0288787Y0128024D01*
X0288920Y0128071D01*
X0289054Y0128115D01*
X0289189Y0128156D01*
X0289325Y0128192D01*
X0289462Y0128224D01*
X0289600Y0128253D01*
X0289738Y0128278D01*
X0289878Y0128298D01*
X0290018Y0128315D01*
X0290158Y0128328D01*
X0290299Y0128337D01*
X0290439Y0128342D01*
X0290580Y0128343D01*
X0290721Y0128340D01*
X0290862Y0128333D01*
X0291002Y0128322D01*
X0291142Y0128307D01*
X0291282Y0128288D01*
X0291421Y0128266D01*
X0291559Y0128239D01*
X0291697Y0128209D01*
X0291833Y0128174D01*
X0291969Y0128136D01*
X0292103Y0128094D01*
X0292237Y0128048D01*
X0292369Y0127999D01*
X0292499Y0127945D01*
X0292628Y0127888D01*
X0292755Y0127828D01*
X0292881Y0127764D01*
X0293004Y0127696D01*
X0293126Y0127625D01*
X0293246Y0127551D01*
X0293363Y0127473D01*
X0293478Y0127392D01*
X0293591Y0127308D01*
X0293702Y0127221D01*
X0293810Y0127130D01*
X0293915Y0127037D01*
X0294018Y0126940D01*
X0294118Y0126841D01*
X0294215Y0126739D01*
X0294309Y0126634D01*
X0294400Y0126527D01*
X0294488Y0126417D01*
X0294573Y0126305D01*
X0294655Y0126190D01*
X0294734Y0126073D01*
X0294809Y0125954D01*
X0294881Y0125833D01*
X0294949Y0125710D01*
X0295014Y0125585D01*
X0295076Y0125458D01*
X0295133Y0125329D01*
X0295188Y0125199D01*
X0295238Y0125068D01*
X0295285Y0124935D01*
X0295328Y0124801D01*
X0295367Y0124665D01*
X0295402Y0124529D01*
X0295434Y0124392D01*
X0295461Y0124254D01*
X0295485Y0124115D01*
X0295505Y0123975D01*
X0295521Y0123835D01*
X0295533Y0123695D01*
X0295541Y0123554D01*
X0295545Y0123413D01*
X0295545Y0123273D01*
X0295541Y0123132D01*
X0295533Y0122991D01*
X0295521Y0122851D01*
X0295505Y0122711D01*
X0295485Y0122571D01*
X0295461Y0122432D01*
X0295434Y0122294D01*
X0295402Y0122157D01*
X0295367Y0122021D01*
X0295328Y0121885D01*
X0295285Y0121751D01*
X0295238Y0121618D01*
X0295188Y0121487D01*
X0295133Y0121357D01*
X0295076Y0121228D01*
X0295014Y0121101D01*
X0294949Y0120976D01*
X0294881Y0120853D01*
X0294809Y0120732D01*
X0294734Y0120613D01*
X0294655Y0120496D01*
X0294573Y0120381D01*
X0294488Y0120269D01*
X0294400Y0120159D01*
X0294309Y0120052D01*
X0294215Y0119947D01*
X0294118Y0119845D01*
X0294018Y0119746D01*
X0293915Y0119649D01*
X0293810Y0119556D01*
X0293702Y0119465D01*
X0293591Y0119378D01*
X0293478Y0119294D01*
X0293363Y0119213D01*
X0293246Y0119135D01*
X0293126Y0119061D01*
X0293004Y0118990D01*
X0292881Y0118922D01*
X0292755Y0118858D01*
X0292628Y0118798D01*
X0292499Y0118741D01*
X0292369Y0118687D01*
X0292237Y0118638D01*
X0292103Y0118592D01*
X0291969Y0118550D01*
X0291833Y0118512D01*
X0291697Y0118477D01*
X0291559Y0118447D01*
X0291421Y0118420D01*
X0291282Y0118398D01*
X0291142Y0118379D01*
X0291002Y0118364D01*
X0290862Y0118353D01*
X0290721Y0118346D01*
X0290580Y0118343D01*
X0290439Y0118344D01*
X0290299Y0118349D01*
X0290158Y0118358D01*
X0290018Y0118371D01*
X0289878Y0118388D01*
X0289738Y0118408D01*
X0289600Y0118433D01*
X0289462Y0118462D01*
X0289325Y0118494D01*
X0289189Y0118530D01*
X0289054Y0118571D01*
X0288920Y0118615D01*
X0288787Y0118662D01*
X0288656Y0118714D01*
X0288526Y0118769D01*
X0288398Y0118827D01*
X0288272Y0118890D01*
X0288147Y0118955D01*
X0288025Y0119025D01*
X0287904Y0119097D01*
X0287785Y0119173D01*
X0287669Y0119253D01*
X0287555Y0119336D01*
X0287443Y0119421D01*
X0287334Y0119510D01*
X0287227Y0119602D01*
X0287123Y0119697D01*
X0287022Y0119795D01*
X0286923Y0119896D01*
X0286828Y0119999D01*
X0286735Y0120105D01*
X0286645Y0120214D01*
X0286559Y0120325D01*
X0286475Y0120438D01*
X0286395Y0120554D01*
X0286318Y0120672D01*
X0286245Y0120792D01*
X0286174Y0120915D01*
X0286108Y0121039D01*
X0286045Y0121165D01*
X0285985Y0121292D01*
X0285929Y0121421D01*
X0285877Y0121552D01*
X0285828Y0121684D01*
X0285783Y0121818D01*
X0285742Y0121953D01*
X0285705Y0122089D01*
X0285671Y0122225D01*
X0285642Y0122363D01*
X0285616Y0122502D01*
X0285595Y0122641D01*
X0285577Y0122781D01*
X0285563Y0122921D01*
X0285553Y0123061D01*
X0285547Y0123202D01*
X0285545Y0123343D01*
X0252238Y0077083D02*
X0252243Y0077518D01*
X0252259Y0077952D01*
X0252286Y0078386D01*
X0252323Y0078820D01*
X0252371Y0079252D01*
X0252430Y0079683D01*
X0252499Y0080112D01*
X0252578Y0080539D01*
X0252668Y0080965D01*
X0252769Y0081388D01*
X0252880Y0081808D01*
X0253001Y0082226D01*
X0253132Y0082640D01*
X0253274Y0083052D01*
X0253425Y0083459D01*
X0253587Y0083863D01*
X0253758Y0084263D01*
X0253939Y0084658D01*
X0254130Y0085049D01*
X0254330Y0085435D01*
X0254540Y0085816D01*
X0254759Y0086191D01*
X0254987Y0086562D01*
X0255224Y0086926D01*
X0255470Y0087285D01*
X0255725Y0087637D01*
X0255988Y0087983D01*
X0256260Y0088323D01*
X0256540Y0088655D01*
X0256828Y0088981D01*
X0257124Y0089300D01*
X0257427Y0089611D01*
X0257738Y0089914D01*
X0258057Y0090210D01*
X0258383Y0090498D01*
X0258715Y0090778D01*
X0259055Y0091050D01*
X0259401Y0091313D01*
X0259753Y0091568D01*
X0260112Y0091814D01*
X0260476Y0092051D01*
X0260847Y0092279D01*
X0261222Y0092498D01*
X0261603Y0092708D01*
X0261989Y0092908D01*
X0262380Y0093099D01*
X0262775Y0093280D01*
X0263175Y0093451D01*
X0263579Y0093613D01*
X0263986Y0093764D01*
X0264398Y0093906D01*
X0264812Y0094037D01*
X0265230Y0094158D01*
X0265650Y0094269D01*
X0266073Y0094370D01*
X0266499Y0094460D01*
X0266926Y0094539D01*
X0267355Y0094608D01*
X0267786Y0094667D01*
X0268218Y0094715D01*
X0268652Y0094752D01*
X0269086Y0094779D01*
X0269520Y0094795D01*
X0269955Y0094800D01*
X0270390Y0094795D01*
X0270824Y0094779D01*
X0271258Y0094752D01*
X0271692Y0094715D01*
X0272124Y0094667D01*
X0272555Y0094608D01*
X0272984Y0094539D01*
X0273411Y0094460D01*
X0273837Y0094370D01*
X0274260Y0094269D01*
X0274680Y0094158D01*
X0275098Y0094037D01*
X0275512Y0093906D01*
X0275924Y0093764D01*
X0276331Y0093613D01*
X0276735Y0093451D01*
X0277135Y0093280D01*
X0277530Y0093099D01*
X0277921Y0092908D01*
X0278307Y0092708D01*
X0278688Y0092498D01*
X0279063Y0092279D01*
X0279434Y0092051D01*
X0279798Y0091814D01*
X0280157Y0091568D01*
X0280509Y0091313D01*
X0280855Y0091050D01*
X0281195Y0090778D01*
X0281527Y0090498D01*
X0281853Y0090210D01*
X0282172Y0089914D01*
X0282483Y0089611D01*
X0282786Y0089300D01*
X0283082Y0088981D01*
X0283370Y0088655D01*
X0283650Y0088323D01*
X0283922Y0087983D01*
X0284185Y0087637D01*
X0284440Y0087285D01*
X0284686Y0086926D01*
X0284923Y0086562D01*
X0285151Y0086191D01*
X0285370Y0085816D01*
X0285580Y0085435D01*
X0285780Y0085049D01*
X0285971Y0084658D01*
X0286152Y0084263D01*
X0286323Y0083863D01*
X0286485Y0083459D01*
X0286636Y0083052D01*
X0286778Y0082640D01*
X0286909Y0082226D01*
X0287030Y0081808D01*
X0287141Y0081388D01*
X0287242Y0080965D01*
X0287332Y0080539D01*
X0287411Y0080112D01*
X0287480Y0079683D01*
X0287539Y0079252D01*
X0287587Y0078820D01*
X0287624Y0078386D01*
X0287651Y0077952D01*
X0287667Y0077518D01*
X0287672Y0077083D01*
X0287667Y0076648D01*
X0287651Y0076214D01*
X0287624Y0075780D01*
X0287587Y0075346D01*
X0287539Y0074914D01*
X0287480Y0074483D01*
X0287411Y0074054D01*
X0287332Y0073627D01*
X0287242Y0073201D01*
X0287141Y0072778D01*
X0287030Y0072358D01*
X0286909Y0071940D01*
X0286778Y0071526D01*
X0286636Y0071114D01*
X0286485Y0070707D01*
X0286323Y0070303D01*
X0286152Y0069903D01*
X0285971Y0069508D01*
X0285780Y0069117D01*
X0285580Y0068731D01*
X0285370Y0068350D01*
X0285151Y0067975D01*
X0284923Y0067604D01*
X0284686Y0067240D01*
X0284440Y0066881D01*
X0284185Y0066529D01*
X0283922Y0066183D01*
X0283650Y0065843D01*
X0283370Y0065511D01*
X0283082Y0065185D01*
X0282786Y0064866D01*
X0282483Y0064555D01*
X0282172Y0064252D01*
X0281853Y0063956D01*
X0281527Y0063668D01*
X0281195Y0063388D01*
X0280855Y0063116D01*
X0280509Y0062853D01*
X0280157Y0062598D01*
X0279798Y0062352D01*
X0279434Y0062115D01*
X0279063Y0061887D01*
X0278688Y0061668D01*
X0278307Y0061458D01*
X0277921Y0061258D01*
X0277530Y0061067D01*
X0277135Y0060886D01*
X0276735Y0060715D01*
X0276331Y0060553D01*
X0275924Y0060402D01*
X0275512Y0060260D01*
X0275098Y0060129D01*
X0274680Y0060008D01*
X0274260Y0059897D01*
X0273837Y0059796D01*
X0273411Y0059706D01*
X0272984Y0059627D01*
X0272555Y0059558D01*
X0272124Y0059499D01*
X0271692Y0059451D01*
X0271258Y0059414D01*
X0270824Y0059387D01*
X0270390Y0059371D01*
X0269955Y0059366D01*
X0269520Y0059371D01*
X0269086Y0059387D01*
X0268652Y0059414D01*
X0268218Y0059451D01*
X0267786Y0059499D01*
X0267355Y0059558D01*
X0266926Y0059627D01*
X0266499Y0059706D01*
X0266073Y0059796D01*
X0265650Y0059897D01*
X0265230Y0060008D01*
X0264812Y0060129D01*
X0264398Y0060260D01*
X0263986Y0060402D01*
X0263579Y0060553D01*
X0263175Y0060715D01*
X0262775Y0060886D01*
X0262380Y0061067D01*
X0261989Y0061258D01*
X0261603Y0061458D01*
X0261222Y0061668D01*
X0260847Y0061887D01*
X0260476Y0062115D01*
X0260112Y0062352D01*
X0259753Y0062598D01*
X0259401Y0062853D01*
X0259055Y0063116D01*
X0258715Y0063388D01*
X0258383Y0063668D01*
X0258057Y0063956D01*
X0257738Y0064252D01*
X0257427Y0064555D01*
X0257124Y0064866D01*
X0256828Y0065185D01*
X0256540Y0065511D01*
X0256260Y0065843D01*
X0255988Y0066183D01*
X0255725Y0066529D01*
X0255470Y0066881D01*
X0255224Y0067240D01*
X0254987Y0067604D01*
X0254759Y0067975D01*
X0254540Y0068350D01*
X0254330Y0068731D01*
X0254130Y0069117D01*
X0253939Y0069508D01*
X0253758Y0069903D01*
X0253587Y0070303D01*
X0253425Y0070707D01*
X0253274Y0071114D01*
X0253132Y0071526D01*
X0253001Y0071940D01*
X0252880Y0072358D01*
X0252769Y0072778D01*
X0252668Y0073201D01*
X0252578Y0073627D01*
X0252499Y0074054D01*
X0252430Y0074483D01*
X0252371Y0074914D01*
X0252323Y0075346D01*
X0252286Y0075780D01*
X0252259Y0076214D01*
X0252243Y0076648D01*
X0252238Y0077083D01*
X0225742Y0224165D02*
X0225747Y0224600D01*
X0225763Y0225034D01*
X0225790Y0225468D01*
X0225827Y0225902D01*
X0225875Y0226334D01*
X0225934Y0226765D01*
X0226003Y0227194D01*
X0226082Y0227621D01*
X0226172Y0228047D01*
X0226273Y0228470D01*
X0226384Y0228890D01*
X0226505Y0229308D01*
X0226636Y0229722D01*
X0226778Y0230134D01*
X0226929Y0230541D01*
X0227091Y0230945D01*
X0227262Y0231345D01*
X0227443Y0231740D01*
X0227634Y0232131D01*
X0227834Y0232517D01*
X0228044Y0232898D01*
X0228263Y0233273D01*
X0228491Y0233644D01*
X0228728Y0234008D01*
X0228974Y0234367D01*
X0229229Y0234719D01*
X0229492Y0235065D01*
X0229764Y0235405D01*
X0230044Y0235737D01*
X0230332Y0236063D01*
X0230628Y0236382D01*
X0230931Y0236693D01*
X0231242Y0236996D01*
X0231561Y0237292D01*
X0231887Y0237580D01*
X0232219Y0237860D01*
X0232559Y0238132D01*
X0232905Y0238395D01*
X0233257Y0238650D01*
X0233616Y0238896D01*
X0233980Y0239133D01*
X0234351Y0239361D01*
X0234726Y0239580D01*
X0235107Y0239790D01*
X0235493Y0239990D01*
X0235884Y0240181D01*
X0236279Y0240362D01*
X0236679Y0240533D01*
X0237083Y0240695D01*
X0237490Y0240846D01*
X0237902Y0240988D01*
X0238316Y0241119D01*
X0238734Y0241240D01*
X0239154Y0241351D01*
X0239577Y0241452D01*
X0240003Y0241542D01*
X0240430Y0241621D01*
X0240859Y0241690D01*
X0241290Y0241749D01*
X0241722Y0241797D01*
X0242156Y0241834D01*
X0242590Y0241861D01*
X0243024Y0241877D01*
X0243459Y0241882D01*
X0243894Y0241877D01*
X0244328Y0241861D01*
X0244762Y0241834D01*
X0245196Y0241797D01*
X0245628Y0241749D01*
X0246059Y0241690D01*
X0246488Y0241621D01*
X0246915Y0241542D01*
X0247341Y0241452D01*
X0247764Y0241351D01*
X0248184Y0241240D01*
X0248602Y0241119D01*
X0249016Y0240988D01*
X0249428Y0240846D01*
X0249835Y0240695D01*
X0250239Y0240533D01*
X0250639Y0240362D01*
X0251034Y0240181D01*
X0251425Y0239990D01*
X0251811Y0239790D01*
X0252192Y0239580D01*
X0252567Y0239361D01*
X0252938Y0239133D01*
X0253302Y0238896D01*
X0253661Y0238650D01*
X0254013Y0238395D01*
X0254359Y0238132D01*
X0254699Y0237860D01*
X0255031Y0237580D01*
X0255357Y0237292D01*
X0255676Y0236996D01*
X0255987Y0236693D01*
X0256290Y0236382D01*
X0256586Y0236063D01*
X0256874Y0235737D01*
X0257154Y0235405D01*
X0257426Y0235065D01*
X0257689Y0234719D01*
X0257944Y0234367D01*
X0258190Y0234008D01*
X0258427Y0233644D01*
X0258655Y0233273D01*
X0258874Y0232898D01*
X0259084Y0232517D01*
X0259284Y0232131D01*
X0259475Y0231740D01*
X0259656Y0231345D01*
X0259827Y0230945D01*
X0259989Y0230541D01*
X0260140Y0230134D01*
X0260282Y0229722D01*
X0260413Y0229308D01*
X0260534Y0228890D01*
X0260645Y0228470D01*
X0260746Y0228047D01*
X0260836Y0227621D01*
X0260915Y0227194D01*
X0260984Y0226765D01*
X0261043Y0226334D01*
X0261091Y0225902D01*
X0261128Y0225468D01*
X0261155Y0225034D01*
X0261171Y0224600D01*
X0261176Y0224165D01*
X0261171Y0223730D01*
X0261155Y0223296D01*
X0261128Y0222862D01*
X0261091Y0222428D01*
X0261043Y0221996D01*
X0260984Y0221565D01*
X0260915Y0221136D01*
X0260836Y0220709D01*
X0260746Y0220283D01*
X0260645Y0219860D01*
X0260534Y0219440D01*
X0260413Y0219022D01*
X0260282Y0218608D01*
X0260140Y0218196D01*
X0259989Y0217789D01*
X0259827Y0217385D01*
X0259656Y0216985D01*
X0259475Y0216590D01*
X0259284Y0216199D01*
X0259084Y0215813D01*
X0258874Y0215432D01*
X0258655Y0215057D01*
X0258427Y0214686D01*
X0258190Y0214322D01*
X0257944Y0213963D01*
X0257689Y0213611D01*
X0257426Y0213265D01*
X0257154Y0212925D01*
X0256874Y0212593D01*
X0256586Y0212267D01*
X0256290Y0211948D01*
X0255987Y0211637D01*
X0255676Y0211334D01*
X0255357Y0211038D01*
X0255031Y0210750D01*
X0254699Y0210470D01*
X0254359Y0210198D01*
X0254013Y0209935D01*
X0253661Y0209680D01*
X0253302Y0209434D01*
X0252938Y0209197D01*
X0252567Y0208969D01*
X0252192Y0208750D01*
X0251811Y0208540D01*
X0251425Y0208340D01*
X0251034Y0208149D01*
X0250639Y0207968D01*
X0250239Y0207797D01*
X0249835Y0207635D01*
X0249428Y0207484D01*
X0249016Y0207342D01*
X0248602Y0207211D01*
X0248184Y0207090D01*
X0247764Y0206979D01*
X0247341Y0206878D01*
X0246915Y0206788D01*
X0246488Y0206709D01*
X0246059Y0206640D01*
X0245628Y0206581D01*
X0245196Y0206533D01*
X0244762Y0206496D01*
X0244328Y0206469D01*
X0243894Y0206453D01*
X0243459Y0206448D01*
X0243024Y0206453D01*
X0242590Y0206469D01*
X0242156Y0206496D01*
X0241722Y0206533D01*
X0241290Y0206581D01*
X0240859Y0206640D01*
X0240430Y0206709D01*
X0240003Y0206788D01*
X0239577Y0206878D01*
X0239154Y0206979D01*
X0238734Y0207090D01*
X0238316Y0207211D01*
X0237902Y0207342D01*
X0237490Y0207484D01*
X0237083Y0207635D01*
X0236679Y0207797D01*
X0236279Y0207968D01*
X0235884Y0208149D01*
X0235493Y0208340D01*
X0235107Y0208540D01*
X0234726Y0208750D01*
X0234351Y0208969D01*
X0233980Y0209197D01*
X0233616Y0209434D01*
X0233257Y0209680D01*
X0232905Y0209935D01*
X0232559Y0210198D01*
X0232219Y0210470D01*
X0231887Y0210750D01*
X0231561Y0211038D01*
X0231242Y0211334D01*
X0230931Y0211637D01*
X0230628Y0211948D01*
X0230332Y0212267D01*
X0230044Y0212593D01*
X0229764Y0212925D01*
X0229492Y0213265D01*
X0229229Y0213611D01*
X0228974Y0213963D01*
X0228728Y0214322D01*
X0228491Y0214686D01*
X0228263Y0215057D01*
X0228044Y0215432D01*
X0227834Y0215813D01*
X0227634Y0216199D01*
X0227443Y0216590D01*
X0227262Y0216985D01*
X0227091Y0217385D01*
X0226929Y0217789D01*
X0226778Y0218196D01*
X0226636Y0218608D01*
X0226505Y0219022D01*
X0226384Y0219440D01*
X0226273Y0219860D01*
X0226172Y0220283D01*
X0226082Y0220709D01*
X0226003Y0221136D01*
X0225934Y0221565D01*
X0225875Y0221996D01*
X0225827Y0222428D01*
X0225790Y0222862D01*
X0225763Y0223296D01*
X0225747Y0223730D01*
X0225742Y0224165D01*
X0259049Y0270425D02*
X0259051Y0270566D01*
X0259057Y0270707D01*
X0259067Y0270847D01*
X0259081Y0270987D01*
X0259099Y0271127D01*
X0259120Y0271266D01*
X0259146Y0271405D01*
X0259175Y0271543D01*
X0259209Y0271679D01*
X0259246Y0271815D01*
X0259287Y0271950D01*
X0259332Y0272084D01*
X0259381Y0272216D01*
X0259433Y0272347D01*
X0259489Y0272476D01*
X0259549Y0272603D01*
X0259612Y0272729D01*
X0259678Y0272853D01*
X0259749Y0272976D01*
X0259822Y0273096D01*
X0259899Y0273214D01*
X0259979Y0273330D01*
X0260063Y0273443D01*
X0260149Y0273554D01*
X0260239Y0273663D01*
X0260332Y0273769D01*
X0260427Y0273872D01*
X0260526Y0273973D01*
X0260627Y0274071D01*
X0260731Y0274166D01*
X0260838Y0274258D01*
X0260947Y0274347D01*
X0261059Y0274432D01*
X0261173Y0274515D01*
X0261289Y0274595D01*
X0261408Y0274671D01*
X0261529Y0274743D01*
X0261651Y0274813D01*
X0261776Y0274878D01*
X0261902Y0274941D01*
X0262030Y0274999D01*
X0262160Y0275054D01*
X0262291Y0275106D01*
X0262424Y0275153D01*
X0262558Y0275197D01*
X0262693Y0275238D01*
X0262829Y0275274D01*
X0262966Y0275306D01*
X0263104Y0275335D01*
X0263242Y0275360D01*
X0263382Y0275380D01*
X0263522Y0275397D01*
X0263662Y0275410D01*
X0263803Y0275419D01*
X0263943Y0275424D01*
X0264084Y0275425D01*
X0264225Y0275422D01*
X0264366Y0275415D01*
X0264506Y0275404D01*
X0264646Y0275389D01*
X0264786Y0275370D01*
X0264925Y0275348D01*
X0265063Y0275321D01*
X0265201Y0275291D01*
X0265337Y0275256D01*
X0265473Y0275218D01*
X0265607Y0275176D01*
X0265741Y0275130D01*
X0265873Y0275081D01*
X0266003Y0275027D01*
X0266132Y0274970D01*
X0266259Y0274910D01*
X0266385Y0274846D01*
X0266508Y0274778D01*
X0266630Y0274707D01*
X0266750Y0274633D01*
X0266867Y0274555D01*
X0266982Y0274474D01*
X0267095Y0274390D01*
X0267206Y0274303D01*
X0267314Y0274212D01*
X0267419Y0274119D01*
X0267522Y0274022D01*
X0267622Y0273923D01*
X0267719Y0273821D01*
X0267813Y0273716D01*
X0267904Y0273609D01*
X0267992Y0273499D01*
X0268077Y0273387D01*
X0268159Y0273272D01*
X0268238Y0273155D01*
X0268313Y0273036D01*
X0268385Y0272915D01*
X0268453Y0272792D01*
X0268518Y0272667D01*
X0268580Y0272540D01*
X0268637Y0272411D01*
X0268692Y0272281D01*
X0268742Y0272150D01*
X0268789Y0272017D01*
X0268832Y0271883D01*
X0268871Y0271747D01*
X0268906Y0271611D01*
X0268938Y0271474D01*
X0268965Y0271336D01*
X0268989Y0271197D01*
X0269009Y0271057D01*
X0269025Y0270917D01*
X0269037Y0270777D01*
X0269045Y0270636D01*
X0269049Y0270495D01*
X0269049Y0270355D01*
X0269045Y0270214D01*
X0269037Y0270073D01*
X0269025Y0269933D01*
X0269009Y0269793D01*
X0268989Y0269653D01*
X0268965Y0269514D01*
X0268938Y0269376D01*
X0268906Y0269239D01*
X0268871Y0269103D01*
X0268832Y0268967D01*
X0268789Y0268833D01*
X0268742Y0268700D01*
X0268692Y0268569D01*
X0268637Y0268439D01*
X0268580Y0268310D01*
X0268518Y0268183D01*
X0268453Y0268058D01*
X0268385Y0267935D01*
X0268313Y0267814D01*
X0268238Y0267695D01*
X0268159Y0267578D01*
X0268077Y0267463D01*
X0267992Y0267351D01*
X0267904Y0267241D01*
X0267813Y0267134D01*
X0267719Y0267029D01*
X0267622Y0266927D01*
X0267522Y0266828D01*
X0267419Y0266731D01*
X0267314Y0266638D01*
X0267206Y0266547D01*
X0267095Y0266460D01*
X0266982Y0266376D01*
X0266867Y0266295D01*
X0266750Y0266217D01*
X0266630Y0266143D01*
X0266508Y0266072D01*
X0266385Y0266004D01*
X0266259Y0265940D01*
X0266132Y0265880D01*
X0266003Y0265823D01*
X0265873Y0265769D01*
X0265741Y0265720D01*
X0265607Y0265674D01*
X0265473Y0265632D01*
X0265337Y0265594D01*
X0265201Y0265559D01*
X0265063Y0265529D01*
X0264925Y0265502D01*
X0264786Y0265480D01*
X0264646Y0265461D01*
X0264506Y0265446D01*
X0264366Y0265435D01*
X0264225Y0265428D01*
X0264084Y0265425D01*
X0263943Y0265426D01*
X0263803Y0265431D01*
X0263662Y0265440D01*
X0263522Y0265453D01*
X0263382Y0265470D01*
X0263242Y0265490D01*
X0263104Y0265515D01*
X0262966Y0265544D01*
X0262829Y0265576D01*
X0262693Y0265612D01*
X0262558Y0265653D01*
X0262424Y0265697D01*
X0262291Y0265744D01*
X0262160Y0265796D01*
X0262030Y0265851D01*
X0261902Y0265909D01*
X0261776Y0265972D01*
X0261651Y0266037D01*
X0261529Y0266107D01*
X0261408Y0266179D01*
X0261289Y0266255D01*
X0261173Y0266335D01*
X0261059Y0266418D01*
X0260947Y0266503D01*
X0260838Y0266592D01*
X0260731Y0266684D01*
X0260627Y0266779D01*
X0260526Y0266877D01*
X0260427Y0266978D01*
X0260332Y0267081D01*
X0260239Y0267187D01*
X0260149Y0267296D01*
X0260063Y0267407D01*
X0259979Y0267520D01*
X0259899Y0267636D01*
X0259822Y0267754D01*
X0259749Y0267874D01*
X0259678Y0267997D01*
X0259612Y0268121D01*
X0259549Y0268247D01*
X0259489Y0268374D01*
X0259433Y0268503D01*
X0259381Y0268634D01*
X0259332Y0268766D01*
X0259287Y0268900D01*
X0259246Y0269035D01*
X0259209Y0269171D01*
X0259175Y0269307D01*
X0259146Y0269445D01*
X0259120Y0269584D01*
X0259099Y0269723D01*
X0259081Y0269863D01*
X0259067Y0270003D01*
X0259057Y0270143D01*
X0259051Y0270284D01*
X0259049Y0270425D01*
X0283248Y0294547D02*
X0279785Y0332012D01*
X0277683Y0423949D01*
X0279604Y0510281D01*
X0275741Y0510691D01*
X0256879Y0490157D02*
X0256881Y0490241D01*
X0256887Y0490324D01*
X0256897Y0490407D01*
X0256911Y0490490D01*
X0256928Y0490572D01*
X0256950Y0490653D01*
X0256975Y0490732D01*
X0257004Y0490811D01*
X0257037Y0490888D01*
X0257073Y0490963D01*
X0257113Y0491037D01*
X0257156Y0491109D01*
X0257203Y0491178D01*
X0257253Y0491245D01*
X0257306Y0491310D01*
X0257362Y0491372D01*
X0257420Y0491432D01*
X0257482Y0491489D01*
X0257546Y0491542D01*
X0257613Y0491593D01*
X0257682Y0491640D01*
X0257753Y0491685D01*
X0257826Y0491725D01*
X0257901Y0491762D01*
X0257978Y0491796D01*
X0258056Y0491826D01*
X0258135Y0491852D01*
X0258216Y0491875D01*
X0258298Y0491893D01*
X0258380Y0491908D01*
X0258463Y0491919D01*
X0258546Y0491926D01*
X0258630Y0491929D01*
X0258714Y0491928D01*
X0258797Y0491923D01*
X0258881Y0491914D01*
X0258963Y0491901D01*
X0259045Y0491885D01*
X0259126Y0491864D01*
X0259207Y0491840D01*
X0259285Y0491812D01*
X0259363Y0491780D01*
X0259439Y0491744D01*
X0259513Y0491705D01*
X0259585Y0491663D01*
X0259655Y0491617D01*
X0259723Y0491568D01*
X0259788Y0491516D01*
X0259851Y0491461D01*
X0259911Y0491403D01*
X0259969Y0491342D01*
X0260023Y0491278D01*
X0260075Y0491212D01*
X0260123Y0491144D01*
X0260168Y0491073D01*
X0260209Y0491000D01*
X0260248Y0490926D01*
X0260282Y0490850D01*
X0260313Y0490772D01*
X0260340Y0490693D01*
X0260364Y0490612D01*
X0260383Y0490531D01*
X0260399Y0490449D01*
X0260411Y0490366D01*
X0260419Y0490282D01*
X0260423Y0490199D01*
X0260423Y0490115D01*
X0260419Y0490032D01*
X0260411Y0489948D01*
X0260399Y0489865D01*
X0260383Y0489783D01*
X0260364Y0489702D01*
X0260340Y0489621D01*
X0260313Y0489542D01*
X0260282Y0489464D01*
X0260248Y0489388D01*
X0260209Y0489314D01*
X0260168Y0489241D01*
X0260123Y0489170D01*
X0260075Y0489102D01*
X0260023Y0489036D01*
X0259969Y0488972D01*
X0259911Y0488911D01*
X0259851Y0488853D01*
X0259788Y0488798D01*
X0259723Y0488746D01*
X0259655Y0488697D01*
X0259585Y0488651D01*
X0259513Y0488609D01*
X0259439Y0488570D01*
X0259363Y0488534D01*
X0259285Y0488502D01*
X0259207Y0488474D01*
X0259126Y0488450D01*
X0259045Y0488429D01*
X0258963Y0488413D01*
X0258881Y0488400D01*
X0258797Y0488391D01*
X0258714Y0488386D01*
X0258630Y0488385D01*
X0258546Y0488388D01*
X0258463Y0488395D01*
X0258380Y0488406D01*
X0258298Y0488421D01*
X0258216Y0488439D01*
X0258135Y0488462D01*
X0258056Y0488488D01*
X0257978Y0488518D01*
X0257901Y0488552D01*
X0257826Y0488589D01*
X0257753Y0488629D01*
X0257682Y0488674D01*
X0257613Y0488721D01*
X0257546Y0488772D01*
X0257482Y0488825D01*
X0257420Y0488882D01*
X0257362Y0488942D01*
X0257306Y0489004D01*
X0257253Y0489069D01*
X0257203Y0489136D01*
X0257156Y0489205D01*
X0257113Y0489277D01*
X0257073Y0489351D01*
X0257037Y0489426D01*
X0257004Y0489503D01*
X0256975Y0489582D01*
X0256950Y0489661D01*
X0256928Y0489742D01*
X0256911Y0489824D01*
X0256897Y0489907D01*
X0256887Y0489990D01*
X0256881Y0490073D01*
X0256879Y0490157D01*
X0256879Y0476378D02*
X0256881Y0476462D01*
X0256887Y0476545D01*
X0256897Y0476628D01*
X0256911Y0476711D01*
X0256928Y0476793D01*
X0256950Y0476874D01*
X0256975Y0476953D01*
X0257004Y0477032D01*
X0257037Y0477109D01*
X0257073Y0477184D01*
X0257113Y0477258D01*
X0257156Y0477330D01*
X0257203Y0477399D01*
X0257253Y0477466D01*
X0257306Y0477531D01*
X0257362Y0477593D01*
X0257420Y0477653D01*
X0257482Y0477710D01*
X0257546Y0477763D01*
X0257613Y0477814D01*
X0257682Y0477861D01*
X0257753Y0477906D01*
X0257826Y0477946D01*
X0257901Y0477983D01*
X0257978Y0478017D01*
X0258056Y0478047D01*
X0258135Y0478073D01*
X0258216Y0478096D01*
X0258298Y0478114D01*
X0258380Y0478129D01*
X0258463Y0478140D01*
X0258546Y0478147D01*
X0258630Y0478150D01*
X0258714Y0478149D01*
X0258797Y0478144D01*
X0258881Y0478135D01*
X0258963Y0478122D01*
X0259045Y0478106D01*
X0259126Y0478085D01*
X0259207Y0478061D01*
X0259285Y0478033D01*
X0259363Y0478001D01*
X0259439Y0477965D01*
X0259513Y0477926D01*
X0259585Y0477884D01*
X0259655Y0477838D01*
X0259723Y0477789D01*
X0259788Y0477737D01*
X0259851Y0477682D01*
X0259911Y0477624D01*
X0259969Y0477563D01*
X0260023Y0477499D01*
X0260075Y0477433D01*
X0260123Y0477365D01*
X0260168Y0477294D01*
X0260209Y0477221D01*
X0260248Y0477147D01*
X0260282Y0477071D01*
X0260313Y0476993D01*
X0260340Y0476914D01*
X0260364Y0476833D01*
X0260383Y0476752D01*
X0260399Y0476670D01*
X0260411Y0476587D01*
X0260419Y0476503D01*
X0260423Y0476420D01*
X0260423Y0476336D01*
X0260419Y0476253D01*
X0260411Y0476169D01*
X0260399Y0476086D01*
X0260383Y0476004D01*
X0260364Y0475923D01*
X0260340Y0475842D01*
X0260313Y0475763D01*
X0260282Y0475685D01*
X0260248Y0475609D01*
X0260209Y0475535D01*
X0260168Y0475462D01*
X0260123Y0475391D01*
X0260075Y0475323D01*
X0260023Y0475257D01*
X0259969Y0475193D01*
X0259911Y0475132D01*
X0259851Y0475074D01*
X0259788Y0475019D01*
X0259723Y0474967D01*
X0259655Y0474918D01*
X0259585Y0474872D01*
X0259513Y0474830D01*
X0259439Y0474791D01*
X0259363Y0474755D01*
X0259285Y0474723D01*
X0259207Y0474695D01*
X0259126Y0474671D01*
X0259045Y0474650D01*
X0258963Y0474634D01*
X0258881Y0474621D01*
X0258797Y0474612D01*
X0258714Y0474607D01*
X0258630Y0474606D01*
X0258546Y0474609D01*
X0258463Y0474616D01*
X0258380Y0474627D01*
X0258298Y0474642D01*
X0258216Y0474660D01*
X0258135Y0474683D01*
X0258056Y0474709D01*
X0257978Y0474739D01*
X0257901Y0474773D01*
X0257826Y0474810D01*
X0257753Y0474850D01*
X0257682Y0474895D01*
X0257613Y0474942D01*
X0257546Y0474993D01*
X0257482Y0475046D01*
X0257420Y0475103D01*
X0257362Y0475163D01*
X0257306Y0475225D01*
X0257253Y0475290D01*
X0257203Y0475357D01*
X0257156Y0475426D01*
X0257113Y0475498D01*
X0257073Y0475572D01*
X0257037Y0475647D01*
X0257004Y0475724D01*
X0256975Y0475803D01*
X0256950Y0475882D01*
X0256928Y0475963D01*
X0256911Y0476045D01*
X0256897Y0476128D01*
X0256887Y0476211D01*
X0256881Y0476294D01*
X0256879Y0476378D01*
X0241927Y0415386D02*
X0241929Y0415527D01*
X0241935Y0415668D01*
X0241945Y0415808D01*
X0241959Y0415948D01*
X0241977Y0416088D01*
X0241998Y0416227D01*
X0242024Y0416366D01*
X0242053Y0416504D01*
X0242087Y0416640D01*
X0242124Y0416776D01*
X0242165Y0416911D01*
X0242210Y0417045D01*
X0242259Y0417177D01*
X0242311Y0417308D01*
X0242367Y0417437D01*
X0242427Y0417564D01*
X0242490Y0417690D01*
X0242556Y0417814D01*
X0242627Y0417937D01*
X0242700Y0418057D01*
X0242777Y0418175D01*
X0242857Y0418291D01*
X0242941Y0418404D01*
X0243027Y0418515D01*
X0243117Y0418624D01*
X0243210Y0418730D01*
X0243305Y0418833D01*
X0243404Y0418934D01*
X0243505Y0419032D01*
X0243609Y0419127D01*
X0243716Y0419219D01*
X0243825Y0419308D01*
X0243937Y0419393D01*
X0244051Y0419476D01*
X0244167Y0419556D01*
X0244286Y0419632D01*
X0244407Y0419704D01*
X0244529Y0419774D01*
X0244654Y0419839D01*
X0244780Y0419902D01*
X0244908Y0419960D01*
X0245038Y0420015D01*
X0245169Y0420067D01*
X0245302Y0420114D01*
X0245436Y0420158D01*
X0245571Y0420199D01*
X0245707Y0420235D01*
X0245844Y0420267D01*
X0245982Y0420296D01*
X0246120Y0420321D01*
X0246260Y0420341D01*
X0246400Y0420358D01*
X0246540Y0420371D01*
X0246681Y0420380D01*
X0246821Y0420385D01*
X0246962Y0420386D01*
X0247103Y0420383D01*
X0247244Y0420376D01*
X0247384Y0420365D01*
X0247524Y0420350D01*
X0247664Y0420331D01*
X0247803Y0420309D01*
X0247941Y0420282D01*
X0248079Y0420252D01*
X0248215Y0420217D01*
X0248351Y0420179D01*
X0248485Y0420137D01*
X0248619Y0420091D01*
X0248751Y0420042D01*
X0248881Y0419988D01*
X0249010Y0419931D01*
X0249137Y0419871D01*
X0249263Y0419807D01*
X0249386Y0419739D01*
X0249508Y0419668D01*
X0249628Y0419594D01*
X0249745Y0419516D01*
X0249860Y0419435D01*
X0249973Y0419351D01*
X0250084Y0419264D01*
X0250192Y0419173D01*
X0250297Y0419080D01*
X0250400Y0418983D01*
X0250500Y0418884D01*
X0250597Y0418782D01*
X0250691Y0418677D01*
X0250782Y0418570D01*
X0250870Y0418460D01*
X0250955Y0418348D01*
X0251037Y0418233D01*
X0251116Y0418116D01*
X0251191Y0417997D01*
X0251263Y0417876D01*
X0251331Y0417753D01*
X0251396Y0417628D01*
X0251458Y0417501D01*
X0251515Y0417372D01*
X0251570Y0417242D01*
X0251620Y0417111D01*
X0251667Y0416978D01*
X0251710Y0416844D01*
X0251749Y0416708D01*
X0251784Y0416572D01*
X0251816Y0416435D01*
X0251843Y0416297D01*
X0251867Y0416158D01*
X0251887Y0416018D01*
X0251903Y0415878D01*
X0251915Y0415738D01*
X0251923Y0415597D01*
X0251927Y0415456D01*
X0251927Y0415316D01*
X0251923Y0415175D01*
X0251915Y0415034D01*
X0251903Y0414894D01*
X0251887Y0414754D01*
X0251867Y0414614D01*
X0251843Y0414475D01*
X0251816Y0414337D01*
X0251784Y0414200D01*
X0251749Y0414064D01*
X0251710Y0413928D01*
X0251667Y0413794D01*
X0251620Y0413661D01*
X0251570Y0413530D01*
X0251515Y0413400D01*
X0251458Y0413271D01*
X0251396Y0413144D01*
X0251331Y0413019D01*
X0251263Y0412896D01*
X0251191Y0412775D01*
X0251116Y0412656D01*
X0251037Y0412539D01*
X0250955Y0412424D01*
X0250870Y0412312D01*
X0250782Y0412202D01*
X0250691Y0412095D01*
X0250597Y0411990D01*
X0250500Y0411888D01*
X0250400Y0411789D01*
X0250297Y0411692D01*
X0250192Y0411599D01*
X0250084Y0411508D01*
X0249973Y0411421D01*
X0249860Y0411337D01*
X0249745Y0411256D01*
X0249628Y0411178D01*
X0249508Y0411104D01*
X0249386Y0411033D01*
X0249263Y0410965D01*
X0249137Y0410901D01*
X0249010Y0410841D01*
X0248881Y0410784D01*
X0248751Y0410730D01*
X0248619Y0410681D01*
X0248485Y0410635D01*
X0248351Y0410593D01*
X0248215Y0410555D01*
X0248079Y0410520D01*
X0247941Y0410490D01*
X0247803Y0410463D01*
X0247664Y0410441D01*
X0247524Y0410422D01*
X0247384Y0410407D01*
X0247244Y0410396D01*
X0247103Y0410389D01*
X0246962Y0410386D01*
X0246821Y0410387D01*
X0246681Y0410392D01*
X0246540Y0410401D01*
X0246400Y0410414D01*
X0246260Y0410431D01*
X0246120Y0410451D01*
X0245982Y0410476D01*
X0245844Y0410505D01*
X0245707Y0410537D01*
X0245571Y0410573D01*
X0245436Y0410614D01*
X0245302Y0410658D01*
X0245169Y0410705D01*
X0245038Y0410757D01*
X0244908Y0410812D01*
X0244780Y0410870D01*
X0244654Y0410933D01*
X0244529Y0410998D01*
X0244407Y0411068D01*
X0244286Y0411140D01*
X0244167Y0411216D01*
X0244051Y0411296D01*
X0243937Y0411379D01*
X0243825Y0411464D01*
X0243716Y0411553D01*
X0243609Y0411645D01*
X0243505Y0411740D01*
X0243404Y0411838D01*
X0243305Y0411939D01*
X0243210Y0412042D01*
X0243117Y0412148D01*
X0243027Y0412257D01*
X0242941Y0412368D01*
X0242857Y0412481D01*
X0242777Y0412597D01*
X0242700Y0412715D01*
X0242627Y0412835D01*
X0242556Y0412958D01*
X0242490Y0413082D01*
X0242427Y0413208D01*
X0242367Y0413335D01*
X0242311Y0413464D01*
X0242259Y0413595D01*
X0242210Y0413727D01*
X0242165Y0413861D01*
X0242124Y0413996D01*
X0242087Y0414132D01*
X0242053Y0414268D01*
X0242024Y0414406D01*
X0241998Y0414545D01*
X0241977Y0414684D01*
X0241959Y0414824D01*
X0241945Y0414964D01*
X0241935Y0415104D01*
X0241929Y0415245D01*
X0241927Y0415386D01*
X0208620Y0369126D02*
X0208625Y0369561D01*
X0208641Y0369995D01*
X0208668Y0370429D01*
X0208705Y0370863D01*
X0208753Y0371295D01*
X0208812Y0371726D01*
X0208881Y0372155D01*
X0208960Y0372582D01*
X0209050Y0373008D01*
X0209151Y0373431D01*
X0209262Y0373851D01*
X0209383Y0374269D01*
X0209514Y0374683D01*
X0209656Y0375095D01*
X0209807Y0375502D01*
X0209969Y0375906D01*
X0210140Y0376306D01*
X0210321Y0376701D01*
X0210512Y0377092D01*
X0210712Y0377478D01*
X0210922Y0377859D01*
X0211141Y0378234D01*
X0211369Y0378605D01*
X0211606Y0378969D01*
X0211852Y0379328D01*
X0212107Y0379680D01*
X0212370Y0380026D01*
X0212642Y0380366D01*
X0212922Y0380698D01*
X0213210Y0381024D01*
X0213506Y0381343D01*
X0213809Y0381654D01*
X0214120Y0381957D01*
X0214439Y0382253D01*
X0214765Y0382541D01*
X0215097Y0382821D01*
X0215437Y0383093D01*
X0215783Y0383356D01*
X0216135Y0383611D01*
X0216494Y0383857D01*
X0216858Y0384094D01*
X0217229Y0384322D01*
X0217604Y0384541D01*
X0217985Y0384751D01*
X0218371Y0384951D01*
X0218762Y0385142D01*
X0219157Y0385323D01*
X0219557Y0385494D01*
X0219961Y0385656D01*
X0220368Y0385807D01*
X0220780Y0385949D01*
X0221194Y0386080D01*
X0221612Y0386201D01*
X0222032Y0386312D01*
X0222455Y0386413D01*
X0222881Y0386503D01*
X0223308Y0386582D01*
X0223737Y0386651D01*
X0224168Y0386710D01*
X0224600Y0386758D01*
X0225034Y0386795D01*
X0225468Y0386822D01*
X0225902Y0386838D01*
X0226337Y0386843D01*
X0226772Y0386838D01*
X0227206Y0386822D01*
X0227640Y0386795D01*
X0228074Y0386758D01*
X0228506Y0386710D01*
X0228937Y0386651D01*
X0229366Y0386582D01*
X0229793Y0386503D01*
X0230219Y0386413D01*
X0230642Y0386312D01*
X0231062Y0386201D01*
X0231480Y0386080D01*
X0231894Y0385949D01*
X0232306Y0385807D01*
X0232713Y0385656D01*
X0233117Y0385494D01*
X0233517Y0385323D01*
X0233912Y0385142D01*
X0234303Y0384951D01*
X0234689Y0384751D01*
X0235070Y0384541D01*
X0235445Y0384322D01*
X0235816Y0384094D01*
X0236180Y0383857D01*
X0236539Y0383611D01*
X0236891Y0383356D01*
X0237237Y0383093D01*
X0237577Y0382821D01*
X0237909Y0382541D01*
X0238235Y0382253D01*
X0238554Y0381957D01*
X0238865Y0381654D01*
X0239168Y0381343D01*
X0239464Y0381024D01*
X0239752Y0380698D01*
X0240032Y0380366D01*
X0240304Y0380026D01*
X0240567Y0379680D01*
X0240822Y0379328D01*
X0241068Y0378969D01*
X0241305Y0378605D01*
X0241533Y0378234D01*
X0241752Y0377859D01*
X0241962Y0377478D01*
X0242162Y0377092D01*
X0242353Y0376701D01*
X0242534Y0376306D01*
X0242705Y0375906D01*
X0242867Y0375502D01*
X0243018Y0375095D01*
X0243160Y0374683D01*
X0243291Y0374269D01*
X0243412Y0373851D01*
X0243523Y0373431D01*
X0243624Y0373008D01*
X0243714Y0372582D01*
X0243793Y0372155D01*
X0243862Y0371726D01*
X0243921Y0371295D01*
X0243969Y0370863D01*
X0244006Y0370429D01*
X0244033Y0369995D01*
X0244049Y0369561D01*
X0244054Y0369126D01*
X0244049Y0368691D01*
X0244033Y0368257D01*
X0244006Y0367823D01*
X0243969Y0367389D01*
X0243921Y0366957D01*
X0243862Y0366526D01*
X0243793Y0366097D01*
X0243714Y0365670D01*
X0243624Y0365244D01*
X0243523Y0364821D01*
X0243412Y0364401D01*
X0243291Y0363983D01*
X0243160Y0363569D01*
X0243018Y0363157D01*
X0242867Y0362750D01*
X0242705Y0362346D01*
X0242534Y0361946D01*
X0242353Y0361551D01*
X0242162Y0361160D01*
X0241962Y0360774D01*
X0241752Y0360393D01*
X0241533Y0360018D01*
X0241305Y0359647D01*
X0241068Y0359283D01*
X0240822Y0358924D01*
X0240567Y0358572D01*
X0240304Y0358226D01*
X0240032Y0357886D01*
X0239752Y0357554D01*
X0239464Y0357228D01*
X0239168Y0356909D01*
X0238865Y0356598D01*
X0238554Y0356295D01*
X0238235Y0355999D01*
X0237909Y0355711D01*
X0237577Y0355431D01*
X0237237Y0355159D01*
X0236891Y0354896D01*
X0236539Y0354641D01*
X0236180Y0354395D01*
X0235816Y0354158D01*
X0235445Y0353930D01*
X0235070Y0353711D01*
X0234689Y0353501D01*
X0234303Y0353301D01*
X0233912Y0353110D01*
X0233517Y0352929D01*
X0233117Y0352758D01*
X0232713Y0352596D01*
X0232306Y0352445D01*
X0231894Y0352303D01*
X0231480Y0352172D01*
X0231062Y0352051D01*
X0230642Y0351940D01*
X0230219Y0351839D01*
X0229793Y0351749D01*
X0229366Y0351670D01*
X0228937Y0351601D01*
X0228506Y0351542D01*
X0228074Y0351494D01*
X0227640Y0351457D01*
X0227206Y0351430D01*
X0226772Y0351414D01*
X0226337Y0351409D01*
X0225902Y0351414D01*
X0225468Y0351430D01*
X0225034Y0351457D01*
X0224600Y0351494D01*
X0224168Y0351542D01*
X0223737Y0351601D01*
X0223308Y0351670D01*
X0222881Y0351749D01*
X0222455Y0351839D01*
X0222032Y0351940D01*
X0221612Y0352051D01*
X0221194Y0352172D01*
X0220780Y0352303D01*
X0220368Y0352445D01*
X0219961Y0352596D01*
X0219557Y0352758D01*
X0219157Y0352929D01*
X0218762Y0353110D01*
X0218371Y0353301D01*
X0217985Y0353501D01*
X0217604Y0353711D01*
X0217229Y0353930D01*
X0216858Y0354158D01*
X0216494Y0354395D01*
X0216135Y0354641D01*
X0215783Y0354896D01*
X0215437Y0355159D01*
X0215097Y0355431D01*
X0214765Y0355711D01*
X0214439Y0355999D01*
X0214120Y0356295D01*
X0213809Y0356598D01*
X0213506Y0356909D01*
X0213210Y0357228D01*
X0212922Y0357554D01*
X0212642Y0357886D01*
X0212370Y0358226D01*
X0212107Y0358572D01*
X0211852Y0358924D01*
X0211606Y0359283D01*
X0211369Y0359647D01*
X0211141Y0360018D01*
X0210922Y0360393D01*
X0210712Y0360774D01*
X0210512Y0361160D01*
X0210321Y0361551D01*
X0210140Y0361946D01*
X0209969Y0362346D01*
X0209807Y0362750D01*
X0209656Y0363157D01*
X0209514Y0363569D01*
X0209383Y0363983D01*
X0209262Y0364401D01*
X0209151Y0364821D01*
X0209050Y0365244D01*
X0208960Y0365670D01*
X0208881Y0366097D01*
X0208812Y0366526D01*
X0208753Y0366957D01*
X0208705Y0367389D01*
X0208668Y0367823D01*
X0208641Y0368257D01*
X0208625Y0368691D01*
X0208620Y0369126D01*
X0122986Y0413654D02*
X0122991Y0414089D01*
X0123007Y0414523D01*
X0123034Y0414957D01*
X0123071Y0415391D01*
X0123119Y0415823D01*
X0123178Y0416254D01*
X0123247Y0416683D01*
X0123326Y0417110D01*
X0123416Y0417536D01*
X0123517Y0417959D01*
X0123628Y0418379D01*
X0123749Y0418797D01*
X0123880Y0419211D01*
X0124022Y0419623D01*
X0124173Y0420030D01*
X0124335Y0420434D01*
X0124506Y0420834D01*
X0124687Y0421229D01*
X0124878Y0421620D01*
X0125078Y0422006D01*
X0125288Y0422387D01*
X0125507Y0422762D01*
X0125735Y0423133D01*
X0125972Y0423497D01*
X0126218Y0423856D01*
X0126473Y0424208D01*
X0126736Y0424554D01*
X0127008Y0424894D01*
X0127288Y0425226D01*
X0127576Y0425552D01*
X0127872Y0425871D01*
X0128175Y0426182D01*
X0128486Y0426485D01*
X0128805Y0426781D01*
X0129131Y0427069D01*
X0129463Y0427349D01*
X0129803Y0427621D01*
X0130149Y0427884D01*
X0130501Y0428139D01*
X0130860Y0428385D01*
X0131224Y0428622D01*
X0131595Y0428850D01*
X0131970Y0429069D01*
X0132351Y0429279D01*
X0132737Y0429479D01*
X0133128Y0429670D01*
X0133523Y0429851D01*
X0133923Y0430022D01*
X0134327Y0430184D01*
X0134734Y0430335D01*
X0135146Y0430477D01*
X0135560Y0430608D01*
X0135978Y0430729D01*
X0136398Y0430840D01*
X0136821Y0430941D01*
X0137247Y0431031D01*
X0137674Y0431110D01*
X0138103Y0431179D01*
X0138534Y0431238D01*
X0138966Y0431286D01*
X0139400Y0431323D01*
X0139834Y0431350D01*
X0140268Y0431366D01*
X0140703Y0431371D01*
X0141138Y0431366D01*
X0141572Y0431350D01*
X0142006Y0431323D01*
X0142440Y0431286D01*
X0142872Y0431238D01*
X0143303Y0431179D01*
X0143732Y0431110D01*
X0144159Y0431031D01*
X0144585Y0430941D01*
X0145008Y0430840D01*
X0145428Y0430729D01*
X0145846Y0430608D01*
X0146260Y0430477D01*
X0146672Y0430335D01*
X0147079Y0430184D01*
X0147483Y0430022D01*
X0147883Y0429851D01*
X0148278Y0429670D01*
X0148669Y0429479D01*
X0149055Y0429279D01*
X0149436Y0429069D01*
X0149811Y0428850D01*
X0150182Y0428622D01*
X0150546Y0428385D01*
X0150905Y0428139D01*
X0151257Y0427884D01*
X0151603Y0427621D01*
X0151943Y0427349D01*
X0152275Y0427069D01*
X0152601Y0426781D01*
X0152920Y0426485D01*
X0153231Y0426182D01*
X0153534Y0425871D01*
X0153830Y0425552D01*
X0154118Y0425226D01*
X0154398Y0424894D01*
X0154670Y0424554D01*
X0154933Y0424208D01*
X0155188Y0423856D01*
X0155434Y0423497D01*
X0155671Y0423133D01*
X0155899Y0422762D01*
X0156118Y0422387D01*
X0156328Y0422006D01*
X0156528Y0421620D01*
X0156719Y0421229D01*
X0156900Y0420834D01*
X0157071Y0420434D01*
X0157233Y0420030D01*
X0157384Y0419623D01*
X0157526Y0419211D01*
X0157657Y0418797D01*
X0157778Y0418379D01*
X0157889Y0417959D01*
X0157990Y0417536D01*
X0158080Y0417110D01*
X0158159Y0416683D01*
X0158228Y0416254D01*
X0158287Y0415823D01*
X0158335Y0415391D01*
X0158372Y0414957D01*
X0158399Y0414523D01*
X0158415Y0414089D01*
X0158420Y0413654D01*
X0158415Y0413219D01*
X0158399Y0412785D01*
X0158372Y0412351D01*
X0158335Y0411917D01*
X0158287Y0411485D01*
X0158228Y0411054D01*
X0158159Y0410625D01*
X0158080Y0410198D01*
X0157990Y0409772D01*
X0157889Y0409349D01*
X0157778Y0408929D01*
X0157657Y0408511D01*
X0157526Y0408097D01*
X0157384Y0407685D01*
X0157233Y0407278D01*
X0157071Y0406874D01*
X0156900Y0406474D01*
X0156719Y0406079D01*
X0156528Y0405688D01*
X0156328Y0405302D01*
X0156118Y0404921D01*
X0155899Y0404546D01*
X0155671Y0404175D01*
X0155434Y0403811D01*
X0155188Y0403452D01*
X0154933Y0403100D01*
X0154670Y0402754D01*
X0154398Y0402414D01*
X0154118Y0402082D01*
X0153830Y0401756D01*
X0153534Y0401437D01*
X0153231Y0401126D01*
X0152920Y0400823D01*
X0152601Y0400527D01*
X0152275Y0400239D01*
X0151943Y0399959D01*
X0151603Y0399687D01*
X0151257Y0399424D01*
X0150905Y0399169D01*
X0150546Y0398923D01*
X0150182Y0398686D01*
X0149811Y0398458D01*
X0149436Y0398239D01*
X0149055Y0398029D01*
X0148669Y0397829D01*
X0148278Y0397638D01*
X0147883Y0397457D01*
X0147483Y0397286D01*
X0147079Y0397124D01*
X0146672Y0396973D01*
X0146260Y0396831D01*
X0145846Y0396700D01*
X0145428Y0396579D01*
X0145008Y0396468D01*
X0144585Y0396367D01*
X0144159Y0396277D01*
X0143732Y0396198D01*
X0143303Y0396129D01*
X0142872Y0396070D01*
X0142440Y0396022D01*
X0142006Y0395985D01*
X0141572Y0395958D01*
X0141138Y0395942D01*
X0140703Y0395937D01*
X0140268Y0395942D01*
X0139834Y0395958D01*
X0139400Y0395985D01*
X0138966Y0396022D01*
X0138534Y0396070D01*
X0138103Y0396129D01*
X0137674Y0396198D01*
X0137247Y0396277D01*
X0136821Y0396367D01*
X0136398Y0396468D01*
X0135978Y0396579D01*
X0135560Y0396700D01*
X0135146Y0396831D01*
X0134734Y0396973D01*
X0134327Y0397124D01*
X0133923Y0397286D01*
X0133523Y0397457D01*
X0133128Y0397638D01*
X0132737Y0397829D01*
X0132351Y0398029D01*
X0131970Y0398239D01*
X0131595Y0398458D01*
X0131224Y0398686D01*
X0130860Y0398923D01*
X0130501Y0399169D01*
X0130149Y0399424D01*
X0129803Y0399687D01*
X0129463Y0399959D01*
X0129131Y0400239D01*
X0128805Y0400527D01*
X0128486Y0400823D01*
X0128175Y0401126D01*
X0127872Y0401437D01*
X0127576Y0401756D01*
X0127288Y0402082D01*
X0127008Y0402414D01*
X0126736Y0402754D01*
X0126473Y0403100D01*
X0126218Y0403452D01*
X0125972Y0403811D01*
X0125735Y0404175D01*
X0125507Y0404546D01*
X0125288Y0404921D01*
X0125078Y0405302D01*
X0124878Y0405688D01*
X0124687Y0406079D01*
X0124506Y0406474D01*
X0124335Y0406874D01*
X0124173Y0407278D01*
X0124022Y0407685D01*
X0123880Y0408097D01*
X0123749Y0408511D01*
X0123628Y0408929D01*
X0123517Y0409349D01*
X0123416Y0409772D01*
X0123326Y0410198D01*
X0123247Y0410625D01*
X0123178Y0411054D01*
X0123119Y0411485D01*
X0123071Y0411917D01*
X0123034Y0412351D01*
X0123007Y0412785D01*
X0122991Y0413219D01*
X0122986Y0413654D01*
X0115112Y0459913D02*
X0115114Y0460054D01*
X0115120Y0460195D01*
X0115130Y0460335D01*
X0115144Y0460475D01*
X0115162Y0460615D01*
X0115183Y0460754D01*
X0115209Y0460893D01*
X0115238Y0461031D01*
X0115272Y0461167D01*
X0115309Y0461303D01*
X0115350Y0461438D01*
X0115395Y0461572D01*
X0115444Y0461704D01*
X0115496Y0461835D01*
X0115552Y0461964D01*
X0115612Y0462091D01*
X0115675Y0462217D01*
X0115741Y0462341D01*
X0115812Y0462464D01*
X0115885Y0462584D01*
X0115962Y0462702D01*
X0116042Y0462818D01*
X0116126Y0462931D01*
X0116212Y0463042D01*
X0116302Y0463151D01*
X0116395Y0463257D01*
X0116490Y0463360D01*
X0116589Y0463461D01*
X0116690Y0463559D01*
X0116794Y0463654D01*
X0116901Y0463746D01*
X0117010Y0463835D01*
X0117122Y0463920D01*
X0117236Y0464003D01*
X0117352Y0464083D01*
X0117471Y0464159D01*
X0117592Y0464231D01*
X0117714Y0464301D01*
X0117839Y0464366D01*
X0117965Y0464429D01*
X0118093Y0464487D01*
X0118223Y0464542D01*
X0118354Y0464594D01*
X0118487Y0464641D01*
X0118621Y0464685D01*
X0118756Y0464726D01*
X0118892Y0464762D01*
X0119029Y0464794D01*
X0119167Y0464823D01*
X0119305Y0464848D01*
X0119445Y0464868D01*
X0119585Y0464885D01*
X0119725Y0464898D01*
X0119866Y0464907D01*
X0120006Y0464912D01*
X0120147Y0464913D01*
X0120288Y0464910D01*
X0120429Y0464903D01*
X0120569Y0464892D01*
X0120709Y0464877D01*
X0120849Y0464858D01*
X0120988Y0464836D01*
X0121126Y0464809D01*
X0121264Y0464779D01*
X0121400Y0464744D01*
X0121536Y0464706D01*
X0121670Y0464664D01*
X0121804Y0464618D01*
X0121936Y0464569D01*
X0122066Y0464515D01*
X0122195Y0464458D01*
X0122322Y0464398D01*
X0122448Y0464334D01*
X0122571Y0464266D01*
X0122693Y0464195D01*
X0122813Y0464121D01*
X0122930Y0464043D01*
X0123045Y0463962D01*
X0123158Y0463878D01*
X0123269Y0463791D01*
X0123377Y0463700D01*
X0123482Y0463607D01*
X0123585Y0463510D01*
X0123685Y0463411D01*
X0123782Y0463309D01*
X0123876Y0463204D01*
X0123967Y0463097D01*
X0124055Y0462987D01*
X0124140Y0462875D01*
X0124222Y0462760D01*
X0124301Y0462643D01*
X0124376Y0462524D01*
X0124448Y0462403D01*
X0124516Y0462280D01*
X0124581Y0462155D01*
X0124643Y0462028D01*
X0124700Y0461899D01*
X0124755Y0461769D01*
X0124805Y0461638D01*
X0124852Y0461505D01*
X0124895Y0461371D01*
X0124934Y0461235D01*
X0124969Y0461099D01*
X0125001Y0460962D01*
X0125028Y0460824D01*
X0125052Y0460685D01*
X0125072Y0460545D01*
X0125088Y0460405D01*
X0125100Y0460265D01*
X0125108Y0460124D01*
X0125112Y0459983D01*
X0125112Y0459843D01*
X0125108Y0459702D01*
X0125100Y0459561D01*
X0125088Y0459421D01*
X0125072Y0459281D01*
X0125052Y0459141D01*
X0125028Y0459002D01*
X0125001Y0458864D01*
X0124969Y0458727D01*
X0124934Y0458591D01*
X0124895Y0458455D01*
X0124852Y0458321D01*
X0124805Y0458188D01*
X0124755Y0458057D01*
X0124700Y0457927D01*
X0124643Y0457798D01*
X0124581Y0457671D01*
X0124516Y0457546D01*
X0124448Y0457423D01*
X0124376Y0457302D01*
X0124301Y0457183D01*
X0124222Y0457066D01*
X0124140Y0456951D01*
X0124055Y0456839D01*
X0123967Y0456729D01*
X0123876Y0456622D01*
X0123782Y0456517D01*
X0123685Y0456415D01*
X0123585Y0456316D01*
X0123482Y0456219D01*
X0123377Y0456126D01*
X0123269Y0456035D01*
X0123158Y0455948D01*
X0123045Y0455864D01*
X0122930Y0455783D01*
X0122813Y0455705D01*
X0122693Y0455631D01*
X0122571Y0455560D01*
X0122448Y0455492D01*
X0122322Y0455428D01*
X0122195Y0455368D01*
X0122066Y0455311D01*
X0121936Y0455257D01*
X0121804Y0455208D01*
X0121670Y0455162D01*
X0121536Y0455120D01*
X0121400Y0455082D01*
X0121264Y0455047D01*
X0121126Y0455017D01*
X0120988Y0454990D01*
X0120849Y0454968D01*
X0120709Y0454949D01*
X0120569Y0454934D01*
X0120429Y0454923D01*
X0120288Y0454916D01*
X0120147Y0454913D01*
X0120006Y0454914D01*
X0119866Y0454919D01*
X0119725Y0454928D01*
X0119585Y0454941D01*
X0119445Y0454958D01*
X0119305Y0454978D01*
X0119167Y0455003D01*
X0119029Y0455032D01*
X0118892Y0455064D01*
X0118756Y0455100D01*
X0118621Y0455141D01*
X0118487Y0455185D01*
X0118354Y0455232D01*
X0118223Y0455284D01*
X0118093Y0455339D01*
X0117965Y0455397D01*
X0117839Y0455460D01*
X0117714Y0455525D01*
X0117592Y0455595D01*
X0117471Y0455667D01*
X0117352Y0455743D01*
X0117236Y0455823D01*
X0117122Y0455906D01*
X0117010Y0455991D01*
X0116901Y0456080D01*
X0116794Y0456172D01*
X0116690Y0456267D01*
X0116589Y0456365D01*
X0116490Y0456466D01*
X0116395Y0456569D01*
X0116302Y0456675D01*
X0116212Y0456784D01*
X0116126Y0456895D01*
X0116042Y0457008D01*
X0115962Y0457124D01*
X0115885Y0457242D01*
X0115812Y0457362D01*
X0115741Y0457485D01*
X0115675Y0457609D01*
X0115612Y0457735D01*
X0115552Y0457862D01*
X0115496Y0457991D01*
X0115444Y0458122D01*
X0115395Y0458254D01*
X0115350Y0458388D01*
X0115309Y0458523D01*
X0115272Y0458659D01*
X0115238Y0458795D01*
X0115209Y0458933D01*
X0115183Y0459072D01*
X0115162Y0459211D01*
X0115144Y0459351D01*
X0115130Y0459491D01*
X0115120Y0459631D01*
X0115114Y0459772D01*
X0115112Y0459913D01*
X0168824Y0564020D02*
X0167838Y0565673D01*
X0166811Y0567303D01*
X0165746Y0568907D01*
X0164641Y0570484D01*
X0163498Y0572034D01*
X0162318Y0573555D01*
X0161100Y0575047D01*
X0159847Y0576509D01*
X0158559Y0577940D01*
X0157235Y0579339D01*
X0155878Y0580705D01*
X0154488Y0582038D01*
X0153066Y0583336D01*
X0151613Y0584600D01*
X0150129Y0585827D01*
X0148616Y0587018D01*
X0147074Y0588171D01*
X0145504Y0589287D01*
X0143908Y0590363D01*
X0142286Y0591401D01*
X0140639Y0592398D01*
X0138968Y0593355D01*
X0137274Y0594271D01*
X0135558Y0595145D01*
X0133821Y0595977D01*
X0132065Y0596767D01*
X0130290Y0597513D01*
X0128497Y0598216D01*
X0126688Y0598874D01*
X0124863Y0599489D01*
X0123023Y0600058D01*
X0121170Y0600583D01*
X0119305Y0601062D01*
X0117429Y0601495D01*
X0115543Y0601882D01*
X0113648Y0602224D01*
X0111745Y0602518D01*
X0109835Y0602767D01*
X0107920Y0602968D01*
X0106001Y0603123D01*
X0104078Y0603231D01*
X0102153Y0603291D01*
X0100228Y0603305D01*
X0098302Y0603272D01*
X0096379Y0603191D01*
X0091250Y0603132D01*
X0083372Y0347051D01*
X0069041Y0230453D01*
X0068956Y0230217D01*
X0084022Y0233016D02*
X0084024Y0233157D01*
X0084030Y0233298D01*
X0084040Y0233438D01*
X0084054Y0233578D01*
X0084072Y0233718D01*
X0084093Y0233857D01*
X0084119Y0233996D01*
X0084148Y0234134D01*
X0084182Y0234270D01*
X0084219Y0234406D01*
X0084260Y0234541D01*
X0084305Y0234675D01*
X0084354Y0234807D01*
X0084406Y0234938D01*
X0084462Y0235067D01*
X0084522Y0235194D01*
X0084585Y0235320D01*
X0084651Y0235444D01*
X0084722Y0235567D01*
X0084795Y0235687D01*
X0084872Y0235805D01*
X0084952Y0235921D01*
X0085036Y0236034D01*
X0085122Y0236145D01*
X0085212Y0236254D01*
X0085305Y0236360D01*
X0085400Y0236463D01*
X0085499Y0236564D01*
X0085600Y0236662D01*
X0085704Y0236757D01*
X0085811Y0236849D01*
X0085920Y0236938D01*
X0086032Y0237023D01*
X0086146Y0237106D01*
X0086262Y0237186D01*
X0086381Y0237262D01*
X0086502Y0237334D01*
X0086624Y0237404D01*
X0086749Y0237469D01*
X0086875Y0237532D01*
X0087003Y0237590D01*
X0087133Y0237645D01*
X0087264Y0237697D01*
X0087397Y0237744D01*
X0087531Y0237788D01*
X0087666Y0237829D01*
X0087802Y0237865D01*
X0087939Y0237897D01*
X0088077Y0237926D01*
X0088215Y0237951D01*
X0088355Y0237971D01*
X0088495Y0237988D01*
X0088635Y0238001D01*
X0088776Y0238010D01*
X0088916Y0238015D01*
X0089057Y0238016D01*
X0089198Y0238013D01*
X0089339Y0238006D01*
X0089479Y0237995D01*
X0089619Y0237980D01*
X0089759Y0237961D01*
X0089898Y0237939D01*
X0090036Y0237912D01*
X0090174Y0237882D01*
X0090310Y0237847D01*
X0090446Y0237809D01*
X0090580Y0237767D01*
X0090714Y0237721D01*
X0090846Y0237672D01*
X0090976Y0237618D01*
X0091105Y0237561D01*
X0091232Y0237501D01*
X0091358Y0237437D01*
X0091481Y0237369D01*
X0091603Y0237298D01*
X0091723Y0237224D01*
X0091840Y0237146D01*
X0091955Y0237065D01*
X0092068Y0236981D01*
X0092179Y0236894D01*
X0092287Y0236803D01*
X0092392Y0236710D01*
X0092495Y0236613D01*
X0092595Y0236514D01*
X0092692Y0236412D01*
X0092786Y0236307D01*
X0092877Y0236200D01*
X0092965Y0236090D01*
X0093050Y0235978D01*
X0093132Y0235863D01*
X0093211Y0235746D01*
X0093286Y0235627D01*
X0093358Y0235506D01*
X0093426Y0235383D01*
X0093491Y0235258D01*
X0093553Y0235131D01*
X0093610Y0235002D01*
X0093665Y0234872D01*
X0093715Y0234741D01*
X0093762Y0234608D01*
X0093805Y0234474D01*
X0093844Y0234338D01*
X0093879Y0234202D01*
X0093911Y0234065D01*
X0093938Y0233927D01*
X0093962Y0233788D01*
X0093982Y0233648D01*
X0093998Y0233508D01*
X0094010Y0233368D01*
X0094018Y0233227D01*
X0094022Y0233086D01*
X0094022Y0232946D01*
X0094018Y0232805D01*
X0094010Y0232664D01*
X0093998Y0232524D01*
X0093982Y0232384D01*
X0093962Y0232244D01*
X0093938Y0232105D01*
X0093911Y0231967D01*
X0093879Y0231830D01*
X0093844Y0231694D01*
X0093805Y0231558D01*
X0093762Y0231424D01*
X0093715Y0231291D01*
X0093665Y0231160D01*
X0093610Y0231030D01*
X0093553Y0230901D01*
X0093491Y0230774D01*
X0093426Y0230649D01*
X0093358Y0230526D01*
X0093286Y0230405D01*
X0093211Y0230286D01*
X0093132Y0230169D01*
X0093050Y0230054D01*
X0092965Y0229942D01*
X0092877Y0229832D01*
X0092786Y0229725D01*
X0092692Y0229620D01*
X0092595Y0229518D01*
X0092495Y0229419D01*
X0092392Y0229322D01*
X0092287Y0229229D01*
X0092179Y0229138D01*
X0092068Y0229051D01*
X0091955Y0228967D01*
X0091840Y0228886D01*
X0091723Y0228808D01*
X0091603Y0228734D01*
X0091481Y0228663D01*
X0091358Y0228595D01*
X0091232Y0228531D01*
X0091105Y0228471D01*
X0090976Y0228414D01*
X0090846Y0228360D01*
X0090714Y0228311D01*
X0090580Y0228265D01*
X0090446Y0228223D01*
X0090310Y0228185D01*
X0090174Y0228150D01*
X0090036Y0228120D01*
X0089898Y0228093D01*
X0089759Y0228071D01*
X0089619Y0228052D01*
X0089479Y0228037D01*
X0089339Y0228026D01*
X0089198Y0228019D01*
X0089057Y0228016D01*
X0088916Y0228017D01*
X0088776Y0228022D01*
X0088635Y0228031D01*
X0088495Y0228044D01*
X0088355Y0228061D01*
X0088215Y0228081D01*
X0088077Y0228106D01*
X0087939Y0228135D01*
X0087802Y0228167D01*
X0087666Y0228203D01*
X0087531Y0228244D01*
X0087397Y0228288D01*
X0087264Y0228335D01*
X0087133Y0228387D01*
X0087003Y0228442D01*
X0086875Y0228500D01*
X0086749Y0228563D01*
X0086624Y0228628D01*
X0086502Y0228698D01*
X0086381Y0228770D01*
X0086262Y0228846D01*
X0086146Y0228926D01*
X0086032Y0229009D01*
X0085920Y0229094D01*
X0085811Y0229183D01*
X0085704Y0229275D01*
X0085600Y0229370D01*
X0085499Y0229468D01*
X0085400Y0229569D01*
X0085305Y0229672D01*
X0085212Y0229778D01*
X0085122Y0229887D01*
X0085036Y0229998D01*
X0084952Y0230111D01*
X0084872Y0230227D01*
X0084795Y0230345D01*
X0084722Y0230465D01*
X0084651Y0230588D01*
X0084585Y0230712D01*
X0084522Y0230838D01*
X0084462Y0230965D01*
X0084406Y0231094D01*
X0084354Y0231225D01*
X0084305Y0231357D01*
X0084260Y0231491D01*
X0084219Y0231626D01*
X0084182Y0231762D01*
X0084148Y0231898D01*
X0084119Y0232036D01*
X0084093Y0232175D01*
X0084072Y0232314D01*
X0084054Y0232454D01*
X0084040Y0232594D01*
X0084030Y0232734D01*
X0084024Y0232875D01*
X0084022Y0233016D01*
X0091895Y0186756D02*
X0091900Y0187191D01*
X0091916Y0187625D01*
X0091943Y0188059D01*
X0091980Y0188493D01*
X0092028Y0188925D01*
X0092087Y0189356D01*
X0092156Y0189785D01*
X0092235Y0190212D01*
X0092325Y0190638D01*
X0092426Y0191061D01*
X0092537Y0191481D01*
X0092658Y0191899D01*
X0092789Y0192313D01*
X0092931Y0192725D01*
X0093082Y0193132D01*
X0093244Y0193536D01*
X0093415Y0193936D01*
X0093596Y0194331D01*
X0093787Y0194722D01*
X0093987Y0195108D01*
X0094197Y0195489D01*
X0094416Y0195864D01*
X0094644Y0196235D01*
X0094881Y0196599D01*
X0095127Y0196958D01*
X0095382Y0197310D01*
X0095645Y0197656D01*
X0095917Y0197996D01*
X0096197Y0198328D01*
X0096485Y0198654D01*
X0096781Y0198973D01*
X0097084Y0199284D01*
X0097395Y0199587D01*
X0097714Y0199883D01*
X0098040Y0200171D01*
X0098372Y0200451D01*
X0098712Y0200723D01*
X0099058Y0200986D01*
X0099410Y0201241D01*
X0099769Y0201487D01*
X0100133Y0201724D01*
X0100504Y0201952D01*
X0100879Y0202171D01*
X0101260Y0202381D01*
X0101646Y0202581D01*
X0102037Y0202772D01*
X0102432Y0202953D01*
X0102832Y0203124D01*
X0103236Y0203286D01*
X0103643Y0203437D01*
X0104055Y0203579D01*
X0104469Y0203710D01*
X0104887Y0203831D01*
X0105307Y0203942D01*
X0105730Y0204043D01*
X0106156Y0204133D01*
X0106583Y0204212D01*
X0107012Y0204281D01*
X0107443Y0204340D01*
X0107875Y0204388D01*
X0108309Y0204425D01*
X0108743Y0204452D01*
X0109177Y0204468D01*
X0109612Y0204473D01*
X0110047Y0204468D01*
X0110481Y0204452D01*
X0110915Y0204425D01*
X0111349Y0204388D01*
X0111781Y0204340D01*
X0112212Y0204281D01*
X0112641Y0204212D01*
X0113068Y0204133D01*
X0113494Y0204043D01*
X0113917Y0203942D01*
X0114337Y0203831D01*
X0114755Y0203710D01*
X0115169Y0203579D01*
X0115581Y0203437D01*
X0115988Y0203286D01*
X0116392Y0203124D01*
X0116792Y0202953D01*
X0117187Y0202772D01*
X0117578Y0202581D01*
X0117964Y0202381D01*
X0118345Y0202171D01*
X0118720Y0201952D01*
X0119091Y0201724D01*
X0119455Y0201487D01*
X0119814Y0201241D01*
X0120166Y0200986D01*
X0120512Y0200723D01*
X0120852Y0200451D01*
X0121184Y0200171D01*
X0121510Y0199883D01*
X0121829Y0199587D01*
X0122140Y0199284D01*
X0122443Y0198973D01*
X0122739Y0198654D01*
X0123027Y0198328D01*
X0123307Y0197996D01*
X0123579Y0197656D01*
X0123842Y0197310D01*
X0124097Y0196958D01*
X0124343Y0196599D01*
X0124580Y0196235D01*
X0124808Y0195864D01*
X0125027Y0195489D01*
X0125237Y0195108D01*
X0125437Y0194722D01*
X0125628Y0194331D01*
X0125809Y0193936D01*
X0125980Y0193536D01*
X0126142Y0193132D01*
X0126293Y0192725D01*
X0126435Y0192313D01*
X0126566Y0191899D01*
X0126687Y0191481D01*
X0126798Y0191061D01*
X0126899Y0190638D01*
X0126989Y0190212D01*
X0127068Y0189785D01*
X0127137Y0189356D01*
X0127196Y0188925D01*
X0127244Y0188493D01*
X0127281Y0188059D01*
X0127308Y0187625D01*
X0127324Y0187191D01*
X0127329Y0186756D01*
X0127324Y0186321D01*
X0127308Y0185887D01*
X0127281Y0185453D01*
X0127244Y0185019D01*
X0127196Y0184587D01*
X0127137Y0184156D01*
X0127068Y0183727D01*
X0126989Y0183300D01*
X0126899Y0182874D01*
X0126798Y0182451D01*
X0126687Y0182031D01*
X0126566Y0181613D01*
X0126435Y0181199D01*
X0126293Y0180787D01*
X0126142Y0180380D01*
X0125980Y0179976D01*
X0125809Y0179576D01*
X0125628Y0179181D01*
X0125437Y0178790D01*
X0125237Y0178404D01*
X0125027Y0178023D01*
X0124808Y0177648D01*
X0124580Y0177277D01*
X0124343Y0176913D01*
X0124097Y0176554D01*
X0123842Y0176202D01*
X0123579Y0175856D01*
X0123307Y0175516D01*
X0123027Y0175184D01*
X0122739Y0174858D01*
X0122443Y0174539D01*
X0122140Y0174228D01*
X0121829Y0173925D01*
X0121510Y0173629D01*
X0121184Y0173341D01*
X0120852Y0173061D01*
X0120512Y0172789D01*
X0120166Y0172526D01*
X0119814Y0172271D01*
X0119455Y0172025D01*
X0119091Y0171788D01*
X0118720Y0171560D01*
X0118345Y0171341D01*
X0117964Y0171131D01*
X0117578Y0170931D01*
X0117187Y0170740D01*
X0116792Y0170559D01*
X0116392Y0170388D01*
X0115988Y0170226D01*
X0115581Y0170075D01*
X0115169Y0169933D01*
X0114755Y0169802D01*
X0114337Y0169681D01*
X0113917Y0169570D01*
X0113494Y0169469D01*
X0113068Y0169379D01*
X0112641Y0169300D01*
X0112212Y0169231D01*
X0111781Y0169172D01*
X0111349Y0169124D01*
X0110915Y0169087D01*
X0110481Y0169060D01*
X0110047Y0169044D01*
X0109612Y0169039D01*
X0109177Y0169044D01*
X0108743Y0169060D01*
X0108309Y0169087D01*
X0107875Y0169124D01*
X0107443Y0169172D01*
X0107012Y0169231D01*
X0106583Y0169300D01*
X0106156Y0169379D01*
X0105730Y0169469D01*
X0105307Y0169570D01*
X0104887Y0169681D01*
X0104469Y0169802D01*
X0104055Y0169933D01*
X0103643Y0170075D01*
X0103236Y0170226D01*
X0102832Y0170388D01*
X0102432Y0170559D01*
X0102037Y0170740D01*
X0101646Y0170931D01*
X0101260Y0171131D01*
X0100879Y0171341D01*
X0100504Y0171560D01*
X0100133Y0171788D01*
X0099769Y0172025D01*
X0099410Y0172271D01*
X0099058Y0172526D01*
X0098712Y0172789D01*
X0098372Y0173061D01*
X0098040Y0173341D01*
X0097714Y0173629D01*
X0097395Y0173925D01*
X0097084Y0174228D01*
X0096781Y0174539D01*
X0096485Y0174858D01*
X0096197Y0175184D01*
X0095917Y0175516D01*
X0095645Y0175856D01*
X0095382Y0176202D01*
X0095127Y0176554D01*
X0094881Y0176913D01*
X0094644Y0177277D01*
X0094416Y0177648D01*
X0094197Y0178023D01*
X0093987Y0178404D01*
X0093787Y0178790D01*
X0093596Y0179181D01*
X0093415Y0179576D01*
X0093244Y0179976D01*
X0093082Y0180380D01*
X0092931Y0180787D01*
X0092789Y0181199D01*
X0092658Y0181613D01*
X0092537Y0182031D01*
X0092426Y0182451D01*
X0092325Y0182874D01*
X0092235Y0183300D01*
X0092156Y0183727D01*
X0092087Y0184156D01*
X0092028Y0184587D01*
X0091980Y0185019D01*
X0091943Y0185453D01*
X0091916Y0185887D01*
X0091900Y0186321D01*
X0091895Y0186756D01*
X0110132Y0299301D02*
X0110137Y0299736D01*
X0110153Y0300170D01*
X0110180Y0300604D01*
X0110217Y0301038D01*
X0110265Y0301470D01*
X0110324Y0301901D01*
X0110393Y0302330D01*
X0110472Y0302757D01*
X0110562Y0303183D01*
X0110663Y0303606D01*
X0110774Y0304026D01*
X0110895Y0304444D01*
X0111026Y0304858D01*
X0111168Y0305270D01*
X0111319Y0305677D01*
X0111481Y0306081D01*
X0111652Y0306481D01*
X0111833Y0306876D01*
X0112024Y0307267D01*
X0112224Y0307653D01*
X0112434Y0308034D01*
X0112653Y0308409D01*
X0112881Y0308780D01*
X0113118Y0309144D01*
X0113364Y0309503D01*
X0113619Y0309855D01*
X0113882Y0310201D01*
X0114154Y0310541D01*
X0114434Y0310873D01*
X0114722Y0311199D01*
X0115018Y0311518D01*
X0115321Y0311829D01*
X0115632Y0312132D01*
X0115951Y0312428D01*
X0116277Y0312716D01*
X0116609Y0312996D01*
X0116949Y0313268D01*
X0117295Y0313531D01*
X0117647Y0313786D01*
X0118006Y0314032D01*
X0118370Y0314269D01*
X0118741Y0314497D01*
X0119116Y0314716D01*
X0119497Y0314926D01*
X0119883Y0315126D01*
X0120274Y0315317D01*
X0120669Y0315498D01*
X0121069Y0315669D01*
X0121473Y0315831D01*
X0121880Y0315982D01*
X0122292Y0316124D01*
X0122706Y0316255D01*
X0123124Y0316376D01*
X0123544Y0316487D01*
X0123967Y0316588D01*
X0124393Y0316678D01*
X0124820Y0316757D01*
X0125249Y0316826D01*
X0125680Y0316885D01*
X0126112Y0316933D01*
X0126546Y0316970D01*
X0126980Y0316997D01*
X0127414Y0317013D01*
X0127849Y0317018D01*
X0128284Y0317013D01*
X0128718Y0316997D01*
X0129152Y0316970D01*
X0129586Y0316933D01*
X0130018Y0316885D01*
X0130449Y0316826D01*
X0130878Y0316757D01*
X0131305Y0316678D01*
X0131731Y0316588D01*
X0132154Y0316487D01*
X0132574Y0316376D01*
X0132992Y0316255D01*
X0133406Y0316124D01*
X0133818Y0315982D01*
X0134225Y0315831D01*
X0134629Y0315669D01*
X0135029Y0315498D01*
X0135424Y0315317D01*
X0135815Y0315126D01*
X0136201Y0314926D01*
X0136582Y0314716D01*
X0136957Y0314497D01*
X0137328Y0314269D01*
X0137692Y0314032D01*
X0138051Y0313786D01*
X0138403Y0313531D01*
X0138749Y0313268D01*
X0139089Y0312996D01*
X0139421Y0312716D01*
X0139747Y0312428D01*
X0140066Y0312132D01*
X0140377Y0311829D01*
X0140680Y0311518D01*
X0140976Y0311199D01*
X0141264Y0310873D01*
X0141544Y0310541D01*
X0141816Y0310201D01*
X0142079Y0309855D01*
X0142334Y0309503D01*
X0142580Y0309144D01*
X0142817Y0308780D01*
X0143045Y0308409D01*
X0143264Y0308034D01*
X0143474Y0307653D01*
X0143674Y0307267D01*
X0143865Y0306876D01*
X0144046Y0306481D01*
X0144217Y0306081D01*
X0144379Y0305677D01*
X0144530Y0305270D01*
X0144672Y0304858D01*
X0144803Y0304444D01*
X0144924Y0304026D01*
X0145035Y0303606D01*
X0145136Y0303183D01*
X0145226Y0302757D01*
X0145305Y0302330D01*
X0145374Y0301901D01*
X0145433Y0301470D01*
X0145481Y0301038D01*
X0145518Y0300604D01*
X0145545Y0300170D01*
X0145561Y0299736D01*
X0145566Y0299301D01*
X0145561Y0298866D01*
X0145545Y0298432D01*
X0145518Y0297998D01*
X0145481Y0297564D01*
X0145433Y0297132D01*
X0145374Y0296701D01*
X0145305Y0296272D01*
X0145226Y0295845D01*
X0145136Y0295419D01*
X0145035Y0294996D01*
X0144924Y0294576D01*
X0144803Y0294158D01*
X0144672Y0293744D01*
X0144530Y0293332D01*
X0144379Y0292925D01*
X0144217Y0292521D01*
X0144046Y0292121D01*
X0143865Y0291726D01*
X0143674Y0291335D01*
X0143474Y0290949D01*
X0143264Y0290568D01*
X0143045Y0290193D01*
X0142817Y0289822D01*
X0142580Y0289458D01*
X0142334Y0289099D01*
X0142079Y0288747D01*
X0141816Y0288401D01*
X0141544Y0288061D01*
X0141264Y0287729D01*
X0140976Y0287403D01*
X0140680Y0287084D01*
X0140377Y0286773D01*
X0140066Y0286470D01*
X0139747Y0286174D01*
X0139421Y0285886D01*
X0139089Y0285606D01*
X0138749Y0285334D01*
X0138403Y0285071D01*
X0138051Y0284816D01*
X0137692Y0284570D01*
X0137328Y0284333D01*
X0136957Y0284105D01*
X0136582Y0283886D01*
X0136201Y0283676D01*
X0135815Y0283476D01*
X0135424Y0283285D01*
X0135029Y0283104D01*
X0134629Y0282933D01*
X0134225Y0282771D01*
X0133818Y0282620D01*
X0133406Y0282478D01*
X0132992Y0282347D01*
X0132574Y0282226D01*
X0132154Y0282115D01*
X0131731Y0282014D01*
X0131305Y0281924D01*
X0130878Y0281845D01*
X0130449Y0281776D01*
X0130018Y0281717D01*
X0129586Y0281669D01*
X0129152Y0281632D01*
X0128718Y0281605D01*
X0128284Y0281589D01*
X0127849Y0281584D01*
X0127414Y0281589D01*
X0126980Y0281605D01*
X0126546Y0281632D01*
X0126112Y0281669D01*
X0125680Y0281717D01*
X0125249Y0281776D01*
X0124820Y0281845D01*
X0124393Y0281924D01*
X0123967Y0282014D01*
X0123544Y0282115D01*
X0123124Y0282226D01*
X0122706Y0282347D01*
X0122292Y0282478D01*
X0121880Y0282620D01*
X0121473Y0282771D01*
X0121069Y0282933D01*
X0120669Y0283104D01*
X0120274Y0283285D01*
X0119883Y0283476D01*
X0119497Y0283676D01*
X0119116Y0283886D01*
X0118741Y0284105D01*
X0118370Y0284333D01*
X0118006Y0284570D01*
X0117647Y0284816D01*
X0117295Y0285071D01*
X0116949Y0285334D01*
X0116609Y0285606D01*
X0116277Y0285886D01*
X0115951Y0286174D01*
X0115632Y0286470D01*
X0115321Y0286773D01*
X0115018Y0287084D01*
X0114722Y0287403D01*
X0114434Y0287729D01*
X0114154Y0288061D01*
X0113882Y0288401D01*
X0113619Y0288747D01*
X0113364Y0289099D01*
X0113118Y0289458D01*
X0112881Y0289822D01*
X0112653Y0290193D01*
X0112434Y0290568D01*
X0112224Y0290949D01*
X0112024Y0291335D01*
X0111833Y0291726D01*
X0111652Y0292121D01*
X0111481Y0292521D01*
X0111319Y0292925D01*
X0111168Y0293332D01*
X0111026Y0293744D01*
X0110895Y0294158D01*
X0110774Y0294576D01*
X0110663Y0294996D01*
X0110562Y0295419D01*
X0110472Y0295845D01*
X0110393Y0296272D01*
X0110324Y0296701D01*
X0110265Y0297132D01*
X0110217Y0297564D01*
X0110180Y0297998D01*
X0110153Y0298432D01*
X0110137Y0298866D01*
X0110132Y0299301D01*
X0102259Y0345561D02*
X0102261Y0345702D01*
X0102267Y0345843D01*
X0102277Y0345983D01*
X0102291Y0346123D01*
X0102309Y0346263D01*
X0102330Y0346402D01*
X0102356Y0346541D01*
X0102385Y0346679D01*
X0102419Y0346815D01*
X0102456Y0346951D01*
X0102497Y0347086D01*
X0102542Y0347220D01*
X0102591Y0347352D01*
X0102643Y0347483D01*
X0102699Y0347612D01*
X0102759Y0347739D01*
X0102822Y0347865D01*
X0102888Y0347989D01*
X0102959Y0348112D01*
X0103032Y0348232D01*
X0103109Y0348350D01*
X0103189Y0348466D01*
X0103273Y0348579D01*
X0103359Y0348690D01*
X0103449Y0348799D01*
X0103542Y0348905D01*
X0103637Y0349008D01*
X0103736Y0349109D01*
X0103837Y0349207D01*
X0103941Y0349302D01*
X0104048Y0349394D01*
X0104157Y0349483D01*
X0104269Y0349568D01*
X0104383Y0349651D01*
X0104499Y0349731D01*
X0104618Y0349807D01*
X0104739Y0349879D01*
X0104861Y0349949D01*
X0104986Y0350014D01*
X0105112Y0350077D01*
X0105240Y0350135D01*
X0105370Y0350190D01*
X0105501Y0350242D01*
X0105634Y0350289D01*
X0105768Y0350333D01*
X0105903Y0350374D01*
X0106039Y0350410D01*
X0106176Y0350442D01*
X0106314Y0350471D01*
X0106452Y0350496D01*
X0106592Y0350516D01*
X0106732Y0350533D01*
X0106872Y0350546D01*
X0107013Y0350555D01*
X0107153Y0350560D01*
X0107294Y0350561D01*
X0107435Y0350558D01*
X0107576Y0350551D01*
X0107716Y0350540D01*
X0107856Y0350525D01*
X0107996Y0350506D01*
X0108135Y0350484D01*
X0108273Y0350457D01*
X0108411Y0350427D01*
X0108547Y0350392D01*
X0108683Y0350354D01*
X0108817Y0350312D01*
X0108951Y0350266D01*
X0109083Y0350217D01*
X0109213Y0350163D01*
X0109342Y0350106D01*
X0109469Y0350046D01*
X0109595Y0349982D01*
X0109718Y0349914D01*
X0109840Y0349843D01*
X0109960Y0349769D01*
X0110077Y0349691D01*
X0110192Y0349610D01*
X0110305Y0349526D01*
X0110416Y0349439D01*
X0110524Y0349348D01*
X0110629Y0349255D01*
X0110732Y0349158D01*
X0110832Y0349059D01*
X0110929Y0348957D01*
X0111023Y0348852D01*
X0111114Y0348745D01*
X0111202Y0348635D01*
X0111287Y0348523D01*
X0111369Y0348408D01*
X0111448Y0348291D01*
X0111523Y0348172D01*
X0111595Y0348051D01*
X0111663Y0347928D01*
X0111728Y0347803D01*
X0111790Y0347676D01*
X0111847Y0347547D01*
X0111902Y0347417D01*
X0111952Y0347286D01*
X0111999Y0347153D01*
X0112042Y0347019D01*
X0112081Y0346883D01*
X0112116Y0346747D01*
X0112148Y0346610D01*
X0112175Y0346472D01*
X0112199Y0346333D01*
X0112219Y0346193D01*
X0112235Y0346053D01*
X0112247Y0345913D01*
X0112255Y0345772D01*
X0112259Y0345631D01*
X0112259Y0345491D01*
X0112255Y0345350D01*
X0112247Y0345209D01*
X0112235Y0345069D01*
X0112219Y0344929D01*
X0112199Y0344789D01*
X0112175Y0344650D01*
X0112148Y0344512D01*
X0112116Y0344375D01*
X0112081Y0344239D01*
X0112042Y0344103D01*
X0111999Y0343969D01*
X0111952Y0343836D01*
X0111902Y0343705D01*
X0111847Y0343575D01*
X0111790Y0343446D01*
X0111728Y0343319D01*
X0111663Y0343194D01*
X0111595Y0343071D01*
X0111523Y0342950D01*
X0111448Y0342831D01*
X0111369Y0342714D01*
X0111287Y0342599D01*
X0111202Y0342487D01*
X0111114Y0342377D01*
X0111023Y0342270D01*
X0110929Y0342165D01*
X0110832Y0342063D01*
X0110732Y0341964D01*
X0110629Y0341867D01*
X0110524Y0341774D01*
X0110416Y0341683D01*
X0110305Y0341596D01*
X0110192Y0341512D01*
X0110077Y0341431D01*
X0109960Y0341353D01*
X0109840Y0341279D01*
X0109718Y0341208D01*
X0109595Y0341140D01*
X0109469Y0341076D01*
X0109342Y0341016D01*
X0109213Y0340959D01*
X0109083Y0340905D01*
X0108951Y0340856D01*
X0108817Y0340810D01*
X0108683Y0340768D01*
X0108547Y0340730D01*
X0108411Y0340695D01*
X0108273Y0340665D01*
X0108135Y0340638D01*
X0107996Y0340616D01*
X0107856Y0340597D01*
X0107716Y0340582D01*
X0107576Y0340571D01*
X0107435Y0340564D01*
X0107294Y0340561D01*
X0107153Y0340562D01*
X0107013Y0340567D01*
X0106872Y0340576D01*
X0106732Y0340589D01*
X0106592Y0340606D01*
X0106452Y0340626D01*
X0106314Y0340651D01*
X0106176Y0340680D01*
X0106039Y0340712D01*
X0105903Y0340748D01*
X0105768Y0340789D01*
X0105634Y0340833D01*
X0105501Y0340880D01*
X0105370Y0340932D01*
X0105240Y0340987D01*
X0105112Y0341045D01*
X0104986Y0341108D01*
X0104861Y0341173D01*
X0104739Y0341243D01*
X0104618Y0341315D01*
X0104499Y0341391D01*
X0104383Y0341471D01*
X0104269Y0341554D01*
X0104157Y0341639D01*
X0104048Y0341728D01*
X0103941Y0341820D01*
X0103837Y0341915D01*
X0103736Y0342013D01*
X0103637Y0342114D01*
X0103542Y0342217D01*
X0103449Y0342323D01*
X0103359Y0342432D01*
X0103273Y0342543D01*
X0103189Y0342656D01*
X0103109Y0342772D01*
X0103032Y0342890D01*
X0102959Y0343010D01*
X0102888Y0343133D01*
X0102822Y0343257D01*
X0102759Y0343383D01*
X0102699Y0343510D01*
X0102643Y0343639D01*
X0102591Y0343770D01*
X0102542Y0343902D01*
X0102497Y0344036D01*
X0102456Y0344171D01*
X0102419Y0344307D01*
X0102385Y0344443D01*
X0102356Y0344581D01*
X0102330Y0344720D01*
X0102309Y0344859D01*
X0102291Y0344999D01*
X0102277Y0345139D01*
X0102267Y0345279D01*
X0102261Y0345420D01*
X0102259Y0345561D01*
X0068956Y0230217D02*
X0066293Y0214334D01*
X0063272Y0198516D01*
X0059895Y0182769D01*
X0056164Y0167103D01*
X0052081Y0151524D01*
X0047647Y0136042D01*
X0042866Y0120664D01*
X0275741Y0510691D02*
X0272636Y0510672D01*
X0269532Y0510729D01*
X0266429Y0510860D01*
X0263331Y0511065D01*
X0260239Y0511345D01*
X0257154Y0511699D01*
X0254079Y0512127D01*
X0251014Y0512629D01*
X0247963Y0513204D01*
X0244926Y0513852D01*
X0241906Y0514574D01*
X0238904Y0515367D01*
X0235922Y0516233D01*
X0232962Y0517169D01*
X0230025Y0518177D01*
X0227113Y0519255D01*
X0224228Y0520403D01*
X0221371Y0521619D01*
X0218544Y0522904D01*
X0215749Y0524257D01*
X0212988Y0525676D01*
X0210261Y0527161D01*
X0207570Y0528711D01*
X0204918Y0530326D01*
X0202305Y0532003D01*
X0199734Y0533743D01*
X0197204Y0535545D01*
X0194719Y0537406D01*
X0192279Y0539327D01*
X0189887Y0541306D01*
X0187542Y0543341D01*
X0185247Y0545433D01*
X0183003Y0547579D01*
X0180811Y0549778D01*
X0178672Y0552029D01*
X0176588Y0554331D01*
X0174561Y0556682D01*
X0172590Y0559082D01*
X0170677Y0561528D01*
X0168824Y0564019D01*
X0283247Y0294547D02*
X0284986Y0273703D01*
X0287199Y0252904D01*
X0289886Y0232160D01*
X0293045Y0211484D01*
X0296674Y0190884D01*
X0300771Y0170373D01*
X0305335Y0149961D01*
X0310363Y0129657D01*
X0315851Y0109474D01*
X0321799Y0089421D01*
X0328202Y0069508D01*
M02*
