G75*
%MOIN*%
%OFA0B0*%
%FSLAX25Y25*%
%IPPOS*%
%LPD*%
%AMOC8*
5,1,8,0,0,1.08239X$1,22.5*
%
%ADD10C,0.00500*%
%ADD11C,0.00600*%
%ADD12C,0.00300*%
%ADD13C,0.00400*%
%ADD14C,0.00800*%
%ADD15C,0.00100*%
%ADD16R,0.06299X0.04626*%
%ADD17C,0.01433*%
%ADD18C,0.01761*%
%ADD19R,0.00886X0.00984*%
%ADD20C,0.00197*%
%ADD21R,0.04375X0.05000*%
%ADD22C,0.00700*%
D10*
X0044045Y0056000D02*
X0044045Y0113777D01*
X0045744Y0117016D02*
X0073641Y0136291D01*
X0074098Y0136599D01*
X0074563Y0136895D01*
X0075035Y0137180D01*
X0075513Y0137453D01*
X0075998Y0137715D01*
X0076489Y0137965D01*
X0076987Y0138202D01*
X0077490Y0138428D01*
X0077998Y0138641D01*
X0078511Y0138841D01*
X0079029Y0139029D01*
X0079552Y0139204D01*
X0080079Y0139367D01*
X0080609Y0139516D01*
X0081143Y0139653D01*
X0081680Y0139776D01*
X0082220Y0139886D01*
X0082763Y0139983D01*
X0083307Y0140067D01*
X0083854Y0140137D01*
X0084402Y0140194D01*
X0084952Y0140238D01*
X0085502Y0140268D01*
X0086053Y0140284D01*
X0086604Y0140288D01*
X0087155Y0140277D01*
X0087705Y0140253D01*
X0088255Y0140216D01*
X0088804Y0140166D01*
X0089351Y0140102D01*
X0089897Y0140024D01*
X0090441Y0139933D01*
X0090982Y0139829D01*
X0091520Y0139712D01*
X0092056Y0139582D01*
X0092588Y0139439D01*
X0093117Y0139282D01*
X0093641Y0139113D01*
X0094161Y0138931D01*
X0094677Y0138737D01*
X0095188Y0138530D01*
X0095693Y0138310D01*
X0096193Y0138078D01*
X0096687Y0137834D01*
X0097175Y0137578D01*
X0097657Y0137310D01*
X0098132Y0137031D01*
X0098600Y0136740D01*
X0099061Y0136437D01*
X0099514Y0136124D01*
X0099959Y0135799D01*
X0100397Y0135464D01*
X0100826Y0135118D01*
X0101246Y0134761D01*
X0101658Y0134395D01*
X0102060Y0134018D01*
X0102453Y0133632D01*
X0102837Y0133237D01*
X0103211Y0132832D01*
X0103575Y0132418D01*
X0103928Y0131995D01*
X0104271Y0131564D01*
X0104604Y0131124D01*
X0104926Y0130677D01*
X0105236Y0130221D01*
X0105536Y0129759D01*
X0105824Y0129289D01*
X0106100Y0128812D01*
X0106365Y0128329D01*
X0106618Y0127839D01*
X0106859Y0127343D01*
X0107087Y0126842D01*
X0107304Y0126335D01*
X0107507Y0125823D01*
X0107699Y0125306D01*
X0107877Y0124785D01*
X0108043Y0124259D01*
X0108196Y0123730D01*
X0108336Y0123197D01*
X0108463Y0122660D01*
X0108576Y0122121D01*
X0108677Y0121579D01*
X0108764Y0121035D01*
X0108838Y0120489D01*
X0108898Y0119941D01*
X0108945Y0119392D01*
X0108979Y0118842D01*
X0108999Y0118291D01*
X0109006Y0117740D01*
X0109006Y0074409D01*
X0108999Y0073869D01*
X0108980Y0073329D01*
X0108947Y0072790D01*
X0108902Y0072252D01*
X0108843Y0071715D01*
X0108772Y0071180D01*
X0108687Y0070647D01*
X0108590Y0070116D01*
X0108480Y0069587D01*
X0108357Y0069061D01*
X0108221Y0068539D01*
X0108073Y0068019D01*
X0107912Y0067504D01*
X0107739Y0066992D01*
X0107554Y0066485D01*
X0107356Y0065982D01*
X0107147Y0065485D01*
X0106925Y0064992D01*
X0106692Y0064505D01*
X0106446Y0064024D01*
X0106190Y0063549D01*
X0105922Y0063080D01*
X0105642Y0062618D01*
X0105352Y0062163D01*
X0105050Y0061715D01*
X0104738Y0061274D01*
X0104416Y0060841D01*
X0104083Y0060416D01*
X0103739Y0059999D01*
X0103386Y0059591D01*
X0103023Y0059191D01*
X0102651Y0058800D01*
X0102269Y0058418D01*
X0101878Y0058046D01*
X0101478Y0057683D01*
X0101070Y0057330D01*
X0100653Y0056986D01*
X0100228Y0056653D01*
X0099795Y0056331D01*
X0099354Y0056019D01*
X0098906Y0055717D01*
X0098451Y0055427D01*
X0097989Y0055147D01*
X0097520Y0054879D01*
X0097045Y0054623D01*
X0096564Y0054377D01*
X0096077Y0054144D01*
X0095584Y0053922D01*
X0095087Y0053713D01*
X0094584Y0053515D01*
X0094077Y0053330D01*
X0093565Y0053157D01*
X0093050Y0052996D01*
X0092530Y0052848D01*
X0092008Y0052712D01*
X0091482Y0052589D01*
X0090953Y0052479D01*
X0090422Y0052382D01*
X0089889Y0052297D01*
X0089354Y0052226D01*
X0088817Y0052167D01*
X0088279Y0052122D01*
X0087740Y0052089D01*
X0087200Y0052070D01*
X0086660Y0052063D01*
X0047982Y0052063D01*
X0047858Y0052065D01*
X0047735Y0052071D01*
X0047611Y0052080D01*
X0047489Y0052094D01*
X0047366Y0052111D01*
X0047244Y0052133D01*
X0047123Y0052158D01*
X0047003Y0052187D01*
X0046884Y0052219D01*
X0046765Y0052256D01*
X0046648Y0052296D01*
X0046533Y0052339D01*
X0046418Y0052387D01*
X0046306Y0052438D01*
X0046195Y0052492D01*
X0046085Y0052550D01*
X0045978Y0052611D01*
X0045872Y0052676D01*
X0045769Y0052744D01*
X0045668Y0052815D01*
X0045569Y0052889D01*
X0045472Y0052966D01*
X0045378Y0053047D01*
X0045287Y0053130D01*
X0045198Y0053216D01*
X0045112Y0053305D01*
X0045029Y0053396D01*
X0044948Y0053490D01*
X0044871Y0053587D01*
X0044797Y0053686D01*
X0044726Y0053787D01*
X0044658Y0053890D01*
X0044593Y0053996D01*
X0044532Y0054103D01*
X0044474Y0054213D01*
X0044420Y0054324D01*
X0044369Y0054436D01*
X0044321Y0054551D01*
X0044278Y0054666D01*
X0044238Y0054783D01*
X0044201Y0054902D01*
X0044169Y0055021D01*
X0044140Y0055141D01*
X0044115Y0055262D01*
X0044093Y0055384D01*
X0044076Y0055507D01*
X0044062Y0055629D01*
X0044053Y0055753D01*
X0044047Y0055876D01*
X0044045Y0056000D01*
X0044045Y0113777D02*
X0044047Y0113900D01*
X0044053Y0114022D01*
X0044062Y0114145D01*
X0044076Y0114267D01*
X0044093Y0114388D01*
X0044114Y0114509D01*
X0044138Y0114629D01*
X0044167Y0114749D01*
X0044199Y0114867D01*
X0044235Y0114984D01*
X0044274Y0115100D01*
X0044317Y0115215D01*
X0044364Y0115329D01*
X0044414Y0115441D01*
X0044467Y0115551D01*
X0044524Y0115660D01*
X0044585Y0115767D01*
X0044648Y0115872D01*
X0044715Y0115975D01*
X0044785Y0116075D01*
X0044859Y0116174D01*
X0044935Y0116270D01*
X0045014Y0116364D01*
X0045096Y0116455D01*
X0045181Y0116544D01*
X0045268Y0116629D01*
X0045359Y0116713D01*
X0045451Y0116793D01*
X0045547Y0116870D01*
X0045644Y0116945D01*
X0045744Y0117016D01*
X0070518Y0161756D02*
X0109196Y0161756D01*
X0109736Y0161763D01*
X0110276Y0161782D01*
X0110815Y0161815D01*
X0111353Y0161860D01*
X0111890Y0161919D01*
X0112425Y0161990D01*
X0112958Y0162075D01*
X0113489Y0162172D01*
X0114018Y0162282D01*
X0114544Y0162405D01*
X0115066Y0162541D01*
X0115586Y0162689D01*
X0116101Y0162850D01*
X0116613Y0163023D01*
X0117120Y0163208D01*
X0117623Y0163406D01*
X0118120Y0163615D01*
X0118613Y0163837D01*
X0119100Y0164070D01*
X0119581Y0164316D01*
X0120056Y0164572D01*
X0120525Y0164840D01*
X0120987Y0165120D01*
X0121442Y0165410D01*
X0121890Y0165712D01*
X0122331Y0166024D01*
X0122764Y0166346D01*
X0123189Y0166679D01*
X0123606Y0167023D01*
X0124014Y0167376D01*
X0124414Y0167739D01*
X0124805Y0168111D01*
X0125187Y0168493D01*
X0125559Y0168884D01*
X0125922Y0169284D01*
X0126275Y0169692D01*
X0126619Y0170109D01*
X0126952Y0170534D01*
X0127274Y0170967D01*
X0127586Y0171408D01*
X0127888Y0171856D01*
X0128178Y0172311D01*
X0128458Y0172773D01*
X0128726Y0173242D01*
X0128982Y0173717D01*
X0129228Y0174198D01*
X0129461Y0174685D01*
X0129683Y0175178D01*
X0129892Y0175675D01*
X0130090Y0176178D01*
X0130275Y0176685D01*
X0130448Y0177197D01*
X0130609Y0177712D01*
X0130757Y0178232D01*
X0130893Y0178754D01*
X0131016Y0179280D01*
X0131126Y0179809D01*
X0131223Y0180340D01*
X0131308Y0180873D01*
X0131379Y0181408D01*
X0131438Y0181945D01*
X0131483Y0182483D01*
X0131516Y0183022D01*
X0131535Y0183562D01*
X0131542Y0184102D01*
X0131541Y0184102D02*
X0131541Y0227433D01*
X0131542Y0227433D02*
X0131535Y0227984D01*
X0131515Y0228535D01*
X0131481Y0229085D01*
X0131434Y0229634D01*
X0131374Y0230182D01*
X0131300Y0230728D01*
X0131213Y0231272D01*
X0131112Y0231814D01*
X0130999Y0232353D01*
X0130872Y0232890D01*
X0130732Y0233423D01*
X0130579Y0233952D01*
X0130413Y0234478D01*
X0130235Y0234999D01*
X0130043Y0235516D01*
X0129840Y0236028D01*
X0129623Y0236535D01*
X0129395Y0237036D01*
X0129154Y0237532D01*
X0128901Y0238022D01*
X0128636Y0238505D01*
X0128360Y0238982D01*
X0128072Y0239452D01*
X0127772Y0239914D01*
X0127462Y0240370D01*
X0127140Y0240817D01*
X0126807Y0241257D01*
X0126464Y0241688D01*
X0126111Y0242111D01*
X0125747Y0242525D01*
X0125373Y0242930D01*
X0124989Y0243325D01*
X0124596Y0243711D01*
X0124194Y0244088D01*
X0123782Y0244454D01*
X0123362Y0244811D01*
X0122933Y0245157D01*
X0122495Y0245492D01*
X0122050Y0245817D01*
X0121597Y0246130D01*
X0121136Y0246433D01*
X0120668Y0246724D01*
X0120193Y0247003D01*
X0119711Y0247271D01*
X0119223Y0247527D01*
X0118729Y0247771D01*
X0118229Y0248003D01*
X0117724Y0248223D01*
X0117213Y0248430D01*
X0116697Y0248624D01*
X0116177Y0248806D01*
X0115653Y0248975D01*
X0115124Y0249132D01*
X0114592Y0249275D01*
X0114056Y0249405D01*
X0113518Y0249522D01*
X0112977Y0249626D01*
X0112433Y0249717D01*
X0111887Y0249795D01*
X0111340Y0249859D01*
X0110791Y0249909D01*
X0110241Y0249946D01*
X0109691Y0249970D01*
X0109140Y0249981D01*
X0108589Y0249977D01*
X0108038Y0249961D01*
X0107488Y0249931D01*
X0106938Y0249887D01*
X0106390Y0249830D01*
X0105843Y0249760D01*
X0105299Y0249676D01*
X0104756Y0249579D01*
X0104216Y0249469D01*
X0103679Y0249346D01*
X0103145Y0249209D01*
X0102615Y0249060D01*
X0102088Y0248897D01*
X0101565Y0248722D01*
X0101047Y0248534D01*
X0100534Y0248334D01*
X0100026Y0248121D01*
X0099523Y0247895D01*
X0099025Y0247658D01*
X0098534Y0247408D01*
X0098049Y0247146D01*
X0097571Y0246873D01*
X0097099Y0246588D01*
X0096634Y0246292D01*
X0096177Y0245984D01*
X0068280Y0226709D01*
X0066581Y0223470D02*
X0066581Y0165693D01*
X0066583Y0165569D01*
X0066589Y0165446D01*
X0066598Y0165322D01*
X0066612Y0165200D01*
X0066629Y0165077D01*
X0066651Y0164955D01*
X0066676Y0164834D01*
X0066705Y0164714D01*
X0066737Y0164595D01*
X0066774Y0164476D01*
X0066814Y0164359D01*
X0066857Y0164244D01*
X0066905Y0164129D01*
X0066956Y0164017D01*
X0067010Y0163906D01*
X0067068Y0163796D01*
X0067129Y0163689D01*
X0067194Y0163583D01*
X0067262Y0163480D01*
X0067333Y0163379D01*
X0067407Y0163280D01*
X0067484Y0163183D01*
X0067565Y0163089D01*
X0067648Y0162998D01*
X0067734Y0162909D01*
X0067823Y0162823D01*
X0067914Y0162740D01*
X0068008Y0162659D01*
X0068105Y0162582D01*
X0068204Y0162508D01*
X0068305Y0162437D01*
X0068408Y0162369D01*
X0068514Y0162304D01*
X0068621Y0162243D01*
X0068731Y0162185D01*
X0068842Y0162131D01*
X0068954Y0162080D01*
X0069069Y0162032D01*
X0069184Y0161989D01*
X0069301Y0161949D01*
X0069420Y0161912D01*
X0069539Y0161880D01*
X0069659Y0161851D01*
X0069780Y0161826D01*
X0069902Y0161804D01*
X0070025Y0161787D01*
X0070147Y0161773D01*
X0070271Y0161764D01*
X0070394Y0161758D01*
X0070518Y0161756D01*
X0066581Y0223470D02*
X0066583Y0223593D01*
X0066589Y0223715D01*
X0066598Y0223838D01*
X0066612Y0223960D01*
X0066629Y0224081D01*
X0066650Y0224202D01*
X0066674Y0224322D01*
X0066703Y0224442D01*
X0066735Y0224560D01*
X0066771Y0224677D01*
X0066810Y0224793D01*
X0066853Y0224908D01*
X0066900Y0225022D01*
X0066950Y0225134D01*
X0067003Y0225244D01*
X0067060Y0225353D01*
X0067121Y0225460D01*
X0067184Y0225565D01*
X0067251Y0225668D01*
X0067321Y0225768D01*
X0067395Y0225867D01*
X0067471Y0225963D01*
X0067550Y0226057D01*
X0067632Y0226148D01*
X0067717Y0226237D01*
X0067804Y0226322D01*
X0067895Y0226406D01*
X0067987Y0226486D01*
X0068083Y0226563D01*
X0068180Y0226638D01*
X0068280Y0226709D01*
X0088755Y0274301D02*
X0127433Y0274301D01*
X0127973Y0274308D01*
X0128513Y0274327D01*
X0129052Y0274360D01*
X0129590Y0274405D01*
X0130127Y0274464D01*
X0130662Y0274535D01*
X0131195Y0274620D01*
X0131726Y0274717D01*
X0132255Y0274827D01*
X0132781Y0274950D01*
X0133303Y0275086D01*
X0133823Y0275234D01*
X0134338Y0275395D01*
X0134850Y0275568D01*
X0135357Y0275753D01*
X0135860Y0275951D01*
X0136357Y0276160D01*
X0136850Y0276382D01*
X0137337Y0276615D01*
X0137818Y0276861D01*
X0138293Y0277117D01*
X0138762Y0277385D01*
X0139224Y0277665D01*
X0139679Y0277955D01*
X0140127Y0278257D01*
X0140568Y0278569D01*
X0141001Y0278891D01*
X0141426Y0279224D01*
X0141843Y0279568D01*
X0142251Y0279921D01*
X0142651Y0280284D01*
X0143042Y0280656D01*
X0143424Y0281038D01*
X0143796Y0281429D01*
X0144159Y0281829D01*
X0144512Y0282237D01*
X0144856Y0282654D01*
X0145189Y0283079D01*
X0145511Y0283512D01*
X0145823Y0283953D01*
X0146125Y0284401D01*
X0146415Y0284856D01*
X0146695Y0285318D01*
X0146963Y0285787D01*
X0147219Y0286262D01*
X0147465Y0286743D01*
X0147698Y0287230D01*
X0147920Y0287723D01*
X0148129Y0288220D01*
X0148327Y0288723D01*
X0148512Y0289230D01*
X0148685Y0289742D01*
X0148846Y0290257D01*
X0148994Y0290777D01*
X0149130Y0291299D01*
X0149253Y0291825D01*
X0149363Y0292354D01*
X0149460Y0292885D01*
X0149545Y0293418D01*
X0149616Y0293953D01*
X0149675Y0294490D01*
X0149720Y0295028D01*
X0149753Y0295567D01*
X0149772Y0296107D01*
X0149779Y0296647D01*
X0149779Y0339978D01*
X0164730Y0349515D02*
X0164730Y0361326D01*
X0176541Y0361326D01*
X0176541Y0349515D01*
X0164730Y0349515D01*
X0140286Y0388654D02*
X0101608Y0388654D01*
X0101484Y0388656D01*
X0101361Y0388662D01*
X0101237Y0388671D01*
X0101115Y0388685D01*
X0100992Y0388702D01*
X0100870Y0388724D01*
X0100749Y0388749D01*
X0100629Y0388778D01*
X0100510Y0388810D01*
X0100391Y0388847D01*
X0100274Y0388887D01*
X0100159Y0388930D01*
X0100044Y0388978D01*
X0099932Y0389029D01*
X0099821Y0389083D01*
X0099711Y0389141D01*
X0099604Y0389202D01*
X0099498Y0389267D01*
X0099395Y0389335D01*
X0099294Y0389406D01*
X0099195Y0389480D01*
X0099098Y0389557D01*
X0099004Y0389638D01*
X0098913Y0389721D01*
X0098824Y0389807D01*
X0098738Y0389896D01*
X0098655Y0389987D01*
X0098574Y0390081D01*
X0098497Y0390178D01*
X0098423Y0390277D01*
X0098352Y0390378D01*
X0098284Y0390481D01*
X0098219Y0390587D01*
X0098158Y0390694D01*
X0098100Y0390804D01*
X0098046Y0390915D01*
X0097995Y0391027D01*
X0097947Y0391142D01*
X0097904Y0391257D01*
X0097864Y0391374D01*
X0097827Y0391493D01*
X0097795Y0391612D01*
X0097766Y0391732D01*
X0097741Y0391853D01*
X0097719Y0391975D01*
X0097702Y0392098D01*
X0097688Y0392220D01*
X0097679Y0392344D01*
X0097673Y0392467D01*
X0097671Y0392591D01*
X0097671Y0450368D01*
X0099370Y0453607D02*
X0127267Y0472881D01*
X0123700Y0474298D02*
X0120697Y0474298D01*
X0122198Y0474298D02*
X0122198Y0478802D01*
X0120697Y0477301D01*
X0119096Y0478051D02*
X0119096Y0476550D01*
X0118345Y0475800D01*
X0116093Y0475800D01*
X0116093Y0474298D02*
X0116093Y0478802D01*
X0118345Y0478802D01*
X0119096Y0478051D01*
X0114492Y0478051D02*
X0113741Y0478802D01*
X0112240Y0478802D01*
X0111489Y0478051D01*
X0111489Y0477301D01*
X0112240Y0476550D01*
X0113741Y0476550D01*
X0114492Y0475800D01*
X0114492Y0475049D01*
X0113741Y0474298D01*
X0112240Y0474298D01*
X0111489Y0475049D01*
X0109888Y0475049D02*
X0109137Y0474298D01*
X0107636Y0474298D01*
X0106885Y0475049D01*
X0106885Y0478051D01*
X0107636Y0478802D01*
X0109137Y0478802D01*
X0109888Y0478051D01*
X0105317Y0478802D02*
X0103816Y0478802D01*
X0104567Y0478802D02*
X0104567Y0474298D01*
X0105317Y0474298D02*
X0103816Y0474298D01*
X0099370Y0453607D02*
X0099270Y0453536D01*
X0099173Y0453461D01*
X0099077Y0453384D01*
X0098985Y0453304D01*
X0098894Y0453220D01*
X0098807Y0453135D01*
X0098722Y0453046D01*
X0098640Y0452955D01*
X0098561Y0452861D01*
X0098485Y0452765D01*
X0098411Y0452666D01*
X0098341Y0452566D01*
X0098274Y0452463D01*
X0098211Y0452358D01*
X0098150Y0452251D01*
X0098093Y0452142D01*
X0098040Y0452032D01*
X0097990Y0451920D01*
X0097943Y0451806D01*
X0097900Y0451691D01*
X0097861Y0451575D01*
X0097825Y0451458D01*
X0097793Y0451340D01*
X0097764Y0451220D01*
X0097740Y0451100D01*
X0097719Y0450979D01*
X0097702Y0450858D01*
X0097688Y0450736D01*
X0097679Y0450613D01*
X0097673Y0450491D01*
X0097671Y0450368D01*
X0104777Y0500398D02*
X0104210Y0500965D01*
X0104777Y0500398D02*
X0105912Y0500398D01*
X0106479Y0500965D01*
X0106479Y0501533D01*
X0105912Y0502100D01*
X0105344Y0502100D01*
X0105912Y0502100D02*
X0106479Y0502667D01*
X0106479Y0503234D01*
X0105912Y0503801D01*
X0104777Y0503801D01*
X0104210Y0503234D01*
X0114210Y0503234D02*
X0114777Y0503801D01*
X0115912Y0503801D01*
X0116479Y0503234D01*
X0116479Y0502667D01*
X0114210Y0500398D01*
X0116479Y0500398D01*
X0124210Y0500398D02*
X0126479Y0500398D01*
X0125344Y0500398D02*
X0125344Y0503801D01*
X0124210Y0502667D01*
X0122517Y0520299D02*
X0120248Y0520299D01*
X0121382Y0520299D02*
X0121382Y0523702D01*
X0120248Y0522568D01*
X0130248Y0523135D02*
X0130815Y0523702D01*
X0131949Y0523702D01*
X0132517Y0523135D01*
X0132517Y0522568D01*
X0130248Y0520299D01*
X0132517Y0520299D01*
X0140248Y0520866D02*
X0140815Y0520299D01*
X0141949Y0520299D01*
X0142517Y0520866D01*
X0142517Y0521434D01*
X0141949Y0522001D01*
X0141382Y0522001D01*
X0141949Y0522001D02*
X0142517Y0522568D01*
X0142517Y0523135D01*
X0141949Y0523702D01*
X0140815Y0523702D01*
X0140248Y0523135D01*
X0127267Y0472882D02*
X0127724Y0473190D01*
X0128189Y0473486D01*
X0128661Y0473771D01*
X0129139Y0474044D01*
X0129624Y0474306D01*
X0130115Y0474556D01*
X0130613Y0474793D01*
X0131116Y0475019D01*
X0131624Y0475232D01*
X0132137Y0475432D01*
X0132655Y0475620D01*
X0133178Y0475795D01*
X0133705Y0475958D01*
X0134235Y0476107D01*
X0134769Y0476244D01*
X0135306Y0476367D01*
X0135846Y0476477D01*
X0136389Y0476574D01*
X0136933Y0476658D01*
X0137480Y0476728D01*
X0138028Y0476785D01*
X0138578Y0476829D01*
X0139128Y0476859D01*
X0139679Y0476875D01*
X0140230Y0476879D01*
X0140781Y0476868D01*
X0141331Y0476844D01*
X0141881Y0476807D01*
X0142430Y0476757D01*
X0142977Y0476693D01*
X0143523Y0476615D01*
X0144067Y0476524D01*
X0144608Y0476420D01*
X0145146Y0476303D01*
X0145682Y0476173D01*
X0146214Y0476030D01*
X0146743Y0475873D01*
X0147267Y0475704D01*
X0147787Y0475522D01*
X0148303Y0475328D01*
X0148814Y0475121D01*
X0149319Y0474901D01*
X0149819Y0474669D01*
X0150313Y0474425D01*
X0150801Y0474169D01*
X0151283Y0473901D01*
X0151758Y0473622D01*
X0152226Y0473331D01*
X0152687Y0473028D01*
X0153140Y0472715D01*
X0153585Y0472390D01*
X0154023Y0472055D01*
X0154452Y0471709D01*
X0154872Y0471352D01*
X0155284Y0470986D01*
X0155686Y0470609D01*
X0156079Y0470223D01*
X0156463Y0469828D01*
X0156837Y0469423D01*
X0157201Y0469009D01*
X0157554Y0468586D01*
X0157897Y0468155D01*
X0158230Y0467715D01*
X0158552Y0467268D01*
X0158862Y0466812D01*
X0159162Y0466350D01*
X0159450Y0465880D01*
X0159726Y0465403D01*
X0159991Y0464920D01*
X0160244Y0464430D01*
X0160485Y0463934D01*
X0160713Y0463433D01*
X0160930Y0462926D01*
X0161133Y0462414D01*
X0161325Y0461897D01*
X0161503Y0461376D01*
X0161669Y0460850D01*
X0161822Y0460321D01*
X0161962Y0459788D01*
X0162089Y0459251D01*
X0162202Y0458712D01*
X0162303Y0458170D01*
X0162390Y0457626D01*
X0162464Y0457080D01*
X0162524Y0456532D01*
X0162571Y0455983D01*
X0162605Y0455433D01*
X0162625Y0454882D01*
X0162632Y0454331D01*
X0162632Y0410999D01*
X0162625Y0410459D01*
X0162606Y0409919D01*
X0162573Y0409380D01*
X0162528Y0408842D01*
X0162469Y0408305D01*
X0162398Y0407770D01*
X0162313Y0407237D01*
X0162216Y0406706D01*
X0162106Y0406177D01*
X0161983Y0405651D01*
X0161847Y0405129D01*
X0161699Y0404609D01*
X0161538Y0404094D01*
X0161365Y0403582D01*
X0161180Y0403075D01*
X0160982Y0402572D01*
X0160773Y0402075D01*
X0160551Y0401582D01*
X0160318Y0401095D01*
X0160072Y0400614D01*
X0159816Y0400139D01*
X0159548Y0399670D01*
X0159268Y0399208D01*
X0158978Y0398753D01*
X0158676Y0398305D01*
X0158364Y0397864D01*
X0158042Y0397431D01*
X0157709Y0397006D01*
X0157365Y0396589D01*
X0157012Y0396181D01*
X0156649Y0395781D01*
X0156277Y0395390D01*
X0155895Y0395008D01*
X0155504Y0394636D01*
X0155104Y0394273D01*
X0154696Y0393920D01*
X0154279Y0393576D01*
X0153854Y0393243D01*
X0153421Y0392921D01*
X0152980Y0392609D01*
X0152532Y0392307D01*
X0152077Y0392017D01*
X0151615Y0391737D01*
X0151146Y0391469D01*
X0150671Y0391213D01*
X0150190Y0390967D01*
X0149703Y0390734D01*
X0149210Y0390512D01*
X0148713Y0390303D01*
X0148210Y0390105D01*
X0147703Y0389920D01*
X0147191Y0389747D01*
X0146676Y0389586D01*
X0146156Y0389438D01*
X0145634Y0389302D01*
X0145108Y0389179D01*
X0144579Y0389069D01*
X0144048Y0388972D01*
X0143515Y0388887D01*
X0142980Y0388816D01*
X0142443Y0388757D01*
X0141905Y0388712D01*
X0141366Y0388679D01*
X0140826Y0388660D01*
X0140286Y0388653D01*
X0114414Y0358529D02*
X0086517Y0339255D01*
X0084818Y0336016D02*
X0084818Y0278238D01*
X0084820Y0278114D01*
X0084826Y0277991D01*
X0084835Y0277867D01*
X0084849Y0277745D01*
X0084866Y0277622D01*
X0084888Y0277500D01*
X0084913Y0277379D01*
X0084942Y0277259D01*
X0084974Y0277140D01*
X0085011Y0277021D01*
X0085051Y0276904D01*
X0085094Y0276789D01*
X0085142Y0276674D01*
X0085193Y0276562D01*
X0085247Y0276451D01*
X0085305Y0276341D01*
X0085366Y0276234D01*
X0085431Y0276128D01*
X0085499Y0276025D01*
X0085570Y0275924D01*
X0085644Y0275825D01*
X0085721Y0275728D01*
X0085802Y0275634D01*
X0085885Y0275543D01*
X0085971Y0275454D01*
X0086060Y0275368D01*
X0086151Y0275285D01*
X0086245Y0275204D01*
X0086342Y0275127D01*
X0086441Y0275053D01*
X0086542Y0274982D01*
X0086645Y0274914D01*
X0086751Y0274849D01*
X0086858Y0274788D01*
X0086968Y0274730D01*
X0087079Y0274676D01*
X0087191Y0274625D01*
X0087306Y0274577D01*
X0087421Y0274534D01*
X0087538Y0274494D01*
X0087657Y0274457D01*
X0087776Y0274425D01*
X0087896Y0274396D01*
X0088017Y0274371D01*
X0088139Y0274349D01*
X0088262Y0274332D01*
X0088384Y0274318D01*
X0088508Y0274309D01*
X0088631Y0274303D01*
X0088755Y0274301D01*
X0084818Y0336016D02*
X0084820Y0336139D01*
X0084826Y0336261D01*
X0084835Y0336384D01*
X0084849Y0336506D01*
X0084866Y0336627D01*
X0084887Y0336748D01*
X0084911Y0336868D01*
X0084940Y0336988D01*
X0084972Y0337106D01*
X0085008Y0337223D01*
X0085047Y0337339D01*
X0085090Y0337454D01*
X0085137Y0337568D01*
X0085187Y0337680D01*
X0085240Y0337790D01*
X0085297Y0337899D01*
X0085358Y0338006D01*
X0085421Y0338111D01*
X0085488Y0338214D01*
X0085558Y0338314D01*
X0085632Y0338413D01*
X0085708Y0338509D01*
X0085787Y0338603D01*
X0085869Y0338694D01*
X0085954Y0338783D01*
X0086041Y0338868D01*
X0086132Y0338952D01*
X0086224Y0339032D01*
X0086320Y0339109D01*
X0086417Y0339184D01*
X0086517Y0339255D01*
X0114414Y0358529D02*
X0114871Y0358837D01*
X0115336Y0359133D01*
X0115808Y0359418D01*
X0116286Y0359691D01*
X0116771Y0359953D01*
X0117262Y0360203D01*
X0117760Y0360440D01*
X0118263Y0360666D01*
X0118771Y0360879D01*
X0119284Y0361079D01*
X0119802Y0361267D01*
X0120325Y0361442D01*
X0120852Y0361605D01*
X0121382Y0361754D01*
X0121916Y0361891D01*
X0122453Y0362014D01*
X0122993Y0362124D01*
X0123536Y0362221D01*
X0124080Y0362305D01*
X0124627Y0362375D01*
X0125175Y0362432D01*
X0125725Y0362476D01*
X0126275Y0362506D01*
X0126826Y0362522D01*
X0127377Y0362526D01*
X0127928Y0362515D01*
X0128478Y0362491D01*
X0129028Y0362454D01*
X0129577Y0362404D01*
X0130124Y0362340D01*
X0130670Y0362262D01*
X0131214Y0362171D01*
X0131755Y0362067D01*
X0132293Y0361950D01*
X0132829Y0361820D01*
X0133361Y0361677D01*
X0133890Y0361520D01*
X0134414Y0361351D01*
X0134934Y0361169D01*
X0135450Y0360975D01*
X0135961Y0360768D01*
X0136466Y0360548D01*
X0136966Y0360316D01*
X0137460Y0360072D01*
X0137948Y0359816D01*
X0138430Y0359548D01*
X0138905Y0359269D01*
X0139373Y0358978D01*
X0139834Y0358675D01*
X0140287Y0358362D01*
X0140732Y0358037D01*
X0141170Y0357702D01*
X0141599Y0357356D01*
X0142019Y0356999D01*
X0142431Y0356633D01*
X0142833Y0356256D01*
X0143226Y0355870D01*
X0143610Y0355475D01*
X0143984Y0355070D01*
X0144348Y0354656D01*
X0144701Y0354233D01*
X0145044Y0353802D01*
X0145377Y0353362D01*
X0145699Y0352915D01*
X0146009Y0352459D01*
X0146309Y0351997D01*
X0146597Y0351527D01*
X0146873Y0351050D01*
X0147138Y0350567D01*
X0147391Y0350077D01*
X0147632Y0349581D01*
X0147860Y0349080D01*
X0148077Y0348573D01*
X0148280Y0348061D01*
X0148472Y0347544D01*
X0148650Y0347023D01*
X0148816Y0346497D01*
X0148969Y0345968D01*
X0149109Y0345435D01*
X0149236Y0344898D01*
X0149349Y0344359D01*
X0149450Y0343817D01*
X0149537Y0343273D01*
X0149611Y0342727D01*
X0149671Y0342179D01*
X0149718Y0341630D01*
X0149752Y0341080D01*
X0149772Y0340529D01*
X0149779Y0339978D01*
X0204407Y0366472D02*
X0204407Y0409803D01*
X0204414Y0410354D01*
X0204434Y0410905D01*
X0204468Y0411455D01*
X0204515Y0412004D01*
X0204575Y0412552D01*
X0204649Y0413098D01*
X0204736Y0413642D01*
X0204837Y0414184D01*
X0204950Y0414723D01*
X0205077Y0415260D01*
X0205217Y0415793D01*
X0205370Y0416322D01*
X0205536Y0416848D01*
X0205714Y0417369D01*
X0205906Y0417886D01*
X0206109Y0418398D01*
X0206326Y0418905D01*
X0206554Y0419406D01*
X0206795Y0419902D01*
X0207048Y0420392D01*
X0207313Y0420875D01*
X0207589Y0421352D01*
X0207877Y0421822D01*
X0208177Y0422284D01*
X0208487Y0422740D01*
X0208809Y0423187D01*
X0209142Y0423627D01*
X0209485Y0424058D01*
X0209838Y0424481D01*
X0210202Y0424895D01*
X0210576Y0425300D01*
X0210960Y0425695D01*
X0211353Y0426081D01*
X0211755Y0426458D01*
X0212167Y0426824D01*
X0212587Y0427181D01*
X0213016Y0427527D01*
X0213454Y0427862D01*
X0213899Y0428187D01*
X0214352Y0428500D01*
X0214813Y0428803D01*
X0215281Y0429094D01*
X0215756Y0429373D01*
X0216238Y0429641D01*
X0216726Y0429897D01*
X0217220Y0430141D01*
X0217720Y0430373D01*
X0218225Y0430593D01*
X0218736Y0430800D01*
X0219252Y0430994D01*
X0219772Y0431176D01*
X0220296Y0431345D01*
X0220825Y0431502D01*
X0221357Y0431645D01*
X0221893Y0431775D01*
X0222431Y0431892D01*
X0222972Y0431996D01*
X0223516Y0432087D01*
X0224062Y0432165D01*
X0224609Y0432229D01*
X0225158Y0432279D01*
X0225708Y0432316D01*
X0226258Y0432340D01*
X0226809Y0432351D01*
X0227360Y0432347D01*
X0227911Y0432331D01*
X0228461Y0432301D01*
X0229011Y0432257D01*
X0229559Y0432200D01*
X0230106Y0432130D01*
X0230650Y0432046D01*
X0231193Y0431949D01*
X0231733Y0431839D01*
X0232270Y0431716D01*
X0232804Y0431579D01*
X0233334Y0431430D01*
X0233861Y0431267D01*
X0234384Y0431092D01*
X0234902Y0430904D01*
X0235415Y0430704D01*
X0235923Y0430491D01*
X0236426Y0430265D01*
X0236924Y0430028D01*
X0237415Y0429778D01*
X0237900Y0429516D01*
X0238378Y0429243D01*
X0238850Y0428958D01*
X0239315Y0428662D01*
X0239772Y0428354D01*
X0267669Y0409079D01*
X0269368Y0405840D02*
X0269368Y0348063D01*
X0269366Y0347939D01*
X0269360Y0347816D01*
X0269351Y0347692D01*
X0269337Y0347570D01*
X0269320Y0347447D01*
X0269298Y0347325D01*
X0269273Y0347204D01*
X0269244Y0347084D01*
X0269212Y0346965D01*
X0269175Y0346846D01*
X0269135Y0346729D01*
X0269092Y0346614D01*
X0269044Y0346499D01*
X0268993Y0346387D01*
X0268939Y0346276D01*
X0268881Y0346166D01*
X0268820Y0346059D01*
X0268755Y0345953D01*
X0268687Y0345850D01*
X0268616Y0345749D01*
X0268542Y0345650D01*
X0268465Y0345553D01*
X0268384Y0345459D01*
X0268301Y0345368D01*
X0268215Y0345279D01*
X0268126Y0345193D01*
X0268035Y0345110D01*
X0267941Y0345029D01*
X0267844Y0344952D01*
X0267745Y0344878D01*
X0267644Y0344807D01*
X0267541Y0344739D01*
X0267435Y0344674D01*
X0267328Y0344613D01*
X0267218Y0344555D01*
X0267107Y0344501D01*
X0266995Y0344450D01*
X0266880Y0344402D01*
X0266765Y0344359D01*
X0266648Y0344319D01*
X0266529Y0344282D01*
X0266410Y0344250D01*
X0266290Y0344221D01*
X0266169Y0344196D01*
X0266047Y0344174D01*
X0265924Y0344157D01*
X0265802Y0344143D01*
X0265678Y0344134D01*
X0265555Y0344128D01*
X0265431Y0344126D01*
X0226753Y0344126D01*
X0226213Y0344133D01*
X0225673Y0344152D01*
X0225134Y0344185D01*
X0224596Y0344230D01*
X0224059Y0344289D01*
X0223524Y0344360D01*
X0222991Y0344445D01*
X0222460Y0344542D01*
X0221931Y0344652D01*
X0221405Y0344775D01*
X0220883Y0344911D01*
X0220363Y0345059D01*
X0219848Y0345220D01*
X0219336Y0345393D01*
X0218829Y0345578D01*
X0218326Y0345776D01*
X0217829Y0345985D01*
X0217336Y0346207D01*
X0216849Y0346440D01*
X0216368Y0346686D01*
X0215893Y0346942D01*
X0215424Y0347210D01*
X0214962Y0347490D01*
X0214507Y0347780D01*
X0214059Y0348082D01*
X0213618Y0348394D01*
X0213185Y0348716D01*
X0212760Y0349049D01*
X0212343Y0349393D01*
X0211935Y0349746D01*
X0211535Y0350109D01*
X0211144Y0350481D01*
X0210762Y0350863D01*
X0210390Y0351254D01*
X0210027Y0351654D01*
X0209674Y0352062D01*
X0209330Y0352479D01*
X0208997Y0352904D01*
X0208675Y0353337D01*
X0208363Y0353778D01*
X0208061Y0354226D01*
X0207771Y0354681D01*
X0207491Y0355143D01*
X0207223Y0355612D01*
X0206967Y0356087D01*
X0206721Y0356568D01*
X0206488Y0357055D01*
X0206266Y0357548D01*
X0206057Y0358045D01*
X0205859Y0358548D01*
X0205674Y0359055D01*
X0205501Y0359567D01*
X0205340Y0360082D01*
X0205192Y0360602D01*
X0205056Y0361124D01*
X0204933Y0361650D01*
X0204823Y0362179D01*
X0204726Y0362710D01*
X0204641Y0363243D01*
X0204570Y0363778D01*
X0204511Y0364315D01*
X0204466Y0364853D01*
X0204433Y0365392D01*
X0204414Y0365932D01*
X0204407Y0366472D01*
X0256894Y0283393D02*
X0284791Y0264119D01*
X0286490Y0260880D02*
X0286490Y0203102D01*
X0286488Y0202978D01*
X0286482Y0202855D01*
X0286473Y0202731D01*
X0286459Y0202609D01*
X0286442Y0202486D01*
X0286420Y0202364D01*
X0286395Y0202243D01*
X0286366Y0202123D01*
X0286334Y0202004D01*
X0286297Y0201885D01*
X0286257Y0201768D01*
X0286214Y0201653D01*
X0286166Y0201538D01*
X0286115Y0201426D01*
X0286061Y0201315D01*
X0286003Y0201205D01*
X0285942Y0201098D01*
X0285877Y0200992D01*
X0285809Y0200889D01*
X0285738Y0200788D01*
X0285664Y0200689D01*
X0285587Y0200592D01*
X0285506Y0200498D01*
X0285423Y0200407D01*
X0285337Y0200318D01*
X0285248Y0200232D01*
X0285157Y0200149D01*
X0285063Y0200068D01*
X0284966Y0199991D01*
X0284867Y0199917D01*
X0284766Y0199846D01*
X0284663Y0199778D01*
X0284557Y0199713D01*
X0284450Y0199652D01*
X0284340Y0199594D01*
X0284229Y0199540D01*
X0284117Y0199489D01*
X0284002Y0199441D01*
X0283887Y0199398D01*
X0283770Y0199358D01*
X0283651Y0199321D01*
X0283532Y0199289D01*
X0283412Y0199260D01*
X0283291Y0199235D01*
X0283169Y0199213D01*
X0283046Y0199196D01*
X0282924Y0199182D01*
X0282800Y0199173D01*
X0282677Y0199167D01*
X0282553Y0199165D01*
X0243875Y0199165D01*
X0243335Y0199172D01*
X0242795Y0199191D01*
X0242256Y0199224D01*
X0241718Y0199269D01*
X0241181Y0199328D01*
X0240646Y0199399D01*
X0240113Y0199484D01*
X0239582Y0199581D01*
X0239053Y0199691D01*
X0238527Y0199814D01*
X0238005Y0199950D01*
X0237485Y0200098D01*
X0236970Y0200259D01*
X0236458Y0200432D01*
X0235951Y0200617D01*
X0235448Y0200815D01*
X0234951Y0201024D01*
X0234458Y0201246D01*
X0233971Y0201479D01*
X0233490Y0201725D01*
X0233015Y0201981D01*
X0232546Y0202249D01*
X0232084Y0202529D01*
X0231629Y0202819D01*
X0231181Y0203121D01*
X0230740Y0203433D01*
X0230307Y0203755D01*
X0229882Y0204088D01*
X0229465Y0204432D01*
X0229057Y0204785D01*
X0228657Y0205148D01*
X0228266Y0205520D01*
X0227884Y0205902D01*
X0227512Y0206293D01*
X0227149Y0206693D01*
X0226796Y0207101D01*
X0226452Y0207518D01*
X0226119Y0207943D01*
X0225797Y0208376D01*
X0225485Y0208817D01*
X0225183Y0209265D01*
X0224893Y0209720D01*
X0224613Y0210182D01*
X0224345Y0210651D01*
X0224089Y0211126D01*
X0223843Y0211607D01*
X0223610Y0212094D01*
X0223388Y0212587D01*
X0223179Y0213084D01*
X0222981Y0213587D01*
X0222796Y0214094D01*
X0222623Y0214606D01*
X0222462Y0215121D01*
X0222314Y0215641D01*
X0222178Y0216163D01*
X0222055Y0216689D01*
X0221945Y0217218D01*
X0221848Y0217749D01*
X0221763Y0218282D01*
X0221692Y0218817D01*
X0221633Y0219354D01*
X0221588Y0219892D01*
X0221555Y0220431D01*
X0221536Y0220971D01*
X0221529Y0221511D01*
X0221530Y0221511D02*
X0221530Y0264842D01*
X0221529Y0264842D02*
X0221536Y0265393D01*
X0221556Y0265944D01*
X0221590Y0266494D01*
X0221637Y0267043D01*
X0221697Y0267591D01*
X0221771Y0268137D01*
X0221858Y0268681D01*
X0221959Y0269223D01*
X0222072Y0269762D01*
X0222199Y0270299D01*
X0222339Y0270832D01*
X0222492Y0271361D01*
X0222658Y0271887D01*
X0222836Y0272408D01*
X0223028Y0272925D01*
X0223231Y0273437D01*
X0223448Y0273944D01*
X0223676Y0274445D01*
X0223917Y0274941D01*
X0224170Y0275431D01*
X0224435Y0275914D01*
X0224711Y0276391D01*
X0224999Y0276861D01*
X0225299Y0277323D01*
X0225609Y0277779D01*
X0225931Y0278226D01*
X0226264Y0278666D01*
X0226607Y0279097D01*
X0226960Y0279520D01*
X0227324Y0279934D01*
X0227698Y0280339D01*
X0228082Y0280734D01*
X0228475Y0281120D01*
X0228877Y0281497D01*
X0229289Y0281863D01*
X0229709Y0282220D01*
X0230138Y0282566D01*
X0230576Y0282901D01*
X0231021Y0283226D01*
X0231474Y0283539D01*
X0231935Y0283842D01*
X0232403Y0284133D01*
X0232878Y0284412D01*
X0233360Y0284680D01*
X0233848Y0284936D01*
X0234342Y0285180D01*
X0234842Y0285412D01*
X0235347Y0285632D01*
X0235858Y0285839D01*
X0236374Y0286033D01*
X0236894Y0286215D01*
X0237418Y0286384D01*
X0237947Y0286541D01*
X0238479Y0286684D01*
X0239015Y0286814D01*
X0239553Y0286931D01*
X0240094Y0287035D01*
X0240638Y0287126D01*
X0241184Y0287204D01*
X0241731Y0287268D01*
X0242280Y0287318D01*
X0242830Y0287355D01*
X0243380Y0287379D01*
X0243931Y0287390D01*
X0244482Y0287386D01*
X0245033Y0287370D01*
X0245583Y0287340D01*
X0246133Y0287296D01*
X0246681Y0287239D01*
X0247228Y0287169D01*
X0247772Y0287085D01*
X0248315Y0286988D01*
X0248855Y0286878D01*
X0249392Y0286755D01*
X0249926Y0286618D01*
X0250456Y0286469D01*
X0250983Y0286306D01*
X0251506Y0286131D01*
X0252024Y0285943D01*
X0252537Y0285743D01*
X0253045Y0285530D01*
X0253548Y0285304D01*
X0254046Y0285067D01*
X0254537Y0284817D01*
X0255022Y0284555D01*
X0255500Y0284282D01*
X0255972Y0283997D01*
X0256437Y0283701D01*
X0256894Y0283393D01*
X0284791Y0264119D02*
X0284891Y0264048D01*
X0284988Y0263973D01*
X0285084Y0263896D01*
X0285176Y0263816D01*
X0285267Y0263732D01*
X0285354Y0263647D01*
X0285439Y0263558D01*
X0285521Y0263467D01*
X0285600Y0263373D01*
X0285676Y0263277D01*
X0285750Y0263178D01*
X0285820Y0263078D01*
X0285887Y0262975D01*
X0285950Y0262870D01*
X0286011Y0262763D01*
X0286068Y0262654D01*
X0286121Y0262544D01*
X0286171Y0262432D01*
X0286218Y0262318D01*
X0286261Y0262203D01*
X0286300Y0262087D01*
X0286336Y0261970D01*
X0286368Y0261852D01*
X0286397Y0261732D01*
X0286421Y0261612D01*
X0286442Y0261491D01*
X0286459Y0261370D01*
X0286473Y0261248D01*
X0286482Y0261125D01*
X0286488Y0261003D01*
X0286490Y0260880D01*
X0283390Y0136310D02*
X0311287Y0117036D01*
X0312986Y0113797D02*
X0312986Y0056020D01*
X0312984Y0055896D01*
X0312978Y0055773D01*
X0312969Y0055649D01*
X0312955Y0055527D01*
X0312938Y0055404D01*
X0312916Y0055282D01*
X0312891Y0055161D01*
X0312862Y0055041D01*
X0312830Y0054922D01*
X0312793Y0054803D01*
X0312753Y0054686D01*
X0312710Y0054571D01*
X0312662Y0054456D01*
X0312611Y0054344D01*
X0312557Y0054233D01*
X0312499Y0054123D01*
X0312438Y0054016D01*
X0312373Y0053910D01*
X0312305Y0053807D01*
X0312234Y0053706D01*
X0312160Y0053607D01*
X0312083Y0053510D01*
X0312002Y0053416D01*
X0311919Y0053325D01*
X0311833Y0053236D01*
X0311744Y0053150D01*
X0311653Y0053067D01*
X0311559Y0052986D01*
X0311462Y0052909D01*
X0311363Y0052835D01*
X0311262Y0052764D01*
X0311159Y0052696D01*
X0311053Y0052631D01*
X0310946Y0052570D01*
X0310836Y0052512D01*
X0310725Y0052458D01*
X0310613Y0052407D01*
X0310498Y0052359D01*
X0310383Y0052316D01*
X0310266Y0052276D01*
X0310147Y0052239D01*
X0310028Y0052207D01*
X0309908Y0052178D01*
X0309787Y0052153D01*
X0309665Y0052131D01*
X0309542Y0052114D01*
X0309420Y0052100D01*
X0309296Y0052091D01*
X0309173Y0052085D01*
X0309049Y0052083D01*
X0270371Y0052083D01*
X0270371Y0052082D02*
X0269831Y0052089D01*
X0269291Y0052108D01*
X0268752Y0052141D01*
X0268214Y0052186D01*
X0267677Y0052245D01*
X0267142Y0052316D01*
X0266609Y0052401D01*
X0266078Y0052498D01*
X0265549Y0052608D01*
X0265023Y0052731D01*
X0264501Y0052867D01*
X0263981Y0053015D01*
X0263466Y0053176D01*
X0262954Y0053349D01*
X0262447Y0053534D01*
X0261944Y0053732D01*
X0261447Y0053941D01*
X0260954Y0054163D01*
X0260467Y0054396D01*
X0259986Y0054642D01*
X0259511Y0054898D01*
X0259042Y0055166D01*
X0258580Y0055446D01*
X0258125Y0055736D01*
X0257677Y0056038D01*
X0257236Y0056350D01*
X0256803Y0056672D01*
X0256378Y0057005D01*
X0255961Y0057349D01*
X0255553Y0057702D01*
X0255153Y0058065D01*
X0254762Y0058437D01*
X0254380Y0058819D01*
X0254008Y0059210D01*
X0253645Y0059610D01*
X0253292Y0060018D01*
X0252948Y0060435D01*
X0252615Y0060860D01*
X0252293Y0061293D01*
X0251981Y0061734D01*
X0251679Y0062182D01*
X0251389Y0062637D01*
X0251109Y0063099D01*
X0250841Y0063568D01*
X0250585Y0064043D01*
X0250339Y0064524D01*
X0250106Y0065011D01*
X0249884Y0065504D01*
X0249675Y0066001D01*
X0249477Y0066504D01*
X0249292Y0067011D01*
X0249119Y0067523D01*
X0248958Y0068038D01*
X0248810Y0068558D01*
X0248674Y0069080D01*
X0248551Y0069606D01*
X0248441Y0070135D01*
X0248344Y0070666D01*
X0248259Y0071199D01*
X0248188Y0071734D01*
X0248129Y0072271D01*
X0248084Y0072809D01*
X0248051Y0073348D01*
X0248032Y0073888D01*
X0248025Y0074428D01*
X0248026Y0074428D02*
X0248026Y0117760D01*
X0248025Y0117760D02*
X0248032Y0118311D01*
X0248052Y0118862D01*
X0248086Y0119412D01*
X0248133Y0119961D01*
X0248193Y0120509D01*
X0248267Y0121055D01*
X0248354Y0121599D01*
X0248455Y0122141D01*
X0248568Y0122680D01*
X0248695Y0123217D01*
X0248835Y0123750D01*
X0248988Y0124279D01*
X0249154Y0124805D01*
X0249332Y0125326D01*
X0249524Y0125843D01*
X0249727Y0126355D01*
X0249944Y0126862D01*
X0250172Y0127363D01*
X0250413Y0127859D01*
X0250666Y0128349D01*
X0250931Y0128832D01*
X0251207Y0129309D01*
X0251495Y0129779D01*
X0251795Y0130241D01*
X0252105Y0130697D01*
X0252427Y0131144D01*
X0252760Y0131584D01*
X0253103Y0132015D01*
X0253456Y0132438D01*
X0253820Y0132852D01*
X0254194Y0133257D01*
X0254578Y0133652D01*
X0254971Y0134038D01*
X0255373Y0134415D01*
X0255785Y0134781D01*
X0256205Y0135138D01*
X0256634Y0135484D01*
X0257072Y0135819D01*
X0257517Y0136144D01*
X0257970Y0136457D01*
X0258431Y0136760D01*
X0258899Y0137051D01*
X0259374Y0137330D01*
X0259856Y0137598D01*
X0260344Y0137854D01*
X0260838Y0138098D01*
X0261338Y0138330D01*
X0261843Y0138550D01*
X0262354Y0138757D01*
X0262870Y0138951D01*
X0263390Y0139133D01*
X0263914Y0139302D01*
X0264443Y0139459D01*
X0264975Y0139602D01*
X0265511Y0139732D01*
X0266049Y0139849D01*
X0266590Y0139953D01*
X0267134Y0140044D01*
X0267680Y0140122D01*
X0268227Y0140186D01*
X0268776Y0140236D01*
X0269326Y0140273D01*
X0269876Y0140297D01*
X0270427Y0140308D01*
X0270978Y0140304D01*
X0271529Y0140288D01*
X0272079Y0140258D01*
X0272629Y0140214D01*
X0273177Y0140157D01*
X0273724Y0140087D01*
X0274268Y0140003D01*
X0274811Y0139906D01*
X0275351Y0139796D01*
X0275888Y0139673D01*
X0276422Y0139536D01*
X0276952Y0139387D01*
X0277479Y0139224D01*
X0278002Y0139049D01*
X0278520Y0138861D01*
X0279033Y0138661D01*
X0279541Y0138448D01*
X0280044Y0138222D01*
X0280542Y0137985D01*
X0281033Y0137735D01*
X0281518Y0137473D01*
X0281996Y0137200D01*
X0282468Y0136915D01*
X0282933Y0136619D01*
X0283390Y0136311D01*
X0311287Y0117036D02*
X0311387Y0116965D01*
X0311484Y0116890D01*
X0311580Y0116813D01*
X0311672Y0116733D01*
X0311763Y0116649D01*
X0311850Y0116564D01*
X0311935Y0116475D01*
X0312017Y0116384D01*
X0312096Y0116290D01*
X0312172Y0116194D01*
X0312246Y0116095D01*
X0312316Y0115995D01*
X0312383Y0115892D01*
X0312446Y0115787D01*
X0312507Y0115680D01*
X0312564Y0115571D01*
X0312617Y0115461D01*
X0312667Y0115349D01*
X0312714Y0115235D01*
X0312757Y0115120D01*
X0312796Y0115004D01*
X0312832Y0114887D01*
X0312864Y0114769D01*
X0312893Y0114649D01*
X0312917Y0114529D01*
X0312938Y0114408D01*
X0312955Y0114287D01*
X0312969Y0114165D01*
X0312978Y0114042D01*
X0312984Y0113920D01*
X0312986Y0113797D01*
X0228396Y0024969D02*
X0228396Y0021031D01*
X0228396Y0024969D02*
X0204774Y0024969D01*
X0204774Y0021031D01*
X0204774Y0015126D02*
X0204774Y0011189D01*
X0228396Y0011189D01*
X0228396Y0015126D01*
X0190396Y0015126D02*
X0190396Y0011189D01*
X0166774Y0011189D01*
X0166774Y0015126D01*
X0166774Y0021031D02*
X0166774Y0024969D01*
X0190396Y0024969D01*
X0190396Y0021031D01*
X0152396Y0021031D02*
X0152396Y0024969D01*
X0128774Y0024969D01*
X0128774Y0021031D01*
X0128774Y0015126D02*
X0128774Y0011189D01*
X0152396Y0011189D01*
X0152396Y0015126D01*
X0269368Y0405840D02*
X0269366Y0405963D01*
X0269360Y0406085D01*
X0269351Y0406208D01*
X0269337Y0406330D01*
X0269320Y0406451D01*
X0269299Y0406572D01*
X0269275Y0406692D01*
X0269246Y0406812D01*
X0269214Y0406930D01*
X0269178Y0407047D01*
X0269139Y0407163D01*
X0269096Y0407278D01*
X0269049Y0407392D01*
X0268999Y0407504D01*
X0268946Y0407614D01*
X0268889Y0407723D01*
X0268828Y0407830D01*
X0268765Y0407935D01*
X0268698Y0408038D01*
X0268628Y0408138D01*
X0268554Y0408237D01*
X0268478Y0408333D01*
X0268399Y0408427D01*
X0268317Y0408518D01*
X0268232Y0408607D01*
X0268145Y0408692D01*
X0268054Y0408776D01*
X0267962Y0408856D01*
X0267866Y0408933D01*
X0267769Y0409008D01*
X0267669Y0409079D01*
X0233219Y0460724D02*
X0216683Y0460724D01*
X0216683Y0478047D01*
X0233219Y0478047D01*
X0233219Y0460724D01*
D11*
X0189433Y0425919D02*
X0189433Y0419738D01*
X0189063Y0419738D01*
X0185890Y0419738D02*
X0181780Y0419738D01*
X0178606Y0419738D02*
X0178236Y0419738D01*
X0178236Y0425919D01*
X0178606Y0425919D01*
X0181780Y0425919D02*
X0182150Y0425919D01*
X0185520Y0425919D02*
X0185890Y0425919D01*
X0189063Y0425919D02*
X0189433Y0425919D01*
X0151585Y0488579D02*
X0152585Y0489579D01*
X0152585Y0497579D01*
X0151585Y0498579D01*
X0143585Y0498579D01*
X0142585Y0497579D01*
X0141585Y0498579D01*
X0133585Y0498579D01*
X0132585Y0497579D01*
X0132585Y0489579D01*
X0133585Y0488579D01*
X0141585Y0488579D01*
X0142585Y0489579D01*
X0143585Y0488579D01*
X0151585Y0488579D01*
X0132551Y0489548D02*
X0131551Y0488548D01*
X0123551Y0488548D01*
X0122551Y0489548D01*
X0121551Y0488548D01*
X0113551Y0488548D01*
X0112551Y0489548D01*
X0111551Y0488548D01*
X0103551Y0488548D01*
X0102551Y0489548D01*
X0102551Y0497548D01*
X0103551Y0498548D01*
X0111551Y0498548D01*
X0112551Y0497548D01*
X0113551Y0498548D01*
X0121551Y0498548D01*
X0122551Y0497548D01*
X0123551Y0498548D01*
X0131551Y0498548D01*
X0132551Y0497548D01*
X0132551Y0489548D01*
X0133998Y0525549D02*
X0125998Y0525549D01*
X0124998Y0526549D01*
X0123998Y0525549D01*
X0115998Y0525549D01*
X0114998Y0526549D01*
X0114998Y0534549D01*
X0115998Y0535549D01*
X0123998Y0535549D01*
X0124998Y0534549D01*
X0125998Y0535549D01*
X0133998Y0535549D01*
X0134998Y0534549D01*
X0135998Y0535549D01*
X0143998Y0535549D01*
X0144998Y0534549D01*
X0144998Y0526549D01*
X0143998Y0525549D01*
X0135998Y0525549D01*
X0134998Y0526549D01*
X0133998Y0525549D01*
X0134085Y0547704D02*
X0126085Y0547704D01*
X0125085Y0548704D01*
X0124085Y0547704D01*
X0116085Y0547704D01*
X0115085Y0548704D01*
X0115085Y0556704D01*
X0116085Y0557704D01*
X0124085Y0557704D01*
X0125085Y0556704D01*
X0126085Y0557704D01*
X0134085Y0557704D01*
X0135085Y0556704D01*
X0135085Y0548704D01*
X0134085Y0547704D01*
X0163099Y0141694D02*
X0163099Y0138594D01*
X0163099Y0141694D02*
X0166199Y0141694D01*
X0163099Y0105394D02*
X0163099Y0102294D01*
X0166199Y0102294D01*
X0199399Y0102294D02*
X0202499Y0102294D01*
X0202499Y0105394D01*
X0201099Y0138094D02*
X0198899Y0140294D01*
X0199399Y0141694D02*
X0202499Y0141694D01*
X0202499Y0138594D01*
D12*
X0206019Y0141443D02*
X0207587Y0141443D01*
X0206803Y0141443D02*
X0206803Y0146147D01*
X0206019Y0146147D02*
X0207587Y0146147D01*
X0209089Y0145363D02*
X0209089Y0142227D01*
X0209873Y0141443D01*
X0211441Y0141443D01*
X0212225Y0142227D01*
X0213692Y0141443D02*
X0216829Y0141443D01*
X0215260Y0141443D02*
X0215260Y0146147D01*
X0213692Y0144579D01*
X0212225Y0145363D02*
X0211441Y0146147D01*
X0209873Y0146147D01*
X0209089Y0145363D01*
X0222142Y0108687D02*
X0224077Y0108687D01*
X0225045Y0107719D01*
X0224077Y0106752D01*
X0222142Y0106752D01*
X0222626Y0105740D02*
X0223594Y0105740D01*
X0224077Y0105256D01*
X0224077Y0103805D01*
X0224077Y0104773D02*
X0225045Y0105740D01*
X0225045Y0103805D02*
X0222142Y0103805D01*
X0222142Y0105256D01*
X0222626Y0105740D01*
X0222626Y0102794D02*
X0222142Y0102310D01*
X0222142Y0100859D01*
X0225045Y0100859D01*
X0225045Y0102310D01*
X0224561Y0102794D01*
X0222626Y0102794D01*
X0225529Y0099847D02*
X0225529Y0097912D01*
X0225045Y0096901D02*
X0225045Y0094966D01*
X0225045Y0095933D02*
X0222142Y0095933D01*
X0223110Y0094966D01*
X0223594Y0093954D02*
X0223594Y0092019D01*
X0225045Y0092019D02*
X0222142Y0092019D01*
X0222142Y0093954D02*
X0225045Y0093954D01*
X0263211Y0180993D02*
X0265146Y0180993D01*
X0266157Y0180510D02*
X0268092Y0180510D01*
X0269104Y0180993D02*
X0270555Y0180993D01*
X0271039Y0181477D01*
X0271039Y0183412D01*
X0270555Y0183896D01*
X0269104Y0183896D01*
X0269104Y0180993D01*
X0272050Y0180993D02*
X0272050Y0183896D01*
X0273502Y0183896D01*
X0273985Y0183412D01*
X0273985Y0182445D01*
X0273502Y0181961D01*
X0272050Y0181961D01*
X0273018Y0181961D02*
X0273985Y0180993D01*
X0274997Y0181961D02*
X0275964Y0180993D01*
X0276932Y0181961D01*
X0276932Y0183896D01*
X0274997Y0183896D02*
X0274997Y0181961D01*
X0265146Y0183896D02*
X0263211Y0183896D01*
X0263211Y0180993D01*
X0263211Y0182445D02*
X0264178Y0182445D01*
X0252451Y0325976D02*
X0250516Y0325976D01*
X0249504Y0326460D02*
X0249504Y0328395D01*
X0248537Y0329362D01*
X0247569Y0328395D01*
X0247569Y0326460D01*
X0247569Y0327911D02*
X0249504Y0327911D01*
X0253462Y0326460D02*
X0254913Y0326460D01*
X0255397Y0326944D01*
X0255397Y0328879D01*
X0254913Y0329362D01*
X0253462Y0329362D01*
X0253462Y0326460D01*
X0256409Y0326460D02*
X0256409Y0329362D01*
X0257860Y0329362D01*
X0258344Y0328879D01*
X0258344Y0327911D01*
X0257860Y0327427D01*
X0256409Y0327427D01*
X0257376Y0327427D02*
X0258344Y0326460D01*
X0259355Y0327427D02*
X0260323Y0326460D01*
X0261290Y0327427D01*
X0261290Y0329362D01*
X0259355Y0329362D02*
X0259355Y0327427D01*
X0124336Y0114015D02*
X0125304Y0113048D01*
X0124336Y0112080D01*
X0122401Y0112080D01*
X0122885Y0111069D02*
X0123853Y0111069D01*
X0124336Y0110585D01*
X0124336Y0109134D01*
X0124336Y0110101D02*
X0125304Y0111069D01*
X0125304Y0109134D02*
X0122401Y0109134D01*
X0122401Y0110585D01*
X0122885Y0111069D01*
X0122885Y0108122D02*
X0122401Y0107639D01*
X0122401Y0106187D01*
X0125304Y0106187D01*
X0125304Y0107639D01*
X0124820Y0108122D01*
X0122885Y0108122D01*
X0125788Y0105176D02*
X0125788Y0103241D01*
X0125304Y0102229D02*
X0125304Y0100294D01*
X0125304Y0101262D02*
X0122401Y0101262D01*
X0123369Y0100294D01*
X0122401Y0099283D02*
X0122401Y0097348D01*
X0125304Y0097348D01*
X0125304Y0099283D01*
X0123853Y0098315D02*
X0123853Y0097348D01*
X0124336Y0114015D02*
X0122401Y0114015D01*
X0088759Y0147744D02*
X0088759Y0149679D01*
X0088759Y0147744D02*
X0087791Y0146777D01*
X0086824Y0147744D01*
X0086824Y0149679D01*
X0085812Y0149195D02*
X0085812Y0148228D01*
X0085328Y0147744D01*
X0083877Y0147744D01*
X0083877Y0146777D02*
X0083877Y0149679D01*
X0085328Y0149679D01*
X0085812Y0149195D01*
X0084845Y0147744D02*
X0085812Y0146777D01*
X0082866Y0147261D02*
X0082866Y0149195D01*
X0082382Y0149679D01*
X0080931Y0149679D01*
X0080931Y0146777D01*
X0082382Y0146777D01*
X0082866Y0147261D01*
X0079919Y0146293D02*
X0077984Y0146293D01*
X0076973Y0146777D02*
X0076973Y0149679D01*
X0076973Y0148228D02*
X0075038Y0148228D01*
X0075038Y0146777D02*
X0075038Y0149679D01*
X0095024Y0256262D02*
X0096959Y0256262D01*
X0097970Y0256745D02*
X0099421Y0256745D01*
X0099905Y0257229D01*
X0099905Y0259164D01*
X0099421Y0259648D01*
X0097970Y0259648D01*
X0097970Y0256745D01*
X0100917Y0256745D02*
X0100917Y0259648D01*
X0102368Y0259648D01*
X0102852Y0259164D01*
X0102852Y0258197D01*
X0102368Y0257713D01*
X0100917Y0257713D01*
X0101884Y0257713D02*
X0102852Y0256745D01*
X0103863Y0257713D02*
X0104831Y0256745D01*
X0105798Y0257713D01*
X0105798Y0259648D01*
X0103863Y0259648D02*
X0103863Y0257713D01*
X0094012Y0258197D02*
X0093044Y0258197D01*
X0094012Y0258197D02*
X0094012Y0257229D01*
X0093528Y0256745D01*
X0092561Y0256745D01*
X0092077Y0257229D01*
X0092077Y0259164D01*
X0092561Y0259648D01*
X0093528Y0259648D01*
X0094012Y0259164D01*
X0111161Y0370017D02*
X0113096Y0370017D01*
X0114108Y0370501D02*
X0115559Y0370501D01*
X0116043Y0370985D01*
X0116043Y0372920D01*
X0115559Y0373404D01*
X0114108Y0373404D01*
X0114108Y0370501D01*
X0117054Y0370501D02*
X0117054Y0373404D01*
X0118506Y0373404D01*
X0118989Y0372920D01*
X0118989Y0371952D01*
X0118506Y0371469D01*
X0117054Y0371469D01*
X0118022Y0371469D02*
X0118989Y0370501D01*
X0120001Y0371469D02*
X0120968Y0370501D01*
X0121936Y0371469D01*
X0121936Y0373404D01*
X0120001Y0373404D02*
X0120001Y0371469D01*
X0110150Y0370985D02*
X0110150Y0372920D01*
X0109666Y0373404D01*
X0108215Y0373404D01*
X0108215Y0370501D01*
X0109666Y0370501D01*
X0110150Y0370985D01*
D13*
X0132944Y0371139D02*
X0132944Y0369604D01*
X0133711Y0368837D01*
X0136781Y0368837D01*
X0137548Y0369604D01*
X0137548Y0371139D01*
X0136781Y0371906D01*
X0137548Y0373441D02*
X0134479Y0376510D01*
X0133711Y0376510D01*
X0132944Y0375743D01*
X0132944Y0374208D01*
X0133711Y0373441D01*
X0133711Y0371906D02*
X0132944Y0371139D01*
X0137548Y0373441D02*
X0137548Y0376510D01*
X0136781Y0378045D02*
X0137548Y0378812D01*
X0137548Y0380347D01*
X0136781Y0381114D01*
X0135246Y0381114D01*
X0134479Y0380347D01*
X0134479Y0379580D01*
X0135246Y0378045D01*
X0132944Y0378045D01*
X0132944Y0381114D01*
X0149633Y0380869D02*
X0149633Y0385473D01*
X0151935Y0385473D01*
X0152702Y0384706D01*
X0152702Y0383171D01*
X0151935Y0382404D01*
X0149633Y0382404D01*
X0151168Y0382404D02*
X0152702Y0380869D01*
X0154237Y0380869D02*
X0157306Y0380869D01*
X0155772Y0380869D02*
X0155772Y0385473D01*
X0154237Y0383939D01*
X0158841Y0383171D02*
X0161910Y0383171D01*
X0161143Y0380869D02*
X0161143Y0385473D01*
X0158841Y0383171D01*
X0159608Y0376848D02*
X0161143Y0376848D01*
X0161910Y0376081D01*
X0161910Y0375314D01*
X0161143Y0374546D01*
X0161910Y0373779D01*
X0161910Y0373012D01*
X0161143Y0372244D01*
X0159608Y0372244D01*
X0158841Y0373012D01*
X0157306Y0372244D02*
X0154237Y0372244D01*
X0155772Y0372244D02*
X0155772Y0376848D01*
X0154237Y0375314D01*
X0152702Y0376081D02*
X0152702Y0374546D01*
X0151935Y0373779D01*
X0149633Y0373779D01*
X0149633Y0372244D02*
X0149633Y0376848D01*
X0151935Y0376848D01*
X0152702Y0376081D01*
X0151168Y0373779D02*
X0152702Y0372244D01*
X0153246Y0367917D02*
X0152478Y0367150D01*
X0152478Y0364080D01*
X0153246Y0363313D01*
X0154780Y0363313D01*
X0155548Y0364080D01*
X0157082Y0364080D02*
X0157850Y0363313D01*
X0159384Y0363313D01*
X0160152Y0364080D01*
X0160152Y0364848D01*
X0159384Y0365615D01*
X0158617Y0365615D01*
X0159384Y0365615D02*
X0160152Y0366382D01*
X0160152Y0367150D01*
X0159384Y0367917D01*
X0157850Y0367917D01*
X0157082Y0367150D01*
X0155548Y0367150D02*
X0154780Y0367917D01*
X0153246Y0367917D01*
X0160376Y0374546D02*
X0161143Y0374546D01*
X0158841Y0376081D02*
X0159608Y0376848D01*
X0180374Y0376400D02*
X0180374Y0373330D01*
X0181142Y0372563D01*
X0182676Y0372563D01*
X0183444Y0373330D01*
X0184978Y0372563D02*
X0188048Y0372563D01*
X0186513Y0372563D02*
X0186513Y0377167D01*
X0184978Y0375632D01*
X0183444Y0376400D02*
X0182676Y0377167D01*
X0181142Y0377167D01*
X0180374Y0376400D01*
X0189582Y0376400D02*
X0189582Y0375632D01*
X0190350Y0374865D01*
X0192652Y0374865D01*
X0192652Y0373330D02*
X0192652Y0376400D01*
X0191884Y0377167D01*
X0190350Y0377167D01*
X0189582Y0376400D01*
X0189582Y0373330D02*
X0190350Y0372563D01*
X0191884Y0372563D01*
X0192652Y0373330D01*
X0193264Y0358896D02*
X0192496Y0358128D01*
X0192496Y0356594D01*
X0193264Y0355826D01*
X0194031Y0355826D01*
X0194798Y0356594D01*
X0194798Y0358128D01*
X0195566Y0358896D01*
X0196333Y0358896D01*
X0197100Y0358128D01*
X0197100Y0356594D01*
X0196333Y0355826D01*
X0195566Y0355826D01*
X0194798Y0356594D01*
X0194798Y0358128D02*
X0194031Y0358896D01*
X0193264Y0358896D01*
X0197100Y0354292D02*
X0197100Y0351222D01*
X0197100Y0352757D02*
X0192496Y0352757D01*
X0194031Y0351222D01*
X0193264Y0349688D02*
X0192496Y0348920D01*
X0192496Y0347386D01*
X0193264Y0346619D01*
X0196333Y0346619D01*
X0197100Y0347386D01*
X0197100Y0348920D01*
X0196333Y0349688D01*
X0171652Y0338525D02*
X0171652Y0337757D01*
X0168582Y0334688D01*
X0171652Y0334688D01*
X0171652Y0338525D02*
X0170884Y0339292D01*
X0169350Y0339292D01*
X0168582Y0338525D01*
X0165513Y0339292D02*
X0165513Y0334688D01*
X0163978Y0334688D02*
X0167048Y0334688D01*
X0163978Y0337757D02*
X0165513Y0339292D01*
X0162444Y0338525D02*
X0162444Y0336990D01*
X0161676Y0336223D01*
X0159374Y0336223D01*
X0159374Y0334688D02*
X0159374Y0339292D01*
X0161676Y0339292D01*
X0162444Y0338525D01*
X0160909Y0336223D02*
X0162444Y0334688D01*
X0175713Y0301180D02*
X0175713Y0298111D01*
X0175713Y0299645D02*
X0171109Y0299645D01*
X0172644Y0298111D01*
X0171877Y0296576D02*
X0171109Y0295809D01*
X0171109Y0294274D01*
X0171877Y0293507D01*
X0174946Y0293507D01*
X0175713Y0294274D01*
X0175713Y0295809D01*
X0174946Y0296576D01*
X0173411Y0296576D01*
X0173411Y0295041D01*
X0174179Y0291972D02*
X0174946Y0291972D01*
X0175713Y0291205D01*
X0175713Y0289670D01*
X0174946Y0288903D01*
X0173411Y0289670D02*
X0173411Y0291205D01*
X0174179Y0291972D01*
X0171877Y0291972D02*
X0171109Y0291205D01*
X0171109Y0289670D01*
X0171877Y0288903D01*
X0172644Y0288903D01*
X0173411Y0289670D01*
X0174977Y0262227D02*
X0177279Y0262227D01*
X0178046Y0261460D01*
X0178046Y0259925D01*
X0177279Y0259158D01*
X0174977Y0259158D01*
X0176511Y0259158D02*
X0178046Y0257623D01*
X0179580Y0258391D02*
X0180348Y0257623D01*
X0181882Y0257623D01*
X0182650Y0258391D01*
X0182650Y0259925D01*
X0181882Y0260693D01*
X0181115Y0260693D01*
X0179580Y0259925D01*
X0179580Y0262227D01*
X0182650Y0262227D01*
X0174977Y0262227D02*
X0174977Y0257623D01*
X0168949Y0259086D02*
X0168949Y0259854D01*
X0168182Y0260621D01*
X0166647Y0260621D01*
X0165880Y0259854D01*
X0164345Y0259854D02*
X0163578Y0260621D01*
X0162043Y0260621D01*
X0161276Y0259854D01*
X0161276Y0256784D01*
X0162043Y0256017D01*
X0163578Y0256017D01*
X0164345Y0256784D01*
X0165880Y0256017D02*
X0168949Y0259086D01*
X0168949Y0256017D02*
X0165880Y0256017D01*
X0158462Y0245908D02*
X0159229Y0245140D01*
X0159229Y0243606D01*
X0158462Y0242838D01*
X0159229Y0241304D02*
X0157695Y0239769D01*
X0157695Y0240536D02*
X0157695Y0238234D01*
X0158127Y0236981D02*
X0158127Y0233912D01*
X0158127Y0235446D02*
X0153523Y0235446D01*
X0155057Y0233912D01*
X0153523Y0230842D02*
X0155057Y0229308D01*
X0154290Y0227773D02*
X0155825Y0227773D01*
X0156592Y0227006D01*
X0156592Y0224704D01*
X0156592Y0226239D02*
X0158127Y0227773D01*
X0158127Y0229308D02*
X0158127Y0232377D01*
X0158127Y0230842D02*
X0153523Y0230842D01*
X0154290Y0227773D02*
X0153523Y0227006D01*
X0153523Y0224704D01*
X0158127Y0224704D01*
X0157291Y0219511D02*
X0157291Y0216442D01*
X0154989Y0218744D01*
X0159593Y0218744D01*
X0158826Y0214907D02*
X0159593Y0214140D01*
X0159593Y0212605D01*
X0158826Y0211838D01*
X0155757Y0211838D01*
X0154989Y0212605D01*
X0154989Y0214140D01*
X0155757Y0214907D01*
X0154625Y0238234D02*
X0154625Y0240536D01*
X0155393Y0241304D01*
X0156927Y0241304D01*
X0157695Y0240536D01*
X0159229Y0238234D02*
X0154625Y0238234D01*
X0155393Y0242838D02*
X0154625Y0243606D01*
X0154625Y0245140D01*
X0155393Y0245908D01*
X0156160Y0245908D01*
X0156927Y0245140D01*
X0157695Y0245908D01*
X0158462Y0245908D01*
X0156927Y0245140D02*
X0156927Y0244373D01*
X0174646Y0231256D02*
X0174646Y0228187D01*
X0175413Y0227419D01*
X0176948Y0227419D01*
X0177715Y0228187D01*
X0179250Y0227419D02*
X0182319Y0227419D01*
X0180785Y0227419D02*
X0180785Y0232023D01*
X0179250Y0230489D01*
X0177715Y0231256D02*
X0176948Y0232023D01*
X0175413Y0232023D01*
X0174646Y0231256D01*
X0183854Y0229721D02*
X0183854Y0228187D01*
X0184621Y0227419D01*
X0186156Y0227419D01*
X0186923Y0228187D01*
X0186923Y0228954D01*
X0186156Y0229721D01*
X0183854Y0229721D01*
X0185389Y0231256D01*
X0186923Y0232023D01*
X0186214Y0226855D02*
X0188516Y0226855D01*
X0189283Y0226088D01*
X0189283Y0224553D01*
X0188516Y0223786D01*
X0186214Y0223786D01*
X0187748Y0223786D02*
X0189283Y0222251D01*
X0190818Y0222251D02*
X0193887Y0225320D01*
X0193887Y0226088D01*
X0193120Y0226855D01*
X0191585Y0226855D01*
X0190818Y0226088D01*
X0190818Y0222251D02*
X0193887Y0222251D01*
X0186214Y0222251D02*
X0186214Y0226855D01*
X0194398Y0246777D02*
X0194398Y0251381D01*
X0196700Y0251381D01*
X0197467Y0250613D01*
X0197467Y0249079D01*
X0196700Y0248311D01*
X0194398Y0248311D01*
X0195932Y0248311D02*
X0197467Y0246777D01*
X0199002Y0249079D02*
X0202071Y0249079D01*
X0201304Y0251381D02*
X0199002Y0249079D01*
X0201304Y0246777D02*
X0201304Y0251381D01*
X0204233Y0240193D02*
X0205001Y0240193D01*
X0208070Y0237123D01*
X0208837Y0237123D01*
X0208837Y0235589D02*
X0208837Y0232519D01*
X0208837Y0234054D02*
X0204233Y0234054D01*
X0205768Y0232519D01*
X0205001Y0230985D02*
X0204233Y0230218D01*
X0204233Y0228683D01*
X0205001Y0227916D01*
X0208070Y0227916D01*
X0208837Y0228683D01*
X0208837Y0230218D01*
X0208070Y0230985D01*
X0204233Y0237123D02*
X0204233Y0240193D01*
X0203717Y0218799D02*
X0203717Y0215730D01*
X0206019Y0215730D01*
X0205251Y0217265D01*
X0205251Y0218032D01*
X0206019Y0218799D01*
X0207553Y0218799D01*
X0208321Y0218032D01*
X0208321Y0216497D01*
X0207553Y0215730D01*
X0208321Y0214195D02*
X0208321Y0211126D01*
X0208321Y0212661D02*
X0203717Y0212661D01*
X0205251Y0211126D01*
X0204484Y0209591D02*
X0203717Y0208824D01*
X0203717Y0207289D01*
X0204484Y0206522D01*
X0207553Y0206522D01*
X0208321Y0207289D01*
X0208321Y0208824D01*
X0207553Y0209591D01*
X0193605Y0197910D02*
X0193605Y0193306D01*
X0192070Y0193306D02*
X0195140Y0193306D01*
X0192070Y0196376D02*
X0193605Y0197910D01*
X0190536Y0197143D02*
X0190536Y0195608D01*
X0189769Y0194841D01*
X0187467Y0194841D01*
X0189001Y0194841D02*
X0190536Y0193306D01*
X0187467Y0193306D02*
X0187467Y0197910D01*
X0189769Y0197910D01*
X0190536Y0197143D01*
X0185294Y0172883D02*
X0186062Y0172115D01*
X0186062Y0171348D01*
X0185294Y0170581D01*
X0183760Y0170581D01*
X0182992Y0171348D01*
X0182992Y0172115D01*
X0183760Y0172883D01*
X0185294Y0172883D01*
X0185294Y0170581D02*
X0186062Y0169813D01*
X0186062Y0169046D01*
X0185294Y0168279D01*
X0183760Y0168279D01*
X0182992Y0169046D01*
X0182992Y0169813D01*
X0183760Y0170581D01*
X0181458Y0171348D02*
X0181458Y0172115D01*
X0180691Y0172883D01*
X0179156Y0172883D01*
X0178389Y0172115D01*
X0176854Y0172115D02*
X0176087Y0172883D01*
X0174552Y0172883D01*
X0173785Y0172115D01*
X0173785Y0169046D01*
X0174552Y0168279D01*
X0176087Y0168279D01*
X0176854Y0169046D01*
X0178389Y0168279D02*
X0181458Y0171348D01*
X0181458Y0168279D02*
X0178389Y0168279D01*
X0146170Y0143472D02*
X0146170Y0141937D01*
X0145403Y0141170D01*
X0142333Y0144239D01*
X0145403Y0144239D01*
X0146170Y0143472D01*
X0145403Y0141170D02*
X0142333Y0141170D01*
X0141566Y0141937D01*
X0141566Y0143472D01*
X0142333Y0144239D01*
X0142333Y0139635D02*
X0141566Y0138868D01*
X0141566Y0137333D01*
X0142333Y0136566D01*
X0142333Y0135031D02*
X0141566Y0134264D01*
X0141566Y0132729D01*
X0142333Y0131962D01*
X0145403Y0131962D01*
X0146170Y0132729D01*
X0146170Y0134264D01*
X0145403Y0135031D01*
X0146170Y0136566D02*
X0143101Y0139635D01*
X0142333Y0139635D01*
X0146170Y0139635D02*
X0146170Y0136566D01*
X0142483Y0110383D02*
X0143250Y0109615D01*
X0140181Y0106546D01*
X0140948Y0105779D01*
X0142483Y0105779D01*
X0143250Y0106546D01*
X0143250Y0109615D01*
X0142483Y0110383D02*
X0140948Y0110383D01*
X0140181Y0109615D01*
X0140181Y0106546D01*
X0138646Y0106546D02*
X0137879Y0105779D01*
X0136344Y0105779D01*
X0135577Y0106546D01*
X0134042Y0106546D02*
X0133275Y0105779D01*
X0131740Y0105779D01*
X0130973Y0106546D01*
X0130973Y0109615D01*
X0131740Y0110383D01*
X0133275Y0110383D01*
X0134042Y0109615D01*
X0135577Y0109615D02*
X0136344Y0110383D01*
X0137879Y0110383D01*
X0138646Y0109615D01*
X0138646Y0108848D01*
X0137879Y0108081D01*
X0138646Y0107313D01*
X0138646Y0106546D01*
X0137879Y0108081D02*
X0137111Y0108081D01*
X0131983Y0092633D02*
X0130448Y0092633D01*
X0129681Y0091865D01*
X0129681Y0091098D01*
X0130448Y0090331D01*
X0132750Y0090331D01*
X0132750Y0091865D02*
X0132750Y0088796D01*
X0131983Y0088029D01*
X0130448Y0088029D01*
X0129681Y0088796D01*
X0128146Y0088029D02*
X0125077Y0088029D01*
X0128146Y0091098D01*
X0128146Y0091865D01*
X0127379Y0092633D01*
X0125844Y0092633D01*
X0125077Y0091865D01*
X0123542Y0091865D02*
X0122775Y0092633D01*
X0121240Y0092633D01*
X0120473Y0091865D01*
X0120473Y0088796D01*
X0121240Y0088029D01*
X0122775Y0088029D01*
X0123542Y0088796D01*
X0131983Y0092633D02*
X0132750Y0091865D01*
X0140759Y0084413D02*
X0141526Y0084413D01*
X0144596Y0081343D01*
X0145363Y0081343D01*
X0144596Y0079809D02*
X0145363Y0079041D01*
X0145363Y0077507D01*
X0144596Y0076739D01*
X0141526Y0076739D01*
X0140759Y0077507D01*
X0140759Y0079041D01*
X0141526Y0079809D01*
X0140759Y0081343D02*
X0140759Y0084413D01*
X0146611Y0074223D02*
X0145844Y0073455D01*
X0145844Y0071921D01*
X0146611Y0071154D01*
X0147378Y0071154D01*
X0148146Y0071921D01*
X0148146Y0074223D01*
X0149680Y0074223D02*
X0146611Y0074223D01*
X0149680Y0074223D02*
X0150448Y0073455D01*
X0150448Y0071921D01*
X0149680Y0071154D01*
X0149680Y0069619D02*
X0146611Y0069619D01*
X0145844Y0068852D01*
X0145844Y0066550D01*
X0150448Y0066550D01*
X0150448Y0068852D01*
X0149680Y0069619D01*
X0150448Y0065015D02*
X0150448Y0061946D01*
X0145844Y0061946D01*
X0145844Y0065015D01*
X0148146Y0063480D02*
X0148146Y0061946D01*
X0150448Y0060411D02*
X0150448Y0057342D01*
X0145844Y0057342D01*
X0147207Y0053366D02*
X0147207Y0051791D01*
X0149963Y0051791D02*
X0149963Y0053366D01*
X0155844Y0057342D02*
X0160448Y0057342D01*
X0160448Y0060411D01*
X0160448Y0061946D02*
X0155844Y0061946D01*
X0155844Y0065015D01*
X0155844Y0066550D02*
X0155844Y0068852D01*
X0156611Y0069619D01*
X0159680Y0069619D01*
X0160448Y0068852D01*
X0160448Y0066550D01*
X0155844Y0066550D01*
X0158146Y0063480D02*
X0158146Y0061946D01*
X0160448Y0061946D02*
X0160448Y0065015D01*
X0159680Y0071154D02*
X0158913Y0071154D01*
X0158146Y0071921D01*
X0158146Y0073455D01*
X0158913Y0074223D01*
X0159680Y0074223D01*
X0160448Y0073455D01*
X0160448Y0071921D01*
X0159680Y0071154D01*
X0158146Y0071921D02*
X0157378Y0071154D01*
X0156611Y0071154D01*
X0155844Y0071921D01*
X0155844Y0073455D01*
X0156611Y0074223D01*
X0157378Y0074223D01*
X0158146Y0073455D01*
X0165844Y0074223D02*
X0165844Y0071154D01*
X0166611Y0069619D02*
X0165844Y0068852D01*
X0165844Y0066550D01*
X0170448Y0066550D01*
X0170448Y0068852D01*
X0169680Y0069619D01*
X0166611Y0069619D01*
X0169680Y0071154D02*
X0166611Y0074223D01*
X0165844Y0074223D01*
X0169680Y0071154D02*
X0170448Y0071154D01*
X0170448Y0065015D02*
X0170448Y0061946D01*
X0165844Y0061946D01*
X0165844Y0065015D01*
X0168146Y0063480D02*
X0168146Y0061946D01*
X0170448Y0060411D02*
X0170448Y0057342D01*
X0165844Y0057342D01*
X0167207Y0053366D02*
X0167207Y0051791D01*
X0169963Y0051791D02*
X0169963Y0053366D01*
X0175844Y0057342D02*
X0180448Y0057342D01*
X0180448Y0060411D01*
X0180448Y0061946D02*
X0175844Y0061946D01*
X0175844Y0065015D01*
X0175844Y0066550D02*
X0175844Y0068852D01*
X0176611Y0069619D01*
X0179680Y0069619D01*
X0180448Y0068852D01*
X0180448Y0066550D01*
X0175844Y0066550D01*
X0178146Y0063480D02*
X0178146Y0061946D01*
X0180448Y0061946D02*
X0180448Y0065015D01*
X0179680Y0071154D02*
X0178146Y0071154D01*
X0178146Y0073455D01*
X0178913Y0074223D01*
X0179680Y0074223D01*
X0180448Y0073455D01*
X0180448Y0071921D01*
X0179680Y0071154D01*
X0178146Y0071154D02*
X0176611Y0072688D01*
X0175844Y0074223D01*
X0185844Y0074223D02*
X0185844Y0071154D01*
X0188146Y0071154D01*
X0187378Y0072688D01*
X0187378Y0073455D01*
X0188146Y0074223D01*
X0189680Y0074223D01*
X0190448Y0073455D01*
X0190448Y0071921D01*
X0189680Y0071154D01*
X0189680Y0069619D02*
X0186611Y0069619D01*
X0185844Y0068852D01*
X0185844Y0066550D01*
X0190448Y0066550D01*
X0190448Y0068852D01*
X0189680Y0069619D01*
X0190448Y0065015D02*
X0190448Y0061946D01*
X0185844Y0061946D01*
X0185844Y0065015D01*
X0188146Y0063480D02*
X0188146Y0061946D01*
X0190448Y0060411D02*
X0190448Y0057342D01*
X0185844Y0057342D01*
X0187207Y0053366D02*
X0187207Y0051791D01*
X0189963Y0051791D02*
X0189963Y0053366D01*
X0196344Y0059342D02*
X0200948Y0059342D01*
X0200948Y0062411D01*
X0200948Y0063946D02*
X0200948Y0067015D01*
X0200948Y0068550D02*
X0200948Y0070852D01*
X0200180Y0071619D01*
X0197111Y0071619D01*
X0196344Y0070852D01*
X0196344Y0068550D01*
X0200948Y0068550D01*
X0198646Y0065480D02*
X0198646Y0063946D01*
X0196344Y0063946D02*
X0200948Y0063946D01*
X0205844Y0063946D02*
X0205844Y0067015D01*
X0205844Y0068550D02*
X0205844Y0070852D01*
X0206611Y0071619D01*
X0209680Y0071619D01*
X0210448Y0070852D01*
X0210448Y0068550D01*
X0205844Y0068550D01*
X0208146Y0065480D02*
X0208146Y0063946D01*
X0210448Y0063946D02*
X0210448Y0067015D01*
X0210448Y0063946D02*
X0205844Y0063946D01*
X0205844Y0059342D02*
X0210448Y0059342D01*
X0210448Y0062411D01*
X0209963Y0053366D02*
X0209963Y0051791D01*
X0207207Y0051791D02*
X0207207Y0053366D01*
X0199963Y0053366D02*
X0199963Y0051791D01*
X0197207Y0051791D02*
X0197207Y0053366D01*
X0196344Y0063946D02*
X0196344Y0067015D01*
X0198646Y0073154D02*
X0196344Y0075455D01*
X0200948Y0075455D01*
X0198646Y0076223D02*
X0198646Y0073154D01*
X0194863Y0076299D02*
X0194863Y0077833D01*
X0194096Y0078601D01*
X0194096Y0080135D02*
X0194863Y0080903D01*
X0194863Y0082437D01*
X0194096Y0083205D01*
X0193328Y0083205D01*
X0192561Y0082437D01*
X0192561Y0080135D01*
X0194096Y0080135D01*
X0192561Y0080135D02*
X0191026Y0081670D01*
X0190259Y0083205D01*
X0191026Y0078601D02*
X0190259Y0077833D01*
X0190259Y0076299D01*
X0191026Y0075532D01*
X0194096Y0075532D01*
X0194863Y0076299D01*
X0205844Y0075455D02*
X0206611Y0076223D01*
X0207378Y0076223D01*
X0208146Y0075455D01*
X0208913Y0076223D01*
X0209680Y0076223D01*
X0210448Y0075455D01*
X0210448Y0073921D01*
X0209680Y0073154D01*
X0208146Y0074688D02*
X0208146Y0075455D01*
X0205844Y0075455D02*
X0205844Y0073921D01*
X0206611Y0073154D01*
X0227723Y0087796D02*
X0228490Y0087029D01*
X0230025Y0087029D01*
X0230792Y0087796D01*
X0232327Y0087029D02*
X0235396Y0090098D01*
X0235396Y0090865D01*
X0234629Y0091633D01*
X0233094Y0091633D01*
X0232327Y0090865D01*
X0230792Y0090865D02*
X0230025Y0091633D01*
X0228490Y0091633D01*
X0227723Y0090865D01*
X0227723Y0087796D01*
X0232327Y0087029D02*
X0235396Y0087029D01*
X0236931Y0087029D02*
X0240000Y0087029D01*
X0238465Y0087029D02*
X0238465Y0091633D01*
X0236931Y0090098D01*
X0225290Y0110198D02*
X0223755Y0110198D01*
X0222988Y0110965D01*
X0221453Y0110965D02*
X0220686Y0110198D01*
X0219151Y0110198D01*
X0218384Y0110965D01*
X0218384Y0114035D01*
X0219151Y0114802D01*
X0220686Y0114802D01*
X0221453Y0114035D01*
X0222988Y0114802D02*
X0222988Y0112500D01*
X0224522Y0113267D01*
X0225290Y0113267D01*
X0226057Y0112500D01*
X0226057Y0110965D01*
X0225290Y0110198D01*
X0226057Y0114802D02*
X0222988Y0114802D01*
X0223992Y0040883D02*
X0223992Y0038581D01*
X0225527Y0039348D01*
X0226294Y0039348D01*
X0227062Y0038581D01*
X0227062Y0037046D01*
X0226294Y0036279D01*
X0224760Y0036279D01*
X0223992Y0037046D01*
X0222458Y0036279D02*
X0219389Y0036279D01*
X0220923Y0036279D02*
X0220923Y0040883D01*
X0219389Y0039348D01*
X0217854Y0038581D02*
X0217087Y0037813D01*
X0214785Y0037813D01*
X0214785Y0036279D02*
X0214785Y0040883D01*
X0217087Y0040883D01*
X0217854Y0040115D01*
X0217854Y0038581D01*
X0216319Y0037813D02*
X0217854Y0036279D01*
X0223992Y0040883D02*
X0227062Y0040883D01*
X0211062Y0030883D02*
X0209527Y0030115D01*
X0207992Y0028581D01*
X0210294Y0028581D01*
X0211062Y0027813D01*
X0211062Y0027046D01*
X0210294Y0026279D01*
X0208760Y0026279D01*
X0207992Y0027046D01*
X0207992Y0028581D01*
X0206458Y0026279D02*
X0203389Y0026279D01*
X0204923Y0026279D02*
X0204923Y0030883D01*
X0203389Y0029348D01*
X0201854Y0028581D02*
X0201087Y0027813D01*
X0198785Y0027813D01*
X0198785Y0026279D02*
X0198785Y0030883D01*
X0201087Y0030883D01*
X0201854Y0030115D01*
X0201854Y0028581D01*
X0200319Y0027813D02*
X0201854Y0026279D01*
X0198562Y0029615D02*
X0198562Y0030383D01*
X0195492Y0030383D01*
X0192423Y0030383D02*
X0192423Y0025779D01*
X0190889Y0025779D02*
X0193958Y0025779D01*
X0195492Y0025779D02*
X0195492Y0026546D01*
X0198562Y0029615D01*
X0192423Y0030383D02*
X0190889Y0028848D01*
X0189354Y0028081D02*
X0188587Y0027313D01*
X0186285Y0027313D01*
X0186062Y0027313D02*
X0186062Y0026546D01*
X0185294Y0025779D01*
X0183760Y0025779D01*
X0182992Y0026546D01*
X0182992Y0027313D01*
X0183760Y0028081D01*
X0185294Y0028081D01*
X0186062Y0027313D01*
X0185294Y0028081D02*
X0186062Y0028848D01*
X0186062Y0029615D01*
X0185294Y0030383D01*
X0183760Y0030383D01*
X0182992Y0029615D01*
X0182992Y0028848D01*
X0183760Y0028081D01*
X0181458Y0025779D02*
X0178389Y0025779D01*
X0179923Y0025779D02*
X0179923Y0030383D01*
X0178389Y0028848D01*
X0176854Y0028081D02*
X0176087Y0027313D01*
X0173785Y0027313D01*
X0173562Y0026546D02*
X0173562Y0029615D01*
X0172794Y0030383D01*
X0171260Y0030383D01*
X0170492Y0029615D01*
X0170492Y0028848D01*
X0171260Y0028081D01*
X0173562Y0028081D01*
X0173562Y0026546D02*
X0172794Y0025779D01*
X0171260Y0025779D01*
X0170492Y0026546D01*
X0168958Y0025779D02*
X0165889Y0025779D01*
X0167423Y0025779D02*
X0167423Y0030383D01*
X0165889Y0028848D01*
X0164354Y0028081D02*
X0163587Y0027313D01*
X0161285Y0027313D01*
X0160062Y0026546D02*
X0159294Y0025779D01*
X0157760Y0025779D01*
X0156992Y0026546D01*
X0160062Y0029615D01*
X0160062Y0026546D01*
X0161285Y0025779D02*
X0161285Y0030383D01*
X0163587Y0030383D01*
X0164354Y0029615D01*
X0164354Y0028081D01*
X0162819Y0027313D02*
X0164354Y0025779D01*
X0160062Y0029615D02*
X0159294Y0030383D01*
X0157760Y0030383D01*
X0156992Y0029615D01*
X0156992Y0026546D01*
X0155458Y0025779D02*
X0152389Y0025779D01*
X0155458Y0028848D01*
X0155458Y0029615D01*
X0154691Y0030383D01*
X0153156Y0030383D01*
X0152389Y0029615D01*
X0150854Y0029615D02*
X0150854Y0028081D01*
X0150087Y0027313D01*
X0147785Y0027313D01*
X0147785Y0025779D02*
X0147785Y0030383D01*
X0150087Y0030383D01*
X0150854Y0029615D01*
X0149319Y0027313D02*
X0150854Y0025779D01*
X0145062Y0035279D02*
X0141992Y0035279D01*
X0140458Y0035279D02*
X0137389Y0035279D01*
X0140458Y0038348D01*
X0140458Y0039115D01*
X0139691Y0039883D01*
X0138156Y0039883D01*
X0137389Y0039115D01*
X0135854Y0039115D02*
X0135854Y0037581D01*
X0135087Y0036813D01*
X0132785Y0036813D01*
X0132785Y0035279D02*
X0132785Y0039883D01*
X0135087Y0039883D01*
X0135854Y0039115D01*
X0134319Y0036813D02*
X0135854Y0035279D01*
X0141992Y0038348D02*
X0143527Y0039883D01*
X0143527Y0035279D01*
X0157207Y0051791D02*
X0157207Y0053366D01*
X0159963Y0053366D02*
X0159963Y0051791D01*
X0173785Y0030383D02*
X0173785Y0025779D01*
X0175319Y0027313D02*
X0176854Y0025779D01*
X0176854Y0028081D02*
X0176854Y0029615D01*
X0176087Y0030383D01*
X0173785Y0030383D01*
X0177207Y0051791D02*
X0177207Y0053366D01*
X0179963Y0053366D02*
X0179963Y0051791D01*
X0186285Y0030383D02*
X0188587Y0030383D01*
X0189354Y0029615D01*
X0189354Y0028081D01*
X0187819Y0027313D02*
X0189354Y0025779D01*
X0186285Y0025779D02*
X0186285Y0030383D01*
X0163016Y0092131D02*
X0159946Y0092131D01*
X0158412Y0092131D02*
X0156877Y0093666D01*
X0156110Y0092131D02*
X0155343Y0092898D01*
X0155343Y0095968D01*
X0156110Y0096735D01*
X0157644Y0096735D01*
X0158412Y0095968D01*
X0158412Y0092898D01*
X0157644Y0092131D01*
X0156110Y0092131D01*
X0159946Y0095200D02*
X0161481Y0096735D01*
X0161481Y0092131D01*
X0126294Y0124279D02*
X0126294Y0128883D01*
X0123992Y0126581D01*
X0127062Y0126581D01*
X0122458Y0127348D02*
X0122458Y0128115D01*
X0121691Y0128883D01*
X0120156Y0128883D01*
X0119389Y0128115D01*
X0117854Y0128115D02*
X0117087Y0128883D01*
X0115552Y0128883D01*
X0114785Y0128115D01*
X0114785Y0125046D01*
X0115552Y0124279D01*
X0117087Y0124279D01*
X0117854Y0125046D01*
X0119389Y0124279D02*
X0122458Y0127348D01*
X0122458Y0124279D02*
X0119389Y0124279D01*
X0104117Y0142467D02*
X0104885Y0143234D01*
X0104885Y0144769D01*
X0104117Y0145536D01*
X0104885Y0147071D02*
X0101815Y0150140D01*
X0101048Y0150140D01*
X0100281Y0149373D01*
X0100281Y0147838D01*
X0101048Y0147071D01*
X0101048Y0145536D02*
X0100281Y0144769D01*
X0100281Y0143234D01*
X0101048Y0142467D01*
X0104117Y0142467D01*
X0104885Y0147071D02*
X0104885Y0150140D01*
X0104885Y0151675D02*
X0101815Y0154744D01*
X0101048Y0154744D01*
X0100281Y0153977D01*
X0100281Y0152442D01*
X0101048Y0151675D01*
X0104885Y0151675D02*
X0104885Y0154744D01*
X0117582Y0255717D02*
X0120651Y0255717D01*
X0121418Y0256484D01*
X0121418Y0258019D01*
X0120651Y0258786D01*
X0121418Y0260321D02*
X0118349Y0263390D01*
X0117582Y0263390D01*
X0116814Y0262623D01*
X0116814Y0261088D01*
X0117582Y0260321D01*
X0117582Y0258786D02*
X0116814Y0258019D01*
X0116814Y0256484D01*
X0117582Y0255717D01*
X0117582Y0264925D02*
X0116814Y0265692D01*
X0116814Y0267227D01*
X0117582Y0267994D01*
X0118349Y0267994D01*
X0119116Y0267227D01*
X0119883Y0267994D01*
X0120651Y0267994D01*
X0121418Y0267227D01*
X0121418Y0265692D01*
X0120651Y0264925D01*
X0121418Y0263390D02*
X0121418Y0260321D01*
X0119116Y0266459D02*
X0119116Y0267227D01*
X0191594Y0420529D02*
X0193129Y0420529D01*
X0193896Y0421296D01*
X0193896Y0425133D01*
X0195431Y0423598D02*
X0196965Y0425133D01*
X0196965Y0420529D01*
X0195431Y0420529D02*
X0198500Y0420529D01*
X0191594Y0420529D02*
X0190827Y0421296D01*
X0190827Y0425133D01*
X0168271Y0435698D02*
X0167503Y0434930D01*
X0165969Y0434930D01*
X0165201Y0435698D01*
X0165201Y0436465D01*
X0165969Y0437232D01*
X0167503Y0437232D01*
X0168271Y0436465D01*
X0168271Y0435698D01*
X0167503Y0437232D02*
X0168271Y0438000D01*
X0168271Y0438767D01*
X0167503Y0439534D01*
X0165969Y0439534D01*
X0165201Y0438767D01*
X0165201Y0438000D01*
X0165969Y0437232D01*
X0163667Y0435698D02*
X0162899Y0434930D01*
X0161365Y0434930D01*
X0160597Y0435698D01*
X0160597Y0438767D01*
X0161365Y0439534D01*
X0162899Y0439534D01*
X0163667Y0438767D01*
X0143645Y0472005D02*
X0140576Y0472005D01*
X0142110Y0472005D02*
X0142110Y0476609D01*
X0140576Y0475074D01*
X0139041Y0475842D02*
X0138274Y0476609D01*
X0136739Y0476609D01*
X0135972Y0475842D01*
X0135972Y0472772D01*
X0136739Y0472005D01*
X0138274Y0472005D01*
X0139041Y0472772D01*
X0149972Y0503130D02*
X0149972Y0507734D01*
X0152274Y0507734D01*
X0153041Y0506967D01*
X0153041Y0505432D01*
X0152274Y0504665D01*
X0149972Y0504665D01*
X0151506Y0504665D02*
X0153041Y0503130D01*
X0154576Y0503897D02*
X0155343Y0503130D01*
X0156878Y0503130D01*
X0157645Y0503897D01*
X0157645Y0504665D01*
X0156878Y0505432D01*
X0154576Y0505432D01*
X0154576Y0503897D01*
X0154576Y0505432D02*
X0156110Y0506967D01*
X0157645Y0507734D01*
X0153869Y0510177D02*
X0153869Y0510945D01*
X0156938Y0514014D01*
X0156938Y0514781D01*
X0153869Y0514781D01*
X0152334Y0514014D02*
X0152334Y0512479D01*
X0151567Y0511712D01*
X0149265Y0511712D01*
X0150799Y0511712D02*
X0152334Y0510177D01*
X0149265Y0510177D02*
X0149265Y0514781D01*
X0151567Y0514781D01*
X0152334Y0514014D01*
X0146421Y0538552D02*
X0144886Y0538552D01*
X0144119Y0539320D01*
X0147188Y0542389D01*
X0147188Y0539320D01*
X0146421Y0538552D01*
X0144119Y0539320D02*
X0144119Y0542389D01*
X0144886Y0543156D01*
X0146421Y0543156D01*
X0147188Y0542389D01*
X0142584Y0538552D02*
X0139515Y0538552D01*
X0141049Y0538552D02*
X0141049Y0543156D01*
X0139515Y0541622D01*
X0137980Y0542389D02*
X0137213Y0543156D01*
X0135678Y0543156D01*
X0134911Y0542389D01*
X0134911Y0539320D01*
X0135678Y0538552D01*
X0137213Y0538552D01*
X0137980Y0539320D01*
X0137265Y0561552D02*
X0140334Y0561552D01*
X0138799Y0561552D02*
X0138799Y0566156D01*
X0137265Y0564622D01*
X0135730Y0565389D02*
X0134963Y0566156D01*
X0133428Y0566156D01*
X0132661Y0565389D01*
X0132661Y0562320D01*
X0133428Y0561552D01*
X0134963Y0561552D01*
X0135730Y0562320D01*
X0141869Y0563854D02*
X0144938Y0563854D01*
X0144171Y0561552D02*
X0144171Y0566156D01*
X0141869Y0563854D01*
X0195211Y0483494D02*
X0194444Y0482727D01*
X0194444Y0481192D01*
X0195211Y0480425D01*
X0195211Y0478890D02*
X0194444Y0478123D01*
X0194444Y0475821D01*
X0199048Y0475821D01*
X0199048Y0478123D01*
X0198281Y0478890D01*
X0195211Y0478890D01*
X0199048Y0480425D02*
X0195979Y0483494D01*
X0195211Y0483494D01*
X0199048Y0483494D02*
X0199048Y0480425D01*
X0203444Y0481959D02*
X0208048Y0481959D01*
X0208048Y0480425D02*
X0208048Y0483494D01*
X0204979Y0480425D02*
X0203444Y0481959D01*
X0204211Y0478890D02*
X0203444Y0478123D01*
X0203444Y0475821D01*
X0208048Y0475821D01*
X0208048Y0478123D01*
X0207281Y0478890D01*
X0204211Y0478890D01*
X0203444Y0474286D02*
X0203444Y0471217D01*
X0208048Y0471217D01*
X0208048Y0474286D01*
X0205746Y0472752D02*
X0205746Y0471217D01*
X0208048Y0469682D02*
X0208048Y0466613D01*
X0203444Y0466613D01*
X0204433Y0464179D02*
X0204433Y0462604D01*
X0207189Y0462604D02*
X0207189Y0464179D01*
X0212024Y0451557D02*
X0212792Y0451557D01*
X0213559Y0450790D01*
X0213559Y0449255D01*
X0212792Y0448488D01*
X0212024Y0448488D01*
X0211257Y0449255D01*
X0211257Y0450790D01*
X0212024Y0451557D01*
X0213559Y0450790D02*
X0214326Y0451557D01*
X0215094Y0451557D01*
X0215861Y0450790D01*
X0215861Y0449255D01*
X0215094Y0448488D01*
X0214326Y0448488D01*
X0213559Y0449255D01*
X0213559Y0446953D02*
X0214326Y0446186D01*
X0214326Y0443884D01*
X0214326Y0445419D02*
X0215861Y0446953D01*
X0213559Y0446953D02*
X0212024Y0446953D01*
X0211257Y0446186D01*
X0211257Y0443884D01*
X0215861Y0443884D01*
X0227874Y0454586D02*
X0229408Y0454586D01*
X0228641Y0454586D02*
X0228641Y0459190D01*
X0227874Y0459190D02*
X0229408Y0459190D01*
X0230943Y0458422D02*
X0230943Y0455353D01*
X0231710Y0454586D01*
X0233245Y0454586D01*
X0234012Y0455353D01*
X0235547Y0454586D02*
X0238616Y0457655D01*
X0238616Y0458422D01*
X0237849Y0459190D01*
X0236314Y0459190D01*
X0235547Y0458422D01*
X0234012Y0458422D02*
X0233245Y0459190D01*
X0231710Y0459190D01*
X0230943Y0458422D01*
X0235547Y0454586D02*
X0238616Y0454586D01*
X0238207Y0449420D02*
X0240509Y0449420D01*
X0241276Y0448653D01*
X0241276Y0447118D01*
X0240509Y0446351D01*
X0238207Y0446351D01*
X0239742Y0446351D02*
X0241276Y0444816D01*
X0242811Y0444816D02*
X0245880Y0444816D01*
X0244346Y0444816D02*
X0244346Y0449420D01*
X0242811Y0447885D01*
X0247415Y0448653D02*
X0247415Y0445583D01*
X0250484Y0448653D01*
X0250484Y0445583D01*
X0249717Y0444816D01*
X0248182Y0444816D01*
X0247415Y0445583D01*
X0247415Y0448653D02*
X0248182Y0449420D01*
X0249717Y0449420D01*
X0250484Y0448653D01*
X0252414Y0463979D02*
X0252415Y0463979D01*
X0252414Y0463979D02*
X0252462Y0463981D01*
X0252509Y0463986D01*
X0252556Y0463995D01*
X0252602Y0464008D01*
X0252647Y0464025D01*
X0252690Y0464045D01*
X0252732Y0464068D01*
X0252772Y0464094D01*
X0252809Y0464124D01*
X0252844Y0464156D01*
X0252877Y0464191D01*
X0252906Y0464229D01*
X0252933Y0464269D01*
X0252956Y0464310D01*
X0252976Y0464354D01*
X0252993Y0464399D01*
X0253005Y0464445D01*
X0253015Y0464491D01*
X0253020Y0464539D01*
X0253022Y0464587D01*
X0253022Y0464586D02*
X0253022Y0468284D01*
X0250869Y0466131D02*
X0250759Y0466131D01*
X0250758Y0466132D02*
X0250701Y0466130D01*
X0250643Y0466124D01*
X0250586Y0466115D01*
X0250530Y0466102D01*
X0250474Y0466085D01*
X0250420Y0466065D01*
X0250368Y0466041D01*
X0250317Y0466014D01*
X0250268Y0465983D01*
X0250221Y0465950D01*
X0250176Y0465913D01*
X0250134Y0465873D01*
X0250094Y0465831D01*
X0250057Y0465786D01*
X0250024Y0465739D01*
X0249993Y0465690D01*
X0249966Y0465639D01*
X0249942Y0465587D01*
X0249922Y0465533D01*
X0249905Y0465477D01*
X0249892Y0465421D01*
X0249883Y0465364D01*
X0249877Y0465306D01*
X0249875Y0465249D01*
X0249876Y0465248D02*
X0249876Y0464586D01*
X0249874Y0464538D01*
X0249869Y0464491D01*
X0249859Y0464444D01*
X0249846Y0464398D01*
X0249830Y0464354D01*
X0249810Y0464310D01*
X0249787Y0464269D01*
X0249760Y0464229D01*
X0249731Y0464192D01*
X0249698Y0464157D01*
X0249663Y0464124D01*
X0249626Y0464095D01*
X0249586Y0464068D01*
X0249545Y0464045D01*
X0249501Y0464025D01*
X0249457Y0464009D01*
X0249411Y0463996D01*
X0249364Y0463986D01*
X0249317Y0463981D01*
X0249269Y0463979D01*
X0249220Y0463981D01*
X0249170Y0463986D01*
X0249122Y0463996D01*
X0249074Y0464008D01*
X0249027Y0464025D01*
X0248982Y0464045D01*
X0248938Y0464068D01*
X0248896Y0464094D01*
X0248856Y0464123D01*
X0248819Y0464156D01*
X0248784Y0464191D01*
X0248751Y0464228D01*
X0248722Y0464268D01*
X0248696Y0464310D01*
X0248673Y0464354D01*
X0248653Y0464399D01*
X0248636Y0464446D01*
X0248624Y0464494D01*
X0248614Y0464542D01*
X0248609Y0464592D01*
X0248607Y0464641D01*
X0248606Y0464641D02*
X0248606Y0468339D01*
X0248607Y0468284D02*
X0248607Y0473251D01*
X0248607Y0473252D02*
X0248609Y0473324D01*
X0248614Y0473397D01*
X0248623Y0473469D01*
X0248636Y0473541D01*
X0248653Y0473611D01*
X0248673Y0473681D01*
X0248696Y0473750D01*
X0248723Y0473818D01*
X0248754Y0473884D01*
X0248787Y0473948D01*
X0248824Y0474011D01*
X0248864Y0474072D01*
X0248907Y0474130D01*
X0248953Y0474187D01*
X0249002Y0474241D01*
X0249053Y0474292D01*
X0249107Y0474341D01*
X0249164Y0474387D01*
X0249222Y0474430D01*
X0249283Y0474470D01*
X0249346Y0474507D01*
X0249410Y0474540D01*
X0249476Y0474571D01*
X0249544Y0474598D01*
X0249613Y0474621D01*
X0249683Y0474641D01*
X0249753Y0474658D01*
X0249825Y0474671D01*
X0249897Y0474680D01*
X0249970Y0474685D01*
X0250042Y0474687D01*
X0250042Y0474686D02*
X0252139Y0474686D01*
X0248607Y0468284D02*
X0283654Y0468284D01*
X0283654Y0498254D01*
X0269415Y0498254D01*
X0269415Y0501952D01*
X0269417Y0502000D01*
X0269422Y0502047D01*
X0269431Y0502094D01*
X0269444Y0502140D01*
X0269461Y0502185D01*
X0269481Y0502228D01*
X0269504Y0502270D01*
X0269530Y0502309D01*
X0269560Y0502347D01*
X0269592Y0502382D01*
X0269627Y0502414D01*
X0269665Y0502444D01*
X0269705Y0502470D01*
X0269746Y0502494D01*
X0269790Y0502513D01*
X0269834Y0502530D01*
X0269880Y0502543D01*
X0269927Y0502552D01*
X0269975Y0502557D01*
X0270022Y0502559D01*
X0270022Y0502559D01*
X0270022Y0502558D02*
X0270071Y0502556D01*
X0270121Y0502551D01*
X0270169Y0502541D01*
X0270217Y0502529D01*
X0270264Y0502512D01*
X0270309Y0502492D01*
X0270353Y0502469D01*
X0270395Y0502443D01*
X0270435Y0502414D01*
X0270472Y0502381D01*
X0270507Y0502346D01*
X0270540Y0502309D01*
X0270569Y0502269D01*
X0270595Y0502227D01*
X0270618Y0502183D01*
X0270638Y0502138D01*
X0270655Y0502091D01*
X0270667Y0502043D01*
X0270677Y0501995D01*
X0270682Y0501945D01*
X0270684Y0501896D01*
X0270684Y0501289D01*
X0270684Y0501290D02*
X0270686Y0501232D01*
X0270691Y0501175D01*
X0270701Y0501118D01*
X0270714Y0501061D01*
X0270731Y0501006D01*
X0270751Y0500952D01*
X0270775Y0500899D01*
X0270802Y0500848D01*
X0270833Y0500799D01*
X0270866Y0500752D01*
X0270903Y0500708D01*
X0270942Y0500665D01*
X0270985Y0500626D01*
X0271029Y0500589D01*
X0271076Y0500556D01*
X0271125Y0500525D01*
X0271176Y0500498D01*
X0271229Y0500474D01*
X0271283Y0500454D01*
X0271338Y0500437D01*
X0271395Y0500424D01*
X0271452Y0500414D01*
X0271509Y0500409D01*
X0271567Y0500407D01*
X0271567Y0500406D02*
X0271678Y0500406D01*
X0271677Y0500407D02*
X0271735Y0500409D01*
X0271793Y0500415D01*
X0271850Y0500424D01*
X0271906Y0500437D01*
X0271961Y0500454D01*
X0272015Y0500474D01*
X0272068Y0500498D01*
X0272119Y0500525D01*
X0272168Y0500556D01*
X0272215Y0500590D01*
X0272259Y0500626D01*
X0272301Y0500666D01*
X0272341Y0500708D01*
X0272377Y0500752D01*
X0272411Y0500799D01*
X0272442Y0500848D01*
X0272469Y0500899D01*
X0272493Y0500952D01*
X0272513Y0501006D01*
X0272530Y0501061D01*
X0272543Y0501117D01*
X0272552Y0501174D01*
X0272558Y0501232D01*
X0272560Y0501290D01*
X0272561Y0501289D02*
X0272561Y0501952D01*
X0272563Y0502000D01*
X0272568Y0502047D01*
X0272578Y0502094D01*
X0272591Y0502140D01*
X0272607Y0502184D01*
X0272627Y0502228D01*
X0272650Y0502269D01*
X0272677Y0502309D01*
X0272706Y0502346D01*
X0272739Y0502381D01*
X0272774Y0502414D01*
X0272811Y0502443D01*
X0272851Y0502470D01*
X0272892Y0502493D01*
X0272936Y0502513D01*
X0272980Y0502529D01*
X0273026Y0502542D01*
X0273073Y0502552D01*
X0273120Y0502557D01*
X0273168Y0502559D01*
X0273168Y0502558D02*
X0273217Y0502556D01*
X0273267Y0502551D01*
X0273315Y0502541D01*
X0273363Y0502529D01*
X0273410Y0502512D01*
X0273455Y0502492D01*
X0273499Y0502469D01*
X0273541Y0502443D01*
X0273581Y0502414D01*
X0273618Y0502381D01*
X0273653Y0502346D01*
X0273686Y0502309D01*
X0273715Y0502269D01*
X0273741Y0502227D01*
X0273764Y0502183D01*
X0273784Y0502138D01*
X0273801Y0502091D01*
X0273813Y0502043D01*
X0273823Y0501995D01*
X0273828Y0501945D01*
X0273830Y0501896D01*
X0273830Y0498474D01*
X0269415Y0498254D02*
X0248607Y0498254D01*
X0248607Y0501952D01*
X0248609Y0502000D01*
X0248614Y0502047D01*
X0248623Y0502094D01*
X0248636Y0502140D01*
X0248653Y0502185D01*
X0248673Y0502228D01*
X0248696Y0502270D01*
X0248722Y0502309D01*
X0248752Y0502347D01*
X0248784Y0502382D01*
X0248819Y0502414D01*
X0248857Y0502444D01*
X0248897Y0502470D01*
X0248938Y0502494D01*
X0248982Y0502513D01*
X0249026Y0502530D01*
X0249072Y0502543D01*
X0249119Y0502552D01*
X0249167Y0502557D01*
X0249214Y0502559D01*
X0249214Y0502559D01*
X0249214Y0502558D02*
X0249263Y0502556D01*
X0249313Y0502551D01*
X0249361Y0502541D01*
X0249409Y0502529D01*
X0249456Y0502512D01*
X0249501Y0502492D01*
X0249545Y0502469D01*
X0249587Y0502443D01*
X0249627Y0502414D01*
X0249664Y0502381D01*
X0249699Y0502346D01*
X0249732Y0502309D01*
X0249761Y0502269D01*
X0249787Y0502227D01*
X0249810Y0502183D01*
X0249830Y0502138D01*
X0249847Y0502091D01*
X0249859Y0502043D01*
X0249869Y0501995D01*
X0249874Y0501945D01*
X0249876Y0501896D01*
X0249876Y0501289D01*
X0249878Y0501231D01*
X0249883Y0501174D01*
X0249893Y0501117D01*
X0249906Y0501060D01*
X0249923Y0501005D01*
X0249943Y0500951D01*
X0249967Y0500898D01*
X0249994Y0500847D01*
X0250024Y0500798D01*
X0250058Y0500751D01*
X0250095Y0500707D01*
X0250134Y0500664D01*
X0250177Y0500625D01*
X0250221Y0500588D01*
X0250268Y0500554D01*
X0250317Y0500524D01*
X0250368Y0500497D01*
X0250421Y0500473D01*
X0250475Y0500453D01*
X0250530Y0500436D01*
X0250587Y0500423D01*
X0250644Y0500413D01*
X0250701Y0500408D01*
X0250759Y0500406D01*
X0250870Y0500406D01*
X0250928Y0500408D01*
X0250985Y0500414D01*
X0251042Y0500423D01*
X0251099Y0500436D01*
X0251154Y0500453D01*
X0251208Y0500473D01*
X0251261Y0500497D01*
X0251312Y0500524D01*
X0251361Y0500555D01*
X0251408Y0500588D01*
X0251452Y0500625D01*
X0251494Y0500665D01*
X0251534Y0500707D01*
X0251571Y0500751D01*
X0251604Y0500798D01*
X0251635Y0500848D01*
X0251662Y0500898D01*
X0251686Y0500951D01*
X0251706Y0501005D01*
X0251723Y0501060D01*
X0251736Y0501117D01*
X0251745Y0501174D01*
X0251751Y0501231D01*
X0251753Y0501289D01*
X0251753Y0501952D01*
X0251755Y0502000D01*
X0251760Y0502047D01*
X0251770Y0502094D01*
X0251783Y0502140D01*
X0251799Y0502184D01*
X0251819Y0502228D01*
X0251842Y0502269D01*
X0251869Y0502309D01*
X0251898Y0502346D01*
X0251931Y0502381D01*
X0251966Y0502414D01*
X0252003Y0502443D01*
X0252043Y0502470D01*
X0252084Y0502493D01*
X0252128Y0502513D01*
X0252172Y0502529D01*
X0252218Y0502542D01*
X0252265Y0502552D01*
X0252312Y0502557D01*
X0252360Y0502559D01*
X0252360Y0502558D02*
X0252409Y0502556D01*
X0252459Y0502551D01*
X0252507Y0502541D01*
X0252555Y0502529D01*
X0252602Y0502512D01*
X0252647Y0502492D01*
X0252691Y0502469D01*
X0252733Y0502443D01*
X0252773Y0502414D01*
X0252810Y0502381D01*
X0252845Y0502346D01*
X0252878Y0502309D01*
X0252907Y0502269D01*
X0252933Y0502227D01*
X0252956Y0502183D01*
X0252976Y0502138D01*
X0252993Y0502091D01*
X0253005Y0502043D01*
X0253015Y0501995D01*
X0253020Y0501945D01*
X0253022Y0501896D01*
X0253022Y0498474D01*
X0248607Y0498254D02*
X0248607Y0493231D01*
X0248606Y0493231D02*
X0248608Y0493159D01*
X0248614Y0493087D01*
X0248623Y0493015D01*
X0248636Y0492944D01*
X0248653Y0492874D01*
X0248673Y0492805D01*
X0248698Y0492737D01*
X0248725Y0492670D01*
X0248756Y0492605D01*
X0248791Y0492541D01*
X0248829Y0492479D01*
X0248870Y0492420D01*
X0248914Y0492363D01*
X0248960Y0492308D01*
X0249010Y0492255D01*
X0249063Y0492205D01*
X0249118Y0492159D01*
X0249175Y0492115D01*
X0249234Y0492074D01*
X0249296Y0492036D01*
X0249360Y0492001D01*
X0249425Y0491970D01*
X0249492Y0491943D01*
X0249560Y0491918D01*
X0249629Y0491898D01*
X0249699Y0491881D01*
X0249770Y0491868D01*
X0249842Y0491859D01*
X0249914Y0491853D01*
X0249986Y0491851D01*
X0249987Y0491851D02*
X0252305Y0491851D01*
X0261191Y0486111D02*
X0261191Y0480316D01*
X0261191Y0480317D02*
X0261193Y0480245D01*
X0261199Y0480173D01*
X0261209Y0480102D01*
X0261222Y0480032D01*
X0261239Y0479962D01*
X0261260Y0479894D01*
X0261285Y0479826D01*
X0261314Y0479760D01*
X0261345Y0479696D01*
X0261381Y0479634D01*
X0261419Y0479573D01*
X0261461Y0479515D01*
X0261506Y0479459D01*
X0261554Y0479406D01*
X0261605Y0479355D01*
X0261658Y0479307D01*
X0261714Y0479262D01*
X0261772Y0479220D01*
X0261833Y0479182D01*
X0261895Y0479146D01*
X0261959Y0479115D01*
X0262025Y0479086D01*
X0262093Y0479061D01*
X0262161Y0479040D01*
X0262231Y0479023D01*
X0262301Y0479010D01*
X0262372Y0479000D01*
X0262444Y0478994D01*
X0262516Y0478992D01*
X0262516Y0478991D02*
X0278356Y0478163D01*
X0278355Y0478164D02*
X0278400Y0478163D01*
X0278444Y0478167D01*
X0278488Y0478174D01*
X0278532Y0478184D01*
X0278574Y0478199D01*
X0278615Y0478217D01*
X0278654Y0478238D01*
X0278691Y0478263D01*
X0278726Y0478290D01*
X0278758Y0478321D01*
X0278788Y0478354D01*
X0278815Y0478390D01*
X0278839Y0478427D01*
X0278859Y0478467D01*
X0278876Y0478508D01*
X0278890Y0478551D01*
X0278900Y0478594D01*
X0278906Y0478638D01*
X0278908Y0478683D01*
X0278907Y0478727D01*
X0278901Y0478772D01*
X0278892Y0478815D01*
X0278880Y0478858D01*
X0278864Y0478899D01*
X0278844Y0478939D01*
X0278821Y0478978D01*
X0278795Y0479014D01*
X0278766Y0479047D01*
X0278734Y0479079D01*
X0278699Y0479107D01*
X0278663Y0479132D01*
X0278624Y0479154D01*
X0278584Y0479173D01*
X0278542Y0479188D01*
X0278499Y0479200D01*
X0278455Y0479208D01*
X0278411Y0479212D01*
X0266158Y0479874D01*
X0266077Y0479876D01*
X0265995Y0479882D01*
X0265914Y0479891D01*
X0265834Y0479905D01*
X0265755Y0479922D01*
X0265676Y0479943D01*
X0265598Y0479968D01*
X0265522Y0479997D01*
X0265447Y0480029D01*
X0265374Y0480064D01*
X0265303Y0480103D01*
X0265233Y0480146D01*
X0265166Y0480191D01*
X0265100Y0480240D01*
X0265038Y0480292D01*
X0264977Y0480347D01*
X0264920Y0480404D01*
X0264865Y0480465D01*
X0264813Y0480527D01*
X0264764Y0480593D01*
X0264719Y0480660D01*
X0264676Y0480730D01*
X0264637Y0480801D01*
X0264602Y0480874D01*
X0264570Y0480949D01*
X0264541Y0481025D01*
X0264516Y0481103D01*
X0264495Y0481182D01*
X0264478Y0481261D01*
X0264464Y0481341D01*
X0264455Y0481422D01*
X0264449Y0481504D01*
X0264447Y0481585D01*
X0264447Y0485063D01*
X0264449Y0485142D01*
X0264454Y0485220D01*
X0264464Y0485299D01*
X0264477Y0485376D01*
X0264494Y0485453D01*
X0264514Y0485530D01*
X0264538Y0485605D01*
X0264566Y0485678D01*
X0264597Y0485751D01*
X0264631Y0485822D01*
X0264669Y0485891D01*
X0264710Y0485958D01*
X0264754Y0486024D01*
X0264801Y0486087D01*
X0264851Y0486147D01*
X0264904Y0486206D01*
X0264960Y0486262D01*
X0265019Y0486315D01*
X0265079Y0486365D01*
X0265142Y0486412D01*
X0265208Y0486456D01*
X0265275Y0486497D01*
X0265344Y0486535D01*
X0265415Y0486569D01*
X0265488Y0486600D01*
X0265561Y0486628D01*
X0265636Y0486652D01*
X0265713Y0486672D01*
X0265790Y0486689D01*
X0265867Y0486702D01*
X0265946Y0486712D01*
X0266024Y0486717D01*
X0266103Y0486719D01*
X0266379Y0486719D01*
X0278356Y0487270D01*
X0278356Y0487271D02*
X0278402Y0487275D01*
X0278448Y0487283D01*
X0278493Y0487295D01*
X0278537Y0487310D01*
X0278580Y0487330D01*
X0278621Y0487353D01*
X0278659Y0487379D01*
X0278696Y0487408D01*
X0278729Y0487441D01*
X0278760Y0487476D01*
X0278788Y0487514D01*
X0278812Y0487553D01*
X0278833Y0487595D01*
X0278851Y0487639D01*
X0278864Y0487683D01*
X0278874Y0487729D01*
X0278880Y0487775D01*
X0278882Y0487822D01*
X0278880Y0487869D01*
X0278874Y0487915D01*
X0278864Y0487961D01*
X0278851Y0488005D01*
X0278833Y0488049D01*
X0278812Y0488091D01*
X0278788Y0488130D01*
X0278760Y0488168D01*
X0278729Y0488203D01*
X0278696Y0488236D01*
X0278659Y0488265D01*
X0278621Y0488291D01*
X0278580Y0488314D01*
X0278537Y0488334D01*
X0278493Y0488349D01*
X0278448Y0488361D01*
X0278402Y0488369D01*
X0278356Y0488373D01*
X0278356Y0488374D02*
X0262626Y0487546D01*
X0262551Y0487544D01*
X0262476Y0487538D01*
X0262402Y0487528D01*
X0262328Y0487515D01*
X0262255Y0487497D01*
X0262183Y0487476D01*
X0262112Y0487451D01*
X0262042Y0487422D01*
X0261975Y0487390D01*
X0261909Y0487354D01*
X0261844Y0487314D01*
X0261783Y0487272D01*
X0261723Y0487226D01*
X0261666Y0487177D01*
X0261611Y0487126D01*
X0261560Y0487071D01*
X0261511Y0487014D01*
X0261465Y0486954D01*
X0261423Y0486893D01*
X0261383Y0486829D01*
X0261347Y0486762D01*
X0261315Y0486695D01*
X0261286Y0486625D01*
X0261261Y0486554D01*
X0261240Y0486482D01*
X0261222Y0486409D01*
X0261209Y0486335D01*
X0261199Y0486261D01*
X0261193Y0486186D01*
X0261191Y0486111D01*
X0262956Y0489920D02*
X0277417Y0490582D01*
X0277582Y0490582D01*
X0277655Y0490584D01*
X0277727Y0490590D01*
X0277798Y0490599D01*
X0277869Y0490612D01*
X0277939Y0490629D01*
X0278009Y0490650D01*
X0278077Y0490674D01*
X0278143Y0490701D01*
X0278209Y0490732D01*
X0278272Y0490767D01*
X0278334Y0490805D01*
X0278393Y0490846D01*
X0278451Y0490890D01*
X0278505Y0490936D01*
X0278558Y0490986D01*
X0278608Y0491039D01*
X0278654Y0491093D01*
X0278698Y0491151D01*
X0278739Y0491210D01*
X0278777Y0491272D01*
X0278812Y0491335D01*
X0278843Y0491401D01*
X0278870Y0491467D01*
X0278894Y0491535D01*
X0278915Y0491605D01*
X0278932Y0491675D01*
X0278945Y0491746D01*
X0278954Y0491817D01*
X0278960Y0491889D01*
X0278962Y0491962D01*
X0278962Y0498033D01*
X0276203Y0493894D02*
X0262791Y0494777D01*
X0262750Y0494781D01*
X0262710Y0494789D01*
X0262671Y0494801D01*
X0262633Y0494815D01*
X0262596Y0494833D01*
X0262561Y0494854D01*
X0262528Y0494878D01*
X0262497Y0494905D01*
X0262469Y0494935D01*
X0262443Y0494966D01*
X0262420Y0495000D01*
X0262400Y0495036D01*
X0262383Y0495073D01*
X0262369Y0495111D01*
X0262359Y0495151D01*
X0262353Y0495191D01*
X0262349Y0495232D01*
X0262350Y0495273D01*
X0262349Y0495273D02*
X0262349Y0498033D01*
X0262901Y0491079D02*
X0276258Y0491962D01*
X0276319Y0491968D01*
X0276380Y0491978D01*
X0276440Y0491992D01*
X0276500Y0492010D01*
X0276558Y0492031D01*
X0276614Y0492056D01*
X0276669Y0492085D01*
X0276722Y0492117D01*
X0276772Y0492152D01*
X0276821Y0492190D01*
X0276866Y0492232D01*
X0276909Y0492276D01*
X0276949Y0492323D01*
X0276986Y0492373D01*
X0277020Y0492424D01*
X0277051Y0492478D01*
X0277077Y0492534D01*
X0277101Y0492591D01*
X0277120Y0492650D01*
X0277136Y0492709D01*
X0277148Y0492770D01*
X0277156Y0492831D01*
X0277160Y0492893D01*
X0277161Y0492955D01*
X0277157Y0493016D01*
X0277149Y0493078D01*
X0277138Y0493138D01*
X0277122Y0493198D01*
X0277103Y0493257D01*
X0277080Y0493314D01*
X0277054Y0493370D01*
X0277024Y0493424D01*
X0276990Y0493476D01*
X0276954Y0493526D01*
X0276914Y0493573D01*
X0276871Y0493617D01*
X0276826Y0493659D01*
X0276778Y0493698D01*
X0276727Y0493734D01*
X0276675Y0493766D01*
X0276620Y0493795D01*
X0276564Y0493821D01*
X0276506Y0493842D01*
X0276447Y0493860D01*
X0276387Y0493875D01*
X0276326Y0493885D01*
X0276264Y0493891D01*
X0276203Y0493894D01*
X0277418Y0475956D02*
X0262957Y0476618D01*
X0262956Y0476618D02*
X0262908Y0476619D01*
X0262861Y0476615D01*
X0262814Y0476607D01*
X0262767Y0476596D01*
X0262722Y0476580D01*
X0262678Y0476561D01*
X0262636Y0476539D01*
X0262595Y0476513D01*
X0262557Y0476483D01*
X0262522Y0476451D01*
X0262489Y0476416D01*
X0262460Y0476379D01*
X0262433Y0476339D01*
X0262410Y0476297D01*
X0262391Y0476253D01*
X0262375Y0476208D01*
X0262363Y0476161D01*
X0262355Y0476114D01*
X0262351Y0476067D01*
X0262350Y0476019D01*
X0262354Y0475971D01*
X0262362Y0475924D01*
X0262373Y0475877D01*
X0262388Y0475832D01*
X0262407Y0475788D01*
X0262430Y0475746D01*
X0262456Y0475705D01*
X0262485Y0475667D01*
X0262517Y0475632D01*
X0262552Y0475599D01*
X0262589Y0475569D01*
X0262629Y0475543D01*
X0262671Y0475520D01*
X0262715Y0475500D01*
X0262760Y0475484D01*
X0262806Y0475472D01*
X0262854Y0475464D01*
X0262901Y0475460D01*
X0262902Y0475459D02*
X0276258Y0474576D01*
X0276259Y0474576D02*
X0276320Y0474570D01*
X0276381Y0474560D01*
X0276441Y0474546D01*
X0276501Y0474528D01*
X0276559Y0474507D01*
X0276615Y0474482D01*
X0276670Y0474453D01*
X0276723Y0474421D01*
X0276773Y0474386D01*
X0276822Y0474348D01*
X0276867Y0474306D01*
X0276910Y0474262D01*
X0276950Y0474215D01*
X0276987Y0474165D01*
X0277021Y0474114D01*
X0277052Y0474060D01*
X0277078Y0474004D01*
X0277102Y0473947D01*
X0277121Y0473888D01*
X0277137Y0473829D01*
X0277149Y0473768D01*
X0277157Y0473707D01*
X0277161Y0473645D01*
X0277162Y0473583D01*
X0277158Y0473522D01*
X0277150Y0473460D01*
X0277139Y0473400D01*
X0277123Y0473340D01*
X0277104Y0473281D01*
X0277081Y0473224D01*
X0277055Y0473168D01*
X0277025Y0473114D01*
X0276991Y0473062D01*
X0276955Y0473012D01*
X0276915Y0472965D01*
X0276872Y0472921D01*
X0276827Y0472879D01*
X0276779Y0472840D01*
X0276728Y0472804D01*
X0276676Y0472772D01*
X0276621Y0472743D01*
X0276565Y0472717D01*
X0276507Y0472696D01*
X0276448Y0472678D01*
X0276388Y0472663D01*
X0276327Y0472653D01*
X0276265Y0472647D01*
X0276204Y0472644D01*
X0276203Y0472644D02*
X0262792Y0471761D01*
X0262751Y0471757D01*
X0262711Y0471749D01*
X0262672Y0471737D01*
X0262634Y0471723D01*
X0262597Y0471705D01*
X0262562Y0471684D01*
X0262529Y0471660D01*
X0262498Y0471633D01*
X0262470Y0471603D01*
X0262444Y0471572D01*
X0262421Y0471538D01*
X0262401Y0471502D01*
X0262384Y0471465D01*
X0262370Y0471427D01*
X0262360Y0471387D01*
X0262354Y0471347D01*
X0262350Y0471306D01*
X0262351Y0471265D01*
X0262350Y0471265D02*
X0262350Y0468505D01*
X0269414Y0468063D02*
X0269414Y0464641D01*
X0269415Y0464641D02*
X0269417Y0464592D01*
X0269422Y0464542D01*
X0269432Y0464494D01*
X0269444Y0464446D01*
X0269461Y0464399D01*
X0269481Y0464354D01*
X0269504Y0464310D01*
X0269530Y0464268D01*
X0269559Y0464228D01*
X0269592Y0464191D01*
X0269627Y0464156D01*
X0269664Y0464123D01*
X0269704Y0464094D01*
X0269746Y0464068D01*
X0269790Y0464045D01*
X0269835Y0464025D01*
X0269882Y0464008D01*
X0269930Y0463996D01*
X0269978Y0463986D01*
X0270028Y0463981D01*
X0270077Y0463979D01*
X0270125Y0463981D01*
X0270172Y0463986D01*
X0270219Y0463996D01*
X0270265Y0464009D01*
X0270309Y0464025D01*
X0270353Y0464045D01*
X0270394Y0464068D01*
X0270434Y0464095D01*
X0270471Y0464124D01*
X0270506Y0464157D01*
X0270539Y0464192D01*
X0270568Y0464229D01*
X0270595Y0464269D01*
X0270618Y0464310D01*
X0270638Y0464354D01*
X0270654Y0464398D01*
X0270667Y0464444D01*
X0270677Y0464491D01*
X0270682Y0464538D01*
X0270684Y0464586D01*
X0270684Y0465248D01*
X0270686Y0465306D01*
X0270691Y0465363D01*
X0270701Y0465420D01*
X0270714Y0465477D01*
X0270731Y0465532D01*
X0270751Y0465586D01*
X0270775Y0465639D01*
X0270802Y0465690D01*
X0270833Y0465739D01*
X0270866Y0465786D01*
X0270903Y0465830D01*
X0270942Y0465873D01*
X0270985Y0465912D01*
X0271029Y0465949D01*
X0271076Y0465982D01*
X0271125Y0466013D01*
X0271176Y0466040D01*
X0271229Y0466064D01*
X0271283Y0466084D01*
X0271338Y0466101D01*
X0271395Y0466114D01*
X0271452Y0466124D01*
X0271509Y0466129D01*
X0271567Y0466131D01*
X0271677Y0466131D01*
X0271678Y0466132D02*
X0271735Y0466130D01*
X0271793Y0466124D01*
X0271850Y0466115D01*
X0271906Y0466102D01*
X0271962Y0466085D01*
X0272016Y0466065D01*
X0272068Y0466041D01*
X0272119Y0466014D01*
X0272168Y0465983D01*
X0272215Y0465950D01*
X0272260Y0465913D01*
X0272302Y0465873D01*
X0272342Y0465831D01*
X0272379Y0465786D01*
X0272412Y0465739D01*
X0272443Y0465690D01*
X0272470Y0465639D01*
X0272494Y0465587D01*
X0272514Y0465533D01*
X0272531Y0465477D01*
X0272544Y0465421D01*
X0272553Y0465364D01*
X0272559Y0465306D01*
X0272561Y0465249D01*
X0272560Y0465248D02*
X0272560Y0464641D01*
X0272561Y0464641D02*
X0272563Y0464592D01*
X0272568Y0464542D01*
X0272578Y0464494D01*
X0272590Y0464446D01*
X0272607Y0464399D01*
X0272627Y0464354D01*
X0272650Y0464310D01*
X0272676Y0464268D01*
X0272705Y0464228D01*
X0272738Y0464191D01*
X0272773Y0464156D01*
X0272810Y0464123D01*
X0272850Y0464094D01*
X0272892Y0464068D01*
X0272936Y0464045D01*
X0272981Y0464025D01*
X0273028Y0464008D01*
X0273076Y0463996D01*
X0273124Y0463986D01*
X0273174Y0463981D01*
X0273223Y0463979D01*
X0273222Y0463979D01*
X0273223Y0463979D02*
X0273270Y0463981D01*
X0273318Y0463986D01*
X0273365Y0463995D01*
X0273411Y0464008D01*
X0273455Y0464025D01*
X0273499Y0464044D01*
X0273540Y0464068D01*
X0273580Y0464094D01*
X0273618Y0464124D01*
X0273653Y0464156D01*
X0273685Y0464191D01*
X0273715Y0464229D01*
X0273741Y0464268D01*
X0273764Y0464310D01*
X0273784Y0464353D01*
X0273801Y0464398D01*
X0273814Y0464444D01*
X0273823Y0464491D01*
X0273828Y0464538D01*
X0273830Y0464586D01*
X0273830Y0468284D01*
X0278963Y0474576D02*
X0278961Y0474648D01*
X0278955Y0474720D01*
X0278946Y0474792D01*
X0278933Y0474863D01*
X0278916Y0474933D01*
X0278896Y0475002D01*
X0278871Y0475070D01*
X0278844Y0475137D01*
X0278813Y0475202D01*
X0278778Y0475266D01*
X0278740Y0475328D01*
X0278699Y0475387D01*
X0278655Y0475444D01*
X0278609Y0475499D01*
X0278559Y0475552D01*
X0278506Y0475602D01*
X0278451Y0475648D01*
X0278394Y0475692D01*
X0278335Y0475733D01*
X0278273Y0475771D01*
X0278209Y0475806D01*
X0278144Y0475837D01*
X0278077Y0475864D01*
X0278009Y0475889D01*
X0277940Y0475909D01*
X0277870Y0475926D01*
X0277799Y0475939D01*
X0277727Y0475948D01*
X0277655Y0475954D01*
X0277583Y0475956D01*
X0277418Y0475956D01*
X0278963Y0474576D02*
X0278963Y0468505D01*
X0262956Y0489920D02*
X0262908Y0489919D01*
X0262861Y0489923D01*
X0262814Y0489931D01*
X0262767Y0489942D01*
X0262722Y0489958D01*
X0262678Y0489977D01*
X0262636Y0489999D01*
X0262595Y0490025D01*
X0262557Y0490055D01*
X0262522Y0490087D01*
X0262489Y0490122D01*
X0262460Y0490159D01*
X0262433Y0490199D01*
X0262410Y0490241D01*
X0262391Y0490285D01*
X0262375Y0490330D01*
X0262363Y0490377D01*
X0262355Y0490424D01*
X0262351Y0490471D01*
X0262350Y0490519D01*
X0262354Y0490567D01*
X0262362Y0490614D01*
X0262373Y0490661D01*
X0262388Y0490706D01*
X0262407Y0490750D01*
X0262430Y0490792D01*
X0262456Y0490833D01*
X0262485Y0490871D01*
X0262517Y0490906D01*
X0262552Y0490939D01*
X0262589Y0490969D01*
X0262629Y0490995D01*
X0262671Y0491018D01*
X0262715Y0491038D01*
X0262760Y0491054D01*
X0262806Y0491066D01*
X0262854Y0491074D01*
X0262901Y0491078D01*
X0251753Y0465248D02*
X0251753Y0464641D01*
X0251755Y0464592D01*
X0251760Y0464542D01*
X0251770Y0464494D01*
X0251782Y0464446D01*
X0251799Y0464399D01*
X0251819Y0464354D01*
X0251842Y0464310D01*
X0251868Y0464268D01*
X0251897Y0464228D01*
X0251930Y0464191D01*
X0251965Y0464156D01*
X0252002Y0464123D01*
X0252042Y0464094D01*
X0252084Y0464068D01*
X0252128Y0464045D01*
X0252173Y0464025D01*
X0252220Y0464008D01*
X0252268Y0463996D01*
X0252316Y0463986D01*
X0252366Y0463981D01*
X0252415Y0463979D01*
X0251752Y0465248D02*
X0251750Y0465306D01*
X0251744Y0465363D01*
X0251735Y0465420D01*
X0251722Y0465477D01*
X0251705Y0465532D01*
X0251685Y0465586D01*
X0251661Y0465639D01*
X0251634Y0465690D01*
X0251603Y0465739D01*
X0251570Y0465786D01*
X0251533Y0465830D01*
X0251493Y0465872D01*
X0251451Y0465912D01*
X0251407Y0465949D01*
X0251360Y0465982D01*
X0251311Y0466013D01*
X0251260Y0466040D01*
X0251207Y0466064D01*
X0251153Y0466084D01*
X0251098Y0466101D01*
X0251041Y0466114D01*
X0250984Y0466123D01*
X0250927Y0466129D01*
X0250869Y0466131D01*
X0238207Y0449420D02*
X0238207Y0444816D01*
X0222750Y0488279D02*
X0219681Y0488279D01*
X0221215Y0488279D02*
X0221215Y0492883D01*
X0219681Y0491348D01*
X0218146Y0491348D02*
X0217379Y0490581D01*
X0218146Y0489813D01*
X0218146Y0489046D01*
X0217379Y0488279D01*
X0215844Y0488279D01*
X0215077Y0489046D01*
X0213542Y0489046D02*
X0212775Y0488279D01*
X0211240Y0488279D01*
X0210473Y0489046D01*
X0210473Y0492115D01*
X0211240Y0492883D01*
X0212775Y0492883D01*
X0213542Y0492115D01*
X0215077Y0492115D02*
X0215844Y0492883D01*
X0217379Y0492883D01*
X0218146Y0492115D01*
X0218146Y0491348D01*
X0217379Y0490581D02*
X0216611Y0490581D01*
X0199048Y0474286D02*
X0199048Y0471217D01*
X0194444Y0471217D01*
X0194444Y0474286D01*
X0196746Y0472752D02*
X0196746Y0471217D01*
X0199048Y0469682D02*
X0199048Y0466613D01*
X0194444Y0466613D01*
X0195433Y0464179D02*
X0195433Y0462604D01*
X0198189Y0462604D02*
X0198189Y0464179D01*
X0237347Y0496260D02*
X0241951Y0499329D01*
X0241951Y0500864D02*
X0241951Y0503933D01*
X0241951Y0502398D02*
X0237347Y0502398D01*
X0238881Y0500864D01*
X0237347Y0499329D02*
X0241951Y0496260D01*
X0272531Y0337494D02*
X0273298Y0337494D01*
X0276367Y0334425D01*
X0277135Y0334425D01*
X0277135Y0332890D02*
X0277135Y0329821D01*
X0274065Y0332890D01*
X0273298Y0332890D01*
X0272531Y0332123D01*
X0272531Y0330588D01*
X0273298Y0329821D01*
X0273298Y0328286D02*
X0272531Y0327519D01*
X0272531Y0325984D01*
X0273298Y0325217D01*
X0276367Y0325217D01*
X0277135Y0325984D01*
X0277135Y0327519D01*
X0276367Y0328286D01*
X0272531Y0334425D02*
X0272531Y0337494D01*
X0288781Y0192244D02*
X0289548Y0190709D01*
X0291083Y0189175D01*
X0291083Y0191477D01*
X0291850Y0192244D01*
X0292617Y0192244D01*
X0293385Y0191477D01*
X0293385Y0189942D01*
X0292617Y0189175D01*
X0291083Y0189175D01*
X0290315Y0187640D02*
X0289548Y0187640D01*
X0288781Y0186873D01*
X0288781Y0185338D01*
X0289548Y0184571D01*
X0289548Y0183036D02*
X0288781Y0182269D01*
X0288781Y0180734D01*
X0289548Y0179967D01*
X0292617Y0179967D01*
X0293385Y0180734D01*
X0293385Y0182269D01*
X0292617Y0183036D01*
X0293385Y0184571D02*
X0290315Y0187640D01*
X0293385Y0187640D02*
X0293385Y0184571D01*
D14*
X0155441Y0301203D02*
X0155451Y0302012D01*
X0155481Y0302821D01*
X0155530Y0303629D01*
X0155600Y0304435D01*
X0155689Y0305239D01*
X0155798Y0306041D01*
X0155926Y0306840D01*
X0156075Y0307636D01*
X0156242Y0308427D01*
X0156429Y0309215D01*
X0156635Y0309997D01*
X0156861Y0310774D01*
X0157105Y0311546D01*
X0157368Y0312311D01*
X0157650Y0313069D01*
X0157951Y0313821D01*
X0158270Y0314565D01*
X0158607Y0315300D01*
X0158962Y0316028D01*
X0159334Y0316746D01*
X0159724Y0317455D01*
X0160132Y0318154D01*
X0160556Y0318843D01*
X0160998Y0319521D01*
X0161456Y0320189D01*
X0161930Y0320844D01*
X0162420Y0321488D01*
X0162925Y0322120D01*
X0163446Y0322739D01*
X0163982Y0323346D01*
X0164533Y0323939D01*
X0165098Y0324518D01*
X0165677Y0325083D01*
X0166270Y0325634D01*
X0166877Y0326170D01*
X0167496Y0326691D01*
X0168128Y0327196D01*
X0168772Y0327686D01*
X0169427Y0328160D01*
X0170095Y0328618D01*
X0170773Y0329060D01*
X0171462Y0329484D01*
X0172161Y0329892D01*
X0172870Y0330282D01*
X0173588Y0330654D01*
X0174316Y0331009D01*
X0175051Y0331346D01*
X0175795Y0331665D01*
X0176547Y0331966D01*
X0177305Y0332248D01*
X0178070Y0332511D01*
X0178842Y0332755D01*
X0179619Y0332981D01*
X0180401Y0333187D01*
X0181189Y0333374D01*
X0181980Y0333541D01*
X0182776Y0333690D01*
X0183575Y0333818D01*
X0184377Y0333927D01*
X0185181Y0334016D01*
X0185987Y0334086D01*
X0186795Y0334135D01*
X0187604Y0334165D01*
X0188413Y0334175D01*
X0189222Y0334165D01*
X0190031Y0334135D01*
X0190839Y0334086D01*
X0191645Y0334016D01*
X0192449Y0333927D01*
X0193251Y0333818D01*
X0194050Y0333690D01*
X0194846Y0333541D01*
X0195637Y0333374D01*
X0196425Y0333187D01*
X0197207Y0332981D01*
X0197984Y0332755D01*
X0198756Y0332511D01*
X0199521Y0332248D01*
X0200279Y0331966D01*
X0201031Y0331665D01*
X0201775Y0331346D01*
X0202510Y0331009D01*
X0203238Y0330654D01*
X0203956Y0330282D01*
X0204665Y0329892D01*
X0205364Y0329484D01*
X0206053Y0329060D01*
X0206731Y0328618D01*
X0207399Y0328160D01*
X0208054Y0327686D01*
X0208698Y0327196D01*
X0209330Y0326691D01*
X0209949Y0326170D01*
X0210556Y0325634D01*
X0211149Y0325083D01*
X0211728Y0324518D01*
X0212293Y0323939D01*
X0212844Y0323346D01*
X0213380Y0322739D01*
X0213901Y0322120D01*
X0214406Y0321488D01*
X0214896Y0320844D01*
X0215370Y0320189D01*
X0215828Y0319521D01*
X0216270Y0318843D01*
X0216694Y0318154D01*
X0217102Y0317455D01*
X0217492Y0316746D01*
X0217864Y0316028D01*
X0218219Y0315300D01*
X0218556Y0314565D01*
X0218875Y0313821D01*
X0219176Y0313069D01*
X0219458Y0312311D01*
X0219721Y0311546D01*
X0219965Y0310774D01*
X0220191Y0309997D01*
X0220397Y0309215D01*
X0220584Y0308427D01*
X0220751Y0307636D01*
X0220900Y0306840D01*
X0221028Y0306041D01*
X0221137Y0305239D01*
X0221226Y0304435D01*
X0221296Y0303629D01*
X0221345Y0302821D01*
X0221375Y0302012D01*
X0221385Y0301203D01*
X0221375Y0300394D01*
X0221345Y0299585D01*
X0221296Y0298777D01*
X0221226Y0297971D01*
X0221137Y0297167D01*
X0221028Y0296365D01*
X0220900Y0295566D01*
X0220751Y0294770D01*
X0220584Y0293979D01*
X0220397Y0293191D01*
X0220191Y0292409D01*
X0219965Y0291632D01*
X0219721Y0290860D01*
X0219458Y0290095D01*
X0219176Y0289337D01*
X0218875Y0288585D01*
X0218556Y0287841D01*
X0218219Y0287106D01*
X0217864Y0286378D01*
X0217492Y0285660D01*
X0217102Y0284951D01*
X0216694Y0284252D01*
X0216270Y0283563D01*
X0215828Y0282885D01*
X0215370Y0282217D01*
X0214896Y0281562D01*
X0214406Y0280918D01*
X0213901Y0280286D01*
X0213380Y0279667D01*
X0212844Y0279060D01*
X0212293Y0278467D01*
X0211728Y0277888D01*
X0211149Y0277323D01*
X0210556Y0276772D01*
X0209949Y0276236D01*
X0209330Y0275715D01*
X0208698Y0275210D01*
X0208054Y0274720D01*
X0207399Y0274246D01*
X0206731Y0273788D01*
X0206053Y0273346D01*
X0205364Y0272922D01*
X0204665Y0272514D01*
X0203956Y0272124D01*
X0203238Y0271752D01*
X0202510Y0271397D01*
X0201775Y0271060D01*
X0201031Y0270741D01*
X0200279Y0270440D01*
X0199521Y0270158D01*
X0198756Y0269895D01*
X0197984Y0269651D01*
X0197207Y0269425D01*
X0196425Y0269219D01*
X0195637Y0269032D01*
X0194846Y0268865D01*
X0194050Y0268716D01*
X0193251Y0268588D01*
X0192449Y0268479D01*
X0191645Y0268390D01*
X0190839Y0268320D01*
X0190031Y0268271D01*
X0189222Y0268241D01*
X0188413Y0268231D01*
X0187604Y0268241D01*
X0186795Y0268271D01*
X0185987Y0268320D01*
X0185181Y0268390D01*
X0184377Y0268479D01*
X0183575Y0268588D01*
X0182776Y0268716D01*
X0181980Y0268865D01*
X0181189Y0269032D01*
X0180401Y0269219D01*
X0179619Y0269425D01*
X0178842Y0269651D01*
X0178070Y0269895D01*
X0177305Y0270158D01*
X0176547Y0270440D01*
X0175795Y0270741D01*
X0175051Y0271060D01*
X0174316Y0271397D01*
X0173588Y0271752D01*
X0172870Y0272124D01*
X0172161Y0272514D01*
X0171462Y0272922D01*
X0170773Y0273346D01*
X0170095Y0273788D01*
X0169427Y0274246D01*
X0168772Y0274720D01*
X0168128Y0275210D01*
X0167496Y0275715D01*
X0166877Y0276236D01*
X0166270Y0276772D01*
X0165677Y0277323D01*
X0165098Y0277888D01*
X0164533Y0278467D01*
X0163982Y0279060D01*
X0163446Y0279667D01*
X0162925Y0280286D01*
X0162420Y0280918D01*
X0161930Y0281562D01*
X0161456Y0282217D01*
X0160998Y0282885D01*
X0160556Y0283563D01*
X0160132Y0284252D01*
X0159724Y0284951D01*
X0159334Y0285660D01*
X0158962Y0286378D01*
X0158607Y0287106D01*
X0158270Y0287841D01*
X0157951Y0288585D01*
X0157650Y0289337D01*
X0157368Y0290095D01*
X0157105Y0290860D01*
X0156861Y0291632D01*
X0156635Y0292409D01*
X0156429Y0293191D01*
X0156242Y0293979D01*
X0156075Y0294770D01*
X0155926Y0295566D01*
X0155798Y0296365D01*
X0155689Y0297167D01*
X0155600Y0297971D01*
X0155530Y0298777D01*
X0155481Y0299585D01*
X0155451Y0300394D01*
X0155441Y0301203D01*
X0171042Y0215696D02*
X0171042Y0212315D01*
X0175585Y0210815D02*
X0177698Y0210815D01*
X0182242Y0212315D02*
X0182242Y0215696D01*
X0171984Y0088177D02*
X0163717Y0088177D01*
X0156433Y0082862D02*
X0156433Y0080500D01*
X0163717Y0075185D02*
X0171984Y0075185D01*
X0179268Y0080500D02*
X0179268Y0082862D01*
D15*
X0179219Y0203956D02*
X0179219Y0205457D01*
X0178718Y0204957D01*
X0178246Y0204707D02*
X0177245Y0204707D01*
X0176773Y0204957D02*
X0176523Y0204707D01*
X0176773Y0204456D01*
X0176773Y0204206D01*
X0176523Y0203956D01*
X0176022Y0203956D01*
X0175772Y0204206D01*
X0175300Y0203956D02*
X0174299Y0203956D01*
X0175300Y0204957D01*
X0175300Y0205207D01*
X0175049Y0205457D01*
X0174549Y0205457D01*
X0174299Y0205207D01*
X0173826Y0205457D02*
X0172825Y0205457D01*
X0173326Y0205457D02*
X0173326Y0203956D01*
X0172353Y0204206D02*
X0172353Y0205207D01*
X0172103Y0205457D01*
X0171602Y0205457D01*
X0171352Y0205207D01*
X0171352Y0204206D01*
X0171602Y0203956D01*
X0172103Y0203956D01*
X0172353Y0204206D01*
X0170880Y0204206D02*
X0170630Y0203956D01*
X0170129Y0203956D01*
X0169879Y0204206D01*
X0170129Y0204707D02*
X0170630Y0204707D01*
X0170880Y0204456D01*
X0170880Y0204206D01*
X0170129Y0204707D02*
X0169879Y0204957D01*
X0169879Y0205207D01*
X0170129Y0205457D01*
X0170630Y0205457D01*
X0170880Y0205207D01*
X0175772Y0205207D02*
X0176022Y0205457D01*
X0176523Y0205457D01*
X0176773Y0205207D01*
X0176773Y0204957D01*
X0176523Y0204707D02*
X0176272Y0204707D01*
X0178718Y0203956D02*
X0179719Y0203956D01*
D16*
X0188413Y0331862D03*
D17*
X0175921Y0082469D03*
D18*
X0231250Y0462693D03*
D19*
X0206943Y0463884D03*
X0197943Y0463884D03*
X0197453Y0052087D03*
X0207453Y0052087D03*
X0187453Y0052087D03*
X0177453Y0052087D03*
X0167453Y0052087D03*
X0157453Y0052087D03*
X0147453Y0052087D03*
D20*
X0120482Y0100132D02*
X0118317Y0100132D01*
X0116742Y0100132D02*
X0116348Y0100132D01*
X0114774Y0100132D02*
X0112608Y0100132D01*
X0112608Y0100329D01*
X0120482Y0100329D02*
X0120482Y0100132D01*
X0120089Y0110171D02*
X0118907Y0110171D01*
X0118907Y0111352D01*
X0118317Y0111943D02*
X0120482Y0111943D01*
X0120482Y0111746D01*
X0116742Y0111943D02*
X0116348Y0111943D01*
X0114774Y0111943D02*
X0112608Y0111943D01*
X0112608Y0111746D01*
X0088159Y0151598D02*
X0087963Y0151598D01*
X0088159Y0151598D02*
X0088159Y0153764D01*
X0087569Y0153173D02*
X0086388Y0153173D01*
X0086388Y0151992D01*
X0088159Y0155339D02*
X0088159Y0155732D01*
X0088159Y0157307D02*
X0088159Y0159472D01*
X0087963Y0159472D01*
X0076545Y0159472D02*
X0076348Y0159472D01*
X0076348Y0157307D01*
X0076348Y0155732D02*
X0076348Y0155339D01*
X0076348Y0153764D02*
X0076348Y0151598D01*
X0076545Y0151598D01*
X0093388Y0261567D02*
X0093388Y0263732D01*
X0093388Y0265307D02*
X0093388Y0265701D01*
X0093388Y0267276D02*
X0093388Y0269441D01*
X0093585Y0269441D01*
X0093585Y0261567D02*
X0093388Y0261567D01*
X0103427Y0261961D02*
X0103427Y0263142D01*
X0104608Y0263142D01*
X0105199Y0263732D02*
X0105199Y0261567D01*
X0105002Y0261567D01*
X0105199Y0265307D02*
X0105199Y0265701D01*
X0105199Y0267276D02*
X0105199Y0269441D01*
X0105002Y0269441D01*
X0109526Y0375323D02*
X0109526Y0377488D01*
X0109526Y0379063D02*
X0109526Y0379457D01*
X0109526Y0381031D02*
X0109526Y0383197D01*
X0109722Y0383197D01*
X0109722Y0375323D02*
X0109526Y0375323D01*
X0119565Y0375717D02*
X0119565Y0376898D01*
X0120746Y0376898D01*
X0121337Y0377488D02*
X0121337Y0375323D01*
X0121140Y0375323D01*
X0121337Y0379063D02*
X0121337Y0379457D01*
X0121337Y0381031D02*
X0121337Y0383197D01*
X0121140Y0383197D01*
X0248880Y0339156D02*
X0248880Y0336990D01*
X0248880Y0335415D02*
X0248880Y0335022D01*
X0248880Y0333447D02*
X0248880Y0331281D01*
X0249077Y0331281D01*
X0249077Y0339156D02*
X0248880Y0339156D01*
X0260494Y0339156D02*
X0260691Y0339156D01*
X0260691Y0336990D01*
X0260691Y0335415D02*
X0260691Y0335022D01*
X0260691Y0333447D02*
X0260691Y0331281D01*
X0260494Y0331281D01*
X0258919Y0331675D02*
X0258919Y0332856D01*
X0260100Y0332856D01*
X0264522Y0193689D02*
X0264522Y0191524D01*
X0264522Y0189949D02*
X0264522Y0189555D01*
X0264522Y0187980D02*
X0264522Y0185815D01*
X0264719Y0185815D01*
X0264719Y0193689D02*
X0264522Y0193689D01*
X0274561Y0187390D02*
X0274561Y0186209D01*
X0274561Y0187390D02*
X0275742Y0187390D01*
X0276333Y0187980D02*
X0276333Y0185815D01*
X0276136Y0185815D01*
X0276333Y0189555D02*
X0276333Y0189949D01*
X0276333Y0191524D02*
X0276333Y0193689D01*
X0276136Y0193689D01*
X0239341Y0114114D02*
X0237175Y0114114D01*
X0235600Y0114114D02*
X0235207Y0114114D01*
X0233632Y0114114D02*
X0231467Y0114114D01*
X0231467Y0113917D01*
X0231860Y0104075D02*
X0233041Y0104075D01*
X0233041Y0102894D01*
X0233632Y0102303D02*
X0231467Y0102303D01*
X0231467Y0102500D01*
X0235207Y0102303D02*
X0235600Y0102303D01*
X0237175Y0102303D02*
X0239341Y0102303D01*
X0239341Y0102500D01*
X0239341Y0113917D02*
X0239341Y0114114D01*
D21*
X0230647Y0018079D03*
X0202522Y0018079D03*
X0192647Y0018079D03*
X0164522Y0018079D03*
X0154647Y0018079D03*
X0126522Y0018079D03*
D22*
X0135624Y0009055D02*
X0135624Y0008505D01*
X0136174Y0007954D01*
X0137275Y0007954D01*
X0137825Y0007404D01*
X0137825Y0006853D01*
X0137275Y0006303D01*
X0136174Y0006303D01*
X0135624Y0006853D01*
X0135624Y0009055D02*
X0136174Y0009606D01*
X0137275Y0009606D01*
X0137825Y0009055D01*
X0139307Y0009606D02*
X0139307Y0006303D01*
X0140408Y0007404D01*
X0141509Y0006303D01*
X0141509Y0009606D01*
X0142990Y0008505D02*
X0144091Y0009606D01*
X0144091Y0006303D01*
X0142990Y0006303D02*
X0145192Y0006303D01*
X0173124Y0007353D02*
X0173674Y0006803D01*
X0174775Y0006803D01*
X0175325Y0007353D01*
X0175325Y0007904D01*
X0174775Y0008454D01*
X0173674Y0008454D01*
X0173124Y0009005D01*
X0173124Y0009555D01*
X0173674Y0010106D01*
X0174775Y0010106D01*
X0175325Y0009555D01*
X0176807Y0010106D02*
X0176807Y0006803D01*
X0177908Y0007904D01*
X0179009Y0006803D01*
X0179009Y0010106D01*
X0180490Y0009555D02*
X0181040Y0010106D01*
X0182141Y0010106D01*
X0182692Y0009555D01*
X0182692Y0009005D01*
X0180490Y0006803D01*
X0182692Y0006803D01*
X0211624Y0006853D02*
X0212174Y0006303D01*
X0213275Y0006303D01*
X0213825Y0006853D01*
X0213825Y0007404D01*
X0213275Y0007954D01*
X0212174Y0007954D01*
X0211624Y0008505D01*
X0211624Y0009055D01*
X0212174Y0009606D01*
X0213275Y0009606D01*
X0213825Y0009055D01*
X0215307Y0009606D02*
X0215307Y0006303D01*
X0216408Y0007404D01*
X0217509Y0006303D01*
X0217509Y0009606D01*
X0218990Y0009055D02*
X0219540Y0009606D01*
X0220641Y0009606D01*
X0221192Y0009055D01*
X0221192Y0008505D01*
X0220641Y0007954D01*
X0221192Y0007404D01*
X0221192Y0006853D01*
X0220641Y0006303D01*
X0219540Y0006303D01*
X0218990Y0006853D01*
X0220091Y0007954D02*
X0220641Y0007954D01*
M02*
