G75*
%MOIN*%
%OFA0B0*%
%FSLAX25Y25*%
%IPPOS*%
%LPD*%
%AMOC8*
5,1,8,0,0,1.08239X$1,22.5*
%
%ADD10C,0.10400*%
%ADD11C,0.35833*%
%ADD12C,0.07400*%
%ADD13C,0.08000*%
%ADD14R,0.01500X0.06200*%
%ADD15R,0.06200X0.01500*%
%ADD16R,0.09061X0.10243*%
%ADD17R,0.08274X0.02369*%
%ADD18C,0.03943*%
%ADD19R,0.02565X0.05124*%
%ADD20R,0.06306X0.05518*%
%ADD21R,0.05518X0.06306*%
%ADD22C,0.08274*%
%ADD23C,0.55518*%
%ADD24R,0.06109X0.01896*%
%ADD25R,0.04337X0.04731*%
%ADD26C,0.05900*%
%ADD27R,0.04731X0.04337*%
%ADD28R,0.06699X0.07487*%
%ADD29R,0.07880X0.05912*%
%ADD30R,0.05518X0.03156*%
%ADD31R,0.03550X0.03550*%
%ADD32R,0.07487X0.06699*%
%ADD33R,0.02520X0.01654*%
%ADD34R,0.01642X0.03031*%
%ADD35R,0.04094X0.08268*%
%ADD36R,0.01654X0.02520*%
%ADD37R,0.03031X0.01642*%
%ADD38R,0.08268X0.04094*%
%ADD39R,0.06699X0.05912*%
D10*
X0066486Y0123323D03*
X0089022Y0233016D03*
X0107259Y0345561D03*
X0120112Y0459913D03*
X0246927Y0415386D03*
X0264049Y0270425D03*
X0290545Y0123343D03*
D11*
X0269955Y0077083D03*
X0243459Y0224165D03*
X0226337Y0369126D03*
X0140703Y0413654D03*
X0127849Y0299301D03*
X0109612Y0186756D03*
X0087077Y0077063D03*
D12*
X0052707Y0102063D03*
X0051526Y0111118D03*
X0058612Y0116630D03*
X0060581Y0107772D03*
X0075242Y0211756D03*
X0074061Y0220811D03*
X0081148Y0226323D03*
X0083116Y0217465D03*
X0093479Y0324301D03*
X0092298Y0333356D03*
X0099385Y0338868D03*
X0101353Y0330010D03*
X0106333Y0438654D03*
X0105152Y0447709D03*
X0112238Y0453220D03*
X0114207Y0444362D03*
D13*
X0252833Y0399835D03*
X0254801Y0408693D03*
X0261888Y0403181D03*
X0260707Y0394126D03*
X0271923Y0263732D03*
X0269955Y0254874D03*
X0277829Y0249165D03*
X0279010Y0258220D03*
X0298419Y0116650D03*
X0305506Y0111138D03*
X0304325Y0102083D03*
X0296451Y0107791D03*
D14*
X0197599Y0099894D03*
X0195599Y0099894D03*
X0193599Y0099894D03*
X0191699Y0099894D03*
X0189699Y0099894D03*
X0187699Y0099894D03*
X0185799Y0099894D03*
X0183799Y0099894D03*
X0181799Y0099894D03*
X0179799Y0099894D03*
X0177899Y0099894D03*
X0175899Y0099894D03*
X0173899Y0099894D03*
X0171999Y0099894D03*
X0169999Y0099894D03*
X0167999Y0099894D03*
X0167999Y0144094D03*
X0169999Y0144094D03*
X0171999Y0144094D03*
X0173899Y0144094D03*
X0175899Y0144094D03*
X0177899Y0144094D03*
X0179799Y0144094D03*
X0181799Y0144094D03*
X0183799Y0144094D03*
X0185799Y0144094D03*
X0187699Y0144094D03*
X0189699Y0144094D03*
X0191699Y0144094D03*
X0193599Y0144094D03*
X0195599Y0144094D03*
X0197599Y0144094D03*
D15*
X0204899Y0136794D03*
X0204899Y0134794D03*
X0204899Y0132794D03*
X0204899Y0130894D03*
X0204899Y0128894D03*
X0204899Y0126894D03*
X0204899Y0124994D03*
X0204899Y0122994D03*
X0204899Y0120994D03*
X0204899Y0118994D03*
X0204899Y0117094D03*
X0204899Y0115094D03*
X0204899Y0113094D03*
X0204899Y0111194D03*
X0204899Y0109194D03*
X0204899Y0107194D03*
X0160699Y0107194D03*
X0160699Y0109194D03*
X0160699Y0111194D03*
X0160699Y0113094D03*
X0160699Y0115094D03*
X0160699Y0117094D03*
X0160699Y0118994D03*
X0160699Y0120994D03*
X0160699Y0122994D03*
X0160699Y0124994D03*
X0160699Y0126894D03*
X0160699Y0128894D03*
X0160699Y0130894D03*
X0160699Y0132794D03*
X0160699Y0134794D03*
X0160699Y0136794D03*
D16*
X0250777Y0466732D03*
X0250777Y0499803D03*
X0271643Y0499803D03*
X0271643Y0466732D03*
D17*
X0249792Y0476969D03*
X0249792Y0480118D03*
X0249792Y0483268D03*
X0249792Y0486417D03*
X0249792Y0489567D03*
D18*
X0258651Y0490157D03*
X0258651Y0476378D03*
D19*
X0187575Y0427947D03*
X0183835Y0427947D03*
X0180094Y0427947D03*
X0180094Y0417711D03*
X0187575Y0417711D03*
X0180382Y0219124D03*
X0176642Y0219124D03*
X0172902Y0219124D03*
X0172902Y0208887D03*
X0180382Y0208887D03*
D20*
X0190057Y0211409D03*
X0190057Y0218890D03*
X0198521Y0218874D03*
X0198521Y0211394D03*
X0172827Y0228264D03*
X0172827Y0235744D03*
X0172823Y0244347D03*
X0172823Y0251828D03*
X0164429Y0244275D03*
X0164429Y0236794D03*
X0151370Y0140502D03*
X0151370Y0133022D03*
X0150563Y0085280D03*
X0150563Y0077799D03*
X0148585Y0043319D03*
X0148585Y0035839D03*
X0158585Y0035839D03*
X0158585Y0043319D03*
X0168585Y0043319D03*
X0168585Y0035839D03*
X0178585Y0035839D03*
X0178585Y0043319D03*
X0188585Y0043319D03*
X0188585Y0035839D03*
X0198585Y0035839D03*
X0198585Y0043319D03*
X0208585Y0043319D03*
X0208585Y0035839D03*
X0185063Y0075799D03*
X0185063Y0083280D03*
X0187300Y0351490D03*
X0187300Y0358970D03*
X0197186Y0446152D03*
X0197186Y0453632D03*
X0205561Y0453632D03*
X0205561Y0446152D03*
D21*
X0174173Y0382669D03*
X0166693Y0382669D03*
X0166693Y0374544D03*
X0166746Y0366113D03*
X0174226Y0366113D03*
X0174173Y0374544D03*
X0183746Y0367363D03*
X0191226Y0367363D03*
X0174226Y0344488D03*
X0166746Y0344488D03*
X0181536Y0252423D03*
X0181458Y0244077D03*
X0181518Y0235719D03*
X0188998Y0235719D03*
X0188938Y0244077D03*
X0189017Y0252423D03*
X0190234Y0203106D03*
X0197715Y0203106D03*
X0245579Y0454616D03*
X0253059Y0454616D03*
D22*
X0188413Y0261203D03*
D23*
X0188413Y0301203D03*
D24*
X0179297Y0351582D03*
X0179297Y0354141D03*
X0179297Y0356700D03*
X0179297Y0359259D03*
X0161974Y0359259D03*
X0161974Y0356700D03*
X0161974Y0354141D03*
X0161974Y0351582D03*
D25*
X0146118Y0505430D03*
X0139425Y0505430D03*
X0139426Y0513477D03*
X0146119Y0513477D03*
D26*
X0139998Y0530549D03*
X0129998Y0530549D03*
X0119998Y0530549D03*
X0120085Y0552704D03*
X0130085Y0552704D03*
X0127551Y0493548D03*
X0117551Y0493548D03*
X0107551Y0493548D03*
X0137585Y0493579D03*
X0147585Y0493579D03*
D27*
X0141618Y0481805D03*
X0134925Y0481805D03*
D28*
X0130534Y0541352D03*
X0119511Y0541352D03*
X0119261Y0564852D03*
X0130284Y0564852D03*
X0177094Y0437730D03*
X0188117Y0437730D03*
X0223573Y0483079D03*
X0234596Y0483079D03*
X0184096Y0163079D03*
X0173073Y0163079D03*
X0145096Y0115579D03*
X0134073Y0115579D03*
X0125096Y0119079D03*
X0114073Y0119079D03*
X0139323Y0093579D03*
X0150346Y0093579D03*
X0216880Y0119998D03*
X0227904Y0119998D03*
X0230823Y0096829D03*
X0241846Y0096829D03*
D29*
X0176512Y0086406D03*
X0176512Y0076957D03*
X0159189Y0076957D03*
X0159189Y0086406D03*
D30*
X0214124Y0461886D03*
X0214124Y0466886D03*
X0214124Y0471886D03*
X0214124Y0476886D03*
X0235778Y0476886D03*
X0235778Y0471886D03*
X0235778Y0466886D03*
X0235778Y0461886D03*
D31*
X0205811Y0460439D03*
X0205811Y0466344D03*
X0196811Y0466344D03*
X0196811Y0460439D03*
X0198585Y0055531D03*
X0198585Y0049626D03*
X0208585Y0049626D03*
X0208585Y0055531D03*
X0188585Y0055531D03*
X0188585Y0049626D03*
X0178585Y0049626D03*
X0178585Y0055531D03*
X0168585Y0055531D03*
X0168585Y0049626D03*
X0158585Y0049626D03*
X0158585Y0055531D03*
X0148585Y0055531D03*
X0148585Y0049626D03*
D32*
X0095085Y0145567D03*
X0095085Y0156591D03*
X0111618Y0258817D03*
X0111618Y0269841D03*
X0164793Y0222150D03*
X0164793Y0211126D03*
X0198537Y0228204D03*
X0198537Y0239227D03*
X0267335Y0328317D03*
X0267335Y0339341D03*
X0283585Y0194091D03*
X0283585Y0183067D03*
X0127748Y0371937D03*
X0127748Y0382961D03*
D33*
X0120285Y0110959D03*
X0120285Y0108990D03*
X0120285Y0107022D03*
X0120285Y0105053D03*
X0120285Y0103085D03*
X0120285Y0101116D03*
X0112805Y0101116D03*
X0112805Y0103085D03*
X0112805Y0105053D03*
X0112805Y0107022D03*
X0112805Y0108990D03*
X0112805Y0110959D03*
X0231663Y0111161D03*
X0231663Y0109193D03*
X0231663Y0107224D03*
X0231663Y0105256D03*
X0231663Y0103287D03*
X0231663Y0113130D03*
X0239144Y0113130D03*
X0239144Y0111161D03*
X0239144Y0109193D03*
X0239144Y0107224D03*
X0239144Y0105256D03*
X0239144Y0103287D03*
D34*
X0236386Y0102756D03*
X0234417Y0102756D03*
X0234417Y0113661D03*
X0236386Y0113661D03*
X0117531Y0111490D03*
X0115563Y0111490D03*
X0115563Y0100585D03*
X0117531Y0100585D03*
D35*
X0116545Y0106037D03*
X0235404Y0108209D03*
D36*
X0265506Y0186012D03*
X0267474Y0186012D03*
X0269443Y0186012D03*
X0271411Y0186012D03*
X0273380Y0186012D03*
X0275348Y0186012D03*
X0275348Y0193492D03*
X0273380Y0193492D03*
X0271411Y0193492D03*
X0269443Y0193492D03*
X0267474Y0193492D03*
X0265506Y0193492D03*
X0259707Y0331478D03*
X0257738Y0331478D03*
X0255770Y0331478D03*
X0253801Y0331478D03*
X0251833Y0331478D03*
X0249864Y0331478D03*
X0249864Y0338959D03*
X0251833Y0338959D03*
X0253801Y0338959D03*
X0255770Y0338959D03*
X0257738Y0338959D03*
X0259707Y0338959D03*
X0120352Y0375520D03*
X0118384Y0375520D03*
X0116415Y0375520D03*
X0114447Y0375520D03*
X0112478Y0375520D03*
X0110510Y0375520D03*
X0110510Y0383000D03*
X0112478Y0383000D03*
X0114447Y0383000D03*
X0116415Y0383000D03*
X0118384Y0383000D03*
X0120352Y0383000D03*
X0104215Y0269244D03*
X0102246Y0269244D03*
X0100278Y0269244D03*
X0098309Y0269244D03*
X0096341Y0269244D03*
X0094372Y0269244D03*
X0094372Y0261764D03*
X0096341Y0261764D03*
X0098309Y0261764D03*
X0100278Y0261764D03*
X0102246Y0261764D03*
X0104215Y0261764D03*
X0087175Y0159276D03*
X0085207Y0159276D03*
X0083238Y0159276D03*
X0081270Y0159276D03*
X0079301Y0159276D03*
X0077333Y0159276D03*
X0077333Y0151795D03*
X0079301Y0151795D03*
X0081270Y0151795D03*
X0083238Y0151795D03*
X0085207Y0151795D03*
X0087175Y0151795D03*
D37*
X0087707Y0154549D03*
X0087707Y0156518D03*
X0076801Y0156518D03*
X0076801Y0154549D03*
X0093841Y0264518D03*
X0093841Y0266486D03*
X0104746Y0266486D03*
X0104746Y0264518D03*
X0109978Y0378274D03*
X0109978Y0380242D03*
X0120884Y0380242D03*
X0120884Y0378274D03*
X0249333Y0336201D03*
X0249333Y0334232D03*
X0260238Y0334232D03*
X0260238Y0336201D03*
X0264974Y0190734D03*
X0264974Y0188766D03*
X0275880Y0188766D03*
X0275880Y0190734D03*
D38*
X0270427Y0189752D03*
X0254785Y0335219D03*
X0115431Y0379260D03*
X0099293Y0265504D03*
X0082254Y0155535D03*
D39*
X0125821Y0018079D03*
X0155348Y0018079D03*
X0163821Y0018079D03*
X0193348Y0018079D03*
X0201821Y0018079D03*
X0231348Y0018079D03*
M02*
