<?xml version="1.0" encoding="UTF-8" standalone="no"?>
<!-- Created with Inkscape (http://www.inkscape.org/) -->

<svg
   xmlns:dc="http://purl.org/dc/elements/1.1/"
   xmlns:cc="http://creativecommons.org/ns#"
   xmlns:rdf="http://www.w3.org/1999/02/22-rdf-syntax-ns#"
   xmlns:svg="http://www.w3.org/2000/svg"
   xmlns="http://www.w3.org/2000/svg"
   xmlns:sodipodi="http://sodipodi.sourceforge.net/DTD/sodipodi-0.dtd"
   xmlns:inkscape="http://www.inkscape.org/namespaces/inkscape"
   id="svg4867"
   version="1.1"
   inkscape:version="0.91 r13725"
   xml:space="preserve"
   width="566.64502"
   height="922.21442"
   viewBox="0 0 566.64502 922.21437"
   sodipodi:docname="zadani.svg"><metadata
     id="metadata4873"><rdf:RDF><cc:Work
         rdf:about=""><dc:format>image/svg+xml</dc:format><dc:type
           rdf:resource="http://purl.org/dc/dcmitype/StillImage" /><dc:title></dc:title></cc:Work></rdf:RDF></metadata><defs
     id="defs4871"><clipPath
       clipPathUnits="userSpaceOnUse"
       id="clipPath4889"><path
         d="m -24.737391,-41.984423 48.476068,0 0,-7.621959 -48.476068,0 0,7.621959 z"
         id="path4891"
         inkscape:connector-curvature="0" /></clipPath></defs><sodipodi:namedview
     pagecolor="#ffffff"
     bordercolor="#666666"
     borderopacity="1"
     objecttolerance="10"
     gridtolerance="10"
     guidetolerance="10"
     inkscape:pageopacity="0"
     inkscape:pageshadow="2"
     inkscape:window-width="1366"
     inkscape:window-height="715"
     id="namedview4869"
     showgrid="false"
     inkscape:zoom="0.89702926"
     inkscape:cx="223.94807"
     inkscape:cy="333.7273"
     inkscape:window-x="-8"
     inkscape:window-y="-8"
     inkscape:window-maximized="1"
     inkscape:current-layer="g4875"
     fit-margin-top="0"
     fit-margin-left="0"
     fit-margin-right="0"
     fit-margin-bottom="0" /><g
     id="g4875"
     inkscape:groupmode="layer"
     inkscape:label="pdf_dokument94746134c94fd4900687410de2d88c40"
     transform="matrix(1.25,0,0,-1.25,-106.40983,980.87363)"><g
       id="g4877"
       transform="translate(0,34.6025)"><g
         id="g4879"><text
           transform="matrix(1,0,0,-1,85.039,13.812)"
           style="font-variant:normal;font-weight:normal;font-size:7.19999981px;font-family:ArialMT;-inkscape-font-specification:ArialMT;writing-mode:lr-tb;fill:#787878;fill-opacity:1;fill-rule:nonzero;stroke:none"
           id="text4881"><tspan
             x="0 4.3992 8.4024 12.0024 16.0056 17.604 19.6056 23.608801 25.610399 29.6136 31.212 35.215199 38.815201 40.816799 43.214401 47.217602 49.2192 53.222401 56.822399 60.8256 64.828796 66.4272 70.027199 73.627197 75.628799 79.632004 81.633598 85.233597 89.236801 95.234398 99.237602 103.2408 104.8392 108.4392 112.4424 116.0424 120.0456 122.0472 125.6472 129.65041 131.65199 133.65359 137.6568 141.25681 145.25999 149.2632 153.2664 154.86481 158.868 162.8712 164.4696 166.47121 168.47279 170.4744 175.27679 178.8768 182.47681 186.48 190.08 194.08321 196.08479 200.088 203.688 207.69119 211.6944 213.696 215.6976 217.6992 221.70239 225.3024 229.3056 233.30881 234.9072 238.5072 242.10719 246.1104 248.112 251.71201 253.71359 258.51599 260.9136 264.91681 268.92001 270.9216 272.92319 274.9248 279.32401 283.32721 286.92719 290.93039 294.93359 296.53201 300.13199 303.73199 307.7352 309.73679 313.73999 317.74319 321.7464 325.7496 327.75119 331.75439 335.7576 337.75919 339.7608 341.76239 345.76559 349.7688 353.772 355.77359 359.77679 363.78 365.78159 367.7832 369.78479 374.58719 376.9848 380.98801"
             y="0"
             sodipodi:role="line"
             id="tspan4883">Fakulta elektrotechniky a komunikačních technologií, Vysoké učení technické v Brně / Technická 3058/10 / 616 00 / Brno</tspan></text>
</g></g><g
       id="g4885"
       transform="matrix(5.579,0,0,5.579,223.519,1018.93)"><g
         id="g4887" /><g
         id="g4893"><g
           clip-path="url(#clipPath4889)"
           id="g4895"><path
             d="m 23.552,-44.522 -26.003,0 0,2.373 26.003,0 0,-2.373 z"
             style="fill:#ffffff;fill-opacity:1;fill-rule:nonzero;stroke:none"
             id="path4897"
             inkscape:connector-curvature="0" /><path
             d="m 12.709,-46.901 -18.085,0 0,2.211 18.085,0 0,-2.211 z"
             style="fill:#ffffff;fill-opacity:1;fill-rule:nonzero;stroke:none"
             id="path4899"
             inkscape:connector-curvature="0" /><path
             d="m 4.036,-49.442 -13.13,0 0,2.376 13.13,0 0,-2.376 z"
             style="fill:#ffffff;fill-opacity:1;fill-rule:nonzero;stroke:none"
             id="path4901"
             inkscape:connector-curvature="0" /><path
             d="m 23.552,-44.525 -10.679,0 -0.164,0 -15.16,0 0,0.047 0,2.329 26.003,0 0,-2.376 0,0 z m -10.843,-2.376 -18.085,0 0,2.211 18.085,0 0,-2.211 0,0 z m -8.673,-2.541 -13.13,0 0,2.376 3.389,0 0.329,0 9.412,0 0,-2.376 0,0 z m -20.842,7.458 0,-7.622 7.712,0 13.295,0 0,2.54 8.672,0 0,2.376 10.844,0 0,2.706 -40.523,0 0,0 z"
             style="fill:#010100;fill-opacity:1;fill-rule:nonzero;stroke:none"
             id="path4903"
             inkscape:connector-curvature="0" /><path
             d="m -24.737,-41.984 0,-7.622 7.621,0 0,7.622 -7.621,0 z"
             style="fill:#010100;fill-opacity:1;fill-rule:nonzero;stroke:none"
             id="path4905"
             inkscape:connector-curvature="0" /><path
             d="m -21.156,-48.336 0.886,0 0,2.991 c 0,0.304 0.263,0.55 0.588,0.55 l 1.322,0 0,0.786 -2.796,0 0,-4.327 0,0 z"
             style="fill:#ffffff;fill-opacity:1;fill-rule:nonzero;stroke:none"
             id="path4907"
             inkscape:connector-curvature="0" /><path
             d="m -21.156,-43.15 -2.356,0 0,-0.859 2.356,0 0,0.859 z"
             style="fill:#ffffff;fill-opacity:1;fill-rule:nonzero;stroke:none"
             id="path4909"
             inkscape:connector-curvature="0" /><path
             d="m -3.664,-42.603 0.168,0 0.221,0.239 -0.237,0 -0.152,-0.239 z"
             style="fill:#ffffff;fill-opacity:1;fill-rule:nonzero;stroke:none"
             id="path4911"
             inkscape:connector-curvature="0" /><path
             d="m -3.686,-43.929 0.217,0 0,1.266 -0.217,0 0,-1.266 z"
             style="fill:#ffffff;fill-opacity:1;fill-rule:nonzero;stroke:none"
             id="path4913"
             inkscape:connector-curvature="0" /><path
             d="m -4.247,-43.529 -0.007,0 -0.499,0.866 -0.218,0 0,-1.266 0.218,0 0,0.866 0.007,0 0.499,-0.866 0.217,0 0,1.266 -0.217,0 0,-0.866 z"
             style="fill:#ffffff;fill-opacity:1;fill-rule:nonzero;stroke:none"
             id="path4915"
             inkscape:connector-curvature="0" /><path
             d="m -7.811,-43.633 c 0,-0.065 -0.044,-0.108 -0.109,-0.108 l -0.29,0 c -0.065,0 -0.108,0.043 -0.108,0.108 l 0,0.97 -0.217,0 0,-0.959 c 0,-0.182 0.125,-0.307 0.307,-0.307 l 0.326,0 c 0.183,0 0.308,0.125 0.308,0.307 l 0,0.959 -0.217,0 0,-0.97 0,0 z"
             style="fill:#ffffff;fill-opacity:1;fill-rule:nonzero;stroke:none"
             id="path4917"
             inkscape:connector-curvature="0" /><path
             d="m -10.437,-42.663 -0.237,0 -0.452,-0.579 -0.009,0 0,0.579 -0.217,0 0,-1.266 0.217,0 0,0.371 0.139,0.179 0.356,-0.55 0.263,0 -0.476,0.733 0.416,0.533 z"
             style="fill:#ffffff;fill-opacity:1;fill-rule:nonzero;stroke:none"
             id="path4919"
             inkscape:connector-curvature="0" /><path
             d="m -11.883,-43.633 c 0,-0.065 -0.043,-0.108 -0.108,-0.108 l -0.29,0 c -0.065,0 -0.108,0.043 -0.108,0.108 l 0,0.673 c 0,0.066 0.043,0.109 0.108,0.109 l 0.29,0 c 0.065,0 0.108,-0.043 0.108,-0.109 l 0,-0.673 0,0 z m -0.09,0.97 -0.326,0 c -0.182,0 -0.307,-0.125 -0.307,-0.307 l 0,-0.652 c 0,-0.182 0.125,-0.307 0.307,-0.307 l 0.326,0 c 0.183,0 0.308,0.125 0.308,0.307 l 0,0.652 c 0,0.182 -0.125,0.307 -0.308,0.307 l 0,0 z"
             style="fill:#ffffff;fill-opacity:1;fill-rule:nonzero;stroke:none"
             id="path4921"
             inkscape:connector-curvature="0" /><path
             d="m -9.928,-43.386 0.524,0 0,0.188 -0.524,0 0,0.347 0.561,0 0,0.188 -0.779,0 0,-1.266 0.797,0 0,0.188 -0.579,0 0,0.355 z"
             style="fill:#ffffff;fill-opacity:1;fill-rule:nonzero;stroke:none"
             id="path4923"
             inkscape:connector-curvature="0" /><path
             d="m -6.653,-42.663 -0.29,0 c -0.183,0 -0.308,-0.125 -0.308,-0.307 l 0,-0.652 c 0,-0.182 0.125,-0.307 0.308,-0.307 l 0.29,0 c 0.182,0 0.307,0.125 0.307,0.307 l 0,0.078 -0.217,0 0,-0.088 c 0,-0.066 -0.043,-0.109 -0.108,-0.109 l -0.254,0 c -0.065,0 -0.108,0.043 -0.108,0.109 l 0,0.673 c 0,0.065 0.043,0.108 0.108,0.108 l 0.254,0 c 0.065,0 0.108,-0.043 0.108,-0.108 l 0,-0.089 0.217,0 0,0.078 c 0,0.182 -0.125,0.307 -0.307,0.307 l 0,0 z"
             style="fill:#ffffff;fill-opacity:1;fill-rule:nonzero;stroke:none"
             id="path4925"
             inkscape:connector-curvature="0" /><path
             d="m -6.691,-42.603 0.171,0.239 -0.179,0 -0.099,-0.129 -0.1,0.129 -0.186,0 0.172,-0.239 0.221,0 z"
             style="fill:#ffffff;fill-opacity:1;fill-rule:nonzero;stroke:none"
             id="path4927"
             inkscape:connector-curvature="0" /><path
             d="m -9.514,-42.364 -0.237,0 -0.152,-0.239 0.168,0 0.221,0.239 z"
             style="fill:#ffffff;fill-opacity:1;fill-rule:nonzero;stroke:none"
             id="path4929"
             inkscape:connector-curvature="0" /><path
             d="m -5.839,-43.386 0.525,0 0,0.188 -0.525,0 0,0.347 0.561,0 0,0.188 -0.778,0 0,-1.266 0.796,0 0,0.188 -0.579,0 0,0.355 z"
             style="fill:#ffffff;fill-opacity:1;fill-rule:nonzero;stroke:none"
             id="path4931"
             inkscape:connector-curvature="0" /><path
             d="m -14.128,-46.282 -0.579,0 0,0.355 0.525,0 0,0.188 -0.525,0 0,0.347 0.561,0 0,0.189 -0.778,0 0,-1.267 0.796,0 0,0.188 z"
             style="fill:#ffffff;fill-opacity:1;fill-rule:nonzero;stroke:none"
             id="path4933"
             inkscape:connector-curvature="0" /><path
             d="m -12.409,-45.927 0.506,0 0,-0.543 0.218,0 0,1.267 -0.218,0 0,-0.536 -0.506,0 0,0.536 -0.217,0 0,-1.267 0.217,0 0,0.543 z"
             style="fill:#ffffff;fill-opacity:1;fill-rule:nonzero;stroke:none"
             id="path4935"
             inkscape:connector-curvature="0" /><path
             d="m -15.738,-46.47 0.217,0 0,1.078 0.362,0 0,0.189 -0.941,0 0,-0.189 0.362,0 0,-1.078 z"
             style="fill:#ffffff;fill-opacity:1;fill-rule:nonzero;stroke:none"
             id="path4937"
             inkscape:connector-curvature="0" /><path
             d="m -12.934,-46.162 0,0.077 -0.217,0 0,-0.088 c 0,-0.065 -0.043,-0.109 -0.108,-0.109 l -0.254,0 c -0.065,0 -0.108,0.044 -0.108,0.109 l 0,0.673 c 0,0.065 0.043,0.109 0.108,0.109 l 0.254,0 c 0.065,0 0.108,-0.044 0.108,-0.109 l 0,-0.089 0.217,0 0,0.078 c 0,0.183 -0.125,0.308 -0.307,0.308 l -0.29,0 c -0.183,0 -0.308,-0.125 -0.308,-0.308 l 0,-0.651 c 0,-0.183 0.125,-0.308 0.308,-0.308 l 0.29,0 c 0.182,0 0.307,0.125 0.307,0.308 l 0,0 z"
             style="fill:#ffffff;fill-opacity:1;fill-rule:nonzero;stroke:none"
             id="path4939"
             inkscape:connector-curvature="0" /><path
             d="m -6.44,-44.905 -0.237,0 -0.152,-0.239 0.168,0 0.221,0.239 z"
             style="fill:#ffffff;fill-opacity:1;fill-rule:nonzero;stroke:none"
             id="path4941"
             inkscape:connector-curvature="0" /><path
             d="m -6.275,-46.282 -0.579,0 0,0.355 0.525,0 0,0.188 -0.525,0 0,0.347 0.561,0 0,0.189 -0.778,0 0,-1.267 0.796,0 0,0.188 z"
             style="fill:#ffffff;fill-opacity:1;fill-rule:nonzero;stroke:none"
             id="path4943"
             inkscape:connector-curvature="0" /><path
             d="m -10.401,-46.47 0,1.267 -0.217,0 0,-0.867 -0.007,0 -0.499,0.867 -0.218,0 0,-1.267 0.218,0 0,0.867 0.007,0 0.499,-0.867 0.217,0 z"
             style="fill:#ffffff;fill-opacity:1;fill-rule:nonzero;stroke:none"
             id="path4945"
             inkscape:connector-curvature="0" /><path
             d="m -10.057,-46.47 0.217,0 0,1.267 -0.217,0 0,-1.267 z"
             style="fill:#ffffff;fill-opacity:1;fill-rule:nonzero;stroke:none"
             id="path4947"
             inkscape:connector-curvature="0" /><path
             d="m -8.591,-46.162 0,0.077 -0.217,0 0,-0.088 c 0,-0.065 -0.044,-0.109 -0.109,-0.109 l -0.253,0 c -0.065,0 -0.109,0.044 -0.109,0.109 l 0,0.673 c 0,0.065 0.044,0.109 0.109,0.109 l 0.253,0 c 0.065,0 0.109,-0.044 0.109,-0.109 l 0,-0.089 0.217,0 0,0.078 c 0,0.183 -0.125,0.308 -0.308,0.308 l -0.289,0 c -0.183,0 -0.308,-0.125 -0.308,-0.308 l 0,-0.651 c 0,-0.183 0.125,-0.308 0.308,-0.308 l 0.289,0 c 0.183,0 0.308,0.125 0.308,0.308 l 0,0 z"
             style="fill:#ffffff;fill-opacity:1;fill-rule:nonzero;stroke:none"
             id="path4949"
             inkscape:connector-curvature="0" /><path
             d="m -8.061,-46.099 0.139,0.179 0.357,-0.55 0.262,0 -0.476,0.733 0.416,0.534 -0.237,0 -0.452,-0.579 -0.009,0 0,0.579 -0.217,0 0,-1.267 0.217,0 0,0.371 z"
             style="fill:#ffffff;fill-opacity:1;fill-rule:nonzero;stroke:none"
             id="path4951"
             inkscape:connector-curvature="0" /><path
             d="m -13.792,-48.714 c 0,-0.065 -0.043,-0.108 -0.108,-0.108 l -0.362,0 0,0.354 0.373,0 c 0.058,0 0.097,-0.04 0.097,-0.097 l 0,-0.149 0,0 z m -0.47,0.782 0.335,0 c 0.065,0 0.108,-0.044 0.108,-0.109 l 0,-0.141 c 0,-0.058 -0.04,-0.097 -0.097,-0.097 l -0.346,0 0,0.347 0,0 z m 0.527,-0.438 0,0.007 c 0.083,0.045 0.133,0.13 0.133,0.241 l 0,0.07 c 0,0.183 -0.124,0.308 -0.307,0.308 l -0.57,0 0,-1.266 0.597,0 c 0.183,0 0.308,0.124 0.308,0.307 l 0,0.08 c 0,0.121 -0.062,0.211 -0.161,0.253 l 0,0 z"
             style="fill:#ffffff;fill-opacity:1;fill-rule:nonzero;stroke:none"
             id="path4953"
             inkscape:connector-curvature="0" /><path
             d="m -10.676,-47.445 0.172,-0.239 0.221,0 0.172,0.239 -0.179,0 -0.1,-0.129 -0.099,0.129 -0.187,0 z"
             style="fill:#ffffff;fill-opacity:1;fill-rule:nonzero;stroke:none"
             id="path4955"
             inkscape:connector-curvature="0" /><path
             d="m -15.621,-48.71 -0.007,0 -0.3,0.966 -0.227,0 0.409,-1.267 0.225,0 0.409,1.267 -0.207,0 -0.302,-0.966 z"
             style="fill:#ffffff;fill-opacity:1;fill-rule:nonzero;stroke:none"
             id="path4957"
             inkscape:connector-curvature="0" /><path
             d="m -11.349,-48.611 -0.007,0 -0.5,0.867 -0.217,0 0,-1.267 0.217,0 0,0.867 0.008,0 0.499,-0.867 0.217,0 0,1.267 -0.217,0 0,-0.867 z"
             style="fill:#ffffff;fill-opacity:1;fill-rule:nonzero;stroke:none"
             id="path4959"
             inkscape:connector-curvature="0" /><path
             d="m -12.706,-48.334 -0.344,0 0,0.402 0.344,0 c 0.065,0 0.109,-0.044 0.109,-0.109 l 0,-0.184 c 0,-0.065 -0.044,-0.109 -0.109,-0.109 l 0,0 z m 0.326,0.12 0,0.162 c 0,0.183 -0.125,0.308 -0.308,0.308 l -0.579,0 0,-1.267 0.217,0 0,0.489 0.212,0 0.255,-0.489 0.239,0 -0.261,0.498 c 0.136,0.032 0.225,0.145 0.225,0.299 l 0,0 z"
             style="fill:#ffffff;fill-opacity:1;fill-rule:nonzero;stroke:none"
             id="path4961"
             inkscape:connector-curvature="0" /><path
             d="m -10.571,-48.468 0.525,0 0,0.189 -0.525,0 0,0.347 0.561,0 0,0.188 -0.778,0 0,-1.267 0.796,0 0,0.189 -0.579,0 0,0.354 z"
             style="fill:#ffffff;fill-opacity:1;fill-rule:nonzero;stroke:none"
             id="path4963"
             inkscape:connector-curvature="0" /><path
             d="m -13.24,-43.198 -0.253,0 c -0.065,0 -0.109,0.043 -0.109,0.108 l 0,0.13 c 0,0.066 0.044,0.109 0.109,0.109 l 0.226,0 c 0.065,0 0.109,-0.043 0.109,-0.109 l 0,-0.088 0.217,0 0,0.078 c 0,0.182 -0.125,0.307 -0.308,0.307 l -0.262,0 c -0.183,0 -0.308,-0.125 -0.308,-0.307 l 0,-0.109 c 0,-0.183 0.125,-0.307 0.308,-0.307 l 0.253,0 c 0.065,0 0.109,-0.044 0.109,-0.109 l 0,-0.138 c 0,-0.065 -0.044,-0.108 -0.109,-0.108 l -0.253,0 c -0.065,0 -0.109,0.043 -0.109,0.108 l 0,0.089 -0.217,0 0,-0.078 c 0,-0.183 0.125,-0.307 0.308,-0.307 l 0.289,0 c 0.183,0 0.308,0.124 0.308,0.307 l 0,0.116 c 0,0.183 -0.125,0.308 -0.308,0.308 l 0,0 z"
             style="fill:#ffffff;fill-opacity:1;fill-rule:nonzero;stroke:none"
             id="path4965"
             inkscape:connector-curvature="0" /><path
             d="m -15.621,-43.629 -0.007,0 -0.3,0.966 -0.227,0 0.409,-1.266 0.225,0 0.409,1.266 -0.207,0 -0.302,-0.966 z"
             style="fill:#ffffff;fill-opacity:1;fill-rule:nonzero;stroke:none"
             id="path4967"
             inkscape:connector-curvature="0" /><path
             d="m -14.466,-43.182 -0.008,0 -0.28,0.519 -0.25,0 0.411,-0.729 0,-0.537 0.217,0 0,0.537 0.431,0.729 -0.227,0 -0.294,-0.519 z"
             style="fill:#ffffff;fill-opacity:1;fill-rule:nonzero;stroke:none"
             id="path4969"
             inkscape:connector-curvature="0" /><path
             d="m 7.223,-45.144 0.172,0.239 -0.179,0 -0.1,-0.128 -0.099,0.128 -0.187,0 0.172,-0.239 0.221,0 z"
             style="fill:#ffffff;fill-opacity:1;fill-rule:nonzero;stroke:none"
             id="path4971"
             inkscape:connector-curvature="0" /><path
             d="m 9.572,-44.905 -0.238,0 -0.152,-0.239 0.169,0 0.221,0.239 z"
             style="fill:#ffffff;fill-opacity:1;fill-rule:nonzero;stroke:none"
             id="path4973"
             inkscape:connector-curvature="0" /><path
             d="m 3.395,-47.445 -0.238,0 -0.151,-0.239 0.168,0 0.221,0.239 z"
             style="fill:#ffffff;fill-opacity:1;fill-rule:nonzero;stroke:none"
             id="path4975"
             inkscape:connector-curvature="0" /><path
             d="m 12.562,-43.144 0,0.184 c 0,0.066 -0.044,0.109 -0.109,0.109 l -0.344,0 0,-0.402 0.344,0 c 0.065,0 0.109,0.044 0.109,0.109 l 0,0 z"
             style="fill:#ffffff;fill-opacity:1;fill-rule:nonzero;stroke:none"
             id="path4977"
             inkscape:connector-curvature="0" /><path
             d="m 5.123,-42.941 -0.007,0 -0.161,-0.48 0.327,0 -0.159,0.48 z"
             style="fill:#ffffff;fill-opacity:1;fill-rule:nonzero;stroke:none"
             id="path4979"
             inkscape:connector-curvature="0" /><path
             d="m -0.361,-42.941 -0.007,0 -0.162,-0.48 0.328,0 -0.159,0.48 z"
             style="fill:#ffffff;fill-opacity:1;fill-rule:nonzero;stroke:none"
             id="path4981"
             inkscape:connector-curvature="0" /><path
             d="m 13.412,-43.741 0.29,0 c 0.065,0 0.108,0.043 0.108,0.108 l 0,0.673 c 0,0.066 -0.043,0.109 -0.108,0.109 l -0.29,0 c -0.065,0 -0.109,-0.043 -0.109,-0.109 l 0,-0.673 c 0,-0.065 0.044,-0.108 0.109,-0.108 l 0,0 z"
             style="fill:#ffffff;fill-opacity:1;fill-rule:nonzero;stroke:none"
             id="path4983"
             inkscape:connector-curvature="0" /><path
             d="m 13.303,-42.96 c 0,0.066 0.044,0.109 0.109,0.109 l 0.29,0 c 0.065,0 0.108,-0.043 0.108,-0.109 l 0,-0.673 c 0,-0.065 -0.043,-0.108 -0.108,-0.108 l -0.29,0 c -0.065,0 -0.109,0.043 -0.109,0.108 l 0,0.673 0,0 z m 0.091,-0.969 0.325,0 c 0.183,0 0.308,0.125 0.308,0.307 l 0,0.652 c 0,0.182 -0.125,0.307 -0.308,0.307 l -0.325,0 c -0.183,0 -0.308,-0.125 -0.308,-0.307 l 0,-0.652 c 0,-0.182 0.125,-0.307 0.308,-0.307 l 0,0 z"
             style="fill:#ffffff;fill-opacity:1;fill-rule:nonzero;stroke:none"
             id="path4985"
             inkscape:connector-curvature="0" /><path
             d="m 12.109,-42.851 0.344,0 c 0.065,0 0.109,-0.043 0.109,-0.109 l 0,-0.184 c 0,-0.065 -0.044,-0.108 -0.109,-0.108 l -0.344,0 0,0.401 0,0 z m 0,-0.59 0.212,0 0.255,-0.488 0.239,0 -0.261,0.497 c 0.136,0.033 0.225,0.145 0.225,0.299 l 0,0.163 c 0,0.183 -0.125,0.307 -0.308,0.307 l -0.579,0 0,-1.266 0.217,0 0,0.488 0,0 z"
             style="fill:#ffffff;fill-opacity:1;fill-rule:nonzero;stroke:none"
             id="path4987"
             inkscape:connector-curvature="0" /><path
             d="m 9.323,-43.741 -0.579,0 0,0.355 0.524,0 0,0.188 -0.524,0 0,0.347 0.561,0 0,0.188 -0.778,0 0,-1.266 0.796,0 0,0.188 z"
             style="fill:#ffffff;fill-opacity:1;fill-rule:nonzero;stroke:none"
             id="path4989"
             inkscape:connector-curvature="0" /><path
             d="m 9.835,-43.558 0.139,0.179 0.357,-0.55 0.262,0 -0.476,0.733 0.416,0.533 -0.237,0 -0.452,-0.579 -0.009,0 0,0.579 -0.217,0 0,-1.266 0.217,0 0,0.371 z"
             style="fill:#ffffff;fill-opacity:1;fill-rule:nonzero;stroke:none"
             id="path4991"
             inkscape:connector-curvature="0" /><path
             d="m 14.624,-43.929 0.217,0 0,1.078 0.362,0 0,0.188 -0.941,0 0,-0.188 0.362,0 0,-1.078 z"
             style="fill:#ffffff;fill-opacity:1;fill-rule:nonzero;stroke:none"
             id="path4993"
             inkscape:connector-curvature="0" /><path
             d="m 11.078,-43.929 0.217,0 0,1.078 0.362,0 0,0.188 -0.941,0 0,-0.188 0.362,0 0,-1.078 z"
             style="fill:#ffffff;fill-opacity:1;fill-rule:nonzero;stroke:none"
             id="path4995"
             inkscape:connector-curvature="0" /><path
             d="m 20.523,-42.663 -0.217,0 0,-1.266 0.217,0 0,1.266 z"
             style="fill:#ffffff;fill-opacity:1;fill-rule:nonzero;stroke:none"
             id="path4997"
             inkscape:connector-curvature="0" /><path
             d="m 21.089,-43.558 0.14,0.179 0.356,-0.55 0.262,0 -0.475,0.733 0.416,0.533 -0.237,0 -0.453,-0.579 -0.009,0 0,0.579 -0.217,0 0,-1.266 0.217,0 0,0.371 z"
             style="fill:#ffffff;fill-opacity:1;fill-rule:nonzero;stroke:none"
             id="path4999"
             inkscape:connector-curvature="0" /><path
             d="m 16.235,-43.741 -0.579,0 0,0.355 0.524,0 0,0.188 -0.524,0 0,0.347 0.561,0 0,0.188 -0.778,0 0,-1.266 0.796,0 0,0.188 z"
             style="fill:#ffffff;fill-opacity:1;fill-rule:nonzero;stroke:none"
             id="path5001"
             inkscape:connector-curvature="0" /><path
             d="m 22.309,-43.929 0.217,0 0,0.537 0.431,0.729 -0.226,0 -0.295,-0.519 -0.008,0 -0.28,0.519 -0.25,0 0.411,-0.729 0,-0.537 z"
             style="fill:#ffffff;fill-opacity:1;fill-rule:nonzero;stroke:none"
             id="path5003"
             inkscape:connector-curvature="0" /><path
             d="m 17.954,-43.386 0.506,0 0,-0.543 0.217,0 0,1.266 -0.217,0 0,-0.535 -0.506,0 0,0.535 -0.217,0 0,-1.266 0.217,0 0,0.543 z"
             style="fill:#ffffff;fill-opacity:1;fill-rule:nonzero;stroke:none"
             id="path5005"
             inkscape:connector-curvature="0" /><path
             d="m 16.832,-43.929 0.289,0 c 0.183,0 0.308,0.125 0.308,0.307 l 0,0.078 -0.217,0 0,-0.089 c 0,-0.065 -0.044,-0.108 -0.109,-0.108 l -0.253,0 c -0.065,0 -0.109,0.043 -0.109,0.108 l 0,0.674 c 0,0.065 0.044,0.108 0.109,0.108 l 0.253,0 c 0.065,0 0.109,-0.043 0.109,-0.108 l 0,-0.089 0.217,0 0,0.078 c 0,0.183 -0.125,0.307 -0.308,0.307 l -0.289,0 c -0.183,0 -0.308,-0.124 -0.308,-0.307 l 0,-0.652 c 0,-0.182 0.125,-0.307 0.308,-0.307 l 0,0 z"
             style="fill:#ffffff;fill-opacity:1;fill-rule:nonzero;stroke:none"
             id="path5007"
             inkscape:connector-curvature="0" /><path
             d="m -0.368,-42.941 0.007,0 0.159,-0.48 -0.328,0 0.162,0.48 0,0 z m -0.223,-0.668 0.45,0 0.107,-0.32 0.226,0 -0.436,1.266 -0.224,0 -0.436,-1.266 0.206,0 0.107,0.32 0,0 z"
             style="fill:#ffffff;fill-opacity:1;fill-rule:nonzero;stroke:none"
             id="path5009"
             inkscape:connector-curvature="0" /><path
             d="m 0.65,-43.558 0.139,0.179 0.357,-0.55 0.262,0 -0.476,0.733 0.417,0.533 -0.237,0 -0.453,-0.579 -0.009,0 0,0.579 -0.217,0 0,-1.266 0.217,0 0,0.371 z"
             style="fill:#ffffff;fill-opacity:1;fill-rule:nonzero;stroke:none"
             id="path5011"
             inkscape:connector-curvature="0" /><path
             d="m -1.474,-43.386 0.488,0 0,0.188 -0.488,0 0,0.347 0.525,0 0,0.188 -0.742,0 0,-1.266 0.217,0 0,0.543 z"
             style="fill:#ffffff;fill-opacity:1;fill-rule:nonzero;stroke:none"
             id="path5013"
             inkscape:connector-curvature="0" /><path
             d="m 8.264,-43.741 -0.525,0 0,1.078 -0.217,0 0,-1.266 0.742,0 0,0.188 z"
             style="fill:#ffffff;fill-opacity:1;fill-rule:nonzero;stroke:none"
             id="path5015"
             inkscape:connector-curvature="0" /><path
             d="m 7.233,-43.741 -0.579,0 0,0.355 0.524,0 0,0.188 -0.524,0 0,0.347 0.561,0 0,0.188 -0.778,0 0,-1.266 0.796,0 0,0.188 z"
             style="fill:#ffffff;fill-opacity:1;fill-rule:nonzero;stroke:none"
             id="path5017"
             inkscape:connector-curvature="0" /><path
             d="m 5.116,-42.941 0.007,0 0.159,-0.48 -0.327,0 0.161,0.48 0,0 z m -0.329,-0.988 0.106,0.32 0.451,0 0.107,-0.32 0.226,0 -0.436,1.266 -0.225,0 -0.436,-1.266 0.207,0 0,0 z"
             style="fill:#ffffff;fill-opacity:1;fill-rule:nonzero;stroke:none"
             id="path5019"
             inkscape:connector-curvature="0" /><path
             d="m 1.947,-43.929 0.326,0 c 0.183,0 0.308,0.125 0.308,0.307 l 0,0.959 -0.217,0 0,-0.97 c 0,-0.065 -0.044,-0.108 -0.109,-0.108 l -0.289,0 c -0.066,0 -0.109,0.043 -0.109,0.108 l 0,0.97 -0.217,0 0,-0.959 c 0,-0.182 0.125,-0.307 0.307,-0.307 l 0,0 z"
             style="fill:#ffffff;fill-opacity:1;fill-rule:nonzero;stroke:none"
             id="path5021"
             inkscape:connector-curvature="0" /><path
             d="m 3.667,-43.741 -0.525,0 0,1.078 -0.217,0 0,-1.266 0.742,0 0,0.188 z"
             style="fill:#ffffff;fill-opacity:1;fill-rule:nonzero;stroke:none"
             id="path5023"
             inkscape:connector-curvature="0" /><path
             d="m 4.019,-43.929 0.217,0 0,1.078 0.362,0 0,0.188 -0.941,0 0,-0.188 0.362,0 0,-1.078 z"
             style="fill:#ffffff;fill-opacity:1;fill-rule:nonzero;stroke:none"
             id="path5025"
             inkscape:connector-curvature="0" /><path
             d="m 19.238,-43.063 0.008,0 0.499,-0.866 0.217,0 0,1.266 -0.217,0 0,-0.866 -0.007,0 -0.5,0.866 -0.217,0 0,-1.266 0.217,0 0,0.866 z"
             style="fill:#ffffff;fill-opacity:1;fill-rule:nonzero;stroke:none"
             id="path5027"
             inkscape:connector-curvature="0" /><path
             d="m 13.303,-42.96 c 0,0.066 0.044,0.109 0.109,0.109 l 0.29,0 c 0.065,0 0.108,-0.043 0.108,-0.109 l 0,-0.673 c 0,-0.065 -0.043,-0.108 -0.108,-0.108 l -0.29,0 c -0.065,0 -0.109,0.043 -0.109,0.108 l 0,0.673 0,0 z m 0.091,-0.969 0.325,0 c 0.183,0 0.308,0.125 0.308,0.307 l 0,0.652 c 0,0.182 -0.125,0.307 -0.308,0.307 l -0.325,0 c -0.183,0 -0.308,-0.125 -0.308,-0.307 l 0,-0.652 c 0,-0.182 0.125,-0.307 0.308,-0.307 l 0,0 z"
             style="fill:#010100;fill-opacity:1;fill-rule:nonzero;stroke:none"
             id="path5029"
             inkscape:connector-curvature="0" /><path
             d="m 12.109,-42.851 0.344,0 c 0.065,0 0.109,-0.043 0.109,-0.109 l 0,-0.184 c 0,-0.065 -0.044,-0.108 -0.109,-0.108 l -0.344,0 0,0.401 0,0 z m 0,-0.59 0.212,0 0.255,-0.488 0.239,0 -0.261,0.497 c 0.136,0.033 0.225,0.145 0.225,0.299 l 0,0.163 c 0,0.183 -0.125,0.307 -0.308,0.307 l -0.579,0 0,-1.266 0.217,0 0,0.488 0,0 z"
             style="fill:#010100;fill-opacity:1;fill-rule:nonzero;stroke:none"
             id="path5031"
             inkscape:connector-curvature="0" /><path
             d="m 9.323,-43.741 -0.579,0 0,0.355 0.524,0 0,0.188 -0.524,0 0,0.347 0.561,0 0,0.188 -0.778,0 0,-1.266 0.796,0 0,0.188 z"
             style="fill:#010100;fill-opacity:1;fill-rule:nonzero;stroke:none"
             id="path5033"
             inkscape:connector-curvature="0" /><path
             d="m 9.835,-43.558 0.139,0.179 0.357,-0.55 0.262,0 -0.476,0.733 0.416,0.533 -0.237,0 -0.452,-0.579 -0.009,0 0,0.579 -0.217,0 0,-1.266 0.217,0 0,0.371 z"
             style="fill:#010100;fill-opacity:1;fill-rule:nonzero;stroke:none"
             id="path5035"
             inkscape:connector-curvature="0" /><path
             d="m 14.624,-43.929 0.217,0 0,1.078 0.362,0 0,0.188 -0.941,0 0,-0.188 0.362,0 0,-1.078 z"
             style="fill:#010100;fill-opacity:1;fill-rule:nonzero;stroke:none"
             id="path5037"
             inkscape:connector-curvature="0" /><path
             d="m 11.078,-43.929 0.217,0 0,1.078 0.362,0 0,0.188 -0.941,0 0,-0.188 0.362,0 0,-1.078 z"
             style="fill:#010100;fill-opacity:1;fill-rule:nonzero;stroke:none"
             id="path5039"
             inkscape:connector-curvature="0" /><path
             d="m 20.523,-42.663 -0.217,0 0,-1.266 0.217,0 0,1.266 z"
             style="fill:#010100;fill-opacity:1;fill-rule:nonzero;stroke:none"
             id="path5041"
             inkscape:connector-curvature="0" /><path
             d="m 21.089,-43.558 0.14,0.179 0.356,-0.55 0.262,0 -0.475,0.733 0.416,0.533 -0.237,0 -0.453,-0.579 -0.009,0 0,0.579 -0.217,0 0,-1.266 0.217,0 0,0.371 z"
             style="fill:#010100;fill-opacity:1;fill-rule:nonzero;stroke:none"
             id="path5043"
             inkscape:connector-curvature="0" /><path
             d="m 16.235,-43.741 -0.579,0 0,0.355 0.524,0 0,0.188 -0.524,0 0,0.347 0.561,0 0,0.188 -0.778,0 0,-1.266 0.796,0 0,0.188 z"
             style="fill:#010100;fill-opacity:1;fill-rule:nonzero;stroke:none"
             id="path5045"
             inkscape:connector-curvature="0" /><path
             d="m 22.309,-43.929 0.217,0 0,0.537 0.431,0.729 -0.226,0 -0.295,-0.519 -0.008,0 -0.28,0.519 -0.25,0 0.411,-0.729 0,-0.537 z"
             style="fill:#010100;fill-opacity:1;fill-rule:nonzero;stroke:none"
             id="path5047"
             inkscape:connector-curvature="0" /><path
             d="m 17.954,-43.386 0.506,0 0,-0.543 0.217,0 0,1.266 -0.217,0 0,-0.535 -0.506,0 0,0.535 -0.217,0 0,-1.266 0.217,0 0,0.543 z"
             style="fill:#010100;fill-opacity:1;fill-rule:nonzero;stroke:none"
             id="path5049"
             inkscape:connector-curvature="0" /><path
             d="m 16.832,-43.929 0.289,0 c 0.183,0 0.308,0.125 0.308,0.307 l 0,0.078 -0.217,0 0,-0.089 c 0,-0.065 -0.044,-0.108 -0.109,-0.108 l -0.253,0 c -0.065,0 -0.109,0.043 -0.109,0.108 l 0,0.674 c 0,0.065 0.044,0.108 0.109,0.108 l 0.253,0 c 0.065,0 0.109,-0.043 0.109,-0.108 l 0,-0.089 0.217,0 0,0.078 c 0,0.183 -0.125,0.307 -0.308,0.307 l -0.289,0 c -0.183,0 -0.308,-0.124 -0.308,-0.307 l 0,-0.652 c 0,-0.182 0.125,-0.307 0.308,-0.307 l 0,0 z"
             style="fill:#010100;fill-opacity:1;fill-rule:nonzero;stroke:none"
             id="path5051"
             inkscape:connector-curvature="0" /><path
             d="m -0.368,-42.941 0.007,0 0.159,-0.48 -0.328,0 0.162,0.48 0,0 z m -0.223,-0.668 0.45,0 0.107,-0.32 0.226,0 -0.436,1.266 -0.224,0 -0.436,-1.266 0.206,0 0.107,0.32 0,0 z"
             style="fill:#010100;fill-opacity:1;fill-rule:nonzero;stroke:none"
             id="path5053"
             inkscape:connector-curvature="0" /><path
             d="m 0.65,-43.558 0.139,0.179 0.357,-0.55 0.262,0 -0.476,0.733 0.417,0.533 -0.237,0 -0.453,-0.579 -0.009,0 0,0.579 -0.217,0 0,-1.266 0.217,0 0,0.371 z"
             style="fill:#010100;fill-opacity:1;fill-rule:nonzero;stroke:none"
             id="path5055"
             inkscape:connector-curvature="0" /><path
             d="m -1.474,-43.386 0.488,0 0,0.188 -0.488,0 0,0.347 0.525,0 0,0.188 -0.742,0 0,-1.266 0.217,0 0,0.543 z"
             style="fill:#010100;fill-opacity:1;fill-rule:nonzero;stroke:none"
             id="path5057"
             inkscape:connector-curvature="0" /><path
             d="m 8.264,-43.741 -0.525,0 0,1.078 -0.217,0 0,-1.266 0.742,0 0,0.188 z"
             style="fill:#010100;fill-opacity:1;fill-rule:nonzero;stroke:none"
             id="path5059"
             inkscape:connector-curvature="0" /><path
             d="m 7.233,-43.741 -0.579,0 0,0.355 0.524,0 0,0.188 -0.524,0 0,0.347 0.561,0 0,0.188 -0.778,0 0,-1.266 0.796,0 0,0.188 z"
             style="fill:#010100;fill-opacity:1;fill-rule:nonzero;stroke:none"
             id="path5061"
             inkscape:connector-curvature="0" /><path
             d="m 5.116,-42.941 0.007,0 0.159,-0.48 -0.327,0 0.161,0.48 0,0 z m -0.329,-0.988 0.106,0.32 0.451,0 0.107,-0.32 0.226,0 -0.436,1.266 -0.225,0 -0.436,-1.266 0.207,0 0,0 z"
             style="fill:#010100;fill-opacity:1;fill-rule:nonzero;stroke:none"
             id="path5063"
             inkscape:connector-curvature="0" /><path
             d="m 1.947,-43.929 0.326,0 c 0.183,0 0.308,0.125 0.308,0.307 l 0,0.959 -0.217,0 0,-0.97 c 0,-0.065 -0.044,-0.108 -0.109,-0.108 l -0.289,0 c -0.066,0 -0.109,0.043 -0.109,0.108 l 0,0.97 -0.217,0 0,-0.959 c 0,-0.182 0.125,-0.307 0.307,-0.307 l 0,0 z"
             style="fill:#010100;fill-opacity:1;fill-rule:nonzero;stroke:none"
             id="path5065"
             inkscape:connector-curvature="0" /><path
             d="m 3.667,-43.741 -0.525,0 0,1.078 -0.217,0 0,-1.266 0.742,0 0,0.188 z"
             style="fill:#010100;fill-opacity:1;fill-rule:nonzero;stroke:none"
             id="path5067"
             inkscape:connector-curvature="0" /><path
             d="m 4.019,-43.929 0.217,0 0,1.078 0.362,0 0,0.188 -0.941,0 0,-0.188 0.362,0 0,-1.078 z"
             style="fill:#010100;fill-opacity:1;fill-rule:nonzero;stroke:none"
             id="path5069"
             inkscape:connector-curvature="0" /><path
             d="m 19.238,-43.063 0.008,0 0.499,-0.866 0.217,0 0,1.266 -0.217,0 0,-0.866 -0.007,0 -0.5,0.866 -0.217,0 0,-1.266 0.217,0 0,0.866 z"
             style="fill:#010100;fill-opacity:1;fill-rule:nonzero;stroke:none"
             id="path5071"
             inkscape:connector-curvature="0" /><path
             d="m -4.128,-45.482 -0.007,0 -0.161,-0.48 0.328,0 -0.16,0.48 z"
             style="fill:#ffffff;fill-opacity:1;fill-rule:nonzero;stroke:none"
             id="path5073"
             inkscape:connector-curvature="0" /><path
             d="m -1.348,-46.282 0.289,0 c 0.065,0 0.109,0.044 0.109,0.109 l 0,0.673 c 0,0.065 -0.044,0.108 -0.109,0.108 l -0.289,0 c -0.066,0 -0.109,-0.043 -0.109,-0.108 l 0,-0.673 c 0,-0.065 0.043,-0.109 0.109,-0.109 l 0,0 z"
             style="fill:#ffffff;fill-opacity:1;fill-rule:nonzero;stroke:none"
             id="path5075"
             inkscape:connector-curvature="0" /><path
             d="m 5.875,-45.482 -0.007,0 -0.162,-0.48 0.328,0 -0.159,0.48 z"
             style="fill:#ffffff;fill-opacity:1;fill-rule:nonzero;stroke:none"
             id="path5077"
             inkscape:connector-curvature="0" /><path
             d="m 9.378,-45.203 -0.217,0 0,-1.267 0.217,0 0,1.267 z"
             style="fill:#ffffff;fill-opacity:1;fill-rule:nonzero;stroke:none"
             id="path5079"
             inkscape:connector-curvature="0" /><path
             d="m 8.093,-45.603 0.007,0 0.5,-0.867 0.217,0 0,1.267 -0.217,0 0,-0.867 -0.007,0 -0.5,0.867 -0.217,0 0,-1.267 0.217,0 0,0.867 z"
             style="fill:#ffffff;fill-opacity:1;fill-rule:nonzero;stroke:none"
             id="path5081"
             inkscape:connector-curvature="0" /><path
             d="m 6.971,-46.47 0.29,0 c 0.183,0 0.307,0.125 0.307,0.308 l 0,0.077 -0.217,0 0,-0.088 c 0,-0.065 -0.043,-0.109 -0.108,-0.109 l -0.254,0 c -0.065,0 -0.108,0.044 -0.108,0.109 l 0,0.673 c 0,0.065 0.043,0.109 0.108,0.109 l 0.254,0 c 0.065,0 0.108,-0.044 0.108,-0.109 l 0,-0.089 0.217,0 0,0.078 c 0,0.183 -0.124,0.308 -0.307,0.308 l -0.29,0 c -0.182,0 -0.307,-0.125 -0.307,-0.308 l 0,-0.651 c 0,-0.183 0.125,-0.308 0.307,-0.308 l 0,0 z"
             style="fill:#ffffff;fill-opacity:1;fill-rule:nonzero;stroke:none"
             id="path5083"
             inkscape:connector-curvature="0" /><path
             d="m 11.151,-45.927 0.507,0 0,-0.543 0.217,0 0,1.267 -0.217,0 0,-0.536 -0.507,0 0,0.536 -0.217,0 0,-1.267 0.217,0 0,0.543 z"
             style="fill:#ffffff;fill-opacity:1;fill-rule:nonzero;stroke:none"
             id="path5085"
             inkscape:connector-curvature="0" /><path
             d="m 5.868,-45.482 0.007,0 0.159,-0.48 -0.328,0 0.162,0.48 0,0 z m -0.223,-0.668 0.451,0 0.106,-0.32 0.226,0 -0.436,1.267 -0.224,0 -0.436,-1.267 0.206,0 0.107,0.32 0,0 z"
             style="fill:#ffffff;fill-opacity:1;fill-rule:nonzero;stroke:none"
             id="path5087"
             inkscape:connector-curvature="0" /><path
             d="m 10.029,-46.47 0.29,0 c 0.183,0 0.307,0.125 0.307,0.308 l 0,0.077 -0.217,0 0,-0.088 c 0,-0.065 -0.043,-0.109 -0.108,-0.109 l -0.254,0 c -0.065,0 -0.108,0.044 -0.108,0.109 l 0,0.673 c 0,0.065 0.043,0.109 0.108,0.109 l 0.254,0 c 0.065,0 0.108,-0.044 0.108,-0.109 l 0,-0.089 0.217,0 0,0.078 c 0,0.183 -0.124,0.308 -0.307,0.308 l -0.29,0 c -0.182,0 -0.307,-0.125 -0.307,-0.308 l 0,-0.651 c 0,-0.183 0.125,-0.308 0.307,-0.308 l 0,0 z"
             style="fill:#ffffff;fill-opacity:1;fill-rule:nonzero;stroke:none"
             id="path5089"
             inkscape:connector-curvature="0" /><path
             d="m -0.172,-45.69 0.009,0 0.34,-0.78 0.011,0 0.342,0.78 0.009,0 0,-0.78 0.215,0 0,1.267 -0.208,0 -0.351,-0.806 -0.007,0 -0.351,0.806 -0.226,0 0,-1.267 0.217,0 0,0.78 z"
             style="fill:#ffffff;fill-opacity:1;fill-rule:nonzero;stroke:none"
             id="path5091"
             inkscape:connector-curvature="0" /><path
             d="m -1.457,-45.5 c 0,0.065 0.043,0.108 0.109,0.108 l 0.289,0 c 0.065,0 0.109,-0.043 0.109,-0.108 l 0,-0.673 c 0,-0.065 -0.044,-0.109 -0.109,-0.109 l -0.289,0 c -0.066,0 -0.109,0.044 -0.109,0.109 l 0,0.673 0,0 z m 0.09,-0.97 0.326,0 c 0.183,0 0.308,0.125 0.308,0.308 l 0,0.651 c 0,0.183 -0.125,0.308 -0.308,0.308 l -0.326,0 c -0.182,0 -0.307,-0.125 -0.307,-0.308 l 0,-0.651 c 0,-0.183 0.125,-0.308 0.307,-0.308 l 0,0 z"
             style="fill:#ffffff;fill-opacity:1;fill-rule:nonzero;stroke:none"
             id="path5093"
             inkscape:connector-curvature="0" /><path
             d="m 3.884,-45.203 -0.217,0 0,-1.267 0.217,0 0,1.267 z"
             style="fill:#ffffff;fill-opacity:1;fill-rule:nonzero;stroke:none"
             id="path5095"
             inkscape:connector-curvature="0" /><path
             d="m 1.405,-46.47 0.326,0 c 0.183,0 0.308,0.125 0.308,0.308 l 0,0.959 -0.217,0 0,-0.97 c 0,-0.065 -0.044,-0.109 -0.109,-0.109 l -0.289,0 c -0.066,0 -0.109,0.044 -0.109,0.109 l 0,0.97 -0.217,0 0,-0.959 c 0,-0.183 0.125,-0.308 0.307,-0.308 l 0,0 z"
             style="fill:#ffffff;fill-opacity:1;fill-rule:nonzero;stroke:none"
             id="path5097"
             inkscape:connector-curvature="0" /><path
             d="m 2.6,-45.603 0.007,0 0.499,-0.867 0.218,0 0,1.267 -0.218,0 0,-0.867 -0.007,0 -0.499,0.867 -0.217,0 0,-1.267 0.217,0 0,0.867 z"
             style="fill:#ffffff;fill-opacity:1;fill-rule:nonzero;stroke:none"
             id="path5099"
             inkscape:connector-curvature="0" /><path
             d="m 4.451,-46.099 0.139,0.179 0.357,-0.55 0.262,0 -0.476,0.733 0.416,0.534 -0.237,0 -0.452,-0.579 -0.009,0 0,0.579 -0.217,0 0,-1.267 0.217,0 0,0.371 z"
             style="fill:#ffffff;fill-opacity:1;fill-rule:nonzero;stroke:none"
             id="path5101"
             inkscape:connector-curvature="0" /><path
             d="m -2.592,-46.099 0.14,0.179 0.356,-0.55 0.263,0 -0.476,0.733 0.416,0.534 -0.237,0 -0.452,-0.579 -0.01,0 0,0.579 -0.217,0 0,-1.267 0.217,0 0,0.371 z"
             style="fill:#ffffff;fill-opacity:1;fill-rule:nonzero;stroke:none"
             id="path5103"
             inkscape:connector-curvature="0" /><path
             d="m -4.135,-45.482 0.007,0 0.16,-0.48 -0.328,0 0.161,0.48 0,0 z m -0.222,-0.668 0.45,0 0.107,-0.32 0.226,0 -0.436,1.267 -0.225,0 -0.436,-1.267 0.207,0 0.107,0.32 0,0 z"
             style="fill:#ffffff;fill-opacity:1;fill-rule:nonzero;stroke:none"
             id="path5105"
             inkscape:connector-curvature="0" /><path
             d="m 9.378,-45.203 -0.217,0 0,-1.267 0.217,0 0,1.267 z"
             style="fill:#010100;fill-opacity:1;fill-rule:nonzero;stroke:none"
             id="path5107"
             inkscape:connector-curvature="0" /><path
             d="m 8.093,-45.603 0.007,0 0.5,-0.867 0.217,0 0,1.267 -0.217,0 0,-0.867 -0.007,0 -0.5,0.867 -0.217,0 0,-1.267 0.217,0 0,0.867 z"
             style="fill:#010100;fill-opacity:1;fill-rule:nonzero;stroke:none"
             id="path5109"
             inkscape:connector-curvature="0" /><path
             d="m 6.971,-46.47 0.29,0 c 0.183,0 0.307,0.125 0.307,0.308 l 0,0.077 -0.217,0 0,-0.088 c 0,-0.065 -0.043,-0.109 -0.108,-0.109 l -0.254,0 c -0.065,0 -0.108,0.044 -0.108,0.109 l 0,0.673 c 0,0.065 0.043,0.109 0.108,0.109 l 0.254,0 c 0.065,0 0.108,-0.044 0.108,-0.109 l 0,-0.089 0.217,0 0,0.078 c 0,0.183 -0.124,0.308 -0.307,0.308 l -0.29,0 c -0.182,0 -0.307,-0.125 -0.307,-0.308 l 0,-0.651 c 0,-0.183 0.125,-0.308 0.307,-0.308 l 0,0 z"
             style="fill:#010100;fill-opacity:1;fill-rule:nonzero;stroke:none"
             id="path5111"
             inkscape:connector-curvature="0" /><path
             d="m 11.151,-45.927 0.507,0 0,-0.543 0.217,0 0,1.267 -0.217,0 0,-0.536 -0.507,0 0,0.536 -0.217,0 0,-1.267 0.217,0 0,0.543 z"
             style="fill:#010100;fill-opacity:1;fill-rule:nonzero;stroke:none"
             id="path5113"
             inkscape:connector-curvature="0" /><path
             d="m 5.868,-45.482 0.007,0 0.159,-0.48 -0.328,0 0.162,0.48 0,0 z m -0.223,-0.668 0.451,0 0.106,-0.32 0.226,0 -0.436,1.267 -0.224,0 -0.436,-1.267 0.206,0 0.107,0.32 0,0 z"
             style="fill:#010100;fill-opacity:1;fill-rule:nonzero;stroke:none"
             id="path5115"
             inkscape:connector-curvature="0" /><path
             d="m 10.029,-46.47 0.29,0 c 0.183,0 0.307,0.125 0.307,0.308 l 0,0.077 -0.217,0 0,-0.088 c 0,-0.065 -0.043,-0.109 -0.108,-0.109 l -0.254,0 c -0.065,0 -0.108,0.044 -0.108,0.109 l 0,0.673 c 0,0.065 0.043,0.109 0.108,0.109 l 0.254,0 c 0.065,0 0.108,-0.044 0.108,-0.109 l 0,-0.089 0.217,0 0,0.078 c 0,0.183 -0.124,0.308 -0.307,0.308 l -0.29,0 c -0.182,0 -0.307,-0.125 -0.307,-0.308 l 0,-0.651 c 0,-0.183 0.125,-0.308 0.307,-0.308 l 0,0 z"
             style="fill:#010100;fill-opacity:1;fill-rule:nonzero;stroke:none"
             id="path5117"
             inkscape:connector-curvature="0" /><path
             d="m -0.172,-45.69 0.009,0 0.34,-0.78 0.011,0 0.342,0.78 0.009,0 0,-0.78 0.215,0 0,1.267 -0.208,0 -0.351,-0.806 -0.007,0 -0.351,0.806 -0.226,0 0,-1.267 0.217,0 0,0.78 z"
             style="fill:#010100;fill-opacity:1;fill-rule:nonzero;stroke:none"
             id="path5119"
             inkscape:connector-curvature="0" /><path
             d="m -1.457,-45.5 c 0,0.065 0.043,0.108 0.109,0.108 l 0.289,0 c 0.065,0 0.109,-0.043 0.109,-0.108 l 0,-0.673 c 0,-0.065 -0.044,-0.109 -0.109,-0.109 l -0.289,0 c -0.066,0 -0.109,0.044 -0.109,0.109 l 0,0.673 0,0 z m 0.09,-0.97 0.326,0 c 0.183,0 0.308,0.125 0.308,0.308 l 0,0.651 c 0,0.183 -0.125,0.308 -0.308,0.308 l -0.326,0 c -0.182,0 -0.307,-0.125 -0.307,-0.308 l 0,-0.651 c 0,-0.183 0.125,-0.308 0.307,-0.308 l 0,0 z"
             style="fill:#010100;fill-opacity:1;fill-rule:nonzero;stroke:none"
             id="path5121"
             inkscape:connector-curvature="0" /><path
             d="m 3.884,-45.203 -0.217,0 0,-1.267 0.217,0 0,1.267 z"
             style="fill:#010100;fill-opacity:1;fill-rule:nonzero;stroke:none"
             id="path5123"
             inkscape:connector-curvature="0" /><path
             d="m 1.405,-46.47 0.326,0 c 0.183,0 0.308,0.125 0.308,0.308 l 0,0.959 -0.217,0 0,-0.97 c 0,-0.065 -0.044,-0.109 -0.109,-0.109 l -0.289,0 c -0.066,0 -0.109,0.044 -0.109,0.109 l 0,0.97 -0.217,0 0,-0.959 c 0,-0.183 0.125,-0.308 0.307,-0.308 l 0,0 z"
             style="fill:#010100;fill-opacity:1;fill-rule:nonzero;stroke:none"
             id="path5125"
             inkscape:connector-curvature="0" /><path
             d="m 2.6,-45.603 0.007,0 0.499,-0.867 0.218,0 0,1.267 -0.218,0 0,-0.867 -0.007,0 -0.499,0.867 -0.217,0 0,-1.267 0.217,0 0,0.867 z"
             style="fill:#010100;fill-opacity:1;fill-rule:nonzero;stroke:none"
             id="path5127"
             inkscape:connector-curvature="0" /><path
             d="m 4.451,-46.099 0.139,0.179 0.357,-0.55 0.262,0 -0.476,0.733 0.416,0.534 -0.237,0 -0.452,-0.579 -0.009,0 0,0.579 -0.217,0 0,-1.267 0.217,0 0,0.371 z"
             style="fill:#010100;fill-opacity:1;fill-rule:nonzero;stroke:none"
             id="path5129"
             inkscape:connector-curvature="0" /><path
             d="m -2.592,-46.099 0.14,0.179 0.356,-0.55 0.263,0 -0.476,0.733 0.416,0.534 -0.237,0 -0.452,-0.579 -0.01,0 0,0.579 -0.217,0 0,-1.267 0.217,0 0,0.371 z"
             style="fill:#010100;fill-opacity:1;fill-rule:nonzero;stroke:none"
             id="path5131"
             inkscape:connector-curvature="0" /><path
             d="m -4.135,-45.482 0.007,0 0.16,-0.48 -0.328,0 0.161,0.48 0,0 z m -0.222,-0.668 0.45,0 0.107,-0.32 0.226,0 -0.436,1.267 -0.225,0 -0.436,-1.267 0.207,0 0.107,0.32 0,0 z"
             style="fill:#010100;fill-opacity:1;fill-rule:nonzero;stroke:none"
             id="path5133"
             inkscape:connector-curvature="0" /><path
             d="m 3.395,-47.445 -0.238,0 -0.151,-0.239 0.168,0 0.221,0.239 z"
             style="fill:#010100;fill-opacity:1;fill-rule:nonzero;stroke:none"
             id="path5135"
             inkscape:connector-curvature="0" /><path
             d="m 0.215,-48.822 0.29,0 c 0.065,0 0.108,0.043 0.108,0.108 l 0,0.673 c 0,0.065 -0.043,0.109 -0.108,0.109 l -0.29,0 c -0.065,0 -0.108,-0.044 -0.108,-0.109 l 0,-0.673 c 0,-0.065 0.043,-0.108 0.108,-0.108 l 0,0 z"
             style="fill:#ffffff;fill-opacity:1;fill-rule:nonzero;stroke:none"
             id="path5137"
             inkscape:connector-curvature="0" /><path
             d="m -2.074,-48.822 0.29,0 c 0.065,0 0.109,0.043 0.109,0.108 l 0,0.673 c 0,0.065 -0.044,0.109 -0.109,0.109 l -0.29,0 c -0.065,0 -0.108,-0.044 -0.108,-0.109 l 0,-0.673 c 0,-0.065 0.043,-0.108 0.108,-0.108 l 0,0 z"
             style="fill:#ffffff;fill-opacity:1;fill-rule:nonzero;stroke:none"
             id="path5139"
             inkscape:connector-curvature="0" /><path
             d="m -7.049,-48.468 0.524,0 0,0.189 -0.524,0 0,0.347 0.561,0 0,0.188 -0.779,0 0,-1.267 0.797,0 0,0.189 -0.579,0 0,0.354 z"
             style="fill:#ffffff;fill-opacity:1;fill-rule:nonzero;stroke:none"
             id="path5141"
             inkscape:connector-curvature="0" /><path
             d="m -8.443,-47.932 0.362,0 0,-1.079 0.217,0 0,1.079 0.362,0 0,0.188 -0.941,0 0,-0.188 z"
             style="fill:#ffffff;fill-opacity:1;fill-rule:nonzero;stroke:none"
             id="path5143"
             inkscape:connector-curvature="0" /><path
             d="m 3.201,-47.744 -0.217,0 0,-1.267 0.217,0 0,1.267 z"
             style="fill:#ffffff;fill-opacity:1;fill-rule:nonzero;stroke:none"
             id="path5145"
             inkscape:connector-curvature="0" /><path
             d="m -3.467,-48.144 0.007,0 0.5,-0.867 0.217,0 0,1.267 -0.217,0 0,-0.867 -0.007,0 -0.5,0.867 -0.217,0 0,-1.267 0.217,0 0,0.867 z"
             style="fill:#ffffff;fill-opacity:1;fill-rule:nonzero;stroke:none"
             id="path5147"
             inkscape:connector-curvature="0" /><path
             d="m -2.182,-48.041 c 0,0.065 0.043,0.109 0.108,0.109 l 0.29,0 c 0.065,0 0.109,-0.044 0.109,-0.109 l 0,-0.673 c 0,-0.065 -0.044,-0.108 -0.109,-0.108 l -0.29,0 c -0.065,0 -0.108,0.043 -0.108,0.108 l 0,0.673 0,0 z m 0.09,-0.97 0.326,0 c 0.183,0 0.308,0.125 0.308,0.308 l 0,0.651 c 0,0.183 -0.125,0.308 -0.308,0.308 l -0.326,0 c -0.182,0 -0.307,-0.125 -0.307,-0.308 l 0,-0.651 c 0,-0.183 0.125,-0.308 0.307,-0.308 l 0,0 z"
             style="fill:#ffffff;fill-opacity:1;fill-rule:nonzero;stroke:none"
             id="path5149"
             inkscape:connector-curvature="0" /><path
             d="m -4.751,-48.468 0.506,0 0,-0.543 0.217,0 0,1.267 -0.217,0 0,-0.535 -0.506,0 0,0.535 -0.218,0 0,-1.267 0.218,0 0,0.543 z"
             style="fill:#ffffff;fill-opacity:1;fill-rule:nonzero;stroke:none"
             id="path5151"
             inkscape:connector-curvature="0" /><path
             d="m -5.873,-47.744 c -0.183,0 -0.308,-0.125 -0.308,-0.308 l 0,-0.651 c 0,-0.183 0.125,-0.308 0.308,-0.308 l 0.289,0 c 0.183,0 0.308,0.125 0.308,0.308 l 0,0.078 -0.217,0 0,-0.089 c 0,-0.065 -0.044,-0.108 -0.109,-0.108 l -0.253,0 c -0.065,0 -0.109,0.043 -0.109,0.108 l 0,0.673 c 0,0.065 0.044,0.109 0.109,0.109 l 0.253,0 c 0.065,0 0.109,-0.044 0.109,-0.109 l 0,-0.088 0.217,0 0,0.077 c 0,0.183 -0.125,0.308 -0.308,0.308 l -0.289,0 0,0 z"
             style="fill:#ffffff;fill-opacity:1;fill-rule:nonzero;stroke:none"
             id="path5153"
             inkscape:connector-curvature="0" /><path
             d="m 0.107,-48.041 c 0,0.065 0.043,0.109 0.108,0.109 l 0.29,0 c 0.065,0 0.108,-0.044 0.108,-0.109 l 0,-0.673 c 0,-0.065 -0.043,-0.108 -0.108,-0.108 l -0.29,0 c -0.065,0 -0.108,0.043 -0.108,0.108 l 0,0.673 0,0 z m 0.09,-0.97 0.326,0 c 0.183,0 0.307,0.125 0.307,0.308 l 0,0.651 c 0,0.183 -0.124,0.308 -0.307,0.308 l -0.326,0 c -0.183,0 -0.307,-0.125 -0.307,-0.308 l 0,-0.651 c 0,-0.183 0.124,-0.308 0.307,-0.308 l 0,0 z"
             style="fill:#ffffff;fill-opacity:1;fill-rule:nonzero;stroke:none"
             id="path5155"
             inkscape:connector-curvature="0" /><path
             d="m 1.482,-49.011 0.29,0 c 0.182,0 0.307,0.125 0.307,0.308 l 0,0.333 -0.47,0 0,-0.188 0.253,0 0,-0.156 c 0,-0.065 -0.043,-0.108 -0.109,-0.108 l -0.253,0 c -0.065,0 -0.108,0.043 -0.108,0.108 l 0,0.673 c 0,0.065 0.043,0.109 0.108,0.109 l 0.253,0 c 0.066,0 0.109,-0.044 0.109,-0.109 l 0,-0.088 0.217,0 0,0.078 c 0,0.182 -0.125,0.307 -0.307,0.307 l -0.29,0 c -0.183,0 -0.308,-0.125 -0.308,-0.307 l 0,-0.652 c 0,-0.183 0.125,-0.308 0.308,-0.308 l 0,0 z"
             style="fill:#ffffff;fill-opacity:1;fill-rule:nonzero;stroke:none"
             id="path5157"
             inkscape:connector-curvature="0" /><path
             d="m 2.64,-47.744 -0.217,0 0,-1.267 0.217,0 0,1.267 z"
             style="fill:#ffffff;fill-opacity:1;fill-rule:nonzero;stroke:none"
             id="path5159"
             inkscape:connector-curvature="0" /><path
             d="m -0.373,-48.822 -0.524,0 0,1.078 -0.218,0 0,-1.267 0.742,0 0,0.189 z"
             style="fill:#ffffff;fill-opacity:1;fill-rule:nonzero;stroke:none"
             id="path5161"
             inkscape:connector-curvature="0" /><path
             d="m -7.049,-48.468 0.524,0 0,0.189 -0.524,0 0,0.347 0.561,0 0,0.188 -0.779,0 0,-1.267 0.797,0 0,0.189 -0.579,0 0,0.354 z"
             style="fill:#010100;fill-opacity:1;fill-rule:nonzero;stroke:none"
             id="path5163"
             inkscape:connector-curvature="0" /><path
             d="m -8.443,-47.932 0.362,0 0,-1.079 0.217,0 0,1.079 0.362,0 0,0.188 -0.941,0 0,-0.188 z"
             style="fill:#010100;fill-opacity:1;fill-rule:nonzero;stroke:none"
             id="path5165"
             inkscape:connector-curvature="0" /><path
             d="m 3.201,-47.744 -0.217,0 0,-1.267 0.217,0 0,1.267 z"
             style="fill:#010100;fill-opacity:1;fill-rule:nonzero;stroke:none"
             id="path5167"
             inkscape:connector-curvature="0" /><path
             d="m -3.467,-48.144 0.007,0 0.5,-0.867 0.217,0 0,1.267 -0.217,0 0,-0.867 -0.007,0 -0.5,0.867 -0.217,0 0,-1.267 0.217,0 0,0.867 z"
             style="fill:#010100;fill-opacity:1;fill-rule:nonzero;stroke:none"
             id="path5169"
             inkscape:connector-curvature="0" /><path
             d="m -2.182,-48.041 c 0,0.065 0.043,0.109 0.108,0.109 l 0.29,0 c 0.065,0 0.109,-0.044 0.109,-0.109 l 0,-0.673 c 0,-0.065 -0.044,-0.108 -0.109,-0.108 l -0.29,0 c -0.065,0 -0.108,0.043 -0.108,0.108 l 0,0.673 0,0 z m 0.09,-0.97 0.326,0 c 0.183,0 0.308,0.125 0.308,0.308 l 0,0.651 c 0,0.183 -0.125,0.308 -0.308,0.308 l -0.326,0 c -0.182,0 -0.307,-0.125 -0.307,-0.308 l 0,-0.651 c 0,-0.183 0.125,-0.308 0.307,-0.308 l 0,0 z"
             style="fill:#010100;fill-opacity:1;fill-rule:nonzero;stroke:none"
             id="path5171"
             inkscape:connector-curvature="0" /><path
             d="m -4.751,-48.468 0.506,0 0,-0.543 0.217,0 0,1.267 -0.217,0 0,-0.535 -0.506,0 0,0.535 -0.218,0 0,-1.267 0.218,0 0,0.543 z"
             style="fill:#010100;fill-opacity:1;fill-rule:nonzero;stroke:none"
             id="path5173"
             inkscape:connector-curvature="0" /><path
             d="m -5.873,-47.744 c -0.183,0 -0.308,-0.125 -0.308,-0.308 l 0,-0.651 c 0,-0.183 0.125,-0.308 0.308,-0.308 l 0.289,0 c 0.183,0 0.308,0.125 0.308,0.308 l 0,0.078 -0.217,0 0,-0.089 c 0,-0.065 -0.044,-0.108 -0.109,-0.108 l -0.253,0 c -0.065,0 -0.109,0.043 -0.109,0.108 l 0,0.673 c 0,0.065 0.044,0.109 0.109,0.109 l 0.253,0 c 0.065,0 0.109,-0.044 0.109,-0.109 l 0,-0.088 0.217,0 0,0.077 c 0,0.183 -0.125,0.308 -0.308,0.308 l -0.289,0 0,0 z"
             style="fill:#010100;fill-opacity:1;fill-rule:nonzero;stroke:none"
             id="path5175"
             inkscape:connector-curvature="0" /><path
             d="m 0.107,-48.041 c 0,0.065 0.043,0.109 0.108,0.109 l 0.29,0 c 0.065,0 0.108,-0.044 0.108,-0.109 l 0,-0.673 c 0,-0.065 -0.043,-0.108 -0.108,-0.108 l -0.29,0 c -0.065,0 -0.108,0.043 -0.108,0.108 l 0,0.673 0,0 z m 0.09,-0.97 0.326,0 c 0.183,0 0.307,0.125 0.307,0.308 l 0,0.651 c 0,0.183 -0.124,0.308 -0.307,0.308 l -0.326,0 c -0.183,0 -0.307,-0.125 -0.307,-0.308 l 0,-0.651 c 0,-0.183 0.124,-0.308 0.307,-0.308 l 0,0 z"
             style="fill:#010100;fill-opacity:1;fill-rule:nonzero;stroke:none"
             id="path5177"
             inkscape:connector-curvature="0" /><path
             d="m 1.482,-49.011 0.29,0 c 0.182,0 0.307,0.125 0.307,0.308 l 0,0.333 -0.47,0 0,-0.188 0.253,0 0,-0.156 c 0,-0.065 -0.043,-0.108 -0.109,-0.108 l -0.253,0 c -0.065,0 -0.108,0.043 -0.108,0.108 l 0,0.673 c 0,0.065 0.043,0.109 0.108,0.109 l 0.253,0 c 0.066,0 0.109,-0.044 0.109,-0.109 l 0,-0.088 0.217,0 0,0.078 c 0,0.182 -0.125,0.307 -0.307,0.307 l -0.29,0 c -0.183,0 -0.308,-0.125 -0.308,-0.307 l 0,-0.652 c 0,-0.183 0.125,-0.308 0.308,-0.308 l 0,0 z"
             style="fill:#010100;fill-opacity:1;fill-rule:nonzero;stroke:none"
             id="path5179"
             inkscape:connector-curvature="0" /><path
             d="m 2.64,-47.744 -0.217,0 0,-1.267 0.217,0 0,1.267 z"
             style="fill:#010100;fill-opacity:1;fill-rule:nonzero;stroke:none"
             id="path5181"
             inkscape:connector-curvature="0" /><path
             d="m -0.373,-48.822 -0.524,0 0,1.078 -0.218,0 0,-1.267 0.742,0 0,0.189 z"
             style="fill:#010100;fill-opacity:1;fill-rule:nonzero;stroke:none"
             id="path5183"
             inkscape:connector-curvature="0" /><path
             d="m 7.223,-45.144 0.172,0.239 -0.179,0 -0.1,-0.128 -0.099,0.128 -0.187,0 0.172,-0.239 0.221,0 z"
             style="fill:#010100;fill-opacity:1;fill-rule:nonzero;stroke:none"
             id="path5185"
             inkscape:connector-curvature="0" /><path
             d="m 9.572,-44.905 -0.238,0 -0.152,-0.239 0.169,0 0.221,0.239 z"
             style="fill:#010100;fill-opacity:1;fill-rule:nonzero;stroke:none"
             id="path5187"
             inkscape:connector-curvature="0" /></g></g></g><g
       id="g5189"><text
         transform="matrix(1,0,0,-1,226.525,709.542)"
         style="font-variant:normal;font-weight:bold;font-size:19.79999924px;font-family:Arial;-inkscape-font-specification:Arial-BoldMT;writing-mode:lr-tb;fill:#000000;fill-opacity:1;fill-rule:nonzero;stroke:none"
         id="text5191"><tspan
           x="0 13.2066 24.215401 41.8176 52.826401 63.835201 70.428596 78.130798 89.139603 94.643997 106.7418 112.2462 117.7506 129.8484 137.5506 148.5594 159.56821"
           y="0"
           sodipodi:role="line"
           id="tspan5193">Semestrální práce</tspan></text>
</g><g
       id="g5195"><text
         transform="matrix(1,0,0,-1,203.525,681.102)"
         style="font-variant:normal;font-weight:normal;font-size:9px;font-family:ArialMT;-inkscape-font-specification:ArialMT;writing-mode:lr-tb;fill:#000000;fill-opacity:1;fill-rule:nonzero;stroke:none"
         id="text5197"><tspan
           x="0 7.4970002 12.501 17.504999 19.503 24.003 26.504999 31.509001 34.506001 39.006001 43.506001 48.006001 50.507999 55.512001 60.515999 65.015999 70.019997 74.519997 79.524002 81.522003 84.024002 88.524002 91.026001 93.528 98.028 100.53 105.534 110.538 112.536 114.534 119.538 122.04 124.542 129.54601 134.55 139.554 142.55099"
           y="0"
           sodipodi:role="line"
           id="tspan5199">magisterský navazující studijní obor </tspan></text>
</g><g
       id="g5201"><text
         transform="matrix(1,0,0,-1,348.578,681.102)"
         style="font-variant:normal;font-weight:bold;font-size:9px;font-family:Arial;-inkscape-font-specification:Arial-BoldMT;writing-mode:lr-tb;fill:#000000;fill-opacity:1;fill-rule:nonzero;stroke:none"
         id="text5203"><tspan
           x="0 7.4970002 9.9989996 15.003 18.504 24.003 29.007 31.509001 36.513 41.516998 44.514 48.014999 53.514 59.013 61.514999 66.518997"
           y="0"
           sodipodi:role="line"
           id="tspan5205">Mikroelektronika</tspan></text>
</g><g
       id="g5207"><text
         transform="matrix(1,0,0,-1,266.557,667.152)"
         style="font-variant:normal;font-weight:normal;font-size:9px;font-family:ArialMT;-inkscape-font-specification:ArialMT;writing-mode:lr-tb;fill:#000000;fill-opacity:1;fill-rule:nonzero;stroke:none"
         id="text5209"><tspan
           x="0 6.4980001 10.998 13.5 18.504 23.004 25.506001 33.002998 35.000999 39.500999 42.498001 47.501999 52.506001 54.504002 59.507999 64.008003 66.510002 69.507004 74.511002 79.514999 81.513 86.013"
           y="0"
           sodipodi:role="line"
           id="tspan5211">Ústav mikroelektroniky</tspan></text>
</g><g
       id="g5213"><text
         transform="matrix(1,0,0,-1,86.419,652.812)"
         style="font-style:italic;font-variant:normal;font-weight:bold;font-size:9px;font-family:Arial;-inkscape-font-specification:Arial-BoldItalicMT;writing-mode:lr-tb;fill:#000000;fill-opacity:1;fill-rule:nonzero;stroke:none"
         id="text5215"><tspan
           x="0 6.0029998 9 14.499 19.997999 25.002001 30.500999 33.498001"
           y="0"
           sodipodi:role="line"
           id="tspan5217">Student:</tspan></text>
</g><g
       id="g5219"><text
         transform="matrix(1,0,0,-1,126.709,652.812)"
         style="font-variant:normal;font-weight:normal;font-size:9px;font-family:ArialMT;-inkscape-font-specification:ArialMT;writing-mode:lr-tb;fill:#000000;fill-opacity:1;fill-rule:nonzero;stroke:none"
         id="text5221"><tspan
           x="0 6.0029998 10.503 13.005 15.507 21.51 26.514 28.511999 31.014 36.018002 40.518002 45.521999 48.023998 52.523998 57.528 60.525002 65.528999 70.532997 75.537003"
           y="0"
           sodipodi:role="line"
           id="tspan5223">Bc. Vojtěch Jeřábek</tspan></text>
</g><g
       id="g5225"><text
         transform="matrix(1,0,0,-1,478.531,652.812)"
         style="font-style:italic;font-variant:normal;font-weight:bold;font-size:9px;font-family:Arial;-inkscape-font-specification:Arial-BoldItalicMT;writing-mode:lr-tb;fill:#000000;fill-opacity:1;fill-rule:nonzero;stroke:none"
         id="text5227"><tspan
           x="0 2.5020001 9"
           y="0"
           sodipodi:role="line"
           id="tspan5229">ID:</tspan></text>
</g><g
       id="g5231"><text
         transform="matrix(1,0,0,-1,492.808,652.812)"
         style="font-variant:normal;font-weight:normal;font-size:9px;font-family:ArialMT;-inkscape-font-specification:ArialMT;writing-mode:lr-tb;fill:#000000;fill-opacity:1;fill-rule:nonzero;stroke:none"
         id="text5233"><tspan
           x="0 5.0040002 10.008 15.012 20.016001 25.02"
           y="0"
           sodipodi:role="line"
           id="tspan5235">155170</tspan></text>
</g><g
       id="g5237"><text
         transform="matrix(1,0,0,-1,86.419,638.562)"
         style="font-style:italic;font-variant:normal;font-weight:bold;font-size:9px;font-family:Arial;-inkscape-font-specification:Arial-BoldItalicMT;writing-mode:lr-tb;fill:#000000;fill-opacity:1;fill-rule:nonzero;stroke:none"
         id="text5239"><tspan
           x="0 6.4980001 11.997 17.000999 22.5 25.002001 30.006001"
           y="0"
           sodipodi:role="line"
           id="tspan5241">Ročník:</tspan></text>
</g><g
       id="g5243"><text
         transform="matrix(1,0,0,-1,126.709,638.562)"
         style="font-variant:normal;font-weight:normal;font-size:9px;font-family:ArialMT;-inkscape-font-specification:ArialMT;writing-mode:lr-tb;fill:#000000;fill-opacity:1;fill-rule:nonzero;stroke:none"
         id="text5245"><tspan
           x="0"
           y="0"
           id="tspan5247">2</tspan></text>
</g><g
       id="g5249"><text
         transform="matrix(1,0,0,-1,418.501,638.562)"
         style="font-style:italic;font-variant:normal;font-weight:bold;font-size:9px;font-family:Arial;-inkscape-font-specification:Arial-BoldItalicMT;writing-mode:lr-tb;fill:#000000;fill-opacity:1;fill-rule:nonzero;stroke:none"
         id="text5251"><tspan
           x="0 6.4980001 11.502 16.506001 22.004999 27.009001 35.009998 37.512001 42.515999 47.52 52.523998 55.026001 58.527 64.026001 69.029999"
           y="0"
           sodipodi:role="line"
           id="tspan5253">Akademický rok:</tspan></text>
</g><g
       id="g5255"><text
         transform="matrix(1,0,0,-1,492.808,638.562)"
         style="font-variant:normal;font-weight:normal;font-size:9px;font-family:ArialMT;-inkscape-font-specification:ArialMT;writing-mode:lr-tb;fill:#000000;fill-opacity:1;fill-rule:nonzero;stroke:none"
         id="text5257"><tspan
           x="0 5.0040002 10.008 15.012 20.016001 22.518 27.521999"
           y="0"
           sodipodi:role="line"
           id="tspan5259">2016/17</tspan></text>
</g><g
       id="g5261"><text
         transform="matrix(1,0,0,-1,85.039,617.022)"
         style="font-variant:normal;font-weight:bold;font-size:9px;font-family:Arial;-inkscape-font-specification:Arial-BoldMT;writing-mode:lr-tb;fill:#000000;fill-opacity:1;fill-rule:nonzero;stroke:none"
         id="text5263"><tspan
           x="0 6.4980001 12.996 18.495001 24.497999 30.500999 33.002998 38.501999 44.505001 52.001999 58.5 63.999001 70.497002"
           y="0"
           sodipodi:role="line"
           id="tspan5265">NÁZEV TÉMATU:</tspan></text>
</g><g
       id="g5267"><text
         transform="matrix(1,0,0,-1,159.666,597.335)"
         style="font-variant:normal;font-weight:bold;font-size:11.69999981px;font-family:Arial;-inkscape-font-specification:Arial-BoldMT;writing-mode:lr-tb;fill:#000000;fill-opacity:1;fill-rule:nonzero;stroke:none"
         id="text5269"><tspan
           x="0 7.8038998 14.3091 20.814301 24.7104 31.215599 41.616901 44.869499 51.374699 58.523399 62.419498 69.568199 79.969498 86.474701 90.370796 93.623398 100.1286 106.6338 113.139 120.2877 127.4364 130.689 133.9416 140.44679 147.5955 154.10069 161.2494 164.502 167.75459 174.90331 179.45461 186.6033 189.8559 196.3611 202.8663 210.015 220.41631 223.6689 230.1741 234.07021 238.62151 245.7702 252.9189 260.0676 266.57281 269.82541 276.3306 282.83578 286.7319 293.23709 297.78839"
           y="0"
           sodipodi:role="line"
           id="tspan5271">Systém automatického ladění pro sedmistrunné kytary</tspan></text>
</g><g
       id="g5273"><text
         transform="matrix(1,0,0,-1,85.039,569.187)"
         style="font-variant:normal;font-weight:bold;font-size:9px;font-family:Arial;-inkscape-font-specification:Arial-BoldMT;writing-mode:lr-tb;fill:#000000;fill-opacity:1;fill-rule:nonzero;stroke:none"
         id="text5275"><tspan
           x="0 6.0029998 13.005 19.503 25.506001 32.004002 38.007 40.508999 46.512001 53.009998 60.012001 62.514 68.516998 74.519997 80.523003 87.021004 93.518997 100.017 107.019 113.022 119.52 126.018 128.52"
           y="0"
           sodipodi:role="line"
           id="tspan5277">POKYNY PRO VYPRACOVÁNÍ:</tspan></text>
</g><g
       id="g5279"><text
         transform="matrix(1,0,0,-1,85.039,552.537)"
         style="font-variant:normal;font-weight:normal;font-size:9px;font-family:ArialMT;-inkscape-font-specification:ArialMT;writing-mode:lr-tb;fill:#000000;fill-opacity:1;fill-rule:nonzero;stroke:none"
         id="text5281"><tspan
           x="0 6.652 11.81 16.464001 19.615 24.773001 29.931 35.089001 37.744999 43.523998 46.18 51.338001 53.490002 58.647999 63.301998 65.958 69.109001 74.266998 79.425003 81.577003 86.231003 90.885002 96.160004 98.816002 103.47 108.124 112.778 115.434 120.592 128.864 131.52 136.67799 139.82899 145.608 148.26401 153.422 158.58 161.23599 166.394 174.045 179.203 181.85899 184.011 188.66499 193.319 199.09801 201.754 203.90601 209.064 214.222 219.38 224.53799 227.815 230.47099 235.125 239.77901 242.435 247.593 250.744 255.39799 258.67499 261.33099 267.48801 270.63901 276.418 279.07401 284.23199 289.39001 294.548 299.70599 305.48499 308.14099 313.29901 318.457 320.60901 322.76099 327.41501 332.573 337.22699 340 342.65601 347.31 351.96399 357.12201 359.27399 361.92999 367.70901 370.36499 375.01901 380.177 385.33499 390.49301 395.651 401.42999 404.086 411.737 416.89499 421.54901 426.707 431.86499 437.02301 439.17499 443.82901 448.483"
           y="0"
           sodipodi:role="line"
           id="tspan5283">Navrhněte elektronický systém pro automatické ladění kytary. Pro danou aplikaci zvolte vhodné mechanické</tspan></text>
</g><g
       id="g5285"><text
         transform="matrix(1,0,0,-1,85.039,538.587)"
         style="font-variant:normal;font-weight:normal;font-size:9px;font-family:ArialMT;-inkscape-font-specification:ArialMT;writing-mode:lr-tb;fill:#000000;fill-opacity:1;fill-rule:nonzero;stroke:none"
         id="text5287"><tspan
           x="0 2.941 5.6929998 10.947 13.195 18.448999 23.198999 25.951 29.198 31.445999 36.195999 40.945999 46.893002 49.645 52.891998 58.146 62.896 68.150002 73.403999 76.155998 79.600998 82.352997 88.101997 93.356003 101.103 106.357 109.604 112.356 118.303 121.055 125.805 131.752 134.504 139.758 145.705 148.457 153.207 158.461 160.709 165.963 171.91 174.662 179.412 184.666 189.92 195.174 200.42799 205.68201 210.936 216.883 219.63499 224.38499 229.63901 232.39101 240.138 245.392 250.646 254.091 256.84299 261.59299 266.34299 271.59698 276.34698 282.29401 285.04599 290.99301 293.745 301.492 306.746 309.49799 314.75201 320.00601 325.44901 328.20099 330.44901 335.703 340.957 346.90399 349.65601 354.40601 359.15601 364.41 369.664 374.918 380.172 385.42599 390.17599 395.42999 400.68399 403.436 406.88101 409.633 415.88599 419.133 422.07401 424.82599 430.07999 435.33401 440.08401 443.33099 448.58499"
           y="0"
           sodipodi:role="line"
           id="tspan5289">i elektrické řešení. Zaměřte se na volbu vhodného snímání zvuku a metody jeho vyhodnocení. Při návrhu</tspan></text>
</g><g
       id="g5291"><text
         transform="matrix(1,0,0,-1,85.039,524.637)"
         style="font-variant:normal;font-weight:normal;font-size:9px;font-family:ArialMT;-inkscape-font-specification:ArialMT;writing-mode:lr-tb;fill:#000000;fill-opacity:1;fill-rule:nonzero;stroke:none"
         id="text5293"><tspan
           x="0 5.0040002 9.5039997 14.508 19.007999 24.011999 26.01 28.511999 33.515999 36.018002 41.021999 46.026001 51.029999 55.529999 57.528 60.029999 62.532001 65.033997 70.038002 73.035004 78.039001 80.541 85.041 90.044998 95.049004 102.546 104.544 109.044 111.546 114.543 119.547 124.551 129.55499 134.55901 137.061 141.561 146.061 148.563 153.567 156.564 161.064 163.56599 168.57001 171.07201 176.076 181.08 185.58 188.082 192.582 195.084 200.088 205.092 209.592 214.59599 219.60001 224.604 229.104 234.108 238.608 241.11 246.114 251.118 253.62 258.12 263.12399 268.12799 272.62799 277.63199 282.13199 287.13599 292.14001 294.642 296.64001 301.64401 306.64801 311.65201 316.65601 319.15799 321.66 326.16 330.66 335.664 340.164 345.168 347.67001 352.17001 357.17401 362.17801 369.67499 371.673 374.17499 378.67499 381.177 384.17401 389.17801 394.18201"
           y="0"
           sodipodi:role="line"
           id="tspan5295">uvažujte použití pro sedmistrunné kytary a navíc požadavek na současné ladění všech sedmi strun.</tspan></text>
</g><g
       id="g5297"><text
         transform="matrix(1,0,0,-1,85.039,494.487)"
         style="font-variant:normal;font-weight:bold;font-size:9px;font-family:Arial;-inkscape-font-specification:Arial-BoldMT;writing-mode:lr-tb;fill:#000000;fill-opacity:1;fill-rule:nonzero;stroke:none"
         id="text5299"><tspan
           x="0 6.4980001 13.5 19.503 26.504999 33.002998 39.500999 45.999001 52.001999 58.5 64.998001 67.5 72.999001 75.500999 81 87.002998 93.500999 99.999001 105.498 111.996 118.494 124.992"
           y="0"
           sodipodi:role="line"
           id="tspan5301">DOPORUČENÁ LITERATURA:</tspan></text>
</g><g
       id="g5303"><text
         transform="matrix(1,0,0,-1,85.039,477.837)"
         style="font-variant:normal;font-weight:normal;font-size:9px;font-family:ArialMT;-inkscape-font-specification:ArialMT;writing-mode:lr-tb;fill:#000000;fill-opacity:1;fill-rule:nonzero;stroke:none"
         id="text5305"><tspan
           x="0 6.0029998 11.007 16.011 18.009001 23.013 25.514999 30.518999 35.522999 40.022999 44.522999 49.527 54.530998 57.033001 61.533001 66.537003 71.541 76.544998 81.549004 86.049004 88.551003 93.555 98.558998 101.061 106.065 109.062 114.066 118.566"
           y="0"
           sodipodi:role="line"
           id="tspan5307">Podle pokynů vedoucího práce</tspan></text>
</g><g
       id="g5309"><text
         transform="matrix(1,0,0,-1,86.412,447.354)"
         style="font-style:italic;font-variant:normal;font-weight:bold;font-size:8.95100021px;font-family:Arial;-inkscape-font-specification:Arial-BoldItalicMT;writing-mode:lr-tb;fill:#000000;fill-opacity:1;fill-rule:nonzero;stroke:none"
         id="text5311"><tspan
           x="0 5.4690609 10.445817 13.927756 21.885195 24.373573 29.842634 32.331013 36.806511 41.783268 47.252331 52.229084 57.698147 60.186523"
           y="0"
           sodipodi:role="line"
           id="tspan5313">Termín zadání:</tspan></text>
</g><g
       id="g5315"><text
         transform="matrix(1,0,0,-1,167.524,447.354)"
         style="font-variant:normal;font-weight:normal;font-size:8.95100021px;font-family:ArialMT;-inkscape-font-specification:ArialMT;writing-mode:lr-tb;fill:#000000;fill-opacity:1;fill-rule:nonzero;stroke:none"
         id="text5317"><tspan
           x="0 4.9767561 9.9535122 12.44189 17.418646 19.907024 24.88378 29.860537 34.837292"
           y="0"
           sodipodi:role="line"
           id="tspan5319">19.9.2016</tspan></text>
</g><g
       id="g5321"><text
         transform="matrix(1,0,0,-1,410.617,447.354)"
         style="font-style:italic;font-variant:normal;font-weight:bold;font-size:8.95100021px;font-family:Arial;-inkscape-font-specification:Arial-BoldItalicMT;writing-mode:lr-tb;fill:#000000;fill-opacity:1;fill-rule:nonzero;stroke:none"
         id="text5323"><tspan
           x="0 5.4690609 10.445817 13.927756 21.885195 24.373573 29.842634 32.331013 37.800072 43.269135 48.245892 53.222645 57.698147 63.167206 68.143967 73.613022 76.101402"
           y="0"
           sodipodi:role="line"
           id="tspan5325">Termín odevzdání:</tspan></text>
</g><g
       id="g5327"><text
         transform="matrix(1,0,0,-1,491.971,447.354)"
         style="font-variant:normal;font-weight:normal;font-size:8.95100021px;font-family:ArialMT;-inkscape-font-specification:ArialMT;writing-mode:lr-tb;fill:#000000;fill-opacity:1;fill-rule:nonzero;stroke:none"
         id="text5329"><tspan
           x="0 4.9767561 9.9535122 12.44189 17.418646 22.395403 24.88378 29.860537 34.837292 39.814049"
           y="0"
           sodipodi:role="line"
           id="tspan5331">15.12.2016</tspan></text>
</g><g
       id="g5333"><text
         transform="matrix(1,0,0,-1,85.039,419.087)"
         style="font-style:italic;font-variant:normal;font-weight:bold;font-size:9px;font-family:Arial;-inkscape-font-specification:Arial-BoldItalicMT;writing-mode:lr-tb;fill:#000000;fill-opacity:1;fill-rule:nonzero;stroke:none"
         id="text5335"><tspan
           x="0 6.0029998 11.007 16.506001 22.004999 27.504 32.507999 35.009998 37.512001 43.011002 46.512001 51.515999 56.52 61.523998"
           y="0"
           sodipodi:role="line"
           id="tspan5337">Vedoucí práce:</tspan></text>
</g><g
       id="g5339"><text
         transform="matrix(1,0,0,-1,162.07,419.087)"
         style="font-variant:normal;font-weight:normal;font-size:9px;font-family:ArialMT;-inkscape-font-specification:ArialMT;writing-mode:lr-tb;fill:#000000;fill-opacity:1;fill-rule:nonzero;stroke:none"
         id="text5341"><tspan
           x="0 2.5020001 7.506 12.51 15.012 17.514 22.518 27.521999 32.526001 34.523998 39.023998 41.021999 46.026001 50.526001 53.028 60.525002 65.528999 70.028999 75.032997 80.037003"
           y="0"
           sodipodi:role="line"
           id="tspan5343">Ing. Ladislav Macháň</tspan></text>
</g><g
       id="g5345"><text
         transform="matrix(1,0,0,-1,85.039,405.137)"
         style="font-style:italic;font-variant:normal;font-weight:bold;font-size:9px;font-family:Arial;-inkscape-font-specification:Arial-BoldItalicMT;writing-mode:lr-tb;fill:#000000;fill-opacity:1;fill-rule:nonzero;stroke:none"
         id="text5347"><tspan
           x="0 6.4980001 11.997 17.496 21.996 27.495001 29.997 32.993999 37.998001 43.497002 46.493999 48.995998 54 59.004002 67.004997 72.009003 77.013 80.010002 83.511002 88.514999 91.016998 96.515999 99.017998 101.52 107.019 110.52 115.524 120.528 125.532"
           y="0"
           sodipodi:role="line"
           id="tspan5349">Konzultant semestrální práce:</tspan></text>
</g><g
       id="g5351" /><g
       id="g5353"><text
         transform="matrix(1,0,0,-1,318.996,377.237)"
         style="font-variant:normal;font-weight:bold;font-size:9px;font-family:Arial;-inkscape-font-specification:Arial-BoldMT;writing-mode:lr-tb;fill:#000000;fill-opacity:1;fill-rule:nonzero;stroke:none"
         id="text5355"><tspan
           x="0 5.4990001 10.998 16.002001 18.504 21.006001 23.507999 29.007 34.506001 37.007999 39.509998 45.008999 50.507999 55.512001 60.515999 65.519997 68.022003 73.521004 79.019997 81.522003 86.526001 89.028 94.031998 96.533997 99.036003 105.039 110.538 113.04 119.538"
           y="0"
           sodipodi:role="line"
           id="tspan5357">doc. Ing. Lukáš Fujcik, Ph.D.</tspan></text>
</g><g
       id="g5359"><text
         transform="matrix(1,0,0,-1,441.036,377.237)"
         style="font-variant:normal;font-weight:normal;font-size:9px;font-family:ArialMT;-inkscape-font-specification:ArialMT;writing-mode:lr-tb;fill:#000000;fill-opacity:1;fill-rule:nonzero;stroke:none"
         id="text5361"><tspan
           x="0 2.5020001"
           y="0"
           sodipodi:role="line"
           id="tspan5363">, </tspan></text>
</g><g
       id="g5365"><text
         transform="matrix(1,0,0,-1,446.04,377.237)"
         style="font-style:italic;font-variant:normal;font-size:9px;font-family:Arial;-inkscape-font-specification:Arial-ItalicMT;writing-mode:lr-tb;fill:#000000;fill-opacity:1;fill-rule:nonzero;stroke:none"
         id="text5367"><tspan
           x="0 5.0040002 8.0010004 13.005 18.009001 22.509001 27.513 32.516998 37.521 40.022999 45.027 50.030998 55.035 58.032001 63.035999 67.536003 72.540001 75.042 78.039001 83.042999 88.046997"
           y="0"
           sodipodi:role="line"
           id="tspan5369">předseda oborové rady</tspan></text>
</g><g
       id="g5371"><text
         transform="matrix(1,0,0,-1,85.039,106.375)"
         style="font-variant:normal;font-weight:bold;font-size:7px;font-family:Arial;-inkscape-font-specification:Arial-BoldMT;writing-mode:lr-tb;fill:#000000;fill-opacity:1;fill-rule:nonzero;stroke:none"
         id="text5373"><tspan
           x="0 5.0539999 9.7229996 15.169 19.445999 24.892 29.945999 35 39.668999 44.723 46.668999"
           y="0"
           sodipodi:role="line"
           id="tspan5375">UPOZORNĚNÍ:</tspan></text>
</g><g
       id="g5377"><text
         transform="matrix(1,0,0,-1,85.039,95.525)"
         style="font-variant:normal;font-weight:normal;font-size:7px;font-family:ArialMT;-inkscape-font-specification:ArialMT;writing-mode:lr-tb;fill:#000000;fill-opacity:1;fill-rule:nonzero;stroke:none"
         id="text5379"><tspan
           x="0 4.7680001 8.7589998 10.804 14.795 17.610001 19.655001 23.254 27.245001 33.174999 37.166 40.764999 42.810001 45.240002 49.230999 50.883999 54.875 57.305 59.349998 63.341 65.771004 69.762001 73.361 77.737 79.781998 83.773003 87.764 91.362999 97.292999 99.723 101.768 105.759 108.189 110.227 112.272 115.871 119.47 121.515 125.114 129.105 131.535 135.526 139.517 141.94701 143.992 147.591 151.582 157.51199 161.50301 165.10201 167.147 169.577 173.56799 175.22099 179.21201 181.642 183.687 187.67799 190.108 194.099 197.698 202.07401 204.119 208.11 212.101 214.53101 218.522 222.121 223.774 226.20399 228.24899 232.24001 236.231 238.276 242.267 244.69701 248.29601 251.895 256.271 258.31601 262.30701 264.737 268.728 272.327 276.703 278.74799 280.793 283.22299 287.21399 289.259 291.30399 294.90302 299.27899 301.32401 305.315 308.914 312.905 316.896 319.32599 321.371 324.97 328.961 330.61401 336.54401 340.535 344.526 348.90201 350.94699 354.93799 358.92899 362.52802 368.45801 370.888 372.93301 376.53201 380.52301 384.12201 388.11301 392.104 396.095 399.694 403.685 406.11499 408.16 412.151 416.142 420.133 424.12399 427.72299 431.71399 433.367 437.358 441.349 444.948"
           y="0"
           sodipodi:role="line"
           id="tspan5381">Autor semestrální práce nesmí při vytváření semestrální práce porušit autorská práva třetích osob, zejména nesmí zasahovat nedovoleným</tspan></text>
</g><g
       id="g5383"><text
         transform="matrix(1,0,0,-1,85.039,84.675)"
         style="font-variant:normal;font-weight:normal;font-size:7px;font-family:ArialMT;-inkscape-font-specification:ArialMT;writing-mode:lr-tb;fill:#000000;fill-opacity:1;fill-rule:nonzero;stroke:none"
         id="text5385"><tspan
           x="0 3.599 7.5900002 11.581 15.18 19.171 23.162001 27.153 33.369999 35.415001 39.405998 43.683998 45.729 49.327999 50.980999 54.580002 56.625 60.223999 64.501999 66.546997 70.538002 74.528999 76.573997 80.565002 82.995003 86.594002 90.193001 93.792 97.390999 101.669 103.714 107.705 110.135 114.126 118.012 120.057 124.048 127.647 131.638 135.629 139.62 143.61099 147.21001 149.255 153.246 155.291 158.89 163.168 165.213 169.491 171.536 177.466 181.457 185.056 187.388 189.433 193.032 194.972 197.017 201.008 204.60699 206.939 208.98399 212.97501 214.62801 218.619 222.897 224.942 228.541 232.532 236.52299 240.51401 246.731 248.776 252.767 256.758 260.35699 262.01001 266.00101 269.992 273.591 277.86899 279.914 283.905 287.896 290.32599 294.31699 297.91599 301.90701 305.89801 308.23001 310.27499 314.26599 317.86499 319.91 323.901 327.892 331.883 335.48199 339.47299 343.46399 345.79599 347.841 352.11899 354.164 358.155 362.43301 364.478 368.75601 370.80099 374.79199 378.78299 382.38199 384.035 388.026 392.017 396.008 397.66101 399.70599 403.30499 405.35001 408.94901 413.22699 415.272 419.263 423.254 425.29901 429.29001 431.72 435.319 438.918 442.909 446.89999"
           y="0"
           sodipodi:role="line"
           id="tspan5387">způsobem do cizích autorských práv osobnostních a musí si být plně vědom následků porušení ustanovení § 11 a následujících autorského</tspan></text>
</g><g
       id="g5389"><text
         transform="matrix(1,0,0,-1,85.039,73.825)"
         style="font-variant:normal;font-weight:normal;font-size:7px;font-family:ArialMT;-inkscape-font-specification:ArialMT;writing-mode:lr-tb;fill:#000000;fill-opacity:1;fill-rule:nonzero;stroke:none"
         id="text5391"><tspan
           x="0 3.5799999 7.552 11.132 15.104 19.076 23.313999 25.34 28.92 31.212 33.237999 37.209999 41.181999 45.153999 47.18 51.152 55.124001 59.096001 63.334 65.360001 70.109001 74.081001 76.107002 78.399002 80.425003 84.004997 87.584999 91.556999 93.583 97.555 101.793 103.819 109.73 113.702 117.282 121.254 124.834 128.414 132.65199 134.67799 136.70399 139.11501 143.08701 146.66701 148.69299 152.66499 156.63699 160.60899 163.02 166.992 170.57201 174.54401 176.57001 180.14999 184.388 186.414 190.386 194.358 197.938 199.57201 203.54401 207.51601 211.09599 215.334 217.36 220.94 224.52 228.492 230.12601 233.70599 237.286 241.258 242.892 244.918 248.498 250.524 254.104 258.34201 260.36801 264.21399 266.23999 270.21201 273.79199 275.81799 279.79001 283.76199 287.73401 291.314 295.28601 299.258 301.54999 303.57599 307.15601 311.12799 314.70801 316.73401 318.634 320.66 324.63199 327.043 331.01501 334.987 338.95901 341.25101 343.27701 347.24899 348.883 352.85501 356.435 360.28101 362.30701 367.056 369.082 371.37399 373.39999 377.37201 379.39801 381.298 383.32401 387.56201 389.58801 393.94501 396.35599 400.328 403.90799 405.93399 409.90601 411.93201 415.90399 420.142 422.168 425.74799 429.72 433.29999 437.272 441.24399 443.26999 446.85001"
           y="0"
           sodipodi:role="line"
           id="tspan5393">zákona č. 121/2000 Sb., včetně možných trestněprávních důsledků vyplývajících z ustanovení části druhé, hlavy VI. díl 4 Trestního zákoníku</tspan></text>
</g><g
       id="g5395"><text
         transform="matrix(1,0,0,-1,85.039,62.975)"
         style="font-variant:normal;font-weight:normal;font-size:7px;font-family:ArialMT;-inkscape-font-specification:ArialMT;writing-mode:lr-tb;fill:#000000;fill-opacity:1;fill-rule:nonzero;stroke:none"
         id="text5397"><tspan
           x="0 3.5 5.4460001 9.3380003 13.23 15.176 19.068001 22.959999 26.851999 30.743999 32.689999 37.359001 41.250999"
           y="0"
           sodipodi:role="line"
           id="tspan5399">č.40/2009 Sb.</tspan></text>
</g></g></svg>