G75*
%MOIN*%
%OFA0B0*%
%FSLAX25Y25*%
%IPPOS*%
%LPD*%
%AMOC8*
5,1,8,0,0,1.08239X$1,22.5*
%
%ADD10C,0.00600*%
%ADD11C,0.01000*%
%ADD12C,0.02781*%
%ADD13C,0.02750*%
%ADD14C,0.01008*%
D10*
X0059084Y0029379D02*
X0059084Y0032581D01*
X0060151Y0033649D01*
X0061219Y0032581D01*
X0061219Y0029379D01*
X0063354Y0029379D02*
X0063354Y0033649D01*
X0062287Y0033649D01*
X0061219Y0032581D01*
X0065529Y0032581D02*
X0066597Y0033649D01*
X0068732Y0033649D01*
X0069800Y0032581D01*
X0069800Y0030446D01*
X0068732Y0029379D01*
X0066597Y0029379D01*
X0065529Y0030446D01*
X0065529Y0032581D01*
X0071962Y0033649D02*
X0074097Y0033649D01*
X0073029Y0034717D02*
X0073029Y0030446D01*
X0071962Y0029379D01*
X0076259Y0029379D02*
X0077326Y0030446D01*
X0077326Y0034717D01*
X0076259Y0033649D02*
X0078394Y0033649D01*
X0080569Y0032581D02*
X0081636Y0033649D01*
X0083772Y0033649D01*
X0084839Y0032581D01*
X0084839Y0030446D01*
X0083772Y0029379D01*
X0081636Y0029379D01*
X0080569Y0030446D01*
X0080569Y0032581D01*
X0087014Y0031514D02*
X0087014Y0030446D01*
X0088082Y0029379D01*
X0091285Y0029379D01*
X0091285Y0035784D01*
X0088082Y0035784D01*
X0087014Y0034717D01*
X0087014Y0033649D01*
X0088082Y0032581D01*
X0091285Y0032581D01*
X0088082Y0032581D02*
X0087014Y0031514D01*
D11*
X0015435Y0023059D02*
X0045250Y0119911D01*
X0049596Y0133351D01*
X0057229Y0160588D01*
X0063782Y0188104D01*
X0069245Y0215858D01*
X0071374Y0229500D01*
X0071462Y0229655D01*
X0071488Y0229869D01*
X0071562Y0230072D01*
X0071548Y0230358D01*
X0085807Y0346370D01*
X0085856Y0346477D01*
X0085867Y0346860D01*
X0085914Y0347240D01*
X0085883Y0347353D01*
X0093057Y0580579D01*
X0150585Y0580579D01*
X0187585Y0534079D01*
X0223585Y0515579D01*
X0236585Y0511579D01*
X0245585Y0509579D01*
X0253394Y0509579D01*
X0254721Y0509316D01*
X0254722Y0509316D01*
X0268747Y0508066D01*
X0275632Y0508189D01*
X0277054Y0508038D01*
X0275193Y0424443D01*
X0275172Y0424389D01*
X0275182Y0423948D01*
X0275173Y0423507D01*
X0275194Y0423453D01*
X0277277Y0332362D01*
X0277250Y0332277D01*
X0277288Y0331868D01*
X0277297Y0331457D01*
X0277334Y0331375D01*
X0280756Y0294342D01*
X0281937Y0277929D01*
X0285479Y0245157D01*
X0290191Y0212533D01*
X0296069Y0180099D01*
X0303103Y0147896D01*
X0311287Y0115965D01*
X0320608Y0084348D01*
X0325820Y0068749D01*
X0338756Y0026230D01*
X0278364Y0003696D01*
X0098045Y0003500D01*
X0015435Y0023059D01*
X0015465Y0023159D02*
X0330526Y0023159D01*
X0327850Y0022161D02*
X0019228Y0022161D01*
X0015773Y0024158D02*
X0333202Y0024158D01*
X0335878Y0025156D02*
X0016080Y0025156D01*
X0016388Y0026155D02*
X0338554Y0026155D01*
X0338475Y0027153D02*
X0092312Y0027153D01*
X0092237Y0027079D02*
X0093585Y0028426D01*
X0093585Y0033534D01*
X0093585Y0034832D01*
X0093585Y0036737D01*
X0092237Y0038084D01*
X0087129Y0038084D01*
X0086336Y0037291D01*
X0086062Y0037017D01*
X0086062Y0037017D01*
X0085508Y0036463D01*
X0084859Y0035814D01*
X0084724Y0035949D01*
X0080684Y0035949D01*
X0080015Y0035280D01*
X0079626Y0035669D01*
X0079626Y0035669D01*
X0078279Y0037017D01*
X0076373Y0037017D01*
X0075306Y0035949D01*
X0075306Y0035949D01*
X0075178Y0035821D01*
X0073982Y0037017D01*
X0072076Y0037017D01*
X0071009Y0035949D01*
X0070347Y0035287D01*
X0069685Y0035949D01*
X0065644Y0035949D01*
X0064976Y0035280D01*
X0064307Y0035949D01*
X0061334Y0035949D01*
X0061219Y0035834D01*
X0061104Y0035949D01*
X0059199Y0035949D01*
X0058131Y0034881D01*
X0056784Y0033534D01*
X0056784Y0028426D01*
X0058131Y0027079D01*
X0060037Y0027079D01*
X0060151Y0027194D01*
X0060266Y0027079D01*
X0062172Y0027079D01*
X0062287Y0027194D01*
X0062401Y0027079D01*
X0064307Y0027079D01*
X0064976Y0027747D01*
X0065644Y0027079D01*
X0069685Y0027079D01*
X0070347Y0027741D01*
X0071009Y0027079D01*
X0072914Y0027079D01*
X0073982Y0028146D01*
X0074110Y0028275D01*
X0075306Y0027079D01*
X0077211Y0027079D01*
X0078279Y0028146D01*
X0078809Y0028677D01*
X0078947Y0028815D01*
X0079062Y0028700D01*
X0079616Y0028146D01*
X0079616Y0028146D01*
X0079890Y0027872D01*
X0080684Y0027079D01*
X0084724Y0027079D01*
X0085792Y0028146D01*
X0085927Y0028281D01*
X0086062Y0028146D01*
X0086313Y0027895D01*
X0087129Y0027079D01*
X0092237Y0027079D01*
X0093310Y0028152D02*
X0338172Y0028152D01*
X0337868Y0029150D02*
X0093585Y0029150D01*
X0093585Y0030149D02*
X0337564Y0030149D01*
X0337260Y0031147D02*
X0093585Y0031147D01*
X0093585Y0032146D02*
X0336956Y0032146D01*
X0336653Y0033144D02*
X0093585Y0033144D01*
X0093585Y0034143D02*
X0336349Y0034143D01*
X0336045Y0035141D02*
X0093585Y0035141D01*
X0093585Y0036140D02*
X0335741Y0036140D01*
X0335438Y0037138D02*
X0093183Y0037138D01*
X0086183Y0037138D02*
X0019769Y0037138D01*
X0019461Y0036140D02*
X0071200Y0036140D01*
X0074859Y0036140D02*
X0075497Y0036140D01*
X0079156Y0036140D02*
X0085185Y0036140D01*
X0085797Y0028152D02*
X0086056Y0028152D01*
X0086062Y0028146D02*
X0086062Y0028146D01*
X0087055Y0027153D02*
X0084799Y0027153D01*
X0080609Y0027153D02*
X0077286Y0027153D01*
X0078279Y0028146D02*
X0078279Y0028146D01*
X0078284Y0028152D02*
X0079611Y0028152D01*
X0075231Y0027153D02*
X0072989Y0027153D01*
X0073982Y0028146D02*
X0073982Y0028146D01*
X0073987Y0028152D02*
X0074233Y0028152D01*
X0070934Y0027153D02*
X0069759Y0027153D01*
X0065570Y0027153D02*
X0064381Y0027153D01*
X0062327Y0027153D02*
X0062246Y0027153D01*
X0060192Y0027153D02*
X0060111Y0027153D01*
X0058057Y0027153D02*
X0016695Y0027153D01*
X0017002Y0028152D02*
X0057058Y0028152D01*
X0056784Y0029150D02*
X0017310Y0029150D01*
X0017617Y0030149D02*
X0056784Y0030149D01*
X0056784Y0031147D02*
X0017924Y0031147D01*
X0018232Y0032146D02*
X0056784Y0032146D01*
X0056784Y0033144D02*
X0018539Y0033144D01*
X0018847Y0034143D02*
X0057392Y0034143D01*
X0058391Y0035141D02*
X0019154Y0035141D01*
X0020076Y0038137D02*
X0335134Y0038137D01*
X0334830Y0039135D02*
X0020384Y0039135D01*
X0020691Y0040134D02*
X0334526Y0040134D01*
X0334222Y0041132D02*
X0020998Y0041132D01*
X0021306Y0042131D02*
X0333919Y0042131D01*
X0333615Y0043129D02*
X0021613Y0043129D01*
X0021920Y0044128D02*
X0333311Y0044128D01*
X0333007Y0045126D02*
X0022228Y0045126D01*
X0022535Y0046125D02*
X0332703Y0046125D01*
X0332400Y0047123D02*
X0022843Y0047123D01*
X0023150Y0048122D02*
X0332096Y0048122D01*
X0331792Y0049120D02*
X0023457Y0049120D01*
X0023765Y0050119D02*
X0331488Y0050119D01*
X0331185Y0051117D02*
X0024072Y0051117D01*
X0024380Y0052116D02*
X0330881Y0052116D01*
X0330577Y0053114D02*
X0024687Y0053114D01*
X0024994Y0054113D02*
X0330273Y0054113D01*
X0329969Y0055111D02*
X0025302Y0055111D01*
X0025609Y0056110D02*
X0329666Y0056110D01*
X0329362Y0057109D02*
X0273521Y0057109D01*
X0272616Y0056866D02*
X0277758Y0058244D01*
X0282368Y0060905D01*
X0286132Y0064669D01*
X0288794Y0069279D01*
X0290171Y0074421D01*
X0290171Y0079744D01*
X0288794Y0084886D01*
X0286132Y0089496D01*
X0282368Y0093260D01*
X0277758Y0095921D01*
X0272616Y0097299D01*
X0267293Y0097299D01*
X0262151Y0095921D01*
X0257541Y0093260D01*
X0253777Y0089496D01*
X0251116Y0084886D01*
X0249738Y0079744D01*
X0249738Y0074421D01*
X0251116Y0069279D01*
X0253777Y0064669D01*
X0257541Y0060905D01*
X0262151Y0058244D01*
X0267293Y0056866D01*
X0272616Y0056866D01*
X0277247Y0058107D02*
X0329058Y0058107D01*
X0328754Y0059106D02*
X0279250Y0059106D01*
X0280980Y0060104D02*
X0328450Y0060104D01*
X0328147Y0061103D02*
X0282565Y0061103D01*
X0283564Y0062101D02*
X0327843Y0062101D01*
X0327539Y0063100D02*
X0284562Y0063100D01*
X0285561Y0064098D02*
X0327235Y0064098D01*
X0326932Y0065097D02*
X0286379Y0065097D01*
X0286955Y0066095D02*
X0326628Y0066095D01*
X0326324Y0067094D02*
X0287532Y0067094D01*
X0288108Y0068092D02*
X0326020Y0068092D01*
X0325706Y0069091D02*
X0288685Y0069091D01*
X0289011Y0070089D02*
X0325373Y0070089D01*
X0325039Y0071088D02*
X0289278Y0071088D01*
X0289546Y0072086D02*
X0324705Y0072086D01*
X0324372Y0073085D02*
X0289813Y0073085D01*
X0290081Y0074083D02*
X0324038Y0074083D01*
X0323704Y0075082D02*
X0290171Y0075082D01*
X0290171Y0076080D02*
X0323371Y0076080D01*
X0323037Y0077079D02*
X0290171Y0077079D01*
X0290171Y0078077D02*
X0322703Y0078077D01*
X0322370Y0079076D02*
X0290171Y0079076D01*
X0290083Y0080074D02*
X0322036Y0080074D01*
X0321702Y0081073D02*
X0289815Y0081073D01*
X0289548Y0082071D02*
X0321369Y0082071D01*
X0321035Y0083070D02*
X0289280Y0083070D01*
X0289013Y0084068D02*
X0320701Y0084068D01*
X0320396Y0085067D02*
X0288689Y0085067D01*
X0288113Y0086065D02*
X0320101Y0086065D01*
X0319807Y0087064D02*
X0287536Y0087064D01*
X0286960Y0088062D02*
X0319513Y0088062D01*
X0319218Y0089061D02*
X0286383Y0089061D01*
X0285568Y0090059D02*
X0318924Y0090059D01*
X0318630Y0091058D02*
X0284570Y0091058D01*
X0283571Y0092056D02*
X0318335Y0092056D01*
X0318041Y0093055D02*
X0282573Y0093055D01*
X0280994Y0094053D02*
X0317746Y0094053D01*
X0317452Y0095052D02*
X0279264Y0095052D01*
X0277277Y0096050D02*
X0317158Y0096050D01*
X0316863Y0097049D02*
X0273550Y0097049D01*
X0266359Y0097049D02*
X0253850Y0097049D01*
X0253959Y0097158D02*
X0253975Y0097196D01*
X0284058Y0127279D01*
X0283045Y0124834D01*
X0283045Y0121851D01*
X0284187Y0119094D01*
X0286297Y0116984D01*
X0289053Y0115843D01*
X0292037Y0115843D01*
X0294794Y0116984D01*
X0296903Y0119094D01*
X0298045Y0121851D01*
X0298045Y0124834D01*
X0296903Y0127591D01*
X0294794Y0129701D01*
X0292037Y0130843D01*
X0289053Y0130843D01*
X0286297Y0129701D01*
X0285075Y0128479D01*
X0285460Y0129407D01*
X0285460Y0202367D01*
X0285475Y0202404D01*
X0285475Y0203753D01*
X0284959Y0204999D01*
X0284005Y0205953D01*
X0283968Y0205969D01*
X0280460Y0209477D01*
X0280460Y0239750D01*
X0279946Y0240991D01*
X0244960Y0275977D01*
X0244960Y0342181D01*
X0245337Y0342558D01*
X0245710Y0341658D01*
X0246664Y0340704D01*
X0247910Y0340188D01*
X0248440Y0340188D01*
X0256585Y0332043D01*
X0256585Y0329874D01*
X0256210Y0329499D01*
X0255694Y0328253D01*
X0255694Y0326904D01*
X0256210Y0325658D01*
X0257164Y0324704D01*
X0258410Y0324188D01*
X0259759Y0324188D01*
X0261005Y0324704D01*
X0261959Y0325658D01*
X0262475Y0326904D01*
X0262475Y0328253D01*
X0261959Y0329499D01*
X0261585Y0329874D01*
X0261585Y0333576D01*
X0261204Y0334495D01*
X0260501Y0335198D01*
X0251975Y0343724D01*
X0251975Y0344253D01*
X0251789Y0344704D01*
X0265373Y0344704D01*
X0265410Y0344688D01*
X0266759Y0344688D01*
X0268005Y0345204D01*
X0268959Y0346158D01*
X0269475Y0347404D01*
X0269475Y0348753D01*
X0268959Y0349999D01*
X0268005Y0350953D01*
X0266759Y0351469D01*
X0265410Y0351469D01*
X0265373Y0351454D01*
X0245413Y0351454D01*
X0244173Y0350940D01*
X0239673Y0346440D01*
X0238723Y0345491D01*
X0238210Y0344250D01*
X0238210Y0341670D01*
X0237966Y0341914D01*
X0236720Y0342430D01*
X0235371Y0342430D01*
X0234125Y0341914D01*
X0233171Y0340960D01*
X0232972Y0340479D01*
X0213493Y0340479D01*
X0201485Y0352487D01*
X0201485Y0408170D01*
X0241401Y0448087D01*
X0242104Y0448790D01*
X0242485Y0449709D01*
X0242485Y0487823D01*
X0243405Y0488204D01*
X0244359Y0489158D01*
X0244875Y0490404D01*
X0244875Y0491753D01*
X0244359Y0492999D01*
X0243405Y0493953D01*
X0242159Y0494469D01*
X0240810Y0494469D01*
X0239564Y0493953D01*
X0239085Y0493474D01*
X0238605Y0493953D01*
X0237359Y0494469D01*
X0236010Y0494469D01*
X0234764Y0493953D01*
X0233810Y0492999D01*
X0233294Y0491753D01*
X0233294Y0490404D01*
X0233810Y0489158D01*
X0234764Y0488204D01*
X0235685Y0487823D01*
X0235685Y0451987D01*
X0197085Y0413387D01*
X0197085Y0497576D01*
X0196704Y0498495D01*
X0173001Y0522198D01*
X0172082Y0522579D01*
X0132380Y0522579D01*
X0132005Y0522953D01*
X0130759Y0523469D01*
X0129410Y0523469D01*
X0128164Y0522953D01*
X0127210Y0521999D01*
X0126694Y0520753D01*
X0126694Y0519404D01*
X0127210Y0518158D01*
X0128164Y0517204D01*
X0129410Y0516688D01*
X0130759Y0516688D01*
X0130898Y0516746D01*
X0130694Y0516253D01*
X0130694Y0514904D01*
X0131210Y0513658D01*
X0132164Y0512704D01*
X0133410Y0512188D01*
X0134759Y0512188D01*
X0136005Y0512704D01*
X0136380Y0513079D01*
X0172510Y0513079D01*
X0189585Y0495082D01*
X0189585Y0346581D01*
X0189965Y0345663D01*
X0206965Y0328663D01*
X0207669Y0327959D01*
X0208587Y0327579D01*
X0218790Y0327579D01*
X0219164Y0327204D01*
X0219769Y0326954D01*
X0203483Y0326954D01*
X0188946Y0341491D01*
X0187996Y0342440D01*
X0186756Y0342954D01*
X0184289Y0342954D01*
X0184475Y0343404D01*
X0184475Y0344753D01*
X0184460Y0344791D01*
X0184460Y0460367D01*
X0184475Y0460404D01*
X0184475Y0461753D01*
X0183959Y0462999D01*
X0183005Y0463953D01*
X0181759Y0464469D01*
X0180410Y0464469D01*
X0179164Y0463953D01*
X0178210Y0462999D01*
X0177694Y0461753D01*
X0177694Y0460404D01*
X0177710Y0460367D01*
X0177710Y0344791D01*
X0177694Y0344753D01*
X0177694Y0343404D01*
X0177881Y0342954D01*
X0169460Y0342954D01*
X0169460Y0386181D01*
X0175996Y0392718D01*
X0175996Y0392718D01*
X0176946Y0393667D01*
X0177460Y0394907D01*
X0177460Y0496367D01*
X0177475Y0496404D01*
X0177475Y0497753D01*
X0176959Y0498999D01*
X0176005Y0499953D01*
X0174759Y0500469D01*
X0173410Y0500469D01*
X0172164Y0499953D01*
X0171210Y0498999D01*
X0170694Y0497753D01*
X0170694Y0496404D01*
X0170710Y0496367D01*
X0170710Y0430576D01*
X0169759Y0430969D01*
X0168410Y0430969D01*
X0167164Y0430453D01*
X0166790Y0430079D01*
X0159585Y0430079D01*
X0149831Y0439368D01*
X0149501Y0439698D01*
X0149472Y0439710D01*
X0149449Y0439732D01*
X0149013Y0439900D01*
X0148582Y0440079D01*
X0148550Y0440079D01*
X0148521Y0440090D01*
X0148054Y0440079D01*
X0133596Y0440079D01*
X0133596Y0464994D01*
X0133215Y0465915D01*
X0132511Y0466619D01*
X0120085Y0479045D01*
X0120085Y0482784D01*
X0120459Y0483158D01*
X0120975Y0484404D01*
X0120975Y0485753D01*
X0120459Y0486999D01*
X0119505Y0487953D01*
X0118259Y0488469D01*
X0116910Y0488469D01*
X0115664Y0487953D01*
X0114710Y0486999D01*
X0114194Y0485753D01*
X0114194Y0484404D01*
X0114710Y0483158D01*
X0115085Y0482784D01*
X0115085Y0481194D01*
X0110975Y0485304D01*
X0110975Y0485828D01*
X0110459Y0487074D01*
X0109505Y0488028D01*
X0108259Y0488544D01*
X0106910Y0488544D01*
X0105664Y0488028D01*
X0104710Y0487074D01*
X0104194Y0485828D01*
X0104194Y0484479D01*
X0104710Y0483233D01*
X0105664Y0482279D01*
X0106910Y0481763D01*
X0107434Y0481763D01*
X0121910Y0467286D01*
X0121604Y0467413D01*
X0118620Y0467413D01*
X0115864Y0466272D01*
X0113754Y0464162D01*
X0112612Y0461405D01*
X0112612Y0458422D01*
X0113754Y0455665D01*
X0115864Y0453555D01*
X0118620Y0452413D01*
X0121604Y0452413D01*
X0124361Y0453555D01*
X0126470Y0455665D01*
X0126543Y0455840D01*
X0126486Y0440947D01*
X0114567Y0429028D01*
X0114566Y0429027D01*
X0114211Y0428671D01*
X0113863Y0428324D01*
X0113863Y0428323D01*
X0113862Y0428322D01*
X0113671Y0427859D01*
X0113482Y0427404D01*
X0113482Y0427403D01*
X0113482Y0427401D01*
X0113482Y0426898D01*
X0113482Y0426408D01*
X0113483Y0426407D01*
X0113554Y0349873D01*
X0111507Y0351919D01*
X0108751Y0353061D01*
X0105767Y0353061D01*
X0103010Y0351919D01*
X0100901Y0349809D01*
X0099759Y0347053D01*
X0099759Y0344069D01*
X0100901Y0341313D01*
X0103010Y0339203D01*
X0105767Y0338061D01*
X0108751Y0338061D01*
X0111507Y0339203D01*
X0113562Y0341257D01*
X0113572Y0330532D01*
X0097158Y0314119D01*
X0096454Y0313415D01*
X0096073Y0312494D01*
X0096073Y0235591D01*
X0095380Y0237264D01*
X0093270Y0239374D01*
X0090513Y0240516D01*
X0087530Y0240516D01*
X0084773Y0239374D01*
X0082663Y0237264D01*
X0081522Y0234508D01*
X0081522Y0231524D01*
X0082663Y0228767D01*
X0084773Y0226658D01*
X0087530Y0225516D01*
X0090513Y0225516D01*
X0093270Y0226658D01*
X0095380Y0228767D01*
X0096073Y0230440D01*
X0096073Y0219533D01*
X0075158Y0198619D01*
X0074454Y0197915D01*
X0074073Y0196994D01*
X0074073Y0122163D01*
X0074454Y0121243D01*
X0094544Y0101152D01*
X0095249Y0100448D01*
X0096169Y0100067D01*
X0146000Y0100067D01*
X0146920Y0100448D01*
X0168334Y0121862D01*
X0171370Y0121862D01*
X0172290Y0122243D01*
X0174503Y0124456D01*
X0175207Y0125160D01*
X0175589Y0126081D01*
X0175589Y0129288D01*
X0175959Y0129658D01*
X0176475Y0130904D01*
X0176475Y0132253D01*
X0175959Y0133499D01*
X0175005Y0134453D01*
X0173834Y0134938D01*
X0174509Y0134938D01*
X0175755Y0135454D01*
X0176709Y0136408D01*
X0177225Y0137654D01*
X0177225Y0139003D01*
X0176709Y0140249D01*
X0176335Y0140624D01*
X0176335Y0169034D01*
X0176914Y0168454D01*
X0178160Y0167938D01*
X0179509Y0167938D01*
X0180755Y0168454D01*
X0181709Y0169408D01*
X0182225Y0170654D01*
X0182225Y0172003D01*
X0181709Y0173249D01*
X0181335Y0173624D01*
X0181335Y0195284D01*
X0181709Y0195658D01*
X0182225Y0196904D01*
X0182225Y0198253D01*
X0181709Y0199499D01*
X0180755Y0200453D01*
X0179509Y0200969D01*
X0178160Y0200969D01*
X0176914Y0200453D01*
X0176335Y0199874D01*
X0176335Y0211793D01*
X0187480Y0222938D01*
X0188009Y0222938D01*
X0189255Y0223454D01*
X0190209Y0224408D01*
X0190725Y0225654D01*
X0190725Y0227003D01*
X0190209Y0228249D01*
X0189255Y0229203D01*
X0188009Y0229719D01*
X0186660Y0229719D01*
X0185414Y0229203D01*
X0184460Y0228249D01*
X0183944Y0227003D01*
X0183944Y0226474D01*
X0171715Y0214245D01*
X0171335Y0213326D01*
X0171335Y0140624D01*
X0170960Y0140249D01*
X0170444Y0139003D01*
X0170444Y0137654D01*
X0170960Y0136408D01*
X0171914Y0135454D01*
X0173085Y0134969D01*
X0172410Y0134969D01*
X0171164Y0134453D01*
X0170210Y0133499D01*
X0169697Y0132261D01*
X0169505Y0132453D01*
X0168259Y0132969D01*
X0166910Y0132969D01*
X0165664Y0132453D01*
X0164710Y0131499D01*
X0164194Y0130253D01*
X0164194Y0128904D01*
X0164560Y0128021D01*
X0154482Y0117943D01*
X0154459Y0117999D01*
X0153505Y0118953D01*
X0152259Y0119469D01*
X0150910Y0119469D01*
X0149664Y0118953D01*
X0148710Y0117999D01*
X0148194Y0116753D01*
X0148194Y0116224D01*
X0141049Y0109079D01*
X0129133Y0109079D01*
X0129475Y0109904D01*
X0129475Y0111253D01*
X0128959Y0112499D01*
X0128005Y0113453D01*
X0126759Y0113969D01*
X0125410Y0113969D01*
X0124164Y0113453D01*
X0123790Y0113079D01*
X0098702Y0113079D01*
X0099005Y0113204D01*
X0099959Y0114158D01*
X0100475Y0115404D01*
X0100475Y0116196D01*
X0137468Y0153189D01*
X0137505Y0153204D01*
X0138459Y0154158D01*
X0138475Y0154196D01*
X0149496Y0165218D01*
X0149496Y0165218D01*
X0150446Y0166167D01*
X0150960Y0167407D01*
X0150960Y0265181D01*
X0168946Y0283167D01*
X0169460Y0284407D01*
X0169460Y0336204D01*
X0171088Y0336204D01*
X0170694Y0335253D01*
X0170694Y0333904D01*
X0171210Y0332658D01*
X0171585Y0332284D01*
X0171585Y0265374D01*
X0171210Y0264999D01*
X0170694Y0263753D01*
X0170694Y0262404D01*
X0171210Y0261158D01*
X0172164Y0260204D01*
X0173410Y0259688D01*
X0174759Y0259688D01*
X0176005Y0260204D01*
X0176959Y0261158D01*
X0177475Y0262404D01*
X0177475Y0263753D01*
X0176959Y0264999D01*
X0176585Y0265374D01*
X0176585Y0332284D01*
X0176959Y0332658D01*
X0177475Y0333904D01*
X0177475Y0335253D01*
X0177081Y0336204D01*
X0184687Y0336204D01*
X0199223Y0321667D01*
X0200173Y0320718D01*
X0201413Y0320204D01*
X0218415Y0320204D01*
X0218210Y0319999D01*
X0217694Y0318753D01*
X0217694Y0317404D01*
X0218210Y0316158D01*
X0218585Y0315784D01*
X0218585Y0285114D01*
X0201669Y0268198D01*
X0200965Y0267495D01*
X0200585Y0266576D01*
X0200585Y0149114D01*
X0187940Y0136469D01*
X0187410Y0136469D01*
X0186164Y0135953D01*
X0185210Y0134999D01*
X0184694Y0133753D01*
X0184694Y0132404D01*
X0185210Y0131158D01*
X0186164Y0130204D01*
X0187410Y0129688D01*
X0188759Y0129688D01*
X0190005Y0130204D01*
X0190959Y0131158D01*
X0191475Y0132404D01*
X0191475Y0132934D01*
X0204501Y0145959D01*
X0205204Y0146663D01*
X0205585Y0147581D01*
X0205585Y0265043D01*
X0223204Y0282663D01*
X0223585Y0283581D01*
X0223585Y0315784D01*
X0223959Y0316158D01*
X0224475Y0317404D01*
X0224475Y0318753D01*
X0223959Y0319999D01*
X0223755Y0320204D01*
X0225415Y0320204D01*
X0225210Y0319999D01*
X0224694Y0318753D01*
X0224694Y0317404D01*
X0225210Y0316158D01*
X0225585Y0315784D01*
X0225585Y0280614D01*
X0209169Y0264198D01*
X0208465Y0263495D01*
X0208085Y0262576D01*
X0208085Y0143114D01*
X0187440Y0122469D01*
X0187410Y0122469D01*
X0186164Y0121953D01*
X0185210Y0120999D01*
X0184694Y0119753D01*
X0184694Y0118404D01*
X0185210Y0117158D01*
X0185390Y0116979D01*
X0172198Y0116979D01*
X0171998Y0117460D01*
X0171045Y0118414D01*
X0169798Y0118930D01*
X0168450Y0118930D01*
X0167203Y0118414D01*
X0166250Y0117460D01*
X0165733Y0116214D01*
X0165733Y0114865D01*
X0166250Y0113619D01*
X0167203Y0112665D01*
X0168450Y0112149D01*
X0169277Y0112149D01*
X0169544Y0112038D01*
X0169865Y0111263D01*
X0170094Y0111034D01*
X0170094Y0110504D01*
X0170610Y0109258D01*
X0171564Y0108304D01*
X0172810Y0107788D01*
X0174159Y0107788D01*
X0175405Y0108304D01*
X0176359Y0109258D01*
X0176740Y0110179D01*
X0195455Y0110179D01*
X0196374Y0110559D01*
X0219901Y0134087D01*
X0220604Y0134790D01*
X0220985Y0135709D01*
X0220985Y0261670D01*
X0236401Y0277087D01*
X0237104Y0277790D01*
X0237485Y0278709D01*
X0237485Y0305323D01*
X0238210Y0305623D01*
X0238210Y0274969D01*
X0236910Y0274969D01*
X0235664Y0274453D01*
X0234710Y0273499D01*
X0234194Y0272253D01*
X0234194Y0270904D01*
X0234710Y0269658D01*
X0235664Y0268704D01*
X0236910Y0268188D01*
X0237440Y0268188D01*
X0269585Y0236043D01*
X0269585Y0201081D01*
X0269965Y0200163D01*
X0270669Y0199459D01*
X0272585Y0197543D01*
X0272585Y0184374D01*
X0272210Y0183999D01*
X0271694Y0182753D01*
X0271694Y0181404D01*
X0272210Y0180158D01*
X0273164Y0179204D01*
X0274410Y0178688D01*
X0275759Y0178688D01*
X0277005Y0179204D01*
X0277959Y0180158D01*
X0278475Y0181404D01*
X0278475Y0182753D01*
X0277959Y0183999D01*
X0277585Y0184374D01*
X0277585Y0199076D01*
X0277204Y0199995D01*
X0274585Y0202614D01*
X0274585Y0205806D01*
X0275173Y0205218D01*
X0278710Y0201681D01*
X0278710Y0131477D01*
X0249202Y0101969D01*
X0249164Y0101953D01*
X0248210Y0100999D01*
X0247694Y0099753D01*
X0247694Y0098404D01*
X0248210Y0097158D01*
X0249164Y0096204D01*
X0250410Y0095688D01*
X0251759Y0095688D01*
X0253005Y0096204D01*
X0253959Y0097158D01*
X0254826Y0098047D02*
X0316569Y0098047D01*
X0316275Y0099046D02*
X0255825Y0099046D01*
X0256823Y0100045D02*
X0315980Y0100045D01*
X0315686Y0101043D02*
X0257822Y0101043D01*
X0258820Y0102042D02*
X0315391Y0102042D01*
X0315097Y0103040D02*
X0259819Y0103040D01*
X0260817Y0104039D02*
X0314803Y0104039D01*
X0314508Y0105037D02*
X0261816Y0105037D01*
X0262814Y0106036D02*
X0314214Y0106036D01*
X0313920Y0107034D02*
X0263813Y0107034D01*
X0264811Y0108033D02*
X0313625Y0108033D01*
X0313331Y0109031D02*
X0265810Y0109031D01*
X0266808Y0110030D02*
X0313036Y0110030D01*
X0312742Y0111028D02*
X0267807Y0111028D01*
X0268805Y0112027D02*
X0312448Y0112027D01*
X0312153Y0113025D02*
X0269804Y0113025D01*
X0270803Y0114024D02*
X0311859Y0114024D01*
X0311565Y0115022D02*
X0271801Y0115022D01*
X0272800Y0116021D02*
X0288623Y0116021D01*
X0286262Y0117019D02*
X0273798Y0117019D01*
X0274797Y0118018D02*
X0285263Y0118018D01*
X0284265Y0119016D02*
X0275795Y0119016D01*
X0276794Y0120015D02*
X0283806Y0120015D01*
X0283392Y0121013D02*
X0277792Y0121013D01*
X0278791Y0122012D02*
X0283045Y0122012D01*
X0283045Y0123010D02*
X0279789Y0123010D01*
X0280788Y0124009D02*
X0283045Y0124009D01*
X0283117Y0125007D02*
X0281786Y0125007D01*
X0282785Y0126006D02*
X0283530Y0126006D01*
X0283783Y0127004D02*
X0283944Y0127004D01*
X0285291Y0129001D02*
X0285598Y0129001D01*
X0285460Y0130000D02*
X0287019Y0130000D01*
X0285460Y0130998D02*
X0307434Y0130998D01*
X0307690Y0130000D02*
X0294071Y0130000D01*
X0295493Y0129001D02*
X0307946Y0129001D01*
X0308202Y0128003D02*
X0296492Y0128003D01*
X0297146Y0127004D02*
X0308457Y0127004D01*
X0308713Y0126006D02*
X0297560Y0126006D01*
X0297974Y0125007D02*
X0308969Y0125007D01*
X0309225Y0124009D02*
X0298045Y0124009D01*
X0298045Y0123010D02*
X0309481Y0123010D01*
X0309737Y0122012D02*
X0298045Y0122012D01*
X0297698Y0121013D02*
X0309993Y0121013D01*
X0310249Y0120015D02*
X0297285Y0120015D01*
X0296826Y0119016D02*
X0310505Y0119016D01*
X0310761Y0118018D02*
X0295827Y0118018D01*
X0294829Y0117019D02*
X0311016Y0117019D01*
X0311272Y0116021D02*
X0292467Y0116021D01*
X0285460Y0131997D02*
X0307178Y0131997D01*
X0306922Y0132995D02*
X0285460Y0132995D01*
X0285460Y0133994D02*
X0306666Y0133994D01*
X0306410Y0134992D02*
X0285460Y0134992D01*
X0285460Y0135991D02*
X0306154Y0135991D01*
X0305898Y0136989D02*
X0285460Y0136989D01*
X0285460Y0137988D02*
X0305643Y0137988D01*
X0305387Y0138986D02*
X0285460Y0138986D01*
X0285460Y0139985D02*
X0305131Y0139985D01*
X0304875Y0140983D02*
X0285460Y0140983D01*
X0285460Y0141982D02*
X0304619Y0141982D01*
X0304363Y0142980D02*
X0285460Y0142980D01*
X0285460Y0143979D02*
X0304107Y0143979D01*
X0303851Y0144978D02*
X0285460Y0144978D01*
X0285460Y0145976D02*
X0303595Y0145976D01*
X0303339Y0146975D02*
X0285460Y0146975D01*
X0285460Y0147973D02*
X0303086Y0147973D01*
X0302868Y0148972D02*
X0285460Y0148972D01*
X0285460Y0149970D02*
X0302650Y0149970D01*
X0302432Y0150969D02*
X0285460Y0150969D01*
X0285460Y0151967D02*
X0302214Y0151967D01*
X0301996Y0152966D02*
X0285460Y0152966D01*
X0285460Y0153964D02*
X0301778Y0153964D01*
X0301560Y0154963D02*
X0285460Y0154963D01*
X0285460Y0155961D02*
X0301341Y0155961D01*
X0301123Y0156960D02*
X0285460Y0156960D01*
X0285460Y0157958D02*
X0300905Y0157958D01*
X0300687Y0158957D02*
X0285460Y0158957D01*
X0285460Y0159955D02*
X0300469Y0159955D01*
X0300251Y0160954D02*
X0285460Y0160954D01*
X0285460Y0161952D02*
X0300033Y0161952D01*
X0299815Y0162951D02*
X0285460Y0162951D01*
X0285460Y0163949D02*
X0299596Y0163949D01*
X0299378Y0164948D02*
X0285460Y0164948D01*
X0285460Y0165946D02*
X0299160Y0165946D01*
X0298942Y0166945D02*
X0285460Y0166945D01*
X0285460Y0167943D02*
X0298724Y0167943D01*
X0298506Y0168942D02*
X0285460Y0168942D01*
X0285460Y0169940D02*
X0298288Y0169940D01*
X0298070Y0170939D02*
X0285460Y0170939D01*
X0285460Y0171937D02*
X0297851Y0171937D01*
X0297633Y0172936D02*
X0285460Y0172936D01*
X0285460Y0173934D02*
X0297415Y0173934D01*
X0297197Y0174933D02*
X0285460Y0174933D01*
X0285460Y0175931D02*
X0296979Y0175931D01*
X0296761Y0176930D02*
X0285460Y0176930D01*
X0285460Y0177928D02*
X0296543Y0177928D01*
X0296325Y0178927D02*
X0285460Y0178927D01*
X0285460Y0179925D02*
X0296106Y0179925D01*
X0295919Y0180924D02*
X0285460Y0180924D01*
X0285460Y0181922D02*
X0295738Y0181922D01*
X0295557Y0182921D02*
X0285460Y0182921D01*
X0285460Y0183919D02*
X0295376Y0183919D01*
X0295195Y0184918D02*
X0285460Y0184918D01*
X0285460Y0185916D02*
X0295014Y0185916D01*
X0294833Y0186915D02*
X0285460Y0186915D01*
X0285460Y0187913D02*
X0294652Y0187913D01*
X0294471Y0188912D02*
X0285460Y0188912D01*
X0285460Y0189911D02*
X0294291Y0189911D01*
X0294110Y0190909D02*
X0285460Y0190909D01*
X0285460Y0191908D02*
X0293929Y0191908D01*
X0293748Y0192906D02*
X0285460Y0192906D01*
X0285460Y0193905D02*
X0293567Y0193905D01*
X0293386Y0194903D02*
X0285460Y0194903D01*
X0285460Y0195902D02*
X0293205Y0195902D01*
X0293024Y0196900D02*
X0285460Y0196900D01*
X0285460Y0197899D02*
X0292843Y0197899D01*
X0292662Y0198897D02*
X0285460Y0198897D01*
X0285460Y0199896D02*
X0292481Y0199896D01*
X0292300Y0200894D02*
X0285460Y0200894D01*
X0285460Y0201893D02*
X0292119Y0201893D01*
X0291938Y0202891D02*
X0285475Y0202891D01*
X0285419Y0203890D02*
X0291757Y0203890D01*
X0291576Y0204888D02*
X0285005Y0204888D01*
X0284072Y0205887D02*
X0291395Y0205887D01*
X0291215Y0206885D02*
X0283051Y0206885D01*
X0282053Y0207884D02*
X0291034Y0207884D01*
X0290853Y0208882D02*
X0281054Y0208882D01*
X0280460Y0209881D02*
X0290672Y0209881D01*
X0290491Y0210879D02*
X0280460Y0210879D01*
X0280460Y0211878D02*
X0290310Y0211878D01*
X0290141Y0212876D02*
X0280460Y0212876D01*
X0280460Y0213875D02*
X0289997Y0213875D01*
X0289853Y0214873D02*
X0280460Y0214873D01*
X0280460Y0215872D02*
X0289709Y0215872D01*
X0289565Y0216870D02*
X0280460Y0216870D01*
X0280460Y0217869D02*
X0289420Y0217869D01*
X0289276Y0218867D02*
X0280460Y0218867D01*
X0280460Y0219866D02*
X0289132Y0219866D01*
X0288988Y0220864D02*
X0280460Y0220864D01*
X0280460Y0221863D02*
X0288843Y0221863D01*
X0288699Y0222861D02*
X0280460Y0222861D01*
X0280460Y0223860D02*
X0288555Y0223860D01*
X0288411Y0224858D02*
X0280460Y0224858D01*
X0280460Y0225857D02*
X0288266Y0225857D01*
X0288122Y0226855D02*
X0280460Y0226855D01*
X0280460Y0227854D02*
X0287978Y0227854D01*
X0287834Y0228852D02*
X0280460Y0228852D01*
X0280460Y0229851D02*
X0287689Y0229851D01*
X0287545Y0230849D02*
X0280460Y0230849D01*
X0280460Y0231848D02*
X0287401Y0231848D01*
X0287257Y0232847D02*
X0280460Y0232847D01*
X0280460Y0233845D02*
X0287113Y0233845D01*
X0286968Y0234844D02*
X0280460Y0234844D01*
X0280460Y0235842D02*
X0286824Y0235842D01*
X0286680Y0236841D02*
X0280460Y0236841D01*
X0280460Y0237839D02*
X0286536Y0237839D01*
X0286391Y0238838D02*
X0280460Y0238838D01*
X0280424Y0239836D02*
X0286247Y0239836D01*
X0286103Y0240835D02*
X0280010Y0240835D01*
X0279103Y0241833D02*
X0285959Y0241833D01*
X0285814Y0242832D02*
X0278105Y0242832D01*
X0277106Y0243830D02*
X0285670Y0243830D01*
X0285526Y0244829D02*
X0276108Y0244829D01*
X0275109Y0245827D02*
X0285406Y0245827D01*
X0285298Y0246826D02*
X0274111Y0246826D01*
X0273112Y0247824D02*
X0285190Y0247824D01*
X0285082Y0248823D02*
X0272114Y0248823D01*
X0271115Y0249821D02*
X0284974Y0249821D01*
X0284867Y0250820D02*
X0270117Y0250820D01*
X0269118Y0251818D02*
X0284759Y0251818D01*
X0284651Y0252817D02*
X0268120Y0252817D01*
X0267121Y0253815D02*
X0284543Y0253815D01*
X0284435Y0254814D02*
X0266123Y0254814D01*
X0265124Y0255812D02*
X0284327Y0255812D01*
X0284219Y0256811D02*
X0264126Y0256811D01*
X0263127Y0257809D02*
X0284111Y0257809D01*
X0284003Y0258808D02*
X0262129Y0258808D01*
X0261130Y0259806D02*
X0283895Y0259806D01*
X0283788Y0260805D02*
X0260132Y0260805D01*
X0259133Y0261803D02*
X0283680Y0261803D01*
X0283572Y0262802D02*
X0258134Y0262802D01*
X0257136Y0263800D02*
X0260445Y0263800D01*
X0259801Y0264067D02*
X0262557Y0262925D01*
X0265541Y0262925D01*
X0268298Y0264067D01*
X0270407Y0266177D01*
X0271549Y0268933D01*
X0271549Y0271917D01*
X0270407Y0274674D01*
X0268298Y0276783D01*
X0265541Y0277925D01*
X0262557Y0277925D01*
X0259801Y0276783D01*
X0257691Y0274674D01*
X0256549Y0271917D01*
X0256549Y0268933D01*
X0257691Y0266177D01*
X0259801Y0264067D01*
X0259069Y0264799D02*
X0256137Y0264799D01*
X0255139Y0265797D02*
X0258070Y0265797D01*
X0257435Y0266796D02*
X0254140Y0266796D01*
X0253142Y0267794D02*
X0257021Y0267794D01*
X0256607Y0268793D02*
X0252143Y0268793D01*
X0251145Y0269791D02*
X0256549Y0269791D01*
X0256549Y0270790D02*
X0250146Y0270790D01*
X0249148Y0271788D02*
X0256549Y0271788D01*
X0256910Y0272787D02*
X0248149Y0272787D01*
X0247151Y0273785D02*
X0257323Y0273785D01*
X0257801Y0274784D02*
X0246152Y0274784D01*
X0245154Y0275782D02*
X0258800Y0275782D01*
X0259798Y0276781D02*
X0244960Y0276781D01*
X0244960Y0277780D02*
X0262206Y0277780D01*
X0265893Y0277780D02*
X0281953Y0277780D01*
X0281876Y0278778D02*
X0244960Y0278778D01*
X0244960Y0279777D02*
X0281804Y0279777D01*
X0281732Y0280775D02*
X0244960Y0280775D01*
X0244960Y0281774D02*
X0281660Y0281774D01*
X0281588Y0282772D02*
X0244960Y0282772D01*
X0244960Y0283771D02*
X0281517Y0283771D01*
X0281445Y0284769D02*
X0244960Y0284769D01*
X0244960Y0285768D02*
X0281373Y0285768D01*
X0281301Y0286766D02*
X0244960Y0286766D01*
X0244960Y0287765D02*
X0281229Y0287765D01*
X0281157Y0288763D02*
X0244960Y0288763D01*
X0244960Y0289762D02*
X0281085Y0289762D01*
X0281014Y0290760D02*
X0244960Y0290760D01*
X0244960Y0291759D02*
X0280942Y0291759D01*
X0280870Y0292757D02*
X0244960Y0292757D01*
X0244960Y0293756D02*
X0280798Y0293756D01*
X0280718Y0294754D02*
X0244960Y0294754D01*
X0244960Y0295753D02*
X0280625Y0295753D01*
X0280533Y0296751D02*
X0244960Y0296751D01*
X0244960Y0297750D02*
X0280441Y0297750D01*
X0280349Y0298748D02*
X0244960Y0298748D01*
X0244960Y0299747D02*
X0280256Y0299747D01*
X0280164Y0300745D02*
X0244960Y0300745D01*
X0244960Y0301744D02*
X0280072Y0301744D01*
X0279980Y0302742D02*
X0244960Y0302742D01*
X0244960Y0303741D02*
X0279887Y0303741D01*
X0279795Y0304739D02*
X0244960Y0304739D01*
X0244960Y0305738D02*
X0279703Y0305738D01*
X0279610Y0306736D02*
X0244960Y0306736D01*
X0244960Y0307735D02*
X0279518Y0307735D01*
X0279426Y0308733D02*
X0244960Y0308733D01*
X0244960Y0309732D02*
X0279334Y0309732D01*
X0279241Y0310730D02*
X0244960Y0310730D01*
X0244960Y0311729D02*
X0279149Y0311729D01*
X0279057Y0312727D02*
X0244960Y0312727D01*
X0244960Y0313726D02*
X0278965Y0313726D01*
X0278872Y0314724D02*
X0244960Y0314724D01*
X0244960Y0315723D02*
X0278780Y0315723D01*
X0278688Y0316721D02*
X0244960Y0316721D01*
X0244960Y0317720D02*
X0278595Y0317720D01*
X0278503Y0318718D02*
X0244960Y0318718D01*
X0244960Y0319717D02*
X0278411Y0319717D01*
X0278319Y0320716D02*
X0244960Y0320716D01*
X0244960Y0321714D02*
X0278226Y0321714D01*
X0278134Y0322713D02*
X0244960Y0322713D01*
X0244960Y0323711D02*
X0278042Y0323711D01*
X0277950Y0324710D02*
X0261010Y0324710D01*
X0261980Y0325708D02*
X0277857Y0325708D01*
X0277765Y0326707D02*
X0262393Y0326707D01*
X0262475Y0327705D02*
X0277673Y0327705D01*
X0277580Y0328704D02*
X0262289Y0328704D01*
X0261756Y0329702D02*
X0277488Y0329702D01*
X0277396Y0330701D02*
X0261585Y0330701D01*
X0261585Y0331699D02*
X0277292Y0331699D01*
X0277269Y0332698D02*
X0261585Y0332698D01*
X0261535Y0333696D02*
X0277246Y0333696D01*
X0277223Y0334695D02*
X0261004Y0334695D01*
X0260006Y0335693D02*
X0277201Y0335693D01*
X0277178Y0336692D02*
X0259007Y0336692D01*
X0258009Y0337690D02*
X0277155Y0337690D01*
X0277132Y0338689D02*
X0257010Y0338689D01*
X0256012Y0339687D02*
X0277109Y0339687D01*
X0277086Y0340686D02*
X0255013Y0340686D01*
X0254015Y0341684D02*
X0277064Y0341684D01*
X0277041Y0342683D02*
X0253016Y0342683D01*
X0252018Y0343681D02*
X0277018Y0343681D01*
X0276995Y0344680D02*
X0251798Y0344680D01*
X0248585Y0343579D02*
X0259085Y0333079D01*
X0259085Y0327579D01*
X0255694Y0327705D02*
X0244960Y0327705D01*
X0244960Y0326707D02*
X0255776Y0326707D01*
X0256190Y0325708D02*
X0244960Y0325708D01*
X0244960Y0324710D02*
X0257159Y0324710D01*
X0255881Y0328704D02*
X0244960Y0328704D01*
X0244960Y0329702D02*
X0256413Y0329702D01*
X0256585Y0330701D02*
X0244960Y0330701D01*
X0244960Y0331699D02*
X0256585Y0331699D01*
X0255930Y0332698D02*
X0244960Y0332698D01*
X0244960Y0333696D02*
X0254932Y0333696D01*
X0253933Y0334695D02*
X0244960Y0334695D01*
X0244960Y0335693D02*
X0252935Y0335693D01*
X0251936Y0336692D02*
X0244960Y0336692D01*
X0244960Y0337690D02*
X0250938Y0337690D01*
X0249939Y0338689D02*
X0244960Y0338689D01*
X0244960Y0339687D02*
X0248941Y0339687D01*
X0246709Y0340686D02*
X0244960Y0340686D01*
X0244960Y0341684D02*
X0245699Y0341684D01*
X0239910Y0346677D02*
X0207295Y0346677D01*
X0206296Y0347675D02*
X0240908Y0347675D01*
X0241907Y0348674D02*
X0205298Y0348674D01*
X0204299Y0349672D02*
X0220828Y0349672D01*
X0218533Y0350287D02*
X0223675Y0348909D01*
X0228998Y0348909D01*
X0234140Y0350287D01*
X0238750Y0352949D01*
X0242514Y0356713D01*
X0245175Y0361323D01*
X0246553Y0366464D01*
X0246553Y0371788D01*
X0245175Y0376929D01*
X0242514Y0381539D01*
X0238750Y0385303D01*
X0234140Y0387965D01*
X0228998Y0389343D01*
X0223675Y0389343D01*
X0218533Y0387965D01*
X0213923Y0385303D01*
X0210159Y0381539D01*
X0207498Y0376929D01*
X0206120Y0371788D01*
X0206120Y0366464D01*
X0207498Y0361323D01*
X0210159Y0356713D01*
X0213923Y0352949D01*
X0218533Y0350287D01*
X0217869Y0350671D02*
X0203301Y0350671D01*
X0202302Y0351669D02*
X0216139Y0351669D01*
X0214410Y0352668D02*
X0201485Y0352668D01*
X0201485Y0353666D02*
X0213206Y0353666D01*
X0212207Y0354665D02*
X0201485Y0354665D01*
X0201485Y0355663D02*
X0211209Y0355663D01*
X0210210Y0356662D02*
X0201485Y0356662D01*
X0201485Y0357660D02*
X0209612Y0357660D01*
X0209036Y0358659D02*
X0201485Y0358659D01*
X0201485Y0359657D02*
X0208459Y0359657D01*
X0207883Y0360656D02*
X0201485Y0360656D01*
X0201485Y0361654D02*
X0207409Y0361654D01*
X0207141Y0362653D02*
X0201485Y0362653D01*
X0201485Y0363651D02*
X0206874Y0363651D01*
X0206606Y0364650D02*
X0201485Y0364650D01*
X0201485Y0365649D02*
X0206339Y0365649D01*
X0206120Y0366647D02*
X0201485Y0366647D01*
X0201485Y0367646D02*
X0206120Y0367646D01*
X0206120Y0368644D02*
X0201485Y0368644D01*
X0201485Y0369643D02*
X0206120Y0369643D01*
X0206120Y0370641D02*
X0201485Y0370641D01*
X0201485Y0371640D02*
X0206120Y0371640D01*
X0206348Y0372638D02*
X0201485Y0372638D01*
X0201485Y0373637D02*
X0206616Y0373637D01*
X0206883Y0374635D02*
X0201485Y0374635D01*
X0201485Y0375634D02*
X0207151Y0375634D01*
X0207418Y0376632D02*
X0201485Y0376632D01*
X0201485Y0377631D02*
X0207903Y0377631D01*
X0208479Y0378629D02*
X0201485Y0378629D01*
X0201485Y0379628D02*
X0209056Y0379628D01*
X0209632Y0380626D02*
X0201485Y0380626D01*
X0201485Y0381625D02*
X0210245Y0381625D01*
X0211243Y0382623D02*
X0201485Y0382623D01*
X0201485Y0383622D02*
X0212242Y0383622D01*
X0213240Y0384620D02*
X0201485Y0384620D01*
X0201485Y0385619D02*
X0214470Y0385619D01*
X0216199Y0386617D02*
X0201485Y0386617D01*
X0201485Y0387616D02*
X0217929Y0387616D01*
X0220957Y0388614D02*
X0201485Y0388614D01*
X0201485Y0389613D02*
X0275968Y0389613D01*
X0275945Y0390611D02*
X0201485Y0390611D01*
X0201485Y0391610D02*
X0275922Y0391610D01*
X0275899Y0392608D02*
X0201485Y0392608D01*
X0201485Y0393607D02*
X0275876Y0393607D01*
X0275853Y0394605D02*
X0201485Y0394605D01*
X0201485Y0395604D02*
X0275831Y0395604D01*
X0275808Y0396602D02*
X0201485Y0396602D01*
X0201485Y0397601D02*
X0275785Y0397601D01*
X0275762Y0398599D02*
X0201485Y0398599D01*
X0201485Y0399598D02*
X0275739Y0399598D01*
X0275716Y0400596D02*
X0201485Y0400596D01*
X0201485Y0401595D02*
X0275694Y0401595D01*
X0275671Y0402593D02*
X0201485Y0402593D01*
X0201485Y0403592D02*
X0275648Y0403592D01*
X0275625Y0404590D02*
X0201485Y0404590D01*
X0201485Y0405589D02*
X0275602Y0405589D01*
X0275579Y0406587D02*
X0201485Y0406587D01*
X0201485Y0407586D02*
X0275557Y0407586D01*
X0275534Y0408584D02*
X0250106Y0408584D01*
X0251176Y0409028D02*
X0253285Y0411137D01*
X0254427Y0413894D01*
X0254427Y0416878D01*
X0253285Y0419634D01*
X0251176Y0421744D01*
X0248419Y0422886D01*
X0245435Y0422886D01*
X0242679Y0421744D01*
X0240569Y0419634D01*
X0239427Y0416878D01*
X0239427Y0413894D01*
X0240569Y0411137D01*
X0242679Y0409028D01*
X0245435Y0407886D01*
X0248419Y0407886D01*
X0251176Y0409028D01*
X0251731Y0409583D02*
X0275511Y0409583D01*
X0275488Y0410582D02*
X0252729Y0410582D01*
X0253469Y0411580D02*
X0275465Y0411580D01*
X0275442Y0412579D02*
X0253882Y0412579D01*
X0254296Y0413577D02*
X0275420Y0413577D01*
X0275397Y0414576D02*
X0254427Y0414576D01*
X0254427Y0415574D02*
X0275374Y0415574D01*
X0275351Y0416573D02*
X0254427Y0416573D01*
X0254140Y0417571D02*
X0275328Y0417571D01*
X0275305Y0418570D02*
X0253726Y0418570D01*
X0253313Y0419568D02*
X0275283Y0419568D01*
X0275260Y0420567D02*
X0252353Y0420567D01*
X0251354Y0421565D02*
X0275237Y0421565D01*
X0275214Y0422564D02*
X0249197Y0422564D01*
X0244658Y0422564D02*
X0215878Y0422564D01*
X0216876Y0423562D02*
X0275174Y0423562D01*
X0275196Y0424561D02*
X0217875Y0424561D01*
X0218873Y0425559D02*
X0275218Y0425559D01*
X0275241Y0426558D02*
X0219872Y0426558D01*
X0220870Y0427556D02*
X0275263Y0427556D01*
X0275285Y0428555D02*
X0221869Y0428555D01*
X0222867Y0429553D02*
X0275307Y0429553D01*
X0275329Y0430552D02*
X0223866Y0430552D01*
X0224865Y0431550D02*
X0275352Y0431550D01*
X0275374Y0432549D02*
X0225863Y0432549D01*
X0226862Y0433547D02*
X0275396Y0433547D01*
X0275418Y0434546D02*
X0227860Y0434546D01*
X0228859Y0435544D02*
X0275441Y0435544D01*
X0275463Y0436543D02*
X0229857Y0436543D01*
X0230856Y0437541D02*
X0275485Y0437541D01*
X0275507Y0438540D02*
X0231854Y0438540D01*
X0232853Y0439538D02*
X0275529Y0439538D01*
X0275552Y0440537D02*
X0233851Y0440537D01*
X0234850Y0441535D02*
X0275574Y0441535D01*
X0275596Y0442534D02*
X0235848Y0442534D01*
X0236847Y0443532D02*
X0275618Y0443532D01*
X0275641Y0444531D02*
X0237845Y0444531D01*
X0238844Y0445529D02*
X0275663Y0445529D01*
X0275685Y0446528D02*
X0239842Y0446528D01*
X0240841Y0447526D02*
X0275707Y0447526D01*
X0275729Y0448525D02*
X0241839Y0448525D01*
X0242408Y0449523D02*
X0275752Y0449523D01*
X0275774Y0450522D02*
X0242485Y0450522D01*
X0242485Y0451520D02*
X0275796Y0451520D01*
X0275818Y0452519D02*
X0242485Y0452519D01*
X0242485Y0453518D02*
X0275840Y0453518D01*
X0275863Y0454516D02*
X0242485Y0454516D01*
X0242485Y0455515D02*
X0275885Y0455515D01*
X0275907Y0456513D02*
X0242485Y0456513D01*
X0242485Y0457512D02*
X0275929Y0457512D01*
X0275952Y0458510D02*
X0242485Y0458510D01*
X0242485Y0459509D02*
X0275974Y0459509D01*
X0275996Y0460507D02*
X0242485Y0460507D01*
X0242485Y0461506D02*
X0276018Y0461506D01*
X0276040Y0462504D02*
X0242485Y0462504D01*
X0242485Y0463503D02*
X0276063Y0463503D01*
X0276085Y0464501D02*
X0242485Y0464501D01*
X0242485Y0465500D02*
X0276107Y0465500D01*
X0276129Y0466498D02*
X0242485Y0466498D01*
X0242485Y0467497D02*
X0276152Y0467497D01*
X0276174Y0468495D02*
X0242485Y0468495D01*
X0242485Y0469494D02*
X0276196Y0469494D01*
X0276218Y0470492D02*
X0242485Y0470492D01*
X0242485Y0471491D02*
X0276240Y0471491D01*
X0276263Y0472489D02*
X0260425Y0472489D01*
X0261070Y0472757D02*
X0259500Y0472106D01*
X0257801Y0472106D01*
X0256231Y0472757D01*
X0255029Y0473958D01*
X0254379Y0475528D01*
X0254379Y0477228D01*
X0255029Y0478798D01*
X0256231Y0479999D01*
X0257801Y0480650D01*
X0259500Y0480650D01*
X0261070Y0479999D01*
X0262272Y0478798D01*
X0262922Y0477228D01*
X0262922Y0475528D01*
X0262272Y0473958D01*
X0261070Y0472757D01*
X0261801Y0473488D02*
X0276285Y0473488D01*
X0276307Y0474486D02*
X0262491Y0474486D01*
X0262904Y0475485D02*
X0276329Y0475485D01*
X0276352Y0476483D02*
X0262922Y0476483D01*
X0262817Y0477482D02*
X0276374Y0477482D01*
X0276396Y0478480D02*
X0262403Y0478480D01*
X0261591Y0479479D02*
X0276418Y0479479D01*
X0276440Y0480477D02*
X0259916Y0480477D01*
X0257385Y0480477D02*
X0242485Y0480477D01*
X0242485Y0479479D02*
X0255710Y0479479D01*
X0254898Y0478480D02*
X0242485Y0478480D01*
X0242485Y0477482D02*
X0254484Y0477482D01*
X0254379Y0476483D02*
X0242485Y0476483D01*
X0242485Y0475485D02*
X0254397Y0475485D01*
X0254811Y0474486D02*
X0242485Y0474486D01*
X0242485Y0473488D02*
X0255500Y0473488D01*
X0256876Y0472489D02*
X0242485Y0472489D01*
X0235685Y0472489D02*
X0231585Y0472489D01*
X0231585Y0471491D02*
X0235685Y0471491D01*
X0235685Y0470492D02*
X0231585Y0470492D01*
X0231585Y0469494D02*
X0235685Y0469494D01*
X0235685Y0468495D02*
X0231585Y0468495D01*
X0231585Y0467497D02*
X0235685Y0467497D01*
X0235685Y0466498D02*
X0231585Y0466498D01*
X0231585Y0465500D02*
X0235685Y0465500D01*
X0235685Y0464501D02*
X0231585Y0464501D01*
X0231585Y0463503D02*
X0235685Y0463503D01*
X0235685Y0462504D02*
X0231585Y0462504D01*
X0231585Y0461506D02*
X0235685Y0461506D01*
X0235685Y0460507D02*
X0231585Y0460507D01*
X0231585Y0459509D02*
X0235685Y0459509D01*
X0235685Y0458510D02*
X0231585Y0458510D01*
X0231585Y0458374D02*
X0231585Y0488784D01*
X0231959Y0489158D01*
X0232475Y0490404D01*
X0232475Y0491753D01*
X0231959Y0492999D01*
X0231005Y0493953D01*
X0229759Y0494469D01*
X0228410Y0494469D01*
X0227164Y0493953D01*
X0226210Y0492999D01*
X0225694Y0491753D01*
X0225694Y0490404D01*
X0226210Y0489158D01*
X0226585Y0488784D01*
X0226585Y0458374D01*
X0226210Y0457999D01*
X0225694Y0456753D01*
X0225694Y0455404D01*
X0226210Y0454158D01*
X0227164Y0453204D01*
X0228410Y0452688D01*
X0229759Y0452688D01*
X0231005Y0453204D01*
X0231959Y0454158D01*
X0232475Y0455404D01*
X0232475Y0456753D01*
X0231959Y0457999D01*
X0231585Y0458374D01*
X0232161Y0457512D02*
X0235685Y0457512D01*
X0235685Y0456513D02*
X0232475Y0456513D01*
X0232475Y0455515D02*
X0235685Y0455515D01*
X0235685Y0454516D02*
X0232107Y0454516D01*
X0231318Y0453518D02*
X0235685Y0453518D01*
X0235685Y0452519D02*
X0197085Y0452519D01*
X0197085Y0451520D02*
X0235218Y0451520D01*
X0234220Y0450522D02*
X0197085Y0450522D01*
X0197085Y0449523D02*
X0233221Y0449523D01*
X0232223Y0448525D02*
X0197085Y0448525D01*
X0197085Y0447526D02*
X0231224Y0447526D01*
X0230226Y0446528D02*
X0197085Y0446528D01*
X0197085Y0445529D02*
X0229227Y0445529D01*
X0228228Y0444531D02*
X0197085Y0444531D01*
X0197085Y0443532D02*
X0227230Y0443532D01*
X0226231Y0442534D02*
X0197085Y0442534D01*
X0197085Y0441535D02*
X0225233Y0441535D01*
X0224234Y0440537D02*
X0197085Y0440537D01*
X0197085Y0439538D02*
X0223236Y0439538D01*
X0222237Y0438540D02*
X0197085Y0438540D01*
X0197085Y0437541D02*
X0221239Y0437541D01*
X0220240Y0436543D02*
X0197085Y0436543D01*
X0197085Y0435544D02*
X0219242Y0435544D01*
X0218243Y0434546D02*
X0197085Y0434546D01*
X0197085Y0433547D02*
X0217245Y0433547D01*
X0216246Y0432549D02*
X0197085Y0432549D01*
X0197085Y0431550D02*
X0215248Y0431550D01*
X0214249Y0430552D02*
X0197085Y0430552D01*
X0197085Y0429553D02*
X0213251Y0429553D01*
X0212252Y0428555D02*
X0197085Y0428555D01*
X0197085Y0427556D02*
X0211254Y0427556D01*
X0210255Y0426558D02*
X0197085Y0426558D01*
X0197085Y0425559D02*
X0209257Y0425559D01*
X0208258Y0424561D02*
X0197085Y0424561D01*
X0197085Y0423562D02*
X0207260Y0423562D01*
X0206261Y0422564D02*
X0197085Y0422564D01*
X0197085Y0421565D02*
X0205263Y0421565D01*
X0204264Y0420567D02*
X0197085Y0420567D01*
X0197085Y0419568D02*
X0203266Y0419568D01*
X0202267Y0418570D02*
X0197085Y0418570D01*
X0197085Y0417571D02*
X0201269Y0417571D01*
X0200270Y0416573D02*
X0197085Y0416573D01*
X0197085Y0415574D02*
X0199272Y0415574D01*
X0198273Y0414576D02*
X0197085Y0414576D01*
X0197085Y0413577D02*
X0197275Y0413577D01*
X0197185Y0409952D02*
X0238185Y0450952D01*
X0238185Y0491079D01*
X0236685Y0491079D01*
X0239985Y0491079D02*
X0241485Y0491079D01*
X0239985Y0491079D02*
X0239985Y0450206D01*
X0198985Y0409206D01*
X0198985Y0351452D01*
X0212457Y0337979D01*
X0234985Y0337979D01*
X0236045Y0339039D01*
X0233895Y0341684D02*
X0212287Y0341684D01*
X0211289Y0342683D02*
X0238210Y0342683D01*
X0238210Y0343681D02*
X0210290Y0343681D01*
X0209292Y0344680D02*
X0238388Y0344680D01*
X0238911Y0345678D02*
X0208293Y0345678D01*
X0213286Y0340686D02*
X0233057Y0340686D01*
X0233185Y0336179D02*
X0231685Y0334679D01*
X0233185Y0336179D02*
X0211712Y0336179D01*
X0197185Y0350706D01*
X0197185Y0409952D01*
X0201899Y0408584D02*
X0243749Y0408584D01*
X0242123Y0409583D02*
X0202897Y0409583D01*
X0203896Y0410582D02*
X0241125Y0410582D01*
X0240386Y0411580D02*
X0204894Y0411580D01*
X0205893Y0412579D02*
X0239972Y0412579D01*
X0239558Y0413577D02*
X0206891Y0413577D01*
X0207890Y0414576D02*
X0239427Y0414576D01*
X0239427Y0415574D02*
X0208888Y0415574D01*
X0209887Y0416573D02*
X0239427Y0416573D01*
X0239714Y0417571D02*
X0210885Y0417571D01*
X0211884Y0418570D02*
X0240128Y0418570D01*
X0240542Y0419568D02*
X0212882Y0419568D01*
X0213881Y0420567D02*
X0241501Y0420567D01*
X0242500Y0421565D02*
X0214879Y0421565D01*
X0231716Y0388614D02*
X0275990Y0388614D01*
X0276013Y0387616D02*
X0234744Y0387616D01*
X0236474Y0386617D02*
X0276036Y0386617D01*
X0276059Y0385619D02*
X0238203Y0385619D01*
X0239433Y0384620D02*
X0276082Y0384620D01*
X0276105Y0383622D02*
X0240431Y0383622D01*
X0241430Y0382623D02*
X0276127Y0382623D01*
X0276150Y0381625D02*
X0242428Y0381625D01*
X0243041Y0380626D02*
X0276173Y0380626D01*
X0276196Y0379628D02*
X0243617Y0379628D01*
X0244194Y0378629D02*
X0276219Y0378629D01*
X0276242Y0377631D02*
X0244770Y0377631D01*
X0245255Y0376632D02*
X0276264Y0376632D01*
X0276287Y0375634D02*
X0245523Y0375634D01*
X0245790Y0374635D02*
X0276310Y0374635D01*
X0276333Y0373637D02*
X0246058Y0373637D01*
X0246325Y0372638D02*
X0276356Y0372638D01*
X0276379Y0371640D02*
X0246553Y0371640D01*
X0246553Y0370641D02*
X0276401Y0370641D01*
X0276424Y0369643D02*
X0246553Y0369643D01*
X0246553Y0368644D02*
X0276447Y0368644D01*
X0276470Y0367646D02*
X0246553Y0367646D01*
X0246553Y0366647D02*
X0276493Y0366647D01*
X0276516Y0365649D02*
X0246335Y0365649D01*
X0246067Y0364650D02*
X0276538Y0364650D01*
X0276561Y0363651D02*
X0245799Y0363651D01*
X0245532Y0362653D02*
X0276584Y0362653D01*
X0276607Y0361654D02*
X0245264Y0361654D01*
X0244790Y0360656D02*
X0276630Y0360656D01*
X0276653Y0359657D02*
X0244214Y0359657D01*
X0243637Y0358659D02*
X0276675Y0358659D01*
X0276698Y0357660D02*
X0243061Y0357660D01*
X0242463Y0356662D02*
X0276721Y0356662D01*
X0276744Y0355663D02*
X0241465Y0355663D01*
X0240466Y0354665D02*
X0276767Y0354665D01*
X0276790Y0353666D02*
X0239467Y0353666D01*
X0238263Y0352668D02*
X0276812Y0352668D01*
X0276835Y0351669D02*
X0236534Y0351669D01*
X0234804Y0350671D02*
X0243904Y0350671D01*
X0242905Y0349672D02*
X0231845Y0349672D01*
X0238195Y0341684D02*
X0238210Y0341684D01*
X0228085Y0330079D02*
X0224585Y0333579D01*
X0209585Y0333579D01*
X0194585Y0348579D01*
X0194585Y0497079D01*
X0171585Y0520079D01*
X0130085Y0520079D01*
X0126969Y0521416D02*
X0091237Y0521416D01*
X0091207Y0520418D02*
X0126694Y0520418D01*
X0126694Y0519419D02*
X0091176Y0519419D01*
X0091145Y0518421D02*
X0127101Y0518421D01*
X0127946Y0517422D02*
X0091114Y0517422D01*
X0091084Y0516424D02*
X0130765Y0516424D01*
X0130694Y0515425D02*
X0091053Y0515425D01*
X0091022Y0514427D02*
X0130892Y0514427D01*
X0131440Y0513428D02*
X0090992Y0513428D01*
X0090961Y0512430D02*
X0132827Y0512430D01*
X0135342Y0512430D02*
X0173126Y0512430D01*
X0174073Y0511431D02*
X0090930Y0511431D01*
X0090899Y0510433D02*
X0175021Y0510433D01*
X0175968Y0509434D02*
X0090869Y0509434D01*
X0090838Y0508436D02*
X0176915Y0508436D01*
X0177863Y0507437D02*
X0090807Y0507437D01*
X0090777Y0506439D02*
X0178810Y0506439D01*
X0179757Y0505440D02*
X0090746Y0505440D01*
X0090715Y0504442D02*
X0180705Y0504442D01*
X0181652Y0503443D02*
X0090684Y0503443D01*
X0090654Y0502445D02*
X0182599Y0502445D01*
X0183547Y0501446D02*
X0090623Y0501446D01*
X0090592Y0500448D02*
X0173358Y0500448D01*
X0174812Y0500448D02*
X0184494Y0500448D01*
X0185441Y0499449D02*
X0176509Y0499449D01*
X0177186Y0498451D02*
X0186388Y0498451D01*
X0187336Y0497452D02*
X0177475Y0497452D01*
X0177475Y0496453D02*
X0188283Y0496453D01*
X0189230Y0495455D02*
X0177460Y0495455D01*
X0177460Y0494456D02*
X0189585Y0494456D01*
X0189585Y0493458D02*
X0177460Y0493458D01*
X0177460Y0492459D02*
X0189585Y0492459D01*
X0189585Y0491461D02*
X0177460Y0491461D01*
X0177460Y0490462D02*
X0189585Y0490462D01*
X0189585Y0489464D02*
X0177460Y0489464D01*
X0177460Y0488465D02*
X0189585Y0488465D01*
X0189585Y0487467D02*
X0177460Y0487467D01*
X0177460Y0486468D02*
X0189585Y0486468D01*
X0189585Y0485470D02*
X0177460Y0485470D01*
X0177460Y0484471D02*
X0189585Y0484471D01*
X0189585Y0483473D02*
X0177460Y0483473D01*
X0177460Y0482474D02*
X0189585Y0482474D01*
X0189585Y0481476D02*
X0177460Y0481476D01*
X0177460Y0480477D02*
X0189585Y0480477D01*
X0189585Y0479479D02*
X0177460Y0479479D01*
X0177460Y0478480D02*
X0189585Y0478480D01*
X0189585Y0477482D02*
X0177460Y0477482D01*
X0177460Y0476483D02*
X0189585Y0476483D01*
X0189585Y0475485D02*
X0177460Y0475485D01*
X0177460Y0474486D02*
X0189585Y0474486D01*
X0189585Y0473488D02*
X0177460Y0473488D01*
X0177460Y0472489D02*
X0189585Y0472489D01*
X0189585Y0471491D02*
X0177460Y0471491D01*
X0177460Y0470492D02*
X0189585Y0470492D01*
X0189585Y0469494D02*
X0177460Y0469494D01*
X0177460Y0468495D02*
X0189585Y0468495D01*
X0189585Y0467497D02*
X0177460Y0467497D01*
X0177460Y0466498D02*
X0189585Y0466498D01*
X0189585Y0465500D02*
X0177460Y0465500D01*
X0177460Y0464501D02*
X0189585Y0464501D01*
X0189585Y0463503D02*
X0183456Y0463503D01*
X0184164Y0462504D02*
X0189585Y0462504D01*
X0189585Y0461506D02*
X0184475Y0461506D01*
X0184475Y0460507D02*
X0189585Y0460507D01*
X0189585Y0459509D02*
X0184460Y0459509D01*
X0184460Y0458510D02*
X0189585Y0458510D01*
X0189585Y0457512D02*
X0184460Y0457512D01*
X0184460Y0456513D02*
X0189585Y0456513D01*
X0189585Y0455515D02*
X0184460Y0455515D01*
X0184460Y0454516D02*
X0189585Y0454516D01*
X0189585Y0453518D02*
X0184460Y0453518D01*
X0184460Y0452519D02*
X0189585Y0452519D01*
X0189585Y0451520D02*
X0184460Y0451520D01*
X0184460Y0450522D02*
X0189585Y0450522D01*
X0189585Y0449523D02*
X0184460Y0449523D01*
X0184460Y0448525D02*
X0189585Y0448525D01*
X0189585Y0447526D02*
X0184460Y0447526D01*
X0184460Y0446528D02*
X0189585Y0446528D01*
X0189585Y0445529D02*
X0184460Y0445529D01*
X0184460Y0444531D02*
X0189585Y0444531D01*
X0189585Y0443532D02*
X0184460Y0443532D01*
X0184460Y0442534D02*
X0189585Y0442534D01*
X0189585Y0441535D02*
X0184460Y0441535D01*
X0184460Y0440537D02*
X0189585Y0440537D01*
X0189585Y0439538D02*
X0184460Y0439538D01*
X0184460Y0438540D02*
X0189585Y0438540D01*
X0189585Y0437541D02*
X0184460Y0437541D01*
X0184460Y0436543D02*
X0189585Y0436543D01*
X0189585Y0435544D02*
X0184460Y0435544D01*
X0184460Y0434546D02*
X0189585Y0434546D01*
X0189585Y0433547D02*
X0184460Y0433547D01*
X0184460Y0432549D02*
X0189585Y0432549D01*
X0189585Y0431550D02*
X0184460Y0431550D01*
X0184460Y0430552D02*
X0189585Y0430552D01*
X0189585Y0429553D02*
X0184460Y0429553D01*
X0184460Y0428555D02*
X0189585Y0428555D01*
X0189585Y0427556D02*
X0184460Y0427556D01*
X0184460Y0426558D02*
X0189585Y0426558D01*
X0189585Y0425559D02*
X0184460Y0425559D01*
X0184460Y0424561D02*
X0189585Y0424561D01*
X0189585Y0423562D02*
X0184460Y0423562D01*
X0184460Y0422564D02*
X0189585Y0422564D01*
X0189585Y0421565D02*
X0184460Y0421565D01*
X0184460Y0420567D02*
X0189585Y0420567D01*
X0189585Y0419568D02*
X0184460Y0419568D01*
X0184460Y0418570D02*
X0189585Y0418570D01*
X0189585Y0417571D02*
X0184460Y0417571D01*
X0184460Y0416573D02*
X0189585Y0416573D01*
X0189585Y0415574D02*
X0184460Y0415574D01*
X0184460Y0414576D02*
X0189585Y0414576D01*
X0189585Y0413577D02*
X0184460Y0413577D01*
X0184460Y0412579D02*
X0189585Y0412579D01*
X0189585Y0411580D02*
X0184460Y0411580D01*
X0184460Y0410582D02*
X0189585Y0410582D01*
X0189585Y0409583D02*
X0184460Y0409583D01*
X0184460Y0408584D02*
X0189585Y0408584D01*
X0189585Y0407586D02*
X0184460Y0407586D01*
X0184460Y0406587D02*
X0189585Y0406587D01*
X0189585Y0405589D02*
X0184460Y0405589D01*
X0184460Y0404590D02*
X0189585Y0404590D01*
X0189585Y0403592D02*
X0184460Y0403592D01*
X0184460Y0402593D02*
X0189585Y0402593D01*
X0189585Y0401595D02*
X0184460Y0401595D01*
X0184460Y0400596D02*
X0189585Y0400596D01*
X0189585Y0399598D02*
X0184460Y0399598D01*
X0184460Y0398599D02*
X0189585Y0398599D01*
X0189585Y0397601D02*
X0184460Y0397601D01*
X0184460Y0396602D02*
X0189585Y0396602D01*
X0189585Y0395604D02*
X0184460Y0395604D01*
X0184460Y0394605D02*
X0189585Y0394605D01*
X0189585Y0393607D02*
X0184460Y0393607D01*
X0184460Y0392608D02*
X0189585Y0392608D01*
X0189585Y0391610D02*
X0184460Y0391610D01*
X0184460Y0390611D02*
X0189585Y0390611D01*
X0189585Y0389613D02*
X0184460Y0389613D01*
X0184460Y0388614D02*
X0189585Y0388614D01*
X0189585Y0387616D02*
X0184460Y0387616D01*
X0184460Y0386617D02*
X0189585Y0386617D01*
X0189585Y0385619D02*
X0184460Y0385619D01*
X0184460Y0384620D02*
X0189585Y0384620D01*
X0189585Y0383622D02*
X0184460Y0383622D01*
X0184460Y0382623D02*
X0189585Y0382623D01*
X0189585Y0381625D02*
X0184460Y0381625D01*
X0184460Y0380626D02*
X0189585Y0380626D01*
X0189585Y0379628D02*
X0184460Y0379628D01*
X0184460Y0378629D02*
X0189585Y0378629D01*
X0189585Y0377631D02*
X0184460Y0377631D01*
X0184460Y0376632D02*
X0189585Y0376632D01*
X0189585Y0375634D02*
X0184460Y0375634D01*
X0184460Y0374635D02*
X0189585Y0374635D01*
X0189585Y0373637D02*
X0184460Y0373637D01*
X0184460Y0372638D02*
X0189585Y0372638D01*
X0189585Y0371640D02*
X0184460Y0371640D01*
X0184460Y0370641D02*
X0189585Y0370641D01*
X0189585Y0369643D02*
X0184460Y0369643D01*
X0184460Y0368644D02*
X0189585Y0368644D01*
X0189585Y0367646D02*
X0184460Y0367646D01*
X0184460Y0366647D02*
X0189585Y0366647D01*
X0189585Y0365649D02*
X0184460Y0365649D01*
X0184460Y0364650D02*
X0189585Y0364650D01*
X0189585Y0363651D02*
X0184460Y0363651D01*
X0184460Y0362653D02*
X0189585Y0362653D01*
X0189585Y0361654D02*
X0184460Y0361654D01*
X0184460Y0360656D02*
X0189585Y0360656D01*
X0189585Y0359657D02*
X0184460Y0359657D01*
X0184460Y0358659D02*
X0189585Y0358659D01*
X0189585Y0357660D02*
X0184460Y0357660D01*
X0184460Y0356662D02*
X0189585Y0356662D01*
X0189585Y0355663D02*
X0184460Y0355663D01*
X0184460Y0354665D02*
X0189585Y0354665D01*
X0189585Y0353666D02*
X0184460Y0353666D01*
X0184460Y0352668D02*
X0189585Y0352668D01*
X0189585Y0351669D02*
X0184460Y0351669D01*
X0184460Y0350671D02*
X0189585Y0350671D01*
X0189585Y0349672D02*
X0184460Y0349672D01*
X0184460Y0348674D02*
X0189585Y0348674D01*
X0189585Y0347675D02*
X0184460Y0347675D01*
X0184460Y0346677D02*
X0189585Y0346677D01*
X0189959Y0345678D02*
X0184460Y0345678D01*
X0184475Y0344680D02*
X0190948Y0344680D01*
X0191947Y0343681D02*
X0184475Y0343681D01*
X0187410Y0342683D02*
X0192945Y0342683D01*
X0193944Y0341684D02*
X0188752Y0341684D01*
X0188946Y0341491D02*
X0188946Y0341491D01*
X0189751Y0340686D02*
X0194942Y0340686D01*
X0195941Y0339687D02*
X0190749Y0339687D01*
X0191748Y0338689D02*
X0196939Y0338689D01*
X0197938Y0337690D02*
X0192746Y0337690D01*
X0193745Y0336692D02*
X0198936Y0336692D01*
X0199935Y0335693D02*
X0194743Y0335693D01*
X0195742Y0334695D02*
X0200933Y0334695D01*
X0201932Y0333696D02*
X0196740Y0333696D01*
X0197739Y0332698D02*
X0202930Y0332698D01*
X0203929Y0331699D02*
X0198737Y0331699D01*
X0199736Y0330701D02*
X0204927Y0330701D01*
X0205926Y0329702D02*
X0200734Y0329702D01*
X0201733Y0328704D02*
X0206924Y0328704D01*
X0208282Y0327705D02*
X0202731Y0327705D01*
X0198178Y0322713D02*
X0176585Y0322713D01*
X0176585Y0323711D02*
X0197179Y0323711D01*
X0196181Y0324710D02*
X0176585Y0324710D01*
X0176585Y0325708D02*
X0195182Y0325708D01*
X0194184Y0326707D02*
X0176585Y0326707D01*
X0176585Y0327705D02*
X0193185Y0327705D01*
X0192187Y0328704D02*
X0176585Y0328704D01*
X0176585Y0329702D02*
X0191188Y0329702D01*
X0190190Y0330701D02*
X0176585Y0330701D01*
X0176585Y0331699D02*
X0189191Y0331699D01*
X0188193Y0332698D02*
X0176975Y0332698D01*
X0177389Y0333696D02*
X0187194Y0333696D01*
X0186196Y0334695D02*
X0177475Y0334695D01*
X0177293Y0335693D02*
X0185197Y0335693D01*
X0177694Y0343681D02*
X0169460Y0343681D01*
X0169460Y0344680D02*
X0177694Y0344680D01*
X0177710Y0345678D02*
X0169460Y0345678D01*
X0169460Y0346677D02*
X0177710Y0346677D01*
X0177710Y0347675D02*
X0169460Y0347675D01*
X0169460Y0348674D02*
X0171738Y0348674D01*
X0171664Y0348704D02*
X0172910Y0348188D01*
X0174259Y0348188D01*
X0175505Y0348704D01*
X0176459Y0349658D01*
X0176975Y0350904D01*
X0176975Y0352253D01*
X0176459Y0353499D01*
X0176085Y0353874D01*
X0176085Y0357784D01*
X0176459Y0358158D01*
X0176975Y0359404D01*
X0176975Y0360753D01*
X0176459Y0361999D01*
X0175505Y0362953D01*
X0174259Y0363469D01*
X0172910Y0363469D01*
X0171664Y0362953D01*
X0170710Y0361999D01*
X0170194Y0360753D01*
X0170194Y0359404D01*
X0170710Y0358158D01*
X0171085Y0357784D01*
X0171085Y0353874D01*
X0170710Y0353499D01*
X0170194Y0352253D01*
X0170194Y0350904D01*
X0170710Y0349658D01*
X0171664Y0348704D01*
X0170704Y0349672D02*
X0169460Y0349672D01*
X0169460Y0350671D02*
X0170291Y0350671D01*
X0170194Y0351669D02*
X0169460Y0351669D01*
X0169460Y0352668D02*
X0170366Y0352668D01*
X0170877Y0353666D02*
X0169460Y0353666D01*
X0169460Y0354665D02*
X0171085Y0354665D01*
X0171085Y0355663D02*
X0169460Y0355663D01*
X0169460Y0356662D02*
X0171085Y0356662D01*
X0171085Y0357660D02*
X0169460Y0357660D01*
X0169460Y0358659D02*
X0170503Y0358659D01*
X0170194Y0359657D02*
X0169460Y0359657D01*
X0169460Y0360656D02*
X0170194Y0360656D01*
X0170567Y0361654D02*
X0169460Y0361654D01*
X0169460Y0362653D02*
X0171364Y0362653D01*
X0169460Y0363651D02*
X0177710Y0363651D01*
X0177710Y0362653D02*
X0175805Y0362653D01*
X0176602Y0361654D02*
X0177710Y0361654D01*
X0177710Y0360656D02*
X0176975Y0360656D01*
X0176975Y0359657D02*
X0177710Y0359657D01*
X0177710Y0358659D02*
X0176666Y0358659D01*
X0176085Y0357660D02*
X0177710Y0357660D01*
X0177710Y0356662D02*
X0176085Y0356662D01*
X0176085Y0355663D02*
X0177710Y0355663D01*
X0177710Y0354665D02*
X0176085Y0354665D01*
X0176292Y0353666D02*
X0177710Y0353666D01*
X0177710Y0352668D02*
X0176803Y0352668D01*
X0176975Y0351669D02*
X0177710Y0351669D01*
X0177710Y0350671D02*
X0176878Y0350671D01*
X0176465Y0349672D02*
X0177710Y0349672D01*
X0177710Y0348674D02*
X0175431Y0348674D01*
X0173585Y0351579D02*
X0173585Y0360079D01*
X0169460Y0364650D02*
X0177710Y0364650D01*
X0177710Y0365649D02*
X0169460Y0365649D01*
X0169460Y0366647D02*
X0177710Y0366647D01*
X0177710Y0367646D02*
X0169460Y0367646D01*
X0169460Y0368644D02*
X0177710Y0368644D01*
X0177710Y0369643D02*
X0169460Y0369643D01*
X0169460Y0370641D02*
X0177710Y0370641D01*
X0177710Y0371640D02*
X0169460Y0371640D01*
X0169460Y0372638D02*
X0177710Y0372638D01*
X0177710Y0373637D02*
X0169460Y0373637D01*
X0169460Y0374635D02*
X0177710Y0374635D01*
X0177710Y0375634D02*
X0169460Y0375634D01*
X0169460Y0376632D02*
X0177710Y0376632D01*
X0177710Y0377631D02*
X0169460Y0377631D01*
X0169460Y0378629D02*
X0177710Y0378629D01*
X0177710Y0379628D02*
X0169460Y0379628D01*
X0169460Y0380626D02*
X0177710Y0380626D01*
X0177710Y0381625D02*
X0169460Y0381625D01*
X0169460Y0382623D02*
X0177710Y0382623D01*
X0177710Y0383622D02*
X0169460Y0383622D01*
X0169460Y0384620D02*
X0177710Y0384620D01*
X0177710Y0385619D02*
X0169460Y0385619D01*
X0169896Y0386617D02*
X0177710Y0386617D01*
X0177710Y0387616D02*
X0170895Y0387616D01*
X0171893Y0388614D02*
X0177710Y0388614D01*
X0177710Y0389613D02*
X0172892Y0389613D01*
X0173890Y0390611D02*
X0177710Y0390611D01*
X0177710Y0391610D02*
X0174889Y0391610D01*
X0175887Y0392608D02*
X0177710Y0392608D01*
X0177710Y0393607D02*
X0176886Y0393607D01*
X0177335Y0394605D02*
X0177710Y0394605D01*
X0177710Y0395604D02*
X0177460Y0395604D01*
X0177460Y0396602D02*
X0177710Y0396602D01*
X0177710Y0397601D02*
X0177460Y0397601D01*
X0177460Y0398599D02*
X0177710Y0398599D01*
X0177710Y0399598D02*
X0177460Y0399598D01*
X0177460Y0400596D02*
X0177710Y0400596D01*
X0177710Y0401595D02*
X0177460Y0401595D01*
X0177460Y0402593D02*
X0177710Y0402593D01*
X0177710Y0403592D02*
X0177460Y0403592D01*
X0177460Y0404590D02*
X0177710Y0404590D01*
X0177710Y0405589D02*
X0177460Y0405589D01*
X0177460Y0406587D02*
X0177710Y0406587D01*
X0177710Y0407586D02*
X0177460Y0407586D01*
X0177460Y0408584D02*
X0177710Y0408584D01*
X0177710Y0409583D02*
X0177460Y0409583D01*
X0177460Y0410582D02*
X0177710Y0410582D01*
X0177710Y0411580D02*
X0177460Y0411580D01*
X0177460Y0412579D02*
X0177710Y0412579D01*
X0177710Y0413577D02*
X0177460Y0413577D01*
X0177460Y0414576D02*
X0177710Y0414576D01*
X0177710Y0415574D02*
X0177460Y0415574D01*
X0177460Y0416573D02*
X0177710Y0416573D01*
X0177710Y0417571D02*
X0177460Y0417571D01*
X0177460Y0418570D02*
X0177710Y0418570D01*
X0177710Y0419568D02*
X0177460Y0419568D01*
X0177460Y0420567D02*
X0177710Y0420567D01*
X0177710Y0421565D02*
X0177460Y0421565D01*
X0177460Y0422564D02*
X0177710Y0422564D01*
X0177710Y0423562D02*
X0177460Y0423562D01*
X0177460Y0424561D02*
X0177710Y0424561D01*
X0177710Y0425559D02*
X0177460Y0425559D01*
X0177460Y0426558D02*
X0177710Y0426558D01*
X0177710Y0427556D02*
X0177460Y0427556D01*
X0177460Y0428555D02*
X0177710Y0428555D01*
X0177710Y0429553D02*
X0177460Y0429553D01*
X0177460Y0430552D02*
X0177710Y0430552D01*
X0177710Y0431550D02*
X0177460Y0431550D01*
X0177460Y0432549D02*
X0177710Y0432549D01*
X0177710Y0433547D02*
X0177460Y0433547D01*
X0177460Y0434546D02*
X0177710Y0434546D01*
X0177710Y0435544D02*
X0177460Y0435544D01*
X0177460Y0436543D02*
X0177710Y0436543D01*
X0177710Y0437541D02*
X0177460Y0437541D01*
X0177460Y0438540D02*
X0177710Y0438540D01*
X0177710Y0439538D02*
X0177460Y0439538D01*
X0177460Y0440537D02*
X0177710Y0440537D01*
X0177710Y0441535D02*
X0177460Y0441535D01*
X0177460Y0442534D02*
X0177710Y0442534D01*
X0177710Y0443532D02*
X0177460Y0443532D01*
X0177460Y0444531D02*
X0177710Y0444531D01*
X0177710Y0445529D02*
X0177460Y0445529D01*
X0177460Y0446528D02*
X0177710Y0446528D01*
X0177710Y0447526D02*
X0177460Y0447526D01*
X0177460Y0448525D02*
X0177710Y0448525D01*
X0177710Y0449523D02*
X0177460Y0449523D01*
X0177460Y0450522D02*
X0177710Y0450522D01*
X0177710Y0451520D02*
X0177460Y0451520D01*
X0177460Y0452519D02*
X0177710Y0452519D01*
X0177710Y0453518D02*
X0177460Y0453518D01*
X0177460Y0454516D02*
X0177710Y0454516D01*
X0177710Y0455515D02*
X0177460Y0455515D01*
X0177460Y0456513D02*
X0177710Y0456513D01*
X0177710Y0457512D02*
X0177460Y0457512D01*
X0177460Y0458510D02*
X0177710Y0458510D01*
X0177710Y0459509D02*
X0177460Y0459509D01*
X0177460Y0460507D02*
X0177694Y0460507D01*
X0177694Y0461506D02*
X0177460Y0461506D01*
X0177460Y0462504D02*
X0178005Y0462504D01*
X0177460Y0463503D02*
X0178714Y0463503D01*
X0170710Y0463503D02*
X0133596Y0463503D01*
X0133596Y0464501D02*
X0170710Y0464501D01*
X0170710Y0465500D02*
X0133387Y0465500D01*
X0132632Y0466498D02*
X0170710Y0466498D01*
X0170710Y0467497D02*
X0131633Y0467497D01*
X0130635Y0468495D02*
X0170710Y0468495D01*
X0170710Y0469494D02*
X0129636Y0469494D01*
X0128638Y0470492D02*
X0170710Y0470492D01*
X0170710Y0471491D02*
X0127639Y0471491D01*
X0126641Y0472489D02*
X0170710Y0472489D01*
X0170710Y0473488D02*
X0125642Y0473488D01*
X0124644Y0474486D02*
X0170710Y0474486D01*
X0170710Y0475485D02*
X0123645Y0475485D01*
X0122647Y0476483D02*
X0170710Y0476483D01*
X0170710Y0477482D02*
X0121648Y0477482D01*
X0120650Y0478480D02*
X0170710Y0478480D01*
X0170710Y0479479D02*
X0120085Y0479479D01*
X0120085Y0480477D02*
X0170710Y0480477D01*
X0170710Y0481476D02*
X0120085Y0481476D01*
X0120085Y0482474D02*
X0170710Y0482474D01*
X0170710Y0483473D02*
X0120589Y0483473D01*
X0120975Y0484471D02*
X0170710Y0484471D01*
X0170710Y0485470D02*
X0120975Y0485470D01*
X0120679Y0486468D02*
X0170710Y0486468D01*
X0170710Y0487467D02*
X0119991Y0487467D01*
X0118268Y0488465D02*
X0170710Y0488465D01*
X0170710Y0489464D02*
X0090254Y0489464D01*
X0090285Y0490462D02*
X0170710Y0490462D01*
X0170710Y0491461D02*
X0090316Y0491461D01*
X0090346Y0492459D02*
X0170710Y0492459D01*
X0170710Y0493458D02*
X0090377Y0493458D01*
X0090408Y0494456D02*
X0170710Y0494456D01*
X0170710Y0495455D02*
X0090439Y0495455D01*
X0090469Y0496453D02*
X0170694Y0496453D01*
X0170694Y0497452D02*
X0090500Y0497452D01*
X0090531Y0498451D02*
X0170983Y0498451D01*
X0171660Y0499449D02*
X0090562Y0499449D01*
X0090224Y0488465D02*
X0106721Y0488465D01*
X0108449Y0488465D02*
X0116901Y0488465D01*
X0115178Y0487467D02*
X0110066Y0487467D01*
X0110710Y0486468D02*
X0114490Y0486468D01*
X0114194Y0485470D02*
X0110975Y0485470D01*
X0111808Y0484471D02*
X0114194Y0484471D01*
X0114580Y0483473D02*
X0112806Y0483473D01*
X0113805Y0482474D02*
X0115085Y0482474D01*
X0115085Y0481476D02*
X0114803Y0481476D01*
X0117585Y0478004D02*
X0117585Y0485079D01*
X0110717Y0478480D02*
X0089916Y0478480D01*
X0089886Y0477482D02*
X0111715Y0477482D01*
X0112714Y0476483D02*
X0089855Y0476483D01*
X0089824Y0475485D02*
X0113712Y0475485D01*
X0114711Y0474486D02*
X0089794Y0474486D01*
X0089763Y0473488D02*
X0115709Y0473488D01*
X0116708Y0472489D02*
X0089732Y0472489D01*
X0089701Y0471491D02*
X0117706Y0471491D01*
X0118705Y0470492D02*
X0089671Y0470492D01*
X0089640Y0469494D02*
X0119703Y0469494D01*
X0120702Y0468495D02*
X0089609Y0468495D01*
X0089579Y0467497D02*
X0121700Y0467497D01*
X0116411Y0466498D02*
X0089548Y0466498D01*
X0089517Y0465500D02*
X0115092Y0465500D01*
X0114093Y0464501D02*
X0089486Y0464501D01*
X0089456Y0463503D02*
X0113481Y0463503D01*
X0113067Y0462504D02*
X0089425Y0462504D01*
X0089394Y0461506D02*
X0112654Y0461506D01*
X0112612Y0460507D02*
X0089364Y0460507D01*
X0089333Y0459509D02*
X0112612Y0459509D01*
X0112612Y0458510D02*
X0089302Y0458510D01*
X0089271Y0457512D02*
X0112989Y0457512D01*
X0113403Y0456513D02*
X0089241Y0456513D01*
X0089210Y0455515D02*
X0113904Y0455515D01*
X0114903Y0454516D02*
X0089179Y0454516D01*
X0089148Y0453518D02*
X0115955Y0453518D01*
X0118365Y0452519D02*
X0089118Y0452519D01*
X0089087Y0451520D02*
X0126527Y0451520D01*
X0126523Y0450522D02*
X0089056Y0450522D01*
X0089026Y0449523D02*
X0126519Y0449523D01*
X0126515Y0448525D02*
X0088995Y0448525D01*
X0088964Y0447526D02*
X0126511Y0447526D01*
X0126508Y0446528D02*
X0088933Y0446528D01*
X0088903Y0445529D02*
X0126504Y0445529D01*
X0126500Y0444531D02*
X0088872Y0444531D01*
X0088841Y0443532D02*
X0126496Y0443532D01*
X0126492Y0442534D02*
X0088811Y0442534D01*
X0088780Y0441535D02*
X0126488Y0441535D01*
X0126076Y0440537D02*
X0088749Y0440537D01*
X0088718Y0439538D02*
X0125078Y0439538D01*
X0124079Y0438540D02*
X0088688Y0438540D01*
X0088657Y0437541D02*
X0123081Y0437541D01*
X0122082Y0436543D02*
X0088626Y0436543D01*
X0088596Y0435544D02*
X0121084Y0435544D01*
X0120085Y0434546D02*
X0088565Y0434546D01*
X0088534Y0433547D02*
X0119087Y0433547D01*
X0118088Y0432549D02*
X0088503Y0432549D01*
X0088473Y0431550D02*
X0117090Y0431550D01*
X0116091Y0430552D02*
X0088442Y0430552D01*
X0088411Y0429553D02*
X0115093Y0429553D01*
X0114094Y0428555D02*
X0088381Y0428555D01*
X0088350Y0427556D02*
X0113545Y0427556D01*
X0113482Y0426558D02*
X0088319Y0426558D01*
X0088288Y0425559D02*
X0113484Y0425559D01*
X0113484Y0424561D02*
X0088258Y0424561D01*
X0088227Y0423562D02*
X0113485Y0423562D01*
X0113486Y0422564D02*
X0088196Y0422564D01*
X0088166Y0421565D02*
X0113487Y0421565D01*
X0113488Y0420567D02*
X0088135Y0420567D01*
X0088104Y0419568D02*
X0113489Y0419568D01*
X0113490Y0418570D02*
X0088073Y0418570D01*
X0088043Y0417571D02*
X0113491Y0417571D01*
X0113492Y0416573D02*
X0088012Y0416573D01*
X0087981Y0415574D02*
X0113493Y0415574D01*
X0113494Y0414576D02*
X0087950Y0414576D01*
X0087920Y0413577D02*
X0113495Y0413577D01*
X0113496Y0412579D02*
X0087889Y0412579D01*
X0087858Y0411580D02*
X0113497Y0411580D01*
X0113497Y0410582D02*
X0087828Y0410582D01*
X0087797Y0409583D02*
X0113498Y0409583D01*
X0113499Y0408584D02*
X0087766Y0408584D01*
X0087735Y0407586D02*
X0113500Y0407586D01*
X0113501Y0406587D02*
X0087705Y0406587D01*
X0087674Y0405589D02*
X0113502Y0405589D01*
X0113503Y0404590D02*
X0087643Y0404590D01*
X0087613Y0403592D02*
X0113504Y0403592D01*
X0113505Y0402593D02*
X0087582Y0402593D01*
X0087551Y0401595D02*
X0113506Y0401595D01*
X0113507Y0400596D02*
X0087520Y0400596D01*
X0087490Y0399598D02*
X0113508Y0399598D01*
X0113509Y0398599D02*
X0087459Y0398599D01*
X0087428Y0397601D02*
X0113510Y0397601D01*
X0113510Y0396602D02*
X0087398Y0396602D01*
X0087367Y0395604D02*
X0113511Y0395604D01*
X0113512Y0394605D02*
X0087336Y0394605D01*
X0087305Y0393607D02*
X0113513Y0393607D01*
X0113514Y0392608D02*
X0087275Y0392608D01*
X0087244Y0391610D02*
X0113515Y0391610D01*
X0113516Y0390611D02*
X0087213Y0390611D01*
X0087183Y0389613D02*
X0113517Y0389613D01*
X0113518Y0388614D02*
X0087152Y0388614D01*
X0087121Y0387616D02*
X0113519Y0387616D01*
X0113520Y0386617D02*
X0087090Y0386617D01*
X0087060Y0385619D02*
X0113521Y0385619D01*
X0113522Y0384620D02*
X0087029Y0384620D01*
X0086998Y0383622D02*
X0113523Y0383622D01*
X0113523Y0382623D02*
X0086968Y0382623D01*
X0086937Y0381625D02*
X0113524Y0381625D01*
X0113525Y0380626D02*
X0086906Y0380626D01*
X0086875Y0379628D02*
X0113526Y0379628D01*
X0113527Y0378629D02*
X0086845Y0378629D01*
X0086814Y0377631D02*
X0113528Y0377631D01*
X0113529Y0376632D02*
X0086783Y0376632D01*
X0086752Y0375634D02*
X0113530Y0375634D01*
X0113531Y0374635D02*
X0086722Y0374635D01*
X0086691Y0373637D02*
X0113532Y0373637D01*
X0113533Y0372638D02*
X0086660Y0372638D01*
X0086630Y0371640D02*
X0113534Y0371640D01*
X0113535Y0370641D02*
X0086599Y0370641D01*
X0086568Y0369643D02*
X0113536Y0369643D01*
X0113536Y0368644D02*
X0086537Y0368644D01*
X0086507Y0367646D02*
X0113537Y0367646D01*
X0113538Y0366647D02*
X0086476Y0366647D01*
X0086445Y0365649D02*
X0113539Y0365649D01*
X0113540Y0364650D02*
X0086415Y0364650D01*
X0086384Y0363651D02*
X0113541Y0363651D01*
X0113542Y0362653D02*
X0086353Y0362653D01*
X0086322Y0361654D02*
X0113543Y0361654D01*
X0113544Y0360656D02*
X0086292Y0360656D01*
X0086261Y0359657D02*
X0113545Y0359657D01*
X0113546Y0358659D02*
X0086230Y0358659D01*
X0086200Y0357660D02*
X0113547Y0357660D01*
X0113548Y0356662D02*
X0086169Y0356662D01*
X0086138Y0355663D02*
X0113549Y0355663D01*
X0113549Y0354665D02*
X0086107Y0354665D01*
X0086077Y0353666D02*
X0113550Y0353666D01*
X0113551Y0352668D02*
X0109700Y0352668D01*
X0111757Y0351669D02*
X0113552Y0351669D01*
X0113553Y0350671D02*
X0112756Y0350671D01*
X0104818Y0352668D02*
X0086046Y0352668D01*
X0086015Y0351669D02*
X0102761Y0351669D01*
X0101762Y0350671D02*
X0085985Y0350671D01*
X0085954Y0349672D02*
X0100844Y0349672D01*
X0100430Y0348674D02*
X0085923Y0348674D01*
X0085892Y0347675D02*
X0100017Y0347675D01*
X0099759Y0346677D02*
X0085862Y0346677D01*
X0085722Y0345678D02*
X0099759Y0345678D01*
X0099759Y0344680D02*
X0085599Y0344680D01*
X0085477Y0343681D02*
X0099920Y0343681D01*
X0100333Y0342683D02*
X0085354Y0342683D01*
X0085231Y0341684D02*
X0100747Y0341684D01*
X0101528Y0340686D02*
X0085108Y0340686D01*
X0084986Y0339687D02*
X0102526Y0339687D01*
X0104252Y0338689D02*
X0084863Y0338689D01*
X0084740Y0337690D02*
X0113565Y0337690D01*
X0113566Y0336692D02*
X0084618Y0336692D01*
X0084495Y0335693D02*
X0113567Y0335693D01*
X0113568Y0334695D02*
X0084372Y0334695D01*
X0084249Y0333696D02*
X0113569Y0333696D01*
X0113570Y0332698D02*
X0084127Y0332698D01*
X0084004Y0331699D02*
X0113571Y0331699D01*
X0113572Y0330701D02*
X0083881Y0330701D01*
X0083759Y0329702D02*
X0112742Y0329702D01*
X0111743Y0328704D02*
X0083636Y0328704D01*
X0083513Y0327705D02*
X0110745Y0327705D01*
X0109746Y0326707D02*
X0083390Y0326707D01*
X0083268Y0325708D02*
X0108748Y0325708D01*
X0107749Y0324710D02*
X0083145Y0324710D01*
X0083022Y0323711D02*
X0106750Y0323711D01*
X0105752Y0322713D02*
X0082899Y0322713D01*
X0082777Y0321714D02*
X0104753Y0321714D01*
X0103755Y0320716D02*
X0082654Y0320716D01*
X0082531Y0319717D02*
X0102756Y0319717D01*
X0101758Y0318718D02*
X0082409Y0318718D01*
X0082286Y0317720D02*
X0100759Y0317720D01*
X0099761Y0316721D02*
X0082163Y0316721D01*
X0082040Y0315723D02*
X0098762Y0315723D01*
X0097764Y0314724D02*
X0081918Y0314724D01*
X0081795Y0313726D02*
X0096765Y0313726D01*
X0096169Y0312727D02*
X0081672Y0312727D01*
X0081549Y0311729D02*
X0096073Y0311729D01*
X0096073Y0310730D02*
X0081427Y0310730D01*
X0081304Y0309732D02*
X0096073Y0309732D01*
X0096073Y0308733D02*
X0081181Y0308733D01*
X0081059Y0307735D02*
X0096073Y0307735D01*
X0096073Y0306736D02*
X0080936Y0306736D01*
X0080813Y0305738D02*
X0096073Y0305738D01*
X0096073Y0304739D02*
X0080690Y0304739D01*
X0080568Y0303741D02*
X0096073Y0303741D01*
X0096073Y0302742D02*
X0080445Y0302742D01*
X0080322Y0301744D02*
X0096073Y0301744D01*
X0096073Y0300745D02*
X0080200Y0300745D01*
X0080077Y0299747D02*
X0096073Y0299747D01*
X0096073Y0298748D02*
X0079954Y0298748D01*
X0079831Y0297750D02*
X0096073Y0297750D01*
X0096073Y0296751D02*
X0079709Y0296751D01*
X0079586Y0295753D02*
X0096073Y0295753D01*
X0096073Y0294754D02*
X0079463Y0294754D01*
X0079340Y0293756D02*
X0096073Y0293756D01*
X0096073Y0292757D02*
X0079218Y0292757D01*
X0079095Y0291759D02*
X0096073Y0291759D01*
X0096073Y0290760D02*
X0078972Y0290760D01*
X0078850Y0289762D02*
X0096073Y0289762D01*
X0096073Y0288763D02*
X0078727Y0288763D01*
X0078604Y0287765D02*
X0096073Y0287765D01*
X0096073Y0286766D02*
X0078481Y0286766D01*
X0078359Y0285768D02*
X0096073Y0285768D01*
X0096073Y0284769D02*
X0078236Y0284769D01*
X0078113Y0283771D02*
X0096073Y0283771D01*
X0096073Y0282772D02*
X0077990Y0282772D01*
X0077868Y0281774D02*
X0096073Y0281774D01*
X0096073Y0280775D02*
X0077745Y0280775D01*
X0077622Y0279777D02*
X0096073Y0279777D01*
X0096073Y0278778D02*
X0077500Y0278778D01*
X0077377Y0277780D02*
X0096073Y0277780D01*
X0096073Y0276781D02*
X0077254Y0276781D01*
X0077131Y0275782D02*
X0096073Y0275782D01*
X0096073Y0274784D02*
X0077009Y0274784D01*
X0076886Y0273785D02*
X0096073Y0273785D01*
X0096073Y0272787D02*
X0076763Y0272787D01*
X0076641Y0271788D02*
X0096073Y0271788D01*
X0096073Y0270790D02*
X0076518Y0270790D01*
X0076395Y0269791D02*
X0096073Y0269791D01*
X0096073Y0268793D02*
X0076272Y0268793D01*
X0076150Y0267794D02*
X0096073Y0267794D01*
X0096073Y0266796D02*
X0076027Y0266796D01*
X0075904Y0265797D02*
X0096073Y0265797D01*
X0096073Y0264799D02*
X0075781Y0264799D01*
X0075659Y0263800D02*
X0096073Y0263800D01*
X0096073Y0262802D02*
X0075536Y0262802D01*
X0075413Y0261803D02*
X0096073Y0261803D01*
X0096073Y0260805D02*
X0075291Y0260805D01*
X0075168Y0259806D02*
X0096073Y0259806D01*
X0096073Y0258808D02*
X0075045Y0258808D01*
X0074922Y0257809D02*
X0096073Y0257809D01*
X0096073Y0256811D02*
X0074800Y0256811D01*
X0074677Y0255812D02*
X0096073Y0255812D01*
X0096073Y0254814D02*
X0074554Y0254814D01*
X0074431Y0253815D02*
X0096073Y0253815D01*
X0096073Y0252817D02*
X0074309Y0252817D01*
X0074186Y0251818D02*
X0096073Y0251818D01*
X0096073Y0250820D02*
X0074063Y0250820D01*
X0073941Y0249821D02*
X0096073Y0249821D01*
X0096073Y0248823D02*
X0073818Y0248823D01*
X0073695Y0247824D02*
X0096073Y0247824D01*
X0096073Y0246826D02*
X0073572Y0246826D01*
X0073450Y0245827D02*
X0096073Y0245827D01*
X0096073Y0244829D02*
X0073327Y0244829D01*
X0073204Y0243830D02*
X0096073Y0243830D01*
X0096073Y0242832D02*
X0073082Y0242832D01*
X0072959Y0241833D02*
X0096073Y0241833D01*
X0096073Y0240835D02*
X0072836Y0240835D01*
X0072713Y0239836D02*
X0085889Y0239836D01*
X0084237Y0238838D02*
X0072591Y0238838D01*
X0072468Y0237839D02*
X0083238Y0237839D01*
X0082488Y0236841D02*
X0072345Y0236841D01*
X0072222Y0235842D02*
X0082074Y0235842D01*
X0081661Y0234844D02*
X0072100Y0234844D01*
X0071977Y0233845D02*
X0081522Y0233845D01*
X0081522Y0232847D02*
X0071854Y0232847D01*
X0071732Y0231848D02*
X0081522Y0231848D01*
X0081801Y0230849D02*
X0071609Y0230849D01*
X0071486Y0229851D02*
X0082215Y0229851D01*
X0082628Y0228852D02*
X0071273Y0228852D01*
X0071117Y0227854D02*
X0083577Y0227854D01*
X0084575Y0226855D02*
X0070962Y0226855D01*
X0070806Y0225857D02*
X0086706Y0225857D01*
X0091337Y0225857D02*
X0096073Y0225857D01*
X0096073Y0226855D02*
X0093468Y0226855D01*
X0094466Y0227854D02*
X0096073Y0227854D01*
X0096073Y0228852D02*
X0095415Y0228852D01*
X0095829Y0229851D02*
X0096073Y0229851D01*
X0096073Y0224858D02*
X0070650Y0224858D01*
X0070494Y0223860D02*
X0096073Y0223860D01*
X0096073Y0222861D02*
X0070338Y0222861D01*
X0070182Y0221863D02*
X0096073Y0221863D01*
X0096073Y0220864D02*
X0070026Y0220864D01*
X0069870Y0219866D02*
X0096073Y0219866D01*
X0095407Y0218867D02*
X0069715Y0218867D01*
X0069559Y0217869D02*
X0094408Y0217869D01*
X0093410Y0216870D02*
X0069403Y0216870D01*
X0069247Y0215872D02*
X0092411Y0215872D01*
X0091413Y0214873D02*
X0069051Y0214873D01*
X0068854Y0213875D02*
X0090414Y0213875D01*
X0089416Y0212876D02*
X0068658Y0212876D01*
X0068461Y0211878D02*
X0088417Y0211878D01*
X0087419Y0210879D02*
X0068265Y0210879D01*
X0068068Y0209881D02*
X0086420Y0209881D01*
X0085422Y0208882D02*
X0067872Y0208882D01*
X0067675Y0207884D02*
X0084423Y0207884D01*
X0083425Y0206885D02*
X0067479Y0206885D01*
X0067282Y0205887D02*
X0082426Y0205887D01*
X0081428Y0204888D02*
X0067086Y0204888D01*
X0066889Y0203890D02*
X0080429Y0203890D01*
X0079431Y0202891D02*
X0066693Y0202891D01*
X0066496Y0201893D02*
X0078432Y0201893D01*
X0077434Y0200894D02*
X0066300Y0200894D01*
X0066103Y0199896D02*
X0076435Y0199896D01*
X0075437Y0198897D02*
X0065907Y0198897D01*
X0065710Y0197899D02*
X0074447Y0197899D01*
X0074073Y0196900D02*
X0065514Y0196900D01*
X0065317Y0195902D02*
X0074073Y0195902D01*
X0074073Y0194903D02*
X0065121Y0194903D01*
X0064924Y0193905D02*
X0074073Y0193905D01*
X0074073Y0192906D02*
X0064728Y0192906D01*
X0064531Y0191908D02*
X0074073Y0191908D01*
X0074073Y0190909D02*
X0064335Y0190909D01*
X0064138Y0189911D02*
X0074073Y0189911D01*
X0074073Y0188912D02*
X0063941Y0188912D01*
X0063737Y0187913D02*
X0074073Y0187913D01*
X0074073Y0186915D02*
X0063499Y0186915D01*
X0063262Y0185916D02*
X0074073Y0185916D01*
X0074073Y0184918D02*
X0063024Y0184918D01*
X0062786Y0183919D02*
X0074073Y0183919D01*
X0074073Y0182921D02*
X0062548Y0182921D01*
X0062310Y0181922D02*
X0074073Y0181922D01*
X0074073Y0180924D02*
X0062073Y0180924D01*
X0061835Y0179925D02*
X0074073Y0179925D01*
X0074073Y0178927D02*
X0061597Y0178927D01*
X0061359Y0177928D02*
X0074073Y0177928D01*
X0074073Y0176930D02*
X0061121Y0176930D01*
X0060884Y0175931D02*
X0074073Y0175931D01*
X0074073Y0174933D02*
X0060646Y0174933D01*
X0060408Y0173934D02*
X0074073Y0173934D01*
X0074073Y0172936D02*
X0060170Y0172936D01*
X0059932Y0171937D02*
X0074073Y0171937D01*
X0074073Y0170939D02*
X0059695Y0170939D01*
X0059457Y0169940D02*
X0074073Y0169940D01*
X0074073Y0168942D02*
X0059219Y0168942D01*
X0058981Y0167943D02*
X0074073Y0167943D01*
X0074073Y0166945D02*
X0058743Y0166945D01*
X0058506Y0165946D02*
X0074073Y0165946D01*
X0074073Y0164948D02*
X0058268Y0164948D01*
X0058030Y0163949D02*
X0074073Y0163949D01*
X0074073Y0162951D02*
X0057792Y0162951D01*
X0057554Y0161952D02*
X0074073Y0161952D01*
X0074073Y0160954D02*
X0057317Y0160954D01*
X0057052Y0159955D02*
X0074073Y0159955D01*
X0074073Y0158957D02*
X0056772Y0158957D01*
X0056492Y0157958D02*
X0074073Y0157958D01*
X0074073Y0156960D02*
X0056213Y0156960D01*
X0055933Y0155961D02*
X0074073Y0155961D01*
X0074073Y0154963D02*
X0055653Y0154963D01*
X0055373Y0153964D02*
X0074073Y0153964D01*
X0074073Y0152966D02*
X0055093Y0152966D01*
X0054813Y0151967D02*
X0074073Y0151967D01*
X0074073Y0150969D02*
X0054533Y0150969D01*
X0054253Y0149970D02*
X0074073Y0149970D01*
X0074073Y0148972D02*
X0053974Y0148972D01*
X0053694Y0147973D02*
X0074073Y0147973D01*
X0074073Y0146975D02*
X0053414Y0146975D01*
X0053134Y0145976D02*
X0074073Y0145976D01*
X0074073Y0144978D02*
X0052854Y0144978D01*
X0052574Y0143979D02*
X0074073Y0143979D01*
X0074073Y0142980D02*
X0052294Y0142980D01*
X0052015Y0141982D02*
X0074073Y0141982D01*
X0074073Y0140983D02*
X0051735Y0140983D01*
X0051455Y0139985D02*
X0074073Y0139985D01*
X0074073Y0138986D02*
X0051175Y0138986D01*
X0050895Y0137988D02*
X0074073Y0137988D01*
X0074073Y0136989D02*
X0050615Y0136989D01*
X0050335Y0135991D02*
X0074073Y0135991D01*
X0074073Y0134992D02*
X0050056Y0134992D01*
X0049776Y0133994D02*
X0074073Y0133994D01*
X0074073Y0132995D02*
X0049481Y0132995D01*
X0049158Y0131997D02*
X0074073Y0131997D01*
X0074073Y0130998D02*
X0048835Y0130998D01*
X0048512Y0130000D02*
X0063008Y0130000D01*
X0062238Y0129681D02*
X0060128Y0127571D01*
X0058986Y0124815D01*
X0058986Y0121831D01*
X0060128Y0119074D01*
X0062238Y0116965D01*
X0064994Y0115823D01*
X0067978Y0115823D01*
X0070735Y0116965D01*
X0072844Y0119074D01*
X0073986Y0121831D01*
X0073986Y0124815D01*
X0072844Y0127571D01*
X0070735Y0129681D01*
X0067978Y0130823D01*
X0064994Y0130823D01*
X0062238Y0129681D01*
X0061558Y0129001D02*
X0048189Y0129001D01*
X0047866Y0128003D02*
X0060560Y0128003D01*
X0059893Y0127004D02*
X0047543Y0127004D01*
X0047220Y0126006D02*
X0059480Y0126006D01*
X0059066Y0125007D02*
X0046898Y0125007D01*
X0046575Y0124009D02*
X0058986Y0124009D01*
X0058986Y0123010D02*
X0046252Y0123010D01*
X0045929Y0122012D02*
X0058986Y0122012D01*
X0059325Y0121013D02*
X0045606Y0121013D01*
X0045283Y0120015D02*
X0059739Y0120015D01*
X0060186Y0119016D02*
X0044974Y0119016D01*
X0044667Y0118018D02*
X0061185Y0118018D01*
X0062183Y0117019D02*
X0044359Y0117019D01*
X0044052Y0116021D02*
X0064517Y0116021D01*
X0068456Y0116021D02*
X0079676Y0116021D01*
X0078678Y0117019D02*
X0070789Y0117019D01*
X0071788Y0118018D02*
X0077679Y0118018D01*
X0076681Y0119016D02*
X0072786Y0119016D01*
X0073234Y0120015D02*
X0075682Y0120015D01*
X0074684Y0121013D02*
X0073647Y0121013D01*
X0073986Y0122012D02*
X0074136Y0122012D01*
X0074073Y0123010D02*
X0073986Y0123010D01*
X0073986Y0124009D02*
X0074073Y0124009D01*
X0074073Y0125007D02*
X0073906Y0125007D01*
X0074073Y0126006D02*
X0073493Y0126006D01*
X0073079Y0127004D02*
X0074073Y0127004D01*
X0074073Y0128003D02*
X0072413Y0128003D01*
X0071414Y0129001D02*
X0074073Y0129001D01*
X0074073Y0130000D02*
X0069965Y0130000D01*
X0081085Y0124079D02*
X0098585Y0106579D01*
X0142085Y0106579D01*
X0151585Y0116079D01*
X0148304Y0117019D02*
X0101298Y0117019D01*
X0100475Y0116021D02*
X0147991Y0116021D01*
X0146993Y0115022D02*
X0100317Y0115022D01*
X0099825Y0114024D02*
X0145994Y0114024D01*
X0144996Y0113025D02*
X0128433Y0113025D01*
X0129155Y0112027D02*
X0143997Y0112027D01*
X0142998Y0111028D02*
X0129475Y0111028D01*
X0129475Y0110030D02*
X0142000Y0110030D01*
X0149512Y0103040D02*
X0220845Y0103040D01*
X0220694Y0103404D02*
X0221210Y0102158D01*
X0222164Y0101204D01*
X0223410Y0100688D01*
X0224759Y0100688D01*
X0226005Y0101204D01*
X0226959Y0102158D01*
X0227475Y0103404D01*
X0227475Y0104753D01*
X0226959Y0105999D01*
X0226585Y0106374D01*
X0226585Y0127043D01*
X0266230Y0166688D01*
X0266759Y0166688D01*
X0268005Y0167204D01*
X0268959Y0168158D01*
X0269475Y0169404D01*
X0269475Y0170753D01*
X0268959Y0171999D01*
X0268005Y0172953D01*
X0266759Y0173469D01*
X0265410Y0173469D01*
X0264164Y0172953D01*
X0263210Y0171999D01*
X0262694Y0170753D01*
X0262694Y0170224D01*
X0221965Y0129495D01*
X0221585Y0128576D01*
X0221585Y0106374D01*
X0221210Y0105999D01*
X0220694Y0104753D01*
X0220694Y0103404D01*
X0220694Y0104039D02*
X0150511Y0104039D01*
X0151509Y0105037D02*
X0220812Y0105037D01*
X0221247Y0106036D02*
X0152508Y0106036D01*
X0153506Y0107034D02*
X0221585Y0107034D01*
X0221585Y0108033D02*
X0174749Y0108033D01*
X0176132Y0109031D02*
X0221585Y0109031D01*
X0221585Y0110030D02*
X0176679Y0110030D01*
X0173485Y0111179D02*
X0171985Y0112679D01*
X0194957Y0112679D01*
X0218485Y0136206D01*
X0218485Y0262706D01*
X0234985Y0279206D01*
X0234985Y0308579D01*
X0236485Y0308579D01*
X0233185Y0308579D02*
X0231685Y0308579D01*
X0233185Y0308579D02*
X0233185Y0279952D01*
X0216685Y0263452D01*
X0216685Y0136952D01*
X0194212Y0114479D01*
X0170185Y0114479D01*
X0169124Y0115539D01*
X0171441Y0118018D02*
X0184854Y0118018D01*
X0184694Y0119016D02*
X0165489Y0119016D01*
X0166487Y0120015D02*
X0184802Y0120015D01*
X0185224Y0121013D02*
X0167486Y0121013D01*
X0166807Y0118018D02*
X0164490Y0118018D01*
X0163492Y0117019D02*
X0166067Y0117019D01*
X0165733Y0116021D02*
X0162493Y0116021D01*
X0161495Y0115022D02*
X0165733Y0115022D01*
X0166082Y0114024D02*
X0160496Y0114024D01*
X0159498Y0113025D02*
X0166843Y0113025D01*
X0169549Y0112027D02*
X0158499Y0112027D01*
X0157500Y0111028D02*
X0170094Y0111028D01*
X0170291Y0110030D02*
X0156502Y0110030D01*
X0155503Y0109031D02*
X0170837Y0109031D01*
X0172220Y0108033D02*
X0154505Y0108033D01*
X0148514Y0102042D02*
X0221327Y0102042D01*
X0222554Y0101043D02*
X0147515Y0101043D01*
X0156335Y0094829D02*
X0168085Y0106579D01*
X0183835Y0106579D01*
X0183799Y0106543D02*
X0193264Y0097079D01*
X0223085Y0097079D01*
X0225616Y0101043D02*
X0248254Y0101043D01*
X0247815Y0100045D02*
X0039134Y0100045D01*
X0039441Y0101043D02*
X0094654Y0101043D01*
X0093655Y0102042D02*
X0039749Y0102042D01*
X0040056Y0103040D02*
X0092657Y0103040D01*
X0091658Y0104039D02*
X0040363Y0104039D01*
X0040671Y0105037D02*
X0090660Y0105037D01*
X0089661Y0106036D02*
X0040978Y0106036D01*
X0041286Y0107034D02*
X0088663Y0107034D01*
X0087664Y0108033D02*
X0041593Y0108033D01*
X0041900Y0109031D02*
X0086666Y0109031D01*
X0085667Y0110030D02*
X0042208Y0110030D01*
X0042515Y0111028D02*
X0084669Y0111028D01*
X0083670Y0112027D02*
X0042823Y0112027D01*
X0043130Y0113025D02*
X0082672Y0113025D01*
X0081673Y0114024D02*
X0043437Y0114024D01*
X0043745Y0115022D02*
X0080675Y0115022D01*
X0081085Y0124079D02*
X0081085Y0195079D01*
X0102585Y0216579D01*
X0102585Y0310079D01*
X0120085Y0327579D01*
X0120085Y0425079D01*
X0132585Y0437579D01*
X0148085Y0437579D01*
X0158585Y0427579D01*
X0169085Y0427579D01*
X0166790Y0425079D02*
X0167164Y0424704D01*
X0168410Y0424188D01*
X0169759Y0424188D01*
X0170710Y0424582D01*
X0170710Y0423576D01*
X0169759Y0423969D01*
X0168410Y0423969D01*
X0167164Y0423453D01*
X0166210Y0422499D01*
X0165694Y0421253D01*
X0165694Y0419904D01*
X0166210Y0418658D01*
X0166585Y0418284D01*
X0166585Y0403614D01*
X0151169Y0388198D01*
X0151169Y0388198D01*
X0150465Y0387495D01*
X0150085Y0386576D01*
X0150085Y0366874D01*
X0149710Y0366499D01*
X0149194Y0365253D01*
X0149194Y0363904D01*
X0149710Y0362658D01*
X0150085Y0362284D01*
X0150085Y0287114D01*
X0133965Y0270995D01*
X0133585Y0270076D01*
X0133585Y0250874D01*
X0133210Y0250499D01*
X0132694Y0249253D01*
X0132694Y0247904D01*
X0133210Y0246658D01*
X0133585Y0246284D01*
X0133585Y0174614D01*
X0101940Y0142969D01*
X0101410Y0142969D01*
X0100164Y0142453D01*
X0099210Y0141499D01*
X0098694Y0140253D01*
X0098694Y0139724D01*
X0090669Y0131698D01*
X0089965Y0130995D01*
X0089585Y0130076D01*
X0089585Y0119114D01*
X0083585Y0125114D01*
X0083585Y0194043D01*
X0104704Y0215163D01*
X0105085Y0216081D01*
X0105085Y0309043D01*
X0122204Y0326163D01*
X0122585Y0327081D01*
X0122585Y0404602D01*
X0124526Y0401240D01*
X0128290Y0397476D01*
X0132899Y0394815D01*
X0138041Y0393437D01*
X0143364Y0393437D01*
X0148506Y0394815D01*
X0153116Y0397476D01*
X0156880Y0401240D01*
X0159542Y0405850D01*
X0160919Y0410992D01*
X0160919Y0416315D01*
X0159542Y0421457D01*
X0157259Y0425411D01*
X0157656Y0425258D01*
X0158087Y0425079D01*
X0158119Y0425079D01*
X0158148Y0425067D01*
X0158615Y0425079D01*
X0166790Y0425079D01*
X0167511Y0424561D02*
X0157750Y0424561D01*
X0158326Y0423562D02*
X0167427Y0423562D01*
X0166275Y0422564D02*
X0158903Y0422564D01*
X0159479Y0421565D02*
X0165823Y0421565D01*
X0165694Y0420567D02*
X0159780Y0420567D01*
X0160048Y0419568D02*
X0165833Y0419568D01*
X0166299Y0418570D02*
X0160315Y0418570D01*
X0160583Y0417571D02*
X0166585Y0417571D01*
X0166585Y0416573D02*
X0160850Y0416573D01*
X0160919Y0415574D02*
X0166585Y0415574D01*
X0166585Y0414576D02*
X0160919Y0414576D01*
X0160919Y0413577D02*
X0166585Y0413577D01*
X0166585Y0412579D02*
X0160919Y0412579D01*
X0160919Y0411580D02*
X0166585Y0411580D01*
X0166585Y0410582D02*
X0160809Y0410582D01*
X0160542Y0409583D02*
X0166585Y0409583D01*
X0166585Y0408584D02*
X0160274Y0408584D01*
X0160007Y0407586D02*
X0166585Y0407586D01*
X0166585Y0406587D02*
X0159739Y0406587D01*
X0159391Y0405589D02*
X0166585Y0405589D01*
X0166585Y0404590D02*
X0158814Y0404590D01*
X0158238Y0403592D02*
X0166562Y0403592D01*
X0165564Y0402593D02*
X0157661Y0402593D01*
X0157085Y0401595D02*
X0164565Y0401595D01*
X0163567Y0400596D02*
X0156236Y0400596D01*
X0155238Y0399598D02*
X0162568Y0399598D01*
X0161570Y0398599D02*
X0154239Y0398599D01*
X0153241Y0397601D02*
X0160571Y0397601D01*
X0159573Y0396602D02*
X0151602Y0396602D01*
X0149873Y0395604D02*
X0158574Y0395604D01*
X0157576Y0394605D02*
X0147725Y0394605D01*
X0143998Y0393607D02*
X0156577Y0393607D01*
X0155579Y0392608D02*
X0122585Y0392608D01*
X0122585Y0391610D02*
X0154580Y0391610D01*
X0153582Y0390611D02*
X0122585Y0390611D01*
X0122585Y0389613D02*
X0152583Y0389613D01*
X0151585Y0388614D02*
X0122585Y0388614D01*
X0122585Y0387616D02*
X0150586Y0387616D01*
X0150102Y0386617D02*
X0122585Y0386617D01*
X0122585Y0385619D02*
X0150085Y0385619D01*
X0150085Y0384620D02*
X0122585Y0384620D01*
X0122585Y0383622D02*
X0150085Y0383622D01*
X0150085Y0382623D02*
X0122585Y0382623D01*
X0122585Y0381625D02*
X0150085Y0381625D01*
X0150085Y0380626D02*
X0122585Y0380626D01*
X0122585Y0379628D02*
X0150085Y0379628D01*
X0150085Y0378629D02*
X0122585Y0378629D01*
X0122585Y0377631D02*
X0150085Y0377631D01*
X0150085Y0376632D02*
X0122585Y0376632D01*
X0122585Y0375634D02*
X0150085Y0375634D01*
X0150085Y0374635D02*
X0122585Y0374635D01*
X0122585Y0373637D02*
X0150085Y0373637D01*
X0150085Y0372638D02*
X0122585Y0372638D01*
X0122585Y0371640D02*
X0150085Y0371640D01*
X0150085Y0370641D02*
X0122585Y0370641D01*
X0122585Y0369643D02*
X0150085Y0369643D01*
X0150085Y0368644D02*
X0122585Y0368644D01*
X0122585Y0367646D02*
X0150085Y0367646D01*
X0149858Y0366647D02*
X0122585Y0366647D01*
X0122585Y0365649D02*
X0149358Y0365649D01*
X0149194Y0364650D02*
X0122585Y0364650D01*
X0122585Y0363651D02*
X0149299Y0363651D01*
X0149715Y0362653D02*
X0122585Y0362653D01*
X0122585Y0361654D02*
X0150085Y0361654D01*
X0150085Y0360656D02*
X0122585Y0360656D01*
X0122585Y0359657D02*
X0150085Y0359657D01*
X0150085Y0358659D02*
X0122585Y0358659D01*
X0122585Y0357660D02*
X0150085Y0357660D01*
X0150085Y0356662D02*
X0122585Y0356662D01*
X0122585Y0355663D02*
X0150085Y0355663D01*
X0150085Y0354665D02*
X0122585Y0354665D01*
X0122585Y0353666D02*
X0150085Y0353666D01*
X0150085Y0352668D02*
X0122585Y0352668D01*
X0122585Y0351669D02*
X0150085Y0351669D01*
X0150085Y0350671D02*
X0122585Y0350671D01*
X0122585Y0349672D02*
X0150085Y0349672D01*
X0150085Y0348674D02*
X0122585Y0348674D01*
X0122585Y0347675D02*
X0150085Y0347675D01*
X0150085Y0346677D02*
X0122585Y0346677D01*
X0122585Y0345678D02*
X0150085Y0345678D01*
X0150085Y0344680D02*
X0122585Y0344680D01*
X0122585Y0343681D02*
X0150085Y0343681D01*
X0150085Y0342683D02*
X0122585Y0342683D01*
X0122585Y0341684D02*
X0150085Y0341684D01*
X0150085Y0340686D02*
X0122585Y0340686D01*
X0122585Y0339687D02*
X0150085Y0339687D01*
X0150085Y0338689D02*
X0122585Y0338689D01*
X0122585Y0337690D02*
X0150085Y0337690D01*
X0150085Y0336692D02*
X0122585Y0336692D01*
X0122585Y0335693D02*
X0150085Y0335693D01*
X0150085Y0334695D02*
X0122585Y0334695D01*
X0122585Y0333696D02*
X0150085Y0333696D01*
X0150085Y0332698D02*
X0122585Y0332698D01*
X0122585Y0331699D02*
X0150085Y0331699D01*
X0150085Y0330701D02*
X0122585Y0330701D01*
X0122585Y0329702D02*
X0150085Y0329702D01*
X0150085Y0328704D02*
X0122585Y0328704D01*
X0122585Y0327705D02*
X0150085Y0327705D01*
X0150085Y0326707D02*
X0122429Y0326707D01*
X0121749Y0325708D02*
X0150085Y0325708D01*
X0150085Y0324710D02*
X0120751Y0324710D01*
X0119752Y0323711D02*
X0150085Y0323711D01*
X0150085Y0322713D02*
X0118754Y0322713D01*
X0117755Y0321714D02*
X0150085Y0321714D01*
X0150085Y0320716D02*
X0116757Y0320716D01*
X0115758Y0319717D02*
X0150085Y0319717D01*
X0150085Y0318718D02*
X0133494Y0318718D01*
X0135653Y0318140D02*
X0130511Y0319518D01*
X0125188Y0319518D01*
X0120046Y0318140D01*
X0115436Y0315478D01*
X0111672Y0311714D01*
X0109011Y0307104D01*
X0107633Y0301963D01*
X0107633Y0296640D01*
X0109011Y0291498D01*
X0111672Y0286888D01*
X0115436Y0283124D01*
X0120046Y0280462D01*
X0125188Y0279085D01*
X0130511Y0279085D01*
X0135653Y0280462D01*
X0140263Y0283124D01*
X0144027Y0286888D01*
X0146688Y0291498D01*
X0148066Y0296640D01*
X0148066Y0301963D01*
X0146688Y0307104D01*
X0144027Y0311714D01*
X0140263Y0315478D01*
X0135653Y0318140D01*
X0136380Y0317720D02*
X0150085Y0317720D01*
X0150085Y0316721D02*
X0138110Y0316721D01*
X0139839Y0315723D02*
X0150085Y0315723D01*
X0150085Y0314724D02*
X0141017Y0314724D01*
X0142015Y0313726D02*
X0150085Y0313726D01*
X0150085Y0312727D02*
X0143014Y0312727D01*
X0144012Y0311729D02*
X0150085Y0311729D01*
X0150085Y0310730D02*
X0144595Y0310730D01*
X0145171Y0309732D02*
X0150085Y0309732D01*
X0150085Y0308733D02*
X0145748Y0308733D01*
X0146324Y0307735D02*
X0150085Y0307735D01*
X0150085Y0306736D02*
X0146787Y0306736D01*
X0147054Y0305738D02*
X0150085Y0305738D01*
X0150085Y0304739D02*
X0147322Y0304739D01*
X0147590Y0303741D02*
X0150085Y0303741D01*
X0150085Y0302742D02*
X0147857Y0302742D01*
X0148066Y0301744D02*
X0150085Y0301744D01*
X0150085Y0300745D02*
X0148066Y0300745D01*
X0148066Y0299747D02*
X0150085Y0299747D01*
X0150085Y0298748D02*
X0148066Y0298748D01*
X0148066Y0297750D02*
X0150085Y0297750D01*
X0150085Y0296751D02*
X0148066Y0296751D01*
X0147828Y0295753D02*
X0150085Y0295753D01*
X0150085Y0294754D02*
X0147561Y0294754D01*
X0147293Y0293756D02*
X0150085Y0293756D01*
X0150085Y0292757D02*
X0147026Y0292757D01*
X0146758Y0291759D02*
X0150085Y0291759D01*
X0150085Y0290760D02*
X0146262Y0290760D01*
X0145686Y0289762D02*
X0150085Y0289762D01*
X0150085Y0288763D02*
X0145109Y0288763D01*
X0144533Y0287765D02*
X0150085Y0287765D01*
X0149736Y0286766D02*
X0143905Y0286766D01*
X0142906Y0285768D02*
X0148738Y0285768D01*
X0147739Y0284769D02*
X0141908Y0284769D01*
X0140909Y0283771D02*
X0146741Y0283771D01*
X0145742Y0282772D02*
X0139653Y0282772D01*
X0137924Y0281774D02*
X0144744Y0281774D01*
X0143745Y0280775D02*
X0136194Y0280775D01*
X0133093Y0279777D02*
X0142747Y0279777D01*
X0141748Y0278778D02*
X0105085Y0278778D01*
X0105085Y0277780D02*
X0140750Y0277780D01*
X0139751Y0276781D02*
X0105085Y0276781D01*
X0105085Y0275782D02*
X0138753Y0275782D01*
X0137754Y0274784D02*
X0105085Y0274784D01*
X0105085Y0273785D02*
X0136756Y0273785D01*
X0135757Y0272787D02*
X0105085Y0272787D01*
X0105085Y0271788D02*
X0134759Y0271788D01*
X0133880Y0270790D02*
X0105085Y0270790D01*
X0105085Y0269791D02*
X0133585Y0269791D01*
X0133585Y0268793D02*
X0105085Y0268793D01*
X0105085Y0267794D02*
X0133585Y0267794D01*
X0133585Y0266796D02*
X0105085Y0266796D01*
X0105085Y0265797D02*
X0133585Y0265797D01*
X0133585Y0264799D02*
X0105085Y0264799D01*
X0105085Y0263800D02*
X0133585Y0263800D01*
X0133585Y0262802D02*
X0105085Y0262802D01*
X0105085Y0261803D02*
X0133585Y0261803D01*
X0133585Y0260805D02*
X0105085Y0260805D01*
X0105085Y0259806D02*
X0133585Y0259806D01*
X0133585Y0258808D02*
X0105085Y0258808D01*
X0105085Y0257809D02*
X0133585Y0257809D01*
X0133585Y0256811D02*
X0105085Y0256811D01*
X0105085Y0255812D02*
X0133585Y0255812D01*
X0133585Y0254814D02*
X0105085Y0254814D01*
X0105085Y0253815D02*
X0133585Y0253815D01*
X0133585Y0252817D02*
X0105085Y0252817D01*
X0105085Y0251818D02*
X0133585Y0251818D01*
X0133531Y0250820D02*
X0105085Y0250820D01*
X0105085Y0249821D02*
X0132929Y0249821D01*
X0132694Y0248823D02*
X0105085Y0248823D01*
X0105085Y0247824D02*
X0132727Y0247824D01*
X0133141Y0246826D02*
X0105085Y0246826D01*
X0105085Y0245827D02*
X0133585Y0245827D01*
X0133585Y0244829D02*
X0105085Y0244829D01*
X0105085Y0243830D02*
X0133585Y0243830D01*
X0133585Y0242832D02*
X0105085Y0242832D01*
X0105085Y0241833D02*
X0133585Y0241833D01*
X0133585Y0240835D02*
X0105085Y0240835D01*
X0105085Y0239836D02*
X0133585Y0239836D01*
X0133585Y0238838D02*
X0105085Y0238838D01*
X0105085Y0237839D02*
X0133585Y0237839D01*
X0133585Y0236841D02*
X0105085Y0236841D01*
X0105085Y0235842D02*
X0133585Y0235842D01*
X0133585Y0234844D02*
X0105085Y0234844D01*
X0105085Y0233845D02*
X0133585Y0233845D01*
X0133585Y0232847D02*
X0105085Y0232847D01*
X0105085Y0231848D02*
X0133585Y0231848D01*
X0133585Y0230849D02*
X0105085Y0230849D01*
X0105085Y0229851D02*
X0133585Y0229851D01*
X0133585Y0228852D02*
X0105085Y0228852D01*
X0105085Y0227854D02*
X0133585Y0227854D01*
X0133585Y0226855D02*
X0105085Y0226855D01*
X0105085Y0225857D02*
X0133585Y0225857D01*
X0133585Y0224858D02*
X0105085Y0224858D01*
X0105085Y0223860D02*
X0133585Y0223860D01*
X0133585Y0222861D02*
X0105085Y0222861D01*
X0105085Y0221863D02*
X0133585Y0221863D01*
X0133585Y0220864D02*
X0105085Y0220864D01*
X0105085Y0219866D02*
X0133585Y0219866D01*
X0133585Y0218867D02*
X0105085Y0218867D01*
X0105085Y0217869D02*
X0133585Y0217869D01*
X0133585Y0216870D02*
X0105085Y0216870D01*
X0104998Y0215872D02*
X0133585Y0215872D01*
X0133585Y0214873D02*
X0104415Y0214873D01*
X0103416Y0213875D02*
X0133585Y0213875D01*
X0133585Y0212876D02*
X0102418Y0212876D01*
X0101419Y0211878D02*
X0133585Y0211878D01*
X0133585Y0210879D02*
X0100421Y0210879D01*
X0099422Y0209881D02*
X0133585Y0209881D01*
X0133585Y0208882D02*
X0098424Y0208882D01*
X0097425Y0207884D02*
X0133585Y0207884D01*
X0133585Y0206885D02*
X0112599Y0206885D01*
X0112274Y0206972D02*
X0106951Y0206972D01*
X0101809Y0205595D01*
X0097199Y0202933D01*
X0093435Y0199169D01*
X0090773Y0194559D01*
X0089396Y0189417D01*
X0089396Y0184094D01*
X0090773Y0178953D01*
X0093435Y0174343D01*
X0097199Y0170579D01*
X0101809Y0167917D01*
X0106951Y0166539D01*
X0112274Y0166539D01*
X0117415Y0167917D01*
X0122025Y0170579D01*
X0125789Y0174343D01*
X0128451Y0178953D01*
X0129829Y0184094D01*
X0129829Y0189417D01*
X0128451Y0194559D01*
X0125789Y0199169D01*
X0122025Y0202933D01*
X0117415Y0205595D01*
X0112274Y0206972D01*
X0116326Y0205887D02*
X0133585Y0205887D01*
X0133585Y0204888D02*
X0118639Y0204888D01*
X0120369Y0203890D02*
X0133585Y0203890D01*
X0133585Y0202891D02*
X0122067Y0202891D01*
X0123066Y0201893D02*
X0133585Y0201893D01*
X0133585Y0200894D02*
X0124064Y0200894D01*
X0125063Y0199896D02*
X0133585Y0199896D01*
X0133585Y0198897D02*
X0125947Y0198897D01*
X0126523Y0197899D02*
X0133585Y0197899D01*
X0133585Y0196900D02*
X0127099Y0196900D01*
X0127676Y0195902D02*
X0133585Y0195902D01*
X0133585Y0194903D02*
X0128252Y0194903D01*
X0128626Y0193905D02*
X0133585Y0193905D01*
X0133585Y0192906D02*
X0128894Y0192906D01*
X0129162Y0191908D02*
X0133585Y0191908D01*
X0133585Y0190909D02*
X0129429Y0190909D01*
X0129697Y0189911D02*
X0133585Y0189911D01*
X0133585Y0188912D02*
X0129829Y0188912D01*
X0129829Y0187913D02*
X0133585Y0187913D01*
X0133585Y0186915D02*
X0129829Y0186915D01*
X0129829Y0185916D02*
X0133585Y0185916D01*
X0133585Y0184918D02*
X0129829Y0184918D01*
X0129782Y0183919D02*
X0133585Y0183919D01*
X0133585Y0182921D02*
X0129514Y0182921D01*
X0129247Y0181922D02*
X0133585Y0181922D01*
X0133585Y0180924D02*
X0128979Y0180924D01*
X0128712Y0179925D02*
X0133585Y0179925D01*
X0133585Y0178927D02*
X0128436Y0178927D01*
X0127860Y0177928D02*
X0133585Y0177928D01*
X0133585Y0176930D02*
X0127283Y0176930D01*
X0126707Y0175931D02*
X0133585Y0175931D01*
X0133585Y0174933D02*
X0126130Y0174933D01*
X0125381Y0173934D02*
X0132905Y0173934D01*
X0131906Y0172936D02*
X0124383Y0172936D01*
X0123384Y0171937D02*
X0130908Y0171937D01*
X0129909Y0170939D02*
X0122386Y0170939D01*
X0120920Y0169940D02*
X0128911Y0169940D01*
X0127912Y0168942D02*
X0119190Y0168942D01*
X0117461Y0167943D02*
X0126914Y0167943D01*
X0125915Y0166945D02*
X0113787Y0166945D01*
X0116929Y0157958D02*
X0083585Y0157958D01*
X0083585Y0156960D02*
X0115930Y0156960D01*
X0114932Y0155961D02*
X0083585Y0155961D01*
X0083585Y0154963D02*
X0113933Y0154963D01*
X0112934Y0153964D02*
X0083585Y0153964D01*
X0083585Y0152966D02*
X0111936Y0152966D01*
X0110937Y0151967D02*
X0083585Y0151967D01*
X0083585Y0150969D02*
X0109939Y0150969D01*
X0108940Y0149970D02*
X0083585Y0149970D01*
X0083585Y0148972D02*
X0107942Y0148972D01*
X0106943Y0147973D02*
X0083585Y0147973D01*
X0083585Y0146975D02*
X0105945Y0146975D01*
X0104946Y0145976D02*
X0083585Y0145976D01*
X0083585Y0144978D02*
X0103948Y0144978D01*
X0102949Y0143979D02*
X0083585Y0143979D01*
X0083585Y0142980D02*
X0101951Y0142980D01*
X0099693Y0141982D02*
X0083585Y0141982D01*
X0083585Y0140983D02*
X0098997Y0140983D01*
X0098694Y0139985D02*
X0083585Y0139985D01*
X0083585Y0138986D02*
X0097957Y0138986D01*
X0096958Y0137988D02*
X0083585Y0137988D01*
X0083585Y0136989D02*
X0095960Y0136989D01*
X0094961Y0135991D02*
X0083585Y0135991D01*
X0083585Y0134992D02*
X0093963Y0134992D01*
X0092964Y0133994D02*
X0083585Y0133994D01*
X0083585Y0132995D02*
X0091966Y0132995D01*
X0090967Y0131997D02*
X0083585Y0131997D01*
X0083585Y0130998D02*
X0089969Y0130998D01*
X0089585Y0130000D02*
X0083585Y0130000D01*
X0083585Y0129001D02*
X0089585Y0129001D01*
X0089585Y0128003D02*
X0083585Y0128003D01*
X0083585Y0127004D02*
X0089585Y0127004D01*
X0089585Y0126006D02*
X0083585Y0126006D01*
X0083692Y0125007D02*
X0089585Y0125007D01*
X0089585Y0124009D02*
X0084690Y0124009D01*
X0085689Y0123010D02*
X0089585Y0123010D01*
X0089585Y0122012D02*
X0086687Y0122012D01*
X0087686Y0121013D02*
X0089585Y0121013D01*
X0089585Y0120015D02*
X0088684Y0120015D01*
X0092085Y0116079D02*
X0097585Y0110579D01*
X0126085Y0110579D01*
X0123335Y0094829D02*
X0138585Y0094829D01*
X0138585Y0088079D01*
X0138585Y0094829D02*
X0156335Y0094829D01*
X0154557Y0118018D02*
X0154441Y0118018D01*
X0153353Y0119016D02*
X0155556Y0119016D01*
X0156554Y0120015D02*
X0104294Y0120015D01*
X0105292Y0121013D02*
X0157553Y0121013D01*
X0158551Y0122012D02*
X0106291Y0122012D01*
X0107289Y0123010D02*
X0159550Y0123010D01*
X0160548Y0124009D02*
X0108288Y0124009D01*
X0109286Y0125007D02*
X0161547Y0125007D01*
X0162545Y0126006D02*
X0110285Y0126006D01*
X0111283Y0127004D02*
X0163544Y0127004D01*
X0164542Y0128003D02*
X0112282Y0128003D01*
X0113280Y0129001D02*
X0164194Y0129001D01*
X0164194Y0130000D02*
X0114279Y0130000D01*
X0115277Y0130998D02*
X0164503Y0130998D01*
X0165208Y0131997D02*
X0116276Y0131997D01*
X0117274Y0132995D02*
X0170002Y0132995D01*
X0170705Y0133994D02*
X0118273Y0133994D01*
X0119271Y0134992D02*
X0173029Y0134992D01*
X0174640Y0134992D02*
X0185207Y0134992D01*
X0184794Y0133994D02*
X0175464Y0133994D01*
X0176168Y0132995D02*
X0184694Y0132995D01*
X0184863Y0131997D02*
X0176475Y0131997D01*
X0176475Y0130998D02*
X0185370Y0130998D01*
X0186658Y0130000D02*
X0176101Y0130000D01*
X0175589Y0129001D02*
X0193972Y0129001D01*
X0192973Y0128003D02*
X0175589Y0128003D01*
X0175589Y0127004D02*
X0191975Y0127004D01*
X0190976Y0126006D02*
X0175558Y0126006D01*
X0175054Y0125007D02*
X0189978Y0125007D01*
X0188979Y0124009D02*
X0174056Y0124009D01*
X0173057Y0123010D02*
X0187981Y0123010D01*
X0186306Y0122012D02*
X0171731Y0122012D01*
X0172181Y0117019D02*
X0185349Y0117019D01*
X0188085Y0119079D02*
X0188085Y0119579D01*
X0210585Y0142079D01*
X0210585Y0262079D01*
X0228085Y0279579D01*
X0228085Y0318079D01*
X0224977Y0316721D02*
X0224192Y0316721D01*
X0224475Y0317720D02*
X0224694Y0317720D01*
X0224694Y0318718D02*
X0224475Y0318718D01*
X0224076Y0319717D02*
X0225093Y0319717D01*
X0225585Y0315723D02*
X0223585Y0315723D01*
X0223585Y0314724D02*
X0225585Y0314724D01*
X0225585Y0313726D02*
X0223585Y0313726D01*
X0223585Y0312727D02*
X0225585Y0312727D01*
X0225585Y0311729D02*
X0223585Y0311729D01*
X0223585Y0310730D02*
X0225585Y0310730D01*
X0225585Y0309732D02*
X0223585Y0309732D01*
X0223585Y0308733D02*
X0225585Y0308733D01*
X0225585Y0307735D02*
X0223585Y0307735D01*
X0223585Y0306736D02*
X0225585Y0306736D01*
X0225585Y0305738D02*
X0223585Y0305738D01*
X0223585Y0304739D02*
X0225585Y0304739D01*
X0225585Y0303741D02*
X0223585Y0303741D01*
X0223585Y0302742D02*
X0225585Y0302742D01*
X0225585Y0301744D02*
X0223585Y0301744D01*
X0223585Y0300745D02*
X0225585Y0300745D01*
X0225585Y0299747D02*
X0223585Y0299747D01*
X0223585Y0298748D02*
X0225585Y0298748D01*
X0225585Y0297750D02*
X0223585Y0297750D01*
X0223585Y0296751D02*
X0225585Y0296751D01*
X0225585Y0295753D02*
X0223585Y0295753D01*
X0223585Y0294754D02*
X0225585Y0294754D01*
X0225585Y0293756D02*
X0223585Y0293756D01*
X0223585Y0292757D02*
X0225585Y0292757D01*
X0225585Y0291759D02*
X0223585Y0291759D01*
X0223585Y0290760D02*
X0225585Y0290760D01*
X0225585Y0289762D02*
X0223585Y0289762D01*
X0223585Y0288763D02*
X0225585Y0288763D01*
X0225585Y0287765D02*
X0223585Y0287765D01*
X0223585Y0286766D02*
X0225585Y0286766D01*
X0225585Y0285768D02*
X0223585Y0285768D01*
X0223585Y0284769D02*
X0225585Y0284769D01*
X0225585Y0283771D02*
X0223585Y0283771D01*
X0223249Y0282772D02*
X0225585Y0282772D01*
X0225585Y0281774D02*
X0222315Y0281774D01*
X0221316Y0280775D02*
X0225585Y0280775D01*
X0224747Y0279777D02*
X0220318Y0279777D01*
X0219319Y0278778D02*
X0223748Y0278778D01*
X0222750Y0277780D02*
X0218321Y0277780D01*
X0217322Y0276781D02*
X0221751Y0276781D01*
X0220753Y0275782D02*
X0216324Y0275782D01*
X0215325Y0274784D02*
X0219754Y0274784D01*
X0218756Y0273785D02*
X0214327Y0273785D01*
X0213328Y0272787D02*
X0217757Y0272787D01*
X0216759Y0271788D02*
X0212330Y0271788D01*
X0211331Y0270790D02*
X0215760Y0270790D01*
X0214762Y0269791D02*
X0210333Y0269791D01*
X0209334Y0268793D02*
X0213763Y0268793D01*
X0212765Y0267794D02*
X0208336Y0267794D01*
X0207337Y0266796D02*
X0211766Y0266796D01*
X0210768Y0265797D02*
X0206339Y0265797D01*
X0205585Y0264799D02*
X0209769Y0264799D01*
X0208771Y0263800D02*
X0205585Y0263800D01*
X0205585Y0262802D02*
X0208178Y0262802D01*
X0208085Y0261803D02*
X0205585Y0261803D01*
X0205585Y0260805D02*
X0208085Y0260805D01*
X0208085Y0259806D02*
X0205585Y0259806D01*
X0205585Y0258808D02*
X0208085Y0258808D01*
X0208085Y0257809D02*
X0205585Y0257809D01*
X0205585Y0256811D02*
X0208085Y0256811D01*
X0208085Y0255812D02*
X0205585Y0255812D01*
X0205585Y0254814D02*
X0208085Y0254814D01*
X0208085Y0253815D02*
X0205585Y0253815D01*
X0205585Y0252817D02*
X0208085Y0252817D01*
X0208085Y0251818D02*
X0205585Y0251818D01*
X0205585Y0250820D02*
X0208085Y0250820D01*
X0208085Y0249821D02*
X0205585Y0249821D01*
X0205585Y0248823D02*
X0208085Y0248823D01*
X0208085Y0247824D02*
X0205585Y0247824D01*
X0205585Y0246826D02*
X0208085Y0246826D01*
X0208085Y0245827D02*
X0205585Y0245827D01*
X0205585Y0244829D02*
X0208085Y0244829D01*
X0208085Y0243830D02*
X0205585Y0243830D01*
X0205585Y0242832D02*
X0208085Y0242832D01*
X0208085Y0241833D02*
X0205585Y0241833D01*
X0205585Y0240835D02*
X0208085Y0240835D01*
X0208085Y0239836D02*
X0205585Y0239836D01*
X0205585Y0238838D02*
X0208085Y0238838D01*
X0208085Y0237839D02*
X0205585Y0237839D01*
X0205585Y0236841D02*
X0208085Y0236841D01*
X0208085Y0235842D02*
X0205585Y0235842D01*
X0205585Y0234844D02*
X0208085Y0234844D01*
X0208085Y0233845D02*
X0205585Y0233845D01*
X0205585Y0232847D02*
X0208085Y0232847D01*
X0208085Y0231848D02*
X0205585Y0231848D01*
X0205585Y0230849D02*
X0208085Y0230849D01*
X0208085Y0229851D02*
X0205585Y0229851D01*
X0205585Y0228852D02*
X0208085Y0228852D01*
X0208085Y0227854D02*
X0205585Y0227854D01*
X0205585Y0226855D02*
X0208085Y0226855D01*
X0208085Y0225857D02*
X0205585Y0225857D01*
X0205585Y0224858D02*
X0208085Y0224858D01*
X0208085Y0223860D02*
X0205585Y0223860D01*
X0205585Y0222861D02*
X0208085Y0222861D01*
X0208085Y0221863D02*
X0205585Y0221863D01*
X0205585Y0220864D02*
X0208085Y0220864D01*
X0208085Y0219866D02*
X0205585Y0219866D01*
X0205585Y0218867D02*
X0208085Y0218867D01*
X0208085Y0217869D02*
X0205585Y0217869D01*
X0205585Y0216870D02*
X0208085Y0216870D01*
X0208085Y0215872D02*
X0205585Y0215872D01*
X0205585Y0214873D02*
X0208085Y0214873D01*
X0208085Y0213875D02*
X0205585Y0213875D01*
X0205585Y0212876D02*
X0208085Y0212876D01*
X0208085Y0211878D02*
X0205585Y0211878D01*
X0205585Y0210879D02*
X0208085Y0210879D01*
X0208085Y0209881D02*
X0205585Y0209881D01*
X0205585Y0208882D02*
X0208085Y0208882D01*
X0208085Y0207884D02*
X0205585Y0207884D01*
X0205585Y0206885D02*
X0208085Y0206885D01*
X0208085Y0205887D02*
X0205585Y0205887D01*
X0205585Y0204888D02*
X0208085Y0204888D01*
X0208085Y0203890D02*
X0205585Y0203890D01*
X0205585Y0202891D02*
X0208085Y0202891D01*
X0208085Y0201893D02*
X0205585Y0201893D01*
X0205585Y0200894D02*
X0208085Y0200894D01*
X0208085Y0199896D02*
X0205585Y0199896D01*
X0205585Y0198897D02*
X0208085Y0198897D01*
X0208085Y0197899D02*
X0205585Y0197899D01*
X0205585Y0196900D02*
X0208085Y0196900D01*
X0208085Y0195902D02*
X0205585Y0195902D01*
X0205585Y0194903D02*
X0208085Y0194903D01*
X0208085Y0193905D02*
X0205585Y0193905D01*
X0205585Y0192906D02*
X0208085Y0192906D01*
X0208085Y0191908D02*
X0205585Y0191908D01*
X0205585Y0190909D02*
X0208085Y0190909D01*
X0208085Y0189911D02*
X0205585Y0189911D01*
X0205585Y0188912D02*
X0208085Y0188912D01*
X0208085Y0187913D02*
X0205585Y0187913D01*
X0205585Y0186915D02*
X0208085Y0186915D01*
X0208085Y0185916D02*
X0205585Y0185916D01*
X0205585Y0184918D02*
X0208085Y0184918D01*
X0208085Y0183919D02*
X0205585Y0183919D01*
X0205585Y0182921D02*
X0208085Y0182921D01*
X0208085Y0181922D02*
X0205585Y0181922D01*
X0205585Y0180924D02*
X0208085Y0180924D01*
X0208085Y0179925D02*
X0205585Y0179925D01*
X0205585Y0178927D02*
X0208085Y0178927D01*
X0208085Y0177928D02*
X0205585Y0177928D01*
X0205585Y0176930D02*
X0208085Y0176930D01*
X0208085Y0175931D02*
X0205585Y0175931D01*
X0205585Y0174933D02*
X0208085Y0174933D01*
X0208085Y0173934D02*
X0205585Y0173934D01*
X0205585Y0172936D02*
X0208085Y0172936D01*
X0208085Y0171937D02*
X0205585Y0171937D01*
X0205585Y0170939D02*
X0208085Y0170939D01*
X0208085Y0169940D02*
X0205585Y0169940D01*
X0205585Y0168942D02*
X0208085Y0168942D01*
X0208085Y0167943D02*
X0205585Y0167943D01*
X0205585Y0166945D02*
X0208085Y0166945D01*
X0208085Y0165946D02*
X0205585Y0165946D01*
X0205585Y0164948D02*
X0208085Y0164948D01*
X0208085Y0163949D02*
X0205585Y0163949D01*
X0205585Y0162951D02*
X0208085Y0162951D01*
X0208085Y0161952D02*
X0205585Y0161952D01*
X0205585Y0160954D02*
X0208085Y0160954D01*
X0208085Y0159955D02*
X0205585Y0159955D01*
X0205585Y0158957D02*
X0208085Y0158957D01*
X0208085Y0157958D02*
X0205585Y0157958D01*
X0205585Y0156960D02*
X0208085Y0156960D01*
X0208085Y0155961D02*
X0205585Y0155961D01*
X0205585Y0154963D02*
X0208085Y0154963D01*
X0208085Y0153964D02*
X0205585Y0153964D01*
X0205585Y0152966D02*
X0208085Y0152966D01*
X0208085Y0151967D02*
X0205585Y0151967D01*
X0205585Y0150969D02*
X0208085Y0150969D01*
X0208085Y0149970D02*
X0205585Y0149970D01*
X0205585Y0148972D02*
X0208085Y0148972D01*
X0208085Y0147973D02*
X0205585Y0147973D01*
X0205333Y0146975D02*
X0208085Y0146975D01*
X0208085Y0145976D02*
X0204517Y0145976D01*
X0204501Y0145959D02*
X0204501Y0145959D01*
X0203519Y0144978D02*
X0208085Y0144978D01*
X0208085Y0143979D02*
X0202520Y0143979D01*
X0201522Y0142980D02*
X0207951Y0142980D01*
X0206952Y0141982D02*
X0200523Y0141982D01*
X0199525Y0140983D02*
X0205954Y0140983D01*
X0204955Y0139985D02*
X0198526Y0139985D01*
X0197528Y0138986D02*
X0203957Y0138986D01*
X0202958Y0137988D02*
X0196529Y0137988D01*
X0195531Y0136989D02*
X0201960Y0136989D01*
X0200961Y0135991D02*
X0194532Y0135991D01*
X0193534Y0134992D02*
X0199963Y0134992D01*
X0198964Y0133994D02*
X0192535Y0133994D01*
X0191537Y0132995D02*
X0197966Y0132995D01*
X0196967Y0131997D02*
X0191306Y0131997D01*
X0190799Y0130998D02*
X0195969Y0130998D01*
X0194970Y0130000D02*
X0189511Y0130000D01*
X0188085Y0133079D02*
X0203085Y0148079D01*
X0203085Y0266079D01*
X0221085Y0284079D01*
X0221085Y0318079D01*
X0217977Y0316721D02*
X0176585Y0316721D01*
X0176585Y0315723D02*
X0218585Y0315723D01*
X0218585Y0314724D02*
X0176585Y0314724D01*
X0176585Y0313726D02*
X0218585Y0313726D01*
X0218585Y0312727D02*
X0176585Y0312727D01*
X0176585Y0311729D02*
X0218585Y0311729D01*
X0218585Y0310730D02*
X0176585Y0310730D01*
X0176585Y0309732D02*
X0218585Y0309732D01*
X0218585Y0308733D02*
X0176585Y0308733D01*
X0176585Y0307735D02*
X0218585Y0307735D01*
X0218585Y0306736D02*
X0176585Y0306736D01*
X0176585Y0305738D02*
X0218585Y0305738D01*
X0218585Y0304739D02*
X0176585Y0304739D01*
X0176585Y0303741D02*
X0218585Y0303741D01*
X0218585Y0302742D02*
X0176585Y0302742D01*
X0176585Y0301744D02*
X0218585Y0301744D01*
X0218585Y0300745D02*
X0176585Y0300745D01*
X0176585Y0299747D02*
X0218585Y0299747D01*
X0218585Y0298748D02*
X0176585Y0298748D01*
X0176585Y0297750D02*
X0218585Y0297750D01*
X0218585Y0296751D02*
X0176585Y0296751D01*
X0176585Y0295753D02*
X0218585Y0295753D01*
X0218585Y0294754D02*
X0176585Y0294754D01*
X0176585Y0293756D02*
X0218585Y0293756D01*
X0218585Y0292757D02*
X0176585Y0292757D01*
X0176585Y0291759D02*
X0218585Y0291759D01*
X0218585Y0290760D02*
X0176585Y0290760D01*
X0176585Y0289762D02*
X0218585Y0289762D01*
X0218585Y0288763D02*
X0176585Y0288763D01*
X0176585Y0287765D02*
X0218585Y0287765D01*
X0218585Y0286766D02*
X0176585Y0286766D01*
X0176585Y0285768D02*
X0218585Y0285768D01*
X0218239Y0284769D02*
X0176585Y0284769D01*
X0176585Y0283771D02*
X0217241Y0283771D01*
X0216242Y0282772D02*
X0176585Y0282772D01*
X0176585Y0281774D02*
X0215244Y0281774D01*
X0214245Y0280775D02*
X0176585Y0280775D01*
X0176585Y0279777D02*
X0213247Y0279777D01*
X0212248Y0278778D02*
X0176585Y0278778D01*
X0176585Y0277780D02*
X0211250Y0277780D01*
X0210251Y0276781D02*
X0176585Y0276781D01*
X0176585Y0275782D02*
X0209253Y0275782D01*
X0208254Y0274784D02*
X0176585Y0274784D01*
X0176585Y0273785D02*
X0207256Y0273785D01*
X0206257Y0272787D02*
X0176585Y0272787D01*
X0176585Y0271788D02*
X0205259Y0271788D01*
X0204260Y0270790D02*
X0176585Y0270790D01*
X0176585Y0269791D02*
X0203262Y0269791D01*
X0202263Y0268793D02*
X0176585Y0268793D01*
X0176585Y0267794D02*
X0201265Y0267794D01*
X0200676Y0266796D02*
X0176585Y0266796D01*
X0176585Y0265797D02*
X0200585Y0265797D01*
X0200585Y0264799D02*
X0177042Y0264799D01*
X0177456Y0263800D02*
X0200585Y0263800D01*
X0200585Y0262802D02*
X0177475Y0262802D01*
X0177226Y0261803D02*
X0200585Y0261803D01*
X0200585Y0260805D02*
X0176606Y0260805D01*
X0175044Y0259806D02*
X0200585Y0259806D01*
X0200585Y0258808D02*
X0150960Y0258808D01*
X0150960Y0259806D02*
X0173125Y0259806D01*
X0171564Y0260805D02*
X0150960Y0260805D01*
X0150960Y0261803D02*
X0170943Y0261803D01*
X0170694Y0262802D02*
X0150960Y0262802D01*
X0150960Y0263800D02*
X0170714Y0263800D01*
X0171127Y0264799D02*
X0150960Y0264799D01*
X0151576Y0265797D02*
X0171585Y0265797D01*
X0171585Y0266796D02*
X0152575Y0266796D01*
X0153573Y0267794D02*
X0171585Y0267794D01*
X0171585Y0268793D02*
X0154572Y0268793D01*
X0155570Y0269791D02*
X0171585Y0269791D01*
X0171585Y0270790D02*
X0156569Y0270790D01*
X0157567Y0271788D02*
X0171585Y0271788D01*
X0171585Y0272787D02*
X0158566Y0272787D01*
X0159564Y0273785D02*
X0171585Y0273785D01*
X0171585Y0274784D02*
X0160563Y0274784D01*
X0161561Y0275782D02*
X0171585Y0275782D01*
X0171585Y0276781D02*
X0162560Y0276781D01*
X0163558Y0277780D02*
X0171585Y0277780D01*
X0171585Y0278778D02*
X0164557Y0278778D01*
X0165555Y0279777D02*
X0171585Y0279777D01*
X0171585Y0280775D02*
X0166554Y0280775D01*
X0167552Y0281774D02*
X0171585Y0281774D01*
X0171585Y0282772D02*
X0168551Y0282772D01*
X0169196Y0283771D02*
X0171585Y0283771D01*
X0171585Y0284769D02*
X0169460Y0284769D01*
X0169460Y0285768D02*
X0171585Y0285768D01*
X0171585Y0286766D02*
X0169460Y0286766D01*
X0169460Y0287765D02*
X0171585Y0287765D01*
X0171585Y0288763D02*
X0169460Y0288763D01*
X0169460Y0289762D02*
X0171585Y0289762D01*
X0171585Y0290760D02*
X0169460Y0290760D01*
X0169460Y0291759D02*
X0171585Y0291759D01*
X0171585Y0292757D02*
X0169460Y0292757D01*
X0169460Y0293756D02*
X0171585Y0293756D01*
X0171585Y0294754D02*
X0169460Y0294754D01*
X0169460Y0295753D02*
X0171585Y0295753D01*
X0171585Y0296751D02*
X0169460Y0296751D01*
X0169460Y0297750D02*
X0171585Y0297750D01*
X0171585Y0298748D02*
X0169460Y0298748D01*
X0169460Y0299747D02*
X0171585Y0299747D01*
X0171585Y0300745D02*
X0169460Y0300745D01*
X0169460Y0301744D02*
X0171585Y0301744D01*
X0171585Y0302742D02*
X0169460Y0302742D01*
X0169460Y0303741D02*
X0171585Y0303741D01*
X0171585Y0304739D02*
X0169460Y0304739D01*
X0169460Y0305738D02*
X0171585Y0305738D01*
X0171585Y0306736D02*
X0169460Y0306736D01*
X0169460Y0307735D02*
X0171585Y0307735D01*
X0171585Y0308733D02*
X0169460Y0308733D01*
X0169460Y0309732D02*
X0171585Y0309732D01*
X0171585Y0310730D02*
X0169460Y0310730D01*
X0169460Y0311729D02*
X0171585Y0311729D01*
X0171585Y0312727D02*
X0169460Y0312727D01*
X0169460Y0313726D02*
X0171585Y0313726D01*
X0171585Y0314724D02*
X0169460Y0314724D01*
X0169460Y0315723D02*
X0171585Y0315723D01*
X0171585Y0316721D02*
X0169460Y0316721D01*
X0169460Y0317720D02*
X0171585Y0317720D01*
X0171585Y0318718D02*
X0169460Y0318718D01*
X0169460Y0319717D02*
X0171585Y0319717D01*
X0171585Y0320716D02*
X0169460Y0320716D01*
X0169460Y0321714D02*
X0171585Y0321714D01*
X0171585Y0322713D02*
X0169460Y0322713D01*
X0169460Y0323711D02*
X0171585Y0323711D01*
X0171585Y0324710D02*
X0169460Y0324710D01*
X0169460Y0325708D02*
X0171585Y0325708D01*
X0171585Y0326707D02*
X0169460Y0326707D01*
X0169460Y0327705D02*
X0171585Y0327705D01*
X0171585Y0328704D02*
X0169460Y0328704D01*
X0169460Y0329702D02*
X0171585Y0329702D01*
X0171585Y0330701D02*
X0169460Y0330701D01*
X0169460Y0331699D02*
X0171585Y0331699D01*
X0171194Y0332698D02*
X0169460Y0332698D01*
X0169460Y0333696D02*
X0170780Y0333696D01*
X0170694Y0334695D02*
X0169460Y0334695D01*
X0169460Y0335693D02*
X0170876Y0335693D01*
X0174085Y0334579D02*
X0174085Y0263079D01*
X0164585Y0260079D02*
X0164585Y0229579D01*
X0174341Y0216870D02*
X0150960Y0216870D01*
X0150960Y0215872D02*
X0173342Y0215872D01*
X0172344Y0214873D02*
X0150960Y0214873D01*
X0150960Y0213875D02*
X0171562Y0213875D01*
X0171335Y0212876D02*
X0150960Y0212876D01*
X0150960Y0211878D02*
X0171335Y0211878D01*
X0171335Y0210879D02*
X0150960Y0210879D01*
X0150960Y0209881D02*
X0171335Y0209881D01*
X0171335Y0208882D02*
X0150960Y0208882D01*
X0150960Y0207884D02*
X0171335Y0207884D01*
X0171335Y0206885D02*
X0150960Y0206885D01*
X0150960Y0205887D02*
X0171335Y0205887D01*
X0171335Y0204888D02*
X0150960Y0204888D01*
X0150960Y0203890D02*
X0171335Y0203890D01*
X0171335Y0202891D02*
X0150960Y0202891D01*
X0150960Y0201893D02*
X0171335Y0201893D01*
X0171335Y0200894D02*
X0150960Y0200894D01*
X0150960Y0199896D02*
X0171335Y0199896D01*
X0171335Y0198897D02*
X0150960Y0198897D01*
X0150960Y0197899D02*
X0171335Y0197899D01*
X0171335Y0196900D02*
X0150960Y0196900D01*
X0150960Y0195902D02*
X0171335Y0195902D01*
X0171335Y0194903D02*
X0150960Y0194903D01*
X0150960Y0193905D02*
X0171335Y0193905D01*
X0171335Y0192906D02*
X0150960Y0192906D01*
X0150960Y0191908D02*
X0171335Y0191908D01*
X0171335Y0190909D02*
X0150960Y0190909D01*
X0150960Y0189911D02*
X0171335Y0189911D01*
X0171335Y0188912D02*
X0150960Y0188912D01*
X0150960Y0187913D02*
X0171335Y0187913D01*
X0171335Y0186915D02*
X0150960Y0186915D01*
X0150960Y0185916D02*
X0171335Y0185916D01*
X0171335Y0184918D02*
X0150960Y0184918D01*
X0150960Y0183919D02*
X0171335Y0183919D01*
X0171335Y0182921D02*
X0150960Y0182921D01*
X0150960Y0181922D02*
X0171335Y0181922D01*
X0171335Y0180924D02*
X0150960Y0180924D01*
X0150960Y0179925D02*
X0171335Y0179925D01*
X0171335Y0178927D02*
X0150960Y0178927D01*
X0150960Y0177928D02*
X0171335Y0177928D01*
X0171335Y0176930D02*
X0150960Y0176930D01*
X0150960Y0175931D02*
X0171335Y0175931D01*
X0171335Y0174933D02*
X0150960Y0174933D01*
X0150960Y0173934D02*
X0171335Y0173934D01*
X0171335Y0172936D02*
X0150960Y0172936D01*
X0150960Y0171937D02*
X0171335Y0171937D01*
X0171335Y0170939D02*
X0150960Y0170939D01*
X0150960Y0169940D02*
X0171335Y0169940D01*
X0171335Y0168942D02*
X0150960Y0168942D01*
X0150960Y0167943D02*
X0171335Y0167943D01*
X0171335Y0166945D02*
X0150768Y0166945D01*
X0150225Y0165946D02*
X0171335Y0165946D01*
X0171335Y0164948D02*
X0149227Y0164948D01*
X0148228Y0163949D02*
X0171335Y0163949D01*
X0171335Y0162951D02*
X0147230Y0162951D01*
X0146231Y0161952D02*
X0171335Y0161952D01*
X0171335Y0160954D02*
X0145233Y0160954D01*
X0144234Y0159955D02*
X0171335Y0159955D01*
X0171335Y0158957D02*
X0143236Y0158957D01*
X0142237Y0157958D02*
X0171335Y0157958D01*
X0171335Y0156960D02*
X0141238Y0156960D01*
X0140240Y0155961D02*
X0171335Y0155961D01*
X0171335Y0154963D02*
X0139241Y0154963D01*
X0138265Y0153964D02*
X0171335Y0153964D01*
X0171335Y0152966D02*
X0137244Y0152966D01*
X0136246Y0151967D02*
X0171335Y0151967D01*
X0171335Y0150969D02*
X0135247Y0150969D01*
X0134249Y0149970D02*
X0171335Y0149970D01*
X0171335Y0148972D02*
X0133250Y0148972D01*
X0132252Y0147973D02*
X0171335Y0147973D01*
X0171335Y0146975D02*
X0131253Y0146975D01*
X0130255Y0145976D02*
X0171335Y0145976D01*
X0171335Y0144978D02*
X0129256Y0144978D01*
X0128258Y0143979D02*
X0171335Y0143979D01*
X0171335Y0142980D02*
X0127259Y0142980D01*
X0126261Y0141982D02*
X0171335Y0141982D01*
X0171335Y0140983D02*
X0125262Y0140983D01*
X0124264Y0139985D02*
X0170851Y0139985D01*
X0170444Y0138986D02*
X0123265Y0138986D01*
X0122267Y0137988D02*
X0170444Y0137988D01*
X0170720Y0136989D02*
X0121268Y0136989D01*
X0120270Y0135991D02*
X0171378Y0135991D01*
X0173835Y0138329D02*
X0173835Y0212829D01*
X0187335Y0226329D01*
X0189661Y0223860D02*
X0200585Y0223860D01*
X0200585Y0224858D02*
X0190396Y0224858D01*
X0190725Y0225857D02*
X0200585Y0225857D01*
X0200585Y0226855D02*
X0190725Y0226855D01*
X0190373Y0227854D02*
X0200585Y0227854D01*
X0200585Y0228852D02*
X0189606Y0228852D01*
X0187403Y0222861D02*
X0200585Y0222861D01*
X0200585Y0221863D02*
X0186404Y0221863D01*
X0185406Y0220864D02*
X0200585Y0220864D01*
X0200585Y0219866D02*
X0184407Y0219866D01*
X0183409Y0218867D02*
X0200585Y0218867D01*
X0200585Y0217869D02*
X0182410Y0217869D01*
X0181412Y0216870D02*
X0200585Y0216870D01*
X0200585Y0215872D02*
X0180413Y0215872D01*
X0179415Y0214873D02*
X0200585Y0214873D01*
X0200585Y0213875D02*
X0178416Y0213875D01*
X0177418Y0212876D02*
X0200585Y0212876D01*
X0200585Y0211878D02*
X0176419Y0211878D01*
X0176335Y0210879D02*
X0200585Y0210879D01*
X0200585Y0209881D02*
X0176335Y0209881D01*
X0176335Y0208882D02*
X0200585Y0208882D01*
X0200585Y0207884D02*
X0176335Y0207884D01*
X0176335Y0206885D02*
X0200585Y0206885D01*
X0200585Y0205887D02*
X0176335Y0205887D01*
X0176335Y0204888D02*
X0200585Y0204888D01*
X0200585Y0203890D02*
X0176335Y0203890D01*
X0176335Y0202891D02*
X0200585Y0202891D01*
X0200585Y0201893D02*
X0176335Y0201893D01*
X0176335Y0200894D02*
X0177979Y0200894D01*
X0179690Y0200894D02*
X0200585Y0200894D01*
X0200585Y0199896D02*
X0181313Y0199896D01*
X0181958Y0198897D02*
X0200585Y0198897D01*
X0200585Y0197899D02*
X0182225Y0197899D01*
X0182223Y0196900D02*
X0200585Y0196900D01*
X0200585Y0195902D02*
X0181810Y0195902D01*
X0181335Y0194903D02*
X0200585Y0194903D01*
X0200585Y0193905D02*
X0181335Y0193905D01*
X0181335Y0192906D02*
X0200585Y0192906D01*
X0200585Y0191908D02*
X0181335Y0191908D01*
X0181335Y0190909D02*
X0200585Y0190909D01*
X0200585Y0189911D02*
X0181335Y0189911D01*
X0181335Y0188912D02*
X0200585Y0188912D01*
X0200585Y0187913D02*
X0181335Y0187913D01*
X0181335Y0186915D02*
X0200585Y0186915D01*
X0200585Y0185916D02*
X0181335Y0185916D01*
X0181335Y0184918D02*
X0200585Y0184918D01*
X0200585Y0183919D02*
X0181335Y0183919D01*
X0181335Y0182921D02*
X0200585Y0182921D01*
X0200585Y0181922D02*
X0181335Y0181922D01*
X0181335Y0180924D02*
X0200585Y0180924D01*
X0200585Y0179925D02*
X0181335Y0179925D01*
X0181335Y0178927D02*
X0200585Y0178927D01*
X0200585Y0177928D02*
X0181335Y0177928D01*
X0181335Y0176930D02*
X0200585Y0176930D01*
X0200585Y0175931D02*
X0181335Y0175931D01*
X0181335Y0174933D02*
X0200585Y0174933D01*
X0200585Y0173934D02*
X0181335Y0173934D01*
X0181839Y0172936D02*
X0200585Y0172936D01*
X0200585Y0171937D02*
X0182225Y0171937D01*
X0182225Y0170939D02*
X0200585Y0170939D01*
X0200585Y0169940D02*
X0181929Y0169940D01*
X0181243Y0168942D02*
X0200585Y0168942D01*
X0200585Y0167943D02*
X0179521Y0167943D01*
X0178148Y0167943D02*
X0176335Y0167943D01*
X0176335Y0166945D02*
X0200585Y0166945D01*
X0200585Y0165946D02*
X0176335Y0165946D01*
X0176335Y0164948D02*
X0200585Y0164948D01*
X0200585Y0163949D02*
X0176335Y0163949D01*
X0176335Y0162951D02*
X0200585Y0162951D01*
X0200585Y0161952D02*
X0176335Y0161952D01*
X0176335Y0160954D02*
X0200585Y0160954D01*
X0200585Y0159955D02*
X0176335Y0159955D01*
X0176335Y0158957D02*
X0200585Y0158957D01*
X0200585Y0157958D02*
X0176335Y0157958D01*
X0176335Y0156960D02*
X0200585Y0156960D01*
X0200585Y0155961D02*
X0176335Y0155961D01*
X0176335Y0154963D02*
X0200585Y0154963D01*
X0200585Y0153964D02*
X0176335Y0153964D01*
X0176335Y0152966D02*
X0200585Y0152966D01*
X0200585Y0151967D02*
X0176335Y0151967D01*
X0176335Y0150969D02*
X0200585Y0150969D01*
X0200585Y0149970D02*
X0176335Y0149970D01*
X0176335Y0148972D02*
X0200442Y0148972D01*
X0199443Y0147973D02*
X0176335Y0147973D01*
X0176335Y0146975D02*
X0198445Y0146975D01*
X0197446Y0145976D02*
X0176335Y0145976D01*
X0176335Y0144978D02*
X0196448Y0144978D01*
X0195449Y0143979D02*
X0176335Y0143979D01*
X0176335Y0142980D02*
X0194451Y0142980D01*
X0193452Y0141982D02*
X0176335Y0141982D01*
X0176335Y0140983D02*
X0192454Y0140983D01*
X0191455Y0139985D02*
X0176819Y0139985D01*
X0177225Y0138986D02*
X0190457Y0138986D01*
X0189458Y0137988D02*
X0177225Y0137988D01*
X0176950Y0136989D02*
X0188460Y0136989D01*
X0186255Y0135991D02*
X0176292Y0135991D01*
X0176335Y0168942D02*
X0176427Y0168942D01*
X0178835Y0171329D02*
X0178835Y0197579D01*
X0176357Y0199896D02*
X0176335Y0199896D01*
X0175339Y0217869D02*
X0150960Y0217869D01*
X0150960Y0218867D02*
X0176338Y0218867D01*
X0177336Y0219866D02*
X0150960Y0219866D01*
X0150960Y0220864D02*
X0178335Y0220864D01*
X0179333Y0221863D02*
X0150960Y0221863D01*
X0150960Y0222861D02*
X0180332Y0222861D01*
X0181330Y0223860D02*
X0150960Y0223860D01*
X0150960Y0224858D02*
X0182329Y0224858D01*
X0183327Y0225857D02*
X0150960Y0225857D01*
X0150960Y0226855D02*
X0183944Y0226855D01*
X0184297Y0227854D02*
X0150960Y0227854D01*
X0150960Y0228852D02*
X0185063Y0228852D01*
X0200585Y0229851D02*
X0150960Y0229851D01*
X0150960Y0230849D02*
X0200585Y0230849D01*
X0200585Y0231848D02*
X0150960Y0231848D01*
X0150960Y0232847D02*
X0200585Y0232847D01*
X0200585Y0233845D02*
X0150960Y0233845D01*
X0150960Y0234844D02*
X0200585Y0234844D01*
X0200585Y0235842D02*
X0150960Y0235842D01*
X0150960Y0236841D02*
X0200585Y0236841D01*
X0200585Y0237839D02*
X0150960Y0237839D01*
X0150960Y0238838D02*
X0200585Y0238838D01*
X0200585Y0239836D02*
X0150960Y0239836D01*
X0150960Y0240835D02*
X0200585Y0240835D01*
X0200585Y0241833D02*
X0150960Y0241833D01*
X0150960Y0242832D02*
X0200585Y0242832D01*
X0200585Y0243830D02*
X0150960Y0243830D01*
X0150960Y0244829D02*
X0200585Y0244829D01*
X0200585Y0245827D02*
X0150960Y0245827D01*
X0150960Y0246826D02*
X0200585Y0246826D01*
X0200585Y0247824D02*
X0150960Y0247824D01*
X0150960Y0248823D02*
X0200585Y0248823D01*
X0200585Y0249821D02*
X0150960Y0249821D01*
X0150960Y0250820D02*
X0200585Y0250820D01*
X0200585Y0251818D02*
X0150960Y0251818D01*
X0150960Y0252817D02*
X0200585Y0252817D01*
X0200585Y0253815D02*
X0150960Y0253815D01*
X0150960Y0254814D02*
X0200585Y0254814D01*
X0200585Y0255812D02*
X0150960Y0255812D01*
X0150960Y0256811D02*
X0200585Y0256811D01*
X0200585Y0257809D02*
X0150960Y0257809D01*
X0144210Y0257809D02*
X0138585Y0257809D01*
X0138585Y0256811D02*
X0144210Y0256811D01*
X0144210Y0255812D02*
X0138585Y0255812D01*
X0138585Y0254814D02*
X0144210Y0254814D01*
X0144210Y0253815D02*
X0138585Y0253815D01*
X0138585Y0252817D02*
X0144210Y0252817D01*
X0144210Y0251818D02*
X0138585Y0251818D01*
X0138585Y0250874D02*
X0138585Y0268543D01*
X0154704Y0284663D01*
X0155085Y0285581D01*
X0155085Y0362284D01*
X0155459Y0362658D01*
X0155975Y0363904D01*
X0155975Y0365253D01*
X0155459Y0366499D01*
X0155085Y0366874D01*
X0155085Y0385043D01*
X0170501Y0400459D01*
X0170501Y0400459D01*
X0170710Y0400668D01*
X0170710Y0396977D01*
X0163223Y0389491D01*
X0162710Y0388250D01*
X0162710Y0382954D01*
X0161297Y0382954D01*
X0161259Y0382969D01*
X0159910Y0382969D01*
X0158664Y0382453D01*
X0157710Y0381499D01*
X0157194Y0380253D01*
X0157194Y0378904D01*
X0157710Y0377658D01*
X0158664Y0376704D01*
X0159910Y0376188D01*
X0161259Y0376188D01*
X0161297Y0376204D01*
X0162710Y0376204D01*
X0162710Y0286477D01*
X0145702Y0269469D01*
X0145664Y0269453D01*
X0144710Y0268499D01*
X0144194Y0267253D01*
X0144194Y0265904D01*
X0144210Y0265867D01*
X0144210Y0169477D01*
X0133702Y0158969D01*
X0133664Y0158953D01*
X0132710Y0157999D01*
X0132695Y0157962D01*
X0094585Y0119852D01*
X0094585Y0128543D01*
X0102230Y0136188D01*
X0102759Y0136188D01*
X0104005Y0136704D01*
X0104959Y0137658D01*
X0105475Y0138904D01*
X0105475Y0139434D01*
X0138204Y0172163D01*
X0138585Y0173081D01*
X0138585Y0246284D01*
X0138959Y0246658D01*
X0139475Y0247904D01*
X0139475Y0249253D01*
X0138959Y0250499D01*
X0138585Y0250874D01*
X0138639Y0250820D02*
X0144210Y0250820D01*
X0144210Y0249821D02*
X0139240Y0249821D01*
X0139475Y0248823D02*
X0144210Y0248823D01*
X0144210Y0247824D02*
X0139442Y0247824D01*
X0139028Y0246826D02*
X0144210Y0246826D01*
X0144210Y0245827D02*
X0138585Y0245827D01*
X0138585Y0244829D02*
X0144210Y0244829D01*
X0144210Y0243830D02*
X0138585Y0243830D01*
X0138585Y0242832D02*
X0144210Y0242832D01*
X0144210Y0241833D02*
X0138585Y0241833D01*
X0138585Y0240835D02*
X0144210Y0240835D01*
X0144210Y0239836D02*
X0138585Y0239836D01*
X0138585Y0238838D02*
X0144210Y0238838D01*
X0144210Y0237839D02*
X0138585Y0237839D01*
X0138585Y0236841D02*
X0144210Y0236841D01*
X0144210Y0235842D02*
X0138585Y0235842D01*
X0138585Y0234844D02*
X0144210Y0234844D01*
X0144210Y0233845D02*
X0138585Y0233845D01*
X0138585Y0232847D02*
X0144210Y0232847D01*
X0144210Y0231848D02*
X0138585Y0231848D01*
X0138585Y0230849D02*
X0144210Y0230849D01*
X0144210Y0229851D02*
X0138585Y0229851D01*
X0138585Y0228852D02*
X0144210Y0228852D01*
X0144210Y0227854D02*
X0138585Y0227854D01*
X0138585Y0226855D02*
X0144210Y0226855D01*
X0144210Y0225857D02*
X0138585Y0225857D01*
X0138585Y0224858D02*
X0144210Y0224858D01*
X0144210Y0223860D02*
X0138585Y0223860D01*
X0138585Y0222861D02*
X0144210Y0222861D01*
X0144210Y0221863D02*
X0138585Y0221863D01*
X0138585Y0220864D02*
X0144210Y0220864D01*
X0144210Y0219866D02*
X0138585Y0219866D01*
X0138585Y0218867D02*
X0144210Y0218867D01*
X0144210Y0217869D02*
X0138585Y0217869D01*
X0138585Y0216870D02*
X0144210Y0216870D01*
X0144210Y0215872D02*
X0138585Y0215872D01*
X0138585Y0214873D02*
X0144210Y0214873D01*
X0144210Y0213875D02*
X0138585Y0213875D01*
X0138585Y0212876D02*
X0144210Y0212876D01*
X0144210Y0211878D02*
X0138585Y0211878D01*
X0138585Y0210879D02*
X0144210Y0210879D01*
X0144210Y0209881D02*
X0138585Y0209881D01*
X0138585Y0208882D02*
X0144210Y0208882D01*
X0144210Y0207884D02*
X0138585Y0207884D01*
X0138585Y0206885D02*
X0144210Y0206885D01*
X0144210Y0205887D02*
X0138585Y0205887D01*
X0138585Y0204888D02*
X0144210Y0204888D01*
X0144210Y0203890D02*
X0138585Y0203890D01*
X0138585Y0202891D02*
X0144210Y0202891D01*
X0144210Y0201893D02*
X0138585Y0201893D01*
X0138585Y0200894D02*
X0144210Y0200894D01*
X0144210Y0199896D02*
X0138585Y0199896D01*
X0138585Y0198897D02*
X0144210Y0198897D01*
X0144210Y0197899D02*
X0138585Y0197899D01*
X0138585Y0196900D02*
X0144210Y0196900D01*
X0144210Y0195902D02*
X0138585Y0195902D01*
X0138585Y0194903D02*
X0144210Y0194903D01*
X0144210Y0193905D02*
X0138585Y0193905D01*
X0138585Y0192906D02*
X0144210Y0192906D01*
X0144210Y0191908D02*
X0138585Y0191908D01*
X0138585Y0190909D02*
X0144210Y0190909D01*
X0144210Y0189911D02*
X0138585Y0189911D01*
X0138585Y0188912D02*
X0144210Y0188912D01*
X0144210Y0187913D02*
X0138585Y0187913D01*
X0138585Y0186915D02*
X0144210Y0186915D01*
X0144210Y0185916D02*
X0138585Y0185916D01*
X0138585Y0184918D02*
X0144210Y0184918D01*
X0144210Y0183919D02*
X0138585Y0183919D01*
X0138585Y0182921D02*
X0144210Y0182921D01*
X0144210Y0181922D02*
X0138585Y0181922D01*
X0138585Y0180924D02*
X0144210Y0180924D01*
X0144210Y0179925D02*
X0138585Y0179925D01*
X0138585Y0178927D02*
X0144210Y0178927D01*
X0144210Y0177928D02*
X0138585Y0177928D01*
X0138585Y0176930D02*
X0144210Y0176930D01*
X0144210Y0175931D02*
X0138585Y0175931D01*
X0138585Y0174933D02*
X0144210Y0174933D01*
X0144210Y0173934D02*
X0138585Y0173934D01*
X0138524Y0172936D02*
X0144210Y0172936D01*
X0144210Y0171937D02*
X0137979Y0171937D01*
X0136980Y0170939D02*
X0144210Y0170939D01*
X0144210Y0169940D02*
X0135982Y0169940D01*
X0134983Y0168942D02*
X0143675Y0168942D01*
X0142676Y0167943D02*
X0133985Y0167943D01*
X0132986Y0166945D02*
X0141678Y0166945D01*
X0140679Y0165946D02*
X0131988Y0165946D01*
X0130989Y0164948D02*
X0139681Y0164948D01*
X0138682Y0163949D02*
X0129991Y0163949D01*
X0128992Y0162951D02*
X0137684Y0162951D01*
X0136685Y0161952D02*
X0127994Y0161952D01*
X0126995Y0160954D02*
X0135687Y0160954D01*
X0134688Y0159955D02*
X0125997Y0159955D01*
X0124998Y0158957D02*
X0133673Y0158957D01*
X0132691Y0157958D02*
X0124000Y0157958D01*
X0123001Y0156960D02*
X0131693Y0156960D01*
X0130694Y0155961D02*
X0122003Y0155961D01*
X0121004Y0154963D02*
X0129696Y0154963D01*
X0128697Y0153964D02*
X0120006Y0153964D01*
X0119007Y0152966D02*
X0127699Y0152966D01*
X0126700Y0151967D02*
X0118009Y0151967D01*
X0117010Y0150969D02*
X0125702Y0150969D01*
X0124703Y0149970D02*
X0116012Y0149970D01*
X0115013Y0148972D02*
X0123705Y0148972D01*
X0122706Y0147973D02*
X0114014Y0147973D01*
X0113016Y0146975D02*
X0121707Y0146975D01*
X0120709Y0145976D02*
X0112017Y0145976D01*
X0111019Y0144978D02*
X0119710Y0144978D01*
X0118712Y0143979D02*
X0110020Y0143979D01*
X0109022Y0142980D02*
X0117713Y0142980D01*
X0116715Y0141982D02*
X0108023Y0141982D01*
X0107025Y0140983D02*
X0115716Y0140983D01*
X0114718Y0139985D02*
X0106026Y0139985D01*
X0105475Y0138986D02*
X0113719Y0138986D01*
X0112721Y0137988D02*
X0105096Y0137988D01*
X0104290Y0136989D02*
X0111722Y0136989D01*
X0110724Y0135991D02*
X0102032Y0135991D01*
X0101034Y0134992D02*
X0109725Y0134992D01*
X0108727Y0133994D02*
X0100035Y0133994D01*
X0099037Y0132995D02*
X0107728Y0132995D01*
X0106730Y0131997D02*
X0098038Y0131997D01*
X0097040Y0130998D02*
X0105731Y0130998D01*
X0104733Y0130000D02*
X0096041Y0130000D01*
X0095043Y0129001D02*
X0103734Y0129001D01*
X0102736Y0128003D02*
X0094585Y0128003D01*
X0094585Y0127004D02*
X0101737Y0127004D01*
X0100739Y0126006D02*
X0094585Y0126006D01*
X0094585Y0125007D02*
X0099740Y0125007D01*
X0098742Y0124009D02*
X0094585Y0124009D01*
X0094585Y0123010D02*
X0097743Y0123010D01*
X0096745Y0122012D02*
X0094585Y0122012D01*
X0094585Y0121013D02*
X0095746Y0121013D01*
X0094748Y0120015D02*
X0094585Y0120015D01*
X0092085Y0116079D02*
X0092085Y0129579D01*
X0102085Y0139579D01*
X0136085Y0173579D01*
X0136085Y0248579D01*
X0136085Y0269579D01*
X0152585Y0286079D01*
X0152585Y0364579D01*
X0152585Y0386079D01*
X0169085Y0402579D01*
X0169085Y0420579D01*
X0170658Y0424561D02*
X0170710Y0424561D01*
X0167402Y0430552D02*
X0159088Y0430552D01*
X0158040Y0431550D02*
X0170710Y0431550D01*
X0170710Y0432549D02*
X0156991Y0432549D01*
X0155943Y0433547D02*
X0170710Y0433547D01*
X0170710Y0434546D02*
X0154894Y0434546D01*
X0153846Y0435544D02*
X0170710Y0435544D01*
X0170710Y0436543D02*
X0152797Y0436543D01*
X0151749Y0437541D02*
X0170710Y0437541D01*
X0170710Y0438540D02*
X0150700Y0438540D01*
X0149661Y0439538D02*
X0170710Y0439538D01*
X0170710Y0440537D02*
X0133596Y0440537D01*
X0133596Y0441535D02*
X0170710Y0441535D01*
X0170710Y0442534D02*
X0133596Y0442534D01*
X0133596Y0443532D02*
X0170710Y0443532D01*
X0170710Y0444531D02*
X0133596Y0444531D01*
X0133596Y0445529D02*
X0170710Y0445529D01*
X0170710Y0446528D02*
X0133596Y0446528D01*
X0133596Y0447526D02*
X0170710Y0447526D01*
X0170710Y0448525D02*
X0133596Y0448525D01*
X0133596Y0449523D02*
X0170710Y0449523D01*
X0170710Y0450522D02*
X0133596Y0450522D01*
X0133596Y0451520D02*
X0170710Y0451520D01*
X0170710Y0452519D02*
X0133596Y0452519D01*
X0133596Y0453518D02*
X0170710Y0453518D01*
X0170710Y0454516D02*
X0133596Y0454516D01*
X0133596Y0455515D02*
X0170710Y0455515D01*
X0170710Y0456513D02*
X0133596Y0456513D01*
X0133596Y0457512D02*
X0170710Y0457512D01*
X0170710Y0458510D02*
X0133596Y0458510D01*
X0133596Y0459509D02*
X0170710Y0459509D01*
X0170710Y0460507D02*
X0133596Y0460507D01*
X0133596Y0461506D02*
X0170710Y0461506D01*
X0170710Y0462504D02*
X0133596Y0462504D01*
X0126542Y0455515D02*
X0126320Y0455515D01*
X0126538Y0454516D02*
X0125321Y0454516D01*
X0124270Y0453518D02*
X0126534Y0453518D01*
X0126530Y0452519D02*
X0121859Y0452519D01*
X0109718Y0479479D02*
X0089947Y0479479D01*
X0089978Y0480477D02*
X0108720Y0480477D01*
X0107721Y0481476D02*
X0090009Y0481476D01*
X0090039Y0482474D02*
X0105469Y0482474D01*
X0104611Y0483473D02*
X0090070Y0483473D01*
X0090101Y0484471D02*
X0104197Y0484471D01*
X0104194Y0485470D02*
X0090131Y0485470D01*
X0090162Y0486468D02*
X0104459Y0486468D01*
X0105103Y0487467D02*
X0090193Y0487467D01*
X0091268Y0522415D02*
X0127626Y0522415D01*
X0129275Y0523413D02*
X0091299Y0523413D01*
X0091329Y0524412D02*
X0206396Y0524412D01*
X0204453Y0525410D02*
X0091360Y0525410D01*
X0091391Y0526409D02*
X0202510Y0526409D01*
X0200567Y0527407D02*
X0091422Y0527407D01*
X0091452Y0528406D02*
X0198624Y0528406D01*
X0196681Y0529404D02*
X0091483Y0529404D01*
X0091514Y0530403D02*
X0194738Y0530403D01*
X0192795Y0531401D02*
X0091544Y0531401D01*
X0091575Y0532400D02*
X0190852Y0532400D01*
X0188909Y0533398D02*
X0091606Y0533398D01*
X0091637Y0534397D02*
X0187331Y0534397D01*
X0186537Y0535395D02*
X0091667Y0535395D01*
X0091698Y0536394D02*
X0185742Y0536394D01*
X0184948Y0537392D02*
X0091729Y0537392D01*
X0091759Y0538391D02*
X0184153Y0538391D01*
X0183359Y0539389D02*
X0091790Y0539389D01*
X0091821Y0540388D02*
X0182564Y0540388D01*
X0181770Y0541387D02*
X0091852Y0541387D01*
X0091882Y0542385D02*
X0180975Y0542385D01*
X0180181Y0543384D02*
X0091913Y0543384D01*
X0091944Y0544382D02*
X0179386Y0544382D01*
X0178592Y0545381D02*
X0091975Y0545381D01*
X0092005Y0546379D02*
X0177797Y0546379D01*
X0177003Y0547378D02*
X0092036Y0547378D01*
X0092067Y0548376D02*
X0176208Y0548376D01*
X0175414Y0549375D02*
X0092097Y0549375D01*
X0092128Y0550373D02*
X0174619Y0550373D01*
X0173825Y0551372D02*
X0092159Y0551372D01*
X0092190Y0552370D02*
X0173030Y0552370D01*
X0172236Y0553369D02*
X0092220Y0553369D01*
X0092251Y0554367D02*
X0171441Y0554367D01*
X0170647Y0555366D02*
X0092282Y0555366D01*
X0092312Y0556364D02*
X0169852Y0556364D01*
X0169058Y0557363D02*
X0092343Y0557363D01*
X0092374Y0558361D02*
X0168263Y0558361D01*
X0167469Y0559360D02*
X0092405Y0559360D01*
X0092435Y0560358D02*
X0166674Y0560358D01*
X0165880Y0561357D02*
X0092466Y0561357D01*
X0092497Y0562355D02*
X0165085Y0562355D01*
X0164291Y0563354D02*
X0092527Y0563354D01*
X0092558Y0564352D02*
X0163496Y0564352D01*
X0162702Y0565351D02*
X0092589Y0565351D01*
X0092620Y0566349D02*
X0161907Y0566349D01*
X0161112Y0567348D02*
X0092650Y0567348D01*
X0092681Y0568346D02*
X0160318Y0568346D01*
X0159523Y0569345D02*
X0092712Y0569345D01*
X0092742Y0570343D02*
X0158729Y0570343D01*
X0157934Y0571342D02*
X0092773Y0571342D01*
X0092804Y0572340D02*
X0157140Y0572340D01*
X0156345Y0573339D02*
X0092835Y0573339D01*
X0092865Y0574337D02*
X0155551Y0574337D01*
X0154756Y0575336D02*
X0092896Y0575336D01*
X0092927Y0576334D02*
X0153962Y0576334D01*
X0153167Y0577333D02*
X0092957Y0577333D01*
X0092988Y0578331D02*
X0152373Y0578331D01*
X0151578Y0579330D02*
X0093019Y0579330D01*
X0093050Y0580328D02*
X0150784Y0580328D01*
X0130894Y0523413D02*
X0208339Y0523413D01*
X0210282Y0522415D02*
X0172478Y0522415D01*
X0173783Y0521416D02*
X0212225Y0521416D01*
X0214168Y0520418D02*
X0174781Y0520418D01*
X0175780Y0519419D02*
X0216111Y0519419D01*
X0218054Y0518421D02*
X0176778Y0518421D01*
X0177777Y0517422D02*
X0219997Y0517422D01*
X0221940Y0516424D02*
X0178775Y0516424D01*
X0179774Y0515425D02*
X0224084Y0515425D01*
X0227329Y0514427D02*
X0180772Y0514427D01*
X0181771Y0513428D02*
X0230574Y0513428D01*
X0233819Y0512430D02*
X0182769Y0512430D01*
X0183768Y0511431D02*
X0237249Y0511431D01*
X0241742Y0510433D02*
X0184766Y0510433D01*
X0185765Y0509434D02*
X0254124Y0509434D01*
X0264595Y0508436D02*
X0186763Y0508436D01*
X0187762Y0507437D02*
X0277040Y0507437D01*
X0277018Y0506439D02*
X0188760Y0506439D01*
X0189759Y0505440D02*
X0276996Y0505440D01*
X0276974Y0504442D02*
X0190757Y0504442D01*
X0191756Y0503443D02*
X0276952Y0503443D01*
X0276929Y0502445D02*
X0192754Y0502445D01*
X0193753Y0501446D02*
X0276907Y0501446D01*
X0276885Y0500448D02*
X0194751Y0500448D01*
X0195750Y0499449D02*
X0276863Y0499449D01*
X0276840Y0498451D02*
X0196722Y0498451D01*
X0197085Y0497452D02*
X0276818Y0497452D01*
X0276796Y0496453D02*
X0197085Y0496453D01*
X0197085Y0495455D02*
X0276774Y0495455D01*
X0276752Y0494456D02*
X0242190Y0494456D01*
X0240779Y0494456D02*
X0237390Y0494456D01*
X0235979Y0494456D02*
X0229790Y0494456D01*
X0228379Y0494456D02*
X0197085Y0494456D01*
X0197085Y0493458D02*
X0226669Y0493458D01*
X0225987Y0492459D02*
X0197085Y0492459D01*
X0197085Y0491461D02*
X0225694Y0491461D01*
X0225694Y0490462D02*
X0197085Y0490462D01*
X0197085Y0489464D02*
X0226084Y0489464D01*
X0226585Y0488465D02*
X0197085Y0488465D01*
X0197085Y0487467D02*
X0226585Y0487467D01*
X0226585Y0486468D02*
X0197085Y0486468D01*
X0197085Y0485470D02*
X0226585Y0485470D01*
X0226585Y0484471D02*
X0197085Y0484471D01*
X0197085Y0483473D02*
X0226585Y0483473D01*
X0226585Y0482474D02*
X0197085Y0482474D01*
X0197085Y0481476D02*
X0226585Y0481476D01*
X0226585Y0480477D02*
X0197085Y0480477D01*
X0197085Y0479479D02*
X0226585Y0479479D01*
X0226585Y0478480D02*
X0197085Y0478480D01*
X0197085Y0477482D02*
X0226585Y0477482D01*
X0226585Y0476483D02*
X0197085Y0476483D01*
X0197085Y0475485D02*
X0226585Y0475485D01*
X0226585Y0474486D02*
X0197085Y0474486D01*
X0197085Y0473488D02*
X0226585Y0473488D01*
X0226585Y0472489D02*
X0197085Y0472489D01*
X0197085Y0471491D02*
X0226585Y0471491D01*
X0226585Y0470492D02*
X0197085Y0470492D01*
X0197085Y0469494D02*
X0226585Y0469494D01*
X0226585Y0468495D02*
X0197085Y0468495D01*
X0197085Y0467497D02*
X0226585Y0467497D01*
X0226585Y0466498D02*
X0197085Y0466498D01*
X0197085Y0465500D02*
X0226585Y0465500D01*
X0226585Y0464501D02*
X0197085Y0464501D01*
X0197085Y0463503D02*
X0226585Y0463503D01*
X0226585Y0462504D02*
X0197085Y0462504D01*
X0197085Y0461506D02*
X0226585Y0461506D01*
X0226585Y0460507D02*
X0197085Y0460507D01*
X0197085Y0459509D02*
X0226585Y0459509D01*
X0226585Y0458510D02*
X0197085Y0458510D01*
X0197085Y0457512D02*
X0226008Y0457512D01*
X0225694Y0456513D02*
X0197085Y0456513D01*
X0197085Y0455515D02*
X0225694Y0455515D01*
X0226062Y0454516D02*
X0197085Y0454516D01*
X0197085Y0453518D02*
X0226851Y0453518D01*
X0229085Y0456079D02*
X0229085Y0491079D01*
X0231500Y0493458D02*
X0234269Y0493458D01*
X0233587Y0492459D02*
X0232183Y0492459D01*
X0232475Y0491461D02*
X0233294Y0491461D01*
X0233294Y0490462D02*
X0232475Y0490462D01*
X0232086Y0489464D02*
X0233684Y0489464D01*
X0234503Y0488465D02*
X0231585Y0488465D01*
X0231585Y0487467D02*
X0235685Y0487467D01*
X0235685Y0486468D02*
X0231585Y0486468D01*
X0231585Y0485470D02*
X0235685Y0485470D01*
X0235685Y0484471D02*
X0231585Y0484471D01*
X0231585Y0483473D02*
X0235685Y0483473D01*
X0235685Y0482474D02*
X0231585Y0482474D01*
X0231585Y0481476D02*
X0235685Y0481476D01*
X0235685Y0480477D02*
X0231585Y0480477D01*
X0231585Y0479479D02*
X0235685Y0479479D01*
X0235685Y0478480D02*
X0231585Y0478480D01*
X0231585Y0477482D02*
X0235685Y0477482D01*
X0235685Y0476483D02*
X0231585Y0476483D01*
X0231585Y0475485D02*
X0235685Y0475485D01*
X0235685Y0474486D02*
X0231585Y0474486D01*
X0231585Y0473488D02*
X0235685Y0473488D01*
X0242485Y0481476D02*
X0276463Y0481476D01*
X0276485Y0482474D02*
X0242485Y0482474D01*
X0242485Y0483473D02*
X0276507Y0483473D01*
X0276529Y0484471D02*
X0242485Y0484471D01*
X0242485Y0485470D02*
X0276552Y0485470D01*
X0276574Y0486468D02*
X0260907Y0486468D01*
X0261070Y0486536D02*
X0262272Y0487738D01*
X0262922Y0489308D01*
X0262922Y0491007D01*
X0262272Y0492577D01*
X0261070Y0493779D01*
X0259500Y0494429D01*
X0257801Y0494429D01*
X0256231Y0493779D01*
X0255029Y0492577D01*
X0254379Y0491007D01*
X0254379Y0489308D01*
X0255029Y0487738D01*
X0256231Y0486536D01*
X0257801Y0485886D01*
X0259500Y0485886D01*
X0261070Y0486536D01*
X0262001Y0487467D02*
X0276596Y0487467D01*
X0276618Y0488465D02*
X0262573Y0488465D01*
X0262922Y0489464D02*
X0276640Y0489464D01*
X0276663Y0490462D02*
X0262922Y0490462D01*
X0262734Y0491461D02*
X0276685Y0491461D01*
X0276707Y0492459D02*
X0262321Y0492459D01*
X0261391Y0493458D02*
X0276729Y0493458D01*
X0268747Y0508066D02*
X0268747Y0508066D01*
X0255910Y0493458D02*
X0243900Y0493458D01*
X0244583Y0492459D02*
X0254980Y0492459D01*
X0254567Y0491461D02*
X0244875Y0491461D01*
X0244875Y0490462D02*
X0254379Y0490462D01*
X0254379Y0489464D02*
X0244486Y0489464D01*
X0243666Y0488465D02*
X0254728Y0488465D01*
X0255300Y0487467D02*
X0242485Y0487467D01*
X0242485Y0486468D02*
X0256394Y0486468D01*
X0192085Y0496079D02*
X0192085Y0347079D01*
X0209085Y0330079D01*
X0221085Y0330079D01*
X0218093Y0319717D02*
X0176585Y0319717D01*
X0176585Y0320716D02*
X0200178Y0320716D01*
X0199223Y0321667D02*
X0199223Y0321667D01*
X0199176Y0321714D02*
X0176585Y0321714D01*
X0176585Y0318718D02*
X0217694Y0318718D01*
X0217694Y0317720D02*
X0176585Y0317720D01*
X0162710Y0317720D02*
X0155085Y0317720D01*
X0155085Y0318718D02*
X0162710Y0318718D01*
X0162710Y0319717D02*
X0155085Y0319717D01*
X0155085Y0320716D02*
X0162710Y0320716D01*
X0162710Y0321714D02*
X0155085Y0321714D01*
X0155085Y0322713D02*
X0162710Y0322713D01*
X0162710Y0323711D02*
X0155085Y0323711D01*
X0155085Y0324710D02*
X0162710Y0324710D01*
X0162710Y0325708D02*
X0155085Y0325708D01*
X0155085Y0326707D02*
X0162710Y0326707D01*
X0162710Y0327705D02*
X0155085Y0327705D01*
X0155085Y0328704D02*
X0162710Y0328704D01*
X0162710Y0329702D02*
X0155085Y0329702D01*
X0155085Y0330701D02*
X0162710Y0330701D01*
X0162710Y0331699D02*
X0155085Y0331699D01*
X0155085Y0332698D02*
X0162710Y0332698D01*
X0162710Y0333696D02*
X0155085Y0333696D01*
X0155085Y0334695D02*
X0162710Y0334695D01*
X0162710Y0335693D02*
X0155085Y0335693D01*
X0155085Y0336692D02*
X0162710Y0336692D01*
X0162710Y0337690D02*
X0155085Y0337690D01*
X0155085Y0338689D02*
X0162710Y0338689D01*
X0162710Y0339687D02*
X0155085Y0339687D01*
X0155085Y0340686D02*
X0162710Y0340686D01*
X0162710Y0341684D02*
X0155085Y0341684D01*
X0155085Y0342683D02*
X0162710Y0342683D01*
X0162710Y0343681D02*
X0155085Y0343681D01*
X0155085Y0344680D02*
X0162710Y0344680D01*
X0162710Y0345678D02*
X0155085Y0345678D01*
X0155085Y0346677D02*
X0162710Y0346677D01*
X0162710Y0347675D02*
X0155085Y0347675D01*
X0155085Y0348674D02*
X0162710Y0348674D01*
X0162710Y0349672D02*
X0155085Y0349672D01*
X0155085Y0350671D02*
X0162710Y0350671D01*
X0162710Y0351669D02*
X0155085Y0351669D01*
X0155085Y0352668D02*
X0162710Y0352668D01*
X0162710Y0353666D02*
X0155085Y0353666D01*
X0155085Y0354665D02*
X0162710Y0354665D01*
X0162710Y0355663D02*
X0155085Y0355663D01*
X0155085Y0356662D02*
X0162710Y0356662D01*
X0162710Y0357660D02*
X0155085Y0357660D01*
X0155085Y0358659D02*
X0162710Y0358659D01*
X0162710Y0359657D02*
X0155085Y0359657D01*
X0155085Y0360656D02*
X0162710Y0360656D01*
X0162710Y0361654D02*
X0155085Y0361654D01*
X0155454Y0362653D02*
X0162710Y0362653D01*
X0162710Y0363651D02*
X0155870Y0363651D01*
X0155975Y0364650D02*
X0162710Y0364650D01*
X0162710Y0365649D02*
X0155811Y0365649D01*
X0155311Y0366647D02*
X0162710Y0366647D01*
X0162710Y0367646D02*
X0155085Y0367646D01*
X0155085Y0368644D02*
X0162710Y0368644D01*
X0162710Y0369643D02*
X0155085Y0369643D01*
X0155085Y0370641D02*
X0162710Y0370641D01*
X0162710Y0371640D02*
X0155085Y0371640D01*
X0155085Y0372638D02*
X0162710Y0372638D01*
X0162710Y0373637D02*
X0155085Y0373637D01*
X0155085Y0374635D02*
X0162710Y0374635D01*
X0162710Y0375634D02*
X0155085Y0375634D01*
X0155085Y0376632D02*
X0158838Y0376632D01*
X0157738Y0377631D02*
X0155085Y0377631D01*
X0155085Y0378629D02*
X0157308Y0378629D01*
X0157194Y0379628D02*
X0155085Y0379628D01*
X0155085Y0380626D02*
X0157349Y0380626D01*
X0157836Y0381625D02*
X0155085Y0381625D01*
X0155085Y0382623D02*
X0159075Y0382623D01*
X0162710Y0383622D02*
X0155085Y0383622D01*
X0155085Y0384620D02*
X0162710Y0384620D01*
X0162710Y0385619D02*
X0155660Y0385619D01*
X0156659Y0386617D02*
X0162710Y0386617D01*
X0162710Y0387616D02*
X0157657Y0387616D01*
X0158656Y0388614D02*
X0162861Y0388614D01*
X0163346Y0389613D02*
X0159654Y0389613D01*
X0160653Y0390611D02*
X0164344Y0390611D01*
X0165343Y0391610D02*
X0161651Y0391610D01*
X0162650Y0392608D02*
X0166341Y0392608D01*
X0167340Y0393607D02*
X0163648Y0393607D01*
X0164647Y0394605D02*
X0168338Y0394605D01*
X0169337Y0395604D02*
X0165645Y0395604D01*
X0166644Y0396602D02*
X0170335Y0396602D01*
X0170710Y0397601D02*
X0167642Y0397601D01*
X0168641Y0398599D02*
X0170710Y0398599D01*
X0170710Y0399598D02*
X0169639Y0399598D01*
X0170638Y0400596D02*
X0170710Y0400596D01*
X0137407Y0393607D02*
X0122585Y0393607D01*
X0122585Y0394605D02*
X0133681Y0394605D01*
X0131533Y0395604D02*
X0122585Y0395604D01*
X0122585Y0396602D02*
X0129803Y0396602D01*
X0128165Y0397601D02*
X0122585Y0397601D01*
X0122585Y0398599D02*
X0127166Y0398599D01*
X0126168Y0399598D02*
X0122585Y0399598D01*
X0122585Y0400596D02*
X0125169Y0400596D01*
X0124321Y0401595D02*
X0122585Y0401595D01*
X0122585Y0402593D02*
X0123744Y0402593D01*
X0123168Y0403592D02*
X0122585Y0403592D01*
X0122585Y0404590D02*
X0122591Y0404590D01*
X0113562Y0340686D02*
X0112990Y0340686D01*
X0113563Y0339687D02*
X0111992Y0339687D01*
X0113564Y0338689D02*
X0110266Y0338689D01*
X0114760Y0318718D02*
X0122205Y0318718D01*
X0119319Y0317720D02*
X0113761Y0317720D01*
X0112763Y0316721D02*
X0117589Y0316721D01*
X0115860Y0315723D02*
X0111764Y0315723D01*
X0110766Y0314724D02*
X0114682Y0314724D01*
X0113684Y0313726D02*
X0109767Y0313726D01*
X0108769Y0312727D02*
X0112685Y0312727D01*
X0111687Y0311729D02*
X0107770Y0311729D01*
X0106772Y0310730D02*
X0111104Y0310730D01*
X0110528Y0309732D02*
X0105773Y0309732D01*
X0105085Y0308733D02*
X0109951Y0308733D01*
X0109375Y0307735D02*
X0105085Y0307735D01*
X0105085Y0306736D02*
X0108912Y0306736D01*
X0108644Y0305738D02*
X0105085Y0305738D01*
X0105085Y0304739D02*
X0108377Y0304739D01*
X0108109Y0303741D02*
X0105085Y0303741D01*
X0105085Y0302742D02*
X0107842Y0302742D01*
X0107633Y0301744D02*
X0105085Y0301744D01*
X0105085Y0300745D02*
X0107633Y0300745D01*
X0107633Y0299747D02*
X0105085Y0299747D01*
X0105085Y0298748D02*
X0107633Y0298748D01*
X0107633Y0297750D02*
X0105085Y0297750D01*
X0105085Y0296751D02*
X0107633Y0296751D01*
X0107871Y0295753D02*
X0105085Y0295753D01*
X0105085Y0294754D02*
X0108138Y0294754D01*
X0108406Y0293756D02*
X0105085Y0293756D01*
X0105085Y0292757D02*
X0108673Y0292757D01*
X0108941Y0291759D02*
X0105085Y0291759D01*
X0105085Y0290760D02*
X0109437Y0290760D01*
X0110013Y0289762D02*
X0105085Y0289762D01*
X0105085Y0288763D02*
X0110589Y0288763D01*
X0111166Y0287765D02*
X0105085Y0287765D01*
X0105085Y0286766D02*
X0111794Y0286766D01*
X0112792Y0285768D02*
X0105085Y0285768D01*
X0105085Y0284769D02*
X0113791Y0284769D01*
X0114790Y0283771D02*
X0105085Y0283771D01*
X0105085Y0282772D02*
X0116046Y0282772D01*
X0117775Y0281774D02*
X0105085Y0281774D01*
X0105085Y0280775D02*
X0119505Y0280775D01*
X0122606Y0279777D02*
X0105085Y0279777D01*
X0096073Y0239836D02*
X0092154Y0239836D01*
X0093806Y0238838D02*
X0096073Y0238838D01*
X0096073Y0237839D02*
X0094805Y0237839D01*
X0095555Y0236841D02*
X0096073Y0236841D01*
X0096073Y0235842D02*
X0095969Y0235842D01*
X0096427Y0206885D02*
X0106625Y0206885D01*
X0102899Y0205887D02*
X0095428Y0205887D01*
X0094430Y0204888D02*
X0100585Y0204888D01*
X0098856Y0203890D02*
X0093431Y0203890D01*
X0092433Y0202891D02*
X0097157Y0202891D01*
X0096158Y0201893D02*
X0091434Y0201893D01*
X0090436Y0200894D02*
X0095160Y0200894D01*
X0094161Y0199896D02*
X0089437Y0199896D01*
X0088439Y0198897D02*
X0093278Y0198897D01*
X0092701Y0197899D02*
X0087440Y0197899D01*
X0086442Y0196900D02*
X0092125Y0196900D01*
X0091548Y0195902D02*
X0085443Y0195902D01*
X0084445Y0194903D02*
X0090972Y0194903D01*
X0090598Y0193905D02*
X0083585Y0193905D01*
X0083585Y0192906D02*
X0090330Y0192906D01*
X0090063Y0191908D02*
X0083585Y0191908D01*
X0083585Y0190909D02*
X0089795Y0190909D01*
X0089528Y0189911D02*
X0083585Y0189911D01*
X0083585Y0188912D02*
X0089396Y0188912D01*
X0089396Y0187913D02*
X0083585Y0187913D01*
X0083585Y0186915D02*
X0089396Y0186915D01*
X0089396Y0185916D02*
X0083585Y0185916D01*
X0083585Y0184918D02*
X0089396Y0184918D01*
X0089443Y0183919D02*
X0083585Y0183919D01*
X0083585Y0182921D02*
X0089710Y0182921D01*
X0089978Y0181922D02*
X0083585Y0181922D01*
X0083585Y0180924D02*
X0090245Y0180924D01*
X0090513Y0179925D02*
X0083585Y0179925D01*
X0083585Y0178927D02*
X0090788Y0178927D01*
X0091365Y0177928D02*
X0083585Y0177928D01*
X0083585Y0176930D02*
X0091941Y0176930D01*
X0092518Y0175931D02*
X0083585Y0175931D01*
X0083585Y0174933D02*
X0093094Y0174933D01*
X0093843Y0173934D02*
X0083585Y0173934D01*
X0083585Y0172936D02*
X0094842Y0172936D01*
X0095840Y0171937D02*
X0083585Y0171937D01*
X0083585Y0170939D02*
X0096839Y0170939D01*
X0098305Y0169940D02*
X0083585Y0169940D01*
X0083585Y0168942D02*
X0100034Y0168942D01*
X0101764Y0167943D02*
X0083585Y0167943D01*
X0083585Y0166945D02*
X0105438Y0166945D01*
X0117927Y0158957D02*
X0083585Y0158957D01*
X0083585Y0159955D02*
X0118926Y0159955D01*
X0119924Y0160954D02*
X0083585Y0160954D01*
X0083585Y0161952D02*
X0120923Y0161952D01*
X0121921Y0162951D02*
X0083585Y0162951D01*
X0083585Y0163949D02*
X0122920Y0163949D01*
X0123918Y0164948D02*
X0083585Y0164948D01*
X0083585Y0165946D02*
X0124917Y0165946D01*
X0103295Y0119016D02*
X0149816Y0119016D01*
X0148729Y0118018D02*
X0102297Y0118018D01*
X0094880Y0095902D02*
X0089738Y0097280D01*
X0084415Y0097280D01*
X0079273Y0095902D01*
X0074664Y0093240D01*
X0070900Y0089476D01*
X0068238Y0084866D01*
X0066860Y0079725D01*
X0066860Y0074401D01*
X0068238Y0069260D01*
X0070900Y0064650D01*
X0074664Y0060886D01*
X0079273Y0058224D01*
X0084415Y0056846D01*
X0089738Y0056846D01*
X0094880Y0058224D01*
X0099490Y0060886D01*
X0103254Y0064650D01*
X0105916Y0069260D01*
X0107293Y0074401D01*
X0107293Y0079725D01*
X0105916Y0084866D01*
X0103254Y0089476D01*
X0099490Y0093240D01*
X0094880Y0095902D01*
X0094325Y0096050D02*
X0249536Y0096050D01*
X0248319Y0097049D02*
X0090599Y0097049D01*
X0096352Y0095052D02*
X0260645Y0095052D01*
X0258916Y0094053D02*
X0098082Y0094053D01*
X0099675Y0093055D02*
X0257336Y0093055D01*
X0256338Y0092056D02*
X0100674Y0092056D01*
X0101672Y0091058D02*
X0255339Y0091058D01*
X0254341Y0090059D02*
X0102671Y0090059D01*
X0103494Y0089061D02*
X0253526Y0089061D01*
X0252950Y0088062D02*
X0104070Y0088062D01*
X0104647Y0087064D02*
X0252373Y0087064D01*
X0251797Y0086065D02*
X0105223Y0086065D01*
X0105800Y0085067D02*
X0251220Y0085067D01*
X0250897Y0084068D02*
X0106129Y0084068D01*
X0106397Y0083070D02*
X0250629Y0083070D01*
X0250362Y0082071D02*
X0106664Y0082071D01*
X0106932Y0081073D02*
X0250094Y0081073D01*
X0249827Y0080074D02*
X0107200Y0080074D01*
X0107293Y0079076D02*
X0249738Y0079076D01*
X0249738Y0078077D02*
X0107293Y0078077D01*
X0107293Y0077079D02*
X0249738Y0077079D01*
X0249738Y0076080D02*
X0107293Y0076080D01*
X0107293Y0075082D02*
X0249738Y0075082D01*
X0249829Y0074083D02*
X0107208Y0074083D01*
X0106940Y0073085D02*
X0250096Y0073085D01*
X0250364Y0072086D02*
X0106673Y0072086D01*
X0106405Y0071088D02*
X0250631Y0071088D01*
X0250899Y0070089D02*
X0106138Y0070089D01*
X0105818Y0069091D02*
X0251225Y0069091D01*
X0251801Y0068092D02*
X0105241Y0068092D01*
X0104665Y0067094D02*
X0252378Y0067094D01*
X0252954Y0066095D02*
X0104088Y0066095D01*
X0103512Y0065097D02*
X0253531Y0065097D01*
X0254349Y0064098D02*
X0102702Y0064098D01*
X0101704Y0063100D02*
X0255347Y0063100D01*
X0256346Y0062101D02*
X0100705Y0062101D01*
X0099707Y0061103D02*
X0257344Y0061103D01*
X0258929Y0060104D02*
X0098136Y0060104D01*
X0096407Y0059106D02*
X0260659Y0059106D01*
X0262662Y0058107D02*
X0094443Y0058107D01*
X0090716Y0057109D02*
X0266389Y0057109D01*
X0262633Y0096050D02*
X0252634Y0096050D01*
X0247842Y0098047D02*
X0038519Y0098047D01*
X0038212Y0097049D02*
X0083555Y0097049D01*
X0079828Y0096050D02*
X0037904Y0096050D01*
X0037597Y0095052D02*
X0077802Y0095052D01*
X0076072Y0094053D02*
X0037290Y0094053D01*
X0036982Y0093055D02*
X0074478Y0093055D01*
X0073480Y0092056D02*
X0036675Y0092056D01*
X0036367Y0091058D02*
X0072481Y0091058D01*
X0071483Y0090059D02*
X0036060Y0090059D01*
X0035753Y0089061D02*
X0070660Y0089061D01*
X0070083Y0088062D02*
X0035445Y0088062D01*
X0035138Y0087064D02*
X0069507Y0087064D01*
X0068930Y0086065D02*
X0034831Y0086065D01*
X0034523Y0085067D02*
X0068354Y0085067D01*
X0068024Y0084068D02*
X0034216Y0084068D01*
X0033908Y0083070D02*
X0067757Y0083070D01*
X0067489Y0082071D02*
X0033601Y0082071D01*
X0033294Y0081073D02*
X0067222Y0081073D01*
X0066954Y0080074D02*
X0032986Y0080074D01*
X0032679Y0079076D02*
X0066860Y0079076D01*
X0066860Y0078077D02*
X0032371Y0078077D01*
X0032064Y0077079D02*
X0066860Y0077079D01*
X0066860Y0076080D02*
X0031757Y0076080D01*
X0031449Y0075082D02*
X0066860Y0075082D01*
X0066945Y0074083D02*
X0031142Y0074083D01*
X0030835Y0073085D02*
X0067213Y0073085D01*
X0067481Y0072086D02*
X0030527Y0072086D01*
X0030220Y0071088D02*
X0067748Y0071088D01*
X0068016Y0070089D02*
X0029912Y0070089D01*
X0029605Y0069091D02*
X0068336Y0069091D01*
X0068912Y0068092D02*
X0029298Y0068092D01*
X0028990Y0067094D02*
X0069489Y0067094D01*
X0070065Y0066095D02*
X0028683Y0066095D01*
X0028376Y0065097D02*
X0070642Y0065097D01*
X0071451Y0064098D02*
X0028068Y0064098D01*
X0027761Y0063100D02*
X0072450Y0063100D01*
X0073448Y0062101D02*
X0027453Y0062101D01*
X0027146Y0061103D02*
X0074447Y0061103D01*
X0076017Y0060104D02*
X0026839Y0060104D01*
X0026531Y0059106D02*
X0077747Y0059106D01*
X0079711Y0058107D02*
X0026224Y0058107D01*
X0025916Y0057109D02*
X0083437Y0057109D01*
X0061403Y0012176D02*
X0301089Y0012176D01*
X0303765Y0013174D02*
X0057185Y0013174D01*
X0052968Y0014173D02*
X0306441Y0014173D01*
X0309117Y0015171D02*
X0048750Y0015171D01*
X0044533Y0016170D02*
X0311793Y0016170D01*
X0314470Y0017168D02*
X0040316Y0017168D01*
X0036098Y0018167D02*
X0317146Y0018167D01*
X0319822Y0019165D02*
X0031881Y0019165D01*
X0027663Y0020164D02*
X0322498Y0020164D01*
X0325174Y0021162D02*
X0023446Y0021162D01*
X0065620Y0011177D02*
X0298413Y0011177D01*
X0295737Y0010178D02*
X0069838Y0010178D01*
X0074055Y0009180D02*
X0293061Y0009180D01*
X0290385Y0008181D02*
X0078273Y0008181D01*
X0082490Y0007183D02*
X0287709Y0007183D01*
X0285033Y0006184D02*
X0086707Y0006184D01*
X0090925Y0005186D02*
X0282357Y0005186D01*
X0279680Y0004187D02*
X0095142Y0004187D01*
X0038827Y0099046D02*
X0247694Y0099046D01*
X0249274Y0102042D02*
X0226842Y0102042D01*
X0227324Y0103040D02*
X0250273Y0103040D01*
X0251272Y0104039D02*
X0227475Y0104039D01*
X0227358Y0105037D02*
X0252270Y0105037D01*
X0253269Y0106036D02*
X0226923Y0106036D01*
X0226585Y0107034D02*
X0254267Y0107034D01*
X0255266Y0108033D02*
X0226585Y0108033D01*
X0226585Y0109031D02*
X0256264Y0109031D01*
X0257263Y0110030D02*
X0226585Y0110030D01*
X0226585Y0111028D02*
X0258261Y0111028D01*
X0259260Y0112027D02*
X0226585Y0112027D01*
X0226585Y0113025D02*
X0260258Y0113025D01*
X0261257Y0114024D02*
X0226585Y0114024D01*
X0226585Y0115022D02*
X0262255Y0115022D01*
X0263254Y0116021D02*
X0226585Y0116021D01*
X0226585Y0117019D02*
X0264252Y0117019D01*
X0265251Y0118018D02*
X0226585Y0118018D01*
X0226585Y0119016D02*
X0266249Y0119016D01*
X0267248Y0120015D02*
X0226585Y0120015D01*
X0226585Y0121013D02*
X0268246Y0121013D01*
X0269245Y0122012D02*
X0226585Y0122012D01*
X0226585Y0123010D02*
X0270243Y0123010D01*
X0271242Y0124009D02*
X0226585Y0124009D01*
X0226585Y0125007D02*
X0272240Y0125007D01*
X0273239Y0126006D02*
X0226585Y0126006D01*
X0226585Y0127004D02*
X0274237Y0127004D01*
X0275236Y0128003D02*
X0227544Y0128003D01*
X0228543Y0129001D02*
X0276234Y0129001D01*
X0277233Y0130000D02*
X0229541Y0130000D01*
X0230540Y0130998D02*
X0278231Y0130998D01*
X0278710Y0131997D02*
X0231538Y0131997D01*
X0232537Y0132995D02*
X0278710Y0132995D01*
X0278710Y0133994D02*
X0233535Y0133994D01*
X0234534Y0134992D02*
X0278710Y0134992D01*
X0278710Y0135991D02*
X0235532Y0135991D01*
X0236531Y0136989D02*
X0278710Y0136989D01*
X0278710Y0137988D02*
X0237529Y0137988D01*
X0238528Y0138986D02*
X0278710Y0138986D01*
X0278710Y0139985D02*
X0239526Y0139985D01*
X0240525Y0140983D02*
X0278710Y0140983D01*
X0278710Y0141982D02*
X0241523Y0141982D01*
X0242522Y0142980D02*
X0278710Y0142980D01*
X0278710Y0143979D02*
X0243520Y0143979D01*
X0244519Y0144978D02*
X0278710Y0144978D01*
X0278710Y0145976D02*
X0245517Y0145976D01*
X0246516Y0146975D02*
X0278710Y0146975D01*
X0278710Y0147973D02*
X0247514Y0147973D01*
X0248513Y0148972D02*
X0278710Y0148972D01*
X0278710Y0149970D02*
X0249512Y0149970D01*
X0250510Y0150969D02*
X0278710Y0150969D01*
X0278710Y0151967D02*
X0251509Y0151967D01*
X0252507Y0152966D02*
X0278710Y0152966D01*
X0278710Y0153964D02*
X0253506Y0153964D01*
X0254504Y0154963D02*
X0278710Y0154963D01*
X0278710Y0155961D02*
X0255503Y0155961D01*
X0256501Y0156960D02*
X0278710Y0156960D01*
X0278710Y0157958D02*
X0257500Y0157958D01*
X0258498Y0158957D02*
X0278710Y0158957D01*
X0278710Y0159955D02*
X0259497Y0159955D01*
X0260495Y0160954D02*
X0278710Y0160954D01*
X0278710Y0161952D02*
X0261494Y0161952D01*
X0262492Y0162951D02*
X0278710Y0162951D01*
X0278710Y0163949D02*
X0263491Y0163949D01*
X0264489Y0164948D02*
X0278710Y0164948D01*
X0278710Y0165946D02*
X0265488Y0165946D01*
X0267378Y0166945D02*
X0278710Y0166945D01*
X0278710Y0167943D02*
X0268744Y0167943D01*
X0269284Y0168942D02*
X0278710Y0168942D01*
X0278710Y0169940D02*
X0269475Y0169940D01*
X0269398Y0170939D02*
X0278710Y0170939D01*
X0278710Y0171937D02*
X0268985Y0171937D01*
X0268023Y0172936D02*
X0278710Y0172936D01*
X0278710Y0173934D02*
X0220985Y0173934D01*
X0220985Y0172936D02*
X0264147Y0172936D01*
X0263185Y0171937D02*
X0220985Y0171937D01*
X0220985Y0170939D02*
X0262771Y0170939D01*
X0262411Y0169940D02*
X0220985Y0169940D01*
X0220985Y0168942D02*
X0261412Y0168942D01*
X0260414Y0167943D02*
X0220985Y0167943D01*
X0220985Y0166945D02*
X0259415Y0166945D01*
X0258417Y0165946D02*
X0220985Y0165946D01*
X0220985Y0164948D02*
X0257418Y0164948D01*
X0256420Y0163949D02*
X0220985Y0163949D01*
X0220985Y0162951D02*
X0255421Y0162951D01*
X0254423Y0161952D02*
X0220985Y0161952D01*
X0220985Y0160954D02*
X0253424Y0160954D01*
X0252426Y0159955D02*
X0220985Y0159955D01*
X0220985Y0158957D02*
X0251427Y0158957D01*
X0250429Y0157958D02*
X0220985Y0157958D01*
X0220985Y0156960D02*
X0249430Y0156960D01*
X0248432Y0155961D02*
X0220985Y0155961D01*
X0220985Y0154963D02*
X0247433Y0154963D01*
X0246434Y0153964D02*
X0220985Y0153964D01*
X0220985Y0152966D02*
X0245436Y0152966D01*
X0244437Y0151967D02*
X0220985Y0151967D01*
X0220985Y0150969D02*
X0243439Y0150969D01*
X0242440Y0149970D02*
X0220985Y0149970D01*
X0220985Y0148972D02*
X0241442Y0148972D01*
X0240443Y0147973D02*
X0220985Y0147973D01*
X0220985Y0146975D02*
X0239445Y0146975D01*
X0238446Y0145976D02*
X0220985Y0145976D01*
X0220985Y0144978D02*
X0237448Y0144978D01*
X0236449Y0143979D02*
X0220985Y0143979D01*
X0220985Y0142980D02*
X0235451Y0142980D01*
X0234452Y0141982D02*
X0220985Y0141982D01*
X0220985Y0140983D02*
X0233454Y0140983D01*
X0232455Y0139985D02*
X0220985Y0139985D01*
X0220985Y0138986D02*
X0231457Y0138986D01*
X0230458Y0137988D02*
X0220985Y0137988D01*
X0220985Y0136989D02*
X0229460Y0136989D01*
X0228461Y0135991D02*
X0220985Y0135991D01*
X0220688Y0134992D02*
X0227463Y0134992D01*
X0226464Y0133994D02*
X0219808Y0133994D01*
X0218810Y0132995D02*
X0225466Y0132995D01*
X0224467Y0131997D02*
X0217811Y0131997D01*
X0216813Y0130998D02*
X0223469Y0130998D01*
X0222470Y0130000D02*
X0215814Y0130000D01*
X0214816Y0129001D02*
X0221761Y0129001D01*
X0221585Y0128003D02*
X0213817Y0128003D01*
X0212819Y0127004D02*
X0221585Y0127004D01*
X0221585Y0126006D02*
X0211820Y0126006D01*
X0210822Y0125007D02*
X0221585Y0125007D01*
X0221585Y0124009D02*
X0209823Y0124009D01*
X0208825Y0123010D02*
X0221585Y0123010D01*
X0221585Y0122012D02*
X0207826Y0122012D01*
X0206827Y0121013D02*
X0221585Y0121013D01*
X0221585Y0120015D02*
X0205829Y0120015D01*
X0204830Y0119016D02*
X0221585Y0119016D01*
X0221585Y0118018D02*
X0203832Y0118018D01*
X0202833Y0117019D02*
X0221585Y0117019D01*
X0221585Y0116021D02*
X0201835Y0116021D01*
X0200836Y0115022D02*
X0221585Y0115022D01*
X0221585Y0114024D02*
X0199838Y0114024D01*
X0198839Y0113025D02*
X0221585Y0113025D01*
X0221585Y0112027D02*
X0197841Y0112027D01*
X0196842Y0111028D02*
X0221585Y0111028D01*
X0224085Y0104079D02*
X0224085Y0128079D01*
X0266085Y0170079D01*
X0272443Y0179925D02*
X0220985Y0179925D01*
X0220985Y0178927D02*
X0273834Y0178927D01*
X0276335Y0178927D02*
X0278710Y0178927D01*
X0278710Y0179925D02*
X0277726Y0179925D01*
X0278276Y0180924D02*
X0278710Y0180924D01*
X0278710Y0181922D02*
X0278475Y0181922D01*
X0278406Y0182921D02*
X0278710Y0182921D01*
X0278710Y0183919D02*
X0277992Y0183919D01*
X0277585Y0184918D02*
X0278710Y0184918D01*
X0278710Y0185916D02*
X0277585Y0185916D01*
X0277585Y0186915D02*
X0278710Y0186915D01*
X0278710Y0187913D02*
X0277585Y0187913D01*
X0277585Y0188912D02*
X0278710Y0188912D01*
X0278710Y0189911D02*
X0277585Y0189911D01*
X0277585Y0190909D02*
X0278710Y0190909D01*
X0278710Y0191908D02*
X0277585Y0191908D01*
X0277585Y0192906D02*
X0278710Y0192906D01*
X0278710Y0193905D02*
X0277585Y0193905D01*
X0277585Y0194903D02*
X0278710Y0194903D01*
X0278710Y0195902D02*
X0277585Y0195902D01*
X0277585Y0196900D02*
X0278710Y0196900D01*
X0278710Y0197899D02*
X0277585Y0197899D01*
X0277585Y0198897D02*
X0278710Y0198897D01*
X0278710Y0199896D02*
X0277245Y0199896D01*
X0276305Y0200894D02*
X0278710Y0200894D01*
X0278498Y0201893D02*
X0275306Y0201893D01*
X0274585Y0202891D02*
X0277499Y0202891D01*
X0276501Y0203890D02*
X0274585Y0203890D01*
X0274585Y0204888D02*
X0275502Y0204888D01*
X0272085Y0201579D02*
X0275085Y0198579D01*
X0275085Y0182079D01*
X0271893Y0180924D02*
X0220985Y0180924D01*
X0220985Y0181922D02*
X0271694Y0181922D01*
X0271764Y0182921D02*
X0220985Y0182921D01*
X0220985Y0183919D02*
X0272177Y0183919D01*
X0272585Y0184918D02*
X0220985Y0184918D01*
X0220985Y0185916D02*
X0272585Y0185916D01*
X0272585Y0186915D02*
X0220985Y0186915D01*
X0220985Y0187913D02*
X0272585Y0187913D01*
X0272585Y0188912D02*
X0220985Y0188912D01*
X0220985Y0189911D02*
X0272585Y0189911D01*
X0272585Y0190909D02*
X0220985Y0190909D01*
X0220985Y0191908D02*
X0272585Y0191908D01*
X0272585Y0192906D02*
X0220985Y0192906D01*
X0220985Y0193905D02*
X0272585Y0193905D01*
X0272585Y0194903D02*
X0220985Y0194903D01*
X0220985Y0195902D02*
X0272585Y0195902D01*
X0272585Y0196900D02*
X0220985Y0196900D01*
X0220985Y0197899D02*
X0272229Y0197899D01*
X0271231Y0198897D02*
X0220985Y0198897D01*
X0220985Y0199896D02*
X0270232Y0199896D01*
X0269662Y0200894D02*
X0220985Y0200894D01*
X0220985Y0201893D02*
X0269585Y0201893D01*
X0269585Y0202891D02*
X0220985Y0202891D01*
X0220985Y0203890D02*
X0269585Y0203890D01*
X0269585Y0204888D02*
X0249626Y0204888D01*
X0251262Y0205327D02*
X0246120Y0203949D01*
X0240797Y0203949D01*
X0235655Y0205327D01*
X0231045Y0207988D01*
X0227281Y0211752D01*
X0224620Y0216362D01*
X0223242Y0221504D01*
X0223242Y0226827D01*
X0224620Y0231969D01*
X0227281Y0236579D01*
X0231045Y0240343D01*
X0235655Y0243004D01*
X0240797Y0244382D01*
X0246120Y0244382D01*
X0251262Y0243004D01*
X0255872Y0240343D01*
X0259636Y0236579D01*
X0262297Y0231969D01*
X0263675Y0226827D01*
X0263675Y0221504D01*
X0262297Y0216362D01*
X0259636Y0211752D01*
X0255872Y0207988D01*
X0251262Y0205327D01*
X0252232Y0205887D02*
X0269585Y0205887D01*
X0269585Y0206885D02*
X0253962Y0206885D01*
X0255691Y0207884D02*
X0269585Y0207884D01*
X0269585Y0208882D02*
X0256766Y0208882D01*
X0257765Y0209881D02*
X0269585Y0209881D01*
X0269585Y0210879D02*
X0258763Y0210879D01*
X0259708Y0211878D02*
X0269585Y0211878D01*
X0269585Y0212876D02*
X0260285Y0212876D01*
X0260861Y0213875D02*
X0269585Y0213875D01*
X0269585Y0214873D02*
X0261438Y0214873D01*
X0262014Y0215872D02*
X0269585Y0215872D01*
X0269585Y0216870D02*
X0262434Y0216870D01*
X0262701Y0217869D02*
X0269585Y0217869D01*
X0269585Y0218867D02*
X0262969Y0218867D01*
X0263236Y0219866D02*
X0269585Y0219866D01*
X0269585Y0220864D02*
X0263504Y0220864D01*
X0263675Y0221863D02*
X0269585Y0221863D01*
X0269585Y0222861D02*
X0263675Y0222861D01*
X0263675Y0223860D02*
X0269585Y0223860D01*
X0269585Y0224858D02*
X0263675Y0224858D01*
X0263675Y0225857D02*
X0269585Y0225857D01*
X0269585Y0226855D02*
X0263668Y0226855D01*
X0263400Y0227854D02*
X0269585Y0227854D01*
X0269585Y0228852D02*
X0263132Y0228852D01*
X0262865Y0229851D02*
X0269585Y0229851D01*
X0269585Y0230849D02*
X0262597Y0230849D01*
X0262330Y0231848D02*
X0269585Y0231848D01*
X0269585Y0232847D02*
X0261791Y0232847D01*
X0261214Y0233845D02*
X0269585Y0233845D01*
X0269585Y0234844D02*
X0260638Y0234844D01*
X0260061Y0235842D02*
X0269585Y0235842D01*
X0268787Y0236841D02*
X0259374Y0236841D01*
X0258375Y0237839D02*
X0267789Y0237839D01*
X0266790Y0238838D02*
X0257377Y0238838D01*
X0256378Y0239836D02*
X0265792Y0239836D01*
X0264793Y0240835D02*
X0255020Y0240835D01*
X0253290Y0241833D02*
X0263795Y0241833D01*
X0262796Y0242832D02*
X0251561Y0242832D01*
X0248179Y0243830D02*
X0261798Y0243830D01*
X0260799Y0244829D02*
X0220985Y0244829D01*
X0220985Y0245827D02*
X0259801Y0245827D01*
X0258802Y0246826D02*
X0220985Y0246826D01*
X0220985Y0247824D02*
X0257804Y0247824D01*
X0256805Y0248823D02*
X0220985Y0248823D01*
X0220985Y0249821D02*
X0255807Y0249821D01*
X0254808Y0250820D02*
X0220985Y0250820D01*
X0220985Y0251818D02*
X0253810Y0251818D01*
X0252811Y0252817D02*
X0220985Y0252817D01*
X0220985Y0253815D02*
X0251813Y0253815D01*
X0250814Y0254814D02*
X0220985Y0254814D01*
X0220985Y0255812D02*
X0249816Y0255812D01*
X0248817Y0256811D02*
X0220985Y0256811D01*
X0220985Y0257809D02*
X0247819Y0257809D01*
X0246820Y0258808D02*
X0220985Y0258808D01*
X0220985Y0259806D02*
X0245822Y0259806D01*
X0244823Y0260805D02*
X0220985Y0260805D01*
X0221118Y0261803D02*
X0243825Y0261803D01*
X0242826Y0262802D02*
X0222116Y0262802D01*
X0223115Y0263800D02*
X0241827Y0263800D01*
X0240829Y0264799D02*
X0224113Y0264799D01*
X0225112Y0265797D02*
X0239830Y0265797D01*
X0238832Y0266796D02*
X0226110Y0266796D01*
X0227109Y0267794D02*
X0237833Y0267794D01*
X0235576Y0268793D02*
X0228107Y0268793D01*
X0229106Y0269791D02*
X0234655Y0269791D01*
X0234241Y0270790D02*
X0230104Y0270790D01*
X0231103Y0271788D02*
X0234194Y0271788D01*
X0234415Y0272787D02*
X0232101Y0272787D01*
X0233100Y0273785D02*
X0234996Y0273785D01*
X0234098Y0274784D02*
X0236463Y0274784D01*
X0235097Y0275782D02*
X0238210Y0275782D01*
X0238210Y0276781D02*
X0236095Y0276781D01*
X0237094Y0277780D02*
X0238210Y0277780D01*
X0238210Y0278778D02*
X0237485Y0278778D01*
X0237485Y0279777D02*
X0238210Y0279777D01*
X0238210Y0280775D02*
X0237485Y0280775D01*
X0237485Y0281774D02*
X0238210Y0281774D01*
X0238210Y0282772D02*
X0237485Y0282772D01*
X0237485Y0283771D02*
X0238210Y0283771D01*
X0238210Y0284769D02*
X0237485Y0284769D01*
X0237485Y0285768D02*
X0238210Y0285768D01*
X0238210Y0286766D02*
X0237485Y0286766D01*
X0237485Y0287765D02*
X0238210Y0287765D01*
X0238210Y0288763D02*
X0237485Y0288763D01*
X0237485Y0289762D02*
X0238210Y0289762D01*
X0238210Y0290760D02*
X0237485Y0290760D01*
X0237485Y0291759D02*
X0238210Y0291759D01*
X0238210Y0292757D02*
X0237485Y0292757D01*
X0237485Y0293756D02*
X0238210Y0293756D01*
X0238210Y0294754D02*
X0237485Y0294754D01*
X0237485Y0295753D02*
X0238210Y0295753D01*
X0238210Y0296751D02*
X0237485Y0296751D01*
X0237485Y0297750D02*
X0238210Y0297750D01*
X0238210Y0298748D02*
X0237485Y0298748D01*
X0237485Y0299747D02*
X0238210Y0299747D01*
X0238210Y0300745D02*
X0237485Y0300745D01*
X0237485Y0301744D02*
X0238210Y0301744D01*
X0238210Y0302742D02*
X0237485Y0302742D01*
X0237485Y0303741D02*
X0238210Y0303741D01*
X0238210Y0304739D02*
X0237485Y0304739D01*
X0237585Y0271579D02*
X0272085Y0237079D01*
X0272085Y0201579D01*
X0278710Y0177928D02*
X0220985Y0177928D01*
X0220985Y0176930D02*
X0278710Y0176930D01*
X0278710Y0175931D02*
X0220985Y0175931D01*
X0220985Y0174933D02*
X0278710Y0174933D01*
X0237291Y0204888D02*
X0220985Y0204888D01*
X0220985Y0205887D02*
X0234685Y0205887D01*
X0232956Y0206885D02*
X0220985Y0206885D01*
X0220985Y0207884D02*
X0231226Y0207884D01*
X0230151Y0208882D02*
X0220985Y0208882D01*
X0220985Y0209881D02*
X0229153Y0209881D01*
X0228154Y0210879D02*
X0220985Y0210879D01*
X0220985Y0211878D02*
X0227209Y0211878D01*
X0226632Y0212876D02*
X0220985Y0212876D01*
X0220985Y0213875D02*
X0226056Y0213875D01*
X0225479Y0214873D02*
X0220985Y0214873D01*
X0220985Y0215872D02*
X0224903Y0215872D01*
X0224484Y0216870D02*
X0220985Y0216870D01*
X0220985Y0217869D02*
X0224216Y0217869D01*
X0223949Y0218867D02*
X0220985Y0218867D01*
X0220985Y0219866D02*
X0223681Y0219866D01*
X0223413Y0220864D02*
X0220985Y0220864D01*
X0220985Y0221863D02*
X0223242Y0221863D01*
X0223242Y0222861D02*
X0220985Y0222861D01*
X0220985Y0223860D02*
X0223242Y0223860D01*
X0223242Y0224858D02*
X0220985Y0224858D01*
X0220985Y0225857D02*
X0223242Y0225857D01*
X0223250Y0226855D02*
X0220985Y0226855D01*
X0220985Y0227854D02*
X0223517Y0227854D01*
X0223785Y0228852D02*
X0220985Y0228852D01*
X0220985Y0229851D02*
X0224052Y0229851D01*
X0224320Y0230849D02*
X0220985Y0230849D01*
X0220985Y0231848D02*
X0224588Y0231848D01*
X0225127Y0232847D02*
X0220985Y0232847D01*
X0220985Y0233845D02*
X0225703Y0233845D01*
X0226280Y0234844D02*
X0220985Y0234844D01*
X0220985Y0235842D02*
X0226856Y0235842D01*
X0227543Y0236841D02*
X0220985Y0236841D01*
X0220985Y0237839D02*
X0228542Y0237839D01*
X0229540Y0238838D02*
X0220985Y0238838D01*
X0220985Y0239836D02*
X0230539Y0239836D01*
X0231898Y0240835D02*
X0220985Y0240835D01*
X0220985Y0241833D02*
X0233627Y0241833D01*
X0235357Y0242832D02*
X0220985Y0242832D01*
X0220985Y0243830D02*
X0238738Y0243830D01*
X0267654Y0263800D02*
X0283464Y0263800D01*
X0283356Y0264799D02*
X0269029Y0264799D01*
X0270028Y0265797D02*
X0283248Y0265797D01*
X0283140Y0266796D02*
X0270664Y0266796D01*
X0271077Y0267794D02*
X0283032Y0267794D01*
X0282924Y0268793D02*
X0271491Y0268793D01*
X0271549Y0269791D02*
X0282816Y0269791D01*
X0282708Y0270790D02*
X0271549Y0270790D01*
X0271549Y0271788D02*
X0282601Y0271788D01*
X0282493Y0272787D02*
X0271189Y0272787D01*
X0270775Y0273785D02*
X0282385Y0273785D01*
X0282277Y0274784D02*
X0270297Y0274784D01*
X0269298Y0275782D02*
X0282169Y0275782D01*
X0282061Y0276781D02*
X0268300Y0276781D01*
X0268479Y0345678D02*
X0276972Y0345678D01*
X0276949Y0346677D02*
X0269174Y0346677D01*
X0269475Y0347675D02*
X0276927Y0347675D01*
X0276904Y0348674D02*
X0269475Y0348674D01*
X0269094Y0349672D02*
X0276881Y0349672D01*
X0276858Y0350671D02*
X0268287Y0350671D01*
X0192085Y0496079D02*
X0173585Y0515579D01*
X0134085Y0515579D01*
X0155085Y0316721D02*
X0162710Y0316721D01*
X0162710Y0315723D02*
X0155085Y0315723D01*
X0155085Y0314724D02*
X0162710Y0314724D01*
X0162710Y0313726D02*
X0155085Y0313726D01*
X0155085Y0312727D02*
X0162710Y0312727D01*
X0162710Y0311729D02*
X0155085Y0311729D01*
X0155085Y0310730D02*
X0162710Y0310730D01*
X0162710Y0309732D02*
X0155085Y0309732D01*
X0155085Y0308733D02*
X0162710Y0308733D01*
X0162710Y0307735D02*
X0155085Y0307735D01*
X0155085Y0306736D02*
X0162710Y0306736D01*
X0162710Y0305738D02*
X0155085Y0305738D01*
X0155085Y0304739D02*
X0162710Y0304739D01*
X0162710Y0303741D02*
X0155085Y0303741D01*
X0155085Y0302742D02*
X0162710Y0302742D01*
X0162710Y0301744D02*
X0155085Y0301744D01*
X0155085Y0300745D02*
X0162710Y0300745D01*
X0162710Y0299747D02*
X0155085Y0299747D01*
X0155085Y0298748D02*
X0162710Y0298748D01*
X0162710Y0297750D02*
X0155085Y0297750D01*
X0155085Y0296751D02*
X0162710Y0296751D01*
X0162710Y0295753D02*
X0155085Y0295753D01*
X0155085Y0294754D02*
X0162710Y0294754D01*
X0162710Y0293756D02*
X0155085Y0293756D01*
X0155085Y0292757D02*
X0162710Y0292757D01*
X0162710Y0291759D02*
X0155085Y0291759D01*
X0155085Y0290760D02*
X0162710Y0290760D01*
X0162710Y0289762D02*
X0155085Y0289762D01*
X0155085Y0288763D02*
X0162710Y0288763D01*
X0162710Y0287765D02*
X0155085Y0287765D01*
X0155085Y0286766D02*
X0162710Y0286766D01*
X0162001Y0285768D02*
X0155085Y0285768D01*
X0154748Y0284769D02*
X0161002Y0284769D01*
X0160004Y0283771D02*
X0153812Y0283771D01*
X0152814Y0282772D02*
X0159005Y0282772D01*
X0158007Y0281774D02*
X0151815Y0281774D01*
X0150816Y0280775D02*
X0157008Y0280775D01*
X0156009Y0279777D02*
X0149818Y0279777D01*
X0148819Y0278778D02*
X0155011Y0278778D01*
X0154012Y0277780D02*
X0147821Y0277780D01*
X0146822Y0276781D02*
X0153014Y0276781D01*
X0152015Y0275782D02*
X0145824Y0275782D01*
X0144825Y0274784D02*
X0151017Y0274784D01*
X0150018Y0273785D02*
X0143827Y0273785D01*
X0142828Y0272787D02*
X0149020Y0272787D01*
X0148021Y0271788D02*
X0141830Y0271788D01*
X0140831Y0270790D02*
X0147023Y0270790D01*
X0146024Y0269791D02*
X0139833Y0269791D01*
X0138834Y0268793D02*
X0145004Y0268793D01*
X0144418Y0267794D02*
X0138585Y0267794D01*
X0138585Y0266796D02*
X0144194Y0266796D01*
X0144210Y0265797D02*
X0138585Y0265797D01*
X0138585Y0264799D02*
X0144210Y0264799D01*
X0144210Y0263800D02*
X0138585Y0263800D01*
X0138585Y0262802D02*
X0144210Y0262802D01*
X0144210Y0261803D02*
X0138585Y0261803D01*
X0138585Y0260805D02*
X0144210Y0260805D01*
X0144210Y0259806D02*
X0138585Y0259806D01*
X0138585Y0258808D02*
X0144210Y0258808D01*
D12*
X0141085Y0258079D03*
X0136085Y0248579D03*
X0126085Y0258079D03*
X0147585Y0266579D03*
X0164585Y0260079D03*
X0174085Y0263079D03*
X0164585Y0229579D03*
X0178835Y0197579D03*
X0178835Y0171329D03*
X0173835Y0138329D03*
X0173085Y0131579D03*
X0167585Y0129579D03*
X0169124Y0115539D03*
X0173485Y0111179D03*
X0183835Y0106579D03*
X0188085Y0119079D03*
X0188085Y0133079D03*
X0151585Y0116079D03*
X0138585Y0088079D03*
X0123335Y0094829D03*
X0126085Y0110579D03*
X0115085Y0145079D03*
X0102585Y0145079D03*
X0102085Y0139579D03*
X0095085Y0125079D03*
X0097085Y0116079D03*
X0135585Y0156079D03*
X0187335Y0226329D03*
X0237585Y0271579D03*
X0240085Y0263079D03*
X0236485Y0308579D03*
X0231685Y0308579D03*
X0228085Y0318079D03*
X0221085Y0318079D03*
X0221085Y0330079D03*
X0228085Y0330079D03*
X0231685Y0334679D03*
X0236045Y0339039D03*
X0248585Y0343579D03*
X0259085Y0327579D03*
X0266335Y0318079D03*
X0266085Y0348079D03*
X0211085Y0398079D03*
X0181085Y0344079D03*
X0173585Y0351579D03*
X0173585Y0360079D03*
X0158085Y0372079D03*
X0160585Y0379579D03*
X0152585Y0364579D03*
X0141585Y0372079D03*
X0169585Y0398079D03*
X0164085Y0418079D03*
X0169085Y0420579D03*
X0169085Y0427579D03*
X0181085Y0461079D03*
X0174085Y0497079D03*
X0134085Y0515579D03*
X0130085Y0520079D03*
X0117585Y0485079D03*
X0107585Y0485153D03*
X0174085Y0334579D03*
X0229085Y0456079D03*
X0229085Y0491079D03*
X0236685Y0491079D03*
X0241485Y0491079D03*
X0282085Y0203079D03*
X0275085Y0182079D03*
X0274085Y0174079D03*
X0266085Y0170079D03*
X0251085Y0099079D03*
X0224085Y0104079D03*
X0223085Y0097079D03*
D13*
X0274085Y0148079D01*
X0274085Y0174079D01*
X0268112Y0180051D01*
X0268112Y0235051D01*
X0240085Y0263079D01*
X0241585Y0274579D02*
X0241585Y0323579D01*
X0241585Y0343579D01*
X0246085Y0348079D01*
X0266085Y0348079D01*
X0271085Y0362079D02*
X0235085Y0398079D01*
X0211085Y0398079D01*
X0181085Y0344079D02*
X0181085Y0461079D01*
X0174085Y0497079D02*
X0174085Y0395579D01*
X0166085Y0387579D01*
X0166085Y0379579D01*
X0160585Y0379579D01*
X0156085Y0384579D02*
X0156085Y0374079D01*
X0158085Y0372079D01*
X0158085Y0285579D01*
X0141085Y0268579D01*
X0141085Y0258079D01*
X0141085Y0171079D01*
X0115085Y0145079D01*
X0095085Y0125079D01*
X0097085Y0117579D02*
X0135585Y0156079D01*
X0147585Y0168079D01*
X0147585Y0266579D01*
X0166085Y0285079D01*
X0166085Y0339579D01*
X0166085Y0379579D01*
X0156085Y0384579D02*
X0169585Y0398079D01*
X0166085Y0339579D02*
X0186085Y0339579D01*
X0202085Y0323579D01*
X0241585Y0323579D01*
X0266335Y0318079D02*
X0271085Y0322829D01*
X0271085Y0362079D01*
X0241585Y0274579D02*
X0277085Y0239079D01*
X0277085Y0208079D01*
X0282085Y0203079D01*
X0282085Y0130079D01*
X0251085Y0099079D01*
X0097085Y0116079D02*
X0097085Y0117579D01*
D14*
X0097502Y0104587D02*
X0144667Y0104587D01*
X0167585Y0127504D01*
X0167585Y0129579D01*
X0167297Y0124366D02*
X0170872Y0124366D01*
X0173085Y0126579D01*
X0173085Y0131579D01*
X0167297Y0124366D02*
X0145502Y0102571D01*
X0096667Y0102571D01*
X0076577Y0122661D01*
X0076577Y0196496D01*
X0098577Y0218496D01*
X0098577Y0311996D01*
X0116077Y0329496D01*
X0115986Y0426906D01*
X0128986Y0439906D01*
X0129077Y0463661D01*
X0107585Y0485153D01*
X0117585Y0478004D02*
X0131093Y0464496D01*
X0131093Y0439161D01*
X0118093Y0426161D01*
X0118093Y0328661D01*
X0100593Y0311161D01*
X0100593Y0217661D01*
X0078593Y0195661D01*
X0078593Y0123496D01*
X0097502Y0104587D01*
M02*
