%
M48
M72
T01C0.01181
T02C0.03543
T03C0.10000
T04C0.35433
%
T01
X95085Y125079
X97085Y116079
X102085Y139579
X102585Y145079
X115085Y145079
X135585Y156079
X151585Y116079
X167585Y129579
X173085Y131579
X173835Y138329
X169124Y115539
X173485Y111179
X183835Y106579
X188085Y119079
X188085Y133079
X178835Y171329
X178835Y197579
X187335Y226329
X164585Y229579
X164585Y260079
X174085Y263079
X147585Y266579
X141085Y258079
X136085Y248579
X126085Y258079
X174085Y334579
X181085Y344079
X173585Y351579
X173585Y360079
X158085Y372079
X160585Y379579
X152585Y364579
X141585Y372079
X169585Y398079
X164085Y418079
X169085Y420579
X169085Y427579
X181085Y461079
X174085Y497079
X134085Y515579
X130085Y520079
X117585Y485079
X107585Y485153
X211085Y398079
X236045Y339039
X231685Y334679
X228085Y330079
X221085Y330079
X221085Y318079
X228085Y318079
X231685Y308579
X236485Y308579
X248585Y343579
X259085Y327579
X266335Y318079
X266085Y348079
X237585Y271579
X240085Y263079
X282085Y203079
X275085Y182079
X274085Y174079
X266085Y170079
X251085Y99079
X224085Y104079
X223085Y97079
X138585Y88079
X123335Y94829
X126085Y110579
X229085Y456079
X229085Y491079
X236685Y491079
X241485Y491079
T02
X258651Y490157
X258651Y476378
T03
X66486Y123323
X89022Y233016
X107259Y345561
X120112Y459913
X246927Y415386
X264049Y270425
X290545Y123343
T04
X269955Y77083
X243459Y224165
X226337Y369126
X140703Y413654
X127849Y299301
X109612Y186756
X87077Y77063
M30
