  0
SECTION
  2
HEADER
  9
$ACADVER
  1
AC1014
  9
$HANDSEED
  5
FFFF
  9
$MEASUREMENT
 70
     1
  0
ENDSEC
  0
SECTION
  2
TABLES
  0
TABLE
  2
VPORT
  5
8
330
0
100
AcDbSymbolTable
 70
     4
  0
VPORT
  5
2E
330
8
100
AcDbSymbolTableRecord
100
AcDbViewportTableRecord
  2
*ACTIVE
 70
     0
 10
0.0
 20
0.0
 11
1.0
 21
1.0
 12
210.0
 22
148.5
 13
0.0
 23
0.0
 14
10.0
 24
10.0
 15
10.0
 25
10.0
 16
0.0
 26
0.0
 36
1.0
 17
0.0
 27
0.0
 37
0.0
 40
341.0
 41
1.24
 42
50.0
 43
0.0
 44
0.0
 50
0.0
 51
0.0
 71
     0
 72
   100
 73
     1
 74
     3
 75
     0
 76
     0
 77
     0
 78
     0
  0
ENDTAB
  0
TABLE
  2
LTYPE
  5
5
330
0
100
AcDbSymbolTable
 70
     1
  0
LTYPE
  5
14
330
5
100
AcDbSymbolTableRecord
100
AcDbLinetypeTableRecord
  2
BYBLOCK
 70
     0
  3

 72
    65
 73
     0
 40
0.0
  0
LTYPE
  5
15
330
5
100
AcDbSymbolTableRecord
100
AcDbLinetypeTableRecord
  2
BYLAYER
 70
     0
  3

 72
    65
 73
     0
 40
0.0
  0
LTYPE
  5
16
330
5
100
AcDbSymbolTableRecord
100
AcDbLinetypeTableRecord
  2
CONTINUOUS
 70
     0
  3
Solid line
 72
    65
 73
     0
 40
0.0
  0
ENDTAB
  0
TABLE
  2
LAYER
  5
2
100
AcDbSymbolTable
 70
2
  0
LAYER
  5
50
100
AcDbSymbolTableRecord
100
AcDbLayerTableRecord
  2
0
 70
0
  6
CONTINUOUS
  0
LAYER
  5
51
100
AcDbSymbolTableRecord
100
AcDbLayerTableRecord
  2
Schecter7HS
 70
0
  6
CONTINUOUS
  0
ENDTAB
  0
TABLE
  2
STYLE
  5
3
330
0
100
AcDbSymbolTable
 70
     1
  0
STYLE
  5
11
330
3
100
AcDbSymbolTableRecord
100
AcDbTextStyleTableRecord
  2
STANDARD
 70
     0
 40
0.0
 41
1.0
 50
0.0
 71
     0
 42
2.5
  3
txt
  4

  0
ENDTAB
  0
TABLE
  2
VIEW
  5
6
330
0
100
AcDbSymbolTable
 70
     0
  0
ENDTAB
  0
TABLE
  2
UCS
  5
7
330
0
100
AcDbSymbolTable
 70
     0
  0
ENDTAB
  0
TABLE
  2
APPID
  5
9
330
0
100
AcDbSymbolTable
 70
     2
  0
APPID
  5
12
330
9
100
AcDbSymbolTableRecord
100
AcDbRegAppTableRecord
  2
ACAD
 70
     0
  0
ENDTAB
  0
TABLE
  2
DIMSTYLE
  5
A
330
0
100
AcDbSymbolTable
 70
     1
  0
DIMSTYLE
105
27
330
A
100
AcDbSymbolTableRecord
100
AcDbDimStyleTableRecord
  2
ISO-25
 70
     0
  3

  4

  5

  6

  7

 40
1.0
 41
2.5
 42
0.625
 43
3.75
 44
1.25
 45
0.0
 46
0.0
 47
0.0
 48
0.0
140
2.5
141
2.5
142
0.0
143
0.03937007874016
144
1.0
145
0.0
146
1.0
147
0.625
 71
     0
 72
     0
 73
     0
 74
     0
 75
     0
 76
     0
 77
     1
 78
     8
170
     0
171
     3
172
     1
173
     0
174
     0
175
     0
176
     0
177
     0
178
     0
270
     2
271
     2
272
     2
273
     2
274
     3
340
11
275
     0
280
     0
281
     0
282
     0
283
     0
284
     8
285
     0
286
     0
287
     3
288
     0
  0
ENDTAB
  0
TABLE
  2
BLOCK_RECORD
  5
1
330
0
100
AcDbSymbolTable
 70
     1
  0
BLOCK_RECORD
  5
1F
330
1
100
AcDbSymbolTableRecord
100
AcDbBlockTableRecord
  2
*MODEL_SPACE
  0
BLOCK_RECORD
  5
1B
330
1
100
AcDbSymbolTableRecord
100
AcDbBlockTableRecord
  2
*PAPER_SPACE
  0
ENDTAB
  0
ENDSEC
  0
SECTION
  2
BLOCKS
  0
BLOCK
  5
20
330
1F
100
AcDbEntity
  8
0
100
AcDbBlockBegin
  2
*MODEL_SPACE
 70
     0
 10
0.0
 20
0.0
 30
0.0
  3
*MODEL_SPACE
  1

  0
ENDBLK
  5
21
330
1F
100
AcDbEntity
  8
0
100
AcDbBlockEnd
  0
BLOCK
  5
1C
330
1B
100
AcDbEntity
 67
     1
  8
0
100
AcDbBlockBegin
  2
*PAPER_SPACE
  1

  0
ENDBLK
  5
1D
330
1B
100
AcDbEntity
 67
     1
  8
0
100
AcDbBlockEnd
  0
ENDSEC
  0
SECTION
  2
ENTITIES
  0
LWPOLYLINE
  5
100
100
AcDbEntity
  8
Schecter7HS
 62
7
100
AcDbPolyline
 90
8
 70
0
 10
227.320010
 20
490.459990
 30
0.0
 10
230.920000
 20
499.100010
 30
0.0
 10
233.980000
 20
507.739990
 30
0.0
 10
236.500000
 20
516.739990
 30
0.0
 10
238.120000
 20
525.919980
 30
0.0
 10
239.200000
 20
535.280030
 30
0.0
 10
239.560000
 20
544.640010
 30
0.0
 10
239.200000
 20
553.820010
 30
0.0
  0
LWPOLYLINE
  5
101
100
AcDbEntity
  8
Schecter7HS
 62
7
100
AcDbPolyline
 90
8
 70
0
 10
199.060000
 20
460.220000
 30
0.0
 10
204.280000
 20
463.459990
 30
0.0
 10
208.960010
 20
466.880000
 30
0.0
 10
213.460010
 20
471.019990
 30
0.0
 10
217.600010
 20
475.340000
 30
0.0
 10
221.200000
 20
480.019990
 30
0.0
 10
224.440000
 20
485.239990
 30
0.0
 10
227.140000
 20
490.459990
 30
0.0
  0
LWPOLYLINE
  5
102
100
AcDbEntity
  8
Schecter7HS
 62
7
100
AcDbPolyline
 90
6
 70
0
 10
199.060000
 20
460.040010
 30
0.0
 10
197.620000
 20
458.780000
 30
0.0
 10
196.539990
 20
457.160000
 30
0.0
 10
196.000000
 20
455.179990
 30
0.0
 10
196.000000
 20
453.380000
 30
0.0
 10
196.539990
 20
451.399990
 30
0.0
  0
LWPOLYLINE
  5
103
100
AcDbEntity
  8
Schecter7HS
 62
7
100
AcDbPolyline
 90
16
 70
0
 10
249.460010
 20
117.320000
 30
0.0
 10
249.640000
 20
148.640000
 30
0.0
 10
249.280000
 20
179.960010
 30
0.0
 10
248.020000
 20
211.280000
 30
0.0
 10
246.220000
 20
242.420000
 30
0.0
 10
244.600010
 20
262.760010
 30
0.0
 10
242.440000
 20
283.100010
 30
0.0
 10
239.560000
 20
303.260010
 30
0.0
 10
236.140000
 20
323.420010
 30
0.0
 10
232.000000
 20
343.399990
 30
0.0
 10
227.140000
 20
363.200010
 30
0.0
 10
222.280000
 20
381.200010
 30
0.0
 10
216.880000
 20
399.200010
 30
0.0
 10
210.759990
 20
416.840000
 30
0.0
 10
203.920000
 20
434.120000
 30
0.0
 10
196.539990
 20
451.399990
 30
0.0
  0
LWPOLYLINE
  5
104
100
AcDbEntity
  8
Schecter7HS
 62
7
100
AcDbPolyline
 90
8
 70
0
 10
249.460010
 20
117.500000
 30
0.0
 10
249.640000
 20
115.520000
 30
0.0
 10
250.360000
 20
113.900000
 30
0.0
 10
251.440000
 20
112.280000
 30
0.0
 10
253.060000
 20
111.200000
 30
0.0
 10
254.679990
 20
110.480000
 30
0.0
 10
256.660000
 20
110.300000
 30
0.0
 10
258.459990
 20
110.660000
 30
0.0
  0
LWPOLYLINE
  5
105
100
AcDbEntity
  8
Schecter7HS
 62
7
100
AcDbPolyline
 90
14
 70
0
 10
364.840000
 20
553.820010
 30
0.0
 10
365.380000
 20
542.479980
 30
0.0
 10
366.640010
 20
530.960020
 30
0.0
 10
368.799990
 20
519.799990
 30
0.0
 10
371.679990
 20
508.640010
 30
0.0
 10
375.459990
 20
497.840000
 30
0.0
 10
378.700010
 20
492.440000
 30
0.0
 10
382.120000
 20
487.399990
 30
0.0
 10
386.079990
 20
482.540010
 30
0.0
 10
390.399990
 20
478.040010
 30
0.0
 10
395.079990
 20
473.899990
 30
0.0
 10
399.940000
 20
470.120000
 30
0.0
 10
405.160000
 20
466.700010
 30
0.0
 10
410.560000
 20
463.640010
 30
0.0
  0
LWPOLYLINE
  5
106
100
AcDbEntity
  8
Schecter7HS
 62
7
100
AcDbPolyline
 90
6
 70
0
 10
413.799990
 20
454.820010
 30
0.0
 10
414.340000
 20
456.799990
 30
0.0
 10
414.160000
 20
458.780000
 30
0.0
 10
413.440000
 20
460.760010
 30
0.0
 10
412.179990
 20
462.380000
 30
0.0
 10
410.560000
 20
463.459990
 30
0.0
  0
LWPOLYLINE
  5
107
100
AcDbEntity
  8
Schecter7HS
 62
7
100
AcDbPolyline
 90
14
 70
0
 10
413.799990
 20
454.640010
 30
0.0
 10
406.060000
 20
433.579990
 30
0.0
 10
399.040010
 20
412.160000
 30
0.0
 10
392.739990
 20
390.560000
 30
0.0
 10
387.160000
 20
368.600010
 30
0.0
 10
382.299990
 20
346.640010
 30
0.0
 10
378.340000
 20
324.320010
 30
0.0
 10
375.100010
 20
302.000000
 30
0.0
 10
372.760010
 20
279.679990
 30
0.0
 10
371.140010
 20
257.720000
 30
0.0
 10
370.420010
 20
235.759990
 30
0.0
 10
370.420010
 20
213.800000
 30
0.0
 10
371.140010
 20
192.020000
 30
0.0
 10
372.399990
 20
170.060000
 30
0.0
  0
LWPOLYLINE
  5
108
100
AcDbEntity
  8
Schecter7HS
 62
7
100
AcDbPolyline
 90
7
 70
0
 10
365.019990
 20
162.500000
 30
0.0
 10
367.000000
 20
162.679990
 30
0.0
 10
368.799990
 20
163.399990
 30
0.0
 10
370.420010
 20
164.660000
 30
0.0
 10
371.500000
 20
166.280000
 30
0.0
 10
372.220000
 20
168.080000
 30
0.0
 10
372.399990
 20
170.060000
 30
0.0
  0
LWPOLYLINE
  5
109
100
AcDbEntity
  8
Schecter7HS
 62
7
100
AcDbPolyline
 90
10
 70
0
 10
364.840000
 20
162.500000
 30
0.0
 10
358.899990
 20
162.500000
 30
0.0
 10
352.959990
 20
161.960010
 30
0.0
 10
347.200010
 20
160.880000
 30
0.0
 10
341.440000
 20
159.259990
 30
0.0
 10
335.859990
 20
157.280000
 30
0.0
 10
330.459990
 20
154.759990
 30
0.0
 10
325.239990
 20
151.880000
 30
0.0
 10
320.380000
 20
148.460010
 30
0.0
 10
315.700010
 20
144.679990
 30
0.0
  0
LWPOLYLINE
  5
10a
100
AcDbEntity
  8
Schecter7HS
 62
7
100
AcDbPolyline
 90
9
 70
0
 10
258.459990
 20
110.480000
 30
0.0
 10
266.380000
 20
113.180000
 30
0.0
 10
274.299990
 20
116.240000
 30
0.0
 10
281.859990
 20
119.840000
 30
0.0
 10
289.239990
 20
123.980000
 30
0.0
 10
296.260010
 20
128.480000
 30
0.0
 10
303.100010
 20
133.520000
 30
0.0
 10
309.579990
 20
138.920000
 30
0.0
 10
315.519990
 20
144.679990
 30
0.0
  0
LWPOLYLINE
  5
10b
100
AcDbEntity
  8
Schecter7HS
 62
7
100
AcDbPolyline
 90
26
 70
0
 10
288.340000
 20
221.179990
 30
0.0
 10
288.160000
 20
222.980000
 30
0.0
 10
287.440000
 20
224.780000
 30
0.0
 10
286.359990
 20
226.220000
 30
0.0
 10
284.920010
 20
227.480000
 30
0.0
 10
283.299990
 20
228.200000
 30
0.0
 10
281.500000
 20
228.560000
 30
0.0
 10
279.519990
 20
228.380000
 30
0.0
 10
277.899990
 20
227.840000
 30
0.0
 10
276.280000
 20
226.940000
 30
0.0
 10
275.019990
 20
225.500000
 30
0.0
 10
274.120000
 20
223.880000
 30
0.0
 10
273.579990
 20
222.080000
 30
0.0
 10
273.579990
 20
220.280000
 30
0.0
 10
274.120000
 20
218.480000
 30
0.0
 10
275.019990
 20
216.860000
 30
0.0
 10
276.280000
 20
215.420000
 30
0.0
 10
277.899990
 20
214.520000
 30
0.0
 10
279.519990
 20
213.980000
 30
0.0
 10
281.500000
 20
213.800000
 30
0.0
 10
283.299990
 20
214.160000
 30
0.0
 10
284.920010
 20
214.880000
 30
0.0
 10
286.359990
 20
216.140000
 30
0.0
 10
287.440000
 20
217.580000
 30
0.0
 10
288.160000
 20
219.380000
 30
0.0
 10
288.340000
 20
221.179990
 30
0.0
  0
LWPOLYLINE
  5
10c
100
AcDbEntity
  8
Schecter7HS
 62
7
100
AcDbPolyline
 90
30
 70
0
 10
290.859990
 20
221.179990
 30
0.0
 10
290.679990
 20
223.340000
 30
0.0
 10
289.959990
 20
225.320010
 30
0.0
 10
288.880000
 20
227.120000
 30
0.0
 10
287.440000
 20
228.740010
 30
0.0
 10
285.640010
 20
230.000000
 30
0.0
 10
283.660000
 20
230.720000
 30
0.0
 10
281.500000
 20
231.080000
 30
0.0
 10
279.340000
 20
230.899990
 30
0.0
 10
277.359990
 20
230.360000
 30
0.0
 10
275.380000
 20
229.460010
 30
0.0
 10
273.760010
 20
228.020000
 30
0.0
 10
272.500000
 20
226.220000
 30
0.0
 10
271.600010
 20
224.420000
 30
0.0
 10
271.060000
 20
222.259990
 30
0.0
 10
271.060000
 20
220.100010
 30
0.0
 10
271.600010
 20
217.940000
 30
0.0
 10
272.500000
 20
216.140000
 30
0.0
 10
273.760010
 20
214.340000
 30
0.0
 10
275.380000
 20
212.899990
 30
0.0
 10
277.359990
 20
212.000000
 30
0.0
 10
279.340000
 20
211.460010
 30
0.0
 10
281.500000
 20
211.280000
 30
0.0
 10
283.660000
 20
211.640000
 30
0.0
 10
285.640010
 20
212.360000
 30
0.0
 10
287.440000
 20
213.620000
 30
0.0
 10
288.880000
 20
215.240010
 30
0.0
 10
289.959990
 20
217.039990
 30
0.0
 10
290.679990
 20
219.020000
 30
0.0
 10
290.859990
 20
221.179990
 30
0.0
  0
LWPOLYLINE
  5
10d
100
AcDbEntity
  8
Schecter7HS
 62
7
100
AcDbPolyline
 90
7
 70
0
 10
296.440000
 20
221.179990
 30
0.0
 10
288.700010
 20
208.039990
 30
0.0
 10
273.220000
 20
208.039990
 30
0.0
 10
265.120000
 20
221.179990
 30
0.0
 10
273.220000
 20
234.320010
 30
0.0
 10
288.700010
 20
234.320010
 30
0.0
 10
296.440000
 20
221.179990
 30
0.0
  0
LWPOLYLINE
  5
10e
100
AcDbEntity
  8
Schecter7HS
 62
7
100
AcDbPolyline
 90
5
 70
0
 10
236.679990
 20
192.020000
 30
0.0
 10
232.000000
 20
192.020000
 30
0.0
 10
232.000000
 20
209.480000
 30
0.0
 10
236.679990
 20
209.480000
 30
0.0
 10
236.679990
 20
192.020000
 30
0.0
  0
LWPOLYLINE
  5
10f
100
AcDbEntity
  8
Schecter7HS
 62
7
100
AcDbPolyline
 90
5
 70
0
 10
232.000000
 20
192.020000
 30
0.0
 10
229.300000
 20
192.020000
 30
0.0
 10
229.300000
 20
209.480000
 30
0.0
 10
232.000000
 20
209.480000
 30
0.0
 10
232.000000
 20
192.020000
 30
0.0
  0
LWPOLYLINE
  5
110
100
AcDbEntity
  8
Schecter7HS
 62
7
100
AcDbPolyline
 90
6
 70
0
 10
226.600010
 20
192.740010
 30
0.0
 10
226.600010
 20
192.020000
 30
0.0
 10
229.300000
 20
192.020000
 30
0.0
 10
229.300000
 20
209.480000
 30
0.0
 10
226.600010
 20
209.480000
 30
0.0
 10
226.600010
 20
209.480000
 30
0.0
  0
LWPOLYLINE
  5
111
100
AcDbEntity
  8
Schecter7HS
 62
7
100
AcDbPolyline
 90
2
 70
0
 10
248.920000
 20
190.940000
 30
0.0
 10
236.679990
 20
192.020000
 30
0.0
  0
LWPOLYLINE
  5
112
100
AcDbEntity
  8
Schecter7HS
 62
7
100
AcDbPolyline
 90
2
 70
0
 10
248.020000
 20
210.380000
 30
0.0
 10
236.679990
 20
209.480000
 30
0.0
  0
LWPOLYLINE
  5
113
100
AcDbEntity
  8
Schecter7HS
 62
7
100
AcDbPolyline
 90
2
 70
0
 10
221.560000
 20
226.220000
 30
0.0
 10
228.759990
 20
202.640000
 30
0.0
  0
LWPOLYLINE
  5
114
100
AcDbEntity
  8
Schecter7HS
 62
7
100
AcDbPolyline
 90
3
 70
0
 10
228.580000
 20
199.580000
 30
0.0
 10
228.759990
 20
201.020000
 30
0.0
 10
228.580000
 20
202.460010
 30
0.0
  0
LWPOLYLINE
  5
115
100
AcDbEntity
  8
Schecter7HS
 62
7
100
AcDbPolyline
 90
2
 70
0
 10
200.320010
 20
230.000000
 30
0.0
 10
216.340000
 20
230.000000
 30
0.0
  0
LWPOLYLINE
  5
116
100
AcDbEntity
  8
Schecter7HS
 62
7
100
AcDbPolyline
 90
5
 70
0
 10
221.380000
 20
226.039990
 30
0.0
 10
220.660000
 20
227.660000
 30
0.0
 10
219.399990
 20
228.740010
 30
0.0
 10
217.960010
 20
229.640000
 30
0.0
 10
216.340000
 20
229.820010
 30
0.0
  0
LWPOLYLINE
  5
117
100
AcDbEntity
  8
Schecter7HS
 62
7
100
AcDbPolyline
 90
8
 70
0
 10
200.500000
 20
229.820010
 30
0.0
 10
197.259990
 20
226.580000
 30
0.0
 10
194.380000
 20
222.800000
 30
0.0
 10
192.039990
 20
218.840000
 30
0.0
 10
190.060000
 20
214.700000
 30
0.0
 10
188.620000
 20
210.200000
 30
0.0
 10
187.720000
 20
205.700000
 30
0.0
 10
187.179990
 20
201.020000
 30
0.0
  0
LWPOLYLINE
  5
118
100
AcDbEntity
  8
Schecter7HS
 62
7
100
AcDbPolyline
 90
2
 70
0
 10
221.560000
 20
176.000000
 30
0.0
 10
228.759990
 20
199.580000
 30
0.0
  0
LWPOLYLINE
  5
119
100
AcDbEntity
  8
Schecter7HS
 62
7
100
AcDbPolyline
 90
2
 70
0
 10
200.320010
 20
172.220000
 30
0.0
 10
216.340000
 20
172.220000
 30
0.0
  0
LWPOLYLINE
  5
11a
100
AcDbEntity
  8
Schecter7HS
 62
7
100
AcDbPolyline
 90
5
 70
0
 10
216.340000
 20
172.399990
 30
0.0
 10
217.960010
 20
172.580000
 30
0.0
 10
219.399990
 20
173.480000
 30
0.0
 10
220.660000
 20
174.560000
 30
0.0
 10
221.380000
 20
176.179990
 30
0.0
  0
LWPOLYLINE
  5
11b
100
AcDbEntity
  8
Schecter7HS
 62
7
100
AcDbPolyline
 90
8
 70
0
 10
187.179990
 20
201.200000
 30
0.0
 10
187.720000
 20
196.520000
 30
0.0
 10
188.620000
 20
192.020000
 30
0.0
 10
190.060000
 20
187.520000
 30
0.0
 10
192.039990
 20
183.380000
 30
0.0
 10
194.380000
 20
179.420000
 30
0.0
 10
197.259990
 20
175.640000
 30
0.0
 10
200.500000
 20
172.399990
 30
0.0
  0
LWPOLYLINE
  5
11c
100
AcDbEntity
  8
Schecter7HS
 62
7
100
AcDbPolyline
 90
30
 70
0
 10
291.040010
 20
221.179990
 30
0.0
 10
290.859990
 20
223.340000
 30
0.0
 10
290.140010
 20
225.500000
 30
0.0
 10
289.060000
 20
227.300000
 30
0.0
 10
287.440000
 20
228.920000
 30
0.0
 10
285.640010
 20
230.000000
 30
0.0
 10
283.660000
 20
230.899990
 30
0.0
 10
281.500000
 20
231.259990
 30
0.0
 10
279.340000
 20
231.080000
 30
0.0
 10
277.179990
 20
230.539990
 30
0.0
 10
275.380000
 20
229.460010
 30
0.0
 10
273.579990
 20
228.200000
 30
0.0
 10
272.320010
 20
226.399990
 30
0.0
 10
271.420010
 20
224.420000
 30
0.0
 10
270.880000
 20
222.259990
 30
0.0
 10
270.880000
 20
220.100010
 30
0.0
 10
271.420010
 20
217.940000
 30
0.0
 10
272.320010
 20
215.960010
 30
0.0
 10
273.579990
 20
214.160000
 30
0.0
 10
275.380000
 20
212.899990
 30
0.0
 10
277.179990
 20
211.820010
 30
0.0
 10
279.340000
 20
211.280000
 30
0.0
 10
281.500000
 20
211.100010
 30
0.0
 10
283.660000
 20
211.460010
 30
0.0
 10
285.640010
 20
212.360000
 30
0.0
 10
287.440000
 20
213.440000
 30
0.0
 10
289.060000
 20
215.060000
 30
0.0
 10
290.140010
 20
216.860000
 30
0.0
 10
290.859990
 20
219.020000
 30
0.0
 10
291.040010
 20
221.179990
 30
0.0
  0
LWPOLYLINE
  5
11d
100
AcDbEntity
  8
Schecter7HS
 62
7
100
AcDbPolyline
 90
41
 70
0
 10
299.500000
 20
221.179990
 30
0.0
 10
299.320010
 20
224.060000
 30
0.0
 10
298.600010
 20
226.940000
 30
0.0
 10
297.519990
 20
229.640000
 30
0.0
 10
295.899990
 20
232.160000
 30
0.0
 10
294.100010
 20
234.320010
 30
0.0
 10
291.940000
 20
236.120000
 30
0.0
 10
289.420010
 20
237.740010
 30
0.0
 10
286.720000
 20
238.820010
 30
0.0
 10
283.840000
 20
239.539990
 30
0.0
 10
280.959990
 20
239.720000
 30
0.0
 10
278.079990
 20
239.539990
 30
0.0
 10
275.200010
 20
238.820010
 30
0.0
 10
272.500000
 20
237.740010
 30
0.0
 10
269.980010
 20
236.120000
 30
0.0
 10
267.820010
 20
234.320010
 30
0.0
 10
266.019990
 20
232.160000
 30
0.0
 10
264.399990
 20
229.640000
 30
0.0
 10
263.320010
 20
226.940000
 30
0.0
 10
262.600010
 20
224.060000
 30
0.0
 10
262.420010
 20
221.179990
 30
0.0
 10
262.600010
 20
218.300000
 30
0.0
 10
263.320010
 20
215.420000
 30
0.0
 10
264.399990
 20
212.720000
 30
0.0
 10
266.019990
 20
210.200000
 30
0.0
 10
267.820010
 20
208.039990
 30
0.0
 10
269.980010
 20
206.240010
 30
0.0
 10
272.500000
 20
204.620000
 30
0.0
 10
275.200010
 20
203.539990
 30
0.0
 10
278.079990
 20
202.820010
 30
0.0
 10
280.959990
 20
202.640000
 30
0.0
 10
283.840000
 20
202.820010
 30
0.0
 10
286.720000
 20
203.539990
 30
0.0
 10
289.420010
 20
204.620000
 30
0.0
 10
291.940000
 20
206.240010
 30
0.0
 10
294.100010
 20
208.039990
 30
0.0
 10
295.899990
 20
210.200000
 30
0.0
 10
297.519990
 20
212.720000
 30
0.0
 10
298.600010
 20
215.420000
 30
0.0
 10
299.320010
 20
218.300000
 30
0.0
 10
299.500000
 20
221.179990
 30
0.0
  0
LWPOLYLINE
  5
11e
100
AcDbEntity
  8
Schecter7HS
 62
7
100
AcDbPolyline
 90
26
 70
0
 10
277.720000
 20
290.299990
 30
0.0
 10
277.540010
 20
292.100010
 30
0.0
 10
276.820010
 20
293.899990
 30
0.0
 10
275.739990
 20
295.340000
 30
0.0
 10
274.299990
 20
296.600010
 30
0.0
 10
272.679990
 20
297.320010
 30
0.0
 10
270.880000
 20
297.679990
 30
0.0
 10
268.899990
 20
297.500000
 30
0.0
 10
267.280000
 20
296.959990
 30
0.0
 10
265.660000
 20
296.060000
 30
0.0
 10
264.399990
 20
294.620000
 30
0.0
 10
263.500000
 20
293.000000
 30
0.0
 10
262.959990
 20
291.200010
 30
0.0
 10
262.959990
 20
289.399990
 30
0.0
 10
263.500000
 20
287.600010
 30
0.0
 10
264.399990
 20
285.980010
 30
0.0
 10
265.660000
 20
284.540010
 30
0.0
 10
267.280000
 20
283.640010
 30
0.0
 10
268.899990
 20
283.100010
 30
0.0
 10
270.880000
 20
282.920010
 30
0.0
 10
272.679990
 20
283.280000
 30
0.0
 10
274.299990
 20
284.000000
 30
0.0
 10
275.739990
 20
285.260010
 30
0.0
 10
276.820010
 20
286.700010
 30
0.0
 10
277.540010
 20
288.500000
 30
0.0
 10
277.720000
 20
290.299990
 30
0.0
  0
LWPOLYLINE
  5
11f
100
AcDbEntity
  8
Schecter7HS
 62
7
100
AcDbPolyline
 90
30
 70
0
 10
280.239990
 20
290.299990
 30
0.0
 10
280.060000
 20
292.459990
 30
0.0
 10
279.340000
 20
294.440000
 30
0.0
 10
278.260010
 20
296.239990
 30
0.0
 10
276.820010
 20
297.859990
 30
0.0
 10
275.019990
 20
299.120000
 30
0.0
 10
273.040010
 20
299.840000
 30
0.0
 10
270.880000
 20
300.200010
 30
0.0
 10
268.720000
 20
300.019990
 30
0.0
 10
266.739990
 20
299.480010
 30
0.0
 10
264.760010
 20
298.579990
 30
0.0
 10
263.140010
 20
297.140010
 30
0.0
 10
261.880000
 20
295.340000
 30
0.0
 10
260.980010
 20
293.540010
 30
0.0
 10
260.440000
 20
291.380000
 30
0.0
 10
260.440000
 20
289.220000
 30
0.0
 10
260.980010
 20
287.060000
 30
0.0
 10
261.880000
 20
285.260010
 30
0.0
 10
263.140010
 20
283.459990
 30
0.0
 10
264.760010
 20
282.019990
 30
0.0
 10
266.739990
 20
281.120000
 30
0.0
 10
268.720000
 20
280.579990
 30
0.0
 10
270.880000
 20
280.399990
 30
0.0
 10
273.040010
 20
280.760010
 30
0.0
 10
275.019990
 20
281.480010
 30
0.0
 10
276.820010
 20
282.739990
 30
0.0
 10
278.260010
 20
284.359990
 30
0.0
 10
279.340000
 20
286.160000
 30
0.0
 10
280.060000
 20
288.140010
 30
0.0
 10
280.239990
 20
290.299990
 30
0.0
  0
LWPOLYLINE
  5
120
100
AcDbEntity
  8
Schecter7HS
 62
7
100
AcDbPolyline
 90
7
 70
0
 10
286.000000
 20
290.299990
 30
0.0
 10
278.260010
 20
277.160000
 30
0.0
 10
262.600010
 20
277.160000
 30
0.0
 10
254.679990
 20
290.299990
 30
0.0
 10
262.600010
 20
303.440000
 30
0.0
 10
278.260010
 20
303.440000
 30
0.0
 10
286.000000
 20
290.299990
 30
0.0
  0
LWPOLYLINE
  5
121
100
AcDbEntity
  8
Schecter7HS
 62
7
100
AcDbPolyline
 90
5
 70
0
 10
226.060000
 20
260.959990
 30
0.0
 10
221.380000
 20
260.959990
 30
0.0
 10
221.380000
 20
278.420010
 30
0.0
 10
226.060000
 20
278.420010
 30
0.0
 10
226.060000
 20
260.959990
 30
0.0
  0
LWPOLYLINE
  5
122
100
AcDbEntity
  8
Schecter7HS
 62
7
100
AcDbPolyline
 90
5
 70
0
 10
221.380000
 20
260.959990
 30
0.0
 10
218.679990
 20
260.959990
 30
0.0
 10
218.679990
 20
278.420010
 30
0.0
 10
221.380000
 20
278.420010
 30
0.0
 10
221.380000
 20
260.959990
 30
0.0
  0
LWPOLYLINE
  5
123
100
AcDbEntity
  8
Schecter7HS
 62
7
100
AcDbPolyline
 90
6
 70
0
 10
215.980000
 20
261.859990
 30
0.0
 10
215.980000
 20
260.959990
 30
0.0
 10
218.679990
 20
260.959990
 30
0.0
 10
218.679990
 20
278.420010
 30
0.0
 10
215.980000
 20
278.420010
 30
0.0
 10
215.980000
 20
278.420010
 30
0.0
  0
LWPOLYLINE
  5
124
100
AcDbEntity
  8
Schecter7HS
 62
7
100
AcDbPolyline
 90
2
 70
0
 10
244.960010
 20
259.519990
 30
0.0
 10
226.060000
 20
260.959990
 30
0.0
  0
LWPOLYLINE
  5
125
100
AcDbEntity
  8
Schecter7HS
 62
7
100
AcDbPolyline
 90
2
 70
0
 10
242.800000
 20
279.859990
 30
0.0
 10
226.060000
 20
278.420010
 30
0.0
  0
LWPOLYLINE
  5
126
100
AcDbEntity
  8
Schecter7HS
 62
7
100
AcDbPolyline
 90
2
 70
0
 10
210.940000
 20
295.160000
 30
0.0
 10
218.140000
 20
271.760010
 30
0.0
  0
LWPOLYLINE
  5
127
100
AcDbEntity
  8
Schecter7HS
 62
7
100
AcDbPolyline
 90
3
 70
0
 10
217.960010
 20
268.700010
 30
0.0
 10
218.140000
 20
270.140010
 30
0.0
 10
217.960010
 20
271.579990
 30
0.0
  0
LWPOLYLINE
  5
128
100
AcDbEntity
  8
Schecter7HS
 62
7
100
AcDbPolyline
 90
2
 70
0
 10
189.700000
 20
298.940000
 30
0.0
 10
205.899990
 20
298.940000
 30
0.0
  0
LWPOLYLINE
  5
129
100
AcDbEntity
  8
Schecter7HS
 62
7
100
AcDbPolyline
 90
5
 70
0
 10
210.940000
 20
295.160000
 30
0.0
 10
210.220000
 20
296.780000
 30
0.0
 10
208.960010
 20
297.859990
 30
0.0
 10
207.520000
 20
298.760010
 30
0.0
 10
205.899990
 20
298.940000
 30
0.0
  0
LWPOLYLINE
  5
12a
100
AcDbEntity
  8
Schecter7HS
 62
7
100
AcDbPolyline
 90
8
 70
0
 10
189.880000
 20
298.940000
 30
0.0
 10
186.640000
 20
295.700010
 30
0.0
 10
183.759990
 20
291.920010
 30
0.0
 10
181.420000
 20
287.959990
 30
0.0
 10
179.440000
 20
283.820010
 30
0.0
 10
178.000000
 20
279.320010
 30
0.0
 10
177.100010
 20
274.820010
 30
0.0
 10
176.560000
 20
270.140010
 30
0.0
  0
LWPOLYLINE
  5
12b
100
AcDbEntity
  8
Schecter7HS
 62
7
100
AcDbPolyline
 90
2
 70
0
 10
210.940000
 20
245.120000
 30
0.0
 10
218.140000
 20
268.519990
 30
0.0
  0
LWPOLYLINE
  5
12c
100
AcDbEntity
  8
Schecter7HS
 62
7
100
AcDbPolyline
 90
2
 70
0
 10
189.700000
 20
241.340000
 30
0.0
 10
205.899990
 20
241.340000
 30
0.0
  0
LWPOLYLINE
  5
12d
100
AcDbEntity
  8
Schecter7HS
 62
7
100
AcDbPolyline
 90
5
 70
0
 10
205.899990
 20
241.520000
 30
0.0
 10
207.520000
 20
241.700000
 30
0.0
 10
208.960010
 20
242.600010
 30
0.0
 10
210.220000
 20
243.679990
 30
0.0
 10
210.940000
 20
245.300000
 30
0.0
  0
LWPOLYLINE
  5
12e
100
AcDbEntity
  8
Schecter7HS
 62
7
100
AcDbPolyline
 90
8
 70
0
 10
176.560000
 20
270.140010
 30
0.0
 10
177.100010
 20
265.459990
 30
0.0
 10
178.000000
 20
260.959990
 30
0.0
 10
179.440000
 20
256.459990
 30
0.0
 10
181.420000
 20
252.320010
 30
0.0
 10
183.759990
 20
248.360000
 30
0.0
 10
186.640000
 20
244.580000
 30
0.0
 10
189.880000
 20
241.340000
 30
0.0
  0
LWPOLYLINE
  5
12f
100
AcDbEntity
  8
Schecter7HS
 62
7
100
AcDbPolyline
 90
30
 70
0
 10
280.420010
 20
290.299990
 30
0.0
 10
280.239990
 20
292.459990
 30
0.0
 10
279.519990
 20
294.620000
 30
0.0
 10
278.440000
 20
296.420010
 30
0.0
 10
276.820010
 20
298.040010
 30
0.0
 10
275.019990
 20
299.120000
 30
0.0
 10
273.040010
 20
300.019990
 30
0.0
 10
270.880000
 20
300.380000
 30
0.0
 10
268.720000
 20
300.200010
 30
0.0
 10
266.560000
 20
299.660000
 30
0.0
 10
264.760010
 20
298.579990
 30
0.0
 10
262.959990
 20
297.320010
 30
0.0
 10
261.700010
 20
295.519990
 30
0.0
 10
260.799990
 20
293.540010
 30
0.0
 10
260.260010
 20
291.380000
 30
0.0
 10
260.260010
 20
289.220000
 30
0.0
 10
260.799990
 20
287.060000
 30
0.0
 10
261.700010
 20
285.079990
 30
0.0
 10
262.959990
 20
283.280000
 30
0.0
 10
264.760010
 20
282.019990
 30
0.0
 10
266.560000
 20
280.940000
 30
0.0
 10
268.720000
 20
280.399990
 30
0.0
 10
270.880000
 20
280.220000
 30
0.0
 10
273.040010
 20
280.579990
 30
0.0
 10
275.019990
 20
281.480010
 30
0.0
 10
276.820010
 20
282.560000
 30
0.0
 10
278.440000
 20
284.179990
 30
0.0
 10
279.519990
 20
285.980010
 30
0.0
 10
280.239990
 20
288.140010
 30
0.0
 10
280.420010
 20
290.299990
 30
0.0
  0
LWPOLYLINE
  5
130
100
AcDbEntity
  8
Schecter7HS
 62
7
100
AcDbPolyline
 90
41
 70
0
 10
288.880000
 20
290.299990
 30
0.0
 10
288.700010
 20
293.179990
 30
0.0
 10
287.980010
 20
296.060000
 30
0.0
 10
286.899990
 20
298.760010
 30
0.0
 10
285.280000
 20
301.280000
 30
0.0
 10
283.480010
 20
303.440000
 30
0.0
 10
281.320010
 20
305.239990
 30
0.0
 10
278.799990
 20
306.859990
 30
0.0
 10
276.100010
 20
307.940000
 30
0.0
 10
273.220000
 20
308.660000
 30
0.0
 10
270.340000
 20
308.840000
 30
0.0
 10
267.459990
 20
308.660000
 30
0.0
 10
264.579990
 20
307.940000
 30
0.0
 10
261.880000
 20
306.859990
 30
0.0
 10
259.359990
 20
305.239990
 30
0.0
 10
257.200010
 20
303.440000
 30
0.0
 10
255.399990
 20
301.280000
 30
0.0
 10
253.780000
 20
298.760010
 30
0.0
 10
252.700000
 20
296.060000
 30
0.0
 10
251.980000
 20
293.179990
 30
0.0
 10
251.800000
 20
290.299990
 30
0.0
 10
251.980000
 20
287.420010
 30
0.0
 10
252.700000
 20
284.540010
 30
0.0
 10
253.780000
 20
281.840000
 30
0.0
 10
255.399990
 20
279.320010
 30
0.0
 10
257.200010
 20
277.160000
 30
0.0
 10
259.359990
 20
275.359990
 30
0.0
 10
261.880000
 20
273.739990
 30
0.0
 10
264.579990
 20
272.660000
 30
0.0
 10
267.459990
 20
271.940000
 30
0.0
 10
270.340000
 20
271.760010
 30
0.0
 10
273.220000
 20
271.940000
 30
0.0
 10
276.100010
 20
272.660000
 30
0.0
 10
278.799990
 20
273.739990
 30
0.0
 10
281.320010
 20
275.359990
 30
0.0
 10
283.480010
 20
277.160000
 30
0.0
 10
285.280000
 20
279.320010
 30
0.0
 10
286.899990
 20
281.840000
 30
0.0
 10
287.980010
 20
284.540010
 30
0.0
 10
288.700010
 20
287.420010
 30
0.0
 10
288.880000
 20
290.299990
 30
0.0
  0
LWPOLYLINE
  5
131
100
AcDbEntity
  8
Schecter7HS
 62
7
100
AcDbPolyline
 90
26
 70
0
 10
267.280000
 20
356.720000
 30
0.0
 10
267.100010
 20
358.519990
 30
0.0
 10
266.380000
 20
360.320010
 30
0.0
 10
265.299990
 20
361.760010
 30
0.0
 10
263.859990
 20
363.019990
 30
0.0
 10
262.239990
 20
363.739990
 30
0.0
 10
260.440000
 20
364.100010
 30
0.0
 10
258.459990
 20
363.920010
 30
0.0
 10
256.840000
 20
363.380000
 30
0.0
 10
255.220000
 20
362.480010
 30
0.0
 10
253.960010
 20
361.040010
 30
0.0
 10
253.060000
 20
359.420010
 30
0.0
 10
252.520000
 20
357.620000
 30
0.0
 10
252.520000
 20
355.820010
 30
0.0
 10
253.060000
 20
354.019990
 30
0.0
 10
253.960010
 20
352.399990
 30
0.0
 10
255.220000
 20
350.959990
 30
0.0
 10
256.840000
 20
350.060000
 30
0.0
 10
258.459990
 20
349.519990
 30
0.0
 10
260.440000
 20
349.340000
 30
0.0
 10
262.239990
 20
349.700010
 30
0.0
 10
263.859990
 20
350.420010
 30
0.0
 10
265.299990
 20
351.679990
 30
0.0
 10
266.380000
 20
353.120000
 30
0.0
 10
267.100010
 20
354.920010
 30
0.0
 10
267.280000
 20
356.720000
 30
0.0
  0
LWPOLYLINE
  5
132
100
AcDbEntity
  8
Schecter7HS
 62
7
100
AcDbPolyline
 90
30
 70
0
 10
269.799990
 20
356.720000
 30
0.0
 10
269.620000
 20
358.880000
 30
0.0
 10
268.899990
 20
360.859990
 30
0.0
 10
267.820010
 20
362.660000
 30
0.0
 10
266.380000
 20
364.280000
 30
0.0
 10
264.579990
 20
365.540010
 30
0.0
 10
262.600010
 20
366.260010
 30
0.0
 10
260.440000
 20
366.620000
 30
0.0
 10
258.280000
 20
366.440000
 30
0.0
 10
256.299990
 20
365.899990
 30
0.0
 10
254.320010
 20
365.000000
 30
0.0
 10
252.700000
 20
363.560000
 30
0.0
 10
251.440000
 20
361.760010
 30
0.0
 10
250.539990
 20
359.959990
 30
0.0
 10
250.000000
 20
357.799990
 30
0.0
 10
250.000000
 20
355.640010
 30
0.0
 10
250.539990
 20
353.480010
 30
0.0
 10
251.440000
 20
351.679990
 30
0.0
 10
252.700000
 20
349.880000
 30
0.0
 10
254.320010
 20
348.440000
 30
0.0
 10
256.299990
 20
347.540010
 30
0.0
 10
258.280000
 20
347.000000
 30
0.0
 10
260.440000
 20
346.820010
 30
0.0
 10
262.600010
 20
347.179990
 30
0.0
 10
264.579990
 20
347.899990
 30
0.0
 10
266.380000
 20
349.160000
 30
0.0
 10
267.820010
 20
350.780000
 30
0.0
 10
268.899990
 20
352.579990
 30
0.0
 10
269.620000
 20
354.560000
 30
0.0
 10
269.799990
 20
356.720000
 30
0.0
  0
LWPOLYLINE
  5
133
100
AcDbEntity
  8
Schecter7HS
 62
7
100
AcDbPolyline
 90
7
 70
0
 10
275.380000
 20
356.720000
 30
0.0
 10
267.640010
 20
343.579990
 30
0.0
 10
252.160000
 20
343.579990
 30
0.0
 10
244.060000
 20
356.720000
 30
0.0
 10
252.160000
 20
369.859990
 30
0.0
 10
267.640010
 20
369.859990
 30
0.0
 10
275.380000
 20
356.720000
 30
0.0
  0
LWPOLYLINE
  5
134
100
AcDbEntity
  8
Schecter7HS
 62
7
100
AcDbPolyline
 90
5
 70
0
 10
215.620000
 20
327.560000
 30
0.0
 10
210.940000
 20
327.560000
 30
0.0
 10
210.940000
 20
345.019990
 30
0.0
 10
215.620000
 20
345.019990
 30
0.0
 10
215.620000
 20
327.560000
 30
0.0
  0
LWPOLYLINE
  5
135
100
AcDbEntity
  8
Schecter7HS
 62
7
100
AcDbPolyline
 90
5
 70
0
 10
210.940000
 20
327.560000
 30
0.0
 10
208.240010
 20
327.560000
 30
0.0
 10
208.240010
 20
345.019990
 30
0.0
 10
210.940000
 20
345.019990
 30
0.0
 10
210.940000
 20
327.560000
 30
0.0
  0
LWPOLYLINE
  5
136
100
AcDbEntity
  8
Schecter7HS
 62
7
100
AcDbPolyline
 90
6
 70
0
 10
205.539990
 20
328.280000
 30
0.0
 10
205.539990
 20
327.560000
 30
0.0
 10
208.240010
 20
327.560000
 30
0.0
 10
208.240010
 20
345.019990
 30
0.0
 10
205.539990
 20
345.019990
 30
0.0
 10
205.539990
 20
345.019990
 30
0.0
  0
LWPOLYLINE
  5
137
100
AcDbEntity
  8
Schecter7HS
 62
7
100
AcDbPolyline
 90
2
 70
0
 10
235.600010
 20
325.760010
 30
0.0
 10
215.620000
 20
327.560000
 30
0.0
  0
LWPOLYLINE
  5
138
100
AcDbEntity
  8
Schecter7HS
 62
7
100
AcDbPolyline
 90
2
 70
0
 10
231.280000
 20
346.280000
 30
0.0
 10
215.620000
 20
345.019990
 30
0.0
  0
LWPOLYLINE
  5
139
100
AcDbEntity
  8
Schecter7HS
 62
7
100
AcDbPolyline
 90
2
 70
0
 10
200.500000
 20
361.760010
 30
0.0
 10
207.520000
 20
338.179990
 30
0.0
  0
LWPOLYLINE
  5
13a
100
AcDbEntity
  8
Schecter7HS
 62
7
100
AcDbPolyline
 90
3
 70
0
 10
207.520000
 20
335.120000
 30
0.0
 10
207.700000
 20
336.560000
 30
0.0
 10
207.520000
 20
338.000000
 30
0.0
  0
LWPOLYLINE
  5
13b
100
AcDbEntity
  8
Schecter7HS
 62
7
100
AcDbPolyline
 90
2
 70
0
 10
179.259990
 20
365.540010
 30
0.0
 10
195.280000
 20
365.540010
 30
0.0
  0
LWPOLYLINE
  5
13c
100
AcDbEntity
  8
Schecter7HS
 62
7
100
AcDbPolyline
 90
5
 70
0
 10
200.320010
 20
361.579990
 30
0.0
 10
199.600010
 20
363.200010
 30
0.0
 10
198.340000
 20
364.280000
 30
0.0
 10
196.899990
 20
365.179990
 30
0.0
 10
195.280000
 20
365.359990
 30
0.0
  0
LWPOLYLINE
  5
13d
100
AcDbEntity
  8
Schecter7HS
 62
7
100
AcDbPolyline
 90
8
 70
0
 10
179.440000
 20
365.359990
 30
0.0
 10
176.200000
 20
362.120000
 30
0.0
 10
173.320010
 20
358.340000
 30
0.0
 10
170.980000
 20
354.380000
 30
0.0
 10
169.000000
 20
350.239990
 30
0.0
 10
167.560000
 20
345.739990
 30
0.0
 10
166.660000
 20
341.239990
 30
0.0
 10
166.120000
 20
336.560000
 30
0.0
  0
LWPOLYLINE
  5
13e
100
AcDbEntity
  8
Schecter7HS
 62
7
100
AcDbPolyline
 90
2
 70
0
 10
200.500000
 20
311.540010
 30
0.0
 10
207.520000
 20
335.120000
 30
0.0
  0
LWPOLYLINE
  5
13f
100
AcDbEntity
  8
Schecter7HS
 62
7
100
AcDbPolyline
 90
2
 70
0
 10
179.259990
 20
307.760010
 30
0.0
 10
195.280000
 20
307.760010
 30
0.0
  0
LWPOLYLINE
  5
140
100
AcDbEntity
  8
Schecter7HS
 62
7
100
AcDbPolyline
 90
5
 70
0
 10
195.280000
 20
307.940000
 30
0.0
 10
196.899990
 20
308.120000
 30
0.0
 10
198.340000
 20
309.019990
 30
0.0
 10
199.600010
 20
310.100010
 30
0.0
 10
200.320010
 20
311.720000
 30
0.0
  0
LWPOLYLINE
  5
141
100
AcDbEntity
  8
Schecter7HS
 62
7
100
AcDbPolyline
 90
8
 70
0
 10
166.120000
 20
336.739990
 30
0.0
 10
166.660000
 20
332.060000
 30
0.0
 10
167.560000
 20
327.560000
 30
0.0
 10
169.000000
 20
323.060000
 30
0.0
 10
170.980000
 20
318.920010
 30
0.0
 10
173.320010
 20
314.959990
 30
0.0
 10
176.200000
 20
311.179990
 30
0.0
 10
179.440000
 20
307.940000
 30
0.0
  0
LWPOLYLINE
  5
142
100
AcDbEntity
  8
Schecter7HS
 62
7
100
AcDbPolyline
 90
30
 70
0
 10
269.980010
 20
356.720000
 30
0.0
 10
269.799990
 20
358.880000
 30
0.0
 10
269.079990
 20
361.040010
 30
0.0
 10
268.000000
 20
362.840000
 30
0.0
 10
266.380000
 20
364.459990
 30
0.0
 10
264.579990
 20
365.540010
 30
0.0
 10
262.600010
 20
366.440000
 30
0.0
 10
260.440000
 20
366.799990
 30
0.0
 10
258.280000
 20
366.620000
 30
0.0
 10
256.120000
 20
366.079990
 30
0.0
 10
254.320010
 20
365.000000
 30
0.0
 10
252.520000
 20
363.739990
 30
0.0
 10
251.259990
 20
361.940000
 30
0.0
 10
250.360000
 20
359.959990
 30
0.0
 10
249.820010
 20
357.799990
 30
0.0
 10
249.820010
 20
355.640010
 30
0.0
 10
250.360000
 20
353.480010
 30
0.0
 10
251.259990
 20
351.500000
 30
0.0
 10
252.520000
 20
349.700010
 30
0.0
 10
254.320010
 20
348.440000
 30
0.0
 10
256.120000
 20
347.359990
 30
0.0
 10
258.280000
 20
346.820010
 30
0.0
 10
260.440000
 20
346.640010
 30
0.0
 10
262.600010
 20
347.000000
 30
0.0
 10
264.579990
 20
347.899990
 30
0.0
 10
266.380000
 20
348.980010
 30
0.0
 10
268.000000
 20
350.600010
 30
0.0
 10
269.079990
 20
352.399990
 30
0.0
 10
269.799990
 20
354.560000
 30
0.0
 10
269.980010
 20
356.720000
 30
0.0
  0
LWPOLYLINE
  5
143
100
AcDbEntity
  8
Schecter7HS
 62
7
100
AcDbPolyline
 90
41
 70
0
 10
278.440000
 20
356.720000
 30
0.0
 10
278.260010
 20
359.600010
 30
0.0
 10
277.540010
 20
362.480010
 30
0.0
 10
276.459990
 20
365.179990
 30
0.0
 10
274.840000
 20
367.700010
 30
0.0
 10
273.040010
 20
369.859990
 30
0.0
 10
270.880000
 20
371.660000
 30
0.0
 10
268.359990
 20
373.280000
 30
0.0
 10
265.660000
 20
374.359990
 30
0.0
 10
262.780000
 20
375.079990
 30
0.0
 10
259.899990
 20
375.260010
 30
0.0
 10
257.019990
 20
375.079990
 30
0.0
 10
254.140000
 20
374.359990
 30
0.0
 10
251.440000
 20
373.280000
 30
0.0
 10
248.920000
 20
371.660000
 30
0.0
 10
246.759990
 20
369.859990
 30
0.0
 10
244.960010
 20
367.700010
 30
0.0
 10
243.340000
 20
365.179990
 30
0.0
 10
242.259990
 20
362.480010
 30
0.0
 10
241.539990
 20
359.600010
 30
0.0
 10
241.360000
 20
356.720000
 30
0.0
 10
241.539990
 20
353.840000
 30
0.0
 10
242.259990
 20
350.959990
 30
0.0
 10
243.340000
 20
348.260010
 30
0.0
 10
244.960010
 20
345.739990
 30
0.0
 10
246.759990
 20
343.579990
 30
0.0
 10
248.920000
 20
341.780000
 30
0.0
 10
251.440000
 20
340.160000
 30
0.0
 10
254.140000
 20
339.079990
 30
0.0
 10
257.019990
 20
338.359990
 30
0.0
 10
259.899990
 20
338.179990
 30
0.0
 10
262.780000
 20
338.359990
 30
0.0
 10
265.660000
 20
339.079990
 30
0.0
 10
268.359990
 20
340.160000
 30
0.0
 10
270.880000
 20
341.780000
 30
0.0
 10
273.040010
 20
343.579990
 30
0.0
 10
274.840000
 20
345.739990
 30
0.0
 10
276.459990
 20
348.260010
 30
0.0
 10
277.540010
 20
350.959990
 30
0.0
 10
278.260010
 20
353.840000
 30
0.0
 10
278.440000
 20
356.720000
 30
0.0
  0
LWPOLYLINE
  5
144
100
AcDbEntity
  8
Schecter7HS
 62
7
100
AcDbPolyline
 90
26
 70
0
 10
255.399990
 20
423.140010
 30
0.0
 10
255.220000
 20
424.940000
 30
0.0
 10
254.500000
 20
426.739990
 30
0.0
 10
253.420000
 20
428.179990
 30
0.0
 10
251.980000
 20
429.440000
 30
0.0
 10
250.360000
 20
430.160000
 30
0.0
 10
248.560000
 20
430.519990
 30
0.0
 10
246.580000
 20
430.340000
 30
0.0
 10
244.960010
 20
429.799990
 30
0.0
 10
243.340000
 20
428.899990
 30
0.0
 10
242.080000
 20
427.459990
 30
0.0
 10
241.179990
 20
425.840000
 30
0.0
 10
240.640000
 20
424.040010
 30
0.0
 10
240.640000
 20
422.239990
 30
0.0
 10
241.179990
 20
420.440000
 30
0.0
 10
242.080000
 20
418.820010
 30
0.0
 10
243.340000
 20
417.380000
 30
0.0
 10
244.960010
 20
416.480010
 30
0.0
 10
246.580000
 20
415.940000
 30
0.0
 10
248.560000
 20
415.760010
 30
0.0
 10
250.360000
 20
416.120000
 30
0.0
 10
251.980000
 20
416.840000
 30
0.0
 10
253.420000
 20
418.100010
 30
0.0
 10
254.500000
 20
419.540010
 30
0.0
 10
255.220000
 20
421.340000
 30
0.0
 10
255.399990
 20
423.140010
 30
0.0
  0
LWPOLYLINE
  5
145
100
AcDbEntity
  8
Schecter7HS
 62
7
100
AcDbPolyline
 90
30
 70
0
 10
257.920010
 20
423.140010
 30
0.0
 10
257.739990
 20
425.299990
 30
0.0
 10
257.019990
 20
427.280000
 30
0.0
 10
255.940000
 20
429.079990
 30
0.0
 10
254.500000
 20
430.700010
 30
0.0
 10
252.700000
 20
431.959990
 30
0.0
 10
250.720000
 20
432.679990
 30
0.0
 10
248.560000
 20
433.040010
 30
0.0
 10
246.399990
 20
432.859990
 30
0.0
 10
244.420000
 20
432.320010
 30
0.0
 10
242.440000
 20
431.420010
 30
0.0
 10
240.820010
 20
429.980010
 30
0.0
 10
239.560000
 20
428.179990
 30
0.0
 10
238.660000
 20
426.380000
 30
0.0
 10
238.120000
 20
424.220000
 30
0.0
 10
238.120000
 20
422.060000
 30
0.0
 10
238.660000
 20
419.899990
 30
0.0
 10
239.560000
 20
418.100010
 30
0.0
 10
240.820010
 20
416.299990
 30
0.0
 10
242.440000
 20
414.859990
 30
0.0
 10
244.420000
 20
413.959990
 30
0.0
 10
246.399990
 20
413.420010
 30
0.0
 10
248.560000
 20
413.239990
 30
0.0
 10
250.720000
 20
413.600010
 30
0.0
 10
252.700000
 20
414.320010
 30
0.0
 10
254.500000
 20
415.579990
 30
0.0
 10
255.940000
 20
417.200010
 30
0.0
 10
257.019990
 20
419.000000
 30
0.0
 10
257.739990
 20
420.980010
 30
0.0
 10
257.920010
 20
423.140010
 30
0.0
  0
LWPOLYLINE
  5
146
100
AcDbEntity
  8
Schecter7HS
 62
7
100
AcDbPolyline
 90
7
 70
0
 10
263.500000
 20
423.140010
 30
0.0
 10
255.759990
 20
410.000000
 30
0.0
 10
240.100010
 20
410.000000
 30
0.0
 10
232.179990
 20
423.140010
 30
0.0
 10
240.100010
 20
436.280000
 30
0.0
 10
255.759990
 20
436.280000
 30
0.0
 10
263.500000
 20
423.140010
 30
0.0
  0
LWPOLYLINE
  5
147
100
AcDbEntity
  8
Schecter7HS
 62
7
100
AcDbPolyline
 90
5
 70
0
 10
203.560000
 20
393.799990
 30
0.0
 10
199.060000
 20
393.799990
 30
0.0
 10
199.060000
 20
411.260010
 30
0.0
 10
203.560000
 20
411.260010
 30
0.0
 10
203.560000
 20
393.799990
 30
0.0
  0
LWPOLYLINE
  5
148
100
AcDbEntity
  8
Schecter7HS
 62
7
100
AcDbPolyline
 90
5
 70
0
 10
199.060000
 20
393.799990
 30
0.0
 10
196.360000
 20
393.799990
 30
0.0
 10
196.360000
 20
411.260010
 30
0.0
 10
199.060000
 20
411.260010
 30
0.0
 10
199.060000
 20
393.799990
 30
0.0
  0
LWPOLYLINE
  5
149
100
AcDbEntity
  8
Schecter7HS
 62
7
100
AcDbPolyline
 90
6
 70
0
 10
193.660000
 20
394.700010
 30
0.0
 10
193.660000
 20
393.799990
 30
0.0
 10
196.360000
 20
393.799990
 30
0.0
 10
196.360000
 20
411.260010
 30
0.0
 10
193.660000
 20
411.260010
 30
0.0
 10
193.660000
 20
411.260010
 30
0.0
  0
LWPOLYLINE
  5
14a
100
AcDbEntity
  8
Schecter7HS
 62
7
100
AcDbPolyline
 90
2
 70
0
 10
218.860000
 20
392.540010
 30
0.0
 10
203.560000
 20
393.799990
 30
0.0
  0
LWPOLYLINE
  5
14b
100
AcDbEntity
  8
Schecter7HS
 62
7
100
AcDbPolyline
 90
2
 70
0
 10
212.380000
 20
412.160000
 30
0.0
 10
203.560000
 20
411.260010
 30
0.0
  0
LWPOLYLINE
  5
14c
100
AcDbEntity
  8
Schecter7HS
 62
7
100
AcDbPolyline
 90
2
 70
0
 10
188.440000
 20
428.179990
 30
0.0
 10
195.640000
 20
404.600010
 30
0.0
  0
LWPOLYLINE
  5
14d
100
AcDbEntity
  8
Schecter7HS
 62
7
100
AcDbPolyline
 90
3
 70
0
 10
195.640000
 20
401.540010
 30
0.0
 10
195.820010
 20
402.980010
 30
0.0
 10
195.640000
 20
404.420010
 30
0.0
  0
LWPOLYLINE
  5
14e
100
AcDbEntity
  8
Schecter7HS
 62
7
100
AcDbPolyline
 90
2
 70
0
 10
167.200000
 20
431.959990
 30
0.0
 10
183.399990
 20
431.959990
 30
0.0
  0
LWPOLYLINE
  5
14f
100
AcDbEntity
  8
Schecter7HS
 62
7
100
AcDbPolyline
 90
5
 70
0
 10
188.440000
 20
428.000000
 30
0.0
 10
187.720000
 20
429.620000
 30
0.0
 10
186.460010
 20
430.700010
 30
0.0
 10
185.020000
 20
431.600010
 30
0.0
 10
183.399990
 20
431.780000
 30
0.0
  0
LWPOLYLINE
  5
150
100
AcDbEntity
  8
Schecter7HS
 62
7
100
AcDbPolyline
 90
8
 70
0
 10
167.380000
 20
431.780000
 30
0.0
 10
164.140000
 20
428.540010
 30
0.0
 10
161.259990
 20
424.760010
 30
0.0
 10
158.920000
 20
420.799990
 30
0.0
 10
156.940000
 20
416.660000
 30
0.0
 10
155.500000
 20
412.160000
 30
0.0
 10
154.600010
 20
407.660000
 30
0.0
 10
154.060000
 20
402.980010
 30
0.0
  0
LWPOLYLINE
  5
151
100
AcDbEntity
  8
Schecter7HS
 62
7
100
AcDbPolyline
 90
2
 70
0
 10
188.440000
 20
377.959990
 30
0.0
 10
195.640000
 20
401.540010
 30
0.0
  0
LWPOLYLINE
  5
152
100
AcDbEntity
  8
Schecter7HS
 62
7
100
AcDbPolyline
 90
2
 70
0
 10
167.200000
 20
374.179990
 30
0.0
 10
183.399990
 20
374.179990
 30
0.0
  0
LWPOLYLINE
  5
153
100
AcDbEntity
  8
Schecter7HS
 62
7
100
AcDbPolyline
 90
5
 70
0
 10
183.399990
 20
374.359990
 30
0.0
 10
185.020000
 20
374.540010
 30
0.0
 10
186.460010
 20
375.440000
 30
0.0
 10
187.720000
 20
376.519990
 30
0.0
 10
188.440000
 20
378.140010
 30
0.0
  0
LWPOLYLINE
  5
154
100
AcDbEntity
  8
Schecter7HS
 62
7
100
AcDbPolyline
 90
8
 70
0
 10
154.060000
 20
402.980010
 30
0.0
 10
154.600010
 20
398.299990
 30
0.0
 10
155.500000
 20
393.799990
 30
0.0
 10
156.940000
 20
389.299990
 30
0.0
 10
158.920000
 20
385.160000
 30
0.0
 10
161.259990
 20
381.200010
 30
0.0
 10
164.140000
 20
377.420010
 30
0.0
 10
167.380000
 20
374.179990
 30
0.0
  0
LWPOLYLINE
  5
155
100
AcDbEntity
  8
Schecter7HS
 62
7
100
AcDbPolyline
 90
30
 70
0
 10
258.100010
 20
423.140010
 30
0.0
 10
257.920010
 20
425.299990
 30
0.0
 10
257.200010
 20
427.459990
 30
0.0
 10
256.120000
 20
429.260010
 30
0.0
 10
254.500000
 20
430.880000
 30
0.0
 10
252.700000
 20
431.959990
 30
0.0
 10
250.720000
 20
432.859990
 30
0.0
 10
248.560000
 20
433.220000
 30
0.0
 10
246.399990
 20
433.040010
 30
0.0
 10
244.240010
 20
432.500000
 30
0.0
 10
242.440000
 20
431.420010
 30
0.0
 10
240.640000
 20
430.160000
 30
0.0
 10
239.380000
 20
428.359990
 30
0.0
 10
238.480000
 20
426.380000
 30
0.0
 10
237.940000
 20
424.220000
 30
0.0
 10
237.940000
 20
422.060000
 30
0.0
 10
238.480000
 20
419.899990
 30
0.0
 10
239.380000
 20
417.920010
 30
0.0
 10
240.640000
 20
416.120000
 30
0.0
 10
242.440000
 20
414.859990
 30
0.0
 10
244.240010
 20
413.780000
 30
0.0
 10
246.399990
 20
413.239990
 30
0.0
 10
248.560000
 20
413.060000
 30
0.0
 10
250.720000
 20
413.420010
 30
0.0
 10
252.700000
 20
414.320010
 30
0.0
 10
254.500000
 20
415.399990
 30
0.0
 10
256.120000
 20
417.019990
 30
0.0
 10
257.200010
 20
418.820010
 30
0.0
 10
257.920010
 20
420.980010
 30
0.0
 10
258.100010
 20
423.140010
 30
0.0
  0
LWPOLYLINE
  5
156
100
AcDbEntity
  8
Schecter7HS
 62
7
100
AcDbPolyline
 90
41
 70
0
 10
266.560000
 20
423.140010
 30
0.0
 10
266.380000
 20
426.019990
 30
0.0
 10
265.660000
 20
428.899990
 30
0.0
 10
264.579990
 20
431.600010
 30
0.0
 10
262.959990
 20
434.120000
 30
0.0
 10
261.160000
 20
436.280000
 30
0.0
 10
259.000000
 20
438.079990
 30
0.0
 10
256.480010
 20
439.700010
 30
0.0
 10
253.780000
 20
440.780000
 30
0.0
 10
250.899990
 20
441.500000
 30
0.0
 10
248.020000
 20
441.679990
 30
0.0
 10
245.140000
 20
441.500000
 30
0.0
 10
242.259990
 20
440.780000
 30
0.0
 10
239.560000
 20
439.700010
 30
0.0
 10
237.039990
 20
438.079990
 30
0.0
 10
234.880000
 20
436.280000
 30
0.0
 10
233.080000
 20
434.120000
 30
0.0
 10
231.460010
 20
431.600010
 30
0.0
 10
230.380000
 20
428.899990
 30
0.0
 10
229.660000
 20
426.019990
 30
0.0
 10
229.480000
 20
423.140010
 30
0.0
 10
229.660000
 20
420.260010
 30
0.0
 10
230.380000
 20
417.380000
 30
0.0
 10
231.460010
 20
414.679990
 30
0.0
 10
233.080000
 20
412.160000
 30
0.0
 10
234.880000
 20
410.000000
 30
0.0
 10
237.039990
 20
408.200010
 30
0.0
 10
239.560000
 20
406.579990
 30
0.0
 10
242.259990
 20
405.500000
 30
0.0
 10
245.140000
 20
404.780000
 30
0.0
 10
248.020000
 20
404.600010
 30
0.0
 10
250.899990
 20
404.780000
 30
0.0
 10
253.780000
 20
405.500000
 30
0.0
 10
256.480010
 20
406.579990
 30
0.0
 10
259.000000
 20
408.200010
 30
0.0
 10
261.160000
 20
410.000000
 30
0.0
 10
262.959990
 20
412.160000
 30
0.0
 10
264.579990
 20
414.679990
 30
0.0
 10
265.660000
 20
417.380000
 30
0.0
 10
266.380000
 20
420.260010
 30
0.0
 10
266.560000
 20
423.140010
 30
0.0
  0
LWPOLYLINE
  5
157
100
AcDbEntity
  8
Schecter7HS
 62
7
100
AcDbPolyline
 90
26
 70
0
 10
343.600010
 20
245.660000
 30
0.0
 10
343.420010
 20
247.460010
 30
0.0
 10
342.700010
 20
249.259990
 30
0.0
 10
341.620000
 20
250.700000
 30
0.0
 10
340.179990
 20
251.960010
 30
0.0
 10
338.560000
 20
252.679990
 30
0.0
 10
336.760010
 20
253.039990
 30
0.0
 10
334.780000
 20
252.860000
 30
0.0
 10
333.160000
 20
252.320010
 30
0.0
 10
331.540010
 20
251.420000
 30
0.0
 10
330.280000
 20
249.980000
 30
0.0
 10
329.380000
 20
248.360000
 30
0.0
 10
328.840000
 20
246.560000
 30
0.0
 10
328.840000
 20
244.759990
 30
0.0
 10
329.380000
 20
242.960010
 30
0.0
 10
330.280000
 20
241.340000
 30
0.0
 10
331.540010
 20
239.899990
 30
0.0
 10
333.160000
 20
239.000000
 30
0.0
 10
334.780000
 20
238.460010
 30
0.0
 10
336.760010
 20
238.280000
 30
0.0
 10
338.560000
 20
238.640000
 30
0.0
 10
340.179990
 20
239.360000
 30
0.0
 10
341.620000
 20
240.620000
 30
0.0
 10
342.700010
 20
242.060000
 30
0.0
 10
343.420010
 20
243.860000
 30
0.0
 10
343.600010
 20
245.660000
 30
0.0
  0
LWPOLYLINE
  5
158
100
AcDbEntity
  8
Schecter7HS
 62
7
100
AcDbPolyline
 90
30
 70
0
 10
346.120000
 20
245.660000
 30
0.0
 10
345.940000
 20
247.820010
 30
0.0
 10
345.220000
 20
249.800000
 30
0.0
 10
344.140010
 20
251.600010
 30
0.0
 10
342.700010
 20
253.220000
 30
0.0
 10
340.899990
 20
254.480000
 30
0.0
 10
338.920010
 20
255.200000
 30
0.0
 10
336.760010
 20
255.560000
 30
0.0
 10
334.600010
 20
255.380000
 30
0.0
 10
332.620000
 20
254.840000
 30
0.0
 10
330.640010
 20
253.940000
 30
0.0
 10
329.019990
 20
252.500000
 30
0.0
 10
327.760010
 20
250.700000
 30
0.0
 10
326.859990
 20
248.899990
 30
0.0
 10
326.320010
 20
246.740010
 30
0.0
 10
326.320010
 20
244.580000
 30
0.0
 10
326.859990
 20
242.420000
 30
0.0
 10
327.760010
 20
240.620000
 30
0.0
 10
329.019990
 20
238.820010
 30
0.0
 10
330.640010
 20
237.380000
 30
0.0
 10
332.620000
 20
236.480000
 30
0.0
 10
334.600010
 20
235.940000
 30
0.0
 10
336.760010
 20
235.759990
 30
0.0
 10
338.920010
 20
236.120000
 30
0.0
 10
340.899990
 20
236.840000
 30
0.0
 10
342.700010
 20
238.100010
 30
0.0
 10
344.140010
 20
239.720000
 30
0.0
 10
345.220000
 20
241.520000
 30
0.0
 10
345.940000
 20
243.500000
 30
0.0
 10
346.120000
 20
245.660000
 30
0.0
  0
LWPOLYLINE
  5
159
100
AcDbEntity
  8
Schecter7HS
 62
7
100
AcDbPolyline
 90
7
 70
0
 10
320.739990
 20
245.660000
 30
0.0
 10
328.480010
 20
232.520000
 30
0.0
 10
344.140010
 20
232.700000
 30
0.0
 10
352.060000
 20
245.840000
 30
0.0
 10
343.959990
 20
258.980010
 30
0.0
 10
328.480010
 20
258.799990
 30
0.0
 10
320.739990
 20
245.660000
 30
0.0
  0
LWPOLYLINE
  5
15a
100
AcDbEntity
  8
Schecter7HS
 62
7
100
AcDbPolyline
 90
5
 70
0
 10
380.679990
 20
216.679990
 30
0.0
 10
385.359990
 20
216.679990
 30
0.0
 10
385.179990
 20
234.140000
 30
0.0
 10
380.679990
 20
234.140000
 30
0.0
 10
380.679990
 20
216.679990
 30
0.0
  0
LWPOLYLINE
  5
15b
100
AcDbEntity
  8
Schecter7HS
 62
7
100
AcDbPolyline
 90
5
 70
0
 10
385.359990
 20
216.679990
 30
0.0
 10
388.060000
 20
216.679990
 30
0.0
 10
387.880000
 20
234.140000
 30
0.0
 10
385.179990
 20
234.140000
 30
0.0
 10
385.359990
 20
216.679990
 30
0.0
  0
LWPOLYLINE
  5
15c
100
AcDbEntity
  8
Schecter7HS
 62
7
100
AcDbPolyline
 90
6
 70
0
 10
390.760010
 20
217.580000
 30
0.0
 10
390.760010
 20
216.679990
 30
0.0
 10
388.060000
 20
216.679990
 30
0.0
 10
387.880000
 20
234.140000
 30
0.0
 10
390.579990
 20
234.140000
 30
0.0
 10
390.579990
 20
234.140000
 30
0.0
  0
LWPOLYLINE
  5
15d
100
AcDbEntity
  8
Schecter7HS
 62
7
100
AcDbPolyline
 90
2
 70
0
 10
370.420010
 20
215.780000
 30
0.0
 10
380.679990
 20
216.679990
 30
0.0
  0
LWPOLYLINE
  5
15e
100
AcDbEntity
  8
Schecter7HS
 62
7
100
AcDbPolyline
 90
2
 70
0
 10
370.420010
 20
235.039990
 30
0.0
 10
380.679990
 20
234.140000
 30
0.0
  0
LWPOLYLINE
  5
15f
100
AcDbEntity
  8
Schecter7HS
 62
7
100
AcDbPolyline
 90
2
 70
0
 10
395.620000
 20
251.060000
 30
0.0
 10
388.600010
 20
227.480000
 30
0.0
  0
LWPOLYLINE
  5
160
100
AcDbEntity
  8
Schecter7HS
 62
7
100
AcDbPolyline
 90
3
 70
0
 10
388.780000
 20
227.300000
 30
0.0
 10
388.600010
 20
225.860000
 30
0.0
 10
388.780000
 20
224.240010
 30
0.0
  0
LWPOLYLINE
  5
161
100
AcDbEntity
  8
Schecter7HS
 62
7
100
AcDbPolyline
 90
2
 70
0
 10
416.859990
 20
254.840000
 30
0.0
 10
400.840000
 20
254.840000
 30
0.0
  0
LWPOLYLINE
  5
162
100
AcDbEntity
  8
Schecter7HS
 62
7
100
AcDbPolyline
 90
5
 70
0
 10
400.840000
 20
254.660000
 30
0.0
 10
399.220000
 20
254.480000
 30
0.0
 10
397.780000
 20
253.580000
 30
0.0
 10
396.519990
 20
252.500000
 30
0.0
 10
395.799990
 20
250.880000
 30
0.0
  0
LWPOLYLINE
  5
163
100
AcDbEntity
  8
Schecter7HS
 62
7
100
AcDbPolyline
 90
8
 70
0
 10
430.179990
 20
226.039990
 30
0.0
 10
429.640010
 20
230.720000
 30
0.0
 10
428.739990
 20
235.220000
 30
0.0
 10
427.299990
 20
239.720000
 30
0.0
 10
425.320010
 20
243.860000
 30
0.0
 10
422.799990
 20
247.820010
 30
0.0
 10
420.100010
 20
251.600010
 30
0.0
 10
416.859990
 20
254.840000
 30
0.0
  0
LWPOLYLINE
  5
164
100
AcDbEntity
  8
Schecter7HS
 62
7
100
AcDbPolyline
 90
2
 70
0
 10
395.980010
 20
200.840000
 30
0.0
 10
388.600010
 20
224.240010
 30
0.0
  0
LWPOLYLINE
  5
165
100
AcDbEntity
  8
Schecter7HS
 62
7
100
AcDbPolyline
 90
2
 70
0
 10
417.220000
 20
197.060000
 30
0.0
 10
401.019990
 20
197.060000
 30
0.0
  0
LWPOLYLINE
  5
166
100
AcDbEntity
  8
Schecter7HS
 62
7
100
AcDbPolyline
 90
5
 70
0
 10
395.980010
 20
200.840000
 30
0.0
 10
396.700010
 20
199.399990
 30
0.0
 10
397.959990
 20
198.320010
 30
0.0
 10
399.399990
 20
197.420000
 30
0.0
 10
401.019990
 20
197.240010
 30
0.0
  0
LWPOLYLINE
  5
167
100
AcDbEntity
  8
Schecter7HS
 62
7
100
AcDbPolyline
 90
8
 70
0
 10
417.040010
 20
197.060000
 30
0.0
 10
420.280000
 20
200.480000
 30
0.0
 10
422.980010
 20
204.080000
 30
0.0
 10
425.500000
 20
208.220000
 30
0.0
 10
427.299990
 20
212.360000
 30
0.0
 10
428.739990
 20
216.860000
 30
0.0
 10
429.820010
 20
221.360000
 30
0.0
 10
430.179990
 20
226.039990
 30
0.0
  0
LWPOLYLINE
  5
168
100
AcDbEntity
  8
Schecter7HS
 62
7
100
AcDbPolyline
 90
30
 70
0
 10
346.299990
 20
245.660000
 30
0.0
 10
346.120000
 20
247.820010
 30
0.0
 10
345.399990
 20
249.980000
 30
0.0
 10
344.320010
 20
251.780000
 30
0.0
 10
342.700010
 20
253.399990
 30
0.0
 10
340.899990
 20
254.480000
 30
0.0
 10
338.920010
 20
255.380000
 30
0.0
 10
336.760010
 20
255.740010
 30
0.0
 10
334.600010
 20
255.560000
 30
0.0
 10
332.440000
 20
255.020000
 30
0.0
 10
330.640010
 20
253.940000
 30
0.0
 10
328.840000
 20
252.679990
 30
0.0
 10
327.579990
 20
250.880000
 30
0.0
 10
326.679990
 20
248.899990
 30
0.0
 10
326.140010
 20
246.740010
 30
0.0
 10
326.140010
 20
244.580000
 30
0.0
 10
326.679990
 20
242.420000
 30
0.0
 10
327.579990
 20
240.440000
 30
0.0
 10
328.840000
 20
238.640000
 30
0.0
 10
330.640010
 20
237.380000
 30
0.0
 10
332.440000
 20
236.300000
 30
0.0
 10
334.600010
 20
235.759990
 30
0.0
 10
336.760010
 20
235.580000
 30
0.0
 10
338.920010
 20
235.940000
 30
0.0
 10
340.899990
 20
236.840000
 30
0.0
 10
342.700010
 20
237.920000
 30
0.0
 10
344.320010
 20
239.539990
 30
0.0
 10
345.399990
 20
241.340000
 30
0.0
 10
346.120000
 20
243.500000
 30
0.0
 10
346.299990
 20
245.660000
 30
0.0
  0
LWPOLYLINE
  5
169
100
AcDbEntity
  8
Schecter7HS
 62
7
100
AcDbPolyline
 90
41
 70
0
 10
354.760010
 20
245.660000
 30
0.0
 10
354.579990
 20
248.539990
 30
0.0
 10
353.859990
 20
251.420000
 30
0.0
 10
352.780000
 20
254.120000
 30
0.0
 10
351.160000
 20
256.640010
 30
0.0
 10
349.359990
 20
258.799990
 30
0.0
 10
347.200010
 20
260.600010
 30
0.0
 10
344.679990
 20
262.220000
 30
0.0
 10
341.980010
 20
263.299990
 30
0.0
 10
339.100010
 20
264.019990
 30
0.0
 10
336.220000
 20
264.200010
 30
0.0
 10
333.340000
 20
264.019990
 30
0.0
 10
330.459990
 20
263.299990
 30
0.0
 10
327.760010
 20
262.220000
 30
0.0
 10
325.239990
 20
260.600010
 30
0.0
 10
323.079990
 20
258.799990
 30
0.0
 10
321.280000
 20
256.640010
 30
0.0
 10
319.660000
 20
254.120000
 30
0.0
 10
318.579990
 20
251.420000
 30
0.0
 10
317.859990
 20
248.539990
 30
0.0
 10
317.679990
 20
245.660000
 30
0.0
 10
317.859990
 20
242.780000
 30
0.0
 10
318.579990
 20
239.899990
 30
0.0
 10
319.660000
 20
237.200000
 30
0.0
 10
321.280000
 20
234.679990
 30
0.0
 10
323.079990
 20
232.520000
 30
0.0
 10
325.239990
 20
230.720000
 30
0.0
 10
327.760010
 20
229.100010
 30
0.0
 10
330.459990
 20
228.020000
 30
0.0
 10
333.340000
 20
227.300000
 30
0.0
 10
336.220000
 20
227.120000
 30
0.0
 10
339.100010
 20
227.300000
 30
0.0
 10
341.980010
 20
228.020000
 30
0.0
 10
344.679990
 20
229.100010
 30
0.0
 10
347.200010
 20
230.720000
 30
0.0
 10
349.359990
 20
232.520000
 30
0.0
 10
351.160000
 20
234.679990
 30
0.0
 10
352.780000
 20
237.200000
 30
0.0
 10
353.859990
 20
239.899990
 30
0.0
 10
354.579990
 20
242.780000
 30
0.0
 10
354.760010
 20
245.660000
 30
0.0
  0
LWPOLYLINE
  5
16a
100
AcDbEntity
  8
Schecter7HS
 62
7
100
AcDbPolyline
 90
26
 70
0
 10
358.720000
 20
333.140010
 30
0.0
 10
358.540010
 20
334.940000
 30
0.0
 10
357.820010
 20
336.739990
 30
0.0
 10
356.739990
 20
338.179990
 30
0.0
 10
355.299990
 20
339.440000
 30
0.0
 10
353.679990
 20
340.160000
 30
0.0
 10
351.880000
 20
340.519990
 30
0.0
 10
349.899990
 20
340.340000
 30
0.0
 10
348.280000
 20
339.799990
 30
0.0
 10
346.660000
 20
338.899990
 30
0.0
 10
345.399990
 20
337.459990
 30
0.0
 10
344.500000
 20
335.840000
 30
0.0
 10
343.959990
 20
334.040010
 30
0.0
 10
343.959990
 20
332.239990
 30
0.0
 10
344.500000
 20
330.440000
 30
0.0
 10
345.399990
 20
328.820010
 30
0.0
 10
346.660000
 20
327.380000
 30
0.0
 10
348.280000
 20
326.480010
 30
0.0
 10
349.899990
 20
325.940000
 30
0.0
 10
351.880000
 20
325.760010
 30
0.0
 10
353.679990
 20
326.120000
 30
0.0
 10
355.299990
 20
326.840000
 30
0.0
 10
356.739990
 20
328.100010
 30
0.0
 10
357.820010
 20
329.540010
 30
0.0
 10
358.540010
 20
331.340000
 30
0.0
 10
358.720000
 20
333.140010
 30
0.0
  0
LWPOLYLINE
  5
16b
100
AcDbEntity
  8
Schecter7HS
 62
7
100
AcDbPolyline
 90
30
 70
0
 10
361.239990
 20
333.140010
 30
0.0
 10
361.060000
 20
335.299990
 30
0.0
 10
360.340000
 20
337.280000
 30
0.0
 10
359.260010
 20
339.079990
 30
0.0
 10
357.820010
 20
340.700010
 30
0.0
 10
356.019990
 20
341.959990
 30
0.0
 10
354.040010
 20
342.679990
 30
0.0
 10
351.880000
 20
343.040010
 30
0.0
 10
349.720000
 20
342.859990
 30
0.0
 10
347.739990
 20
342.320010
 30
0.0
 10
345.760010
 20
341.420010
 30
0.0
 10
344.140010
 20
339.980010
 30
0.0
 10
342.880000
 20
338.179990
 30
0.0
 10
341.980010
 20
336.380000
 30
0.0
 10
341.440000
 20
334.220000
 30
0.0
 10
341.440000
 20
332.060000
 30
0.0
 10
341.980010
 20
329.899990
 30
0.0
 10
342.880000
 20
328.100010
 30
0.0
 10
344.140010
 20
326.299990
 30
0.0
 10
345.760010
 20
324.859990
 30
0.0
 10
347.739990
 20
323.959990
 30
0.0
 10
349.720000
 20
323.420010
 30
0.0
 10
351.880000
 20
323.239990
 30
0.0
 10
354.040010
 20
323.600010
 30
0.0
 10
356.019990
 20
324.320010
 30
0.0
 10
357.820010
 20
325.579990
 30
0.0
 10
359.260010
 20
327.200010
 30
0.0
 10
360.340000
 20
329.000000
 30
0.0
 10
361.060000
 20
330.980010
 30
0.0
 10
361.239990
 20
333.140010
 30
0.0
  0
LWPOLYLINE
  5
16c
100
AcDbEntity
  8
Schecter7HS
 62
7
100
AcDbPolyline
 90
7
 70
0
 10
335.859990
 20
333.140010
 30
0.0
 10
343.780000
 20
320.000000
 30
0.0
 10
359.260010
 20
320.179990
 30
0.0
 10
367.179990
 20
333.320010
 30
0.0
 10
359.079990
 20
346.280000
 30
0.0
 10
343.600010
 20
346.280000
 30
0.0
 10
335.859990
 20
333.140010
 30
0.0
  0
LWPOLYLINE
  5
16d
100
AcDbEntity
  8
Schecter7HS
 62
7
100
AcDbPolyline
 90
5
 70
0
 10
395.980010
 20
304.160000
 30
0.0
 10
400.480010
 20
304.160000
 30
0.0
 10
400.480010
 20
321.620000
 30
0.0
 10
395.799990
 20
321.620000
 30
0.0
 10
395.980010
 20
304.160000
 30
0.0
  0
LWPOLYLINE
  5
16e
100
AcDbEntity
  8
Schecter7HS
 62
7
100
AcDbPolyline
 90
5
 70
0
 10
400.480010
 20
304.160000
 30
0.0
 10
403.179990
 20
304.160000
 30
0.0
 10
403.179990
 20
321.620000
 30
0.0
 10
400.480010
 20
321.620000
 30
0.0
 10
400.480010
 20
304.160000
 30
0.0
  0
LWPOLYLINE
  5
16f
100
AcDbEntity
  8
Schecter7HS
 62
7
100
AcDbPolyline
 90
6
 70
0
 10
405.880000
 20
305.060000
 30
0.0
 10
405.880000
 20
304.160000
 30
0.0
 10
403.179990
 20
304.160000
 30
0.0
 10
403.179990
 20
321.620000
 30
0.0
 10
405.880000
 20
321.620000
 30
0.0
 10
405.880000
 20
321.620000
 30
0.0
  0
LWPOLYLINE
  5
170
100
AcDbEntity
  8
Schecter7HS
 62
7
100
AcDbPolyline
 90
2
 70
0
 10
375.100010
 20
302.359990
 30
0.0
 10
395.980010
 20
304.160000
 30
0.0
  0
LWPOLYLINE
  5
171
100
AcDbEntity
  8
Schecter7HS
 62
7
100
AcDbPolyline
 90
2
 70
0
 10
378.160000
 20
323.060000
 30
0.0
 10
395.799990
 20
321.620000
 30
0.0
  0
LWPOLYLINE
  5
172
100
AcDbEntity
  8
Schecter7HS
 62
7
100
AcDbPolyline
 90
2
 70
0
 10
410.920010
 20
338.359990
 30
0.0
 10
403.899990
 20
314.959990
 30
0.0
  0
LWPOLYLINE
  5
173
100
AcDbEntity
  8
Schecter7HS
 62
7
100
AcDbPolyline
 90
3
 70
0
 10
403.899990
 20
314.780000
 30
0.0
 10
403.720000
 20
313.340000
 30
0.0
 10
403.899990
 20
311.720000
 30
0.0
  0
LWPOLYLINE
  5
174
100
AcDbEntity
  8
Schecter7HS
 62
7
100
AcDbPolyline
 90
2
 70
0
 10
432.160000
 20
342.320010
 30
0.0
 10
415.959990
 20
342.320010
 30
0.0
  0
LWPOLYLINE
  5
175
100
AcDbEntity
  8
Schecter7HS
 62
7
100
AcDbPolyline
 90
5
 70
0
 10
415.959990
 20
342.140010
 30
0.0
 10
414.340000
 20
341.959990
 30
0.0
 10
412.899990
 20
341.060000
 30
0.0
 10
411.640010
 20
339.980010
 30
0.0
 10
410.920010
 20
338.359990
 30
0.0
  0
LWPOLYLINE
  5
176
100
AcDbEntity
  8
Schecter7HS
 62
7
100
AcDbPolyline
 90
8
 70
0
 10
445.299990
 20
313.519990
 30
0.0
 10
444.760010
 20
318.200010
 30
0.0
 10
443.859990
 20
322.700010
 30
0.0
 10
442.420010
 20
327.200010
 30
0.0
 10
440.440000
 20
331.340000
 30
0.0
 10
437.920010
 20
335.299990
 30
0.0
 10
435.220000
 20
339.079990
 30
0.0
 10
431.980010
 20
342.320010
 30
0.0
  0
LWPOLYLINE
  5
177
100
AcDbEntity
  8
Schecter7HS
 62
7
100
AcDbPolyline
 90
2
 70
0
 10
411.100010
 20
288.320010
 30
0.0
 10
403.899990
 20
311.720000
 30
0.0
  0
LWPOLYLINE
  5
178
100
AcDbEntity
  8
Schecter7HS
 62
7
100
AcDbPolyline
 90
2
 70
0
 10
432.340000
 20
284.540010
 30
0.0
 10
416.140010
 20
284.540010
 30
0.0
  0
LWPOLYLINE
  5
179
100
AcDbEntity
  8
Schecter7HS
 62
7
100
AcDbPolyline
 90
5
 70
0
 10
411.100010
 20
288.320010
 30
0.0
 10
411.820010
 20
286.880000
 30
0.0
 10
413.079990
 20
285.799990
 30
0.0
 10
414.519990
 20
284.899990
 30
0.0
 10
416.140010
 20
284.720000
 30
0.0
  0
LWPOLYLINE
  5
17a
100
AcDbEntity
  8
Schecter7HS
 62
7
100
AcDbPolyline
 90
8
 70
0
 10
432.160000
 20
284.540010
 30
0.0
 10
435.399990
 20
287.959990
 30
0.0
 10
438.100010
 20
291.560000
 30
0.0
 10
440.620000
 20
295.700010
 30
0.0
 10
442.420010
 20
299.840000
 30
0.0
 10
443.859990
 20
304.340000
 30
0.0
 10
444.940000
 20
308.840000
 30
0.0
 10
445.299990
 20
313.519990
 30
0.0
  0
LWPOLYLINE
  5
17b
100
AcDbEntity
  8
Schecter7HS
 62
7
100
AcDbPolyline
 90
30
 70
0
 10
361.420010
 20
333.140010
 30
0.0
 10
361.239990
 20
335.299990
 30
0.0
 10
360.519990
 20
337.459990
 30
0.0
 10
359.440000
 20
339.260010
 30
0.0
 10
357.820010
 20
340.880000
 30
0.0
 10
356.019990
 20
341.959990
 30
0.0
 10
354.040010
 20
342.859990
 30
0.0
 10
351.880000
 20
343.220000
 30
0.0
 10
349.720000
 20
343.040010
 30
0.0
 10
347.560000
 20
342.500000
 30
0.0
 10
345.760010
 20
341.420010
 30
0.0
 10
343.959990
 20
340.160000
 30
0.0
 10
342.700010
 20
338.359990
 30
0.0
 10
341.799990
 20
336.380000
 30
0.0
 10
341.260010
 20
334.220000
 30
0.0
 10
341.260010
 20
332.060000
 30
0.0
 10
341.799990
 20
329.899990
 30
0.0
 10
342.700010
 20
327.920010
 30
0.0
 10
343.959990
 20
326.120000
 30
0.0
 10
345.760010
 20
324.859990
 30
0.0
 10
347.560000
 20
323.780000
 30
0.0
 10
349.720000
 20
323.239990
 30
0.0
 10
351.880000
 20
323.060000
 30
0.0
 10
354.040010
 20
323.420010
 30
0.0
 10
356.019990
 20
324.320010
 30
0.0
 10
357.820010
 20
325.399990
 30
0.0
 10
359.440000
 20
327.019990
 30
0.0
 10
360.519990
 20
328.820010
 30
0.0
 10
361.239990
 20
330.980010
 30
0.0
 10
361.420010
 20
333.140010
 30
0.0
  0
LWPOLYLINE
  5
17c
100
AcDbEntity
  8
Schecter7HS
 62
7
100
AcDbPolyline
 90
41
 70
0
 10
369.880000
 20
333.140010
 30
0.0
 10
369.700010
 20
336.019990
 30
0.0
 10
368.980010
 20
338.899990
 30
0.0
 10
367.899990
 20
341.600010
 30
0.0
 10
366.280000
 20
344.120000
 30
0.0
 10
364.480010
 20
346.280000
 30
0.0
 10
362.320010
 20
348.079990
 30
0.0
 10
359.799990
 20
349.700010
 30
0.0
 10
357.100010
 20
350.780000
 30
0.0
 10
354.220000
 20
351.500000
 30
0.0
 10
351.340000
 20
351.679990
 30
0.0
 10
348.459990
 20
351.500000
 30
0.0
 10
345.579990
 20
350.780000
 30
0.0
 10
342.880000
 20
349.700010
 30
0.0
 10
340.359990
 20
348.079990
 30
0.0
 10
338.200010
 20
346.280000
 30
0.0
 10
336.399990
 20
344.120000
 30
0.0
 10
334.780000
 20
341.600010
 30
0.0
 10
333.700010
 20
338.899990
 30
0.0
 10
332.980010
 20
336.019990
 30
0.0
 10
332.799990
 20
333.140010
 30
0.0
 10
332.980010
 20
330.260010
 30
0.0
 10
333.700010
 20
327.380000
 30
0.0
 10
334.780000
 20
324.679990
 30
0.0
 10
336.399990
 20
322.160000
 30
0.0
 10
338.200010
 20
320.000000
 30
0.0
 10
340.359990
 20
318.200010
 30
0.0
 10
342.880000
 20
316.579990
 30
0.0
 10
345.579990
 20
315.500000
 30
0.0
 10
348.459990
 20
314.780000
 30
0.0
 10
351.340000
 20
314.600010
 30
0.0
 10
354.220000
 20
314.780000
 30
0.0
 10
357.100010
 20
315.500000
 30
0.0
 10
359.799990
 20
316.579990
 30
0.0
 10
362.320010
 20
318.200010
 30
0.0
 10
364.480010
 20
320.000000
 30
0.0
 10
366.280000
 20
322.160000
 30
0.0
 10
367.899990
 20
324.679990
 30
0.0
 10
368.980010
 20
327.380000
 30
0.0
 10
369.700010
 20
330.260010
 30
0.0
 10
369.880000
 20
333.140010
 30
0.0
  0
LWPOLYLINE
  5
17d
100
AcDbEntity
  8
Schecter7HS
 62
7
100
AcDbPolyline
 90
26
 70
0
 10
374.019990
 20
421.880000
 30
0.0
 10
373.840000
 20
423.679990
 30
0.0
 10
373.120000
 20
425.480010
 30
0.0
 10
372.040010
 20
426.920010
 30
0.0
 10
370.600010
 20
428.179990
 30
0.0
 10
368.980010
 20
428.899990
 30
0.0
 10
367.179990
 20
429.260010
 30
0.0
 10
365.200010
 20
429.079990
 30
0.0
 10
363.579990
 20
428.540010
 30
0.0
 10
361.959990
 20
427.640010
 30
0.0
 10
360.700010
 20
426.200010
 30
0.0
 10
359.799990
 20
424.579990
 30
0.0
 10
359.260010
 20
422.780000
 30
0.0
 10
359.260010
 20
420.980010
 30
0.0
 10
359.799990
 20
419.179990
 30
0.0
 10
360.700010
 20
417.560000
 30
0.0
 10
361.959990
 20
416.120000
 30
0.0
 10
363.579990
 20
415.220000
 30
0.0
 10
365.200010
 20
414.679990
 30
0.0
 10
367.179990
 20
414.500000
 30
0.0
 10
368.980010
 20
414.859990
 30
0.0
 10
370.600010
 20
415.579990
 30
0.0
 10
372.040010
 20
416.840000
 30
0.0
 10
373.120000
 20
418.280000
 30
0.0
 10
373.840000
 20
420.079990
 30
0.0
 10
374.019990
 20
421.880000
 30
0.0
  0
LWPOLYLINE
  5
17e
100
AcDbEntity
  8
Schecter7HS
 62
7
100
AcDbPolyline
 90
30
 70
0
 10
376.540010
 20
421.880000
 30
0.0
 10
376.359990
 20
424.040010
 30
0.0
 10
375.640010
 20
426.019990
 30
0.0
 10
374.560000
 20
427.820010
 30
0.0
 10
373.120000
 20
429.440000
 30
0.0
 10
371.320010
 20
430.700010
 30
0.0
 10
369.340000
 20
431.420010
 30
0.0
 10
367.179990
 20
431.780000
 30
0.0
 10
365.019990
 20
431.600010
 30
0.0
 10
363.040010
 20
431.060000
 30
0.0
 10
361.060000
 20
430.160000
 30
0.0
 10
359.440000
 20
428.720000
 30
0.0
 10
358.179990
 20
426.920010
 30
0.0
 10
357.280000
 20
425.120000
 30
0.0
 10
356.739990
 20
422.959990
 30
0.0
 10
356.739990
 20
420.799990
 30
0.0
 10
357.280000
 20
418.640010
 30
0.0
 10
358.179990
 20
416.840000
 30
0.0
 10
359.440000
 20
415.040010
 30
0.0
 10
361.060000
 20
413.600010
 30
0.0
 10
363.040010
 20
412.700010
 30
0.0
 10
365.019990
 20
412.160000
 30
0.0
 10
367.179990
 20
411.980010
 30
0.0
 10
369.340000
 20
412.340000
 30
0.0
 10
371.320010
 20
413.060000
 30
0.0
 10
373.120000
 20
414.320010
 30
0.0
 10
374.560000
 20
415.940000
 30
0.0
 10
375.640010
 20
417.739990
 30
0.0
 10
376.359990
 20
419.720000
 30
0.0
 10
376.540010
 20
421.880000
 30
0.0
  0
LWPOLYLINE
  5
17f
100
AcDbEntity
  8
Schecter7HS
 62
7
100
AcDbPolyline
 90
7
 70
0
 10
351.160000
 20
421.700010
 30
0.0
 10
358.899990
 20
408.739990
 30
0.0
 10
374.560000
 20
408.739990
 30
0.0
 10
382.480010
 20
421.880000
 30
0.0
 10
374.380000
 20
435.019990
 30
0.0
 10
358.899990
 20
434.840000
 30
0.0
 10
351.160000
 20
421.700010
 30
0.0
  0
LWPOLYLINE
  5
180
100
AcDbEntity
  8
Schecter7HS
 62
7
100
AcDbPolyline
 90
5
 70
0
 10
411.280000
 20
392.720000
 30
0.0
 10
415.780000
 20
392.720000
 30
0.0
 10
415.780000
 20
410.179990
 30
0.0
 10
411.100010
 20
410.179990
 30
0.0
 10
411.280000
 20
392.720000
 30
0.0
  0
LWPOLYLINE
  5
181
100
AcDbEntity
  8
Schecter7HS
 62
7
100
AcDbPolyline
 90
5
 70
0
 10
415.780000
 20
392.720000
 30
0.0
 10
418.480010
 20
392.720000
 30
0.0
 10
418.480010
 20
410.179990
 30
0.0
 10
415.780000
 20
410.179990
 30
0.0
 10
415.780000
 20
392.720000
 30
0.0
  0
LWPOLYLINE
  5
182
100
AcDbEntity
  8
Schecter7HS
 62
7
100
AcDbPolyline
 90
6
 70
0
 10
421.179990
 20
393.620000
 30
0.0
 10
421.179990
 20
392.720000
 30
0.0
 10
418.480010
 20
392.720000
 30
0.0
 10
418.480010
 20
410.179990
 30
0.0
 10
421.179990
 20
410.179990
 30
0.0
 10
421.179990
 20
410.179990
 30
0.0
  0
LWPOLYLINE
  5
183
100
AcDbEntity
  8
Schecter7HS
 62
7
100
AcDbPolyline
 90
2
 70
0
 10
392.920010
 20
391.100010
 30
0.0
 10
411.280000
 20
392.720000
 30
0.0
  0
LWPOLYLINE
  5
184
100
AcDbEntity
  8
Schecter7HS
 62
7
100
AcDbPolyline
 90
2
 70
0
 10
398.679990
 20
411.260010
 30
0.0
 10
411.100010
 20
410.179990
 30
0.0
  0
LWPOLYLINE
  5
185
100
AcDbEntity
  8
Schecter7HS
 62
7
100
AcDbPolyline
 90
2
 70
0
 10
426.220000
 20
427.100010
 30
0.0
 10
419.019990
 20
403.519990
 30
0.0
  0
LWPOLYLINE
  5
186
100
AcDbEntity
  8
Schecter7HS
 62
7
100
AcDbPolyline
 90
3
 70
0
 10
419.200010
 20
403.340000
 30
0.0
 10
419.019990
 20
401.899990
 30
0.0
 10
419.200010
 20
400.280000
 30
0.0
  0
LWPOLYLINE
  5
187
100
AcDbEntity
  8
Schecter7HS
 62
7
100
AcDbPolyline
 90
2
 70
0
 10
447.459990
 20
430.880000
 30
0.0
 10
431.260010
 20
430.880000
 30
0.0
  0
LWPOLYLINE
  5
188
100
AcDbEntity
  8
Schecter7HS
 62
7
100
AcDbPolyline
 90
5
 70
0
 10
431.260010
 20
430.700010
 30
0.0
 10
429.640010
 20
430.519990
 30
0.0
 10
428.200010
 20
429.620000
 30
0.0
 10
426.940000
 20
428.540010
 30
0.0
 10
426.220000
 20
426.920010
 30
0.0
  0
LWPOLYLINE
  5
189
100
AcDbEntity
  8
Schecter7HS
 62
7
100
AcDbPolyline
 90
8
 70
0
 10
460.600010
 20
402.079990
 30
0.0
 10
460.060000
 20
406.760010
 30
0.0
 10
459.160000
 20
411.260010
 30
0.0
 10
457.720000
 20
415.760010
 30
0.0
 10
455.739990
 20
419.899990
 30
0.0
 10
453.220000
 20
423.859990
 30
0.0
 10
450.519990
 20
427.640010
 30
0.0
 10
447.280000
 20
430.880000
 30
0.0
  0
LWPOLYLINE
  5
18a
100
AcDbEntity
  8
Schecter7HS
 62
7
100
AcDbPolyline
 90
2
 70
0
 10
426.399990
 20
376.880000
 30
0.0
 10
419.019990
 20
400.459990
 30
0.0
  0
LWPOLYLINE
  5
18b
100
AcDbEntity
  8
Schecter7HS
 62
7
100
AcDbPolyline
 90
2
 70
0
 10
447.640010
 20
373.280000
 30
0.0
 10
431.440000
 20
373.100010
 30
0.0
  0
LWPOLYLINE
  5
18c
100
AcDbEntity
  8
Schecter7HS
 62
7
100
AcDbPolyline
 90
5
 70
0
 10
426.399990
 20
376.880000
 30
0.0
 10
427.120000
 20
375.440000
 30
0.0
 10
428.380000
 20
374.359990
 30
0.0
 10
429.820010
 20
373.459990
 30
0.0
 10
431.440000
 20
373.280000
 30
0.0
  0
LWPOLYLINE
  5
18d
100
AcDbEntity
  8
Schecter7HS
 62
7
100
AcDbPolyline
 90
8
 70
0
 10
447.459990
 20
373.100010
 30
0.0
 10
450.700010
 20
376.519990
 30
0.0
 10
453.399990
 20
380.120000
 30
0.0
 10
455.920010
 20
384.260010
 30
0.0
 10
457.720000
 20
388.399990
 30
0.0
 10
459.160000
 20
392.899990
 30
0.0
 10
460.239990
 20
397.399990
 30
0.0
 10
460.600010
 20
402.079990
 30
0.0
  0
LWPOLYLINE
  5
18e
100
AcDbEntity
  8
Schecter7HS
 62
7
100
AcDbPolyline
 90
30
 70
0
 10
376.720000
 20
421.880000
 30
0.0
 10
376.540010
 20
424.040010
 30
0.0
 10
375.820010
 20
426.200010
 30
0.0
 10
374.739990
 20
428.000000
 30
0.0
 10
373.120000
 20
429.620000
 30
0.0
 10
371.320010
 20
430.700010
 30
0.0
 10
369.340000
 20
431.600010
 30
0.0
 10
367.179990
 20
431.959990
 30
0.0
 10
365.019990
 20
431.780000
 30
0.0
 10
362.859990
 20
431.239990
 30
0.0
 10
361.060000
 20
430.160000
 30
0.0
 10
359.260010
 20
428.899990
 30
0.0
 10
358.000000
 20
427.100010
 30
0.0
 10
357.100010
 20
425.120000
 30
0.0
 10
356.560000
 20
422.959990
 30
0.0
 10
356.560000
 20
420.799990
 30
0.0
 10
357.100010
 20
418.640010
 30
0.0
 10
358.000000
 20
416.660000
 30
0.0
 10
359.260010
 20
414.859990
 30
0.0
 10
361.060000
 20
413.600010
 30
0.0
 10
362.859990
 20
412.519990
 30
0.0
 10
365.019990
 20
411.980010
 30
0.0
 10
367.179990
 20
411.799990
 30
0.0
 10
369.340000
 20
412.160000
 30
0.0
 10
371.320010
 20
413.060000
 30
0.0
 10
373.120000
 20
414.140010
 30
0.0
 10
374.739990
 20
415.760010
 30
0.0
 10
375.820010
 20
417.560000
 30
0.0
 10
376.540010
 20
419.720000
 30
0.0
 10
376.720000
 20
421.880000
 30
0.0
  0
LWPOLYLINE
  5
18f
100
AcDbEntity
  8
Schecter7HS
 62
7
100
AcDbPolyline
 90
41
 70
0
 10
385.179990
 20
421.880000
 30
0.0
 10
385.000000
 20
424.760010
 30
0.0
 10
384.280000
 20
427.640010
 30
0.0
 10
383.200010
 20
430.340000
 30
0.0
 10
381.579990
 20
432.859990
 30
0.0
 10
379.780000
 20
435.019990
 30
0.0
 10
377.620000
 20
436.820010
 30
0.0
 10
375.100010
 20
438.440000
 30
0.0
 10
372.399990
 20
439.519990
 30
0.0
 10
369.519990
 20
440.239990
 30
0.0
 10
366.640010
 20
440.420010
 30
0.0
 10
363.760010
 20
440.239990
 30
0.0
 10
360.880000
 20
439.519990
 30
0.0
 10
358.179990
 20
438.440000
 30
0.0
 10
355.660000
 20
436.820010
 30
0.0
 10
353.500000
 20
435.019990
 30
0.0
 10
351.700010
 20
432.859990
 30
0.0
 10
350.079990
 20
430.340000
 30
0.0
 10
349.000000
 20
427.640010
 30
0.0
 10
348.280000
 20
424.760010
 30
0.0
 10
348.100010
 20
421.880000
 30
0.0
 10
348.280000
 20
419.000000
 30
0.0
 10
349.000000
 20
416.120000
 30
0.0
 10
350.079990
 20
413.420010
 30
0.0
 10
351.700010
 20
410.899990
 30
0.0
 10
353.500000
 20
408.739990
 30
0.0
 10
355.660000
 20
406.940000
 30
0.0
 10
358.179990
 20
405.320010
 30
0.0
 10
360.880000
 20
404.239990
 30
0.0
 10
363.760010
 20
403.519990
 30
0.0
 10
366.640010
 20
403.340000
 30
0.0
 10
369.519990
 20
403.519990
 30
0.0
 10
372.399990
 20
404.239990
 30
0.0
 10
375.100010
 20
405.320010
 30
0.0
 10
377.620000
 20
406.940000
 30
0.0
 10
379.780000
 20
408.739990
 30
0.0
 10
381.579990
 20
410.899990
 30
0.0
 10
383.200010
 20
413.420010
 30
0.0
 10
384.280000
 20
416.120000
 30
0.0
 10
385.000000
 20
419.000000
 30
0.0
 10
385.179990
 20
421.880000
 30
0.0
  0
LWPOLYLINE
  5
190
100
AcDbEntity
  8
Schecter7HS
 62
7
100
AcDbPolyline
 90
3
 70
0
 10
239.200000
 20
553.820010
 30
0.0
 10
364.840000
 20
553.820010
 30
0.0
 10
302.019990
 20
553.820010
 30
0.0
  0
LWPOLYLINE
  5
191
100
AcDbEntity
  8
Schecter7HS
 62
7
100
AcDbPolyline
 90
2
 70
0
 10
364.840000
 20
557.960020
 30
0.0
 10
364.840000
 20
640.760010
 30
0.0
  0
LWPOLYLINE
  5
192
100
AcDbEntity
  8
Schecter7HS
 62
7
100
AcDbPolyline
 90
2
 70
0
 10
239.200000
 20
557.960020
 30
0.0
 10
239.200000
 20
640.760010
 30
0.0
  0
LWPOLYLINE
  5
193
100
AcDbEntity
  8
Schecter7HS
 62
7
100
AcDbPolyline
 90
2
 70
0
 10
352.959990
 20
628.880000
 30
0.0
 10
314.079990
 20
628.880000
 30
0.0
  0
LWPOLYLINE
  5
194
100
AcDbEntity
  8
Schecter7HS
 62
7
100
AcDbPolyline
 90
2
 70
0
 10
251.259990
 20
628.880000
 30
0.0
 10
290.140010
 20
628.880000
 30
0.0
  0
LWPOLYLINE
  5
195
100
AcDbEntity
  8
Schecter7HS
 62
7
100
AcDbPolyline
 90
5
 70
1
 10
352.959990
 20
630.859990
 30
0.0
 10
352.959990
 20
626.900020
 30
0.0
 10
364.840000
 20
628.880000
 30
0.0
 10
352.959990
 20
630.859990
 30
0.0
 10
352.959990
 20
630.859990
 30
0.0
  0
LWPOLYLINE
  5
196
100
AcDbEntity
  8
Schecter7HS
 62
7
100
AcDbPolyline
 90
5
 70
1
 10
251.259990
 20
630.859990
 30
0.0
 10
251.259990
 20
626.900020
 30
0.0
 10
239.200000
 20
628.880000
 30
0.0
 10
251.259990
 20
630.859990
 30
0.0
 10
251.259990
 20
630.859990
 30
0.0
  0
LWPOLYLINE
  5
197
100
AcDbEntity
  8
Schecter7HS
 62
7
100
AcDbPolyline
 90
3
 70
0
 10
305.980010
 20
655.700010
 30
0.0
 10
307.959990
 20
653.719970
 30
0.0
 10
296.079990
 20
653.719970
 30
0.0
  0
LWPOLYLINE
  5
198
100
AcDbEntity
  8
Schecter7HS
 62
7
100
AcDbPolyline
 90
2
 70
0
 10
296.079990
 20
655.700010
 30
0.0
 10
296.079990
 20
651.739990
 30
0.0
  0
LWPOLYLINE
  5
199
100
AcDbEntity
  8
Schecter7HS
 62
7
100
AcDbPolyline
 90
2
 70
0
 10
296.079990
 20
647.780030
 30
0.0
 10
298.060000
 20
647.780030
 30
0.0
  0
LWPOLYLINE
  5
19a
100
AcDbEntity
  8
Schecter7HS
 62
7
100
AcDbPolyline
 90
16
 70
0
 10
302.019990
 20
637.880000
 30
0.0
 10
300.040010
 20
635.900020
 30
0.0
 10
298.060000
 20
635.900020
 30
0.0
 10
296.079990
 20
637.880000
 30
0.0
 10
296.079990
 20
641.840030
 30
0.0
 10
298.060000
 20
643.820010
 30
0.0
 10
300.040010
 20
643.820010
 30
0.0
 10
302.019990
 20
641.840030
 30
0.0
 10
302.019990
 20
637.880000
 30
0.0
 10
304.000000
 20
635.900020
 30
0.0
 10
305.980010
 20
635.900020
 30
0.0
 10
307.959990
 20
637.880000
 30
0.0
 10
307.959990
 20
641.840030
 30
0.0
 10
305.980010
 20
643.820010
 30
0.0
 10
304.000000
 20
643.820010
 30
0.0
 10
302.019990
 20
641.840030
 30
0.0
  0
LWPOLYLINE
  5
19b
100
AcDbEntity
  8
Schecter7HS
 62
7
100
AcDbPolyline
 90
16
 70
0
 10
302.019990
 20
625.820010
 30
0.0
 10
300.040010
 20
623.840030
 30
0.0
 10
298.060000
 20
623.840030
 30
0.0
 10
296.079990
 20
625.820010
 30
0.0
 10
296.079990
 20
629.780030
 30
0.0
 10
298.060000
 20
631.760010
 30
0.0
 10
300.040010
 20
631.760010
 30
0.0
 10
302.019990
 20
629.780030
 30
0.0
 10
302.019990
 20
625.820010
 30
0.0
 10
304.000000
 20
623.840030
 30
0.0
 10
305.980010
 20
623.840030
 30
0.0
 10
307.959990
 20
625.820010
 30
0.0
 10
307.959990
 20
629.780030
 30
0.0
 10
305.980010
 20
631.760010
 30
0.0
 10
304.000000
 20
631.760010
 30
0.0
 10
302.019990
 20
629.780030
 30
0.0
  0
LWPOLYLINE
  5
19c
100
AcDbEntity
  8
Schecter7HS
 62
7
100
AcDbPolyline
 90
10
 70
0
 10
296.079990
 20
617.900020
 30
0.0
 10
296.079990
 20
615.919980
 30
0.0
 10
300.040010
 20
611.960020
 30
0.0
 10
305.980010
 20
611.960020
 30
0.0
 10
307.959990
 20
613.940000
 30
0.0
 10
307.959990
 20
617.900020
 30
0.0
 10
305.980010
 20
619.880000
 30
0.0
 10
304.000000
 20
619.880000
 30
0.0
 10
302.019990
 20
617.900020
 30
0.0
 10
302.019990
 20
611.960020
 30
0.0
  0
LWPOLYLINE
  5
19d
100
AcDbEntity
  8
Schecter7HS
 62
7
100
AcDbPolyline
 90
9
 70
0
 10
296.079990
 20
605.840030
 30
0.0
 10
298.060000
 20
607.820010
 30
0.0
 10
305.980010
 20
607.820010
 30
0.0
 10
307.959990
 20
605.840030
 30
0.0
 10
307.959990
 20
603.859990
 30
0.0
 10
305.980010
 20
601.880000
 30
0.0
 10
298.060000
 20
601.880000
 30
0.0
 10
296.079990
 20
603.859990
 30
0.0
 10
296.079990
 20
605.840030
 30
0.0
  0
LWPOLYLINE
  5
19e
100
AcDbEntity
  8
Schecter7HS
 62
7
100
AcDbPolyline
 90
2
 70
0
 10
368.980010
 20
553.820010
 30
0.0
 10
487.600010
 20
553.820010
 30
0.0
  0
LWPOLYLINE
  5
19f
100
AcDbEntity
  8
Schecter7HS
 62
7
100
AcDbPolyline
 90
2
 70
0
 10
418.120000
 20
454.640010
 30
0.0
 10
487.600010
 20
454.640010
 30
0.0
  0
LWPOLYLINE
  5
1a0
100
AcDbEntity
  8
Schecter7HS
 62
7
100
AcDbPolyline
 90
2
 70
0
 10
475.720000
 20
541.940000
 30
0.0
 10
475.720000
 20
537.260010
 30
0.0
  0
LWPOLYLINE
  5
1a1
100
AcDbEntity
  8
Schecter7HS
 62
7
100
AcDbPolyline
 90
2
 70
0
 10
475.720000
 20
466.700010
 30
0.0
 10
475.720000
 20
471.380000
 30
0.0
  0
LWPOLYLINE
  5
1a2
100
AcDbEntity
  8
Schecter7HS
 62
7
100
AcDbPolyline
 90
5
 70
1
 10
477.700010
 20
541.940000
 30
0.0
 10
473.739990
 20
541.940000
 30
0.0
 10
475.720000
 20
553.820010
 30
0.0
 10
477.700010
 20
541.940000
 30
0.0
 10
477.700010
 20
541.940000
 30
0.0
  0
LWPOLYLINE
  5
1a3
100
AcDbEntity
  8
Schecter7HS
 62
7
100
AcDbPolyline
 90
5
 70
1
 10
477.700010
 20
466.700010
 30
0.0
 10
473.739990
 20
466.700010
 30
0.0
 10
475.720000
 20
454.640010
 30
0.0
 10
477.700010
 20
466.700010
 30
0.0
 10
477.700010
 20
466.700010
 30
0.0
  0
LWPOLYLINE
  5
1a4
100
AcDbEntity
  8
Schecter7HS
 62
7
100
AcDbPolyline
 90
3
 70
0
 10
479.679990
 20
531.140010
 30
0.0
 10
481.660000
 20
529.159970
 30
0.0
 10
469.780000
 20
529.159970
 30
0.0
  0
LWPOLYLINE
  5
1a5
100
AcDbEntity
  8
Schecter7HS
 62
7
100
AcDbPolyline
 90
2
 70
0
 10
469.780000
 20
531.140010
 30
0.0
 10
469.780000
 20
527.179990
 30
0.0
  0
LWPOLYLINE
  5
1a6
100
AcDbEntity
  8
Schecter7HS
 62
7
100
AcDbPolyline
 90
2
 70
0
 10
469.780000
 20
523.219970
 30
0.0
 10
471.760010
 20
523.219970
 30
0.0
  0
LWPOLYLINE
  5
1a7
100
AcDbEntity
  8
Schecter7HS
 62
7
100
AcDbPolyline
 90
4
 70
0
 10
473.739990
 20
511.340000
 30
0.0
 10
473.739990
 20
519.260010
 30
0.0
 10
481.660000
 20
513.320010
 30
0.0
 10
469.780000
 20
513.320010
 30
0.0
  0
LWPOLYLINE
  5
1a8
100
AcDbEntity
  8
Schecter7HS
 62
7
100
AcDbPolyline
 90
10
 70
0
 10
469.780000
 20
505.220000
 30
0.0
 10
469.780000
 20
503.239990
 30
0.0
 10
473.739990
 20
499.280000
 30
0.0
 10
479.679990
 20
499.280000
 30
0.0
 10
481.660000
 20
501.260010
 30
0.0
 10
481.660000
 20
505.220000
 30
0.0
 10
479.679990
 20
507.200010
 30
0.0
 10
477.700010
 20
507.200010
 30
0.0
 10
475.720000
 20
505.220000
 30
0.0
 10
475.720000
 20
499.280000
 30
0.0
  0
LWPOLYLINE
  5
1a9
100
AcDbEntity
  8
Schecter7HS
 62
7
100
AcDbPolyline
 90
9
 70
0
 10
469.780000
 20
493.340000
 30
0.0
 10
471.760010
 20
495.320010
 30
0.0
 10
479.679990
 20
495.320010
 30
0.0
 10
481.660000
 20
493.340000
 30
0.0
 10
481.660000
 20
491.359990
 30
0.0
 10
479.679990
 20
489.380000
 30
0.0
 10
471.760010
 20
489.380000
 30
0.0
 10
469.780000
 20
491.359990
 30
0.0
 10
469.780000
 20
493.340000
 30
0.0
  0
LWPOLYLINE
  5
1aa
100
AcDbEntity
  8
Schecter7HS
 62
7
100
AcDbPolyline
 90
16
 70
0
 10
475.720000
 20
479.299990
 30
0.0
 10
473.739990
 20
477.320010
 30
0.0
 10
471.760010
 20
477.320010
 30
0.0
 10
469.780000
 20
479.299990
 30
0.0
 10
469.780000
 20
483.260010
 30
0.0
 10
471.760010
 20
485.239990
 30
0.0
 10
473.739990
 20
485.239990
 30
0.0
 10
475.720000
 20
483.260010
 30
0.0
 10
475.720000
 20
479.299990
 30
0.0
 10
477.700010
 20
477.320010
 30
0.0
 10
479.679990
 20
477.320010
 30
0.0
 10
481.660000
 20
479.299990
 30
0.0
 10
481.660000
 20
483.260010
 30
0.0
 10
479.679990
 20
485.239990
 30
0.0
 10
477.700010
 20
485.239990
 30
0.0
 10
475.720000
 20
483.260010
 30
0.0
  0
LWPOLYLINE
  5
1ab
100
AcDbEntity
  8
Schecter7HS
 62
7
100
AcDbPolyline
 90
2
 70
0
 10
235.060000
 20
553.820010
 30
0.0
 10
123.100000
 20
553.820010
 30
0.0
  0
LWPOLYLINE
  5
1ac
100
AcDbEntity
  8
Schecter7HS
 62
7
100
AcDbPolyline
 90
2
 70
0
 10
254.320010
 20
110.480000
 30
0.0
 10
123.100000
 20
110.480000
 30
0.0
  0
LWPOLYLINE
  5
1ad
100
AcDbEntity
  8
Schecter7HS
 62
7
100
AcDbPolyline
 90
2
 70
0
 10
134.980000
 20
541.940000
 30
0.0
 10
134.980000
 20
368.060000
 30
0.0
  0
LWPOLYLINE
  5
1ae
100
AcDbEntity
  8
Schecter7HS
 62
7
100
AcDbPolyline
 90
2
 70
0
 10
134.980000
 20
122.360000
 30
0.0
 10
134.980000
 20
296.239990
 30
0.0
  0
LWPOLYLINE
  5
1af
100
AcDbEntity
  8
Schecter7HS
 62
7
100
AcDbPolyline
 90
5
 70
1
 10
136.960010
 20
541.940000
 30
0.0
 10
133.000000
 20
541.940000
 30
0.0
 10
134.980000
 20
553.820010
 30
0.0
 10
136.960010
 20
541.940000
 30
0.0
 10
136.960010
 20
541.940000
 30
0.0
  0
LWPOLYLINE
  5
1b0
100
AcDbEntity
  8
Schecter7HS
 62
7
100
AcDbPolyline
 90
5
 70
1
 10
136.960010
 20
122.360000
 30
0.0
 10
133.000000
 20
122.360000
 30
0.0
 10
134.980000
 20
110.480000
 30
0.0
 10
136.960010
 20
122.360000
 30
0.0
 10
136.960010
 20
122.360000
 30
0.0
  0
LWPOLYLINE
  5
1b1
100
AcDbEntity
  8
Schecter7HS
 62
7
100
AcDbPolyline
 90
10
 70
0
 10
134.980000
 20
362.120000
 30
0.0
 10
134.980000
 20
356.179990
 30
0.0
 10
133.000000
 20
354.200010
 30
0.0
 10
131.020000
 20
354.200010
 30
0.0
 10
129.039990
 20
356.179990
 30
0.0
 10
129.039990
 20
360.140010
 30
0.0
 10
131.020000
 20
362.120000
 30
0.0
 10
136.960010
 20
362.120000
 30
0.0
 10
141.100010
 20
358.160000
 30
0.0
 10
141.100010
 20
356.179990
 30
0.0
  0
LWPOLYLINE
  5
1b2
100
AcDbEntity
  8
Schecter7HS
 62
7
100
AcDbPolyline
 90
2
 70
0
 10
129.039990
 20
350.060000
 30
0.0
 10
131.020000
 20
350.060000
 30
0.0
  0
LWPOLYLINE
  5
1b3
100
AcDbEntity
  8
Schecter7HS
 62
7
100
AcDbPolyline
 90
10
 70
0
 10
134.980000
 20
346.100010
 30
0.0
 10
134.980000
 20
340.160000
 30
0.0
 10
133.000000
 20
338.179990
 30
0.0
 10
131.020000
 20
338.179990
 30
0.0
 10
129.039990
 20
340.160000
 30
0.0
 10
129.039990
 20
344.120000
 30
0.0
 10
131.020000
 20
346.100010
 30
0.0
 10
136.960010
 20
346.100010
 30
0.0
 10
141.100010
 20
342.140010
 30
0.0
 10
141.100010
 20
340.160000
 30
0.0
  0
LWPOLYLINE
  5
1b4
100
AcDbEntity
  8
Schecter7HS
 62
7
100
AcDbPolyline
 90
10
 70
0
 10
134.980000
 20
334.220000
 30
0.0
 10
134.980000
 20
328.100010
 30
0.0
 10
133.000000
 20
326.120000
 30
0.0
 10
131.020000
 20
326.120000
 30
0.0
 10
129.039990
 20
328.100010
 30
0.0
 10
129.039990
 20
332.239990
 30
0.0
 10
131.020000
 20
334.220000
 30
0.0
 10
136.960010
 20
334.220000
 30
0.0
 10
141.100010
 20
330.079990
 30
0.0
 10
141.100010
 20
328.100010
 30
0.0
  0
LWPOLYLINE
  5
1b5
100
AcDbEntity
  8
Schecter7HS
 62
7
100
AcDbPolyline
 90
9
 70
0
 10
131.020000
 20
322.160000
 30
0.0
 10
129.039990
 20
320.179990
 30
0.0
 10
129.039990
 20
316.220000
 30
0.0
 10
131.020000
 20
314.239990
 30
0.0
 10
134.980000
 20
314.239990
 30
0.0
 10
136.960010
 20
316.220000
 30
0.0
 10
136.960010
 20
322.160000
 30
0.0
 10
141.100010
 20
322.160000
 30
0.0
 10
141.100010
 20
314.239990
 30
0.0
  0
LWPOLYLINE
  5
1b6
100
AcDbEntity
  8
Schecter7HS
 62
7
100
AcDbPolyline
 90
4
 70
0
 10
133.000000
 20
302.179990
 30
0.0
 10
133.000000
 20
310.280000
 30
0.0
 10
141.100010
 20
304.160000
 30
0.0
 10
129.039990
 20
304.160000
 30
0.0
  0
LWPOLYLINE
  5
1b7
100
AcDbEntity
  8
Schecter7HS
 62
7
100
AcDbPolyline
 90
2
 70
0
 10
196.000000
 20
458.420010
 30
0.0
 10
196.000000
 20
722.840030
 30
0.0
  0
LWPOLYLINE
  5
1b8
100
AcDbEntity
  8
Schecter7HS
 62
7
100
AcDbPolyline
 90
2
 70
0
 10
414.340000
 20
461.480010
 30
0.0
 10
414.340000
 20
722.840030
 30
0.0
  0
LWPOLYLINE
  5
1b9
100
AcDbEntity
  8
Schecter7HS
 62
7
100
AcDbPolyline
 90
2
 70
0
 10
207.880000
 20
710.780030
 30
0.0
 10
293.200010
 20
710.780030
 30
0.0
  0
LWPOLYLINE
  5
1ba
100
AcDbEntity
  8
Schecter7HS
 62
7
100
AcDbPolyline
 90
2
 70
0
 10
402.459990
 20
710.780030
 30
0.0
 10
317.140010
 20
710.780030
 30
0.0
  0
LWPOLYLINE
  5
1bb
100
AcDbEntity
  8
Schecter7HS
 62
7
100
AcDbPolyline
 90
5
 70
1
 10
207.880000
 20
712.760010
 30
0.0
 10
207.880000
 20
708.799990
 30
0.0
 10
196.000000
 20
710.780030
 30
0.0
 10
207.880000
 20
712.760010
 30
0.0
 10
207.880000
 20
712.760010
 30
0.0
  0
LWPOLYLINE
  5
1bc
100
AcDbEntity
  8
Schecter7HS
 62
7
100
AcDbPolyline
 90
5
 70
1
 10
402.459990
 20
712.760010
 30
0.0
 10
402.459990
 20
708.799990
 30
0.0
 10
414.340000
 20
710.780030
 30
0.0
 10
402.459990
 20
712.760010
 30
0.0
 10
402.459990
 20
712.760010
 30
0.0
  0
LWPOLYLINE
  5
1bd
100
AcDbEntity
  8
Schecter7HS
 62
7
100
AcDbPolyline
 90
7
 70
0
 10
309.220000
 20
740.659970
 30
0.0
 10
311.200010
 20
738.679990
 30
0.0
 10
311.200010
 20
734.719970
 30
0.0
 10
309.220000
 20
732.739990
 30
0.0
 10
307.239990
 20
732.739990
 30
0.0
 10
305.260010
 20
734.719970
 30
0.0
 10
305.260010
 20
736.700010
 30
0.0
  0
LWPOLYLINE
  5
1be
100
AcDbEntity
  8
Schecter7HS
 62
7
100
AcDbPolyline
 90
6
 70
0
 10
305.260010
 20
734.719970
 30
0.0
 10
303.100010
 20
732.739990
 30
0.0
 10
301.120000
 20
732.739990
 30
0.0
 10
299.140010
 20
734.719970
 30
0.0
 10
299.140010
 20
738.679990
 30
0.0
 10
301.120000
 20
740.659970
 30
0.0
  0
LWPOLYLINE
  5
1bf
100
AcDbEntity
  8
Schecter7HS
 62
7
100
AcDbPolyline
 90
2
 70
0
 10
299.140010
 20
728.780030
 30
0.0
 10
301.120000
 20
728.780030
 30
0.0
  0
LWPOLYLINE
  5
1c0
100
AcDbEntity
  8
Schecter7HS
 62
7
100
AcDbPolyline
 90
10
 70
0
 10
309.220000
 20
724.820010
 30
0.0
 10
311.200010
 20
722.840030
 30
0.0
 10
311.200010
 20
718.700010
 30
0.0
 10
309.220000
 20
716.719970
 30
0.0
 10
307.239990
 20
716.719970
 30
0.0
 10
305.260010
 20
718.700010
 30
0.0
 10
305.260010
 20
722.840030
 30
0.0
 10
303.100010
 20
724.820010
 30
0.0
 10
299.140010
 20
724.820010
 30
0.0
 10
299.140010
 20
716.719970
 30
0.0
  0
LWPOLYLINE
  5
1c1
100
AcDbEntity
  8
Schecter7HS
 62
7
100
AcDbPolyline
 90
16
 70
0
 10
305.260010
 20
706.820010
 30
0.0
 10
303.100010
 20
704.840030
 30
0.0
 10
301.120000
 20
704.840030
 30
0.0
 10
299.140010
 20
706.820010
 30
0.0
 10
299.140010
 20
710.780030
 30
0.0
 10
301.120000
 20
712.760010
 30
0.0
 10
303.100010
 20
712.760010
 30
0.0
 10
305.260010
 20
710.780030
 30
0.0
 10
305.260010
 20
706.820010
 30
0.0
 10
307.239990
 20
704.840030
 30
0.0
 10
309.220000
 20
704.840030
 30
0.0
 10
311.200010
 20
706.820010
 30
0.0
 10
311.200010
 20
710.780030
 30
0.0
 10
309.220000
 20
712.760010
 30
0.0
 10
307.239990
 20
712.760010
 30
0.0
 10
305.260010
 20
710.780030
 30
0.0
  0
LWPOLYLINE
  5
1c2
100
AcDbEntity
  8
Schecter7HS
 62
7
100
AcDbPolyline
 90
7
 70
0
 10
309.220000
 20
700.880000
 30
0.0
 10
311.200010
 20
698.900020
 30
0.0
 10
311.200010
 20
694.760010
 30
0.0
 10
309.220000
 20
692.780030
 30
0.0
 10
307.239990
 20
692.780030
 30
0.0
 10
305.260010
 20
694.760010
 30
0.0
 10
305.260010
 20
696.919980
 30
0.0
  0
LWPOLYLINE
  5
1c3
100
AcDbEntity
  8
Schecter7HS
 62
7
100
AcDbPolyline
 90
6
 70
0
 10
305.260010
 20
694.760010
 30
0.0
 10
303.100010
 20
692.780030
 30
0.0
 10
301.120000
 20
692.780030
 30
0.0
 10
299.140010
 20
694.760010
 30
0.0
 10
299.140010
 20
698.900020
 30
0.0
 10
301.120000
 20
700.880000
 30
0.0
  0
LWPOLYLINE
  5
1c4
100
AcDbEntity
  8
Schecter7HS
 62
7
100
AcDbPolyline
 90
10
 70
0
 10
309.220000
 20
688.820010
 30
0.0
 10
311.200010
 20
686.840030
 30
0.0
 10
311.200010
 20
682.880000
 30
0.0
 10
309.220000
 20
680.900020
 30
0.0
 10
307.239990
 20
680.900020
 30
0.0
 10
305.260010
 20
682.880000
 30
0.0
 10
305.260010
 20
686.840030
 30
0.0
 10
303.100010
 20
688.820010
 30
0.0
 10
299.140010
 20
688.820010
 30
0.0
 10
299.140010
 20
680.900020
 30
0.0
  0
LWPOLYLINE
  5
1c5
100
AcDbEntity
  8
Schecter7HS
 62
7
100
AcDbPolyline
 90
2
 70
0
 10
372.579990
 20
165.380000
 30
0.0
 10
372.579990
 20
64.040001
 30
0.0
  0
LWPOLYLINE
  5
1c6
100
AcDbEntity
  8
Schecter7HS
 62
7
100
AcDbPolyline
 90
2
 70
0
 10
249.460010
 20
113.180000
 30
0.0
 10
249.460010
 20
64.040001
 30
0.0
  0
LWPOLYLINE
  5
1c7
100
AcDbEntity
  8
Schecter7HS
 62
7
100
AcDbPolyline
 90
2
 70
0
 10
360.519990
 20
75.919998
 30
0.0
 10
322.899990
 20
75.919998
 30
0.0
  0
LWPOLYLINE
  5
1c8
100
AcDbEntity
  8
Schecter7HS
 62
7
100
AcDbPolyline
 90
2
 70
0
 10
261.340000
 20
75.919998
 30
0.0
 10
298.959990
 20
75.919998
 30
0.0
  0
LWPOLYLINE
  5
1c9
100
AcDbEntity
  8
Schecter7HS
 62
7
100
AcDbPolyline
 90
5
 70
1
 10
360.519990
 20
77.900002
 30
0.0
 10
360.519990
 20
73.940002
 30
0.0
 10
372.579990
 20
75.919998
 30
0.0
 10
360.519990
 20
77.900002
 30
0.0
 10
360.519990
 20
77.900002
 30
0.0
  0
LWPOLYLINE
  5
1ca
100
AcDbEntity
  8
Schecter7HS
 62
7
100
AcDbPolyline
 90
5
 70
1
 10
261.340000
 20
77.900002
 30
0.0
 10
261.340000
 20
73.940002
 30
0.0
 10
249.460010
 20
75.919998
 30
0.0
 10
261.340000
 20
77.900002
 30
0.0
 10
261.340000
 20
77.900002
 30
0.0
  0
LWPOLYLINE
  5
1cb
100
AcDbEntity
  8
Schecter7HS
 62
7
100
AcDbPolyline
 90
3
 70
0
 10
314.980010
 20
101.840000
 30
0.0
 10
316.959990
 20
99.860001
 30
0.0
 10
305.079990
 20
99.860001
 30
0.0
  0
LWPOLYLINE
  5
1cc
100
AcDbEntity
  8
Schecter7HS
 62
7
100
AcDbPolyline
 90
2
 70
0
 10
305.079990
 20
101.840000
 30
0.0
 10
305.079990
 20
97.879997
 30
0.0
  0
LWPOLYLINE
  5
1cd
100
AcDbEntity
  8
Schecter7HS
 62
7
100
AcDbPolyline
 90
2
 70
0
 10
305.079990
 20
93.919998
 30
0.0
 10
307.060000
 20
93.919998
 30
0.0
  0
LWPOLYLINE
  5
1ce
100
AcDbEntity
  8
Schecter7HS
 62
7
100
AcDbPolyline
 90
16
 70
0
 10
311.019990
 20
83.839996
 30
0.0
 10
309.040010
 20
81.860001
 30
0.0
 10
307.060000
 20
81.860001
 30
0.0
 10
305.079990
 20
83.839996
 30
0.0
 10
305.079990
 20
87.980003
 30
0.0
 10
307.060000
 20
89.959999
 30
0.0
 10
309.040010
 20
89.959999
 30
0.0
 10
311.019990
 20
87.980003
 30
0.0
 10
311.019990
 20
83.839996
 30
0.0
 10
313.000000
 20
81.860001
 30
0.0
 10
314.980010
 20
81.860001
 30
0.0
 10
316.959990
 20
83.839996
 30
0.0
 10
316.959990
 20
87.980003
 30
0.0
 10
314.980010
 20
89.959999
 30
0.0
 10
313.000000
 20
89.959999
 30
0.0
 10
311.019990
 20
87.980003
 30
0.0
  0
LWPOLYLINE
  5
1cf
100
AcDbEntity
  8
Schecter7HS
 62
7
100
AcDbPolyline
 90
9
 70
0
 10
307.060000
 20
77.900002
 30
0.0
 10
305.079990
 20
75.919998
 30
0.0
 10
305.079990
 20
71.959999
 30
0.0
 10
307.060000
 20
69.980003
 30
0.0
 10
311.019990
 20
69.980003
 30
0.0
 10
313.000000
 20
71.959999
 30
0.0
 10
313.000000
 20
77.900002
 30
0.0
 10
316.959990
 20
77.900002
 30
0.0
 10
316.959990
 20
69.980003
 30
0.0
  0
LWPOLYLINE
  5
1d0
100
AcDbEntity
  8
Schecter7HS
 62
7
100
AcDbPolyline
 90
9
 70
0
 10
305.079990
 20
64.040001
 30
0.0
 10
307.060000
 20
66.019997
 30
0.0
 10
314.980010
 20
66.019997
 30
0.0
 10
316.959990
 20
64.040001
 30
0.0
 10
316.959990
 20
62.060001
 30
0.0
 10
314.980010
 20
59.900002
 30
0.0
 10
307.060000
 20
59.900002
 30
0.0
 10
305.079990
 20
62.060001
 30
0.0
 10
305.079990
 20
64.040001
 30
0.0
  0
LWPOLYLINE
  5
1d1
100
AcDbEntity
  8
Schecter7HS
 62
7
100
AcDbPolyline
 90
9
 70
0
 10
305.079990
 20
53.959999
 30
0.0
 10
307.060000
 20
55.939999
 30
0.0
 10
314.980010
 20
55.939999
 30
0.0
 10
316.959990
 20
53.959999
 30
0.0
 10
316.959990
 20
51.980000
 30
0.0
 10
314.980010
 20
50.000000
 30
0.0
 10
307.060000
 20
50.000000
 30
0.0
 10
305.079990
 20
51.980000
 30
0.0
 10
305.079990
 20
53.959999
 30
0.0
  0
ENDSEC
  0
SECTION
  2
OBJECTS
  0
DICTIONARY
  5
C
330
0
100
AcDbDictionary
  3
ACAD_GROUP
350
D
  3
ACAD_MLINESTYLE
350
17
  0
DICTIONARY
  5
D
330
C
100
AcDbDictionary
  0
DICTIONARY
  5
1A
330
C
100
AcDbDictionary
  0
DICTIONARY
  5
17
330
C
100
AcDbDictionary
  3
STANDARD
350
18
  0
DICTIONARY
  5
19
330
C
100
AcDbDictionary
  0
ENDSEC
  0
EOF
