<?xml version="1.0" encoding="UTF-8" standalone="no"?>
<svg
    xmlns:dc="http://purl.org/dc/elements/1.1/"
    xmlns:cc="http://creativecommons.org/ns#"
    xmlns:rdf="http://www.w3.org/1999/02/22-rdf-syntax-ns#"
    xmlns:svg="http://www.w3.org/2000/svg"
    xmlns="http://www.w3.org/2000/svg"
    viewBox="0 0 765 990"
    height="990"
    width="765"
    xml:space="preserve"
    version="1.1"
    id="svg3336"><metadata
       id="metadata3342"><rdf:RDF><cc:Work
             rdf:about=""><dc:format>image/svg+xml</dc:format><dc:type
                rdf:resource="http://purl.org/dc/dcmitype/StillImage" /><dc:title></dc:title></cc:Work></rdf:RDF></metadata><defs
       id="defs3340"><clipPath
          id="clipPath3350"
          clipPathUnits="userSpaceOnUse"><path
             id="path3352"
             d="m 123.1,50 364.85999,0 0,691.02002 -364.85999,0" /></clipPath></defs><g
       transform="matrix(1.25,0,0,-1.25,0,990)"
       id="g3344"><g
          id="g3346"><g
             clip-path="url(#clipPath3350)"
             id="g3348"><path
                id="path3354"
                style="fill:none;stroke:#000000;stroke-width:0.72000003;stroke-linecap:round;stroke-linejoin:round;stroke-miterlimit:10;stroke-dasharray:none;stroke-opacity:1"
                d="M227.32001 490.45999L230.92 499.10001L233.98 507.73999L236.5 516.73999L238.12 525.91998L239.2 535.28003L239.56 544.64001L239.2 553.82001" /><path
                id="path3356"
                style="fill:none;stroke:#000000;stroke-width:0.72000003;stroke-linecap:round;stroke-linejoin:bevel;stroke-miterlimit:10;stroke-dasharray:none;stroke-opacity:1"
                d="M199.06 460.22L204.28 463.45999L208.96001 466.88L213.46001 471.01999L217.60001 475.34L221.2 480.01999L224.44 485.23999L227.14 490.45999" /><path
                id="path3358"
                style="fill:none;stroke:#000000;stroke-width:0.72000003;stroke-linecap:round;stroke-linejoin:bevel;stroke-miterlimit:10;stroke-dasharray:none;stroke-opacity:1"
                d="M199.06 460.04001L197.62 458.78L196.53999 457.16L196.0 455.17999L196.0 453.38L196.53999 451.39999" /><path
                id="path3360"
                style="fill:none;stroke:#000000;stroke-width:0.72000003;stroke-linecap:round;stroke-linejoin:round;stroke-miterlimit:10;stroke-dasharray:none;stroke-opacity:1"
                d="M249.46001 117.32L249.50500825 125.150130474L249.550001752 132.979434879L249.594999886 140.809545152L249.64 148.64L249.5499985 156.470132974L249.460006496 164.299439879L249.370005228 172.129552652L249.28 179.96001L248.964994751 187.790137974L248.650022735 195.61943988L248.335018298 203.449547653L248.02 211.28L247.569992501 219.065129724L247.120032478 226.849438127L246.670026141 234.634547766L246.22 242.42L245.680003916 249.199996024L245.140010276 255.979961345L244.60001 262.76001L243.880007443 269.540002691L243.160008146 276.319964679L242.44 283.10001L241.480001035 289.820002755L240.520006417 296.53996508L239.56 303.26001L238.420001229 309.980002755L237.28000762 316.69996508L236.14 323.42001L234.760001488 330.079996153L233.380009225 336.739952148L232.0 343.39999L230.380001747 349.999989551L228.760010829 356.599959215L227.14 363.20001L224.71 372.20001L222.28 381.20001L219.58 390.20001L216.88 399.20001L213.819995 408.020005L210.75999 416.84L207.339995 425.48L203.92 434.12L200.229995 442.759995L196.53999 451.39999" /><path
                id="path3362"
                style="fill:none;stroke:#000000;stroke-width:0.72000003;stroke-linecap:round;stroke-linejoin:bevel;stroke-miterlimit:10;stroke-dasharray:none;stroke-opacity:1"
                d="M249.46001 117.5L249.64 115.52L250.36 113.9L251.44 112.28L253.06 111.2L254.67999 110.48L256.66 110.3L258.45999 110.66" /><path
                id="path3364"
                style="fill:none;stroke:#000000;stroke-width:0.72000003;stroke-linecap:round;stroke-linejoin:round;stroke-miterlimit:10;stroke-dasharray:none;stroke-opacity:1"
                d="M364.84 553.82001L365.11 548.149995L365.38 542.47998L366.010005 536.72L366.64001 530.96002L367.72 525.380005L368.79999 519.79999L370.23999 514.22L371.67999 508.64001L373.56999 503.240005L375.45999 497.84" /><path
                id="path3366"
                style="fill:none;stroke:#000000;stroke-width:0.72000003;stroke-linecap:round;stroke-linejoin:bevel;stroke-miterlimit:10;stroke-dasharray:none;stroke-opacity:1"
                d="M375.45999 497.84L378.70001 492.44L382.12 487.39999L386.07999 482.54001L390.39999 478.04001L395.07999 473.89999L399.94 470.12L405.16 466.70001L410.56 463.64001" /><path
                id="path3368"
                style="fill:none;stroke:#000000;stroke-width:0.72000003;stroke-linecap:round;stroke-linejoin:bevel;stroke-miterlimit:10;stroke-dasharray:none;stroke-opacity:1"
                d="M413.79999 454.82001L414.34 456.79999L414.16 458.78L413.44 460.76001L412.17999 462.38L410.56 463.45999" /><path
                id="path3370"
                style="fill:none;stroke:#000000;stroke-width:0.72000003;stroke-linecap:round;stroke-linejoin:round;stroke-miterlimit:10;stroke-dasharray:none;stroke-opacity:1"
                d="M413.79999 454.64001L411.219996115 447.620010902L408.640013913 440.600043592L406.06 433.57999L403.720005856 426.440001031L401.380022308 419.300044394L399.04001 412.16L396.940005597 404.960007762L394.840010704 397.760048129L392.73999 390.56L390.879995339 383.240011225L389.0200091 375.920055597L387.16 368.60001L385.539998413 361.280017892L383.920004162 353.960058931L382.29999 346.64001L380.979994756 339.200018021L379.66000549 331.760059733L378.34 324.32001L377.260004498 316.880014688L376.180013886 309.440053066L375.10001 302.0L374.320010841 294.560004688L373.540015214 287.120043066L372.76001 279.67999L372.220010582 272.360001225L371.68001361 265.040045597L371.14001 257.72L370.900010259 250.400004558L370.660011604 243.080042264L370.42001 235.75999L370.42001 228.440001225L370.42001 221.120045597L370.42001 213.8L370.660009741 206.540007827L370.900008396 199.28004853L371.14001 192.02L371.560002881 184.700007892L371.979993859 177.380048931L372.39999 170.06" /><path
                id="path3372"
                style="fill:none;stroke:#000000;stroke-width:0.72000003;stroke-linecap:round;stroke-linejoin:bevel;stroke-miterlimit:10;stroke-dasharray:none;stroke-opacity:1"
                d="M365.01999 162.5L367.0 162.67999L368.79999 163.39999L370.42001 164.66L371.5 166.28L372.22 168.08L372.39999 170.06" /><path
                id="path3374"
                style="fill:none;stroke:#000000;stroke-width:0.72000003;stroke-linecap:round;stroke-linejoin:bevel;stroke-miterlimit:10;stroke-dasharray:none;stroke-opacity:1"
                d="M364.84 162.5L358.89999 162.5L352.95999 161.96001L347.20001 160.88L341.44 159.25999L335.85999 157.28L330.45999 154.75999L325.23999 151.88L320.38 148.46001L315.70001 144.67999" /><path
                id="path3376"
                style="fill:none;stroke:#000000;stroke-width:0.72000003;stroke-linecap:round;stroke-linejoin:bevel;stroke-miterlimit:10;stroke-dasharray:none;stroke-opacity:1"
                d="M258.45999 110.48L266.38 113.18L274.29999 116.24L281.85999 119.84L289.23999 123.98L296.26001 128.48L303.10001 133.52L309.57999 138.92L315.51999 144.67999" /><path
                id="path3378"
                style="fill:none;stroke:#000000;stroke-width:0.72000003;stroke-linecap:round;stroke-linejoin:bevel;stroke-miterlimit:10;stroke-dasharray:none;stroke-opacity:1"
                d="M288.34 221.17999L288.16 222.98L287.44 224.78L286.35999 226.22L284.92001 227.48L283.29999 228.2L281.5 228.56L279.51999 228.38L277.89999 227.84L276.28 226.94L275.01999 225.5L274.12 223.88L273.57999 222.08L273.57999 220.28L274.12 218.48L275.01999 216.86L276.28 215.42L277.89999 214.52L279.51999 213.98L281.5 213.8L283.29999 214.16L284.92001 214.88L286.35999 216.14L287.44 217.58L288.16 219.38L288.34 221.17999" /><path
                id="path3380"
                style="fill:none;stroke:#000000;stroke-width:0.72000003;stroke-linecap:round;stroke-linejoin:bevel;stroke-miterlimit:10;stroke-dasharray:none;stroke-opacity:1"
                d="M290.85999 221.17999L290.67999 223.34L289.95999 225.32001L288.88 227.12L287.44 228.74001L285.64001 230.0L283.66 230.72L281.5 231.08L279.34 230.89999L277.35999 230.36L275.38 229.46001L273.76001 228.02L272.5 226.22L271.60001 224.42L271.06 222.25999L271.06 220.10001L271.60001 217.94L272.5 216.14L273.76001 214.34L275.38 212.89999L277.35999 212.0L279.34 211.46001L281.5 211.28L283.66 211.64L285.64001 212.36L287.44 213.62L288.88 215.24001L289.95999 217.03999L290.67999 219.02L290.85999 221.17999" /><path
                id="path3382"
                style="fill:none;stroke:#000000;stroke-width:0.72000003;stroke-linecap:round;stroke-linejoin:round;stroke-miterlimit:10;stroke-dasharray:none;stroke-opacity:1"
                d="M296.44 221.17999L292.570005 214.60999L288.70001 208.03999L280.960005 208.03999L273.22 208.03999L269.17 214.60999L265.12 221.17999L269.17 227.75L273.22 234.32001L280.960005 234.32001L288.70001 234.32001L292.570005 227.75L296.44 221.17999" /><path
                id="path3384"
                style="fill:none;stroke:#000000;stroke-width:0.72000003;stroke-linecap:round;stroke-linejoin:round;stroke-miterlimit:10;stroke-dasharray:none;stroke-opacity:1"
                d="M236.67999 192.02L232.0 192.02L232.0 200.75L232.0 209.48L236.67999 209.48L236.67999 200.75L236.67999 192.02" /><path
                id="path3386"
                style="fill:none;stroke:#000000;stroke-width:0.72000003;stroke-linecap:round;stroke-linejoin:round;stroke-miterlimit:10;stroke-dasharray:none;stroke-opacity:1"
                d="M232.0 192.02L229.3 192.02L229.3 200.75L229.3 209.48L232.0 209.48L232.0 200.75L232.0 192.02" /><path
                id="path3388"
                style="fill:none;stroke:#000000;stroke-width:0.72000003;stroke-linecap:round;stroke-linejoin:round;stroke-miterlimit:10;stroke-dasharray:none;stroke-opacity:1"
                d="M226.60001 192.74001L226.60001 192.02L229.3 192.02L229.3 200.75L229.3 209.48L226.60001 209.48L226.60001 209.48" /><path
                id="path3390"
                style="fill:none;stroke:#000000;stroke-width:0.72000003;stroke-linecap:round;stroke-linejoin:round;stroke-miterlimit:10;stroke-dasharray:none;stroke-opacity:1"
                d="M248.92 190.94L242.799995 191.48L236.67999 192.02" /><path
                id="path3392"
                style="fill:none;stroke:#000000;stroke-width:0.72000003;stroke-linecap:round;stroke-linejoin:round;stroke-miterlimit:10;stroke-dasharray:none;stroke-opacity:1"
                d="M248.02 210.38L242.349995 209.93L236.67999 209.48" /><path
                id="path3394"
                style="fill:none;stroke:#000000;stroke-width:0.72000003;stroke-linecap:round;stroke-linejoin:round;stroke-miterlimit:10;stroke-dasharray:none;stroke-opacity:1"
                d="M221.56 226.22L223.959994079 218.360008474L226.35997729 210.50005254L228.75999 202.64" /><path
                id="path3396"
                style="fill:none;stroke:#000000;stroke-width:0.72000003;stroke-linecap:round;stroke-linejoin:bevel;stroke-miterlimit:10;stroke-dasharray:none;stroke-opacity:1"
                d="M228.58 199.58L228.75999 201.02L228.58 202.46001" /><path
                id="path3398"
                style="fill:none;stroke:#000000;stroke-width:0.72000003;stroke-linecap:round;stroke-linejoin:round;stroke-miterlimit:10;stroke-dasharray:none;stroke-opacity:1"
                d="M200.32001 230.0L208.330005 230.0L216.34 230.0" /><path
                id="path3400"
                style="fill:none;stroke:#000000;stroke-width:0.72000003;stroke-linecap:round;stroke-linejoin:bevel;stroke-miterlimit:10;stroke-dasharray:none;stroke-opacity:1"
                d="M221.38 226.03999L220.66 227.66L219.39999 228.74001L217.96001 229.64L216.34 229.82001" /><path
                id="path3402"
                style="fill:none;stroke:#000000;stroke-width:0.72000003;stroke-linecap:round;stroke-linejoin:bevel;stroke-miterlimit:10;stroke-dasharray:none;stroke-opacity:1"
                d="M200.5 229.82001L197.25999 226.58L194.38 222.8L192.03999 218.84L190.06 214.7L188.62 210.2L187.72 205.7L187.17999 201.02" /><path
                id="path3404"
                style="fill:none;stroke:#000000;stroke-width:0.72000003;stroke-linecap:round;stroke-linejoin:round;stroke-miterlimit:10;stroke-dasharray:none;stroke-opacity:1"
                d="M221.56 176.0L223.959994079 183.859991526L226.35997729 191.71994746L228.75999 199.58" /><path
                id="path3406"
                style="fill:none;stroke:#000000;stroke-width:0.72000003;stroke-linecap:round;stroke-linejoin:round;stroke-miterlimit:10;stroke-dasharray:none;stroke-opacity:1"
                d="M200.32001 172.22L208.330005 172.22L216.34 172.22" /><path
                id="path3408"
                style="fill:none;stroke:#000000;stroke-width:0.72000003;stroke-linecap:round;stroke-linejoin:bevel;stroke-miterlimit:10;stroke-dasharray:none;stroke-opacity:1"
                d="M216.34 172.39999L217.96001 172.58L219.39999 173.48L220.66 174.56L221.38 176.17999" /><path
                id="path3410"
                style="fill:none;stroke:#000000;stroke-width:0.72000003;stroke-linecap:round;stroke-linejoin:bevel;stroke-miterlimit:10;stroke-dasharray:none;stroke-opacity:1"
                d="M187.17999 201.2L187.72 196.52L188.62 192.02L190.06 187.52L192.03999 183.38L194.38 179.42L197.25999 175.64L200.5 172.39999" /><path
                id="path3412"
                style="fill:none;stroke:#000000;stroke-width:0.72000003;stroke-linecap:round;stroke-linejoin:bevel;stroke-miterlimit:10;stroke-dasharray:none;stroke-opacity:1"
                d="M291.04001 221.17999L290.85999 223.34L290.14001 225.5L289.06 227.3L287.44 228.92L285.64001 230.0L283.66 230.89999L281.5 231.25999L279.34 231.08L277.17999 230.53999L275.38 229.46001L273.57999 228.2L272.32001 226.39999L271.42001 224.42L270.88 222.25999L270.88 220.10001L271.42001 217.94L272.32001 215.96001L273.57999 214.16L275.38 212.89999L277.17999 211.82001L279.34 211.28L281.5 211.10001L283.66 211.46001L285.64001 212.36L287.44 213.44L289.06 215.06L290.14001 216.86L290.85999 219.02L291.04001 221.17999" /><path
                id="path3414"
                style="fill:none;stroke:#000000;stroke-width:0.72000003;stroke-linecap:round;stroke-linejoin:bevel;stroke-miterlimit:10;stroke-dasharray:none;stroke-opacity:1"
                d="M299.5 221.17999L299.32001 224.06L298.60001 226.94L297.51999 229.64L295.89999 232.16L294.10001 234.32001L291.94 236.12L289.42001 237.74001L286.72 238.82001L283.84 239.53999L280.95999 239.72L278.07999 239.53999L275.20001 238.82001L272.5 237.74001L269.98001 236.12L267.82001 234.32001L266.01999 232.16L264.39999 229.64L263.32001 226.94L262.60001 224.06L262.42001 221.17999L262.60001 218.3L263.32001 215.42L264.39999 212.72L266.01999 210.2L267.82001 208.03999L269.98001 206.24001L272.5 204.62L275.20001 203.53999L278.07999 202.82001L280.95999 202.64L283.84 202.82001L286.72 203.53999L289.42001 204.62L291.94 206.24001L294.10001 208.03999L295.89999 210.2L297.51999 212.72L298.60001 215.42L299.32001 218.3L299.5 221.17999" /><path
                id="path3416"
                style="fill:none;stroke:#000000;stroke-width:0.72000003;stroke-linecap:round;stroke-linejoin:bevel;stroke-miterlimit:10;stroke-dasharray:none;stroke-opacity:1"
                d="M277.72 290.29999L277.54001 292.10001L276.82001 293.89999L275.73999 295.34L274.29999 296.60001L272.67999 297.32001L270.88 297.67999L268.89999 297.5L267.28 296.95999L265.66 296.06L264.39999 294.62L263.5 293.0L262.95999 291.20001L262.95999 289.39999L263.5 287.60001L264.39999 285.98001L265.66 284.54001L267.28 283.64001L268.89999 283.10001L270.88 282.92001L272.67999 283.28L274.29999 284.0L275.73999 285.26001L276.82001 286.70001L277.54001 288.5L277.72 290.29999" /><path
                id="path3418"
                style="fill:none;stroke:#000000;stroke-width:0.72000003;stroke-linecap:round;stroke-linejoin:bevel;stroke-miterlimit:10;stroke-dasharray:none;stroke-opacity:1"
                d="M280.23999 290.29999L280.06 292.45999L279.34 294.44L278.26001 296.23999L276.82001 297.85999L275.01999 299.12L273.04001 299.84L270.88 300.20001L268.72 300.01999L266.73999 299.48001L264.76001 298.57999L263.14001 297.14001L261.88 295.34L260.98001 293.54001L260.44 291.38L260.44 289.22L260.98001 287.06L261.88 285.26001L263.14001 283.45999L264.76001 282.01999L266.73999 281.12L268.72 280.57999L270.88 280.39999L273.04001 280.76001L275.01999 281.48001L276.82001 282.73999L278.26001 284.35999L279.34 286.16L280.06 288.14001L280.23999 290.29999" /><path
                id="path3420"
                style="fill:none;stroke:#000000;stroke-width:0.72000003;stroke-linecap:round;stroke-linejoin:round;stroke-miterlimit:10;stroke-dasharray:none;stroke-opacity:1"
                d="M286.0 290.29999L282.130005 283.729995L278.26001 277.16L270.43001 277.16L262.60001 277.16L258.64 283.729995L254.67999 290.29999L258.64 296.869995L262.60001 303.44L270.43001 303.44L278.26001 303.44L282.130005 296.869995L286.0 290.29999" /><path
                id="path3422"
                style="fill:none;stroke:#000000;stroke-width:0.72000003;stroke-linecap:round;stroke-linejoin:round;stroke-miterlimit:10;stroke-dasharray:none;stroke-opacity:1"
                d="M226.06 260.95999L221.38 260.95999L221.38 269.69L221.38 278.42001L226.06 278.42001L226.06 269.69L226.06 260.95999" /><path
                id="path3424"
                style="fill:none;stroke:#000000;stroke-width:0.72000003;stroke-linecap:round;stroke-linejoin:round;stroke-miterlimit:10;stroke-dasharray:none;stroke-opacity:1"
                d="M221.38 260.95999L218.67999 260.95999L218.67999 269.69L218.67999 278.42001L221.38 278.42001L221.38 269.69L221.38 260.95999" /><path
                id="path3426"
                style="fill:none;stroke:#000000;stroke-width:0.72000003;stroke-linecap:round;stroke-linejoin:round;stroke-miterlimit:10;stroke-dasharray:none;stroke-opacity:1"
                d="M215.98 261.85999L215.98 260.95999L218.67999 260.95999L218.67999 269.69L218.67999 278.42001L215.98 278.42001L215.98 278.42001" /><path
                id="path3428"
                style="fill:none;stroke:#000000;stroke-width:0.72000003;stroke-linecap:round;stroke-linejoin:round;stroke-miterlimit:10;stroke-dasharray:none;stroke-opacity:1"
                d="M244.96001 259.51999L235.510005 260.23999L226.06 260.95999" /><path
                id="path3430"
                style="fill:none;stroke:#000000;stroke-width:0.72000003;stroke-linecap:round;stroke-linejoin:round;stroke-miterlimit:10;stroke-dasharray:none;stroke-opacity:1"
                d="M242.8 279.85999L234.43 279.14L226.06 278.42001" /><path
                id="path3432"
                style="fill:none;stroke:#000000;stroke-width:0.72000003;stroke-linecap:round;stroke-linejoin:round;stroke-miterlimit:10;stroke-dasharray:none;stroke-opacity:1"
                d="M210.94 295.16L213.339997413 287.360011742L215.739983957 279.560058806L218.14 271.76001" /><path
                id="path3434"
                style="fill:none;stroke:#000000;stroke-width:0.72000003;stroke-linecap:round;stroke-linejoin:bevel;stroke-miterlimit:10;stroke-dasharray:none;stroke-opacity:1"
                d="M217.96001 268.70001L218.14 270.14001L217.96001 271.57999" /><path
                id="path3436"
                style="fill:none;stroke:#000000;stroke-width:0.72000003;stroke-linecap:round;stroke-linejoin:round;stroke-miterlimit:10;stroke-dasharray:none;stroke-opacity:1"
                d="M189.7 298.94L197.799995 298.94L205.89999 298.94" /><path
                id="path3438"
                style="fill:none;stroke:#000000;stroke-width:0.72000003;stroke-linecap:round;stroke-linejoin:bevel;stroke-miterlimit:10;stroke-dasharray:none;stroke-opacity:1"
                d="M210.94 295.16L210.22 296.78L208.96001 297.85999L207.52 298.76001L205.89999 298.94" /><path
                id="path3440"
                style="fill:none;stroke:#000000;stroke-width:0.72000003;stroke-linecap:round;stroke-linejoin:bevel;stroke-miterlimit:10;stroke-dasharray:none;stroke-opacity:1"
                d="M189.88 298.94L186.64 295.70001L183.75999 291.92001L181.42 287.95999L179.44 283.82001L178.0 279.32001L177.10001 274.82001L176.56 270.14001" /><path
                id="path3442"
                style="fill:none;stroke:#000000;stroke-width:0.72000003;stroke-linecap:round;stroke-linejoin:round;stroke-miterlimit:10;stroke-dasharray:none;stroke-opacity:1"
                d="M210.94 245.12L213.339997413 252.919988258L215.739983957 260.719941194L218.14 268.51999" /><path
                id="path3444"
                style="fill:none;stroke:#000000;stroke-width:0.72000003;stroke-linecap:round;stroke-linejoin:round;stroke-miterlimit:10;stroke-dasharray:none;stroke-opacity:1"
                d="M189.7 241.34L197.799995 241.34L205.89999 241.34" /><path
                id="path3446"
                style="fill:none;stroke:#000000;stroke-width:0.72000003;stroke-linecap:round;stroke-linejoin:bevel;stroke-miterlimit:10;stroke-dasharray:none;stroke-opacity:1"
                d="M205.89999 241.52L207.52 241.7L208.96001 242.60001L210.22 243.67999L210.94 245.3" /><path
                id="path3448"
                style="fill:none;stroke:#000000;stroke-width:0.72000003;stroke-linecap:round;stroke-linejoin:bevel;stroke-miterlimit:10;stroke-dasharray:none;stroke-opacity:1"
                d="M176.56 270.14001L177.10001 265.45999L178.0 260.95999L179.44 256.45999L181.42 252.32001L183.75999 248.36L186.64 244.58L189.88 241.34" /><path
                id="path3450"
                style="fill:none;stroke:#000000;stroke-width:0.72000003;stroke-linecap:round;stroke-linejoin:bevel;stroke-miterlimit:10;stroke-dasharray:none;stroke-opacity:1"
                d="M280.42001 290.29999L280.23999 292.45999L279.51999 294.62L278.44 296.42001L276.82001 298.04001L275.01999 299.12L273.04001 300.01999L270.88 300.38L268.72 300.20001L266.56 299.66L264.76001 298.57999L262.95999 297.32001L261.70001 295.51999L260.79999 293.54001L260.26001 291.38L260.26001 289.22L260.79999 287.06L261.70001 285.07999L262.95999 283.28L264.76001 282.01999L266.56 280.94L268.72 280.39999L270.88 280.22L273.04001 280.57999L275.01999 281.48001L276.82001 282.56L278.44 284.17999L279.51999 285.98001L280.23999 288.14001L280.42001 290.29999" /><path
                id="path3452"
                style="fill:none;stroke:#000000;stroke-width:0.72000003;stroke-linecap:round;stroke-linejoin:bevel;stroke-miterlimit:10;stroke-dasharray:none;stroke-opacity:1"
                d="M288.88 290.29999L288.70001 293.17999L287.98001 296.06L286.89999 298.76001L285.28 301.28L283.48001 303.44L281.32001 305.23999L278.79999 306.85999L276.10001 307.94L273.22 308.66L270.34 308.84L267.45999 308.66L264.57999 307.94L261.88 306.85999L259.35999 305.23999L257.20001 303.44L255.39999 301.28L253.78 298.76001L252.7 296.06L251.98 293.17999L251.8 290.29999L251.98 287.42001L252.7 284.54001L253.78 281.84L255.39999 279.32001L257.20001 277.16L259.35999 275.35999L261.88 273.73999L264.57999 272.66L267.45999 271.94L270.34 271.76001L273.22 271.94L276.10001 272.66L278.79999 273.73999L281.32001 275.35999L283.48001 277.16L285.28 279.32001L286.89999 281.84L287.98001 284.54001L288.70001 287.42001L288.88 290.29999" /><path
                id="path3454"
                style="fill:none;stroke:#000000;stroke-width:0.72000003;stroke-linecap:round;stroke-linejoin:bevel;stroke-miterlimit:10;stroke-dasharray:none;stroke-opacity:1"
                d="M267.28 356.72L267.10001 358.51999L266.38 360.32001L265.29999 361.76001L263.85999 363.01999L262.23999 363.73999L260.44 364.10001L258.45999 363.92001L256.84 363.38L255.22 362.48001L253.96001 361.04001L253.06 359.42001L252.52 357.62L252.52 355.82001L253.06 354.01999L253.96001 352.39999L255.22 350.95999L256.84 350.06L258.45999 349.51999L260.44 349.34L262.23999 349.70001L263.85999 350.42001L265.29999 351.67999L266.38 353.12L267.10001 354.92001L267.28 356.72" /><path
                id="path3456"
                style="fill:none;stroke:#000000;stroke-width:0.72000003;stroke-linecap:round;stroke-linejoin:bevel;stroke-miterlimit:10;stroke-dasharray:none;stroke-opacity:1"
                d="M269.79999 356.72L269.62 358.88L268.89999 360.85999L267.82001 362.66L266.38 364.28L264.57999 365.54001L262.60001 366.26001L260.44 366.62L258.28 366.44L256.29999 365.89999L254.32001 365.0L252.7 363.56L251.44 361.76001L250.53999 359.95999L250.0 357.79999L250.0 355.64001L250.53999 353.48001L251.44 351.67999L252.7 349.88L254.32001 348.44L256.29999 347.54001L258.28 347.0L260.44 346.82001L262.60001 347.17999L264.57999 347.89999L266.38 349.16L267.82001 350.78L268.89999 352.57999L269.62 354.56L269.79999 356.72" /><path
                id="path3458"
                style="fill:none;stroke:#000000;stroke-width:0.72000003;stroke-linecap:round;stroke-linejoin:round;stroke-miterlimit:10;stroke-dasharray:none;stroke-opacity:1"
                d="M275.38 356.72L271.510005 350.149995L267.64001 343.57999L259.900005 343.57999L252.16 343.57999L248.11 350.149995L244.06 356.72L248.11 363.289995L252.16 369.85999L259.900005 369.85999L267.64001 369.85999L271.510005 363.289995L275.38 356.72" /><path
                id="path3460"
                style="fill:none;stroke:#000000;stroke-width:0.72000003;stroke-linecap:round;stroke-linejoin:round;stroke-miterlimit:10;stroke-dasharray:none;stroke-opacity:1"
                d="M215.62 327.56L210.94 327.56L210.94 336.289995L210.94 345.01999L215.62 345.01999L215.62 336.289995L215.62 327.56" /><path
                id="path3462"
                style="fill:none;stroke:#000000;stroke-width:0.72000003;stroke-linecap:round;stroke-linejoin:round;stroke-miterlimit:10;stroke-dasharray:none;stroke-opacity:1"
                d="M210.94 327.56L208.24001 327.56L208.24001 336.289995L208.24001 345.01999L210.94 345.01999L210.94 336.289995L210.94 327.56" /><path
                id="path3464"
                style="fill:none;stroke:#000000;stroke-width:0.72000003;stroke-linecap:round;stroke-linejoin:round;stroke-miterlimit:10;stroke-dasharray:none;stroke-opacity:1"
                d="M205.53999 328.28L205.53999 327.56L208.24001 327.56L208.24001 336.289995L208.24001 345.01999L205.53999 345.01999L205.53999 345.01999" /><path
                id="path3466"
                style="fill:none;stroke:#000000;stroke-width:0.72000003;stroke-linecap:round;stroke-linejoin:round;stroke-miterlimit:10;stroke-dasharray:none;stroke-opacity:1"
                d="M235.60001 325.76001L228.940013847 326.36000602L222.280047852 326.959999323L215.62 327.56" /><path
                id="path3468"
                style="fill:none;stroke:#000000;stroke-width:0.72000003;stroke-linecap:round;stroke-linejoin:round;stroke-miterlimit:10;stroke-dasharray:none;stroke-opacity:1"
                d="M231.28 346.28L223.45 345.649995L215.62 345.01999" /><path
                id="path3470"
                style="fill:none;stroke:#000000;stroke-width:0.72000003;stroke-linecap:round;stroke-linejoin:round;stroke-miterlimit:10;stroke-dasharray:none;stroke-opacity:1"
                d="M200.5 361.76001L202.839997477 353.900011807L205.179984358 346.040049207L207.52 338.17999" /><path
                id="path3472"
                style="fill:none;stroke:#000000;stroke-width:0.72000003;stroke-linecap:round;stroke-linejoin:bevel;stroke-miterlimit:10;stroke-dasharray:none;stroke-opacity:1"
                d="M207.52 335.12L207.7 336.56L207.52 338.0" /><path
                id="path3474"
                style="fill:none;stroke:#000000;stroke-width:0.72000003;stroke-linecap:round;stroke-linejoin:round;stroke-miterlimit:10;stroke-dasharray:none;stroke-opacity:1"
                d="M179.25999 365.54001L187.269995 365.54001L195.28 365.54001" /><path
                id="path3476"
                style="fill:none;stroke:#000000;stroke-width:0.72000003;stroke-linecap:round;stroke-linejoin:bevel;stroke-miterlimit:10;stroke-dasharray:none;stroke-opacity:1"
                d="M200.32001 361.57999L199.60001 363.20001L198.34 364.28L196.89999 365.17999L195.28 365.35999" /><path
                id="path3478"
                style="fill:none;stroke:#000000;stroke-width:0.72000003;stroke-linecap:round;stroke-linejoin:bevel;stroke-miterlimit:10;stroke-dasharray:none;stroke-opacity:1"
                d="M179.44 365.35999L176.2 362.12L173.32001 358.34L170.98 354.38L169.0 350.23999L167.56 345.73999L166.66 341.23999L166.12 336.56" /><path
                id="path3480"
                style="fill:none;stroke:#000000;stroke-width:0.72000003;stroke-linecap:round;stroke-linejoin:round;stroke-miterlimit:10;stroke-dasharray:none;stroke-opacity:1"
                d="M200.5 311.54001L202.839997477 319.399998193L205.179984358 327.259950793L207.52 335.12" /><path
                id="path3482"
                style="fill:none;stroke:#000000;stroke-width:0.72000003;stroke-linecap:round;stroke-linejoin:round;stroke-miterlimit:10;stroke-dasharray:none;stroke-opacity:1"
                d="M179.25999 307.76001L187.269995 307.76001L195.28 307.76001" /><path
                id="path3484"
                style="fill:none;stroke:#000000;stroke-width:0.72000003;stroke-linecap:round;stroke-linejoin:bevel;stroke-miterlimit:10;stroke-dasharray:none;stroke-opacity:1"
                d="M195.28 307.94L196.89999 308.12L198.34 309.01999L199.60001 310.10001L200.32001 311.72" /><path
                id="path3486"
                style="fill:none;stroke:#000000;stroke-width:0.72000003;stroke-linecap:round;stroke-linejoin:bevel;stroke-miterlimit:10;stroke-dasharray:none;stroke-opacity:1"
                d="M166.12 336.73999L166.66 332.06L167.56 327.56L169.0 323.06L170.98 318.92001L173.32001 314.95999L176.2 311.17999L179.44 307.94" /><path
                id="path3488"
                style="fill:none;stroke:#000000;stroke-width:0.72000003;stroke-linecap:round;stroke-linejoin:bevel;stroke-miterlimit:10;stroke-dasharray:none;stroke-opacity:1"
                d="M269.98001 356.72L269.79999 358.88L269.07999 361.04001L268.0 362.84L266.38 364.45999L264.57999 365.54001L262.60001 366.44L260.44 366.79999L258.28 366.62L256.12 366.07999L254.32001 365.0L252.52 363.73999L251.25999 361.94L250.36 359.95999L249.82001 357.79999L249.82001 355.64001L250.36 353.48001L251.25999 351.5L252.52 349.70001L254.32001 348.44L256.12 347.35999L258.28 346.82001L260.44 346.64001L262.60001 347.0L264.57999 347.89999L266.38 348.98001L268.0 350.60001L269.07999 352.39999L269.79999 354.56L269.98001 356.72" /><path
                id="path3490"
                style="fill:none;stroke:#000000;stroke-width:0.72000003;stroke-linecap:round;stroke-linejoin:bevel;stroke-miterlimit:10;stroke-dasharray:none;stroke-opacity:1"
                d="M278.44 356.72L278.26001 359.60001L277.54001 362.48001L276.45999 365.17999L274.84 367.70001L273.04001 369.85999L270.88 371.66L268.35999 373.28L265.66 374.35999L262.78 375.07999L259.89999 375.26001L257.01999 375.07999L254.14 374.35999L251.44 373.28L248.92 371.66L246.75999 369.85999L244.96001 367.70001L243.34 365.17999L242.25999 362.48001L241.53999 359.60001L241.36 356.72L241.53999 353.84L242.25999 350.95999L243.34 348.26001L244.96001 345.73999L246.75999 343.57999L248.92 341.78L251.44 340.16L254.14 339.07999L257.01999 338.35999L259.89999 338.17999L262.78 338.35999L265.66 339.07999L268.35999 340.16L270.88 341.78L273.04001 343.57999L274.84 345.73999L276.45999 348.26001L277.54001 350.95999L278.26001 353.84L278.44 356.72" /><path
                id="path3492"
                style="fill:none;stroke:#000000;stroke-width:0.72000003;stroke-linecap:round;stroke-linejoin:bevel;stroke-miterlimit:10;stroke-dasharray:none;stroke-opacity:1"
                d="M255.39999 423.14001L255.22 424.94L254.5 426.73999L253.42 428.17999L251.98 429.44L250.36 430.16L248.56 430.51999L246.58 430.34L244.96001 429.79999L243.34 428.89999L242.08 427.45999L241.17999 425.84L240.64 424.04001L240.64 422.23999L241.17999 420.44L242.08 418.82001L243.34 417.38L244.96001 416.48001L246.58 415.94L248.56 415.76001L250.36 416.12L251.98 416.84L253.42 418.10001L254.5 419.54001L255.22 421.34L255.39999 423.14001" /><path
                id="path3494"
                style="fill:none;stroke:#000000;stroke-width:0.72000003;stroke-linecap:round;stroke-linejoin:bevel;stroke-miterlimit:10;stroke-dasharray:none;stroke-opacity:1"
                d="M257.92001 423.14001L257.73999 425.29999L257.01999 427.28L255.94 429.07999L254.5 430.70001L252.7 431.95999L250.72 432.67999L248.56 433.04001L246.39999 432.85999L244.42 432.32001L242.44 431.42001L240.82001 429.98001L239.56 428.17999L238.66 426.38L238.12 424.22L238.12 422.06L238.66 419.89999L239.56 418.10001L240.82001 416.29999L242.44 414.85999L244.42 413.95999L246.39999 413.42001L248.56 413.23999L250.72 413.60001L252.7 414.32001L254.5 415.57999L255.94 417.20001L257.01999 419.0L257.73999 420.98001L257.92001 423.14001" /><path
                id="path3496"
                style="fill:none;stroke:#000000;stroke-width:0.72000003;stroke-linecap:round;stroke-linejoin:round;stroke-miterlimit:10;stroke-dasharray:none;stroke-opacity:1"
                d="M263.5 423.14001L259.629995 416.570005L255.75999 410.0L247.93 410.0L240.10001 410.0L236.14 416.570005L232.17999 423.14001L236.14 429.710005L240.10001 436.28L247.93 436.28L255.75999 436.28L259.629995 429.710005L263.5 423.14001" /><path
                id="path3498"
                style="fill:none;stroke:#000000;stroke-width:0.72000003;stroke-linecap:round;stroke-linejoin:round;stroke-miterlimit:10;stroke-dasharray:none;stroke-opacity:1"
                d="M203.56 393.79999L199.06 393.79999L199.06 402.53L199.06 411.26001L203.56 411.26001L203.56 402.53L203.56 393.79999" /><path
                id="path3500"
                style="fill:none;stroke:#000000;stroke-width:0.72000003;stroke-linecap:round;stroke-linejoin:round;stroke-miterlimit:10;stroke-dasharray:none;stroke-opacity:1"
                d="M199.06 393.79999L196.36 393.79999L196.36 402.53L196.36 411.26001L199.06 411.26001L199.06 402.53L199.06 393.79999" /><path
                id="path3502"
                style="fill:none;stroke:#000000;stroke-width:0.72000003;stroke-linecap:round;stroke-linejoin:round;stroke-miterlimit:10;stroke-dasharray:none;stroke-opacity:1"
                d="M193.66 394.70001L193.66 393.79999L196.36 393.79999L196.36 402.53L196.36 411.26001L193.66 411.26001L193.66 411.26001" /><path
                id="path3504"
                style="fill:none;stroke:#000000;stroke-width:0.72000003;stroke-linecap:round;stroke-linejoin:round;stroke-miterlimit:10;stroke-dasharray:none;stroke-opacity:1"
                d="M218.86 392.54001L211.21 393.17L203.56 393.79999" /><path
                id="path3506"
                style="fill:none;stroke:#000000;stroke-width:0.72000003;stroke-linecap:round;stroke-linejoin:round;stroke-miterlimit:10;stroke-dasharray:none;stroke-opacity:1"
                d="M212.38 412.16L203.56 411.26001" /><path
                id="path3508"
                style="fill:none;stroke:#000000;stroke-width:0.72000003;stroke-linecap:round;stroke-linejoin:round;stroke-miterlimit:10;stroke-dasharray:none;stroke-opacity:1"
                d="M188.44 428.17999L190.839997413 420.32000514L193.239983957 412.460055874L195.64 404.60001" /><path
                id="path3510"
                style="fill:none;stroke:#000000;stroke-width:0.72000003;stroke-linecap:round;stroke-linejoin:bevel;stroke-miterlimit:10;stroke-dasharray:none;stroke-opacity:1"
                d="M195.64 401.54001L195.82001 402.98001L195.64 404.42001" /><path
                id="path3512"
                style="fill:none;stroke:#000000;stroke-width:0.72000003;stroke-linecap:round;stroke-linejoin:round;stroke-miterlimit:10;stroke-dasharray:none;stroke-opacity:1"
                d="M167.2 431.95999L175.299995 431.95999L183.39999 431.95999" /><path
                id="path3514"
                style="fill:none;stroke:#000000;stroke-width:0.72000003;stroke-linecap:round;stroke-linejoin:bevel;stroke-miterlimit:10;stroke-dasharray:none;stroke-opacity:1"
                d="M188.44 428.0L187.72 429.62L186.46001 430.70001L185.02 431.60001L183.39999 431.78" /><path
                id="path3516"
                style="fill:none;stroke:#000000;stroke-width:0.72000003;stroke-linecap:round;stroke-linejoin:bevel;stroke-miterlimit:10;stroke-dasharray:none;stroke-opacity:1"
                d="M167.38 431.78L164.14 428.54001L161.25999 424.76001L158.92 420.79999L156.94 416.66L155.5 412.16L154.60001 407.66L154.06 402.98001" /><path
                id="path3518"
                style="fill:none;stroke:#000000;stroke-width:0.72000003;stroke-linecap:round;stroke-linejoin:round;stroke-miterlimit:10;stroke-dasharray:none;stroke-opacity:1"
                d="M188.44 377.95999L190.839997413 385.819988193L193.239983957 393.679950793L195.64 401.54001" /><path
                id="path3520"
                style="fill:none;stroke:#000000;stroke-width:0.72000003;stroke-linecap:round;stroke-linejoin:round;stroke-miterlimit:10;stroke-dasharray:none;stroke-opacity:1"
                d="M167.2 374.17999L175.299995 374.17999L183.39999 374.17999" /><path
                id="path3522"
                style="fill:none;stroke:#000000;stroke-width:0.72000003;stroke-linecap:round;stroke-linejoin:bevel;stroke-miterlimit:10;stroke-dasharray:none;stroke-opacity:1"
                d="M183.39999 374.35999L185.02 374.54001L186.46001 375.44L187.72 376.51999L188.44 378.14001" /><path
                id="path3524"
                style="fill:none;stroke:#000000;stroke-width:0.72000003;stroke-linecap:round;stroke-linejoin:bevel;stroke-miterlimit:10;stroke-dasharray:none;stroke-opacity:1"
                d="M154.06 402.98001L154.60001 398.29999L155.5 393.79999L156.94 389.29999L158.92 385.16L161.25999 381.20001L164.14 377.42001L167.38 374.17999" /><path
                id="path3526"
                style="fill:none;stroke:#000000;stroke-width:0.72000003;stroke-linecap:round;stroke-linejoin:bevel;stroke-miterlimit:10;stroke-dasharray:none;stroke-opacity:1"
                d="M258.10001 423.14001L257.92001 425.29999L257.20001 427.45999L256.12 429.26001L254.5 430.88L252.7 431.95999L250.72 432.85999L248.56 433.22L246.39999 433.04001L244.24001 432.5L242.44 431.42001L240.64 430.16L239.38 428.35999L238.48 426.38L237.94 424.22L237.94 422.06L238.48 419.89999L239.38 417.92001L240.64 416.12L242.44 414.85999L244.24001 413.78L246.39999 413.23999L248.56 413.06L250.72 413.42001L252.7 414.32001L254.5 415.39999L256.12 417.01999L257.20001 418.82001L257.92001 420.98001L258.10001 423.14001" /><path
                id="path3528"
                style="fill:none;stroke:#000000;stroke-width:0.72000003;stroke-linecap:round;stroke-linejoin:bevel;stroke-miterlimit:10;stroke-dasharray:none;stroke-opacity:1"
                d="M266.56 423.14001L266.38 426.01999L265.66 428.89999L264.57999 431.60001L262.95999 434.12L261.16 436.28L259.0 438.07999L256.48001 439.70001L253.78 440.78L250.89999 441.5L248.02 441.67999L245.14 441.5L242.25999 440.78L239.56 439.70001L237.03999 438.07999L234.88 436.28L233.08 434.12L231.46001 431.60001L230.38 428.89999L229.66 426.01999L229.48 423.14001L229.66 420.26001L230.38 417.38L231.46001 414.67999L233.08 412.16L234.88 410.0L237.03999 408.20001L239.56 406.57999L242.25999 405.5L245.14 404.78L248.02 404.60001L250.89999 404.78L253.78 405.5L256.48001 406.57999L259.0 408.20001L261.16 410.0L262.95999 412.16L264.57999 414.67999L265.66 417.38L266.38 420.26001L266.56 423.14001" /><path
                id="path3530"
                style="fill:none;stroke:#000000;stroke-width:0.72000003;stroke-linecap:round;stroke-linejoin:bevel;stroke-miterlimit:10;stroke-dasharray:none;stroke-opacity:1"
                d="M343.60001 245.66L343.42001 247.46001L342.70001 249.25999L341.62 250.7L340.17999 251.96001L338.56 252.67999L336.76001 253.03999L334.78 252.86L333.16 252.32001L331.54001 251.42L330.28 249.98L329.38 248.36L328.84 246.56L328.84 244.75999L329.38 242.96001L330.28 241.34L331.54001 239.89999L333.16 239.0L334.78 238.46001L336.76001 238.28L338.56 238.64L340.17999 239.36L341.62 240.62L342.70001 242.06L343.42001 243.86L343.60001 245.66" /><path
                id="path3532"
                style="fill:none;stroke:#000000;stroke-width:0.72000003;stroke-linecap:round;stroke-linejoin:bevel;stroke-miterlimit:10;stroke-dasharray:none;stroke-opacity:1"
                d="M346.12 245.66L345.94 247.82001L345.22 249.8L344.14001 251.60001L342.70001 253.22L340.89999 254.48L338.92001 255.2L336.76001 255.56L334.60001 255.38L332.62 254.84L330.64001 253.94L329.01999 252.5L327.76001 250.7L326.85999 248.89999L326.32001 246.74001L326.32001 244.58L326.85999 242.42L327.76001 240.62L329.01999 238.82001L330.64001 237.38L332.62 236.48L334.60001 235.94L336.76001 235.75999L338.92001 236.12L340.89999 236.84L342.70001 238.10001L344.14001 239.72L345.22 241.52L345.94 243.5L346.12 245.66" /><path
                id="path3534"
                style="fill:none;stroke:#000000;stroke-width:0.72000003;stroke-linecap:round;stroke-linejoin:round;stroke-miterlimit:10;stroke-dasharray:none;stroke-opacity:1"
                d="M320.73999 245.66L324.61 239.09L328.48001 232.52L336.31001 232.61L344.14001 232.7L348.100005 239.27L352.06 245.84L348.009995 252.410005L343.95999 258.98001L336.22 258.89L328.48001 258.79999L324.61 252.229995L320.73999 245.66" /><path
                id="path3536"
                style="fill:none;stroke:#000000;stroke-width:0.72000003;stroke-linecap:round;stroke-linejoin:round;stroke-miterlimit:10;stroke-dasharray:none;stroke-opacity:1"
                d="M380.67999 216.67999L385.35999 216.67999L385.26999 225.409995L385.17999 234.14L380.67999 234.14L380.67999 225.409995L380.67999 216.67999" /><path
                id="path3538"
                style="fill:none;stroke:#000000;stroke-width:0.72000003;stroke-linecap:round;stroke-linejoin:round;stroke-miterlimit:10;stroke-dasharray:none;stroke-opacity:1"
                d="M385.35999 216.67999L388.06 216.67999L387.97 225.409995L387.88 234.14L385.17999 234.14L385.26999 225.409995L385.35999 216.67999" /><path
                id="path3540"
                style="fill:none;stroke:#000000;stroke-width:0.72000003;stroke-linecap:round;stroke-linejoin:round;stroke-miterlimit:10;stroke-dasharray:none;stroke-opacity:1"
                d="M390.76001 217.58L390.76001 216.67999L388.06 216.67999L387.97 225.409995L387.88 234.14L390.57999 234.14L390.57999 234.14" /><path
                id="path3542"
                style="fill:none;stroke:#000000;stroke-width:0.72000003;stroke-linecap:round;stroke-linejoin:round;stroke-miterlimit:10;stroke-dasharray:none;stroke-opacity:1"
                d="M370.42001 215.78L375.55 216.229995L380.67999 216.67999" /><path
                id="path3544"
                style="fill:none;stroke:#000000;stroke-width:0.72000003;stroke-linecap:round;stroke-linejoin:round;stroke-miterlimit:10;stroke-dasharray:none;stroke-opacity:1"
                d="M370.42001 235.03999L375.55 234.589995L380.67999 234.14" /><path
                id="path3546"
                style="fill:none;stroke:#000000;stroke-width:0.72000003;stroke-linecap:round;stroke-linejoin:round;stroke-miterlimit:10;stroke-dasharray:none;stroke-opacity:1"
                d="M395.62 251.06L393.280005856 243.200008474L390.940022308 235.34005254L388.60001 227.48" /><path
                id="path3548"
                style="fill:none;stroke:#000000;stroke-width:0.72000003;stroke-linecap:round;stroke-linejoin:bevel;stroke-miterlimit:10;stroke-dasharray:none;stroke-opacity:1"
                d="M388.78 227.3L388.60001 225.86L388.78 224.24001" /><path
                id="path3550"
                style="fill:none;stroke:#000000;stroke-width:0.72000003;stroke-linecap:round;stroke-linejoin:round;stroke-miterlimit:10;stroke-dasharray:none;stroke-opacity:1"
                d="M416.85999 254.84L408.849995 254.84L400.84 254.84" /><path
                id="path3552"
                style="fill:none;stroke:#000000;stroke-width:0.72000003;stroke-linecap:round;stroke-linejoin:bevel;stroke-miterlimit:10;stroke-dasharray:none;stroke-opacity:1"
                d="M400.84 254.66L399.22 254.48L397.78 253.58L396.51999 252.5L395.79999 250.88" /><path
                id="path3554"
                style="fill:none;stroke:#000000;stroke-width:0.72000003;stroke-linecap:round;stroke-linejoin:bevel;stroke-miterlimit:10;stroke-dasharray:none;stroke-opacity:1"
                d="M430.17999 226.03999L429.64001 230.72L428.73999 235.22L427.29999 239.72L425.32001 243.86L422.79999 247.82001L420.10001 251.60001L416.85999 254.84" /><path
                id="path3556"
                style="fill:none;stroke:#000000;stroke-width:0.72000003;stroke-linecap:round;stroke-linejoin:round;stroke-miterlimit:10;stroke-dasharray:none;stroke-opacity:1"
                d="M395.98001 200.84L393.520012652 208.639994924L391.060026444 216.439954527L388.60001 224.24001" /><path
                id="path3558"
                style="fill:none;stroke:#000000;stroke-width:0.72000003;stroke-linecap:round;stroke-linejoin:round;stroke-miterlimit:10;stroke-dasharray:none;stroke-opacity:1"
                d="M417.22 197.06L409.119995 197.06L401.01999 197.06" /><path
                id="path3560"
                style="fill:none;stroke:#000000;stroke-width:0.72000003;stroke-linecap:round;stroke-linejoin:bevel;stroke-miterlimit:10;stroke-dasharray:none;stroke-opacity:1"
                d="M395.98001 200.84L396.70001 199.39999L397.95999 198.32001L399.39999 197.42L401.01999 197.24001" /><path
                id="path3562"
                style="fill:none;stroke:#000000;stroke-width:0.72000003;stroke-linecap:round;stroke-linejoin:bevel;stroke-miterlimit:10;stroke-dasharray:none;stroke-opacity:1"
                d="M417.04001 197.06L420.28 200.48L422.98001 204.08L425.5 208.22L427.29999 212.36L428.73999 216.86L429.82001 221.36L430.17999 226.03999" /><path
                id="path3564"
                style="fill:none;stroke:#000000;stroke-width:0.72000003;stroke-linecap:round;stroke-linejoin:bevel;stroke-miterlimit:10;stroke-dasharray:none;stroke-opacity:1"
                d="M346.29999 245.66L346.12 247.82001L345.39999 249.98L344.32001 251.78L342.70001 253.39999L340.89999 254.48L338.92001 255.38L336.76001 255.74001L334.60001 255.56L332.44 255.02L330.64001 253.94L328.84 252.67999L327.57999 250.88L326.67999 248.89999L326.14001 246.74001L326.14001 244.58L326.67999 242.42L327.57999 240.44L328.84 238.64L330.64001 237.38L332.44 236.3L334.60001 235.75999L336.76001 235.58L338.92001 235.94L340.89999 236.84L342.70001 237.92L344.32001 239.53999L345.39999 241.34L346.12 243.5L346.29999 245.66" /><path
                id="path3566"
                style="fill:none;stroke:#000000;stroke-width:0.72000003;stroke-linecap:round;stroke-linejoin:bevel;stroke-miterlimit:10;stroke-dasharray:none;stroke-opacity:1"
                d="M354.76001 245.66L354.57999 248.53999L353.85999 251.42L352.78 254.12L351.16 256.64001L349.35999 258.79999L347.20001 260.60001L344.67999 262.22L341.98001 263.29999L339.10001 264.01999L336.22 264.20001L333.34 264.01999L330.45999 263.29999L327.76001 262.22L325.23999 260.60001L323.07999 258.79999L321.28 256.64001L319.66 254.12L318.57999 251.42L317.85999 248.53999L317.67999 245.66L317.85999 242.78L318.57999 239.89999L319.66 237.2L321.28 234.67999L323.07999 232.52L325.23999 230.72L327.76001 229.10001L330.45999 228.02L333.34 227.3L336.22 227.12L339.10001 227.3L341.98001 228.02L344.67999 229.10001L347.20001 230.72L349.35999 232.52L351.16 234.67999L352.78 237.2L353.85999 239.89999L354.57999 242.78L354.76001 245.66" /><path
                id="path3568"
                style="fill:none;stroke:#000000;stroke-width:0.72000003;stroke-linecap:round;stroke-linejoin:bevel;stroke-miterlimit:10;stroke-dasharray:none;stroke-opacity:1"
                d="M358.72 333.14001L358.54001 334.94L357.82001 336.73999L356.73999 338.17999L355.29999 339.44L353.67999 340.16L351.88 340.51999L349.89999 340.34L348.28 339.79999L346.66 338.89999L345.39999 337.45999L344.5 335.84L343.95999 334.04001L343.95999 332.23999L344.5 330.44L345.39999 328.82001L346.66 327.38L348.28 326.48001L349.89999 325.94L351.88 325.76001L353.67999 326.12L355.29999 326.84L356.73999 328.10001L357.82001 329.54001L358.54001 331.34L358.72 333.14001" /><path
                id="path3570"
                style="fill:none;stroke:#000000;stroke-width:0.72000003;stroke-linecap:round;stroke-linejoin:bevel;stroke-miterlimit:10;stroke-dasharray:none;stroke-opacity:1"
                d="M361.23999 333.14001L361.06 335.29999L360.34 337.28L359.26001 339.07999L357.82001 340.70001L356.01999 341.95999L354.04001 342.67999L351.88 343.04001L349.72 342.85999L347.73999 342.32001L345.76001 341.42001L344.14001 339.98001L342.88 338.17999L341.98001 336.38L341.44 334.22L341.44 332.06L341.98001 329.89999L342.88 328.10001L344.14001 326.29999L345.76001 324.85999L347.73999 323.95999L349.72 323.42001L351.88 323.23999L354.04001 323.60001L356.01999 324.32001L357.82001 325.57999L359.26001 327.20001L360.34 329.0L361.06 330.98001L361.23999 333.14001" /><path
                id="path3572"
                style="fill:none;stroke:#000000;stroke-width:0.72000003;stroke-linecap:round;stroke-linejoin:round;stroke-miterlimit:10;stroke-dasharray:none;stroke-opacity:1"
                d="M335.85999 333.14001L339.819995 326.570005L343.78 320.0L351.520005 320.089995L359.26001 320.17999L363.22 326.75L367.17999 333.32001L363.12999 339.800005L359.07999 346.28L351.34 346.28L343.60001 346.28L339.73 339.710005L335.85999 333.14001" /><path
                id="path3574"
                style="fill:none;stroke:#000000;stroke-width:0.72000003;stroke-linecap:round;stroke-linejoin:round;stroke-miterlimit:10;stroke-dasharray:none;stroke-opacity:1"
                d="M395.98001 304.16L400.48001 304.16L400.48001 312.89L400.48001 321.62L395.79999 321.62L395.89 312.89L395.98001 304.16" /><path
                id="path3576"
                style="fill:none;stroke:#000000;stroke-width:0.72000003;stroke-linecap:round;stroke-linejoin:round;stroke-miterlimit:10;stroke-dasharray:none;stroke-opacity:1"
                d="M400.48001 304.16L403.17999 304.16L403.17999 312.89L403.17999 321.62L400.48001 321.62L400.48001 312.89L400.48001 304.16" /><path
                id="path3578"
                style="fill:none;stroke:#000000;stroke-width:0.72000003;stroke-linecap:round;stroke-linejoin:round;stroke-miterlimit:10;stroke-dasharray:none;stroke-opacity:1"
                d="M405.88 305.06L405.88 304.16L403.17999 304.16L403.17999 312.89L403.17999 321.62L405.88 321.62L405.88 321.62" /><path
                id="path3580"
                style="fill:none;stroke:#000000;stroke-width:0.72000003;stroke-linecap:round;stroke-linejoin:round;stroke-miterlimit:10;stroke-dasharray:none;stroke-opacity:1"
                d="M375.10001 302.35999L382.060002496 302.959992686L389.019963476 303.559992656L395.98001 304.16" /><path
                id="path3582"
                style="fill:none;stroke:#000000;stroke-width:0.72000003;stroke-linecap:round;stroke-linejoin:round;stroke-miterlimit:10;stroke-dasharray:none;stroke-opacity:1"
                d="M378.16 323.06L386.979995 322.34L395.79999 321.62" /><path
                id="path3584"
                style="fill:none;stroke:#000000;stroke-width:0.72000003;stroke-linecap:round;stroke-linejoin:round;stroke-miterlimit:10;stroke-dasharray:none;stroke-opacity:1"
                d="M410.92001 338.35999L408.580005856 330.559998409L406.240012309 322.760042139L403.89999 314.95999" /><path
                id="path3586"
                style="fill:none;stroke:#000000;stroke-width:0.72000003;stroke-linecap:round;stroke-linejoin:bevel;stroke-miterlimit:10;stroke-dasharray:none;stroke-opacity:1"
                d="M403.89999 314.78L403.72 313.34L403.89999 311.72" /><path
                id="path3588"
                style="fill:none;stroke:#000000;stroke-width:0.72000003;stroke-linecap:round;stroke-linejoin:round;stroke-miterlimit:10;stroke-dasharray:none;stroke-opacity:1"
                d="M432.16 342.32001L424.059995 342.32001L415.95999 342.32001" /><path
                id="path3590"
                style="fill:none;stroke:#000000;stroke-width:0.72000003;stroke-linecap:round;stroke-linejoin:bevel;stroke-miterlimit:10;stroke-dasharray:none;stroke-opacity:1"
                d="M415.95999 342.14001L414.34 341.95999L412.89999 341.06L411.64001 339.98001L410.92001 338.35999" /><path
                id="path3592"
                style="fill:none;stroke:#000000;stroke-width:0.72000003;stroke-linecap:round;stroke-linejoin:bevel;stroke-miterlimit:10;stroke-dasharray:none;stroke-opacity:1"
                d="M445.29999 313.51999L444.76001 318.20001L443.85999 322.70001L442.42001 327.20001L440.44 331.34L437.92001 335.29999L435.22 339.07999L431.98001 342.32001" /><path
                id="path3594"
                style="fill:none;stroke:#000000;stroke-width:0.72000003;stroke-linecap:round;stroke-linejoin:round;stroke-miterlimit:10;stroke-dasharray:none;stroke-opacity:1"
                d="M411.10001 288.32001L408.700005921 296.119998258L406.30001271 303.919951194L403.89999 311.72" /><path
                id="path3596"
                style="fill:none;stroke:#000000;stroke-width:0.72000003;stroke-linecap:round;stroke-linejoin:round;stroke-miterlimit:10;stroke-dasharray:none;stroke-opacity:1"
                d="M432.34 284.54001L424.240005 284.54001L416.14001 284.54001" /><path
                id="path3598"
                style="fill:none;stroke:#000000;stroke-width:0.72000003;stroke-linecap:round;stroke-linejoin:bevel;stroke-miterlimit:10;stroke-dasharray:none;stroke-opacity:1"
                d="M411.10001 288.32001L411.82001 286.88L413.07999 285.79999L414.51999 284.89999L416.14001 284.72" /><path
                id="path3600"
                style="fill:none;stroke:#000000;stroke-width:0.72000003;stroke-linecap:round;stroke-linejoin:bevel;stroke-miterlimit:10;stroke-dasharray:none;stroke-opacity:1"
                d="M432.16 284.54001L435.39999 287.95999L438.10001 291.56L440.62 295.70001L442.42001 299.84L443.85999 304.34L444.94 308.84L445.29999 313.51999" /><path
                id="path3602"
                style="fill:none;stroke:#000000;stroke-width:0.72000003;stroke-linecap:round;stroke-linejoin:bevel;stroke-miterlimit:10;stroke-dasharray:none;stroke-opacity:1"
                d="M361.42001 333.14001L361.23999 335.29999L360.51999 337.45999L359.44 339.26001L357.82001 340.88L356.01999 341.95999L354.04001 342.85999L351.88 343.22L349.72 343.04001L347.56 342.5L345.76001 341.42001L343.95999 340.16L342.70001 338.35999L341.79999 336.38L341.26001 334.22L341.26001 332.06L341.79999 329.89999L342.70001 327.92001L343.95999 326.12L345.76001 324.85999L347.56 323.78L349.72 323.23999L351.88 323.06L354.04001 323.42001L356.01999 324.32001L357.82001 325.39999L359.44 327.01999L360.51999 328.82001L361.23999 330.98001L361.42001 333.14001" /><path
                id="path3604"
                style="fill:none;stroke:#000000;stroke-width:0.72000003;stroke-linecap:round;stroke-linejoin:bevel;stroke-miterlimit:10;stroke-dasharray:none;stroke-opacity:1"
                d="M369.88 333.14001L369.70001 336.01999L368.98001 338.89999L367.89999 341.60001L366.28 344.12L364.48001 346.28L362.32001 348.07999L359.79999 349.70001L357.10001 350.78L354.22 351.5L351.34 351.67999L348.45999 351.5L345.57999 350.78L342.88 349.70001L340.35999 348.07999L338.20001 346.28L336.39999 344.12L334.78 341.60001L333.70001 338.89999L332.98001 336.01999L332.79999 333.14001L332.98001 330.26001L333.70001 327.38L334.78 324.67999L336.39999 322.16L338.20001 320.0L340.35999 318.20001L342.88 316.57999L345.57999 315.5L348.45999 314.78L351.34 314.60001L354.22 314.78L357.10001 315.5L359.79999 316.57999L362.32001 318.20001L364.48001 320.0L366.28 322.16L367.89999 324.67999L368.98001 327.38L369.70001 330.26001L369.88 333.14001" /><path
                id="path3606"
                style="fill:none;stroke:#000000;stroke-width:0.72000003;stroke-linecap:round;stroke-linejoin:bevel;stroke-miterlimit:10;stroke-dasharray:none;stroke-opacity:1"
                d="M374.01999 421.88L373.84 423.67999L373.12 425.48001L372.04001 426.92001L370.60001 428.17999L368.98001 428.89999L367.17999 429.26001L365.20001 429.07999L363.57999 428.54001L361.95999 427.64001L360.70001 426.20001L359.79999 424.57999L359.26001 422.78L359.26001 420.98001L359.79999 419.17999L360.70001 417.56L361.95999 416.12L363.57999 415.22L365.20001 414.67999L367.17999 414.5L368.98001 414.85999L370.60001 415.57999L372.04001 416.84L373.12 418.28L373.84 420.07999L374.01999 421.88" /><path
                id="path3608"
                style="fill:none;stroke:#000000;stroke-width:0.72000003;stroke-linecap:round;stroke-linejoin:bevel;stroke-miterlimit:10;stroke-dasharray:none;stroke-opacity:1"
                d="M376.54001 421.88L376.35999 424.04001L375.64001 426.01999L374.56 427.82001L373.12 429.44L371.32001 430.70001L369.34 431.42001L367.17999 431.78L365.01999 431.60001L363.04001 431.06L361.06 430.16L359.44 428.72L358.17999 426.92001L357.28 425.12L356.73999 422.95999L356.73999 420.79999L357.28 418.64001L358.17999 416.84L359.44 415.04001L361.06 413.60001L363.04001 412.70001L365.01999 412.16L367.17999 411.98001L369.34 412.34L371.32001 413.06L373.12 414.32001L374.56 415.94L375.64001 417.73999L376.35999 419.72L376.54001 421.88" /><path
                id="path3610"
                style="fill:none;stroke:#000000;stroke-width:0.72000003;stroke-linecap:round;stroke-linejoin:round;stroke-miterlimit:10;stroke-dasharray:none;stroke-opacity:1"
                d="M351.16 421.70001L355.029995 415.22L358.89999 408.73999L366.729995 408.73999L374.56 408.73999L378.520005 415.309995L382.48001 421.88L378.430005 428.449995L374.38 435.01999L366.639995 434.929995L358.89999 434.84L355.029995 428.270005L351.16 421.70001" /><path
                id="path3612"
                style="fill:none;stroke:#000000;stroke-width:0.72000003;stroke-linecap:round;stroke-linejoin:round;stroke-miterlimit:10;stroke-dasharray:none;stroke-opacity:1"
                d="M411.28 392.72L415.78 392.72L415.78 401.449995L415.78 410.17999L411.10001 410.17999L411.190005 401.449995L411.28 392.72" /><path
                id="path3614"
                style="fill:none;stroke:#000000;stroke-width:0.72000003;stroke-linecap:round;stroke-linejoin:round;stroke-miterlimit:10;stroke-dasharray:none;stroke-opacity:1"
                d="M415.78 392.72L418.48001 392.72L418.48001 401.449995L418.48001 410.17999L415.78 410.17999L415.78 401.449995L415.78 392.72" /><path
                id="path3616"
                style="fill:none;stroke:#000000;stroke-width:0.72000003;stroke-linecap:round;stroke-linejoin:round;stroke-miterlimit:10;stroke-dasharray:none;stroke-opacity:1"
                d="M421.17999 393.62L421.17999 392.72L418.48001 392.72L418.48001 401.449995L418.48001 410.17999L421.17999 410.17999L421.17999 410.17999" /><path
                id="path3618"
                style="fill:none;stroke:#000000;stroke-width:0.72000003;stroke-linecap:round;stroke-linejoin:round;stroke-miterlimit:10;stroke-dasharray:none;stroke-opacity:1"
                d="M392.92001 391.10001L402.100005 391.910005L411.28 392.72" /><path
                id="path3620"
                style="fill:none;stroke:#000000;stroke-width:0.72000003;stroke-linecap:round;stroke-linejoin:round;stroke-miterlimit:10;stroke-dasharray:none;stroke-opacity:1"
                d="M398.67999 411.26001L404.89 410.72L411.10001 410.17999" /><path
                id="path3622"
                style="fill:none;stroke:#000000;stroke-width:0.72000003;stroke-linecap:round;stroke-linejoin:round;stroke-miterlimit:10;stroke-dasharray:none;stroke-opacity:1"
                d="M426.22 427.10001L423.819999254 419.240011807L421.420009376 411.380049207L419.01999 403.51999" /><path
                id="path3624"
                style="fill:none;stroke:#000000;stroke-width:0.72000003;stroke-linecap:round;stroke-linejoin:bevel;stroke-miterlimit:10;stroke-dasharray:none;stroke-opacity:1"
                d="M419.20001 403.34L419.01999 401.89999L419.20001 400.28" /><path
                id="path3626"
                style="fill:none;stroke:#000000;stroke-width:0.72000003;stroke-linecap:round;stroke-linejoin:round;stroke-miterlimit:10;stroke-dasharray:none;stroke-opacity:1"
                d="M447.45999 430.88L439.36 430.88L431.26001 430.88" /><path
                id="path3628"
                style="fill:none;stroke:#000000;stroke-width:0.72000003;stroke-linecap:round;stroke-linejoin:bevel;stroke-miterlimit:10;stroke-dasharray:none;stroke-opacity:1"
                d="M431.26001 430.70001L429.64001 430.51999L428.20001 429.62L426.94 428.54001L426.22 426.92001" /><path
                id="path3630"
                style="fill:none;stroke:#000000;stroke-width:0.72000003;stroke-linecap:round;stroke-linejoin:bevel;stroke-miterlimit:10;stroke-dasharray:none;stroke-opacity:1"
                d="M460.60001 402.07999L460.06 406.76001L459.16 411.26001L457.72 415.76001L455.73999 419.89999L453.22 423.85999L450.51999 427.64001L447.28 430.88" /><path
                id="path3632"
                style="fill:none;stroke:#000000;stroke-width:0.72000003;stroke-linecap:round;stroke-linejoin:round;stroke-miterlimit:10;stroke-dasharray:none;stroke-opacity:1"
                d="M426.39999 376.88L423.939992652 384.739988193L421.480006444 392.599940793L419.01999 400.45999" /><path
                id="path3634"
                style="fill:none;stroke:#000000;stroke-width:0.72000003;stroke-linecap:round;stroke-linejoin:round;stroke-miterlimit:10;stroke-dasharray:none;stroke-opacity:1"
                d="M447.64001 373.28L439.540005 373.190005L431.44 373.10001" /><path
                id="path3636"
                style="fill:none;stroke:#000000;stroke-width:0.72000003;stroke-linecap:round;stroke-linejoin:bevel;stroke-miterlimit:10;stroke-dasharray:none;stroke-opacity:1"
                d="M426.39999 376.88L427.12 375.44L428.38 374.35999L429.82001 373.45999L431.44 373.28" /><path
                id="path3638"
                style="fill:none;stroke:#000000;stroke-width:0.72000003;stroke-linecap:round;stroke-linejoin:bevel;stroke-miterlimit:10;stroke-dasharray:none;stroke-opacity:1"
                d="M447.45999 373.10001L450.70001 376.51999L453.39999 380.12L455.92001 384.26001L457.72 388.39999L459.16 392.89999L460.23999 397.39999L460.60001 402.07999" /><path
                id="path3640"
                style="fill:none;stroke:#000000;stroke-width:0.72000003;stroke-linecap:round;stroke-linejoin:bevel;stroke-miterlimit:10;stroke-dasharray:none;stroke-opacity:1"
                d="M376.72 421.88L376.54001 424.04001L375.82001 426.20001L374.73999 428.0L373.12 429.62L371.32001 430.70001L369.34 431.60001L367.17999 431.95999L365.01999 431.78L362.85999 431.23999L361.06 430.16L359.26001 428.89999L358.0 427.10001L357.10001 425.12L356.56 422.95999L356.56 420.79999L357.10001 418.64001L358.0 416.66L359.26001 414.85999L361.06 413.60001L362.85999 412.51999L365.01999 411.98001L367.17999 411.79999L369.34 412.16L371.32001 413.06L373.12 414.14001L374.73999 415.76001L375.82001 417.56L376.54001 419.72L376.72 421.88" /><path
                id="path3642"
                style="fill:none;stroke:#000000;stroke-width:0.72000003;stroke-linecap:round;stroke-linejoin:bevel;stroke-miterlimit:10;stroke-dasharray:none;stroke-opacity:1"
                d="M385.17999 421.88L385.0 424.76001L384.28 427.64001L383.20001 430.34L381.57999 432.85999L379.78 435.01999L377.62 436.82001L375.10001 438.44L372.39999 439.51999L369.51999 440.23999L366.64001 440.42001L363.76001 440.23999L360.88 439.51999L358.17999 438.44L355.66 436.82001L353.5 435.01999L351.70001 432.85999L350.07999 430.34L349.0 427.64001L348.28 424.76001L348.10001 421.88L348.28 419.0L349.0 416.12L350.07999 413.42001L351.70001 410.89999L353.5 408.73999L355.66 406.94L358.17999 405.32001L360.88 404.23999L363.76001 403.51999L366.64001 403.34L369.51999 403.51999L372.39999 404.23999L375.10001 405.32001L377.62 406.94L379.78 408.73999L381.57999 410.89999L383.20001 413.42001L384.28 416.12L385.0 419.0L385.17999 421.88" /><path
                id="path3644"
                style="fill:none;stroke:#000000;stroke-width:0.72000003;stroke-linecap:round;stroke-linejoin:round;stroke-miterlimit:10;stroke-dasharray:none;stroke-opacity:1"
                d="M239.2 553.82001L248.864747584 553.82001L258.528722335 553.82001L268.19382422 553.82001L277.858174381 553.82001L287.523583457 553.82001L297.187926731 553.82001L306.852366349 553.82001L316.516847376 553.82001L326.181114613 553.82001L335.845322974 553.82001L345.510329442 553.82001L355.175597075 553.82001L364.84 553.82001L355.866549759 553.82001L346.891753212 553.82001L337.91787509 553.82001L328.94292018 553.82001L319.968298649 553.82001L310.994409679 553.82001L302.01999 553.82001" /><path
                id="path3646"
                style="fill:none;stroke:#000000;stroke-width:0.72000003;stroke-linecap:round;stroke-linejoin:round;stroke-miterlimit:10;stroke-dasharray:none;stroke-opacity:1"
                d="M364.84 557.96002L364.84 567.159841545L364.84 576.360182383L364.84 585.560352526L364.84 594.761026912L364.84 603.959950483L364.84 613.159709466L364.84 622.360058832L364.84 631.560446287L364.84 640.76001" /><path
                id="path3648"
                style="fill:none;stroke:#000000;stroke-width:0.72000003;stroke-linecap:round;stroke-linejoin:round;stroke-miterlimit:10;stroke-dasharray:none;stroke-opacity:1"
                d="M239.2 557.96002L239.2 567.159841545L239.2 576.360182383L239.2 585.560352526L239.2 594.761026912L239.2 603.959950483L239.2 613.159709466L239.2 622.360058832L239.2 631.560446287L239.2 640.76001" /><path
                id="path3650"
                style="fill:none;stroke:#000000;stroke-width:0.72000003;stroke-linecap:round;stroke-linejoin:round;stroke-miterlimit:10;stroke-dasharray:none;stroke-opacity:1"
                d="M352.95999 628.88L343.239828032 628.88L333.520691529 628.88L323.800554638 628.88L314.07999 628.88" /><path
                id="path3652"
                style="fill:none;stroke:#000000;stroke-width:0.72000003;stroke-linecap:round;stroke-linejoin:round;stroke-miterlimit:10;stroke-dasharray:none;stroke-opacity:1"
                d="M251.25999 628.88L260.980156968 628.88L270.699298471 628.88L280.419440361 628.88L290.14001 628.88" /><g
                id="g3654"><path
                   id="path3656"
                   style="fill:#000000;fill-opacity:1;fill-rule:nonzero;stroke:#000000;stroke-width:0.72000003;stroke-linecap:round;stroke-linejoin:round;stroke-miterlimit:1;stroke-dasharray:none;stroke-opacity:1"
                   d="m 352.95999,630.85999 0,-3.95997 11.88001,1.97998 -11.88001,1.97999 z" /></g><g
                id="g3658"><path
                   id="path3660"
                   style="fill:#000000;fill-opacity:1;fill-rule:nonzero;stroke:#000000;stroke-width:0.72000003;stroke-linecap:round;stroke-linejoin:round;stroke-miterlimit:1;stroke-dasharray:none;stroke-opacity:1"
                   d="m 251.25999,630.85999 0,-3.95997 L 239.2,628.88 l 12.05999,1.97999 z" /></g><path
                id="path3662"
                style="fill:none;stroke:#000000;stroke-width:0.72000003;stroke-linecap:round;stroke-linejoin:round;stroke-miterlimit:10;stroke-dasharray:none;stroke-opacity:1"
                d="M305.98001 655.70001L307.95999 653.71997L302.01999 653.71997L296.07999 653.71997" /><path
                id="path3664"
                style="fill:none;stroke:#000000;stroke-width:0.72000003;stroke-linecap:round;stroke-linejoin:round;stroke-miterlimit:10;stroke-dasharray:none;stroke-opacity:1"
                d="M296.07999 655.70001L296.07999 651.73999" /><path
                id="path3666"
                style="fill:none;stroke:#000000;stroke-width:0.72000003;stroke-linecap:round;stroke-linejoin:round;stroke-miterlimit:10;stroke-dasharray:none;stroke-opacity:1"
                d="M296.07999 647.78003L298.06 647.78003" /><path
                id="path3668"
                style="fill:none;stroke:#000000;stroke-width:0.72000003;stroke-linecap:round;stroke-linejoin:round;stroke-miterlimit:10;stroke-dasharray:none;stroke-opacity:1"
                d="M302.01999 637.88L300.04001 635.90002L298.06 635.90002L296.07999 637.88L296.07999 641.84003L298.06 643.82001L300.04001 643.82001L302.01999 641.84003L302.01999 637.88L304.0 635.90002L305.98001 635.90002L307.95999 637.88L307.95999 641.84003L305.98001 643.82001L304.0 643.82001L302.01999 641.84003" /><path
                id="path3670"
                style="fill:none;stroke:#000000;stroke-width:0.72000003;stroke-linecap:round;stroke-linejoin:round;stroke-miterlimit:10;stroke-dasharray:none;stroke-opacity:1"
                d="M302.01999 625.82001L300.04001 623.84003L298.06 623.84003L296.07999 625.82001L296.07999 629.78003L298.06 631.76001L300.04001 631.76001L302.01999 629.78003L302.01999 625.82001L304.0 623.84003L305.98001 623.84003L307.95999 625.82001L307.95999 629.78003L305.98001 631.76001L304.0 631.76001L302.01999 629.78003" /><path
                id="path3672"
                style="fill:none;stroke:#000000;stroke-width:0.72000003;stroke-linecap:round;stroke-linejoin:round;stroke-miterlimit:10;stroke-dasharray:none;stroke-opacity:1"
                d="M296.07999 617.90002L296.07999 615.91998L300.04001 611.96002L305.98001 611.96002L307.95999 613.94L307.95999 617.90002L305.98001 619.88L304.0 619.88L302.01999 617.90002L302.01999 611.96002" /><path
                id="path3674"
                style="fill:none;stroke:#000000;stroke-width:0.72000003;stroke-linecap:round;stroke-linejoin:round;stroke-miterlimit:10;stroke-dasharray:none;stroke-opacity:1"
                d="M296.07999 605.84003L298.06 607.82001L305.98001 607.82001L307.95999 605.84003L307.95999 603.85999L305.98001 601.88L298.06 601.88L296.07999 603.85999L296.07999 605.84003" /><path
                id="path3676"
                style="fill:none;stroke:#000000;stroke-width:0.72000003;stroke-linecap:round;stroke-linejoin:round;stroke-miterlimit:10;stroke-dasharray:none;stroke-opacity:1"
                d="M368.98001 553.82001L378.864078095 553.82001L388.749298398 553.82001L398.634641305 553.82001L408.520368754 553.82001L418.404978931 553.82001L428.289729633 553.82001L438.174603007 553.82001L448.059409602 553.82001L457.945352762 553.82001L467.830750166 553.82001L477.715247758 553.82001L487.60001 553.82001" /><path
                id="path3678"
                style="fill:none;stroke:#000000;stroke-width:0.72000003;stroke-linecap:round;stroke-linejoin:round;stroke-miterlimit:10;stroke-dasharray:none;stroke-opacity:1"
                d="M418.12 454.64001L428.044790086 454.64001L437.97106921 454.64001L447.896332541 454.64001L457.822786817 454.64001L467.74887237 454.64001L477.674147698 454.64001L487.60001 454.64001" /><path
                id="path3680"
                style="fill:none;stroke:#000000;stroke-width:0.72000003;stroke-linecap:round;stroke-linejoin:round;stroke-miterlimit:10;stroke-dasharray:none;stroke-opacity:1"
                d="M475.72 541.94L475.72 537.26001" /><path
                id="path3682"
                style="fill:none;stroke:#000000;stroke-width:0.72000003;stroke-linecap:round;stroke-linejoin:round;stroke-miterlimit:10;stroke-dasharray:none;stroke-opacity:1"
                d="M475.72 466.70001L475.72 471.38" /><g
                id="g3684"><path
                   id="path3686"
                   style="fill:#000000;fill-opacity:1;fill-rule:nonzero;stroke:#000000;stroke-width:0.72000003;stroke-linecap:round;stroke-linejoin:round;stroke-miterlimit:1;stroke-dasharray:none;stroke-opacity:1"
                   d="m 477.70001,541.94 -3.96002,0 1.98001,11.88001 1.98001,-11.88001 z" /></g><g
                id="g3688"><path
                   id="path3690"
                   style="fill:#000000;fill-opacity:1;fill-rule:nonzero;stroke:#000000;stroke-width:0.72000003;stroke-linecap:round;stroke-linejoin:round;stroke-miterlimit:1;stroke-dasharray:none;stroke-opacity:1"
                   d="m 477.70001,466.70001 -3.96002,0 1.98001,-12.06 1.98001,12.06 z" /></g><path
                id="path3692"
                style="fill:none;stroke:#000000;stroke-width:0.72000003;stroke-linecap:round;stroke-linejoin:round;stroke-miterlimit:10;stroke-dasharray:none;stroke-opacity:1"
                d="M479.67999 531.14001L481.66 529.15997L475.72 529.15997L469.78 529.15997" /><path
                id="path3694"
                style="fill:none;stroke:#000000;stroke-width:0.72000003;stroke-linecap:round;stroke-linejoin:round;stroke-miterlimit:10;stroke-dasharray:none;stroke-opacity:1"
                d="M469.78 531.14001L469.78 527.17999" /><path
                id="path3696"
                style="fill:none;stroke:#000000;stroke-width:0.72000003;stroke-linecap:round;stroke-linejoin:round;stroke-miterlimit:10;stroke-dasharray:none;stroke-opacity:1"
                d="M469.78 523.21997L471.76001 523.21997" /><path
                id="path3698"
                style="fill:none;stroke:#000000;stroke-width:0.72000003;stroke-linecap:round;stroke-linejoin:round;stroke-miterlimit:10;stroke-dasharray:none;stroke-opacity:1"
                d="M473.73999 511.34L473.73999 519.26001L481.66 513.32001L475.72 513.32001L469.78 513.32001" /><path
                id="path3700"
                style="fill:none;stroke:#000000;stroke-width:0.72000003;stroke-linecap:round;stroke-linejoin:round;stroke-miterlimit:10;stroke-dasharray:none;stroke-opacity:1"
                d="M469.78 505.22L469.78 503.23999L473.73999 499.28L479.67999 499.28L481.66 501.26001L481.66 505.22L479.67999 507.20001L477.70001 507.20001L475.72 505.22L475.72 499.28" /><path
                id="path3702"
                style="fill:none;stroke:#000000;stroke-width:0.72000003;stroke-linecap:round;stroke-linejoin:round;stroke-miterlimit:10;stroke-dasharray:none;stroke-opacity:1"
                d="M469.78 493.34L471.76001 495.32001L479.67999 495.32001L481.66 493.34L481.66 491.35999L479.67999 489.38L471.76001 489.38L469.78 491.35999L469.78 493.34" /><path
                id="path3704"
                style="fill:none;stroke:#000000;stroke-width:0.72000003;stroke-linecap:round;stroke-linejoin:round;stroke-miterlimit:10;stroke-dasharray:none;stroke-opacity:1"
                d="M475.72 479.29999L473.73999 477.32001L471.76001 477.32001L469.78 479.29999L469.78 483.26001L471.76001 485.23999L473.73999 485.23999L475.72 483.26001L475.72 479.29999L477.70001 477.32001L479.67999 477.32001L481.66 479.29999L481.66 483.26001L479.67999 485.23999L477.70001 485.23999L475.72 483.26001" /><path
                id="path3706"
                style="fill:none;stroke:#000000;stroke-width:0.72000003;stroke-linecap:round;stroke-linejoin:round;stroke-miterlimit:10;stroke-dasharray:none;stroke-opacity:1"
                d="M235.06 553.82001L225.730879582 553.82001L216.400671648 553.82001L207.070347995 553.82001L197.741299426 553.82001L188.411574903 553.82001L179.081672602 553.82001L169.751619458 553.82001L160.421600678 553.82001L151.090484622 553.82001L141.759861795 553.82001L132.430067472 553.82001L123.1 553.82001" /><path
                id="path3708"
                style="fill:none;stroke:#000000;stroke-width:0.72000003;stroke-linecap:round;stroke-linejoin:round;stroke-miterlimit:10;stroke-dasharray:none;stroke-opacity:1"
                d="M254.32001 110.48L244.94715357 110.48L235.574253061 110.48L226.202025377 110.48L216.829569416 110.48L207.457452394 110.48L198.084124801 110.48L188.710599054 110.48L179.33852457 110.48L169.965437294 110.48L160.592383632 110.48L151.21992794 110.48L141.846380215 110.48L132.473147065 110.48L123.1 110.48" /><path
                id="path3710"
                style="fill:none;stroke:#000000;stroke-width:0.72000003;stroke-linecap:round;stroke-linejoin:round;stroke-miterlimit:10;stroke-dasharray:none;stroke-opacity:1"
                d="M134.98 541.94L134.98 532.279462098L134.98 522.619894053L134.98 512.959792323L134.98 503.299831546L134.98 493.639549438L134.98 483.979096341L134.98 474.31919358L134.98 464.659202577L134.98 455.000241365L134.98 445.341105741L134.98 435.681841033L134.98 426.020856441L134.98 416.360555008L134.98 406.700769579L134.98 397.041205861L134.98 387.380835829L134.98 377.720888477L134.98 368.06" /><path
                id="path3712"
                style="fill:none;stroke:#000000;stroke-width:0.72000003;stroke-linecap:round;stroke-linejoin:round;stroke-miterlimit:10;stroke-dasharray:none;stroke-opacity:1"
                d="M134.98 122.36L134.98 132.020537346L134.98 141.680104836L134.98 151.34020601L134.98 161.000166232L134.98 170.660447785L134.98 180.320900326L134.98 189.980802531L134.98 199.640792979L134.98 209.299753635L134.98 218.958888704L134.98 228.618152856L134.98 238.279136893L134.98 247.939437769L134.98 257.599222643L134.98 267.258785806L134.98 276.919155282L134.98 286.579102079L134.98 296.23999" /><g
                id="g3714"><path
                   id="path3716"
                   style="fill:#000000;fill-opacity:1;fill-rule:nonzero;stroke:#000000;stroke-width:0.72000003;stroke-linecap:round;stroke-linejoin:round;stroke-miterlimit:1;stroke-dasharray:none;stroke-opacity:1"
                   d="m 136.96001,541.94 -3.96001,0 1.98,11.88001 1.98001,-11.88001 z" /></g><g
                id="g3718"><path
                   id="path3720"
                   style="fill:#000000;fill-opacity:1;fill-rule:nonzero;stroke:#000000;stroke-width:0.72000003;stroke-linecap:round;stroke-linejoin:round;stroke-miterlimit:1;stroke-dasharray:none;stroke-opacity:1"
                   d="m 136.96001,122.36 -3.96001,0 1.98,-11.88 1.98001,11.88 z" /></g><path
                id="path3722"
                style="fill:none;stroke:#000000;stroke-width:0.72000003;stroke-linecap:round;stroke-linejoin:round;stroke-miterlimit:10;stroke-dasharray:none;stroke-opacity:1"
                d="M134.98 362.12L134.98 356.17999L133.0 354.20001L131.02 354.20001L129.03999 356.17999L129.03999 360.14001L131.02 362.12L136.96001 362.12L141.10001 358.16L141.10001 356.17999" /><path
                id="path3724"
                style="fill:none;stroke:#000000;stroke-width:0.72000003;stroke-linecap:round;stroke-linejoin:round;stroke-miterlimit:10;stroke-dasharray:none;stroke-opacity:1"
                d="M129.03999 350.06L131.02 350.06" /><path
                id="path3726"
                style="fill:none;stroke:#000000;stroke-width:0.72000003;stroke-linecap:round;stroke-linejoin:round;stroke-miterlimit:10;stroke-dasharray:none;stroke-opacity:1"
                d="M134.98 346.10001L134.98 340.16L133.0 338.17999L131.02 338.17999L129.03999 340.16L129.03999 344.12L131.02 346.10001L136.96001 346.10001L141.10001 342.14001L141.10001 340.16" /><path
                id="path3728"
                style="fill:none;stroke:#000000;stroke-width:0.72000003;stroke-linecap:round;stroke-linejoin:round;stroke-miterlimit:10;stroke-dasharray:none;stroke-opacity:1"
                d="M134.98 334.22L134.98 328.10001L133.0 326.12L131.02 326.12L129.03999 328.10001L129.03999 332.23999L131.02 334.22L136.96001 334.22L141.10001 330.07999L141.10001 328.10001" /><path
                id="path3730"
                style="fill:none;stroke:#000000;stroke-width:0.72000003;stroke-linecap:round;stroke-linejoin:round;stroke-miterlimit:10;stroke-dasharray:none;stroke-opacity:1"
                d="M131.02 322.16L129.03999 320.17999L129.03999 316.22L131.02 314.23999L134.98 314.23999L136.96001 316.22L136.96001 322.16L141.10001 322.16L141.10001 314.23999" /><path
                id="path3732"
                style="fill:none;stroke:#000000;stroke-width:0.72000003;stroke-linecap:round;stroke-linejoin:round;stroke-miterlimit:10;stroke-dasharray:none;stroke-opacity:1"
                d="M133.0 302.17999L133.0 310.28L137.050005 307.22L141.10001 304.16L135.07 304.16L129.03999 304.16" /><path
                id="path3734"
                style="fill:none;stroke:#000000;stroke-width:0.72000003;stroke-linecap:round;stroke-linejoin:round;stroke-miterlimit:10;stroke-dasharray:none;stroke-opacity:1"
                d="M196.0 458.42001L196.0 468.213672613L196.0 478.007123334L196.0 487.799946925L196.0 497.592289513L196.0 507.385542666L196.0 517.178293109L196.0 526.972072536L196.0 536.765790633L196.0 546.558613693L196.0 556.351576664L196.0 566.145951018L196.0 575.938412472L196.0 585.732553238L196.0 595.525962415L196.0 605.319007344L196.0 615.111810512L196.0 624.905316379L196.0 634.698976267L196.0 644.492447851L196.0 654.286110821L196.0 664.079205314L196.0 673.872604644L196.0 683.665915042L196.0 693.460303072L196.0 703.253611187L196.0 713.046494814L196.0 722.84003" /><path
                id="path3736"
                style="fill:none;stroke:#000000;stroke-width:0.72000003;stroke-linecap:round;stroke-linejoin:round;stroke-miterlimit:10;stroke-dasharray:none;stroke-opacity:1"
                d="M414.34 461.48001L414.34 471.160335478L414.34 480.840451516L414.34 490.519947681L414.34 500.19896841L414.34 509.878889166L414.34 519.558313029L414.34 529.238753969L414.34 538.919134289L414.34 548.598629929L414.34 558.278263861L414.34 567.959292843L414.34 577.638431062L414.34 587.31922916L414.34 596.999304134L414.34 606.679019076L414.34 616.358495054L414.34 626.0386656L414.34 635.718988384L414.34 645.399125043L414.34 655.079450874L414.34 664.759214806L414.34 674.439280048L414.34 684.119257387L414.34 693.800299886L414.34 703.480274968L414.34 713.159830475L414.34 722.84003" /><path
                id="path3738"
                style="fill:none;stroke:#000000;stroke-width:0.72000003;stroke-linecap:round;stroke-linejoin:round;stroke-miterlimit:10;stroke-dasharray:none;stroke-opacity:1"
                d="M207.88 710.78003L217.35981837 710.78003L226.840171837 710.78003L236.320349415 710.78003L245.801046582 710.78003L255.279939648 710.78003L264.759693551 710.78003L274.240055807 710.78003L283.720457309 710.78003L293.20001 710.78003" /><path
                id="path3740"
                style="fill:none;stroke:#000000;stroke-width:0.72000003;stroke-linecap:round;stroke-linejoin:round;stroke-miterlimit:10;stroke-dasharray:none;stroke-opacity:1"
                d="M402.45999 710.78003L392.980174963 710.78003L383.49982483 710.78003L374.019650585 710.78003L364.538956752 710.78003L355.060067019 710.78003L345.580316449 710.78003L336.099957527 710.78003L326.619559357 710.78003L317.14001 710.78003" /><g
                id="g3742"><path
                   id="path3744"
                   style="fill:#000000;fill-opacity:1;fill-rule:nonzero;stroke:#000000;stroke-width:0.72000003;stroke-linecap:round;stroke-linejoin:round;stroke-miterlimit:1;stroke-dasharray:none;stroke-opacity:1"
                   d="m 207.88,712.76001 0,-3.96002 -11.88,1.98004 11.88,1.97998 z" /></g><g
                id="g3746"><path
                   id="path3748"
                   style="fill:#000000;fill-opacity:1;fill-rule:nonzero;stroke:#000000;stroke-width:0.72000003;stroke-linecap:round;stroke-linejoin:round;stroke-miterlimit:1;stroke-dasharray:none;stroke-opacity:1"
                   d="m 402.45999,712.76001 0,-3.96002 11.88001,1.98004 -11.88001,1.97998 z" /></g><path
                id="path3750"
                style="fill:none;stroke:#000000;stroke-width:0.72000003;stroke-linecap:round;stroke-linejoin:round;stroke-miterlimit:10;stroke-dasharray:none;stroke-opacity:1"
                d="M309.22 740.65997L311.20001 738.67999L311.20001 734.71997L309.22 732.73999L307.23999 732.73999L305.26001 734.71997L305.26001 736.70001" /><path
                id="path3752"
                style="fill:none;stroke:#000000;stroke-width:0.72000003;stroke-linecap:round;stroke-linejoin:round;stroke-miterlimit:10;stroke-dasharray:none;stroke-opacity:1"
                d="M305.26001 734.71997L303.10001 732.73999L301.12 732.73999L299.14001 734.71997L299.14001 738.67999L301.12 740.65997" /><path
                id="path3754"
                style="fill:none;stroke:#000000;stroke-width:0.72000003;stroke-linecap:round;stroke-linejoin:round;stroke-miterlimit:10;stroke-dasharray:none;stroke-opacity:1"
                d="M299.14001 728.78003L301.12 728.78003" /><path
                id="path3756"
                style="fill:none;stroke:#000000;stroke-width:0.72000003;stroke-linecap:round;stroke-linejoin:round;stroke-miterlimit:10;stroke-dasharray:none;stroke-opacity:1"
                d="M309.22 724.82001L311.20001 722.84003L311.20001 718.70001L309.22 716.71997L307.23999 716.71997L305.26001 718.70001L305.26001 722.84003L303.10001 724.82001L299.14001 724.82001L299.14001 716.71997" /><path
                id="path3758"
                style="fill:none;stroke:#000000;stroke-width:0.72000003;stroke-linecap:round;stroke-linejoin:round;stroke-miterlimit:10;stroke-dasharray:none;stroke-opacity:1"
                d="M305.26001 706.82001L303.10001 704.84003L301.12 704.84003L299.14001 706.82001L299.14001 710.78003L301.12 712.76001L303.10001 712.76001L305.26001 710.78003L305.26001 706.82001L307.23999 704.84003L309.22 704.84003L311.20001 706.82001L311.20001 710.78003L309.22 712.76001L307.23999 712.76001L305.26001 710.78003" /><path
                id="path3760"
                style="fill:none;stroke:#000000;stroke-width:0.72000003;stroke-linecap:round;stroke-linejoin:round;stroke-miterlimit:10;stroke-dasharray:none;stroke-opacity:1"
                d="M309.22 700.88L311.20001 698.90002L311.20001 694.76001L309.22 692.78003L307.23999 692.78003L305.26001 694.76001L305.26001 696.91998" /><path
                id="path3762"
                style="fill:none;stroke:#000000;stroke-width:0.72000003;stroke-linecap:round;stroke-linejoin:round;stroke-miterlimit:10;stroke-dasharray:none;stroke-opacity:1"
                d="M305.26001 694.76001L303.10001 692.78003L301.12 692.78003L299.14001 694.76001L299.14001 698.90002L301.12 700.88" /><path
                id="path3764"
                style="fill:none;stroke:#000000;stroke-width:0.72000003;stroke-linecap:round;stroke-linejoin:round;stroke-miterlimit:10;stroke-dasharray:none;stroke-opacity:1"
                d="M309.22 688.82001L311.20001 686.84003L311.20001 682.88L309.22 680.90002L307.23999 680.90002L305.26001 682.88L305.26001 686.84003L303.10001 688.82001L299.14001 688.82001L299.14001 680.90002" /><path
                id="path3766"
                style="fill:none;stroke:#000000;stroke-width:0.72000003;stroke-linecap:round;stroke-linejoin:round;stroke-miterlimit:10;stroke-dasharray:none;stroke-opacity:1"
                d="M372.57999 165.38L372.57999 156.167318448L372.57999 146.955150547L372.57999 137.742825127L372.57999 128.529767564L372.57999 119.317663568L372.57999 110.10540804L372.57999 100.892772214L372.57999 91.679861408L372.57999 82.466680523L372.57999 73.2530278485L372.57999 64.040001" /><path
                id="path3768"
                style="fill:none;stroke:#000000;stroke-width:0.72000003;stroke-linecap:round;stroke-linejoin:round;stroke-miterlimit:10;stroke-dasharray:none;stroke-opacity:1"
                d="M249.46001 113.18L249.46001 103.352050463L249.46001 93.5233312906L249.46001 83.6956614176L249.46001 73.8683597573L249.46001 64.040001" /><path
                id="path3770"
                style="fill:none;stroke:#000000;stroke-width:0.72000003;stroke-linecap:round;stroke-linejoin:round;stroke-miterlimit:10;stroke-dasharray:none;stroke-opacity:1"
                d="M360.51999 75.919998L351.114833281 75.919998L341.710668794 75.919998L332.30553634 75.919998L322.89999 75.919998" /><path
                id="path3772"
                style="fill:none;stroke:#000000;stroke-width:0.72000003;stroke-linecap:round;stroke-linejoin:round;stroke-miterlimit:10;stroke-dasharray:none;stroke-opacity:1"
                d="M261.34 75.919998L270.745154219 75.919998L280.149316206 75.919998L289.55444616 75.919998L298.95999 75.919998" /><g
                id="g3774"><path
                   id="path3776"
                   style="fill:#000000;fill-opacity:1;fill-rule:nonzero;stroke:#000000;stroke-width:0.72000003;stroke-linecap:round;stroke-linejoin:round;stroke-miterlimit:1;stroke-dasharray:none;stroke-opacity:1"
                   d="m 360.51999,77.900002 0,-3.96 12.06,1.979996 -12.06,1.980004 z" /></g><g
                id="g3778"><path
                   id="path3780"
                   style="fill:#000000;fill-opacity:1;fill-rule:nonzero;stroke:#000000;stroke-width:0.72000003;stroke-linecap:round;stroke-linejoin:round;stroke-miterlimit:1;stroke-dasharray:none;stroke-opacity:1"
                   d="m 261.34,77.900002 0,-3.96 -11.87999,1.979996 11.87999,1.980004 z" /></g><path
                id="path3782"
                style="fill:none;stroke:#000000;stroke-width:0.72000003;stroke-linecap:round;stroke-linejoin:round;stroke-miterlimit:10;stroke-dasharray:none;stroke-opacity:1"
                d="M314.98001 101.84L316.95999 99.860001L311.01999 99.860001L305.07999 99.860001" /><path
                id="path3784"
                style="fill:none;stroke:#000000;stroke-width:0.72000003;stroke-linecap:round;stroke-linejoin:round;stroke-miterlimit:10;stroke-dasharray:none;stroke-opacity:1"
                d="M305.07999 101.84L305.07999 97.879997" /><path
                id="path3786"
                style="fill:none;stroke:#000000;stroke-width:0.72000003;stroke-linecap:round;stroke-linejoin:round;stroke-miterlimit:10;stroke-dasharray:none;stroke-opacity:1"
                d="M305.07999 93.919998L307.06 93.919998" /><path
                id="path3788"
                style="fill:none;stroke:#000000;stroke-width:0.72000003;stroke-linecap:round;stroke-linejoin:round;stroke-miterlimit:10;stroke-dasharray:none;stroke-opacity:1"
                d="M311.01999 83.839996L309.04001 81.860001L307.06 81.860001L305.07999 83.839996L305.07999 87.980003L307.06 89.959999L309.04001 89.959999L311.01999 87.980003L311.01999 83.839996L313.0 81.860001L314.98001 81.860001L316.95999 83.839996L316.95999 87.980003L314.98001 89.959999L313.0 89.959999L311.01999 87.980003" /><path
                id="path3790"
                style="fill:none;stroke:#000000;stroke-width:0.72000003;stroke-linecap:round;stroke-linejoin:round;stroke-miterlimit:10;stroke-dasharray:none;stroke-opacity:1"
                d="M307.06 77.900002L305.07999 75.919998L305.07999 71.959999L307.06 69.980003L311.01999 69.980003L313.0 71.959999L313.0 77.900002L316.95999 77.900002L316.95999 69.980003" /><path
                id="path3792"
                style="fill:none;stroke:#000000;stroke-width:0.72000003;stroke-linecap:round;stroke-linejoin:round;stroke-miterlimit:10;stroke-dasharray:none;stroke-opacity:1"
                d="M305.07999 64.040001L307.06 66.019997L314.98001 66.019997L316.95999 64.040001L316.95999 62.060001L314.98001 59.900002L307.06 59.900002L305.07999 62.060001L305.07999 64.040001" /><path
                id="path3794"
                style="fill:none;stroke:#000000;stroke-width:0.72000003;stroke-linecap:round;stroke-linejoin:round;stroke-miterlimit:10;stroke-dasharray:none;stroke-opacity:1"
                d="M305.07999 53.959999L307.06 55.939999L314.98001 55.939999L316.95999 53.959999L316.95999 51.98L314.98001 50.0L307.06 50.0L305.07999 51.98L305.07999 53.959999" /></g></g></g></svg>