<?xml version="1.0" encoding="UTF-8" standalone="no"?>
<svg
   xmlns:dc="http://purl.org/dc/elements/1.1/"
   xmlns:cc="http://creativecommons.org/ns#"
   xmlns:rdf="http://www.w3.org/1999/02/22-rdf-syntax-ns#"
   xmlns:svg="http://www.w3.org/2000/svg"
   xmlns="http://www.w3.org/2000/svg"
   xmlns:sodipodi="http://sodipodi.sourceforge.net/DTD/sodipodi-0.dtd"
   xmlns:inkscape="http://www.inkscape.org/namespaces/inkscape"
   viewBox="0 0 106.42261 219.28381"
   height="219.2838"
   width="106.42261"
   xml:space="preserve"
   version="1.1"
   id="svg3336"
   inkscape:version="0.91 r13725"
   sodipodi:docname="Schecter7HS tuning.svg"><sodipodi:namedview
     pagecolor="#ffffff"
     bordercolor="#666666"
     borderopacity="1"
     objecttolerance="10"
     gridtolerance="10"
     guidetolerance="10"
     inkscape:pageopacity="0"
     inkscape:pageshadow="2"
     inkscape:window-width="1366"
     inkscape:window-height="715"
     id="namedview231"
     showgrid="false"
     inkscape:zoom="1.4142136"
     inkscape:cx="-178.96152"
     inkscape:cy="89.337783"
     inkscape:window-x="-8"
     inkscape:window-y="-8"
     inkscape:window-maximized="1"
     inkscape:current-layer="g3348"
     fit-margin-top="0"
     fit-margin-left="0"
     fit-margin-right="0"
     fit-margin-bottom="0" /><metadata
     id="metadata3342"><rdf:RDF><cc:Work
         rdf:about=""><dc:format>image/svg+xml</dc:format><dc:type
           rdf:resource="http://purl.org/dc/dcmitype/StillImage" /><dc:title></dc:title></cc:Work></rdf:RDF></metadata><defs
     id="defs3340"><clipPath
       id="clipPath3350"
       clipPathUnits="userSpaceOnUse"><path
         id="path3352"
         d="m 123.1,50 364.85999,0 0,691.02002 -364.85999,0"
         inkscape:connector-curvature="0" /></clipPath></defs><g
     transform="matrix(1.25,0,0,-1.25,-244.5505,356.71391)"
     id="g3344"><g
       id="g3346"><g
         clip-path="url(#clipPath3350)"
         id="g3348"><path
           id="path3354"
           style="fill:none;stroke:#000000;stroke-width:0.28206491;stroke-linecap:round;stroke-linejoin:round;stroke-miterlimit:10;stroke-dasharray:none;stroke-opacity:1"
           d="m 207.95376,260.20758 1.39913,3.4119 1.18925,3.41187 0.97939,3.55405 0.62961,3.62513 0.41972,3.69622 0.13992,3.69621 -0.13992,3.62513"
           inkscape:connector-curvature="0" /><path
           id="path3356"
           style="fill:none;stroke:#000000;stroke-width:0.28206491;stroke-linecap:round;stroke-linejoin:bevel;stroke-miterlimit:10;stroke-dasharray:none;stroke-opacity:1"
           d="m 196.9707,248.26598 2.02872,1.27945 1.81886,1.35054 1.74888,1.63486 1.60899,1.70594 1.39912,1.8481 1.25922,2.06134 1.04935,2.06137"
           inkscape:connector-curvature="0" /><path
           id="path3358"
           style="fill:none;stroke:#000000;stroke-width:0.28206491;stroke-linecap:round;stroke-linejoin:bevel;stroke-miterlimit:10;stroke-dasharray:none;stroke-opacity:1"
           d="m 196.9707,248.1949 -0.55967,-0.49756 -0.41971,-0.63974 -0.20989,-0.78191 0,-0.7108 0.20989,-0.78189"
           inkscape:connector-curvature="0" /><path
           id="path3360"
           style="fill:none;stroke:#000000;stroke-width:0.28206491;stroke-linecap:round;stroke-linejoin:round;stroke-miterlimit:10;stroke-dasharray:none;stroke-opacity:1"
           d="m 216.55837,112.8567 0.0175,3.09208 0.0175,3.09175 0.0175,3.09207 0.0175,3.09221 -0.0347,3.09207 -0.0347,3.09175 -0.0348,3.09206 -0.0348,3.09222 -0.12264,3.09206 -0.12264,3.09174 -0.12264,3.09207 -0.12265,3.09219 -0.17487,3.07432 -0.17489,3.07397 -0.1749,3.0743 -0.1749,3.07443 -0.20986,2.67736 -0.20985,2.6774 -0.20986,2.67739 -0.27984,2.67738 -0.27982,2.67737 -0.27984,2.67741 -0.37308,2.65367 -0.37312,2.65369 -0.37309,2.65371 -0.44303,2.65368 -0.44307,2.65367 -0.44306,2.65371 -0.53635,2.63 -0.5363,2.62997 -0.53633,2.63 -0.62962,2.60632 -0.62961,2.60628 -0.62957,2.60634 -0.94443,3.55404 -0.9444,3.55406 -1.04933,3.55403 -1.04935,3.55405 -1.18925,3.48298 -1.18926,3.48296 -1.32917,3.41188 -1.32916,3.41189 -1.43409,3.41189 -1.43408,3.41188"
           inkscape:connector-curvature="0" /><path
           id="path3362"
           style="fill:none;stroke:#000000;stroke-width:0.28206491;stroke-linecap:round;stroke-linejoin:bevel;stroke-miterlimit:10;stroke-dasharray:none;stroke-opacity:1"
           d="m 216.55837,112.92779 0.0699,-0.78189 0.27981,-0.63973 0.41975,-0.63973 0.62961,-0.42647 0.62958,-0.28434 0.76952,-0.0711 0.69956,0.14218"
           inkscape:connector-curvature="0" /><path
           id="path3364"
           style="fill:none;stroke:#000000;stroke-width:0.28206491;stroke-linecap:round;stroke-linejoin:round;stroke-miterlimit:10;stroke-dasharray:none;stroke-opacity:1"
           d="m 261.4001,285.22809 0.10507,-2.23907 0.10507,-2.23903 0.24483,-2.27459 0.24484,-2.2746 0.41974,-2.20352 0.41973,-2.20349 0.55967,-2.20352 0.55962,-2.20352 0.73456,-2.13243 0.73453,-2.13242"
           inkscape:connector-curvature="0" /><path
           id="path3366"
           style="fill:none;stroke:#000000;stroke-width:0.28206491;stroke-linecap:round;stroke-linejoin:bevel;stroke-miterlimit:10;stroke-dasharray:none;stroke-opacity:1"
           d="m 265.52752,263.1219 1.25921,-2.13244 1.32917,-1.99026 1.539,-1.91917 1.67894,-1.77704 1.81886,-1.63486 1.88884,-1.49271 2.0287,-1.35053 2.09869,-1.20838"
           inkscape:connector-curvature="0" /><path
           id="path3368"
           style="fill:none;stroke:#000000;stroke-width:0.28206491;stroke-linecap:round;stroke-linejoin:bevel;stroke-miterlimit:10;stroke-dasharray:none;stroke-opacity:1"
           d="m 280.42811,246.13354 0.2099,0.78189 -0.0699,0.78191 -0.2798,0.78189 -0.4897,0.63971 -0.62958,0.42649"
           inkscape:connector-curvature="0" /><path
           id="path3370"
           style="fill:none;stroke:#000000;stroke-width:0.28206491;stroke-linecap:round;stroke-linejoin:round;stroke-miterlimit:10;stroke-dasharray:none;stroke-opacity:1"
           d="m 280.42811,246.06247 -1.00266,-2.77217 -1.00271,-2.77214 -1.00271,-2.77219 -0.90944,-2.81953 -0.90943,-2.81951 -0.90941,-2.81958 -0.81615,-2.84322 -0.81617,-2.84323 -0.81614,-2.84328 -0.72288,-2.89062 -0.72288,-2.89059 -0.72287,-2.89066 -0.62963,-2.89061 -0.6296,-2.89062 -0.6296,-2.89064 -0.51299,-2.93802 -0.51301,-2.93801 -0.51304,-2.93801 -0.4197,-2.93803 -0.41973,-2.93799 -0.41975,-2.93803 -0.30315,-2.93801 -0.30313,-2.938 -0.30315,-2.93803 -0.20988,-2.89061 -0.20986,-2.89063 -0.20986,-2.89065 -0.0934,-2.89061 -0.0935,-2.89061 -0.0932,-2.89066 0,-2.89063 0,-2.89059 0,-2.89065 0.0932,-2.86693 0.0935,-2.8669 0.0934,-2.86697 0.16323,-2.89063 0.16322,-2.89059 0.16323,-2.89064"
           inkscape:connector-curvature="0" /><path
           id="path3372"
           style="fill:none;stroke:#000000;stroke-width:0.28206491;stroke-linecap:round;stroke-linejoin:bevel;stroke-miterlimit:10;stroke-dasharray:none;stroke-opacity:1"
           d="m 261.47006,130.69805 0.76951,0.0711 0.69957,0.28432 0.62961,0.49759 0.41974,0.63971 0.2798,0.71082 0.0699,0.78188"
           inkscape:connector-curvature="0" /><path
           id="path3374"
           style="fill:none;stroke:#000000;stroke-width:0.28206491;stroke-linecap:round;stroke-linejoin:bevel;stroke-miterlimit:10;stroke-dasharray:none;stroke-opacity:1"
           d="m 261.4001,130.69805 -2.30853,0 -2.30856,-0.21325 -2.23855,-0.4265 -2.23862,-0.63972 -2.16862,-0.7819 -2.0987,-0.99514 -2.02871,-1.13729 -1.88882,-1.35053 -1.81884,-1.4927"
           inkscape:connector-curvature="0" /><path
           id="path3376"
           style="fill:none;stroke:#000000;stroke-width:0.28206491;stroke-linecap:round;stroke-linejoin:bevel;stroke-miterlimit:10;stroke-dasharray:none;stroke-opacity:1"
           d="m 220.05614,110.15563 3.07808,1.06622 3.07803,1.20837 2.93817,1.42162 2.86822,1.63487 2.72827,1.77703 2.65834,1.99024 2.51837,2.13243 2.30854,2.27461"
           inkscape:connector-curvature="0" /><path
           id="path3378"
           style="fill:none;stroke:#000000;stroke-width:0.28206491;stroke-linecap:round;stroke-linejoin:bevel;stroke-miterlimit:10;stroke-dasharray:none;stroke-opacity:1"
           d="m 231.66881,153.87043 -0.0699,0.71081 -0.27986,0.71083 -0.41971,0.56863 -0.55963,0.49757 -0.6296,0.28432 -0.6996,0.14216 -0.76952,-0.0711 -0.62955,-0.21322 -0.62961,-0.35541 -0.48971,-0.56865 -0.34978,-0.63974 -0.20989,-0.71081 0,-0.71081 0.20989,-0.7108 0.34978,-0.63973 0.48971,-0.56864 0.62961,-0.35542 0.62955,-0.21325 0.76952,-0.0711 0.6996,0.14217 0.6296,0.28431 0.55963,0.49757 0.41971,0.56864 0.27986,0.71081 0.0699,0.71082"
           inkscape:connector-curvature="0" /><path
           id="path3380"
           style="fill:none;stroke:#000000;stroke-width:0.28206491;stroke-linecap:round;stroke-linejoin:bevel;stroke-miterlimit:10;stroke-dasharray:none;stroke-opacity:1"
           d="m 232.64821,153.87043 -0.0699,0.85297 -0.27984,0.7819 -0.41972,0.7108 -0.55969,0.63975 -0.69953,0.49755 -0.76952,0.28433 -0.83948,0.14216 -0.83946,-0.0711 -0.76953,-0.21323 -0.76948,-0.35541 -0.6296,-0.56865 -0.48972,-0.71081 -0.34975,-0.71082 -0.2099,-0.85296 0,-0.85298 0.2099,-0.85296 0.34975,-0.71082 0.48972,-0.7108 0.6296,-0.56865 0.76948,-0.35542 0.76953,-0.21322 0.83946,-0.0711 0.83948,0.14216 0.76952,0.28432 0.69953,0.49758 0.55969,0.63973 0.41972,0.71079 0.27984,0.78191 0.0699,0.85297"
           inkscape:connector-curvature="0" /><path
           id="path3382"
           style="fill:none;stroke:#000000;stroke-width:0.28206491;stroke-linecap:round;stroke-linejoin:round;stroke-miterlimit:10;stroke-dasharray:none;stroke-opacity:1"
           d="m 234.81685,153.87043 -1.50405,-2.59447 -1.50406,-2.59444 -3.00809,0 -3.00811,0 -1.57404,2.59444 -1.57397,2.59447 1.57397,2.59447 1.57404,2.59444 3.00811,0 3.00809,0 1.50406,-2.59444 1.50405,-2.59447"
           inkscape:connector-curvature="0" /><path
           id="path3412"
           style="fill:none;stroke:#000000;stroke-width:0.28206491;stroke-linecap:round;stroke-linejoin:bevel;stroke-miterlimit:10;stroke-dasharray:none;stroke-opacity:1"
           d="m 232.71817,153.87043 -0.0699,0.85297 -0.2798,0.85298 -0.41975,0.71082 -0.62963,0.63971 -0.69954,0.42649 -0.76952,0.35539 -0.83948,0.14217 -0.83946,-0.0711 -0.83946,-0.21323 -0.69955,-0.42649 -0.69959,-0.49758 -0.48965,-0.71082 -0.34979,-0.78188 -0.20987,-0.85296 0,-0.85298 0.20987,-0.85296 0.34979,-0.78188 0.48965,-0.71081 0.69959,-0.49759 0.69955,-0.42648 0.83946,-0.21324 0.83946,-0.0711 0.83948,0.14217 0.76952,0.35538 0.69954,0.42652 0.62963,0.63971 0.41975,0.71081 0.2798,0.85296 0.0699,0.85299"
           inkscape:connector-curvature="0" /><path
           id="path3414"
           style="fill:none;stroke:#000000;stroke-width:0.28206491;stroke-linecap:round;stroke-linejoin:bevel;stroke-miterlimit:10;stroke-dasharray:none;stroke-opacity:1"
           d="m 236.00609,153.87043 -0.0699,1.13729 -0.27983,1.13732 -0.41973,1.06619 -0.62961,0.99512 -0.69956,0.85299 -0.83945,0.71082 -0.97939,0.63973 -1.04935,0.42648 -1.11929,0.28432 -1.11929,0.0711 -1.11931,-0.0711 -1.11929,-0.28432 -1.04935,-0.42648 -0.97937,-0.63973 -0.83947,-0.71082 -0.69956,-0.85299 -0.62962,-0.99512 -0.41971,-1.06619 -0.27983,-1.13732 -0.0699,-1.13729 0.0699,-1.1373 0.27983,-1.13728 0.41971,-1.06622 0.62962,-0.99515 0.69956,-0.85296 0.83947,-0.71081 0.97937,-0.63973 1.04935,-0.42649 1.11929,-0.28431 1.11931,-0.0711 1.11929,0.0711 1.11929,0.28431 1.04935,0.42649 0.97939,0.63973 0.83945,0.71081 0.69956,0.85296 0.62961,0.99515 0.41973,1.06622 0.27983,1.13728 0.0699,1.1373"
           inkscape:connector-curvature="0" /><path
           id="path3416"
           style="fill:none;stroke:#000000;stroke-width:0.28206491;stroke-linecap:round;stroke-linejoin:bevel;stroke-miterlimit:10;stroke-dasharray:none;stroke-opacity:1"
           d="m 227.54143,181.16553 -0.0699,0.71081 -0.27985,0.71079 -0.41975,0.56867 -0.55965,0.49758 -0.62958,0.2843 -0.69956,0.14217 -0.76953,-0.0711 -0.62961,-0.21325 -0.6296,-0.3554 -0.48969,-0.56866 -0.34978,-0.63972 -0.20986,-0.71079 0,-0.71083 0.20986,-0.7108 0.34978,-0.63973 0.48969,-0.56865 0.6296,-0.35539 0.62961,-0.21326 0.76953,-0.0711 0.69956,0.14217 0.62958,0.28432 0.55965,0.49756 0.41975,0.56866 0.27985,0.7108 0.0699,0.71081"
           inkscape:connector-curvature="0" /><path
           id="path3418"
           style="fill:none;stroke:#000000;stroke-width:0.28206491;stroke-linecap:round;stroke-linejoin:bevel;stroke-miterlimit:10;stroke-dasharray:none;stroke-opacity:1"
           d="m 228.5208,181.16553 -0.0699,0.85296 -0.27982,0.78191 -0.41971,0.71079 -0.55966,0.63975 -0.69956,0.49755 -0.76952,0.28433 -0.83946,0.14217 -0.8395,-0.0711 -0.76951,-0.21325 -0.76948,-0.35538 -0.62965,-0.56864 -0.48969,-0.71084 -0.34974,-0.7108 -0.20989,-0.85297 0,-0.85296 0.20989,-0.85297 0.34974,-0.71081 0.48969,-0.71082 0.62965,-0.56866 0.76948,-0.3554 0.76951,-0.21325 0.8395,-0.0711 0.83946,0.14218 0.76952,0.28431 0.69956,0.49758 0.55966,0.63971 0.41971,0.71082 0.27982,0.78189 0.0699,0.85297"
           inkscape:connector-curvature="0" /><path
           id="path3420"
           style="fill:none;stroke:#000000;stroke-width:0.28206491;stroke-linecap:round;stroke-linejoin:round;stroke-miterlimit:10;stroke-dasharray:none;stroke-opacity:1"
           d="m 230.75941,181.16553 -1.50405,-2.59445 -1.50404,-2.59447 -3.04312,0 -3.04305,0 -1.53902,2.59447 -1.53907,2.59445 1.53907,2.59445 1.53902,2.59447 3.04305,0 3.04312,0 1.50404,-2.59447 1.50405,-2.59445"
           inkscape:connector-curvature="0" /><path
           id="path3450"
           style="fill:none;stroke:#000000;stroke-width:0.28206491;stroke-linecap:round;stroke-linejoin:bevel;stroke-miterlimit:10;stroke-dasharray:none;stroke-opacity:1"
           d="m 228.59077,181.16553 -0.0699,0.85296 -0.27983,0.85299 -0.4197,0.71081 -0.62961,0.63973 -0.69956,0.42647 -0.76952,0.3554 -0.83946,0.14217 -0.8395,-0.0711 -0.83945,-0.21324 -0.69954,-0.42648 -0.69958,-0.49757 -0.48966,-0.71082 -0.34982,-0.78188 -0.20986,-0.85297 0,-0.85298 0.20986,-0.85295 0.34982,-0.78193 0.48966,-0.71077 0.69958,-0.49759 0.69954,-0.42647 0.83945,-0.21327 0.8395,-0.0711 0.83946,0.14214 0.76952,0.35542 0.69956,0.42647 0.62961,0.63974 0.4197,0.71082 0.27983,0.85296 0.0699,0.85298"
           inkscape:connector-curvature="0" /><path
           id="path3452"
           style="fill:none;stroke:#000000;stroke-width:0.28206491;stroke-linecap:round;stroke-linejoin:bevel;stroke-miterlimit:10;stroke-dasharray:none;stroke-opacity:1"
           d="m 231.87871,181.16553 -0.0699,1.13728 -0.27982,1.13732 -0.41976,1.0662 -0.62959,0.99513 -0.69954,0.85299 -0.83948,0.71081 -0.97939,0.63972 -1.04932,0.4265 -1.11931,0.28429 -1.11929,0.0711 -1.11931,-0.0711 -1.11929,-0.28429 -1.04936,-0.4265 -0.97938,-0.63972 -0.83945,-0.71081 -0.69955,-0.85299 -0.62961,-0.99513 -0.41973,-1.0662 -0.2798,-1.13732 -0.0699,-1.13728 0.0699,-1.1373 0.2798,-1.13728 0.41973,-1.06623 0.62961,-0.99513 0.69955,-0.85298 0.83945,-0.7108 0.97938,-0.63972 1.04936,-0.4265 1.11929,-0.28432 1.11931,-0.0711 1.11929,0.0711 1.11931,0.28432 1.04932,0.4265 0.97939,0.63972 0.83948,0.7108 0.69954,0.85298 0.62959,0.99513 0.41976,1.06623 0.27982,1.13728 0.0699,1.1373"
           inkscape:connector-curvature="0" /><path
           id="path3454"
           style="fill:none;stroke:#000000;stroke-width:0.28206491;stroke-linecap:round;stroke-linejoin:bevel;stroke-miterlimit:10;stroke-dasharray:none;stroke-opacity:1"
           d="m 223.48398,207.39442 -0.0699,0.7108 -0.27983,0.71081 -0.41974,0.56866 -0.55966,0.49754 -0.6296,0.28432 -0.69956,0.14218 -0.76952,-0.0711 -0.62959,-0.21325 -0.6296,-0.35538 -0.4897,-0.56866 -0.34977,-0.63974 -0.20986,-0.7108 0,-0.71081 0.20986,-0.71081 0.34977,-0.63976 0.4897,-0.56863 0.6296,-0.35538 0.62959,-0.21326 0.76952,-0.0711 0.69956,0.14218 0.6296,0.28431 0.55966,0.49756 0.41974,0.56866 0.27983,0.71081 0.0699,0.71081"
           inkscape:connector-curvature="0" /><path
           id="path3456"
           style="fill:none;stroke:#000000;stroke-width:0.28206491;stroke-linecap:round;stroke-linejoin:bevel;stroke-miterlimit:10;stroke-dasharray:none;stroke-opacity:1"
           d="m 224.46336,207.39442 -0.0699,0.85296 -0.27984,0.78187 -0.41972,0.71082 -0.55965,0.63974 -0.69957,0.49757 -0.7695,0.28434 -0.83948,0.14215 -0.83949,-0.0711 -0.76952,-0.21326 -0.76951,-0.35538 -0.62958,-0.56865 -0.48969,-0.7108 -0.3498,-0.71084 -0.20984,-0.85296 0,-0.85297 0.20984,-0.85297 0.3498,-0.71083 0.48969,-0.71079 0.62958,-0.56864 0.76951,-0.35539 0.76952,-0.21326 0.83949,-0.0711 0.83948,0.14215 0.7695,0.28432 0.69957,0.49758 0.55965,0.63972 0.41972,0.71081 0.27984,0.7819 0.0699,0.85297"
           inkscape:connector-curvature="0" /><path
           id="path3458"
           style="fill:none;stroke:#000000;stroke-width:0.28206491;stroke-linecap:round;stroke-linejoin:round;stroke-miterlimit:10;stroke-dasharray:none;stroke-opacity:1"
           d="m 226.63202,207.39442 -1.50404,-2.59446 -1.50408,-2.59447 -3.0081,0 -3.00813,0 -1.57397,2.59447 -1.57402,2.59446 1.57402,2.59445 1.57397,2.59445 3.00813,0 3.0081,0 1.50408,-2.59445 1.50404,-2.59445"
           inkscape:connector-curvature="0" /><path
           id="path3488"
           style="fill:none;stroke:#000000;stroke-width:0.28206491;stroke-linecap:round;stroke-linejoin:bevel;stroke-miterlimit:10;stroke-dasharray:none;stroke-opacity:1"
           d="m 224.53334,207.39442 -0.0699,0.85296 -0.27978,0.85297 -0.41976,0.71081 -0.6296,0.63973 -0.69957,0.42649 -0.7695,0.3554 -0.83948,0.14215 -0.83947,-0.0711 -0.83947,-0.21326 -0.69958,-0.42646 -0.69953,-0.49759 -0.48972,-0.71079 -0.34978,-0.7819 -0.20985,-0.85297 0,-0.85296 0.20985,-0.85298 0.34978,-0.7819 0.48972,-0.71079 0.69953,-0.49757 0.69958,-0.4265 0.83947,-0.21322 0.83947,-0.0711 0.83948,0.14217 0.7695,0.35539 0.69957,0.4265 0.6296,0.63973 0.41976,0.71077 0.27978,0.85301 0.0699,0.85297"
           inkscape:connector-curvature="0" /><path
           id="path3490"
           style="fill:none;stroke:#000000;stroke-width:0.28206491;stroke-linecap:round;stroke-linejoin:bevel;stroke-miterlimit:10;stroke-dasharray:none;stroke-opacity:1"
           d="m 227.82127,207.39442 -0.0699,1.13729 -0.27982,1.13729 -0.41976,1.06623 -0.62961,0.99514 -0.69955,0.85295 -0.83946,0.71082 -0.97941,0.63971 -1.04932,0.42647 -1.11931,0.28434 -1.11928,0.0711 -1.11931,-0.0711 -1.11927,-0.28434 -1.04934,-0.42647 -0.97936,-0.63971 -0.83952,-0.71082 -0.69956,-0.85295 -0.62959,-0.99514 -0.41974,-1.06623 -0.27983,-1.13729 -0.0699,-1.13729 0.0699,-1.1373 0.27983,-1.13732 0.41974,-1.06618 0.62959,-0.99514 0.69956,-0.85299 0.83952,-0.71079 0.97936,-0.63975 1.04934,-0.42647 1.11927,-0.28433 1.11931,-0.0711 1.11928,0.0711 1.11931,0.28433 1.04932,0.42647 0.97941,0.63975 0.83946,0.71079 0.69955,0.85299 0.62961,0.99514 0.41976,1.06618 0.27982,1.13732 0.0699,1.1373"
           inkscape:connector-curvature="0" /><path
           id="path3492"
           style="fill:none;stroke:#000000;stroke-width:0.28206491;stroke-linecap:round;stroke-linejoin:bevel;stroke-miterlimit:10;stroke-dasharray:none;stroke-opacity:1"
           d="m 218.86691,233.62331 -0.0699,0.71079 -0.27984,0.71081 -0.41973,0.56864 -0.55962,0.49757 -0.62964,0.28434 -0.69954,0.14215 -0.76954,-0.0711 -0.6296,-0.21324 -0.62958,-0.35541 -0.4897,-0.56865 -0.34978,-0.63972 -0.20988,-0.71079 0,-0.71084 0.20988,-0.71082 0.34978,-0.6397 0.4897,-0.56864 0.62958,-0.35541 0.6296,-0.21324 0.76954,-0.0711 0.69954,0.14217 0.62964,0.28432 0.55962,0.49757 0.41973,0.56865 0.27984,0.7108 0.0699,0.71082"
           inkscape:connector-curvature="0" /><path
           id="path3494"
           style="fill:none;stroke:#000000;stroke-width:0.28206491;stroke-linecap:round;stroke-linejoin:bevel;stroke-miterlimit:10;stroke-dasharray:none;stroke-opacity:1"
           d="m 219.84631,233.62331 -0.0699,0.85295 -0.27982,0.78189 -0.41975,0.71081 -0.55963,0.63974 -0.69955,0.49756 -0.76952,0.28432 -0.83946,0.14218 -0.8395,-0.0711 -0.76949,-0.21323 -0.76954,-0.3554 -0.62958,-0.56864 -0.4897,-0.71082 -0.34977,-0.71081 -0.20986,-0.85295 0,-0.85298 0.20986,-0.85299 0.34977,-0.71079 0.4897,-0.71082 0.62958,-0.56864 0.76954,-0.35541 0.76949,-0.21323 0.8395,-0.0711 0.83946,0.14217 0.76952,0.28432 0.69955,0.49757 0.55963,0.63973 0.41975,0.7108 0.27982,0.7819 0.0699,0.85298"
           inkscape:connector-curvature="0" /><path
           id="path3496"
           style="fill:none;stroke:#000000;stroke-width:0.28206491;stroke-linecap:round;stroke-linejoin:round;stroke-miterlimit:10;stroke-dasharray:none;stroke-opacity:1"
           d="m 222.01491,233.62331 -1.50403,-2.59446 -1.50406,-2.59446 -3.04311,0 -3.0431,0 -1.53899,2.59446 -1.53905,2.59446 1.53905,2.59445 1.53899,2.59445 3.0431,0 3.04311,0 1.50406,-2.59445 1.50403,-2.59445"
           inkscape:connector-curvature="0" /><path
           id="path3526"
           style="fill:none;stroke:#000000;stroke-width:0.28206491;stroke-linecap:round;stroke-linejoin:bevel;stroke-miterlimit:10;stroke-dasharray:none;stroke-opacity:1"
           d="m 219.91624,233.62331 -0.0699,0.85295 -0.27985,0.85297 -0.41973,0.71082 -0.62961,0.63973 -0.69955,0.42648 -0.76952,0.35539 -0.83946,0.14217 -0.8395,-0.0711 -0.83945,-0.21326 -0.69958,-0.42648 -0.69955,-0.49756 -0.48969,-0.71081 -0.34977,-0.7819 -0.20989,-0.85296 0,-0.85298 0.20989,-0.85297 0.34977,-0.78189 0.48969,-0.71079 0.69955,-0.49758 0.69958,-0.42648 0.83945,-0.21326 0.8395,-0.0711 0.83946,0.14216 0.76952,0.35541 0.69955,0.42647 0.62961,0.63973 0.41973,0.71083 0.27985,0.85295 0.0699,0.85299"
           inkscape:connector-curvature="0" /><path
           id="path3528"
           style="fill:none;stroke:#000000;stroke-width:0.28206491;stroke-linecap:round;stroke-linejoin:bevel;stroke-miterlimit:10;stroke-dasharray:none;stroke-opacity:1"
           d="m 223.20417,233.62331 -0.0699,1.13727 -0.27982,1.1373 -0.41975,1.06623 -0.62959,0.99512 -0.69954,0.85298 -0.83951,0.7108 -0.97936,0.63974 -1.04934,0.42647 -1.11931,0.28432 -1.11929,0.0711 -1.11929,-0.0711 -1.1193,-0.28432 -1.04934,-0.42647 -0.97939,-0.63974 -0.83947,-0.7108 -0.69956,-0.85298 -0.62959,-0.99512 -0.41974,-1.06623 -0.27979,-1.1373 -0.0699,-1.13727 0.0699,-1.1373 0.27979,-1.13732 0.41974,-1.06621 0.62959,-0.99513 0.69956,-0.85296 0.83947,-0.7108 0.97939,-0.63976 1.04934,-0.42648 1.1193,-0.28432 1.11929,-0.0711 1.11929,0.0711 1.11931,0.28432 1.04934,0.42648 0.97936,0.63976 0.83951,0.7108 0.69954,0.85296 0.62959,0.99513 0.41975,1.06621 0.27982,1.13732 0.0699,1.1373"
           inkscape:connector-curvature="0" /><path
           id="path3530"
           style="fill:none;stroke:#000000;stroke-width:0.28206491;stroke-linecap:round;stroke-linejoin:bevel;stroke-miterlimit:10;stroke-dasharray:none;stroke-opacity:1"
           d="m 253.14531,163.53744 -0.0699,0.71081 -0.27985,0.71081 -0.41973,0.56866 -0.55965,0.49757 -0.6296,0.28431 -0.69955,0.14217 -0.76953,-0.0711 -0.62961,-0.21326 -0.6296,-0.35539 -0.48968,-0.56865 -0.3498,-0.63975 -0.20985,-0.71078 0,-0.71082 0.20985,-0.71081 0.3498,-0.63975 0.48968,-0.56865 0.6296,-0.35538 0.62961,-0.21324 0.76953,-0.0711 0.69955,0.14215 0.6296,0.28433 0.55965,0.49755 0.41973,0.56865 0.27985,0.71081 0.0699,0.71081"
           inkscape:connector-curvature="0" /><path
           id="path3532"
           style="fill:none;stroke:#000000;stroke-width:0.28206491;stroke-linecap:round;stroke-linejoin:bevel;stroke-miterlimit:10;stroke-dasharray:none;stroke-opacity:1"
           d="m 254.12468,163.53744 -0.0699,0.85298 -0.27985,0.78189 -0.4197,0.71082 -0.55967,0.63972 -0.69956,0.49756 -0.76952,0.28432 -0.83945,0.14216 -0.83948,-0.0711 -0.76951,-0.21324 -0.76949,-0.35539 -0.62964,-0.56866 -0.4897,-0.7108 -0.34976,-0.71083 -0.20988,-0.85296 0,-0.85298 0.20988,-0.85296 0.34976,-0.71083 0.4897,-0.7108 0.62964,-0.56865 0.76949,-0.35539 0.76951,-0.21325 0.83948,-0.0711 0.83945,0.14217 0.76952,0.28433 0.69956,0.49757 0.55967,0.63974 0.4197,0.71081 0.27985,0.78188 0.0699,0.85296"
           inkscape:connector-curvature="0" /><path
           id="path3534"
           style="fill:none;stroke:#000000;stroke-width:0.28206491;stroke-linecap:round;stroke-linejoin:round;stroke-miterlimit:10;stroke-dasharray:none;stroke-opacity:1"
           d="m 244.26089,163.53744 1.50408,-2.59445 1.50405,-2.59447 3.0431,0.0356 3.04307,0.0356 1.53903,2.59445 1.53903,2.59444 -1.57403,2.59447 -1.57401,2.59447 -3.00808,-0.0356 -3.00811,-0.0356 -1.50405,-2.59445 -1.50408,-2.59446"
           inkscape:connector-curvature="0" /><path
           id="path3564"
           style="fill:none;stroke:#000000;stroke-width:0.28206491;stroke-linecap:round;stroke-linejoin:bevel;stroke-miterlimit:10;stroke-dasharray:none;stroke-opacity:1"
           d="m 254.19464,163.53744 -0.07,0.85298 -0.2798,0.85297 -0.41975,0.71081 -0.6296,0.63973 -0.69957,0.42648 -0.76952,0.3554 -0.83945,0.14218 -0.83948,-0.0711 -0.8395,-0.21324 -0.6995,-0.42648 -0.69959,-0.49757 -0.48968,-0.71082 -0.3498,-0.78189 -0.20987,-0.85296 0,-0.85298 0.20987,-0.85297 0.3498,-0.78188 0.48968,-0.71081 0.69959,-0.49757 0.6995,-0.42648 0.8395,-0.21326 0.83948,-0.0711 0.83945,0.14217 0.76952,0.35541 0.69957,0.42649 0.6296,0.63971 0.41975,0.7108 0.2798,0.85299 0.07,0.85297"
           inkscape:connector-curvature="0" /><path
           id="path3566"
           style="fill:none;stroke:#000000;stroke-width:0.28206491;stroke-linecap:round;stroke-linejoin:bevel;stroke-miterlimit:10;stroke-dasharray:none;stroke-opacity:1"
           d="m 257.48258,163.53744 -0.07,1.1373 -0.27981,1.1373 -0.41973,1.0662 -0.62963,0.99514 -0.69954,0.85297 -0.83944,0.71082 -0.97942,0.63973 -1.04932,0.42648 -1.1193,0.28432 -1.11929,0.0711 -1.11931,-0.0711 -1.11929,-0.28432 -1.04935,-0.42648 -0.97937,-0.63973 -0.83948,-0.71082 -0.69956,-0.85297 -0.62961,-0.99514 -0.41971,-1.0662 -0.27982,-1.1373 -0.07,-1.1373 0.07,-1.13729 0.27982,-1.13731 0.41971,-1.06617 0.62961,-0.99516 0.69956,-0.85299 0.83948,-0.71079 0.97937,-0.63972 1.04935,-0.4265 1.11929,-0.28431 1.11931,-0.0711 1.11929,0.0711 1.1193,0.28431 1.04932,0.4265 0.97942,0.63972 0.83944,0.71079 0.69954,0.85299 0.62963,0.99516 0.41973,1.06617 0.27981,1.13731 0.07,1.13729"
           inkscape:connector-curvature="0" /><path
           id="path3568"
           style="fill:none;stroke:#000000;stroke-width:0.28206491;stroke-linecap:round;stroke-linejoin:bevel;stroke-miterlimit:10;stroke-dasharray:none;stroke-opacity:1"
           d="m 259.02161,198.08279 -0.07,0.71082 -0.27983,0.71081 -0.4197,0.56865 -0.55967,0.49758 -0.6296,0.2843 -0.69956,0.14217 -0.76953,-0.0711 -0.62959,-0.21323 -0.62958,-0.35542 -0.4897,-0.56864 -0.3498,-0.63974 -0.20987,-0.71078 0,-0.71083 0.20987,-0.7108 0.3498,-0.63973 0.4897,-0.56865 0.62958,-0.35541 0.62959,-0.21323 0.76953,-0.0711 0.69956,0.14215 0.6296,0.28433 0.55967,0.49757 0.4197,0.56866 0.27983,0.71081 0.07,0.71078"
           inkscape:connector-curvature="0" /><path
           id="path3570"
           style="fill:none;stroke:#000000;stroke-width:0.28206491;stroke-linecap:round;stroke-linejoin:bevel;stroke-miterlimit:10;stroke-dasharray:none;stroke-opacity:1"
           d="m 260.001,198.08279 -0.07,0.85298 -0.27982,0.7819 -0.41973,0.71081 -0.55967,0.63973 -0.69954,0.49757 -0.7695,0.28431 -0.83949,0.14217 -0.83944,-0.0711 -0.76955,-0.21324 -0.76951,-0.35541 -0.62959,-0.56865 -0.4897,-0.71081 -0.34978,-0.71082 -0.20987,-0.85295 0,-0.85298 0.20987,-0.85299 0.34978,-0.71079 0.4897,-0.71082 0.62959,-0.56864 0.76951,-0.3554 0.76955,-0.21324 0.83944,-0.0711 0.83949,0.14215 0.7695,0.28433 0.69954,0.49756 0.55967,0.63974 0.41973,0.7108 0.27982,0.78191 0.07,0.85296"
           inkscape:connector-curvature="0" /><path
           id="path3572"
           style="fill:none;stroke:#000000;stroke-width:0.28206491;stroke-linecap:round;stroke-linejoin:round;stroke-miterlimit:10;stroke-dasharray:none;stroke-opacity:1"
           d="m 250.13722,198.08279 1.53901,-2.59445 1.53902,-2.59445 3.00813,0.0356 3.00811,0.0356 1.53901,2.59445 1.53905,2.59446 -1.57403,2.5589 -1.57402,2.55893 -3.00805,0 -3.00814,0 -1.50405,-2.59445 -1.50404,-2.59446"
           inkscape:connector-curvature="0" /><path
           id="path3602"
           style="fill:none;stroke:#000000;stroke-width:0.28206491;stroke-linecap:round;stroke-linejoin:bevel;stroke-miterlimit:10;stroke-dasharray:none;stroke-opacity:1"
           d="m 260.07096,198.08279 -0.0699,0.85298 -0.27982,0.85298 -0.41972,0.71081 -0.62964,0.63973 -0.69953,0.42649 -0.76951,0.3554 -0.83948,0.14216 -0.83945,-0.0711 -0.83947,-0.21325 -0.69959,-0.42648 -0.69957,-0.49758 -0.48968,-0.71081 -0.34976,-0.78189 -0.20988,-0.85296 0,-0.85297 0.20988,-0.853 0.34976,-0.78187 0.48968,-0.71082 0.69957,-0.49756 0.69959,-0.42649 0.83947,-0.21324 0.83945,-0.0711 0.83948,0.14217 0.76951,0.35539 0.69953,0.42648 0.62964,0.63975 0.41972,0.71081 0.27982,0.85297 0.0699,0.85296"
           inkscape:connector-curvature="0" /><path
           id="path3604"
           style="fill:none;stroke:#000000;stroke-width:0.28206491;stroke-linecap:round;stroke-linejoin:bevel;stroke-miterlimit:10;stroke-dasharray:none;stroke-opacity:1"
           d="m 263.35889,198.08279 -0.0699,1.13729 -0.27983,1.13731 -0.41974,1.06622 -0.62961,0.99514 -0.69956,0.85295 -0.83946,0.71081 -0.97938,0.63976 -1.04935,0.42647 -1.11929,0.28432 -1.11927,0.0711 -1.11932,-0.0711 -1.11932,-0.28432 -1.04932,-0.42647 -0.97941,-0.63976 -0.83946,-0.71081 -0.69955,-0.85295 -0.6296,-0.99514 -0.41973,-1.06622 -0.27982,-1.13731 -0.0699,-1.13729 0.0699,-1.13729 0.27982,-1.13729 0.41973,-1.06622 0.6296,-0.99514 0.69955,-0.85296 0.83946,-0.71081 0.97941,-0.63973 1.04932,-0.42649 1.11932,-0.28432 1.11932,-0.0711 1.11927,0.0711 1.11929,0.28432 1.04935,0.42649 0.97938,0.63973 0.83946,0.71081 0.69956,0.85296 0.62961,0.99514 0.41974,1.06622 0.27983,1.13729 0.0699,1.13729"
           inkscape:connector-curvature="0" /><path
           id="path3606"
           style="fill:none;stroke:#000000;stroke-width:0.28206491;stroke-linecap:round;stroke-linejoin:bevel;stroke-miterlimit:10;stroke-dasharray:none;stroke-opacity:1"
           d="m 264.96786,233.12572 -0.07,0.71082 -0.27981,0.71083 -0.41973,0.56862 -0.55965,0.49756 -0.6296,0.28433 -0.69957,0.14217 -0.76952,-0.0711 -0.62957,-0.21324 -0.62963,-0.35541 -0.4897,-0.56863 -0.34976,-0.63976 -0.20987,-0.7108 0,-0.7108 0.20987,-0.71082 0.34976,-0.63972 0.4897,-0.56864 0.62963,-0.3554 0.62957,-0.21327 0.76952,-0.0711 0.69957,0.14216 0.6296,0.28434 0.55965,0.49755 0.41973,0.56864 0.27981,0.71081 0.07,0.71081"
           inkscape:connector-curvature="0" /><path
           id="path3608"
           style="fill:none;stroke:#000000;stroke-width:0.28206491;stroke-linecap:round;stroke-linejoin:bevel;stroke-miterlimit:10;stroke-dasharray:none;stroke-opacity:1"
           d="m 265.94729,233.12572 -0.0699,0.85299 -0.2798,0.78187 -0.41978,0.71081 -0.55964,0.63973 -0.69957,0.49758 -0.76948,0.28432 -0.83949,0.14216 -0.83948,-0.0711 -0.76949,-0.21326 -0.76954,-0.35539 -0.62959,-0.56864 -0.48967,-0.71082 -0.34981,-0.71081 -0.20985,-0.85297 0,-0.85297 0.20985,-0.85296 0.34981,-0.71082 0.48967,-0.71081 0.62959,-0.56866 0.76954,-0.35538 0.76949,-0.21327 0.83948,-0.0711 0.83949,0.14215 0.76948,0.28434 0.69957,0.49756 0.55964,0.63974 0.41978,0.71079 0.2798,0.78189 0.0699,0.85298"
           inkscape:connector-curvature="0" /><path
           id="path3610"
           style="fill:none;stroke:#000000;stroke-width:0.28206491;stroke-linecap:round;stroke-linejoin:round;stroke-miterlimit:10;stroke-dasharray:none;stroke-opacity:1"
           d="m 256.08344,233.05466 1.50407,-2.55891 1.50406,-2.55893 3.04306,0 3.04309,0 1.53904,2.59445 1.53906,2.59445 -1.57403,2.59445 -1.57401,2.59447 -3.00811,-0.0356 -3.0081,-0.0355 -1.50406,-2.59446 -1.50407,-2.59446"
           inkscape:connector-curvature="0" /><path
           id="path3640"
           style="fill:none;stroke:#000000;stroke-width:0.28206491;stroke-linecap:round;stroke-linejoin:bevel;stroke-miterlimit:10;stroke-dasharray:none;stroke-opacity:1"
           d="m 266.01721,233.12572 -0.0699,0.85299 -0.27983,0.85297 -0.41976,0.7108 -0.62961,0.63972 -0.69958,0.4265 -0.76948,0.35541 -0.83948,0.14215 -0.83949,-0.0711 -0.83946,-0.21324 -0.69957,-0.42649 -0.69954,-0.49758 -0.48971,-0.71081 -0.34976,-0.78188 -0.20988,-0.85297 0,-0.85297 0.20988,-0.85296 0.34976,-0.7819 0.48971,-0.71081 0.69954,-0.49758 0.69957,-0.42648 0.83946,-0.21323 0.83949,-0.0711 0.83948,0.14216 0.76948,0.35543 0.69958,0.42647 0.62961,0.63973 0.41976,0.71081 0.27983,0.85296 0.0699,0.85298"
           inkscape:connector-curvature="0" /><path
           id="path3642"
           style="fill:none;stroke:#000000;stroke-width:0.28206491;stroke-linecap:round;stroke-linejoin:bevel;stroke-miterlimit:10;stroke-dasharray:none;stroke-opacity:1"
           d="m 269.30512,233.12572 -0.0699,1.1373 -0.27983,1.13729 -0.41974,1.06622 -0.62958,0.99512 -0.69961,0.85299 -0.83946,0.71082 -0.97936,0.63971 -1.04934,0.42649 -1.1193,0.28432 -1.11929,0.0711 -1.11927,-0.0711 -1.11935,-0.28432 -1.04928,-0.42649 -0.9794,-0.63971 -0.83948,-0.71082 -0.69957,-0.85299 -0.6296,-0.99512 -0.41975,-1.06622 -0.27981,-1.13729 -0.0699,-1.1373 0.0699,-1.13729 0.27981,-1.1373 0.41975,-1.0662 0.6296,-0.99517 0.69957,-0.85294 0.83948,-0.71082 0.9794,-0.63971 1.04928,-0.42652 1.11935,-0.28432 1.11927,-0.0711 1.11929,0.0711 1.1193,0.28432 1.04934,0.42652 0.97936,0.63971 0.83946,0.71082 0.69961,0.85294 0.62958,0.99517 0.41974,1.0662 0.27983,1.1373 0.0699,1.13729"
           inkscape:connector-curvature="0" /><path
           id="path3644"
           style="fill:none;stroke:#000000;stroke-width:0.28206491;stroke-linecap:round;stroke-linejoin:round;stroke-miterlimit:10;stroke-dasharray:none;stroke-opacity:1"
           d="m 212.57086,285.22809 3.75615,0 3.75584,0 3.75628,0 3.75601,0 3.75639,0 3.75601,0 3.75602,0 3.75604,0 3.75593,0 3.75598,0 3.75624,0 3.75637,0 3.75598,0 -3.48746,0 -3.488,0 -3.48764,0 -3.48808,0 -3.48793,0 -3.48762,0 -3.48787,0"
           inkscape:connector-curvature="0" /></g></g></g></svg>